<svg enable-background="new 0 0 695.4 628.7" viewBox="0 0 695.4 628.7" xmlns="http://www.w3.org/2000/svg" xmlns:xlink="http://www.w3.org/1999/xlink"><clipPath id="a"><path d="m0 0h695.4v628.7h-695.4z"/></clipPath><clipPath id="b"><path d="m842.9 515.2c-106.7 125.4-294.9 140.5-420.2 33.8l-300.3-255.8c-125.4-106.7-140.5-294.8-33.8-420.1s294.8-140.4 420.2-33.7l300.3 255.7c125.4 106.7 140.5 294.8 33.8 420.1z"/></clipPath><clipPath id="c"><path d="m525.6 152.1h-266.6c-10.6 0-19.3 8.6-19.3 19.3v146c0 10.7 8.6 19.3 19.3 19.3h266.6c10.6 0 19.3-8.6 19.3-19.3v-146c0-10.7-8.7-19.3-19.3-19.3z"/></clipPath><clipPath id="d"><path d="m147 181.9h-99.6c-10.5 0-18.9 8.5-18.9 18.9v234.2c0 10.5 8.5 18.9 18.9 18.9h99.6c10.5 0 18.9-8.5 18.9-18.9v-234.2c.1-10.4-8.4-18.9-18.9-18.9z"/></clipPath><g clip-path="url(#a)"><path d="m842.9 515.2c-106.7 125.4-294.9 140.5-420.2 33.8l-300.3-255.8c-125.4-106.7-140.5-294.8-33.8-420.1s294.8-140.4 420.2-33.7l300.3 255.7c125.4 106.7 140.5 294.8 33.8 420.1z" fill="#e7f3ff"/><path clip-path="url(#b)" d="m207.4 194c-38 36-101 88-139 36-49-67-57-168.9-49-230h718v300h-63.6c-76 0-137.5-54.3-137.5-121.3v-10.1c0-67-55.9-120.6-131.9-120.6-16.1 0-54 9-90 45z" fill="#9bcbff"/><path d="m549.6 113.1h-311.5c-12.7 0-23.1 10.3-23.1 23.1v196c0 12.8 10.3 23.1 23.1 23.1h311.5c12.7 0 23.1-10.3 23.1-23.1v-196c0-12.8-10.3-23.1-23.1-23.1z" fill="#fff"/><path d="m224.2 113.1h339.4c2.4 0 4.8 1 6.5 2.7s2.7 4 2.7 6.5v11.4h-357.8v-11.4c0-1.2.2-2.4.7-3.5s1.1-2.1 2-3 1.9-1.5 3-2 2.3-.7 3.5-.7z" fill="#0072f5"/><path d="m525.6 152.1h-266.6c-10.6 0-19.3 8.6-19.3 19.3v146c0 10.7 8.6 19.3 19.3 19.3h266.6c10.6 0 19.3-8.6 19.3-19.3v-146c0-10.7-8.7-19.3-19.3-19.3z" fill="#e6f0ff"/><g fill="#c2deff"><path d="m524 265.1h-114.1v13h114.1z"/><path d="m466.1 285.2h-56.2v6.8h56.2z"/><path d="m466.1 296.6h-56.2v6.8h56.2z"/><path d="m524 308.1h-114.1v6.8h114.1z"/><path d="m524 285.2h-52.3v6.8h52.3z"/><path d="m499.8 296.6h-28.1v6.8h28.1z"/></g><path d="m398.7 399.8c102 0 184.7-3.1 184.7-7s-82.7-7-184.7-7-184.7 3.1-184.7 7c-.1 3.9 82.6 7 184.7 7z" fill="#d1e4ff"/><path d="m225.4 126.4c1.4 0 2.6-1.1 2.6-2.6s-1.1-2.6-2.6-2.6c-1.4 0-2.6 1.1-2.6 2.6s1.2 2.6 2.6 2.6z" fill="#ff5753"/><path d="m232.9 126.4c1.4 0 2.6-1.1 2.6-2.6s-1.1-2.6-2.6-2.6-2.6 1.1-2.6 2.6 1.2 2.6 2.6 2.6z" fill="#ffc347"/><path d="m240.4 126.4c1.4 0 2.6-1.1 2.6-2.6s-1.1-2.6-2.6-2.6c-1.4 0-2.6 1.1-2.6 2.6s1.2 2.6 2.6 2.6z" fill="#fff"/><path d="m327.4 466h378v140c-127.2 42.4-241-17.7-282-53z" fill="#bcdeff"/><path d="m603.4 619.9c-66.8-3.6-116.8-25.8-133.5-36.5l-16 97 149.5 8.5z" fill="#fff"/><path d="m155.9 146.6h-115.9c-12.5 0-22.7 10.2-22.7 22.7v278.6c0 12.5 10.2 22.7 22.7 22.7h115.9c12.5 0 22.7-10.2 22.7-22.7v-278.7c0-12.5-10.2-22.6-22.7-22.6z" fill="#fff"/><path d="m26.3 146.6h143.3c2.4 0 4.7.9 6.4 2.6s2.6 4 2.6 6.4v11.2h-161.3v-11.2c0-2.4.9-4.7 2.6-6.4s4-2.6 6.4-2.6z" fill="#0072f5"/><path d="m147 181.9h-99.6c-10.5 0-18.9 8.5-18.9 18.9v234.2c0 10.5 8.5 18.9 18.9 18.9h99.6c10.5 0 18.9-8.5 18.9-18.9v-234.2c.1-10.4-8.4-18.9-18.9-18.9z" fill="#e6f0ff"/><g fill="#c2deff"><path d="m92.3 383h-48.2v10.2h48.1v-10.2z"/><path d="m95.3 397.9h-51.2v6.1h51.2z"/><path d="m95.3 408.3h-51.2v6.1h51.2z"/><path d="m148.1 418.7h-104v6.1h104z"/><path d="m148.1 397.9h-47.7v6.1h47.7z"/><path d="m126.1 408.3h-25.6v6.1h25.6z"/></g><path d="m99.3 507c45.8 0 82.9-2 82.9-4.5s-37.1-4.5-82.9-4.5-82.9 2-82.9 4.5 37.1 4.5 82.9 4.5z" fill="#d1e4ff"/><path d="m28.6 160.2c1.4 0 2.5-1.1 2.5-2.5s-1.1-2.5-2.5-2.5-2.5 1.1-2.5 2.5c0 1.3 1.1 2.5 2.5 2.5z" fill="#ff5753"/><path d="m36 160.2c1.4 0 2.5-1.1 2.5-2.5s-1.1-2.5-2.5-2.5-2.5 1.1-2.5 2.5c0 1.3 1.1 2.5 2.5 2.5z" fill="#ffc347"/><path d="m43.4 160.2c1.4 0 2.5-1.1 2.5-2.5s-1.1-2.5-2.5-2.5-2.5 1.1-2.5 2.5c-.1 1.3 1.1 2.5 2.5 2.5z" fill="#fff"/><path d="m149.7 170.3c3.2 0 5.8-2.6 5.8-5.8s-2.6-5.8-5.8-5.8-5.8 2.6-5.8 5.8 2.6 5.8 5.8 5.8z" fill="#fff"/><path d="m270.4 319.4h-61.9c-8.3 0-15 6.7-15 15v62c0 8.3 6.7 15 15 15h61.9c8.3 0 15-6.7 15-15v-62c0-8.3-6.7-15-15-15z" fill="#fff"/><path d="m229 394.7-.2-.7 29.9-6.9-22-9.8.3-.6 23.8 10.6z" fill="#34233c"/><path d="m236.9 380.6c4.4 0 8-1.6 8-3.6s-3.6-3.6-8-3.6-8 1.6-8 3.6 3.6 3.6 8 3.6z" fill="#0070fe"/><path d="m259.8 390.8c4.4 0 8-1.6 8-3.6s-3.6-3.6-8-3.6-8 1.6-8 3.6 3.6 3.6 8 3.6z" fill="#0070fe"/><path d="m228.9 397.9c4.4 0 8-1.6 8-3.6s-3.6-3.6-8-3.6-8 1.6-8 3.6 3.6 3.6 8 3.6z" fill="#0070fe"/><path d="m237.1 332.2h-.4c-2.4 0-4.8.7-6.9 1.8-2.1 1.2-3.9 2.8-5.3 4.9-1.3 2-2.2 4.3-2.4 6.8-.2 2.4.1 4.9 1 7.1 0 0 1 2 1.5 2.7l12.3 21.5 12.3-21.5c.5-.7 1.5-2.7 1.5-2.7.9-2.3 1.3-4.7 1-7.1-.2-2.4-1.1-4.7-2.4-6.8-1.3-2-3.2-3.7-5.3-4.9-2.1-1.1-4.5-1.7-6.9-1.8z" fill="#ff5753"/><path d="m236.9 353.7c4.3 0 7.7-3.5 7.7-7.7 0-4.3-3.5-7.7-7.7-7.7-4.3 0-7.7 3.5-7.7 7.7s3.4 7.7 7.7 7.7z" fill="#fff"/><path d="m236.9 377-12.3-21.5c-.5-.7-1.5-2.7-1.5-2.7-.9-2.3-1.3-4.7-1-7.1.2-2.4 1.1-4.7 2.4-6.8 1.3-2 3.2-3.7 5.3-4.9s4.5-1.8 6.9-1.8h.4s-14.6 3.8-9.8 19.1z" fill="#d64141"/><path d="m327.4 466h378v140c-127.2 42.4-241-17.7-282-53z" fill="#bcdeff"/><path d="m453.5 305.6 4.7-.2c1 0 2 .1 3 .5s1.8.9 2.6 1.7c.8.7 1.4 1.6 1.8 2.6s.7 2 .7 3.1l3.2 84.6c0 1-.3 2-1 2.8-.7.7-1.6 1.2-2.5 1.2l-12.9.5c-1 0-1.9-.3-2.6-1s-1.1-1.6-1.2-2.7l-3.2-84.6c-.1-2.2.7-4.3 2.1-5.9 1.3-1.6 3.3-2.5 5.3-2.6z" fill="#af675b"/><path d="m474.8 341.8 4.6-.2c1 0 2 .1 3 .5s1.8.9 2.6 1.7c.8.7 1.4 1.6 1.8 2.6s.7 2 .7 3.1l3.2 84.7c0 1-.3 2-1 2.8-.7.7-1.6 1.2-2.5 1.2l-12.9.5c-1 0-1.9-.3-2.6-1s-1.1-1.7-1.2-2.7l-3.2-84.7c0-1.1.1-2.2.5-3.2s.9-1.9 1.6-2.7 1.5-1.4 2.5-1.9c.9-.4 1.9-.6 2.9-.7z" fill="#af675b"/><path d="m495.8 351.4 4.7-.2c2.1-.1 4.1.7 5.6 2.2s2.4 3.5 2.5 5.7l3.2 84.8c0 1-.3 1.9-.9 2.6s-1.5 1.1-2.4 1.2l-13.3.6c-.9 0-1.8-.3-2.5-1s-1.1-1.6-1.1-2.5l-3.2-84.8c-.1-2.2.7-4.3 2.1-5.9 1.3-1.7 3.2-2.6 5.3-2.7z" fill="#af675b"/><path d="m516.6 366.7 4.7-.2c1 0 2 .1 3 .5s1.8.9 2.6 1.7c.8.7 1.4 1.6 1.8 2.6s.7 2 .7 3.1l1.9 48.8c0 1-.3 2-1 2.8-.7.7-1.6 1.2-2.5 1.2l-12.9.5c-1 0-1.9-.3-2.6-1s-1.1-1.6-1.2-2.7l-1.9-48.8c0-1.1.1-2.1.5-3.2s.9-1.9 1.6-2.7 1.5-1.4 2.5-1.9c.8-.4 1.8-.7 2.8-.7z" fill="#af675b"/><path d="m464.5 452.4-48.7-66.7c-.9-1.3-1.6-2.7-2-4.2s-.5-3.1-.2-4.7c.2-1.6.7-3.1 1.5-4.4.8-1.4 1.8-2.5 3.1-3.4 1.2-.9 2.6-1.5 4-1.9 1.4-.3 2.9-.4 4.4-.1s2.8.8 4.1 1.6 2.3 1.9 3.2 3.2l46.5 68.9z" fill="#af675b"/><path d="m427.5 401.8 48.5 65.9-5.8 152.7h68.9l-8.1-144.7v-59.3l-73.2-46.1-9.6 24.4z" fill="#af675b"/><path d="m473 486.4h61.4l5 134h-68.9z" fill="#fff"/><path d="m508.7 620.4-35.7-134-2.5 134z" fill="#d2e9ff"/><path d="m460.8 306.7 7.7 90.3-2.2-81.3c-.2-1.9-.7-3.7-1.7-5.3-.9-1.5-2.2-2.8-3.8-3.7z" fill="#a0544a"/><path d="m424.1 366.7 36.8 43.7-27-38.8c0 .1-2.9-4.8-9.8-4.9z" fill="#a0544a"/><path d="m483.3 343.3 5.2 53.7-.5-45.2s-.6-6.1-4.7-8.5z" fill="#a0544a"/><path d="m503.9 352.9 6.2 46.7-1.7-40c-.8-2.6-2.4-5-4.5-6.7z" fill="#a0544a"/><path d="m567.9 616.9c-41.5-6.5-105-36-128-50.5v82l128 6z" fill="#fff"/><g clip-path="url(#c)"><path d="m12.7 95.7h112.6c13.1 0 26 3.1 37.6 9.2 11.6 6 21.6 14.7 29.2 25.4l76.9 109.1c7.5 10.7 17.5 19.4 29.2 25.4 11.6 6 24.5 9.2 37.6 9.2 11.4 0 22.6-2.4 33-7s19.7-11.3 27.4-19.8l42.4-46.6c7.7-8.4 17-15.2 27.4-19.8s21.7-7 33-7h51.4v-111.3h-535.7z" fill="#c2deff"/><path d="m135.7 284.5h226v-21h-225.6z" fill="#2c2334"/><path d="m350.6 198.4c-5.6-2.6-9.8-4.4-12.2-5.5-.3-.1-.5-.1-.8-.1s-.5.1-.8.3c-.2.2-.4.4-.5.6s-.2.5-.2.8v19.7l31.6 2.7c0-1.9-.6-3.7-1.8-5.1-2.9-3.6-8.8-10.4-15.3-13.4z" fill="#fff"/><path d="m384 273.7v-23.6s-3.3-13.4-7.4-28.2c-1.4-4.9-9.1-5.5-9.1-5.5l-31.6-2.2v56.8h6.4c3.4 0 15.7 4 15.7 13.9v4.3h25.1c.4 0 .7-.2 1-.4.3-.3.4-.6.4-1v-9.1l-1.3-2.5z" fill="#fff"/><path d="m383.3 276c-10.2-.3-20.3-1.1-30.5-1 1.6 1.2 2.9 2.7 3.8 4.5s1.4 3.7 1.4 5.7v4.4h25.1c.2 0 .4 0 .5-.1.2-.1.3-.2.5-.3.1-.1.2-.3.3-.5s.1-.4.1-.6v-9.6z" fill="#2c2334"/><path d="m371.6 226.2c-.2-1.1-.8-2.1-1.6-2.8s-1.9-1.2-3-1.3l-20.4-1.6c-.7-.1-1.4 0-2 .3-.7.2-1.3.6-1.8 1-.5.5-.9 1-1.2 1.7-.3.6-.4 1.3-.4 2l-.5 37.9s10.8 5.2 13.6 7.7c1.6 1.4 3 3.1 4 4.9h17.7v-26c0-.3 0-.6-.1-.9z" fill="#fff"/><path d="m370.1 228.2c-.2-1.1-.7-2.2-1.5-3s-1.9-1.3-3-1.4l-16.8-1.4c-.7-.1-1.3 0-2 .2-.6.2-1.2.6-1.7 1-.6.5-1 1.2-1.3 1.9s-.5 1.5-.5 2.2l-.3 13.5c0 1 .3 2 1 2.8.6.8 1.5 1.3 2.5 1.5l22.7 4.5c.2 0 .4.1.7.1.9 0 1.7-.4 2.4-1 .4-.4.7-.9.9-1.4s.2-1.1.1-1.6c-1.3-6.2-3.2-17.9-3.2-17.9z" fill="#bcdeff"/><path d="m376 276h7.4l.7-2.3v-9.7h-8.1z" fill="#ffc347"/><path d="m341.4 277.6c-1.6 0-3.1.3-4.5.9s-2.8 1.5-3.9 2.6-2 2.4-2.6 3.9c-.6 1.4-.9 3-.9 4.6 0 3.2 1.3 6.2 3.5 8.4s5.2 3.5 8.4 3.5c3.1 0 6.2-1.3 8.4-3.5s3.5-5.3 3.5-8.4c0-3.2-1.2-6.2-3.5-8.4-2.3-2.3-5.3-3.6-8.4-3.6z"/><path d="m341.4 282.2c-1 0-1.9.2-2.8.6s-1.7.9-2.4 1.6-1.2 1.5-1.6 2.4-.6 1.9-.6 2.8c0 2 .8 3.8 2.2 5.2s3.3 2.2 5.2 2.2c1 0 1.9-.2 2.8-.6s1.7-.9 2.4-1.6 1.2-1.5 1.6-2.4.6-1.9.6-2.8c0-1-.2-1.9-.6-2.8s-.9-1.7-1.6-2.4-1.5-1.2-2.4-1.6c-.9-.5-1.9-.6-2.8-.6z" fill="#2c2334"/><path d="m341.4 284.4c-.7 0-1.3.1-1.9.4s-1.2.6-1.6 1.1c-.5.5-.8 1-1.1 1.7-.3.6-.4 1.3-.4 1.9 0 1.3.5 2.6 1.5 3.6s2.2 1.5 3.6 1.5c1.3 0 2.6-.5 3.6-1.5s1.5-2.2 1.5-3.6c0-.7-.1-1.3-.4-2-.3-.6-.6-1.2-1.1-1.7s-1-.8-1.6-1.1c-.8-.2-1.5-.3-2.1-.3z" fill="#fff"/><path d="m333.7 190.9h-204.4v83.9h204.4z" fill="#005fcc"/><path d="m330 194h-196.9v72.7h196.9z" fill="#0072f5"/><path d="m333.7 266.1h-204.4v8.7h204.4z" fill="#005fcc"/><path d="m354.5 270.9c-4.1-3.6-8.8-7.9-8.8-7.9h-9.7v9.2c0 .2.1.5.3.7s.4.3.7.3h9.3c8.4.6 10 9 10 9v4.8c0 .7.3 1.4.8 2 .5.5 1.2.8 1.9.8h2.7s.1-2.8 0-7.1c-.2-4.4-2.5-7.6-7.2-11.8z" fill="#2c2334"/><path d="m327.8 277.6h-9.6v11.8h9.6z" fill="#2c2334"/><path d="m279.4 271.9h5v-79.2h-5z" fill="#005fcc"/><g fill="#d2e9ff"><path d="m370.4 230.3-22.4 15.4 8.7 1.7 14.8-10.8z"/><path d="m361.7 223.4-18.7 12.7v-10.1c0-.5.1-1.1.3-1.5.2-.5.5-.9.9-1.3s.9-.6 1.4-.8 1-.2 1.6-.2z"/></g></g><g clip-path="url(#d)"><path d="m299.9 202.8h-94.5c-11 0-21.8 2.6-31.5 7.7s-18.1 12.4-24.5 21.3l-64.7 91.4c-6.3 9-14.7 16.3-24.5 21.3-9.7 5.1-20.6 7.7-31.5 7.7-9.5 0-19-2-27.7-5.9s-16.6-9.5-23-16.6l-35.7-39c-6.4-7.1-14.3-12.7-23-16.6s-18.2-5.8-27.7-5.8h-43.2v-93.6h449.8z" fill="#c2deff"/><path d="m234.4 315.3h-179.8l-6.1-.4c-.4 0-.8-.2-1-.5-.3-.3-.4-.7-.4-1.1l.3-17.3c.1-1.6.2-3.1.5-4.7.6-2.7 2.1-5.1 4.1-7 2.8-2.5 8.4-4.7 12.9-6.7 3.7-1.6 7.5-3.1 10.1-6.1 0 0 8.5-10.5 24-30 1.2-1.5 2.9-.8 25.5-.8h108.3c1.9 0 3.8 2.5 3.8 4.3v68.4c0 .5-.2 1-.6 1.3-.7.4-1.1.6-1.6.6z" fill="#fac348"/><path d="m54.4 282.5c-.9.5-1.8 1.1-2.5 1.8-2 1.9-3.4 4.3-4.1 7-.3 1.2-.5 2.5-.4 3.7v2.4l189-.2v-14.7z" fill="#e9a01e"/><path d="m47 313.3c0 .4.1.8.4 1.1s.6.5 1 .5l6.1.4h179.8c.5 0 1-.2 1.4-.6s.6-.8.6-1.4v-16.2h-189.1l-.2 4.1z" fill="#e9a01e"/><path d="m75.6 279.5h-.8c.9-1.7 3.7-6.6 4.7-7.8.9-1.2 2.5-3.4 4.2-5.7 5.1-7.2 12.9-17.9 15.8-19 .3 0 3.2-.4 6.7-.7 4.2-.3 9.5-.5 12-.7h.9c.1 0 .2 0 .2.1.1 0 .1.1.2.1s.1.1.1.2 0 .2 0 .3v32.4.3c0 .1-.1.2-.1.2-.1.1-.1.1-.2.2-.1 0-.2.1-.3.1h-41-1.1z" fill="#fff"/><path d="m102.8 276c-5.7 0-11.4 0-17.2 0h-2c-.3 0-.4-.2-.2-.4.9-1.6 1.8-3.2 2.8-4.8 2.3-3.3 4.2-5.9 6.4-8.8 2-2.7 4.2-6.7 6.6-9 .7-.8 1.6-1.5 2.5-1.9 0 0 2.3-.3 5.1-.5 3.5-.2 8.1-.4 9.8-.5h.3c.1 0 .2.1.2.2l.2.2c0 .1.1.2.1.3v24.4c0 .2-.1.4-.2.5s-.3.2-.5.2c-4.1.1-10.4.1-13.9.1z" fill="#fff"/><path d="m73.9 292.2c-2.7 0-5.3.5-7.8 1.5s-4.7 2.5-6.6 4.4-3.4 4.2-4.4 6.6c-1 2.5-1.5 5.1-1.5 7.8 0 .9.1 1.8.2 2.7h40c.1-.9.2-1.8.3-2.7 0-2.7-.5-5.3-1.5-7.8s-2.5-4.7-4.4-6.6-4.1-3.4-6.6-4.4c-2.4-1-5-1.5-7.7-1.5z" fill="#fac348"/><path d="m48.5 315.5c-.4 0-.8-.2-1.1-.4-.3-.3-.6-.6-.7-1-.9-3-.5-6.9.5-10.1h12.3v11.5z" fill="#34233c"/><path d="m55.6 303.9c-1.2 2.7-1.9 5.6-1.9 8.6 0 .9.1 1.8.2 2.7h5.4v-11.3z" fill="#483556"/><path d="m73.9 294.8c-2.3-.1-4.6.4-6.7 1.2s-4.1 2.1-5.8 3.7-3 3.5-3.9 5.7c-.9 2.1-1.4 4.4-1.4 6.7 0 1.2.1 2.3.3 3.4h34.8c.2-1.1.3-2.3.3-3.4 0-2.3-.5-4.6-1.4-6.7s-2.2-4-3.9-5.7c-1.7-1.6-3.6-2.9-5.8-3.7s-4.2-1.2-6.5-1.2z" fill="#34233c"/><path d="m187.3 316.1h-98.3c-.3 0-.6-.5-.6-1.1v-3.4h99.4v3.4c.1.6-.2 1.1-.5 1.1z" fill="#34233c"/><path d="m73.9 298.1c-4.1 0-7.9 1.6-10.8 4.4-2.9 2.9-4.5 6.7-4.5 10.8s1.7 7.9 4.5 10.8c2.9 2.9 6.8 4.4 10.8 4.4 4.1 0 7.9-1.6 10.8-4.4 2.9-2.9 4.5-6.7 4.5-10.8s-1.7-7.9-4.5-10.8-6.7-4.5-10.8-4.4z"/><path d="m73.9 303.8c-2.5 0-4.9 1-6.7 2.8s-2.8 4.2-2.8 6.7 1 4.9 2.8 6.7 4.2 2.8 6.7 2.8 4.9-1 6.7-2.8 2.8-4.2 2.8-6.7-1-4.9-2.8-6.7c-1.7-1.8-4.2-2.8-6.7-2.8z" fill="#fff"/><path d="m73.9 304.6c-2.3 0-4.5.9-6.2 2.5-1.6 1.6-2.6 3.8-2.6 6.1s.9 4.5 2.6 6.2c1.6 1.6 3.9 2.5 6.2 2.5s4.5-.9 6.2-2.5c1.6-1.6 2.6-3.8 2.6-6.2 0-2.3-.9-4.5-2.6-6.1s-3.9-2.5-6.2-2.5z"/><path d="m78.3 313.8 4.6-1.5-1.1-3.4-4.6 1.5c-.2.1-.4.1-.5.1-.2 0-.4-.1-.5-.2s-.3-.3-.3-.4c-.1-.2-.1-.4-.1-.5v-5h-3.8v4.8c0 .2 0 .4-.1.5-.1.2-.2.3-.3.4s-.3.2-.5.2-.4 0-.5-.1l-4.6-1.5-1.1 3.4 4.6 1.5c.2 0 .3.1.5.3.1.1.2.3.3.5s.1.4 0 .5c0 .2-.1.3-.2.5l-2.9 3.9 2.9 2.1 2.8-3.9c.1-.2.2-.3.4-.4s.3-.1.5-.1.4 0 .5.1.3.2.4.4l2.8 3.9 2.9-2.1-2.8-3.9c-.1-.1-.2-.3-.3-.5 0-.2 0-.4 0-.6.1-.2.2-.3.3-.5.3.1.5 0 .7 0z" fill="#fff"/><path d="m73.9 311.3c-.3 0-.5 0-.8.1-.2.1-.5.2-.6.4s-.3.4-.4.6-.2.5-.2.8.1.5.2.8c.1.2.2.5.4.6.2.2.4.3.6.4s.5.1.8.1.5 0 .8-.1c.2-.1.5-.2.6-.4.2-.2.3-.4.4-.6s.2-.5.2-.8-.1-.5-.2-.8c-.1-.2-.2-.5-.4-.6-.2-.2-.4-.3-.6-.4-.3-.1-.5-.1-.8-.1z"/><path d="m73.9 309.6c-.2 0-.4.1-.5.2s-.2.3-.2.5.1.4.2.5.3.2.5.2.4-.1.5-.2.2-.3.2-.5-.1-.4-.2-.5-.3-.2-.5-.2z"/><path d="m71 311.9c-.2-.1-.4 0-.5 0-.2.1-.3.2-.4.4v.3c0 .1 0 .2.1.3 0 .1.1.2.2.2.1.1.2.1.2.1h.3c.1 0 .2 0 .3-.1.1 0 .2-.1.2-.2.1-.1.1-.2.1-.2 0-.1 0-.2 0-.3s0-.2-.1-.3c0-.1-.1-.2-.2-.2 0 .1-.1.1-.2 0z"/><path d="m72.5 315.6c-.1-.1-.2-.1-.3-.1s-.2 0-.3 0-.2 0-.3.1c-.1 0-.1.1-.2.2s-.1.2-.1.2 0 .2 0 .3 0 .2.1.3c0 .1.1.1.2.2.2.1.3.2.5.1.2 0 .4-.1.5-.3.1-.1.1-.2.1-.2 0-.1 0-.2 0-.3s0-.2-.1-.3c0-.1-.1-.1-.1-.2z"/><path d="m75.5 315.6c-.1.1-.1.1-.2.2 0 .1-.1.2-.1.3v.3c0 .1.1.2.1.2.1.2.3.3.5.3s.4 0 .5-.1.1-.1.2-.2c0-.1.1-.2.1-.3s0-.2 0-.3-.1-.2-.1-.2c-.1-.1-.1-.1-.2-.2-.1 0-.2-.1-.3-.1s-.2 0-.3 0-.2 0-.2.1z"/><path d="m76.8 311.8c-.2.1-.3.2-.4.4s-.1.4 0 .5c.1.2.2.3.4.4s.4.1.5 0c.2-.1.3-.2.4-.3.1-.2.1-.4 0-.5 0-.1-.1-.2-.1-.2-.1-.1-.1-.1-.2-.2s-.2-.1-.3-.1-.2 0-.3 0z"/><path d="m73.9 297.9c-4.1 0-8 1.6-10.9 4.5s-4.5 6.8-4.5 10.9c0 2 .4 4 1.2 5.9s1.9 3.6 3.3 5 3.1 2.6 5 3.3c1.9.8 3.9 1.2 5.9 1.2s4-.4 5.9-1.2 3.6-1.9 5-3.3 2.6-3.1 3.3-5c.8-1.9 1.2-3.9 1.2-5.9s-.4-4-1.2-5.9-1.9-3.6-3.3-5-3.1-2.6-5-3.3-3.9-1.2-5.9-1.2zm0 28.2c-3.4 0-6.7-1.4-9.1-3.8s-3.8-5.7-3.8-9.1 1.4-6.7 3.8-9.1 5.7-3.8 9.1-3.8 6.7 1.4 9.1 3.8 3.8 5.7 3.8 9.1-1.4 6.7-3.8 9.1-5.7 3.8-9.1 3.8z"/><g fill="#34233c"><path d="m73.7 297.9-.3.4c-.2.2-.2.5-.1.6s.4 0 .6-.2l.5-.6c0-.1.1-.1.1-.2z"/><path d="m71.7 298.1-.3.4c-.2.3-.2.5 0 .7.2.1.4 0 .6-.3l.4-.7c0-.1.1-.1.1-.2h-.5z"/><path d="m69.7 298.5-.2.4c-.1.3-.1.6.1.7s.4-.1.5-.4l.3-.7c0-.1.1-.1.1-.2l-.5.1z"/><path d="m67.9 299.2-.1.5c-.1.3 0 .6.1.6.1.1.4-.1.5-.4l.2-.8c0-.1 0-.1 0-.2l-.5.2z"/><path d="m66 300.1-.1.5c0 .3 0 .6.2.6s.4-.2.4-.5l.1-.8c0-.1 0-.1 0-.2l-.4.3z"/><path d="m64.6 301-.3.2v.5c0 .3.1.6.3.6s.4-.2.4-.5v-.8c0-.1 0-.1 0-.2z"/><path d="m63.5 302.2c0-.1 0-.1 0-.2l-.4.4c-.1.1-.1.2-.2.2v.5c0 .3.2.5.4.5s.3-.3.3-.6z"/><path d="m62.2 303.6c0-.1 0-.1 0-.2l-.3.4-.2.3.1.5c0 .3.3.5.4.5.2 0 .3-.3.2-.6z"/><path d="m61 305.3c0-.1-.1-.1-.1-.2-.1.1-.2.3-.3.4l-.2.3.2.5c.1.3.3.5.5.4s.2-.3.1-.6z"/><path d="m60.1 307c0-.1-.1-.1-.1-.2l-.2.5-.1.3.2.4c.1.3.4.4.6.3s.2-.4 0-.7z"/><path d="m59.4 308.9c0-.1-.1-.1-.1-.2l-.1.5c0 .1-.1.2-.1.3l.3.4c.2.3.4.4.6.3.1-.1.1-.4 0-.7z"/><path d="m58.9 310.8c-.1-.1-.1-.1-.2-.1 0 .2 0 .3-.1.5v.3l.3.4c.2.2.5.3.6.2s.1-.4-.1-.6z"/><path d="m59.4 313.3-.6-.5-.2-.1v.5s0 .2 0 .3l.4.3c.2.2.5.2.6.1s0-.4-.2-.6z"/><path d="m59.5 315.2-.7-.4c-.1 0-.1-.1-.2-.1 0 .2 0 .3.1.5s0 .2 0 .3l.4.3c.3.2.5.2.7 0 0-.2 0-.4-.3-.6z"/><path d="m59.9 317.1-.7-.3c-.1 0-.1-.1-.2-.1 0 .2.1.3.1.5l.1.3.4.2c.3.1.6.1.7-.1 0-.2-.2-.4-.4-.5z"/><path d="m60.5 318.9-.8-.3h-.2c.1.2.1.3.2.5l.1.3.5.1c.3.1.6 0 .6-.2.1-.1-.1-.3-.4-.4z"/><path d="m61.3 320.6-.8-.1c-.1 0-.1 0-.2 0 .1.1.2.3.3.4l.2.3.5.1c.3.1.6 0 .6-.2-.1-.3-.3-.5-.6-.5z"/><path d="m62.4 322.1h-.8-.2l.3.4.2.3h.5c.3 0 .6-.1.6-.3s-.3-.3-.6-.4z"/><path d="m63.6 323.6-.8.1h-.2c.1.1.2.3.4.4l.2.2h.5c.3 0 .5-.2.5-.4s-.3-.3-.6-.3z"/><path d="m65.1 324.8-.8.2c-.1 0-.1 0-.2.1l.4.3.3.2.5-.1c.3-.1.5-.3.5-.4-.1-.2-.4-.3-.7-.3z"/><path d="m66.7 325.9-.8.3c-.1 0-.1.1-.2.1l.4.3.3.2.5-.2c.3-.1.5-.3.4-.5 0-.3-.3-.3-.6-.2z"/><path d="m68.4 326.7-.7.4c-.1 0-.1.1-.2.1l.5.2.3.1.4-.2c.3-.1.4-.4.3-.6-.1-.1-.4-.1-.6 0z"/><path d="m70.2 327.3-.7.5-.2.1.5.1.3.1.4-.3c.3-.2.4-.4.3-.6-.1-.1-.4 0-.6.1z"/><path d="m72 327.7-.6.5c-.1.1-.1.1-.1.2l.5.1h.3l.4-.3c.2-.2.3-.5.2-.6-.1-.2-.4-.1-.7.1z"/><path d="m73.9 327.8-.5.6c0 .1-.1.1-.1.2h.8l.3-.4c.2-.2.2-.5.1-.6s-.4 0-.6.2z"/><path d="m76.4 327.4c-.2-.1-.4 0-.6.3l-.4.7c0 .1-.1.1-.1.2h.5.3l.3-.4c.2-.4.2-.7 0-.8z"/><path d="m78.2 326.9c-.2-.1-.4.1-.5.4l-.3.7c0 .1-.1.1-.1.2l.5-.1.3-.1.2-.4c.2-.3.1-.6-.1-.7z"/><path d="m80 326.3c-.2 0-.4.1-.5.4l-.3.8v.2l.5-.2.3-.1.1-.5c.1-.3.1-.6-.1-.6z"/><path d="m81.6 325.4c-.2 0-.4.2-.4.5l-.1.8v.2l.4-.2.3-.2.1-.5c0-.3-.1-.6-.3-.6z"/><path d="m83.2 324.2c-.2 0-.4.2-.4.5v.8.2l.4-.3.3-.2v-.5c0-.2-.2-.4-.3-.5z"/><path d="m84.5 322.9c-.2 0-.3.3-.3.6l.1.8v.2c.1-.1.3-.2.4-.4l.2-.2v-.5c0-.2-.2-.5-.4-.5z"/><path d="m85.7 321.5c-.2 0-.3.3-.2.6l.2.8c0 .1 0 .1.1.2.1-.1.2-.3.3-.4l.2-.3-.1-.5c-.1-.2-.3-.5-.5-.4z"/><path d="m86.7 319.9c-.2.1-.2.4-.1.6l.3.8c0 .1.1.1.1.2l.3-.4.2-.3-.2-.5c-.2-.3-.5-.5-.6-.4z"/><path d="m87.4 318.2c-.2.1-.2.4 0 .7l.4.7c0 .1.1.1.1.2.1-.2.1-.3.2-.5s.1-.2.1-.3l-.2-.4c-.2-.4-.4-.5-.6-.4z"/><path d="m87.9 316.4c-.2.1-.1.4 0 .7l.5.7.1.2c0-.2.1-.3.1-.5s0-.2.1-.3l-.3-.4c0-.4-.3-.6-.5-.4z"/><path d="m88.2 314.5c-.1.1-.1.4.1.6l.5.6c.1.1.1.1.2.1l.1-.5c0-.1 0-.2 0-.3l-.3-.4c-.2-.1-.4-.2-.6-.1z"/><path d="m88.9 312.7c-.2-.2-.5-.2-.6-.1s0 .4.2.6l.6.5.2.1c0-.2 0-.3 0-.5s0-.2 0-.3z"/><path d="m89.1 311-.4-.3c-.3-.2-.6-.2-.7 0s0 .4.3.6l.7.4c.1 0 .1.1.2.1 0-.2 0-.3 0-.5 0 0-.1-.2-.1-.3z"/><path d="m88.7 309.1-.4-.2c-.3-.1-.6-.1-.7.1s.1.4.4.5l.7.3h.2c0-.2-.1-.3-.1-.5-.1-.2-.1-.1-.1-.2z"/><path d="m88 307.2-.5-.1c-.3-.1-.6 0-.6.1s.1.4.4.5l.8.2h.2c0-.2-.1-.3-.2-.5z"/><path d="m87.1 305.4-.5-.1c-.3 0-.6 0-.6.2s.2.4.5.4l.8.1h.2c-.1-.1-.1-.3-.2-.4z"/><path d="m86 303.7h-.5c-.3 0-.6.1-.6.3s.2.4.5.4h.8.2l-.3-.4z"/><path d="m84.6 302.2h-.5c-.3 0-.5.2-.5.4s.3.3.6.3l.8-.1h.2l-.4-.4z"/><path d="m83.1 300.9-.5.1c-.3.1-.5.3-.5.4 0 .2.3.3.6.2l.8-.2c.1 0 .1 0 .2-.1l-.4-.3z"/><path d="m81.4 299.8-.5.2c-.3.1-.5.3-.4.5s.4.2.6.1l.8-.3c.1 0 .1-.1.2-.1l-.4-.3z"/><path d="m79.6 299-.4.2c-.3.1-.4.4-.3.6s.4.2.7 0l.7-.4c.1 0 .1-.1.2-.1l-.5-.2z"/><path d="m77.7 298.4-.4.3c-.3.2-.4.4-.3.6.1.1.4.1.7 0l.7-.5c.1 0 .1-.1.2-.1l-.5-.1z"/><path d="m75.7 298-.4.3c-.2.2-.3.5-.2.6s.4.1.7-.1l.6-.5c0-.1.1-.1.1-.2l-.5-.1z"/></g><path d="m108.2 245.9 8-.6-18.4 34.5h-9z" fill="#d2e9ff"/><path d="m113.1 279.8 6.7-12.6.1 3.6-4.1 9z" fill="#d2e9ff" opacity=".16"/><path d="m47 301.3h5.7c.1 0 .3 0 .3-.1.1-.1.1-.2.2-.3 0-1.3.1-2.4.1-3.7 0-.3-.1-.6-.2-.8-.1-.3-.4-.5-.6-.6-1.6-.8-3.3-1.6-5.1-2.2z" fill="#fff"/><path d="m118.4 285.2h-5.6c-.1 0-.3 0-.4 0s-.3-.1-.4-.2-.2-.2-.3-.3-.1-.2-.1-.4v-.7c0-.1.1-.3.1-.4.1-.1.2-.2.3-.3s.2-.1.4-.2h.4 5.6c.3 0 .5 0 .7.2s.4.4.4.7v.7c0 .3-.2.5-.4.7-.1.2-.4.2-.7.2z" fill="#34233c"/><path d="m124.3 240.8h-.3v70.8h.3z" fill="#e9a01e"/><path d="m52.5 295.7c-.7-.4-1.4-.7-2.1-1v6.6h2.3c.1 0 .3 0 .3-.1.1-.1.1-.2.2-.3 0-1.3.1-2.4.1-3.7 0-.3-.1-.6-.2-.8s-.4-.5-.6-.7z" fill="#d2e9ff"/><path d="m79.2 272.4c-3.4 0-6.3 4-6.3 5.4 0 3 2.8 5.4 6.3 5.4 2.5 0 1.6-4.1 1.6-10.4.1-.5-.9-.4-1.6-.4z" fill="#e9a01e"/><path d="m79.4 273c-3.4 0-6.3 4-6.3 5.4 0 3 2.8 5.4 6.3 5.4 2.5 0 1.6-2.4 1.6-10.4 0-.6-1-.4-1.6-.4z" fill="#fac348"/></g><path d="m174 128.4h-48.8c-6.5 0-11.9 5.3-11.9 11.9v48.8c0 6.6 5.3 11.9 11.9 11.9h48.8c6.6 0 11.9-5.3 11.9-11.9v-48.8c0-6.6-5.3-11.9-11.9-11.9z" fill="#fff"/><path d="m169.1 162.9c0-.3-.1-.7-.3-.9-.2-.3-.4-.5-.7-.7-.4-.3-.8-.4-1.3-.4h-.5c-.4 0-.8-.1-1.1-.3s-.6-.6-.7-1l-.7-1.7c-.2-.4-.2-.8-.2-1.3.1-.4.3-.8.6-1.1l.3-.3c.2-.2.4-.4.5-.6s.2-.5.2-.8 0-.5-.1-.8c-.1-.2-.2-.5-.4-.7l-1.5-1.6c-.2-.2-.4-.4-.7-.5-.4-.2-.8-.3-1.2-.3s-.8.2-1.1.5l-.3.3c-.3.3-.8.5-1.2.5s-.9-.1-1.3-.3l-.8-.4-.7-.4c-.4-.2-.7-.5-.9-.9s-.3-.8-.3-1.3l.1-.4c.1-.5 0-.9-.3-1.3-.2-.4-.6-.7-1.1-.8-.2-.1-.4-.1-.6-.2l-2.1-.3c-.3 0-.5 0-.8 0-.3.1-.5.2-.7.3-.2.2-.4.4-.5.6s-.2.5-.3.7l-.1.4c-.1.4-.3.8-.6 1.1s-.7.5-1.1.6l-1.9.4c-.4.1-.8.1-1.2 0-.4-.2-.7-.4-.9-.7l-.2-.4c-.2-.4-.6-.7-1-.8-.3-.1-.6-.2-1-.2-.3 0-.7.1-.9.3l-1.8 1.1c-.2.1-.4.3-.6.5s-.3.5-.3.7c-.1.3-.1.5 0 .8 0 .3.1.5.3.7l.2.4c.2.4.3.8.3 1.3 0 .4-.2.9-.5 1.2l-1.2 1.5c-.3.3-.6.6-1 .8-.4.1-.8.2-1.3.1l-.3-.1h-.1c-.3-.1-.5-.1-.8-.1s-.5.1-.8.2c-.2.1-.4.3-.6.5s-.3.4-.4.7l-.6 2.1c-.1.3-.1.5-.1.8s.1.5.2.8c.1.2.3.4.5.6s.4.3.7.4l.4.1c.4.1.8.4 1 .8.3.4.4.8.4 1.2l.1 1.9c0 .4-.1.9-.3 1.3s-.6.7-1 .9l-.4.2c-.2.1-.5.2-.6.4-.2.2-.3.4-.4.6s-.2.5-.2.8.1.5.1.8l.8 2c.1.3.3.6.6.8.3.3.6.4 1 .5s.8 0 1.1-.1l.4-.2c.4-.1.9-.2 1.3-.1s.8.4 1.1.7l1.3 1.4c.3.3.5.7.6 1.2.1.4 0 .9-.2 1.3l-.2.4c-.2.3-.3.7-.2 1.1 0 .4.2.8.4 1.1.2.2.3.3.5.4l1.9 1 .1.1c.3.1.6.2.9.2v-.1c.3 0 .7-.1 1-.3s.5-.4.7-.7l.2-.4c.2-.4.5-.7.9-.9s.8-.2 1.3-.1c0 0 .1 0 1 .1l.9.1c.4 0 .9.2 1.2.4.3.3.6.7.7 1.1l.1.4c.1.4.3.8.6 1.1s.7.5 1.2.5v.1h.7l2.1-.5c.5-.1 1-.4 1.3-.9.3-.4.4-1 .3-1.5l-.1-.4c-.1-.4 0-.9.2-1.3s.5-.7.9-.9c0 0 .1-.1.8-.5.7-.5.8-.5.8-.5.3-.2.8-.4 1.2-.4s.8.1 1.2.4l.3.2.1.1c.4.3 1 .5 1.5.4s1-.3 1.3-.8l1.3-1.7c.2-.2.3-.4.3-.7s.1-.5.1-.8-.1-.5-.2-.7-.3-.4-.5-.6l-.1-.1-.2-.2c-.3-.3-.6-.7-.7-1.1s-.1-.9.1-1.3l.6-1.8c.1-.4.4-.8.7-1.1s.8-.4 1.2-.5h.5c.3 0 .5-.1.8-.2.2-.1.5-.3.6-.5.2-.2.3-.4.4-.7.1-.2.1-.5.1-.8z" fill="#ff5753"/><path d="m149.7 173.9c5.2 0 9.4-4.2 9.4-9.4s-4.2-9.3-9.4-9.3-9.3 4.2-9.3 9.3 4.1 9.4 9.3 9.4z" fill="#fff"/><path d="m149.7 170.5c3.3 0 6-2.7 6-6s-2.7-6-6-6-6 2.7-6 6 2.7 6 6 6z" fill="#34233c"/><path d="m577.7 88.4h-64.6c-8.7 0-15.7 7-15.7 15.7v64.6c0 8.7 7 15.7 15.7 15.7h64.6c8.7 0 15.7-7 15.7-15.7v-64.6c0-8.7-7-15.7-15.7-15.7z" fill="#fff"/><path d="m572 112.1h-53.2v48.5h53.2z" fill="#f39719"/><path d="m569.8 112.1h-51v46.9h51z" fill="#ffc347"/><path d="m547.3 112.1h-8.3v48.3h8.3z" fill="#f39719"/><path d="m566 116.2h-13.3v9.4h13.3z" fill="#fff"/></g></svg>