<svg version="1.1" id="Layer_1" xmlns="http://www.w3.org/2000/svg" xmlns:xlink="http://www.w3.org/1999/xlink" x="0" y="0" viewBox="0 0 375 415" style="enable-background:new 0 0 375 415" xml:space="preserve"><style>.st3{fill:#fff}.st4{fill:#bcdeff}.st5{fill:#d2e9ff}.st6,.st7{opacity:.5;fill:#fff;enable-background:new}.st7{opacity:.2}.st8{fill:#add3ff}.st9{opacity:.5}.st11{fill:#2c2334}.st12{fill:#0072f5}.st13{fill:#005fcc}.st14{fill:#ffc347}.st15{fill:#f39719}.st16{fill:#c2deff}.st17{fill:#e2a091}.st18{fill:#34233c}.st19{fill:#dd3c3c}.st20{fill:#d3897d}.st21{fill:#ff5753}</style><defs><path id="SVGID_1_" d="M0 0h375v415H0z"/></defs><clipPath id="SVGID_00000021803839731439964380000007630862023340302515_"><use xlink:href="#SVGID_1_" style="overflow:visible"/></clipPath><g style="clip-path:url(#SVGID_00000021803839731439964380000007630862023340302515_)"><path d="M443 363c-51 60-141 67-202 16L98 256A143 143 0 0 1 283 39l144 122c60 52 67 142 16 202z" style="fill:#e7f3ff"/><defs><path id="SVGID_00000150818308959959266110000004009896727201495713_" d="M443 363c-51 60-141 67-202 16L98 256A143 143 0 0 1 283 39l144 122c60 52 67 142 16 202z"/></defs><clipPath id="SVGID_00000111906567177771997730000006495985011061860238_"><use xlink:href="#SVGID_00000150818308959959266110000004009896727201495713_" style="overflow:visible"/></clipPath><path style="clip-path:url(#SVGID_00000111906567177771997730000006495985011061860238_);fill:#9bcbff" d="M-43-31h444v161H-43z"/><path style="clip-path:url(#SVGID_00000111906567177771997730000006495985011061860238_);fill:#9bcbff" d="M138 209c-18 17-48 42-66 17-24-32-28-81-24-110h344v144h-30c-37 0-66-26-66-58v-5c0-32-27-58-63-58-8 0-26 4-43 22l-52 48z"/><g><path class="st3" d="M401 142H287v233h114V142z"/><path class="st4" d="M397 174H292v128h106V174h-1z"/><path class="st5" d="M397 294H292v10h106v-10h-1z"/><path class="st3" d="M397 218H292v4h106v-4h-1z"/><path class="st5" d="M397 208H292v10h106v-10h-1z"/><path class="st6" d="M315 197h-16v15h17v-15h-1zM365 197h-42v15h43v-15h-1z"/><path class="st3" d="M312 190h-10v19h11v-19h-1z"/><path class="st4" d="M312 192h-9v14h9v-14zM309 207h-4v1h4v-1c0-1 0 0 0 0z"/><path class="st3" d="M331 189h26v18h-27v-17l1-1z"/><path class="st4" d="M355 191h-23v15l1 1h22l1-1v-15h-1z"/><path class="st7" d="m339 191 17 13v-5l-11-8h-7zM332 191l20 16h2l-21-16h-1z"/><path class="st3" d="M327 207h33v2h-32l-1-2zM313 211h-11v5h11v-5zM363 211h-36v5h36v-5zM398 260H292v3h106v-3z"/><path class="st5" d="M398 249H292v11h106v-11z"/><path class="st6" d="M335 240h-38v13h38v-13z"/><path class="st5" d="M305 242h-3l-2 3v3l1 3 3 1h3l2-2 1-3v-2l-1-2-2-1h-2z"/><path class="st3" d="m305 243-3 1-1 1v3l1 2 2 1a4 4 0 0 0 4-2l1-2-1-3-3-1z"/><path class="st4" d="M305 245h-1l-1 1v2l1 1h1l1-1v-2l-1-1z"/><path class="st5" d="M327 252c3 0 5-2 5-5s-2-5-5-5-5 2-5 5 2 5 5 5z"/><path class="st3" d="m327 243-2 1-2 1v3l1 2 2 1a4 4 0 0 0 5-2v-4l-1-1-1-1h-2z"/><path class="st8" d="M327 245h-1l-1 1v1l1 1 1 1h1l1-1v-2h-1v-1h-1z"/><path class="st3" d="M316 244h-2l-2 2v2l1 1 2 2 2-1 2-1v-3l-1-1-1-1h-1z"/><path class="st8" d="M316 245h-1l-1 1v2l1 1h1l1-1v-2l-1-1z"/><path class="st6" d="M353 232h-11v21h11l1-1v-20h-1z"/><path class="st5" d="m348 242-3 1-1 2v2l1 2 2 1h3l2-2v-4l-1-1-1-1h-2z"/><path class="st3" d="M348 243h-2l-1 2v2l1 2h3l2-1v-2l-1-2-2-1z"/><path class="st4" d="M348 245h-1l-1 1v1h1l1 1 1-1v-2h-1z"/><path class="st3" d="M348 235h-2l-1 1v2l1 2h3l1-1 1-1-1-2-2-1z"/><path class="st8" d="M348 236h-1l-1 1v1l1 1h1l1-1v-2h-1z"/><path class="st6" d="M367 232h-11v21h10l1-1v-20z"/><path class="st5" d="m361 242-2 1-2 2v2l1 2 2 1h3l2-2 1-2-2-3-3-1z"/><path class="st3" d="M361 243h-2l-1 2v2l1 2h4l1-1 1-2-1-2-3-1z"/><path class="st4" d="m361 245-1 1v1l1 1h1l1-1v-2h-2z"/><path class="st3" d="M361 235h-1l-1 1-1 2 1 2h3l2-1v-1l-1-2-2-1z"/><path class="st8" d="m361 236-1 1v2h2l1-1v-2h-2z"/><path class="st7" d="m292 218 106-44H292v44zM292 260l106-38H292v38z"/><g class="st9"><path class="st6" d="M360 288v10h-17v-11h4l2-2h6l1 2h4v1zm-8 8a4 4 0 0 0 3-2v-3l-1-2h-4l-1 1a4 4 0 0 0 0 5l1 1h2zm7-7v-1h-1v1h1c1 0 0 0 0 0z"/></g><path class="st3" d="M352 296a4 4 0 0 1-4-2v-3l1-2h4l2 1a4 4 0 0 1-1 5l-2 1zm0-7-2 1-1 1v3l2 1h2l1-1 1-2-1-1a3 3 0 0 0-1-1l-1-1zM359 289h-1v-1h1v1z"/><path class="st5" d="m352 289 1 1 1 1 1 2-1 1-2 1h-1l-2-1v-2l1-2 2-1z"/><g class="st9"><path class="st6" d="M385 288v10h-17v-11h4l2-2h6l1 2h4v1zm-9 8a4 4 0 0 0 4-2v-3l-1-2h-4l-2 1a4 4 0 0 0 1 5l1 1h1zm8-7v-1h-1v1h1z"/></g><path class="st7" d="m292 304 106-41H292v41z"/></g><g><defs><path id="SVGID_00000119799629652454415570000003270141587419718565_" d="M9 172h346v177H9z"/></defs><clipPath id="SVGID_00000122718477495518785840000007929963815953779106_"><use xlink:href="#SVGID_00000119799629652454415570000003270141587419718565_" style="overflow:visible"/></clipPath><g style="clip-path:url(#SVGID_00000122718477495518785840000007929963815953779106_)"><path class="st11" d="M187 317h-17v24h17v-24zM84 317H67v24h17v-24z"/><path class="st12" d="M186 172H69v125h117V172z"/><path class="st11" d="M65 227h-7v22h7v-22zM196 227h-7v22h7v-22z"/><path class="st13" d="M69 230h-3v5h3v-5zM189 230h-3v5h3v-5z"/><path class="st12" d="M183 297H71v28h112v-28z"/><path class="st13" d="M166 325H88v7h78v-7z"/><path class="st11" d="M170 325H71v13h99v-13z"/><path d="M183 327h-9l-1 2v18l1 2h9l2-2v-18l-2-2zM167 327h-8l-2 2v18l2 2h8l2-2v-18l-2-2zM96 327h-9l-1 2v18l1 2h9l2-2v-18l-2-2zM81 327h-9l-2 2v18l2 2h9l1-2v-18l-1-2z"/><path class="st14" d="M99 309H69v6h30v-6z"/><path class="st15" d="M80 309H69v6h11v-6z"/><path class="st14" d="M186 309h-31v6h30v-6z"/><path class="st13" d="M183 297H71v7h112v-7z"/><path class="st15" d="M186 309h-12v6h12v-6z"/><path class="st12" d="M122 231h-1v13h1v-13z"/><path class="st11" d="M179 179H75v111h104V179z"/><path class="st16" d="M194 297h51V179h-51v118z"/><path class="st8" d="M233 297h12V179h-12v118z"/><path class="st16" d="M60 179H9v118h51V179z"/><path class="st8" d="M21 179H9v118h12V179z"/><path class="st11" d="M259 306h-66v4h66v-4zM259 303h-66v3h66v-3z"/><path class="st17" d="m296 318-3-2-1 2 3 2 1-2z"/><path class="st12" d="M288 317v-1l4 1h1v1l2 1-1 2-6-4z"/><path class="st18" d="m288 317 6 4h-1l-5-3-1-1c0-1 0 0 0 0h1z"/><path class="st19" d="m296 318 7-14-5-2-7 14 5 2z"/><path class="st11" d="m289 297 5 2-8 17 6 6h-12l3-14 6-11z"/><path class="st12" d="m331 313 1-21-3-26h4l4 27v22l-16 20-29-2-1-5-3-4h32l11-11z"/><path class="st11" d="M351 336h-79v-13h79v13z"/><path class="st12" d="M333 264h-32l-1 1 1 1h32l1-1-1-1z"/><path class="st12" d="m301 265 1 1s-13 11-16 30l-5 27h-2l6-27c3-20 15-31 16-31z"/><path d="M326 322h-57v2h57v-2z"/><path class="st12" d="M304 308h13l1-6h13l2 2 2 7-14 13-21-1v-9l1-3 3-3z"/><path class="st13" d="M333 315h4v-10l12-1 2 8v11h-13s-10 2-10 15v3h-38v-9h25l18-17z"/><path d="M344 349c6 0 11-5 11-11s-5-11-11-11-11 5-11 11 5 11 11 11z"/><path class="st11" d="M344 331a7 7 0 0 1 7 8 7 7 0 0 1-5 6h-5a7 7 0 0 1-4-7v-3a8 8 0 0 1 4-4h3z"/><path class="st3" d="M344 343c3 0 6-2 6-5s-3-6-6-6-5 3-5 6 2 5 5 5z"/><path class="st13" d="M289 325c2 3 2 7 2 7v9h-2v-9s1-3-1-6l-6-2h-11v-2h11l7 3z"/><path class="st12" d="M271 270h-8v77h8v-77z"/><path class="st12" d="M280 270h-17v3h17v-3z"/><path class="st11" d="M277 272h-13v3h13v-3z"/><path class="st12" d="M261 256h-3v52h3v-52z"/><path class="st11" d="M266 306h-13v2h13v-2z"/><path class="st12" d="M266 256h-8v2h8v-2z"/><path d="M277 349c6 0 11-5 11-11s-5-11-11-11-12 5-12 11 5 11 12 11z"/><path class="st3" d="M303 306h16v3h-16l-1-1v-2h1z"/><path class="st3" d="M318 288h1l1 1v20h-3l-2-15c0-3 1-5 3-6z"/><path class="st11" d="m290 292 9 4v2h-1l-9-4v-2h1z"/><path class="st11" d="m294 295-2 6-2-1 3-6 1 1zM277 345c4 0 7-3 7-7s-4-7-8-7-7 3-7 7 4 7 8 7z"/><path class="st3" d="M277 343c3 0 5-2 5-5s-2-6-5-6-6 3-6 6 3 5 6 5z"/><path class="st17" d="M294 296c2 0 1-1 1-1l1-1h2l1 2-2 1-4-1v-1l1 1z"/><path class="st12" d="m304 277 1-2 2-2h2l2 1 1 2v3l-1 1-3 1v-4h-4z"/><path class="st17" d="m310 277-2-2-3 2v2l2 3c2 0 3-2 3-3v-2z"/><path class="st17" d="M310 279h-3v4h3v-4z"/><path class="st12" d="M314 300h-10v-8c0-5 0-6 3-8h3"/><path class="st12" d="m311 285-6 1v-3h6v2z"/><path class="st20" d="M305 277v1h4l1 2v3-7l-5 1z"/><path class="st18" d="M311 276h-1v2h1v-2z"/><path class="st20" d="m310 279 1-1h-1v1z"/><path class="st12" d="M308 274h2l1 2h-6v-1l1-1h2z"/><path class="st18" d="M306 284z"/><path class="st20" d="M307 282h2-2z"/><path class="st17" d="m297 297 10 2 1-3-11-2v3z"/><path class="st17" d="m306 298 5-7-3-2-4 8 2 1zM293 317l-3-2-1 3 2 1 2-2z"/><path class="st12" d="M284 316h6l-1 1 3 2-1 1-7-4z"/><path class="st18" d="m286 319 7 4-1 1-1-1-5-3h-1l1-1z"/><path class="st20" d="m290 316 2 2h1l-3-2z"/><path class="st13" d="m308 337 3 1h-3v-1z"/><path class="st12" d="m306 293 4 2 3-7-4-2-3 7z"/><path class="st13" d="m311 291-5 7v1h3l2-8z"/><path class="st18" d="M314 300h-10v1h10v-1z"/><path class="st13" d="M305 277h6v-1h-7v1h1z"/><path class="st12" d="M314 300v-14l-2-2h-2l3 16h1z"/><path class="st20" d="m306 293 3 2v-1l-3-1z"/><path class="st18" d="M310 279h-1v-2l1 2zM310 278h1v-1h-2l1 1z"/><path class="st21" d="M309 306h-14v-2l1-3 3-1h15v2l-1 2-2 1-2 1z"/><path class="st21" d="m300 303-8 15-4-2 7-13 1-2 2 1 2 1z"/><path class="st15" d="M249 274h-25v29h25v-29z"/><path class="st14" d="M249 274h-24v28h24v-28z"/><path class="st15" d="M240 274h-4v29h4v-29z"/><path class="st3" d="M233 276h-6v6h6v-6z"/><path class="st15" d="M224 274h-25v29h25v-29z"/><path class="st14" d="M224 274h-24v28h24v-28z"/><path class="st15" d="M215 274h-4v29h4v-29z"/><path class="st3" d="M208 276h-6v6h6v-6z"/><path class="st15" d="M249 244h-25v30h25v-30z"/><path class="st14" d="M249 244h-24v29h24v-29z"/><path class="st15" d="M240 244h-4v30h4v-30z"/><path class="st3" d="M233 247h-6v5h6v-5z"/><path class="st15" d="M224 244h-25v30h25v-30z"/><path class="st14" d="M224 244h-24v29h24v-29z"/><path class="st15" d="M215 244h-4v30h4v-30z"/><path class="st3" d="M208 247h-6v5h6v-5z"/><path class="st7" d="M249 248h-50v50h50v-50z"/><path class="st7" d="m249 300-50-7v-42l50 6v43z"/><path class="st7" d="m249 293-50 6v-45l50-1v40z"/><path class="st7" d="m249 289-50 3v-39l50 2v34z"/><path class="st15" d="M170 257h-22v26h22v-26z"/><path class="st14" d="M170 257h-21v25h21v-25z"/><path class="st15" d="M162 257h-4v26h4v-26z"/><path class="st3" d="M156 259h-5v5h5v-5z"/><path class="st15" d="M148 257h-22v26h22v-26z"/><path class="st14" d="M148 257h-21v25h21v-25z"/><path class="st15" d="M140 257h-4v26h4v-26z"/><path class="st3" d="M134 259h-5v5h5v-5z"/><path class="st15" d="M170 231h-22v26h22v-26z"/><path class="st14" d="M170 231h-21v25h21v-25z"/><path class="st15" d="M162 231h-4v26h4v-26z"/><path class="st3" d="M156 234h-5v5h5v-5z"/><path class="st15" d="M148 231h-22v26h22v-26z"/><path class="st14" d="M148 231h-21v25h21v-25z"/><path class="st15" d="M140 231h-4v26h4v-26z"/><path class="st3" d="M134 234h-5v5h5v-5z"/><path class="st7" d="M170 235h-44v44h44v-44z"/><path class="st7" d="m170 280-44-6v-37l44 6v37z"/><path class="st7" d="m170 274-44 5v-39l44-1v35z"/><path class="st7" d="m170 271-44 3v-35l44 2v30z"/><path class="st21" d="M116 283a4 4 0 0 0-4 2v2l1 2 2 1h2l2-1 1-2v-2l-1-1-1-1h-2z"/><path d="M116 284h-2l-1 2v1l1 1 1 1h2l1-1 1-2-1-1c0-1 0 0 0 0l-1-1h-1z" style="fill:#002a4f"/><path class="st21" d="M117 272h-1v10h1v-10z"/><path class="st21" d="M114 283h6v-2l-6 1v1z"/><path class="st19" d="m118 277-1 1h-2l-1-3h-2l-1 3v3h8v-4h-1z"/><path class="st21" d="M114 274h-3v1h3v-1zM113 246v28h1v-28h-1z"/><path class="st19" d="M113 245h-1v8c0 1 0 0 0 0h2v-8h-1c1 0 1 0 0 0z"/><path class="st21" d="M116 271h-1l5 2v11h6l-2-13h-8zM160 285l3 3-1-4-2 1z"/><path class="st21" d="M163 287h-2v3l1 1h1l1-1 1-1-1-2h-1z"/><path d="m163 287-1 1h-1v1l1 1h1l1-1c0-1 0 0 0 0v-1l-1-1z" style="opacity:.9;fill:#00172b;enable-background:new"/><path class="st21" d="M120 285h49l4-2h-53v2zM118 272h-2 2z"/><path class="st19" d="m116 271 4 2v12h4l-4-14h-4z"/><path class="st21" d="m88 284 6-21 6-15H88l-6 35 6 1z"/><path class="st17" d="M82 287h4v-3l-4-1v4z"/><path class="st12" d="M92 290v-2l-5-2v-1h-1v1h-4l-1 2 11 2z"/><path class="st18" d="m91 291-9-2-1-1h1l10 2-1 1z"/><path class="st20" d="m86 284-4 1v-2l4 1z"/><path class="st17" d="m105 286 4-1-2-4-3 2 1 3z"/><path class="st12" d="M115 283v-1h-1l-4 1h-1l-1-1v2l-3 2 1 2 9-5z"/><path class="st18" d="m115 285-8 4h-1v-1l9-5 1 1-1 1z"/><path class="st20" d="m107 282-3 2v-1l3-1z"/><path class="st21" d="m109 281-11-33H88l8 18 13 15z"/><path class="st21" d="m109 281-15-31-5 2 14 31 6-2z"/><path class="st19" d="M87 253s1 4 5 5l2 5-2 6-6-11 1-5z"/><path class="st17" d="M95 225h2l2-2v-4l-2-2h-2l-2 2v4l2 2z"/><path class="st17" d="M93 228h3v-6h-3v6z"/><path class="st12" d="M88 250h12v-13c0-5 0-7-3-9h-4"/><path class="st12" d="m92 229 7 2v-5h-7v3z"/><path class="st20" d="M99 219v1h-5l-1 3v3-7h6z"/><path class="st18" d="M92 221h1v-2h-1v2z"/><path class="st20" d="M93 222v-1c0-1 0 0 0 0h-1l1 1z"/><path class="st12" d="M99 219h-7v-1l1-2h5l1 2v1z"/><path class="st18" d="M98 222v-1 1z"/><path class="st20" d="M96 225h-1l1 1v-1z"/><path class="st17" d="M107 242H97v3h10v-3z"/><path class="st17" d="m101 244-6-9-3 1 5 10 4-2z"/><path class="st12" d="m94 231-5 2 4 8 5-2-4-8z"/><path class="st13" d="m92 237 5 9 3 4h-4l-4-13zM99 220h-7v-1h9l-1 1h-1z"/><path class="st12" d="m87 250 1-17v-3l2-2h3l-5 22h-1z"/><path class="st20" d="m98 239-3 2h-1l4-2z"/><path class="st17" d="M107 242h6l1 1 1 2h-5 1-4v-3z"/></g></g><g><defs><path id="SVGID_00000093871984532477469490000006320185507625346700_" d="M53 346h152v6H53z"/></defs><clipPath id="SVGID_00000134946630911182593150000009855656472202622094_"><use xlink:href="#SVGID_00000093871984532477469490000006320185507625346700_" style="overflow:visible"/></clipPath><g style="clip-path:url(#SVGID_00000134946630911182593150000009855656472202622094_)"><path d="M129 352c42 0 76-1 76-3s-34-3-76-3-76 1-76 3 34 3 76 3z" style="fill:#d1e4ff"/></g></g></g><g style="clip-path:url(#SVGID_00000021803839731439964380000007630862023340302515_)"><defs><path id="SVGID_00000129187026008483336960000014269869154971544744_" d="M443 363c-51 60-141 67-202 16L98 256A143 143 0 0 1 283 39l144 122c60 52 67 142 16 202z"/></defs><clipPath id="SVGID_00000047039482412237963340000001005697072366372000_"><use xlink:href="#SVGID_00000129187026008483336960000014269869154971544744_" style="overflow:visible"/></clipPath><path style="clip-path:url(#SVGID_00000047039482412237963340000001005697072366372000_);fill:#9bcbff" d="M66 349h326v90H66z"/></g></svg>