<svg fill="none" height="537" viewBox="0 0 874 537" width="874" xmlns="http://www.w3.org/2000/svg" xmlns:xlink="http://www.w3.org/1999/xlink"><clipPath id="a"><path d="m0 0h874v537h-874z"/></clipPath><clipPath id="b"><path d="m521.396 159.5h304.285v378.953h-304.285z"/></clipPath><clipPath id="c"><path d="m322.396 168.5h180v371h-180z"/></clipPath><clipPath id="d"><path d="m177.396 413.5h116v124h-116z"/></clipPath><clipPath id="e"><path d="m82.3955 266.5h119v273h-119z"/></clipPath><g clip-path="url(#a)"><path d="m153.896 348.5c-155.60038 21.2-163.83371 135.167-148.50037 189.5h868.50037v-364.5l-91.856-94.4004c-55.585-57.1241-135.464-83.67035-214.184-71.17932-105.405 16.72542-187.889 99.70172-203.988 205.20372l-.972 6.376c-28.5 104.5-148.667 121.333-209 129z" fill="#bcdeff"/><g clip-path="url(#b)"><path d="m556.492 540.286v-193.597-46.027h138.268v239.624z" fill="#ff5753"/><path d="m758.601 379.232h-9.501v33.959h9.501z" stroke="#d2e9ff" stroke-miterlimit="10"/><path d="m594.746 290.757h-5.084v9.904h5.084z" fill="#fff"/><path d="m625.668 295.501h-16.836v5.16h16.836z" fill="#fff"/><path d="m575.328 300.662h-18.836v239.624h18.836z" fill="#d64141"/><path d="m656.004 247.31-8.418 14.815 49.006 28.049 8.418-14.732z" fill="#e2a091"/><path d="m661.754 255.05c.917-.915.834-2.33 0-3.246l-8.084-7.823c-.917-.916-2.334-.833-3.251 0-.916.915-.833 2.33 0 3.246l8.085 7.823c1 .916 2.417.916 3.25 0z" fill="#e2a091"/><path d="m654.254 252.47c.583-.832.25-1.914-.584-2.497l-13.668-8.573c-.834-.583-1.917-.25-2.5.583-.584.832-.25 1.914.583 2.497l13.668 8.573c.834.582 1.917.333 2.501-.583z" fill="#e2a091"/><path d="m705.011 263.041-10.418 26.051-37.838-35.124-7.168 9.073 45.089 25.968c3.667 2.164 8.418.749 10.335-3.08l8.251-16.48z" fill="#d3897d"/><g fill="#e2a091"><path d="m653.504 262.375c.333-.916-.167-1.915-1.167-2.248l-7.084-2.247c-.917-.333-1.917.167-2.251 1.165-.333.916.167 1.915 1.167 2.248l7.001 2.247c1 .416 2-.167 2.334-1.165z"/><path d="m656.338 259.462c.333-.916-.167-1.915-1.167-2.248l-11.251-3.579c-.917-.332-1.917.167-2.251 1.166-.333.915.167 1.914 1.167 2.247l11.168 3.579c1 .416 2-.167 2.334-1.165z"/><path d="m657.837 256.299c.333-.916-.167-1.915-1.167-2.248l-12.501-3.995c-.917-.333-1.917.167-2.251 1.166-.333.915.167 1.914 1.167 2.247l12.418 3.912c1.084.333 2.084-.167 2.334-1.082z"/><path d="m809.94 296.25h-20.586v66.502h20.586z"/></g><path d="m784.104 332.789h-77.094l-.166-107.536c-1.917-4.411 1.083-9.405 5.584-9.405h61.508c2.583 0 4.834 1.665 5.75 4.245z" fill="#fff"/><path d="m810.774 297.415-22.336 8.906-26.67-66.419 18.002-20.309z" fill="#fff"/><path d="m727.427 327.515h-24.528v-97.665c0-7.73 4.645-13.936 10.431-13.936h14.097z" fill="#fff"/><path d="m752.85 223.006-16.252 1.165-10.168-16.646 16.252-7.241z" fill="#e2a091"/><path d="m746.016 226.918h-13.752c-6.501 0-11.668-5.161-11.668-11.653h37.088c-.083 6.326-5.334 11.653-11.668 11.653z" fill="#e2a091"/><path d="m782.77 292.505-10.834-30.963v71.33h12.168z" fill="#dbecfe"/><path d="m742.765 200.284-15.252 15.481 18.502 11.153s10.752-.583 11.668-11.653h-8.167z" fill="#d3897d"/><path d="m727.513 215.682 11.251-2.164.334 5.326z" fill="#d3897d"/><path d="m727.514 215.265c-7.751 0-14.002-6.242-14.002-13.982v-29.298h28.003v29.214c0 7.824-6.25 14.066-14.001 14.066z" fill="#e2a091"/><path d="m716.178 184.47c6.918 0 12.502-5.577 12.502-12.485s-5.584-12.485-12.502-12.485c-6.917 0-12.501 5.577-12.501 12.485s5.584 12.485 12.501 12.485z" fill="#34233c"/><path d="m740.265 166.741c-8.751-2.663-24.086-7.241-24.086-7.241l11.335 17.895h7.334l3.334-1.998-.25 19.893h3.667 5.584l4-9.405c1.417-3.33.25-7.242-2.667-9.322l-2.667-1.915c.167-3.579-2.167-6.825-5.584-7.907z" fill="#34233c"/><path d="m743.349 201.782c2.583 0 4.584-2.081 4.584-4.578 0-2.58-2.084-4.578-4.584-4.578-2.584 0-4.584 2.081-4.584 4.578 0 2.58 2 4.578 4.584 4.578z" fill="#e2a091"/><path d="m727.514 177.395h7.334l3.334-1.998-.25 19.893-3.918-14.815h-6.5s-1.667 2.663-8.918 4.078c0 0 7.667-1.665 8.918-7.158z" fill="#d3897d"/><path d="m716.178 194.041c.25 0 .417-.666.417-1.498s-.167-1.498-.417-1.498-.416.666-.416 1.498.166 1.498.416 1.498z" fill="#34233c"/><path d="m722.596 194.041c.25 0 .417-.666.417-1.498s-.167-1.498-.417-1.498-.416.666-.416 1.498.166 1.498.416 1.498z" fill="#34233c"/><path d="m789.354 305.988 20.586-8.24v7.241z" fill="#d3897d"/><path d="m784.104 332.04h-77.843v27.633h77.843z" fill="#34233c"/><path d="m784.168 507.271v-174.454h-33.338v174.454z" fill="#34233c"/><path d="m784.188 507.243-11.168-.416v-174.038h10.418z" fill="#000"/><path d="m784.103 507.243h-21.752v18.311h21.752z" fill="#e2a091"/><path d="m728.597 533.461v-2.164c0-2.164 1.417-3.995 3.5-4.578l23.253-6.408 3.417-4.994c.834-1.249 2.167-1.915 3.667-1.915h.084v7.824h21.669v12.235z" fill="#fac348"/><path d="m782.937 539.703h-53.257c-.666 0-1.166-.499-1.166-1.165v-5.077h55.59v5.077c.083.666-.5 1.165-1.167 1.165z" fill="#34233c"/><path d="m762.351 507.243 21.836 7.824v-7.824z" fill="#d3897d"/><path d="m795.022 362.669v12.401l-4.251 14.899 15.086-9.239c.917-.666 2.5-2.164 3.417-3.495.5-.75.667-1.582.667-2.414v-12.152z" fill="#e2a091"/><path d="m792.188 375.071c-1.583 0-2.834-1.249-2.834-2.83v-9.572h5.668v9.572c0 1.581-1.25 2.83-2.834 2.83z" fill="#e2a091"/><path d="m796.605 375.736c-.917-.333-1.917.167-2.25 1.082l-4.167 12.402c-.334.915.166 1.914 1.083 2.247s1.917-.166 2.25-1.082l4.168-12.318c.416-1.082-.084-1.998-1.084-2.331z" fill="#e2a091"/><path d="m800.106 376.153c-.917-.333-1.917.166-2.25 1.082l-4.167 12.401c-.334.916.166 1.915 1.083 2.248s1.917-.167 2.25-1.082l4.168-12.319c.333-.998-.167-1.997-1.084-2.33z" fill="#e2a091"/><path d="m766.352 366.498-71.592-65.836v239.624s71.592 3.829 71.592 0c0-3.745 0-173.788 0-173.788z" fill="#d64141"/><path d="m592.83 293.837c4.741 0 8.584-3.839 8.584-8.573 0-4.735-3.843-8.573-8.584-8.573s-8.585 3.838-8.585 8.573c0 4.734 3.844 8.573 8.585 8.573z" fill="#ff5753"/><path d="m564.409 242.482-11.334-50.189c-1.167-4.994 2.667-9.738 7.834-9.738h78.177c3.75 0 7.001 2.664 7.834 6.326l10.752 50.189c1.083 4.994-2.751 9.655-7.835 9.655h-77.593c-3.751 0-7.001-2.581-7.835-6.243z" fill="#fff" opacity=".4"/><path d="m592.246 195.29h-28.254c-1 0-1.833-.666-2.083-1.665-.25-1.332.75-2.497 2.083-2.497h28.254c1 0 1.833.666 2.083 1.665.25 1.248-.75 2.497-2.083 2.497z" fill="#ff5753"/><path d="m593.746 203.946h-28.254c-1 0-1.833-.666-2.083-1.665-.25-1.332.75-2.497 2.083-2.497h28.254c1 0 1.833.666 2.083 1.665.25 1.248-.75 2.497-2.083 2.497z" fill="#fff"/><path d="m592.829 276.691s-6.834 0-8.417 6.742c0 0-1.834 6.325 5.25 9.821 0 0-5.417-10.987 3.167-16.563z" fill="#d64141"/><path d="m749.1 391.217c4.235 0 7.668-3.428 7.668-7.657s-3.433-7.657-7.668-7.657c-4.234 0-7.667 3.428-7.667 7.657s3.433 7.657 7.667 7.657z" fill="#ffc347"/><path d="m749.1 414.938c4.235 0 7.668-3.428 7.668-7.657s-3.433-7.657-7.668-7.657c-4.234 0-7.667 3.428-7.667 7.657s3.433 7.657 7.667 7.657z" fill="#ffc347"/></g><g fill="#fff"><path d="m639.664 137.349h-43.631c-4.791 0-8.637-3.842-8.637-8.63v-43.5892c0-4.7874 3.846-8.6298 8.637-8.6298h43.631c4.792 0 8.638 3.8424 8.638 8.6298v43.5892c0 4.725-3.846 8.63-8.638 8.63z" opacity=".49"/><path d="m604.05 126.89c-1.315 0-2.379-1.062-2.379-2.374v-35.1833c0-1.3123 1.064-2.3747 2.379-2.3747s2.379 1.0624 2.379 2.3747v35.1833c0 1.312-1.064 2.374-2.379 2.374z"/><path d="m613.09 126.89c-1.577 0-2.855-1.062-2.855-2.374v-35.1833c0-1.3123 1.278-2.3747 2.855-2.3747 1.578 0 2.855 1.0624 2.855 2.3747v35.1833c0 1.312-1.277 2.374-2.855 2.374z"/><path d="m623.083 126.89c-1.315 0-2.379-1.062-2.379-2.374v-35.1833c0-1.3123 1.064-2.3747 2.379-2.3747s2.379 1.0624 2.379 2.3747v35.1833c0 1.312-1.064 2.374-2.379 2.374z"/><path d="m632.6 126.89c-1.315 0-2.379-1.062-2.379-2.374v-35.1833c0-1.3123 1.064-2.3747 2.379-2.3747s2.379 1.0624 2.379 2.3747v35.1833c0 1.312-1.064 2.374-2.379 2.374z"/></g><path d="m604.05 126.891c-1.315 0-2.379-1.051-2.379-2.349v-15.268c0-1.298 1.064-2.349 2.379-2.349s2.379 1.051 2.379 2.349v15.268c0 1.298-1.064 2.349-2.379 2.349z" fill="#0070fe"/><path d="m613.09 126.89c-1.577 0-2.855-1.04-2.855-2.326v-25.772c0-1.2855 1.278-2.3262 2.855-2.3262 1.578 0 2.855 1.0407 2.855 2.3262v25.772c0 1.286-1.277 2.326-2.855 2.326z" fill="#ffc347"/><path d="m623.083 126.891c-1.315 0-2.379-1.091-2.379-2.438v-11.288c0-1.347 1.064-2.437 2.379-2.437s2.379 1.09 2.379 2.437v11.288c0 1.347-1.064 2.438-2.379 2.438z" fill="#0070fe"/><path d="m632.719 126.891h-.238c-1.249 0-2.26-.998-2.26-2.231v-5.047c0-1.232 1.011-2.23 2.26-2.23h.238c1.249 0 2.26.998 2.26 2.23v5.047c-.059 1.233-1.011 2.231-2.26 2.231z" fill="#ff5753"/><g clip-path="url(#c)"><path d="m346.916 528.457 1.602-20.899h-16.44v17.194z" fill="#fff"/><path d="m394.633 325.413h-51.548l-6.409 13.21c-6.339 13.07-9.404 27.539-8.986 42.147l3.274 113.438h22.709l14.489-109.035z" fill="#0072f5"/><path d="m410.096 494.208h-24.589l-17.415-109.035 26.54-59.76z" fill="#0072f5"/><path d="m408.912 507.279-2.368-13.071h-18.878l3.831 13.071z" fill="#e2a091"/><path d="m412.396 523.704-3.483-16.426h-17.415l5.433 16.426z" fill="#fff"/><path d="m441.304 534.188v-1.887c0-1.818-1.184-3.425-2.995-3.915l-19.853-5.451-2.856-4.264c-.697-1.048-1.881-1.677-3.135-1.677h-1.532l1.393 6.64h-18.46v10.484h47.438z" fill="#0072f5"/><path d="m394.911 539.5h45.348c.557 0 .975-.419.975-.979v-4.333h-47.298v4.333c0 .56.487.979.975.979z" fill="#34233c"/><path d="m323.719 537.683h24.59c.696 0 1.323-.56 1.323-1.328v-3.006h-27.236v3.075c0 .699.557 1.259 1.323 1.259z" fill="#34233c"/><path d="m343.642 522.446v-3.076c0-1.747-1.394-3.145-3.135-3.145h-5.433c-1.742 0-3.135 1.398-3.135 3.145v3.146l-9.543 10.833h27.167z" fill="#0072f5"/><path d="m349.841 494.208-1.323 13.35h-16.44v-13.35z" fill="#e2a091"/><path d="m368.092 385.173 26.54-59.76-19.017 106.729z" fill="#005fcc"/><path d="m349.563 329.677-13.096 41.517-.488 123.014h-5.015l-3.971-118.82c-.348-10.135 1.812-20.2 6.2-29.356l9.892-20.619h8.011z" fill="#34233c"/><path d="m357.434 325.413-12.608 33.759c-2.647 7.129-4.041 14.678-4.041 22.296v112.74h-4.876v-114.906c0-7.199 1.184-14.329 3.622-21.108l11.494-32.781z" fill="#fff"/><path d="m380.491 207.641c8.778-5.731 9.962-18.243 2.23-25.372-4.041-3.704-9.335-6.011-15.117-6.011-12.747 0-23.126 11.044-23.126 24.673 0 0 .278 17.124 14.071 20.968 13.792 3.845 0 0 0 0z" fill="#34233c"/><path d="m394.632 325.413h-51.548l-.697-20.199-7.523-60.389c0-5.242 4.18-9.436 9.404-9.436h45.906c5.224 0 9.404 4.194 9.404 9.436z" fill="#ffc347"/><path d="m431.482 287.88-10.17 7.618c-3.483 2.586-8.359 1.887-11.006-1.607l-22.5-30.335 16.439-12.301z" fill="#e2a091"/><path d="m461.296 258.175 13.305 10.135-51.896 28.516c-4.946 2.587-10.519 1.328-11.912-2.656l-2.926-8.177z" fill="#e2a091"/><path d="m422.148 275.299-16.439 12.301-27.237-30.613 18.529-18.662z" fill="#ffc347"/><path d="m377.218 224.625h-9.404c-4.737 0-8.499-3.844-8.499-8.527v-22.506c0-4.753 3.832-8.527 8.499-8.527h9.404c4.737 0 8.498 3.844 8.498 8.527v22.506c0 4.753-3.831 8.527-8.498 8.527z" fill="#e2a091"/><path d="m364.749 247.621h6.06c2.996 0 5.503-2.447 5.503-5.522v-26.56h-16.997v26.63c0 3.005 2.439 5.452 5.434 5.452z" fill="#e2a091"/><path d="m357.086 211.555c2.924 0 5.294-2.378 5.294-5.312s-2.37-5.312-5.294-5.312-5.294 2.378-5.294 5.312 2.37 5.312 5.294 5.312z" fill="#d3897d"/><path d="m339.532 280.331 3.483 45.082h18.112l-5.016-5.731z" fill="#f39719"/><path d="m366.072 196.248v51.372h-7.523v-36.065-15.307z" fill="#d3897d"/><path d="m357.086 206.243s15.395 1.188 20.34-13.979h10.171l-5.573-9.785-21.246 2.656-3.692 15.726z" fill="#34233c"/><path d="m405.708 287.6 5.294 7.129c2.508 3.425 7.105 4.474 10.797 2.517l28.63-15.727-27.027 8.807h-.07c-4.737 1.188-8.429-4.263-5.712-8.317l4.528-6.71z" fill="#d3897d"/><path d="m346.289 316.537-14.071-1.888c-3.413-.489-5.782-3.634-5.294-7.059l5.433-39.071 20.341 2.866z" fill="#e2a091"/><path d="m349.842 292.004-20.341-2.866 5.573-46.41 21.037 3.984z" fill="#ffc347"/><path d="m396.444 316.536-2.299 11.184-61.927-13.071.557-16.425z" fill="#e2a091"/><path d="m422.148 327.72h-28.003l2.298-11.183h10.798c1.811 0 3.552.699 4.945 1.957z" fill="#e2a091"/><path d="m353.394 266.212-5.155 36.625 5.155 1.328z" fill="#f39719"/><path d="m329.501 289.138 19.296 9.575 1.045-6.71z" fill="#d3897d"/><path d="m356.111 190.726c6.117 0 11.076-4.975 11.076-11.113 0-6.137-4.959-11.113-11.076-11.113s-11.076 4.976-11.076 11.113c0 6.138 4.959 11.113 11.076 11.113z" fill="#34233c"/><path d="m358.549 235.319s7.871 9.017 17.693.42l2.229 15.936-21.037 1.537-9.195-6.5z" fill="#ffc347"/><path d="m445.344 482.956h-28.63v55.705h28.63z" fill="#f39719"/><path d="m502.326 482.956h-56.981v55.705h56.981z" fill="#ffc347"/><path d="m445.344 428.507h-28.63v54.378h28.63z" fill="#e28210"/><path d="m502.326 428.507h-56.981v54.378h56.981z" fill="#f39719"/><path d="m502.326 380.21h-56.981v48.367h56.981z" fill="#ffc347"/><path d="m445.344 380.21h-28.63v48.367h28.63z" fill="#f39719"/><path d="m430.785 327.72h-25.077v52.49h25.077z" fill="#dd3c3c"/><path d="m478.573 327.72h-47.787v52.49h47.787z" fill="#ff5753"/><path d="m469.168 404.184v-23.974h9.404v24.114z" fill="#fff"/><path d="m445.344 380.21-8.777 9.856h-19.853v-9.856z" fill="#34233c"/><path d="m480.104 253.142h-7.523c-.627 0-1.254.14-1.742.419l-9.543 4.613 4.458 13.071 8.777-2.936h11.285c.906 0 1.811-.279 2.508-.839l13.374-9.715c1.045-.769.627-2.446-.627-2.656-.209 0-.348 0-.557 0l-13.653 3.075-3.971-3.844c-.696-.769-1.741-1.188-2.786-1.188z" fill="#e2a091"/><g fill="#34233c"><path d="m376.59 205.264c.193 0 .349-.5.349-1.118 0-.617-.156-1.118-.349-1.118-.192 0-.348.501-.348 1.118 0 .618.156 1.118.348 1.118z"/><path d="m382.233 205.264c.192 0 .348-.5.348-1.118 0-.617-.156-1.118-.348-1.118s-.348.501-.348 1.118c0 .618.156 1.118.348 1.118z"/></g></g><g clip-path="url(#d)"><path d="m233.925 475.258h-56.262v62.242h56.262z" fill="#d8ecff"/><path d="m293.449 475.258h-59.524v62.242h59.524z" fill="#fff"/><g stroke="#0067e8" stroke-linecap="round" stroke-linejoin="round" stroke-miterlimit="10"><path d="m177.663 496.632h56.262"/><path d="m177.663 508.608h56.262"/><path d="m177.663 522.034h56.262"/></g><path d="m231.678 475.258c-10.696 0-19.36-8.7-19.36-19.44v-.591h38.774v.591c-.053 10.74-8.717 19.44-19.414 19.44z" fill="#d7ebff"/><path d="m231.679 426.12v29.053" stroke="#0067e8" stroke-linecap="round" stroke-linejoin="round" stroke-miterlimit="10"/><path d="m232 451.951s3.958-11.277 13.37-9.827c.054.054-2.353 9.881-13.37 9.827z" fill="#bcdeff"/><path d="m231.197 452.112s-11.873-.698-13.05-10.257c0 0 10.108-.376 13.05 10.257z" fill="#bcdeff"/><path d="m231.678 438.74c6.941 0 12.568-5.65 12.568-12.62s-5.627-12.62-12.568-12.62-12.568 5.65-12.568 12.62 5.627 12.62 12.568 12.62z" fill="#ecf6ff"/></g><g clip-path="url(#e)"><path d="m96.3992 325.734c6.9078-11.02 20.0318-22.479 23.4858-43.142 2.073-12.084 11.429-16.592 20.598-16.029 10.298.626 18.085 7.89 19.781 22.917v.313c1.758 11.146 9.859 21.039 14.506 24.796 15.259 12.272 26.939 29.428 26.563 50.467-.565 31.62-26.375 57.48-58.025 58.232-33.533.814-60.9125-26.048-60.9125-59.296 0-14.59 5.2749-27.927 14.0037-38.258z" fill="#e9f4ff"/><g stroke="#0067e8" stroke-linecap="round" stroke-linejoin="round" stroke-miterlimit="10"><path d="m107.012 309.704 33.47 53.724"/><path d="m87.9844 338.883 52.4986 78.644"/><path d="m130.812 268.002 9.67 24.044v23.794 216.584"/><path d="m140.482 363.428 29.641-52.659"/><path d="m140.482 417.527c4.647-6.637 54.194-80.961 54.194-80.961"/></g><path d="m141.926 539.5c-11.805 0-21.413-9.58-21.413-21.351v-13.65h42.827v13.65c0 11.771-9.608 21.351-21.414 21.351z" fill="#d8ecff"/><path d="m163.278 504.499h-42.828v8.139h42.828z" fill="#fff"/></g></g></svg>