<svg fill="none" height="352" viewBox="0 0 493 352" width="493" xmlns="http://www.w3.org/2000/svg"><path d="m50 11h20v284h-20z" fill="#f9f8f8"/><path d="m95 11h20v284h-20z" fill="#f9f8f8"/><path d="m140 11h20v284h-20z" fill="#f9f8f8"/><path d="m185 11h20v284h-20z" fill="#f9f8f8"/><path d="m230 11h20v284h-20z" fill="#f9f8f8"/><path d="m275 11h20v284h-20z" fill="#f9f8f8"/><path d="m320 11h20v284h-20z" fill="#f9f8f8"/><path d="m365 11h20v284h-20z" fill="#f9f8f8"/><path d="m410 11h20v284h-20z" fill="#f9f8f8"/><path d="m455 11h20v284h-20z" fill="#f9f8f8"/><path d="m29 294.5h464" opacity=".3" stroke="#000"/><path d="m60 259 45.5 8.5 44 8 45.5-12.5 45.5 4.5 42.5 6.5 45.5-6.5 46.5-3 44 1.5 46-24" stroke="#0067e8" stroke-width="2"/><circle cx="60" cy="258" fill="#0072f5" r="4"/><circle cx="105" cy="267" fill="#0072f5" r="4"/><circle cx="150" cy="275" fill="#0072f5" r="4"/><circle cx="195" cy="263" fill="#0072f5" r="4"/><circle cx="240" cy="267" fill="#0072f5" r="4"/><circle cx="283" cy="274" fill="#0072f5" r="4"/><circle cx="328" cy="267" fill="#0072f5" r="4"/><circle cx="375" cy="264" fill="#0072f5" r="4"/><circle cx="419" cy="266" fill="#0072f5" r="4"/><circle cx="465" cy="242" fill="#0072f5" r="4"/><circle cx="60" cy="153" fill="#ff5753" r="4"/><circle cx="105" cy="166" fill="#ff5753" r="4"/><circle cx="150" cy="194" fill="#ff5753" r="4"/><circle cx="195" cy="178" fill="#ff5753" r="4"/><circle cx="240" cy="186" fill="#ff5753" r="4"/><circle cx="283" cy="181" fill="#ff5753" r="4"/><circle cx="328" cy="170" fill="#ff5753" r="4"/><circle cx="375" cy="198" fill="#ff5753" r="4"/><circle cx="419" cy="173" fill="#ff5753" r="4"/><circle cx="465" cy="44" fill="#ff5753" r="4"/><path d="m60.5 153.5 44.5 13 45.5 28 44.5-16 45 8.5 43-5.5 45-11.5 47 28.5 44-25 46.5-129.5" stroke="#ff5753" stroke-width="2"/><path d="m108.511 343h-4.521v-7.854h4.521v1.364h-2.86v1.727h2.662v1.364h-2.662v2.024h2.86zm3.944.11c-.894 0-1.587-.246-2.079-.737-.484-.499-.726-1.28-.726-2.343 0-.733.125-1.331.374-1.793.25-.462.594-.803 1.034-1.023.448-.22.961-.33 1.54-.33.411 0 .767.04 1.067.121.308.081.576.176.803.286l-.484 1.265c-.256-.103-.498-.187-.726-.253-.22-.066-.44-.099-.66-.099-.85 0-1.276.605-1.276 1.815 0 .601.11 1.045.33 1.331.228.286.543.429.946.429.345 0 .649-.044.913-.132.264-.095.521-.224.77-.385v1.397c-.249.161-.513.275-.792.341-.271.073-.616.11-1.034.11zm8.665-3.124c0 .997-.264 1.767-.792 2.31-.521.543-1.232.814-2.134.814-.558 0-1.056-.121-1.496-.363-.433-.242-.774-.594-1.023-1.056-.25-.469-.374-1.038-.374-1.705 0-.997.26-1.764.781-2.299.52-.535 1.235-.803 2.145-.803.564 0 1.063.121 1.496.363.432.242.773.594 1.023 1.056.249.455.374 1.016.374 1.683zm-4.147 0c0 .594.095 1.045.286 1.353.198.301.517.451.957.451.432 0 .744-.15.935-.451.198-.308.297-.759.297-1.353s-.099-1.038-.297-1.331c-.191-.301-.506-.451-.946-.451-.433 0-.748.15-.946.451-.191.293-.286.737-.286 1.331zm12.552-3.102c.682 0 1.196.176 1.54.528.352.345.528.902.528 1.672v3.916h-1.639v-3.509c0-.865-.3-1.298-.902-1.298-.432 0-.74.154-.924.462-.183.308-.275.752-.275 1.331v3.014h-1.639v-3.509c0-.865-.3-1.298-.902-1.298-.454 0-.77.172-.946.517-.168.337-.253.825-.253 1.463v2.827h-1.639v-6.006h1.254l.22.77h.088c.184-.308.433-.532.748-.671.323-.139.657-.209 1.001-.209.44 0 .814.073 1.122.22.308.139.543.359.704.66h.143c.184-.308.437-.532.759-.671.33-.139.668-.209 1.012-.209zm10.807 0c.682 0 1.195.176 1.54.528.352.345.528.902.528 1.672v3.916h-1.639v-3.509c0-.865-.301-1.298-.902-1.298-.433 0-.741.154-.924.462s-.275.752-.275 1.331v3.014h-1.639v-3.509c0-.865-.301-1.298-.902-1.298-.455 0-.77.172-.946.517-.169.337-.253.825-.253 1.463v2.827h-1.639v-6.006h1.254l.22.77h.088c.183-.308.433-.532.748-.671.323-.139.656-.209 1.001-.209.44 0 .814.073 1.122.22.308.139.543.359.704.66h.143c.183-.308.436-.532.759-.671.33-.139.667-.209 1.012-.209zm6.23 0c.829 0 1.485.238 1.969.715.484.469.726 1.14.726 2.013v.792h-3.872c.015.462.151.825.407 1.089.264.264.627.396 1.089.396.389 0 .741-.037 1.056-.11.316-.081.642-.202.979-.363v1.265c-.293.147-.605.253-.935.319-.322.073-.715.11-1.177.11-.601 0-1.133-.11-1.595-.33-.462-.227-.825-.568-1.089-1.023s-.396-1.027-.396-1.716c0-.704.118-1.287.352-1.749.242-.469.576-.821 1.001-1.056.426-.235.921-.352 1.485-.352zm.011 1.166c-.315 0-.579.103-.792.308-.205.205-.326.524-.363.957h2.299c-.007-.367-.102-.667-.286-.902-.183-.242-.469-.363-.858-.363zm7.369-1.166c.08 0 .176.004.286.011s.198.018.264.033l-.121 1.54c-.052-.015-.129-.026-.231-.033-.096-.015-.18-.022-.253-.022-.279 0-.547.051-.803.154-.257.095-.466.253-.627.473-.154.22-.231.521-.231.902v3.058h-1.639v-6.006h1.243l.242 1.012h.077c.176-.308.418-.572.726-.792s.663-.33 1.067-.33zm3.867 6.226c-.895 0-1.588-.246-2.079-.737-.484-.499-.726-1.28-.726-2.343 0-.733.124-1.331.374-1.793.249-.462.594-.803 1.034-1.023.447-.22.96-.33 1.54-.33.41 0 .766.04 1.067.121.308.081.575.176.803.286l-.484 1.265c-.257-.103-.499-.187-.726-.253-.22-.066-.44-.099-.66-.099-.851 0-1.276.605-1.276 1.815 0 .601.11 1.045.33 1.331.227.286.542.429.946.429.344 0 .649-.044.913-.132.264-.095.52-.224.77-.385v1.397c-.25.161-.514.275-.792.341-.272.073-.616.11-1.034.11zm5.683-6.226c.829 0 1.485.238 1.969.715.484.469.726 1.14.726 2.013v.792h-3.872c.015.462.151.825.407 1.089.264.264.627.396 1.089.396.389 0 .741-.037 1.056-.11.316-.081.642-.202.979-.363v1.265c-.293.147-.605.253-.935.319-.322.073-.715.11-1.177.11-.601 0-1.133-.11-1.595-.33-.462-.227-.825-.568-1.089-1.023s-.396-1.027-.396-1.716c0-.704.118-1.287.352-1.749.242-.469.576-.821 1.001-1.056.426-.235.921-.352 1.485-.352zm.011 1.166c-.315 0-.579.103-.792.308-.205.205-.326.524-.363.957h2.299c-.007-.367-.102-.667-.286-.902-.183-.242-.469-.363-.858-.363zm11.062 3.168c0 .609-.217 1.078-.649 1.408-.426.323-1.064.484-1.914.484-.418 0-.778-.029-1.078-.088-.301-.051-.602-.139-.902-.264v-1.353c.322.147.671.268 1.045.363s.704.143.99.143c.322 0 .55-.048.682-.143.139-.095.209-.22.209-.374 0-.103-.03-.194-.088-.275-.052-.081-.169-.172-.352-.275-.184-.103-.47-.235-.858-.396-.374-.161-.682-.319-.924-.473-.242-.161-.422-.352-.539-.572-.118-.227-.176-.51-.176-.847 0-.557.216-.975.649-1.254.432-.279 1.008-.418 1.727-.418.374 0 .729.037 1.067.11.337.073.685.194 1.045.363l-.495 1.177c-.294-.125-.572-.227-.836-.308-.264-.088-.532-.132-.803-.132-.484 0-.726.132-.726.396 0 .095.029.183.088.264.066.073.187.154.363.242.183.088.451.205.803.352.344.139.641.286.891.44.249.147.44.334.572.561.139.22.209.51.209.869zm3.74-4.345c.807 0 1.423.176 1.848.528.433.345.649.876.649 1.595v4.004h-1.144l-.319-.814h-.044c-.256.323-.528.557-.814.704s-.678.22-1.177.22c-.535 0-.979-.154-1.331-.462-.352-.315-.528-.796-.528-1.441 0-.638.224-1.107.671-1.408.448-.308 1.119-.477 2.013-.506l1.045-.033v-.264c0-.315-.084-.546-.253-.693-.161-.147-.388-.22-.682-.22-.293 0-.579.044-.858.132-.278.081-.557.183-.836.308l-.539-1.111c.323-.169.679-.301 1.067-.396.396-.095.807-.143 1.232-.143zm.231 3.366c-.528.015-.894.11-1.1.286-.205.176-.308.407-.308.693 0 .249.074.429.22.539.147.103.338.154.572.154.352 0 .649-.103.891-.308.242-.213.363-.51.363-.891v-.495zm5.583 2.761h-1.639v-8.36h1.639zm4.188-6.116c.828 0 1.485.238 1.969.715.484.469.726 1.14.726 2.013v.792h-3.872c.014.462.15.825.407 1.089.264.264.627.396 1.089.396.388 0 .74-.037 1.056-.11.315-.081.641-.202.979-.363v1.265c-.294.147-.605.253-.935.319-.323.073-.715.11-1.177.11-.602 0-1.133-.11-1.595-.33-.462-.227-.825-.568-1.089-1.023s-.396-1.027-.396-1.716c0-.704.117-1.287.352-1.749.242-.469.575-.821 1.001-1.056.425-.235.92-.352 1.485-.352zm.011 1.166c-.316 0-.58.103-.792.308-.206.205-.327.524-.363.957h2.299c-.008-.367-.103-.667-.286-.902-.184-.242-.47-.363-.858-.363zm8.204 3.168c0 .609-.217 1.078-.649 1.408-.426.323-1.064.484-1.914.484-.418 0-.778-.029-1.078-.088-.301-.051-.602-.139-.902-.264v-1.353c.322.147.671.268 1.045.363s.704.143.99.143c.322 0 .55-.048.682-.143.139-.095.209-.22.209-.374 0-.103-.03-.194-.088-.275-.052-.081-.169-.172-.352-.275-.184-.103-.47-.235-.858-.396-.374-.161-.682-.319-.924-.473-.242-.161-.422-.352-.539-.572-.118-.227-.176-.51-.176-.847 0-.557.216-.975.649-1.254.432-.279 1.008-.418 1.727-.418.374 0 .729.037 1.067.11.337.073.685.194 1.045.363l-.495 1.177c-.294-.125-.572-.227-.836-.308-.264-.088-.532-.132-.803-.132-.484 0-.726.132-.726.396 0 .095.029.183.088.264.066.073.187.154.363.242.183.088.451.205.803.352.344.139.641.286.891.44.249.147.44.334.572.561.139.22.209.51.209.869zm6.081-4.334c.741 0 1.32.293 1.738.88h.044l.132-.77h1.386v6.017c0 .858-.253 1.511-.759 1.958s-1.254.671-2.244.671c-.425 0-.821-.026-1.188-.077-.359-.051-.711-.143-1.056-.275v-1.309c.741.308 1.522.462 2.343.462.843 0 1.265-.455 1.265-1.364v-.121c0-.125.004-.253.011-.385.015-.132.026-.249.033-.352h-.044c-.205.315-.451.543-.737.682s-.609.209-.968.209c-.711 0-1.269-.271-1.672-.814-.396-.55-.594-1.313-.594-2.288 0-.983.205-1.749.616-2.299s.975-.825 1.694-.825zm.517 1.331c-.77 0-1.155.605-1.155 1.815 0 1.195.392 1.793 1.177 1.793.418 0 .726-.117.924-.352.205-.242.308-.66.308-1.254v-.198c0-.645-.099-1.107-.297-1.386s-.517-.418-.957-.418zm7.852-1.331c.08 0 .176.004.286.011s.198.018.264.033l-.121 1.54c-.052-.015-.129-.026-.231-.033-.096-.015-.18-.022-.253-.022-.279 0-.547.051-.803.154-.257.095-.466.253-.627.473-.154.22-.231.521-.231.902v3.058h-1.639v-6.006h1.243l.242 1.012h.077c.176-.308.418-.572.726-.792s.663-.33 1.067-.33zm6.881 3.102c0 .997-.264 1.767-.792 2.31-.521.543-1.232.814-2.134.814-.557 0-1.056-.121-1.496-.363-.433-.242-.774-.594-1.023-1.056-.249-.469-.374-1.038-.374-1.705 0-.997.26-1.764.781-2.299s1.236-.803 2.145-.803c.565 0 1.063.121 1.496.363s.774.594 1.023 1.056c.249.455.374 1.016.374 1.683zm-4.147 0c0 .594.095 1.045.286 1.353.198.301.517.451.957.451.433 0 .744-.15.935-.451.198-.308.297-.759.297-1.353s-.099-1.038-.297-1.331c-.191-.301-.506-.451-.946-.451-.433 0-.748.15-.946.451-.191.293-.286.737-.286 1.331zm9.764.913c-.03-.125-.074-.308-.132-.55-.052-.249-.11-.513-.176-.792-.066-.286-.129-.546-.187-.781-.059-.242-.099-.418-.121-.528h-.044c-.022.11-.063.286-.121.528-.052.235-.11.495-.176.781-.066.279-.129.543-.187.792-.059.249-.103.44-.132.572l-.484 2.079h-1.76l-1.705-6.006h1.628l.693 2.662c.051.183.095.403.132.66.044.257.084.506.121.748.036.235.062.422.077.561h.044c.007-.103.022-.238.044-.407.022-.176.047-.356.077-.539.036-.183.066-.348.088-.495.029-.154.051-.257.066-.308l.737-2.882h1.804l.704 2.882c.029.103.062.268.099.495.044.227.08.458.11.693.036.235.055.422.055.561h.044c.014-.125.04-.304.077-.539.036-.242.077-.495.121-.759.051-.264.102-.488.154-.671l.715-2.662h1.606l-1.727 6.006h-1.782zm7.474.902c.183 0 .359-.018.528-.055.168-.037.337-.081.506-.132v1.221c-.176.073-.396.136-.66.187-.257.059-.539.088-.847.088-.36 0-.682-.059-.968-.176-.279-.117-.503-.319-.671-.605-.162-.293-.242-.697-.242-1.21v-2.893h-.781v-.693l.902-.55.473-1.265h1.045v1.276h1.683v1.232h-1.683v2.893c0 .227.066.4.198.517.132.11.304.165.517.165zm3.878-5.456c0 .293-.011.576-.033.847-.014.271-.029.462-.044.572h.088c.191-.308.437-.532.737-.671.301-.139.635-.209 1.001-.209.653 0 1.174.176 1.562.528.396.345.594.902.594 1.672v3.916h-1.639v-3.509c0-.865-.322-1.298-.968-1.298-.491 0-.832.172-1.023.517-.183.337-.275.825-.275 1.463v2.827h-1.639v-8.36h1.639z" fill="#293243"/><path d="m303.015 343h-1.661v-6.468h-2.134v-1.386h5.929v1.386h-2.134zm7.896-3.014c0 .997-.264 1.767-.792 2.31-.521.543-1.232.814-2.134.814-.558 0-1.056-.121-1.496-.363-.433-.242-.774-.594-1.023-1.056-.25-.469-.374-1.038-.374-1.705 0-.997.26-1.764.781-2.299.52-.535 1.235-.803 2.145-.803.564 0 1.063.121 1.496.363.432.242.773.594 1.023 1.056.249.455.374 1.016.374 1.683zm-4.147 0c0 .594.095 1.045.286 1.353.198.301.517.451.957.451.432 0 .744-.15.935-.451.198-.308.297-.759.297-1.353s-.099-1.038-.297-1.331c-.191-.301-.506-.451-.946-.451-.433 0-.748.15-.946.451-.191.293-.286.737-.286 1.331zm8.031 1.815c.184 0 .36-.018.528-.055.169-.037.338-.081.506-.132v1.221c-.176.073-.396.136-.66.187-.256.059-.539.088-.847.088-.359 0-.682-.059-.968-.176-.278-.117-.502-.319-.671-.605-.161-.293-.242-.697-.242-1.21v-2.893h-.781v-.693l.902-.55.473-1.265h1.045v1.276h1.683v1.232h-1.683v2.893c0 .227.066.4.198.517.132.11.305.165.517.165zm4.704-4.928c.806 0 1.422.176 1.848.528.432.345.649.876.649 1.595v4.004h-1.144l-.319-.814h-.044c-.257.323-.528.557-.814.704s-.679.22-1.177.22c-.536 0-.979-.154-1.331-.462-.352-.315-.528-.796-.528-1.441 0-.638.223-1.107.671-1.408.447-.308 1.118-.477 2.013-.506l1.045-.033v-.264c0-.315-.085-.546-.253-.693-.162-.147-.389-.22-.682-.22-.294 0-.58.044-.858.132-.279.081-.558.183-.836.308l-.539-1.111c.322-.169.678-.301 1.067-.396.396-.095.806-.143 1.232-.143zm.231 3.366c-.528.015-.895.11-1.1.286-.206.176-.308.407-.308.693 0 .249.073.429.22.539.146.103.337.154.572.154.352 0 .649-.103.891-.308.242-.213.363-.51.363-.891v-.495zm5.582 2.761h-1.639v-8.36h1.639zm7.925-6.116c.081 0 .176.004.286.011s.198.018.264.033l-.121 1.54c-.051-.015-.128-.026-.231-.033-.095-.015-.179-.022-.253-.022-.278 0-.546.051-.803.154-.256.095-.465.253-.627.473-.154.22-.231.521-.231.902v3.058h-1.639v-6.006h1.243l.242 1.012h.077c.176-.308.418-.572.726-.792s.664-.33 1.067-.33zm3.901 0c.828 0 1.485.238 1.969.715.484.469.726 1.14.726 2.013v.792h-3.872c.014.462.15.825.407 1.089.264.264.627.396 1.089.396.388 0 .74-.037 1.056-.11.315-.081.641-.202.979-.363v1.265c-.294.147-.605.253-.935.319-.323.073-.715.11-1.177.11-.602 0-1.133-.11-1.595-.33-.462-.227-.825-.568-1.089-1.023s-.396-1.027-.396-1.716c0-.704.117-1.287.352-1.749.242-.469.575-.821 1.001-1.056.425-.235.92-.352 1.485-.352zm.011 1.166c-.316 0-.58.103-.792.308-.206.205-.327.524-.363.957h2.299c-.008-.367-.103-.667-.286-.902-.184-.242-.47-.363-.858-.363zm6.543 3.751c.183 0 .359-.018.528-.055.168-.037.337-.081.506-.132v1.221c-.176.073-.396.136-.66.187-.257.059-.539.088-.847.088-.36 0-.682-.059-.968-.176-.279-.117-.503-.319-.671-.605-.162-.293-.242-.697-.242-1.21v-2.893h-.781v-.693l.902-.55.473-1.265h1.045v1.276h1.683v1.232h-1.683v2.893c0 .227.066.4.198.517.132.11.304.165.517.165zm4.703-4.928c.807 0 1.423.176 1.848.528.433.345.649.876.649 1.595v4.004h-1.144l-.319-.814h-.044c-.256.323-.528.557-.814.704s-.678.22-1.177.22c-.535 0-.979-.154-1.331-.462-.352-.315-.528-.796-.528-1.441 0-.638.224-1.107.671-1.408.448-.308 1.119-.477 2.013-.506l1.045-.033v-.264c0-.315-.084-.546-.253-.693-.161-.147-.388-.22-.682-.22-.293 0-.579.044-.858.132-.278.081-.557.183-.836.308l-.539-1.111c.323-.169.679-.301 1.067-.396.396-.095.807-.143 1.232-.143zm.231 3.366c-.528.015-.894.11-1.1.286-.205.176-.308.407-.308.693 0 .249.074.429.22.539.147.103.338.154.572.154.352 0 .649-.103.891-.308.242-.213.363-.51.363-.891v-.495zm4.769-5.599c.242 0 .451.059.627.176.176.11.264.319.264.627 0 .301-.088.51-.264.627s-.385.176-.627.176c-.249 0-.462-.059-.638-.176-.169-.117-.253-.326-.253-.627 0-.308.084-.517.253-.627.176-.117.389-.176.638-.176zm.814 2.354v6.006h-1.639v-6.006zm3.351 6.006h-1.639v-8.36h1.639zm8.761-1.782c0 .609-.216 1.078-.649 1.408-.425.323-1.063.484-1.914.484-.418 0-.777-.029-1.078-.088-.3-.051-.601-.139-.902-.264v-1.353c.323.147.671.268 1.045.363s.704.143.99.143c.323 0 .55-.048.682-.143.14-.095.209-.22.209-.374 0-.103-.029-.194-.088-.275-.051-.081-.168-.172-.352-.275-.183-.103-.469-.235-.858-.396-.374-.161-.682-.319-.924-.473-.242-.161-.421-.352-.539-.572-.117-.227-.176-.51-.176-.847 0-.557.217-.975.649-1.254.433-.279 1.009-.418 1.727-.418.374 0 .73.037 1.067.11.338.073.686.194 1.045.363l-.495 1.177c-.293-.125-.572-.227-.836-.308-.264-.088-.531-.132-.803-.132-.484 0-.726.132-.726.396 0 .095.03.183.088.264.066.073.187.154.363.242.184.088.451.205.803.352.345.139.642.286.891.44.25.147.44.334.572.561.14.22.209.51.209.869zm3.741-4.345c.807 0 1.423.176 1.848.528.433.345.649.876.649 1.595v4.004h-1.144l-.319-.814h-.044c-.256.323-.528.557-.814.704s-.678.22-1.177.22c-.535 0-.979-.154-1.331-.462-.352-.315-.528-.796-.528-1.441 0-.638.224-1.107.671-1.408.448-.308 1.119-.477 2.013-.506l1.045-.033v-.264c0-.315-.084-.546-.253-.693-.161-.147-.388-.22-.682-.22-.293 0-.579.044-.858.132-.278.081-.557.183-.836.308l-.539-1.111c.323-.169.679-.301 1.067-.396.396-.095.807-.143 1.232-.143zm.231 3.366c-.528.015-.894.11-1.1.286-.205.176-.308.407-.308.693 0 .249.074.429.22.539.147.103.338.154.572.154.352 0 .649-.103.891-.308.242-.213.363-.51.363-.891v-.495zm5.583 2.761h-1.639v-8.36h1.639zm4.187-6.116c.829 0 1.485.238 1.969.715.484.469.726 1.14.726 2.013v.792h-3.872c.015.462.151.825.407 1.089.264.264.627.396 1.089.396.389 0 .741-.037 1.056-.11.316-.081.642-.202.979-.363v1.265c-.293.147-.605.253-.935.319-.322.073-.715.11-1.177.11-.601 0-1.133-.11-1.595-.33-.462-.227-.825-.568-1.089-1.023s-.396-1.027-.396-1.716c0-.704.118-1.287.352-1.749.242-.469.576-.821 1.001-1.056.426-.235.921-.352 1.485-.352zm.011 1.166c-.315 0-.579.103-.792.308-.205.205-.326.524-.363.957h2.299c-.007-.367-.102-.667-.286-.902-.183-.242-.469-.363-.858-.363zm8.204 3.168c0 .609-.216 1.078-.649 1.408-.425.323-1.063.484-1.914.484-.418 0-.777-.029-1.078-.088-.3-.051-.601-.139-.902-.264v-1.353c.323.147.671.268 1.045.363s.704.143.99.143c.323 0 .55-.048.682-.143.14-.095.209-.22.209-.374 0-.103-.029-.194-.088-.275-.051-.081-.168-.172-.352-.275-.183-.103-.469-.235-.858-.396-.374-.161-.682-.319-.924-.473-.242-.161-.421-.352-.539-.572-.117-.227-.176-.51-.176-.847 0-.557.217-.975.649-1.254.433-.279 1.009-.418 1.727-.418.374 0 .73.037 1.067.11.338.073.686.194 1.045.363l-.495 1.177c-.293-.125-.572-.227-.836-.308-.264-.088-.531-.132-.803-.132-.484 0-.726.132-.726.396 0 .095.03.183.088.264.066.073.187.154.363.242.184.088.451.205.803.352.345.139.642.286.891.44.25.147.44.334.572.561.14.22.209.51.209.869zm6.082-4.334c.74 0 1.32.293 1.738.88h.044l.132-.77h1.386v6.017c0 .858-.253 1.511-.759 1.958s-1.254.671-2.244.671c-.426 0-.822-.026-1.188-.077-.36-.051-.712-.143-1.056-.275v-1.309c.74.308 1.521.462 2.343.462.843 0 1.265-.455 1.265-1.364v-.121c0-.125.003-.253.011-.385.014-.132.025-.249.033-.352h-.044c-.206.315-.451.543-.737.682s-.609.209-.968.209c-.712 0-1.269-.271-1.672-.814-.396-.55-.594-1.313-.594-2.288 0-.983.205-1.749.616-2.299.41-.55.975-.825 1.694-.825zm.517 1.331c-.77 0-1.155.605-1.155 1.815 0 1.195.392 1.793 1.177 1.793.418 0 .726-.117.924-.352.205-.242.308-.66.308-1.254v-.198c0-.645-.099-1.107-.297-1.386s-.517-.418-.957-.418zm7.852-1.331c.08 0 .176.004.286.011s.198.018.264.033l-.121 1.54c-.052-.015-.129-.026-.231-.033-.096-.015-.18-.022-.253-.022-.279 0-.547.051-.803.154-.257.095-.466.253-.627.473-.154.22-.231.521-.231.902v3.058h-1.639v-6.006h1.243l.242 1.012h.077c.176-.308.418-.572.726-.792s.663-.33 1.067-.33zm6.881 3.102c0 .997-.264 1.767-.792 2.31-.521.543-1.232.814-2.134.814-.557 0-1.056-.121-1.496-.363-.433-.242-.774-.594-1.023-1.056-.249-.469-.374-1.038-.374-1.705 0-.997.26-1.764.781-2.299s1.236-.803 2.145-.803c.565 0 1.063.121 1.496.363s.774.594 1.023 1.056c.249.455.374 1.016.374 1.683zm-4.147 0c0 .594.095 1.045.286 1.353.198.301.517.451.957.451.433 0 .744-.15.935-.451.198-.308.297-.759.297-1.353s-.099-1.038-.297-1.331c-.191-.301-.506-.451-.946-.451-.433 0-.748.15-.946.451-.191.293-.286.737-.286 1.331zm9.764.913c-.03-.125-.074-.308-.132-.55-.052-.249-.11-.513-.176-.792-.066-.286-.129-.546-.187-.781-.059-.242-.099-.418-.121-.528h-.044c-.022.11-.063.286-.121.528-.052.235-.11.495-.176.781-.066.279-.129.543-.187.792-.059.249-.103.44-.132.572l-.484 2.079h-1.76l-1.705-6.006h1.628l.693 2.662c.051.183.095.403.132.66.044.257.084.506.121.748.036.235.062.422.077.561h.044c.007-.103.022-.238.044-.407.022-.176.047-.356.077-.539.036-.183.066-.348.088-.495.029-.154.051-.257.066-.308l.737-2.882h1.804l.704 2.882c.029.103.062.268.099.495.044.227.08.458.11.693.036.235.055.422.055.561h.044c.014-.125.04-.304.077-.539.036-.242.077-.495.121-.759.051-.264.102-.488.154-.671l.715-2.662h1.606l-1.727 6.006h-1.782zm7.474.902c.183 0 .359-.018.528-.055.168-.037.337-.081.506-.132v1.221c-.176.073-.396.136-.66.187-.257.059-.539.088-.847.088-.36 0-.682-.059-.968-.176-.279-.117-.503-.319-.671-.605-.162-.293-.242-.697-.242-1.21v-2.893h-.781v-.693l.902-.55.473-1.265h1.045v1.276h1.683v1.232h-1.683v2.893c0 .227.066.4.198.517.132.11.304.165.517.165zm3.878-5.456c0 .293-.011.576-.033.847-.015.271-.029.462-.044.572h.088c.191-.308.436-.532.737-.671s.634-.209 1.001-.209c.653 0 1.173.176 1.562.528.396.345.594.902.594 1.672v3.916h-1.639v-3.509c0-.865-.323-1.298-.968-1.298-.491 0-.832.172-1.023.517-.183.337-.275.825-.275 1.463v2.827h-1.639v-8.36h1.639z" fill="#293243"/><g fill="#58595b"><path d="m52.72 312h-5.192v-.803l2.057-2.079c.396-.396.7297-.748 1.001-1.056s.4767-.609.616-.902c.1393-.301.209-.627.209-.979 0-.433-.1283-.759-.385-.979-.2567-.227-.5903-.341-1.001-.341-.3813 0-.7187.066-1.012.198-.286.132-.5793.315-.88.55l-.517-.649c.308-.257.66-.473 1.056-.649.4033-.183.8543-.275 1.353-.275.7333 0 1.3127.187 1.738.561.4253.367.638.876.638 1.529 0 .411-.0843.796-.253 1.155s-.4033.715-.704 1.067c-.3007.345-.6527.715-1.056 1.111l-1.639 1.617v.044h3.971zm6.3279-3.938c0 .843-.088 1.569-.264 2.178-.176.601-.4546 1.063-.836 1.386-.3813.323-.8873.484-1.518.484-.8873 0-1.5436-.356-1.969-1.067-.418-.719-.627-1.712-.627-2.981 0-.851.0844-1.577.253-2.178.176-.601.4547-1.06.836-1.375.3814-.323.8837-.484 1.507-.484.88 0 1.5364.356 1.969 1.067.4327.704.649 1.694.649 2.97zm-4.246 0c0 1.078.121 1.885.363 2.42.2494.535.671.803 1.265.803.5867 0 1.0047-.264 1.254-.792.2567-.535.385-1.346.385-2.431 0-1.071-.1283-1.874-.385-2.409-.2493-.535-.6673-.803-1.254-.803-.594 0-1.0156.268-1.265.803-.242.535-.363 1.338-.363 2.409zm8.6929 3.938h-.946v-5.489c0-.315.0037-.568.011-.759.0074-.191.0184-.389.033-.594-.1173.117-.2236.216-.319.297-.0953.081-.2163.183-.363.308l-.836.682-.506-.649 2.123-1.65h.803zm6.295 0h-.946v-5.489c0-.315.0036-.568.011-.759.0073-.191.0183-.389.033-.594-.1174.117-.2237.216-.319.297-.0954.081-.2164.183-.363.308l-.836.682-.506-.649 2.123-1.65h.803z"/><path d="m5.753 294.062c0 .843-.088 1.569-.264 2.178-.176.601-.45467 1.063-.836 1.386s-.88733.484-1.518.484c-.88733 0-1.54367-.356-1.969-1.067-.418-.719-.627-1.712-.627-2.981 0-.851.084333-1.577.253-2.178.176-.601.45467-1.06.836-1.375.38133-.323.88367-.484 1.507-.484.88 0 1.53633.356 1.969 1.067.43267.704.649 1.694.649 2.97zm-4.246 0c0 1.078.121 1.885.363 2.42.24933.535.671.803 1.265.803.58667 0 1.00467-.264 1.254-.792.25667-.535.385-1.346.385-2.431 0-1.071-.12833-1.874-.385-2.409-.24933-.535-.66733-.803-1.254-.803-.594 0-1.01567.268-1.265.803-.242.535-.363 1.338-.363 2.409z"/><path d="m3.025 253.182c.80667 0 1.44833.202 1.925.605s.715.972.715 1.705c0 .814-.26033 1.456-.781 1.925-.51333.462-1.232.693-2.156.693-.40333 0-.78467-.037-1.144-.11-.352-.073-.649-.18-.891-.319v-.913c.264.161.583.29.957.385.38133.088.74433.132 1.089.132.57933 0 1.045-.136 1.397-.407.35933-.279.539-.708.539-1.287 0-.513-.15767-.906-.473-1.177-.31533-.279-.814-.418-1.496-.418-.20533 0-.44.018-.704.055s-.47667.073-.638.11l-.484-.308.297-3.707h3.938v.88h-3.113l-.187 2.277c.12467-.022.29333-.048.506-.077s.44733-.044.704-.044zm5.41492-3.146c.54267 0 .95334.216 1.232.649.27867.425.41798 1.027.41798 1.804s-.13564 1.386-.40698 1.826c-.264.433-.67833.649-1.243.649-.52066 0-.92033-.216-1.199-.649-.27133-.44-.407-1.049-.407-1.826s.12834-1.379.385-1.804c.25667-.433.66367-.649 1.221-.649zm5.02698.11-4.35598 7.854h-.847l4.35598-7.854zm-5.02698.572c-.27866 0-.484.15-.616.451-.12466.293-.187.733-.187 1.32s.06234 1.03.187 1.331c.132.301.33734.451.616.451.56467 0 .847-.594.847-1.782 0-1.181-.28233-1.771-.847-1.771zm4.80698 2.464c.5354 0 .9424.216 1.221.649.286.425.429 1.027.429 1.804s-.1356 1.386-.407 1.826c-.264.433-.6783.649-1.243.649-.5206 0-.9203-.216-1.199-.649-.2713-.44-.407-1.049-.407-1.826s.1284-1.379.385-1.804c.2567-.433.6637-.649 1.221-.649zm0 .693c-.2786 0-.484.147-.616.44-.1246.293-.187.733-.187 1.32 0 .594.0624 1.041.187 1.342.132.293.3374.44.616.44.5647 0 .847-.594.847-1.782 0-1.173-.2823-1.76-.847-1.76z"/><path d="m3.905 218h-.946v-5.489c0-.315.00367-.568.011-.759s.01833-.389.033-.594c-.11733.117-.22367.216-.319.297s-.21633.183-.363.308l-.836.682-.506-.649 2.123-1.65h.803zm8.1429-3.938c0 .843-.088 1.569-.264 2.178-.176.601-.4546 1.063-.836 1.386-.3813.323-.8873.484-1.51798.484-.88733 0-1.54366-.356-1.969-1.067-.418-.719-.627-1.712-.627-2.981 0-.851.08434-1.577.253-2.178.176-.601.45467-1.06.836-1.375.38134-.323.88367-.484 1.507-.484.87998 0 1.53638.356 1.96898 1.067.4327.704.649 1.694.649 2.97zm-4.24598 0c0 1.078.121 1.885.363 2.42.24934.535.671.803 1.265.803.58668 0 1.00468-.264 1.25398-.792.2567-.535.385-1.346.385-2.431 0-1.071-.1283-1.874-.385-2.409-.2493-.535-.6673-.803-1.25398-.803-.594 0-1.01566.268-1.265.803-.242.535-.363 1.338-.363 2.409zm6.93288-4.026c.5427 0 .9534.216 1.232.649.2787.425.418 1.027.418 1.804s-.1356 1.386-.407 1.826c-.264.433-.6783.649-1.243.649-.5206 0-.9203-.216-1.199-.649-.2713-.44-.407-1.049-.407-1.826s.1284-1.379.385-1.804c.2567-.433.6637-.649 1.221-.649zm5.027.11-4.356 7.854h-.847l4.356-7.854zm-5.027.572c-.2786 0-.484.15-.616.451-.1246.293-.187.733-.187 1.32s.0624 1.03.187 1.331c.132.301.3374.451.616.451.5647 0 .847-.594.847-1.782 0-1.181-.2823-1.771-.847-1.771zm4.807 2.464c.5354 0 .9424.216 1.221.649.286.425.429 1.027.429 1.804s-.1356 1.386-.407 1.826c-.264.433-.6783.649-1.243.649-.5206 0-.9203-.216-1.199-.649-.2713-.44-.407-1.049-.407-1.826s.1284-1.379.385-1.804c.2567-.433.6637-.649 1.221-.649zm0 .693c-.2786 0-.484.147-.616.44-.1246.293-.187.733-.187 1.32 0 .594.0624 1.041.187 1.342.132.293.3374.44.616.44.5647 0 .847-.594.847-1.782 0-1.173-.2823-1.76-.847-1.76z"/><path d="m3.905 178h-.946v-5.489c0-.315.00367-.568.011-.759s.01833-.389.033-.594c-.11733.117-.22367.216-.319.297s-.21633.183-.363.308l-.836.682-.506-.649 2.123-1.65h.803zm5.41492-4.818c.80668 0 1.44838.202 1.92498.605.4767.403.715.972.715 1.705 0 .814-.2603 1.456-.781 1.925-.5133.462-1.23198.693-2.15598.693-.40333 0-.78466-.037-1.144-.11-.352-.073-.649-.18-.891-.319v-.913c.264.161.583.29.957.385.38134.088.74434.132 1.089.132.57934 0 1.04498-.136 1.39698-.407.3594-.279.539-.708.539-1.287 0-.513-.1576-.906-.473-1.177-.3153-.279-.81398-.418-1.49598-.418-.20533 0-.44.018-.704.055s-.47666.073-.638.11l-.484-.308.297-3.707h3.93798v.88h-3.11298l-.187 2.277c.12467-.022.29334-.048.506-.077.21267-.029.44734-.044.704-.044zm5.41488-3.146c.5427 0 .9534.216 1.232.649.2787.425.418 1.027.418 1.804s-.1356 1.386-.407 1.826c-.264.433-.6783.649-1.243.649-.5206 0-.9203-.216-1.199-.649-.2713-.44-.407-1.049-.407-1.826s.1284-1.379.385-1.804c.2567-.433.6637-.649 1.221-.649zm5.027.11-4.356 7.854h-.847l4.356-7.854zm-5.027.572c-.2786 0-.484.15-.616.451-.1246.293-.187.733-.187 1.32s.0624 1.03.187 1.331c.132.301.3374.451.616.451.5647 0 .847-.594.847-1.782 0-1.181-.2823-1.771-.847-1.771zm4.807 2.464c.5354 0 .9424.216 1.221.649.286.425.429 1.027.429 1.804s-.1356 1.386-.407 1.826c-.264.433-.6783.649-1.243.649-.5206 0-.9203-.216-1.199-.649-.2713-.44-.407-1.049-.407-1.826s.1284-1.379.385-1.804c.2567-.433.6637-.649 1.221-.649zm0 .693c-.2786 0-.484.147-.616.44-.1246.293-.187.733-.187 1.32 0 .594.0624 1.041.187 1.342.132.293.3374.44.616.44.5647 0 .847-.594.847-1.782 0-1.173-.2823-1.76-.847-1.76z"/><path d="m5.72 138h-5.192v-.803l2.057-2.079c.396-.396.72967-.748 1.001-1.056s.47667-.609.616-.902c.13933-.301.209-.627.209-.979 0-.433-.12833-.759-.385-.979-.25667-.227-.59033-.341-1.001-.341-.38133 0-.71867.066-1.012.198-.286.132-.57933.315-.88.55l-.517-.649c.308-.257.66-.473 1.056-.649.40333-.183.85433-.275 1.353-.275.73333 0 1.31267.187 1.738.561.42533.367.638.876.638 1.529 0 .411-.08433.796-.253 1.155s-.40333.715-.704 1.067c-.30067.345-.65267.715-1.056 1.111l-1.639 1.617v.044h3.971zm6.3279-3.938c0 .843-.088 1.569-.264 2.178-.176.601-.4546 1.063-.836 1.386-.3813.323-.8873.484-1.51798.484-.88733 0-1.54366-.356-1.969-1.067-.418-.719-.627-1.712-.627-2.981 0-.851.08434-1.577.253-2.178.176-.601.45467-1.06.836-1.375.38134-.323.88367-.484 1.507-.484.87998 0 1.53638.356 1.96898 1.067.4327.704.649 1.694.649 2.97zm-4.24598 0c0 1.078.121 1.885.363 2.42.24934.535.671.803 1.265.803.58668 0 1.00468-.264 1.25398-.792.2567-.535.385-1.346.385-2.431 0-1.071-.1283-1.874-.385-2.409-.2493-.535-.6673-.803-1.25398-.803-.594 0-1.01566.268-1.265.803-.242.535-.363 1.338-.363 2.409zm6.93288-4.026c.5427 0 .9534.216 1.232.649.2787.425.418 1.027.418 1.804s-.1356 1.386-.407 1.826c-.264.433-.6783.649-1.243.649-.5206 0-.9203-.216-1.199-.649-.2713-.44-.407-1.049-.407-1.826s.1284-1.379.385-1.804c.2567-.433.6637-.649 1.221-.649zm5.027.11-4.356 7.854h-.847l4.356-7.854zm-5.027.572c-.2786 0-.484.15-.616.451-.1246.293-.187.733-.187 1.32s.0624 1.03.187 1.331c.132.301.3374.451.616.451.5647 0 .847-.594.847-1.782 0-1.181-.2823-1.771-.847-1.771zm4.807 2.464c.5354 0 .9424.216 1.221.649.286.425.429 1.027.429 1.804s-.1356 1.386-.407 1.826c-.264.433-.6783.649-1.243.649-.5206 0-.9203-.216-1.199-.649-.2713-.44-.407-1.049-.407-1.826s.1284-1.379.385-1.804c.2567-.433.6637-.649 1.221-.649zm0 .693c-.2786 0-.484.147-.616.44-.1246.293-.187.733-.187 1.32 0 .594.0624 1.041.187 1.342.132.293.3374.44.616.44.5647 0 .847-.594.847-1.782 0-1.173-.2823-1.76-.847-1.76z"/><path d="m5.72 98h-5.192v-.803l2.057-2.079c.396-.396.72967-.748 1.001-1.056s.47667-.6087.616-.902c.13933-.3007.209-.627.209-.979 0-.4327-.12833-.759-.385-.979-.25667-.2273-.59033-.341-1.001-.341-.38133 0-.71867.066-1.012.198-.286.132-.57933.3153-.88.55l-.517-.649c.308-.2567.66-.473 1.056-.649.40333-.1833.85433-.275 1.353-.275.73333 0 1.31267.187 1.738.561.42533.3667.638.8763.638 1.529 0 .4107-.08433.7957-.253 1.155s-.40333.715-.704 1.067c-.30067.3447-.65267.715-1.056 1.111l-1.639 1.617v.044h3.971zm3.59992-4.818c.80668 0 1.44838.2017 1.92498.605.4767.4033.715.9717.715 1.705 0 .814-.2603 1.4557-.781 1.925-.5133.462-1.23198.693-2.15598.693-.40333 0-.78466-.0367-1.144-.11-.352-.0733-.649-.1797-.891-.319v-.913c.264.1613.583.2897.957.385.38134.088.74434.132 1.089.132.57934 0 1.04498-.1357 1.39698-.407.3594-.2787.539-.7077.539-1.287 0-.5133-.1576-.9057-.473-1.177-.3153-.2787-.81398-.418-1.49598-.418-.20533 0-.44.0183-.704.055s-.47666.0733-.638.11l-.484-.308.297-3.707h3.93798v.88h-3.11298l-.187 2.277c.12467-.022.29334-.0477.506-.077.21267-.0293.44734-.044.704-.044zm5.41488-3.146c.5427 0 .9534.2163 1.232.649.2787.4253.418 1.0267.418 1.804s-.1356 1.386-.407 1.826c-.264.4327-.6783.649-1.243.649-.5206 0-.9203-.2163-1.199-.649-.2713-.44-.407-1.0487-.407-1.826s.1284-1.3787.385-1.804c.2567-.4327.6637-.649 1.221-.649zm5.027.11-4.356 7.854h-.847l4.356-7.854zm-5.027.572c-.2786 0-.484.1503-.616.451-.1246.2933-.187.7333-.187 1.32s.0624 1.0303.187 1.331c.132.3007.3374.451.616.451.5647 0 .847-.594.847-1.782 0-1.1807-.2823-1.771-.847-1.771zm4.807 2.464c.5354 0 .9424.2163 1.221.649.286.4253.429 1.0267.429 1.804s-.1356 1.386-.407 1.826c-.264.4327-.6783.649-1.243.649-.5206 0-.9203-.2163-1.199-.649-.2713-.44-.407-1.0487-.407-1.826s.1284-1.3787.385-1.804c.2567-.4327.6637-.649 1.221-.649zm0 .693c-.2786 0-.484.1467-.616.44-.1246.2933-.187.7333-.187 1.32 0 .594.0624 1.0413.187 1.342.132.2933.3374.44.616.44.5647 0 .847-.594.847-1.782 0-1.1733-.2823-1.76-.847-1.76z"/><path d="m5.423 51.983c0 .528-.14667.9497-.44 1.265-.29333.308-.68933.5133-1.188.616v.044c.63067.0733 1.1.2713 1.408.594s.462.7443.462 1.265c0 .4547-.10633.8617-.319 1.221-.21267.352-.54267.627-.99.825-.44.198-1.00833.297-1.705.297-.41067 0-.792-.033-1.144-.099-.352-.0587-.689333-.1687-1.012-.33v-.902c.33.1613.68567.2897 1.067.385.38133.088.748.132 1.1.132.704 0 1.21-.1357 1.518-.407.31533-.2787.473-.66.473-1.144 0-.4913-.19433-.8433-.583-1.056-.38133-.22-.92033-.33-1.617-.33h-.759v-.825h.77c.64533 0 1.133-.1357 1.463-.407.33733-.2713.506-.6307.506-1.078 0-.3813-.12833-.6747-.385-.88-.25667-.2127-.605-.319-1.045-.319-.42533 0-.78833.0623-1.089.187s-.59767.2823-.891.473l-.484-.66c.278667-.22.62333-.4107 1.034-.572.418-.1613.891-.242 1.419-.242.82133 0 1.43.1833 1.826.55.40333.3667.605.8323.605 1.397zm6.6249 2.079c0 .8433-.088 1.5693-.264 2.178-.176.6013-.4546 1.0633-.836 1.386-.3813.3227-.8873.484-1.51798.484-.88733 0-1.54366-.3557-1.969-1.067-.418-.7187-.627-1.7123-.627-2.981 0-.8507.08434-1.5767.253-2.178.176-.6013.45467-1.0597.836-1.375.38134-.3227.88367-.484 1.507-.484.87998 0 1.53638.3557 1.96898 1.067.4327.704.649 1.694.649 2.97zm-4.24598 0c0 1.078.121 1.8847.363 2.42.24934.5353.671.803 1.265.803.58668 0 1.00468-.264 1.25398-.792.2567-.5353.385-1.3457.385-2.431 0-1.0707-.1283-1.8737-.385-2.409-.2493-.5353-.6673-.803-1.25398-.803-.594 0-1.01566.2677-1.265.803-.242.5353-.363 1.3383-.363 2.409zm6.93288-4.026c.5427 0 .9534.2163 1.232.649.2787.4253.418 1.0267.418 1.804s-.1356 1.386-.407 1.826c-.264.4327-.6783.649-1.243.649-.5206 0-.9203-.2163-1.199-.649-.2713-.44-.407-1.0487-.407-1.826s.1284-1.3787.385-1.804c.2567-.4327.6637-.649 1.221-.649zm5.027.11-4.356 7.854h-.847l4.356-7.854zm-5.027.572c-.2786 0-.484.1503-.616.451-.1246.2933-.187.7333-.187 1.32s.0624 1.0303.187 1.331c.132.3007.3374.451.616.451.5647 0 .847-.594.847-1.782 0-1.1807-.2823-1.771-.847-1.771zm4.807 2.464c.5354 0 .9424.2163 1.221.649.286.4253.429 1.0267.429 1.804s-.1356 1.386-.407 1.826c-.264.4327-.6783.649-1.243.649-.5206 0-.9203-.2163-1.199-.649-.2713-.44-.407-1.0487-.407-1.826s.1284-1.3787.385-1.804c.2567-.4327.6637-.649 1.221-.649zm0 .693c-.2786 0-.484.1467-.616.44-.1246.2933-.187.7333-.187 1.32 0 .594.0624 1.0413.187 1.342.132.2933.3374.44.616.44.5647 0 .847-.594.847-1.782 0-1.1733-.2823-1.76-.847-1.76z"/><path d="m5.423 11.983c0 .528-.14667.9497-.44 1.265-.29333.308-.68933.5133-1.188.616v.044c.63067.0733 1.1.2713 1.408.594s.462.7443.462 1.265c0 .4547-.10633.8617-.319 1.221-.21267.352-.54267.627-.99.825-.44.198-1.00833.297-1.705.297-.41067 0-.792-.033-1.144-.099-.352-.0587-.689333-.1687-1.012-.33v-.902c.33.1613.68567.2897 1.067.385.38133.088.748.132 1.1.132.704 0 1.21-.1357 1.518-.407.31533-.2787.473-.66.473-1.144 0-.4913-.19433-.8433-.583-1.056-.38133-.22-.92033-.33-1.617-.33h-.759v-.825h.77c.64533 0 1.133-.1357 1.463-.407.33733-.2713.506-.6307.506-1.078 0-.3813-.12833-.6747-.385-.88-.25667-.2127-.605-.319-1.045-.319-.42533 0-.78833.0623-1.089.187s-.59767.2823-.891.473l-.484-.66c.278667-.22.62333-.4107 1.034-.572.418-.1613.891-.242 1.419-.242.82133 0 1.43.1833 1.826.55.40333.3667.605.8323.605 1.397zm3.89692 1.199c.80668 0 1.44838.2017 1.92498.605.4767.4033.715.9717.715 1.705 0 .814-.2603 1.4557-.781 1.925-.5133.462-1.23198.693-2.15598.693-.40333 0-.78466-.0367-1.144-.11-.352-.0733-.649-.1797-.891-.319v-.913c.264.1613.583.2897.957.385.38134.088.74434.132 1.089.132.57934 0 1.04498-.1357 1.39698-.407.3594-.2787.539-.7077.539-1.287 0-.5133-.1576-.9057-.473-1.177-.3153-.2787-.81398-.418-1.49598-.418-.20533 0-.44.0183-.704.055s-.47666.0733-.638.11l-.484-.308.297-3.707h3.93798v.88h-3.11298l-.187 2.277c.12467-.022.29334-.0477.506-.077.21267-.0293.44734-.044.704-.044zm5.41488-3.146c.5427 0 .9534.2163 1.232.649.2787.4253.418 1.0267.418 1.804s-.1356 1.386-.407 1.826c-.264.4327-.6783.649-1.243.649-.5206 0-.9203-.2163-1.199-.649-.2713-.44-.407-1.0487-.407-1.826s.1284-1.3787.385-1.804c.2567-.4327.6637-.649 1.221-.649zm5.027.11-4.356 7.854h-.847l4.356-7.854zm-5.027.572c-.2786 0-.484.1503-.616.451-.1246.2933-.187.7333-.187 1.32s.0624 1.0303.187 1.331c.132.3007.3374.451.616.451.5647 0 .847-.594.847-1.782 0-1.1807-.2823-1.771-.847-1.771zm4.807 2.464c.5354 0 .9424.2163 1.221.649.286.4253.429 1.0267.429 1.804s-.1356 1.386-.407 1.826c-.264.4327-.6783.649-1.243.649-.5206 0-.9203-.2163-1.199-.649-.2713-.44-.407-1.0487-.407-1.826s.1284-1.3787.385-1.804c.2567-.4327.6637-.649 1.221-.649zm0 .693c-.2786 0-.484.1467-.616.44-.1246.2933-.187.7333-.187 1.32 0 .594.0624 1.0413.187 1.342.132.2933.3374.44.616.44.5647 0 .847-.594.847-1.782 0-1.1733-.2823-1.76-.847-1.76z"/><path d="m97.72 312h-5.192v-.803l2.057-2.079c.396-.396.7297-.748 1.001-1.056s.4767-.609.616-.902c.1393-.301.209-.627.209-.979 0-.433-.1283-.759-.385-.979-.2567-.227-.5903-.341-1.001-.341-.3813 0-.7187.066-1.012.198-.286.132-.5793.315-.88.55l-.517-.649c.308-.257.66-.473 1.056-.649.4033-.183.8543-.275 1.353-.275.7333 0 1.3127.187 1.738.561.4253.367.638.876.638 1.529 0 .411-.0843.796-.253 1.155s-.4033.715-.704 1.067c-.3007.345-.6527.715-1.056 1.111l-1.639 1.617v.044h3.971zm6.328-3.938c0 .843-.088 1.569-.264 2.178-.176.601-.455 1.063-.836 1.386s-.887.484-1.518.484c-.887 0-1.5437-.356-1.9691-1.067-.418-.719-.627-1.712-.627-2.981 0-.851.0844-1.577.253-2.178.176-.601.4547-1.06.836-1.375.3811-.323.8841-.484 1.5071-.484.88 0 1.536.356 1.969 1.067.433.704.649 1.694.649 2.97zm-4.2461 0c0 1.078.121 1.885.3631 2.42.249.535.671.803 1.265.803.587 0 1.005-.264 1.254-.792.257-.535.385-1.346.385-2.431 0-1.071-.128-1.874-.385-2.409-.249-.535-.667-.803-1.254-.803-.594 0-1.016.268-1.265.803-.2421.535-.3631 1.338-.3631 2.409zm8.6931 3.938h-.946v-5.489c0-.315.004-.568.011-.759s.018-.389.033-.594c-.117.117-.224.216-.319.297s-.216.183-.363.308l-.836.682-.506-.649 2.123-1.65h.803zm8.11 0h-5.192v-.803l2.057-2.079c.396-.396.729-.748 1.001-1.056.271-.308.476-.609.616-.902.139-.301.209-.627.209-.979 0-.433-.129-.759-.385-.979-.257-.227-.591-.341-1.001-.341-.382 0-.719.066-1.012.198-.286.132-.58.315-.88.55l-.517-.649c.308-.257.66-.473 1.056-.649.403-.183.854-.275 1.353-.275.733 0 1.312.187 1.738.561.425.367.638.876.638 1.529 0 .411-.085.796-.253 1.155-.169.359-.404.715-.704 1.067-.301.345-.653.715-1.056 1.111l-1.639 1.617v.044h3.971z"/><path d="m142.72 312h-5.192v-.803l2.057-2.079c.396-.396.73-.748 1.001-1.056s.477-.609.616-.902c.139-.301.209-.627.209-.979 0-.433-.128-.759-.385-.979-.257-.227-.59-.341-1.001-.341-.381 0-.719.066-1.012.198-.286.132-.579.315-.88.55l-.517-.649c.308-.257.66-.473 1.056-.649.403-.183.854-.275 1.353-.275.733 0 1.313.187 1.738.561.425.367.638.876.638 1.529 0 .411-.084.796-.253 1.155s-.403.715-.704 1.067c-.301.345-.653.715-1.056 1.111l-1.639 1.617v.044h3.971zm6.328-3.938c0 .843-.088 1.569-.264 2.178-.176.601-.455 1.063-.836 1.386s-.887.484-1.518.484c-.887 0-1.544-.356-1.969-1.067-.418-.719-.627-1.712-.627-2.981 0-.851.084-1.577.253-2.178.176-.601.455-1.06.836-1.375.381-.323.884-.484 1.507-.484.88 0 1.536.356 1.969 1.067.433.704.649 1.694.649 2.97zm-4.246 0c0 1.078.121 1.885.363 2.42.249.535.671.803 1.265.803.587 0 1.005-.264 1.254-.792.257-.535.385-1.346.385-2.431 0-1.071-.128-1.874-.385-2.409-.249-.535-.667-.803-1.254-.803-.594 0-1.016.268-1.265.803-.242.535-.363 1.338-.363 2.409zm8.693 3.938h-.946v-5.489c0-.315.004-.568.011-.759s.018-.389.033-.594c-.117.117-.224.216-.319.297s-.216.183-.363.308l-.836.682-.506-.649 2.123-1.65h.803zm7.813-6.017c0 .528-.147.95-.44 1.265-.294.308-.69.513-1.188.616v.044c.63.073 1.1.271 1.408.594s.462.744.462 1.265c0 .455-.107.862-.319 1.221-.213.352-.543.627-.99.825-.44.198-1.009.297-1.705.297-.411 0-.792-.033-1.144-.099-.352-.059-.69-.169-1.012-.33v-.902c.33.161.685.29 1.067.385.381.088.748.132 1.1.132.704 0 1.21-.136 1.518-.407.315-.279.473-.66.473-1.144 0-.491-.195-.843-.583-1.056-.382-.22-.921-.33-1.617-.33h-.759v-.825h.77c.645 0 1.133-.136 1.463-.407.337-.271.506-.631.506-1.078 0-.381-.129-.675-.385-.88-.257-.213-.605-.319-1.045-.319-.426 0-.789.062-1.089.187-.301.125-.598.282-.891.473l-.484-.66c.278-.22.623-.411 1.034-.572.418-.161.891-.242 1.419-.242.821 0 1.43.183 1.826.55.403.367.605.832.605 1.397z"/><path d="m187.72 312h-5.192v-.803l2.057-2.079c.396-.396.73-.748 1.001-1.056s.477-.609.616-.902c.139-.301.209-.627.209-.979 0-.433-.128-.759-.385-.979-.257-.227-.59-.341-1.001-.341-.381 0-.719.066-1.012.198-.286.132-.579.315-.88.55l-.517-.649c.308-.257.66-.473 1.056-.649.403-.183.854-.275 1.353-.275.733 0 1.313.187 1.738.561.425.367.638.876.638 1.529 0 .411-.084.796-.253 1.155s-.403.715-.704 1.067c-.301.345-.653.715-1.056 1.111l-1.639 1.617v.044h3.971zm6.328-3.938c0 .843-.088 1.569-.264 2.178-.176.601-.455 1.063-.836 1.386s-.887.484-1.518.484c-.887 0-1.544-.356-1.969-1.067-.418-.719-.627-1.712-.627-2.981 0-.851.084-1.577.253-2.178.176-.601.455-1.06.836-1.375.381-.323.884-.484 1.507-.484.88 0 1.536.356 1.969 1.067.433.704.649 1.694.649 2.97zm-4.246 0c0 1.078.121 1.885.363 2.42.249.535.671.803 1.265.803.587 0 1.005-.264 1.254-.792.257-.535.385-1.346.385-2.431 0-1.071-.128-1.874-.385-2.409-.249-.535-.667-.803-1.254-.803-.594 0-1.016.268-1.265.803-.242.535-.363 1.338-.363 2.409zm8.693 3.938h-.946v-5.489c0-.315.004-.568.011-.759s.018-.389.033-.594c-.117.117-.224.216-.319.297s-.216.183-.363.308l-.836.682-.506-.649 2.123-1.65h.803zm8.462-1.782h-1.144v1.782h-.935v-1.782h-3.762v-.825l3.696-5.291h1.001v5.247h1.144zm-2.079-3.344c0-.381.007-.704.022-.968.014-.271.025-.528.033-.77h-.044c-.059.139-.132.29-.22.451s-.173.297-.253.407l-2.354 3.355h2.816z"/><path d="m232.72 312h-5.192v-.803l2.057-2.079c.396-.396.73-.748 1.001-1.056s.477-.609.616-.902c.139-.301.209-.627.209-.979 0-.433-.128-.759-.385-.979-.257-.227-.59-.341-1.001-.341-.381 0-.719.066-1.012.198-.286.132-.579.315-.88.55l-.517-.649c.308-.257.66-.473 1.056-.649.403-.183.854-.275 1.353-.275.733 0 1.313.187 1.738.561.425.367.638.876.638 1.529 0 .411-.084.796-.253 1.155s-.403.715-.704 1.067c-.301.345-.653.715-1.056 1.111l-1.639 1.617v.044h3.971zm6.328-3.938c0 .843-.088 1.569-.264 2.178-.176.601-.455 1.063-.836 1.386s-.887.484-1.518.484c-.887 0-1.544-.356-1.969-1.067-.418-.719-.627-1.712-.627-2.981 0-.851.084-1.577.253-2.178.176-.601.455-1.06.836-1.375.381-.323.884-.484 1.507-.484.88 0 1.536.356 1.969 1.067.433.704.649 1.694.649 2.97zm-4.246 0c0 1.078.121 1.885.363 2.42.249.535.671.803 1.265.803.587 0 1.005-.264 1.254-.792.257-.535.385-1.346.385-2.431 0-1.071-.128-1.874-.385-2.409-.249-.535-.667-.803-1.254-.803-.594 0-1.016.268-1.265.803-.242.535-.363 1.338-.363 2.409zm8.693 3.938h-.946v-5.489c0-.315.004-.568.011-.759s.018-.389.033-.594c-.117.117-.224.216-.319.297s-.216.183-.363.308l-.836.682-.506-.649 2.123-1.65h.803zm5.415-4.818c.806 0 1.448.202 1.925.605.476.403.715.972.715 1.705 0 .814-.261 1.456-.781 1.925-.514.462-1.232.693-2.156.693-.404 0-.785-.037-1.144-.11-.352-.073-.649-.18-.891-.319v-.913c.264.161.583.29.957.385.381.088.744.132 1.089.132.579 0 1.045-.136 1.397-.407.359-.279.539-.708.539-1.287 0-.513-.158-.906-.473-1.177-.316-.279-.814-.418-1.496-.418-.206 0-.44.018-.704.055s-.477.073-.638.11l-.484-.308.297-3.707h3.938v.88h-3.113l-.187 2.277c.124-.022.293-.048.506-.077.212-.029.447-.044.704-.044z"/><path d="m277.72 312h-5.192v-.803l2.057-2.079c.396-.396.73-.748 1.001-1.056s.477-.609.616-.902c.139-.301.209-.627.209-.979 0-.433-.128-.759-.385-.979-.257-.227-.59-.341-1.001-.341-.381 0-.719.066-1.012.198-.286.132-.579.315-.88.55l-.517-.649c.308-.257.66-.473 1.056-.649.403-.183.854-.275 1.353-.275.733 0 1.313.187 1.738.561.425.367.638.876.638 1.529 0 .411-.084.796-.253 1.155s-.403.715-.704 1.067c-.301.345-.653.715-1.056 1.111l-1.639 1.617v.044h3.971zm6.328-3.938c0 .843-.088 1.569-.264 2.178-.176.601-.455 1.063-.836 1.386s-.887.484-1.518.484c-.887 0-1.544-.356-1.969-1.067-.418-.719-.627-1.712-.627-2.981 0-.851.084-1.577.253-2.178.176-.601.455-1.06.836-1.375.381-.323.884-.484 1.507-.484.88 0 1.536.356 1.969 1.067.433.704.649 1.694.649 2.97zm-4.246 0c0 1.078.121 1.885.363 2.42.249.535.671.803 1.265.803.587 0 1.005-.264 1.254-.792.257-.535.385-1.346.385-2.431 0-1.071-.128-1.874-.385-2.409-.249-.535-.667-.803-1.254-.803-.594 0-1.016.268-1.265.803-.242.535-.363 1.338-.363 2.409zm8.693 3.938h-.946v-5.489c0-.315.004-.568.011-.759s.018-.389.033-.594c-.117.117-.224.216-.319.297s-.216.183-.363.308l-.836.682-.506-.649 2.123-1.65h.803zm2.995-3.355c0-.565.047-1.118.143-1.661.102-.55.282-1.045.539-1.485.264-.447.63-.803 1.1-1.067.469-.264 1.074-.396 1.815-.396.154 0 .322.007.506.022.19.015.344.04.462.077v.825c-.132-.044-.283-.077-.451-.099-.162-.022-.327-.033-.495-.033-.506 0-.928.084-1.265.253-.338.169-.605.4-.803.693-.191.293-.33.631-.418 1.012s-.143.788-.165 1.221h.066c.168-.257.403-.473.704-.649.3-.183.685-.275 1.155-.275.682 0 1.232.209 1.65.627.418.411.627.997.627 1.76 0 .821-.228 1.467-.682 1.936-.448.469-1.053.704-1.815.704-.499 0-.95-.125-1.353-.374-.404-.249-.726-.631-.968-1.144-.235-.513-.352-1.162-.352-1.947zm2.662 2.651c.462 0 .836-.147 1.122-.44.286-.301.429-.763.429-1.386 0-.499-.129-.895-.385-1.188-.25-.293-.627-.44-1.133-.44-.345 0-.646.073-.902.22-.257.139-.459.319-.605.539-.14.22-.209.447-.209.682 0 .315.062.631.187.946.124.308.311.565.561.77.249.198.561.297.935.297z"/><path d="m322.72 312h-5.192v-.803l2.057-2.079c.396-.396.73-.748 1.001-1.056s.477-.609.616-.902c.139-.301.209-.627.209-.979 0-.433-.128-.759-.385-.979-.257-.227-.59-.341-1.001-.341-.381 0-.719.066-1.012.198-.286.132-.579.315-.88.55l-.517-.649c.308-.257.66-.473 1.056-.649.403-.183.854-.275 1.353-.275.733 0 1.313.187 1.738.561.425.367.638.876.638 1.529 0 .411-.084.796-.253 1.155s-.403.715-.704 1.067c-.301.345-.653.715-1.056 1.111l-1.639 1.617v.044h3.971zm6.328-3.938c0 .843-.088 1.569-.264 2.178-.176.601-.455 1.063-.836 1.386s-.887.484-1.518.484c-.887 0-1.544-.356-1.969-1.067-.418-.719-.627-1.712-.627-2.981 0-.851.084-1.577.253-2.178.176-.601.455-1.06.836-1.375.381-.323.884-.484 1.507-.484.88 0 1.536.356 1.969 1.067.433.704.649 1.694.649 2.97zm-4.246 0c0 1.078.121 1.885.363 2.42.249.535.671.803 1.265.803.587 0 1.005-.264 1.254-.792.257-.535.385-1.346.385-2.431 0-1.071-.128-1.874-.385-2.409-.249-.535-.667-.803-1.254-.803-.594 0-1.016.268-1.265.803-.242.535-.363 1.338-.363 2.409zm8.693 3.938h-.946v-5.489c0-.315.004-.568.011-.759s.018-.389.033-.594c-.117.117-.224.216-.319.297s-.216.183-.363.308l-.836.682-.506-.649 2.123-1.65h.803zm3.886 0 3.223-6.974h-4.235v-.88h5.269v.748l-3.19 7.106z"/><path d="m367.72 312h-5.192v-.803l2.057-2.079c.396-.396.73-.748 1.001-1.056s.477-.609.616-.902c.139-.301.209-.627.209-.979 0-.433-.128-.759-.385-.979-.257-.227-.59-.341-1.001-.341-.381 0-.719.066-1.012.198-.286.132-.579.315-.88.55l-.517-.649c.308-.257.66-.473 1.056-.649.403-.183.854-.275 1.353-.275.733 0 1.313.187 1.738.561.425.367.638.876.638 1.529 0 .411-.084.796-.253 1.155s-.403.715-.704 1.067c-.301.345-.653.715-1.056 1.111l-1.639 1.617v.044h3.971zm6.328-3.938c0 .843-.088 1.569-.264 2.178-.176.601-.455 1.063-.836 1.386s-.887.484-1.518.484c-.887 0-1.544-.356-1.969-1.067-.418-.719-.627-1.712-.627-2.981 0-.851.084-1.577.253-2.178.176-.601.455-1.06.836-1.375.381-.323.884-.484 1.507-.484.88 0 1.536.356 1.969 1.067.433.704.649 1.694.649 2.97zm-4.246 0c0 1.078.121 1.885.363 2.42.249.535.671.803 1.265.803.587 0 1.005-.264 1.254-.792.257-.535.385-1.346.385-2.431 0-1.071-.128-1.874-.385-2.409-.249-.535-.667-.803-1.254-.803-.594 0-1.016.268-1.265.803-.242.535-.363 1.338-.363 2.409zm8.693 3.938h-.946v-5.489c0-.315.004-.568.011-.759s.018-.389.033-.594c-.117.117-.224.216-.319.297s-.216.183-.363.308l-.836.682-.506-.649 2.123-1.65h.803zm5.525-7.964c.689 0 1.254.161 1.694.484s.66.788.66 1.397c0 .315-.07.59-.209.825-.132.235-.312.444-.539.627-.228.176-.477.334-.748.473.322.154.616.33.88.528.264.191.473.414.627.671.161.257.242.565.242.924 0 .66-.235 1.184-.704 1.573-.462.381-1.086.572-1.87.572-.844 0-1.493-.183-1.947-.55-.455-.374-.682-.895-.682-1.562 0-.359.073-.671.22-.935.154-.264.355-.491.605-.682.249-.191.517-.352.803-.484-.382-.22-.708-.484-.979-.792-.264-.315-.396-.715-.396-1.199 0-.403.102-.741.308-1.012.205-.279.484-.491.836-.638s.751-.22 1.199-.22zm-.011.781c-.404 0-.737.099-1.001.297-.257.191-.385.469-.385.836 0 .271.062.499.187.682.132.183.308.341.528.473.22.125.462.246.726.363.381-.161.7-.356.957-.583.264-.227.396-.539.396-.935 0-.367-.129-.645-.385-.836-.257-.198-.598-.297-1.023-.297zm-1.639 5.192c0 .381.135.7.407.957.271.249.689.374 1.254.374.535 0 .942-.125 1.221-.374.286-.257.429-.587.429-.99 0-.381-.151-.697-.451-.946-.301-.257-.701-.48-1.199-.671l-.176-.066c-.484.205-.855.444-1.111.715-.25.264-.374.598-.374 1.001z"/><path d="m412.72 312h-5.192v-.803l2.057-2.079c.396-.396.73-.748 1.001-1.056s.477-.609.616-.902c.139-.301.209-.627.209-.979 0-.433-.128-.759-.385-.979-.257-.227-.59-.341-1.001-.341-.381 0-.719.066-1.012.198-.286.132-.579.315-.88.55l-.517-.649c.308-.257.66-.473 1.056-.649.403-.183.854-.275 1.353-.275.733 0 1.313.187 1.738.561.425.367.638.876.638 1.529 0 .411-.084.796-.253 1.155s-.403.715-.704 1.067c-.301.345-.653.715-1.056 1.111l-1.639 1.617v.044h3.971zm6.328-3.938c0 .843-.088 1.569-.264 2.178-.176.601-.455 1.063-.836 1.386s-.887.484-1.518.484c-.887 0-1.544-.356-1.969-1.067-.418-.719-.627-1.712-.627-2.981 0-.851.084-1.577.253-2.178.176-.601.455-1.06.836-1.375.381-.323.884-.484 1.507-.484.88 0 1.536.356 1.969 1.067.433.704.649 1.694.649 2.97zm-4.246 0c0 1.078.121 1.885.363 2.42.249.535.671.803 1.265.803.587 0 1.005-.264 1.254-.792.257-.535.385-1.346.385-2.431 0-1.071-.128-1.874-.385-2.409-.249-.535-.667-.803-1.254-.803-.594 0-1.016.268-1.265.803-.242.535-.363 1.338-.363 2.409zm8.693 3.938h-.946v-5.489c0-.315.004-.568.011-.759s.018-.389.033-.594c-.117.117-.224.216-.319.297s-.216.183-.363.308l-.836.682-.506-.649 2.123-1.65h.803zm8.11-4.499c0 .565-.052 1.122-.154 1.672-.096.543-.275 1.038-.539 1.485-.257.44-.624.792-1.1 1.056-.47.264-1.075.396-1.815.396-.147 0-.319-.011-.517-.033-.191-.015-.349-.04-.473-.077v-.825c.286.095.608.143.968.143.513 0 .935-.084 1.265-.253.337-.169.605-.396.803-.682.198-.293.341-.631.429-1.012.088-.389.139-.796.154-1.221h-.066c-.162.249-.396.466-.704.649-.301.176-.69.264-1.166.264-.675 0-1.221-.205-1.639-.616-.411-.418-.616-1.005-.616-1.76 0-.55.102-1.023.308-1.419.212-.396.506-.7.88-.913s.814-.319 1.32-.319c.498 0 .949.128 1.353.385.403.249.722.631.957 1.144.234.506.352 1.151.352 1.936zm-2.662-2.651c-.455 0-.829.15-1.122.451-.286.301-.429.759-.429 1.375 0 .506.121.906.363 1.199.249.286.63.429 1.144.429.352 0 .656-.07.913-.209.256-.147.454-.33.594-.55.146-.22.22-.447.22-.682 0-.315-.063-.627-.187-.935-.125-.308-.312-.565-.561-.77-.25-.205-.561-.308-.935-.308z"/><path d="m457.72 312h-5.192v-.803l2.057-2.079c.396-.396.73-.748 1.001-1.056s.477-.609.616-.902c.139-.301.209-.627.209-.979 0-.433-.128-.759-.385-.979-.257-.227-.59-.341-1.001-.341-.381 0-.719.066-1.012.198-.286.132-.579.315-.88.55l-.517-.649c.308-.257.66-.473 1.056-.649.403-.183.854-.275 1.353-.275.733 0 1.313.187 1.738.561.425.367.638.876.638 1.529 0 .411-.084.796-.253 1.155s-.403.715-.704 1.067c-.301.345-.653.715-1.056 1.111l-1.639 1.617v.044h3.971zm6.328-3.938c0 .843-.088 1.569-.264 2.178-.176.601-.455 1.063-.836 1.386s-.887.484-1.518.484c-.887 0-1.544-.356-1.969-1.067-.418-.719-.627-1.712-.627-2.981 0-.851.084-1.577.253-2.178.176-.601.455-1.06.836-1.375.381-.323.884-.484 1.507-.484.88 0 1.536.356 1.969 1.067.433.704.649 1.694.649 2.97zm-4.246 0c0 1.078.121 1.885.363 2.42.249.535.671.803 1.265.803.587 0 1.005-.264 1.254-.792.257-.535.385-1.346.385-2.431 0-1.071-.128-1.874-.385-2.409-.249-.535-.667-.803-1.254-.803-.594 0-1.016.268-1.265.803-.242.535-.363 1.338-.363 2.409zm10.508 3.938h-5.192v-.803l2.057-2.079c.396-.396.73-.748 1.001-1.056s.477-.609.616-.902c.139-.301.209-.627.209-.979 0-.433-.128-.759-.385-.979-.257-.227-.59-.341-1.001-.341-.381 0-.719.066-1.012.198-.286.132-.579.315-.88.55l-.517-.649c.308-.257.66-.473 1.056-.649.403-.183.854-.275 1.353-.275.733 0 1.313.187 1.738.561.425.367.638.876.638 1.529 0 .411-.084.796-.253 1.155s-.403.715-.704 1.067c-.301.345-.653.715-1.056 1.111l-1.639 1.617v.044h3.971zm6.328-3.938c0 .843-.088 1.569-.264 2.178-.176.601-.455 1.063-.836 1.386-.382.323-.888.484-1.518.484-.888 0-1.544-.356-1.969-1.067-.418-.719-.627-1.712-.627-2.981 0-.851.084-1.577.253-2.178.176-.601.454-1.06.836-1.375.381-.323.883-.484 1.507-.484.88 0 1.536.356 1.969 1.067.432.704.649 1.694.649 2.97zm-4.246 0c0 1.078.121 1.885.363 2.42.249.535.671.803 1.265.803.586 0 1.004-.264 1.254-.792.256-.535.385-1.346.385-2.431 0-1.071-.129-1.874-.385-2.409-.25-.535-.668-.803-1.254-.803-.594 0-1.016.268-1.265.803-.242.535-.363 1.338-.363 2.409z"/></g><g fill="#293243"><path d="m53.2842 243.372h-.946v1.628h-1.617v-1.628h-3.355v-1.155l3.443-5.071h1.529v4.939h.946zm-2.563-2.618c0-.169.0037-.374.011-.616s.0147-.466.022-.671c.0147-.213.0257-.352.033-.418h-.044c-.066.147-.1357.29-.209.429s-.1613.282-.264.429l-1.441 2.178h1.892zm3.3799 3.476c0-.337.0917-.572.275-.704.1834-.139.407-.209.671-.209.2567 0 .4767.07.66.209.1834.132.275.367.275.704 0 .323-.0916.557-.275.704-.1833.139-.4033.209-.66.209-.264 0-.4876-.07-.671-.209-.1833-.147-.275-.381-.275-.704zm8.4057-3.729c0 .447-.033.895-.099 1.342-.066.44-.1833.858-.352 1.254-.1613.389-.3923.737-.693 1.045-.2933.301-.671.539-1.133.715-.4546.169-1.0083.253-1.661.253-.154 0-.3336-.007-.539-.022-.2053-.007-.3776-.026-.517-.055v-1.331c.1467.029.3007.055.462.077.1614.022.3227.033.484.033.6527 0 1.155-.103 1.507-.308.3594-.213.6124-.502.759-.869.1467-.367.231-.792.253-1.276h-.066c-.154.257-.3593.473-.616.649-.2493.176-.6233.264-1.122.264-.6673 0-1.2026-.216-1.606-.649-.4033-.433-.605-1.045-.605-1.837 0-.851.2384-1.518.715-2.002.484-.484 1.1367-.726 1.958-.726.5354 0 1.0194.125 1.452.374.4327.242.7774.62 1.034 1.133.2567.506.385 1.151.385 1.936zm-2.838-2.112c-.3226 0-.5866.11-.792.33-.2053.22-.308.568-.308 1.045 0 .381.088.682.264.902s.4437.33.803.33c.2494 0 .462-.055.638-.165.1834-.11.3264-.246.429-.407.1027-.169.154-.341.154-.517 0-.242-.044-.48-.132-.715s-.22-.425-.396-.572c-.176-.154-.396-.231-.66-.231zm5.426-1.353c.616 0 1.0816.216 1.397.649.3226.425.484 1.027.484 1.804s-.1504 1.386-.451 1.826c-.3007.433-.7774.649-1.43.649-.6014 0-1.0597-.216-1.375-.649-.3154-.44-.473-1.049-.473-1.826s.1466-1.379.44-1.804c.2933-.433.7626-.649 1.408-.649zm5.577.11-4.356 7.854h-1.287l4.356-7.854zm-5.566 1.012c-.3374 0-.506.447-.506 1.342 0 .902.1686 1.353.506 1.353.3446 0 .517-.451.517-1.353 0-.895-.1724-1.342-.517-1.342zm5.489 2.013c.616 0 1.0816.216 1.397.649.3226.425.484 1.027.484 1.804s-.1504 1.386-.451 1.826c-.3007.433-.7774.649-1.43.649-.6014 0-1.0597-.216-1.375-.649-.3154-.44-.473-1.049-.473-1.826s.1466-1.379.44-1.804c.2933-.433.7626-.649 1.408-.649zm.011 1.122c-.3374 0-.506.447-.506 1.342 0 .902.1686 1.353.506 1.353.3446 0 .517-.451.517-1.353 0-.895-.1724-1.342-.517-1.342z"/><path d="m97.8002 246.906c0 .543-.165.975-.495 1.298-.3227.323-.7223.543-1.199.66v.033c.6307.073 1.1073.264 1.43.572.33.308.495.722.495 1.243 0 .455-.1137.865-.341 1.232-.22.359-.5647.645-1.034.858-.462.205-1.0597.308-1.793.308-.8507 0-1.606-.143-2.266-.429v-1.408c.3373.169.6893.297 1.056.385.374.088.7187.132 1.034.132.594 0 1.0083-.103 1.243-.308.242-.205.363-.495.363-.869 0-.22-.055-.403-.165-.55-.11-.154-.3043-.268-.583-.341-.2713-.081-.6527-.121-1.144-.121h-.594v-1.276h.605c.484 0 .8507-.044 1.1-.132.2567-.095.429-.22.517-.374.0953-.161.143-.345.143-.55 0-.279-.088-.495-.264-.649-.1687-.161-.4547-.242-.858-.242-.374 0-.7003.066-.979.198-.2713.125-.5023.249-.693.374l-.77-1.144c.308-.22.6673-.403 1.078-.55.418-.147.913-.22 1.485-.22.8067 0 1.4447.165 1.914.495.4767.323.715.781.715 1.375zm1.3009 5.324c0-.337.0917-.572.275-.704.1834-.139.407-.209.6709-.209.257 0 .477.07.66.209.183.132.275.367.275.704 0 .323-.092.557-.275.704-.183.139-.403.209-.66.209-.2639 0-.4875-.07-.6709-.209-.1833-.147-.275-.381-.275-.704zm8.4059-3.729c0 .447-.033.895-.099 1.342-.066.44-.183.858-.352 1.254-.161.389-.392.737-.693 1.045-.293.301-.671.539-1.133.715-.455.169-1.008.253-1.661.253-.154 0-.334-.007-.539-.022-.205-.007-.378-.026-.517-.055v-1.331c.147.029.301.055.462.077s.323.033.484.033c.653 0 1.155-.103 1.507-.308.359-.213.612-.502.759-.869s.231-.792.253-1.276h-.066c-.154.257-.359.473-.616.649-.249.176-.623.264-1.122.264-.667 0-1.203-.216-1.606-.649s-.605-1.045-.605-1.837c0-.851.238-1.518.715-2.002.484-.484 1.137-.726 1.958-.726.535 0 1.019.125 1.452.374.433.242.777.62 1.034 1.133.257.506.385 1.151.385 1.936zm-2.838-2.112c-.323 0-.587.11-.792.33s-.308.568-.308 1.045c0 .381.088.682.264.902s.444.33.803.33c.249 0 .462-.055.638-.165.183-.11.326-.246.429-.407.103-.169.154-.341.154-.517 0-.242-.044-.48-.132-.715s-.22-.425-.396-.572c-.176-.154-.396-.231-.66-.231zm5.426-1.353c.616 0 1.081.216 1.397.649.322.425.484 1.027.484 1.804s-.151 1.386-.451 1.826c-.301.433-.778.649-1.43.649-.602 0-1.06-.216-1.375-.649-.316-.44-.473-1.049-.473-1.826s.146-1.379.44-1.804c.293-.433.762-.649 1.408-.649zm5.577.11-4.356 7.854h-1.287l4.356-7.854zm-5.566 1.012c-.338 0-.506.447-.506 1.342 0 .902.168 1.353.506 1.353.344 0 .517-.451.517-1.353 0-.895-.173-1.342-.517-1.342zm5.489 2.013c.616 0 1.081.216 1.397.649.322.425.484 1.027.484 1.804s-.151 1.386-.451 1.826c-.301.433-.778.649-1.43.649-.602 0-1.06-.216-1.375-.649-.316-.44-.473-1.049-.473-1.826s.146-1.379.44-1.804c.293-.433.762-.649 1.408-.649zm.011 1.122c-.338 0-.506.447-.506 1.342 0 .902.168 1.353.506 1.353.344 0 .517-.451.517-1.353 0-.895-.173-1.342-.517-1.342z"/><path d="m142.8 254.906c0 .543-.165.975-.495 1.298-.322.323-.722.543-1.199.66v.033c.631.073 1.108.264 1.43.572.33.308.495.722.495 1.243 0 .455-.113.865-.341 1.232-.22.359-.564.645-1.034.858-.462.205-1.059.308-1.793.308-.85 0-1.606-.143-2.266-.429v-1.408c.338.169.69.297 1.056.385.374.088.719.132 1.034.132.594 0 1.009-.103 1.243-.308.242-.205.363-.495.363-.869 0-.22-.055-.403-.165-.55-.11-.154-.304-.268-.583-.341-.271-.081-.652-.121-1.144-.121h-.594v-1.276h.605c.484 0 .851-.044 1.1-.132.257-.095.429-.22.517-.374.096-.161.143-.345.143-.55 0-.279-.088-.495-.264-.649-.168-.161-.454-.242-.858-.242-.374 0-.7.066-.979.198-.271.125-.502.249-.693.374l-.77-1.144c.308-.22.668-.403 1.078-.55.418-.147.913-.22 1.485-.22.807 0 1.445.165 1.914.495.477.323.715.781.715 1.375zm1.301 5.324c0-.337.092-.572.275-.704.183-.139.407-.209.671-.209.257 0 .477.07.66.209.183.132.275.367.275.704 0 .323-.092.557-.275.704-.183.139-.403.209-.66.209-.264 0-.488-.07-.671-.209-.183-.147-.275-.381-.275-.704zm8.395-3.157c0 .843-.092 1.566-.275 2.167-.176.601-.466 1.063-.869 1.386-.396.323-.931.484-1.606.484-.946 0-1.639-.356-2.079-1.067-.44-.719-.66-1.709-.66-2.97 0-.851.088-1.577.264-2.178s.466-1.063.869-1.386.939-.484 1.606-.484c.939 0 1.632.356 2.079 1.067s.671 1.705.671 2.981zm-3.839 0c0 .895.077 1.569.231 2.024.154.447.44.671.858.671.411 0 .697-.224.858-.671s.242-1.122.242-2.024c0-.895-.081-1.569-.242-2.024s-.447-.682-.858-.682c-.418 0-.704.227-.858.682s-.231 1.129-.231 2.024zm6.438-4.037c.616 0 1.081.216 1.397.649.322.425.484 1.027.484 1.804s-.151 1.386-.451 1.826c-.301.433-.778.649-1.43.649-.602 0-1.06-.216-1.375-.649-.316-.44-.473-1.049-.473-1.826s.146-1.379.44-1.804c.293-.433.762-.649 1.408-.649zm5.577.11-4.356 7.854h-1.287l4.356-7.854zm-5.566 1.012c-.338 0-.506.447-.506 1.342 0 .902.168 1.353.506 1.353.344 0 .517-.451.517-1.353 0-.895-.173-1.342-.517-1.342zm5.489 2.013c.616 0 1.081.216 1.397.649.322.425.484 1.027.484 1.804s-.151 1.386-.451 1.826c-.301.433-.778.649-1.43.649-.602 0-1.06-.216-1.375-.649-.316-.44-.473-1.049-.473-1.826s.146-1.379.44-1.804c.293-.433.762-.649 1.408-.649zm.011 1.122c-.338 0-.506.447-.506 1.342 0 .902.168 1.353.506 1.353.344 0 .517-.451.517-1.353 0-.895-.173-1.342-.517-1.342z"/><path d="m188.284 248.372h-.946v1.628h-1.617v-1.628h-3.355v-1.155l3.443-5.071h1.529v4.939h.946zm-2.563-2.618c0-.169.004-.374.011-.616.008-.242.015-.466.022-.671.015-.213.026-.352.033-.418h-.044c-.066.147-.135.29-.209.429-.073.139-.161.282-.264.429l-1.441 2.178h1.892zm3.38 3.476c0-.337.092-.572.275-.704.183-.139.407-.209.671-.209.257 0 .477.07.66.209.183.132.275.367.275.704 0 .323-.092.557-.275.704-.183.139-.403.209-.66.209-.264 0-.488-.07-.671-.209-.183-.147-.275-.381-.275-.704zm8.131-5.324c0 .543-.165.975-.495 1.298-.323.323-.722.543-1.199.66v.033c.631.073 1.107.264 1.43.572.33.308.495.722.495 1.243 0 .455-.114.865-.341 1.232-.22.359-.565.645-1.034.858-.462.205-1.06.308-1.793.308-.851 0-1.606-.143-2.266-.429v-1.408c.337.169.689.297 1.056.385.374.088.719.132 1.034.132.594 0 1.008-.103 1.243-.308.242-.205.363-.495.363-.869 0-.22-.055-.403-.165-.55-.11-.154-.304-.268-.583-.341-.271-.081-.653-.121-1.144-.121h-.594v-1.276h.605c.484 0 .851-.044 1.1-.132.257-.095.429-.22.517-.374.095-.161.143-.345.143-.55 0-.279-.088-.495-.264-.649-.169-.161-.455-.242-.858-.242-.374 0-.7.066-.979.198-.271.125-.502.249-.693.374l-.77-1.144c.308-.22.667-.403 1.078-.55.418-.147.913-.22 1.485-.22.807 0 1.445.165 1.914.495.477.323.715.781.715 1.375zm2.863-1.87c.616 0 1.081.216 1.397.649.322.425.484 1.027.484 1.804s-.151 1.386-.451 1.826c-.301.433-.778.649-1.43.649-.602 0-1.06-.216-1.375-.649-.316-.44-.473-1.049-.473-1.826s.146-1.379.44-1.804c.293-.433.762-.649 1.408-.649zm5.577.11-4.356 7.854h-1.287l4.356-7.854zm-5.566 1.012c-.338 0-.506.447-.506 1.342 0 .902.168 1.353.506 1.353.344 0 .517-.451.517-1.353 0-.895-.173-1.342-.517-1.342zm5.489 2.013c.616 0 1.081.216 1.397.649.322.425.484 1.027.484 1.804s-.151 1.386-.451 1.826c-.301.433-.778.649-1.43.649-.602 0-1.06-.216-1.375-.649-.316-.44-.473-1.049-.473-1.826s.146-1.379.44-1.804c.293-.433.762-.649 1.408-.649zm.011 1.122c-.338 0-.506.447-.506 1.342 0 .902.168 1.353.506 1.353.344 0 .517-.451.517-1.353 0-.895-.173-1.342-.517-1.342z"/><path d="m232.8 246.906c0 .543-.165.975-.495 1.298-.322.323-.722.543-1.199.66v.033c.631.073 1.108.264 1.43.572.33.308.495.722.495 1.243 0 .455-.113.865-.341 1.232-.22.359-.564.645-1.034.858-.462.205-1.059.308-1.793.308-.85 0-1.606-.143-2.266-.429v-1.408c.338.169.69.297 1.056.385.374.088.719.132 1.034.132.594 0 1.009-.103 1.243-.308.242-.205.363-.495.363-.869 0-.22-.055-.403-.165-.55-.11-.154-.304-.268-.583-.341-.271-.081-.652-.121-1.144-.121h-.594v-1.276h.605c.484 0 .851-.044 1.1-.132.257-.095.429-.22.517-.374.096-.161.143-.345.143-.55 0-.279-.088-.495-.264-.649-.168-.161-.454-.242-.858-.242-.374 0-.7.066-.979.198-.271.125-.502.249-.693.374l-.77-1.144c.308-.22.668-.403 1.078-.55.418-.147.913-.22 1.485-.22.807 0 1.445.165 1.914.495.477.323.715.781.715 1.375zm1.301 5.324c0-.337.092-.572.275-.704.183-.139.407-.209.671-.209.257 0 .477.07.66.209.183.132.275.367.275.704 0 .323-.092.557-.275.704-.183.139-.403.209-.66.209-.264 0-.488-.07-.671-.209-.183-.147-.275-.381-.275-.704zm8.406-3.729c0 .447-.033.895-.099 1.342-.066.44-.183.858-.352 1.254-.161.389-.392.737-.693 1.045-.293.301-.671.539-1.133.715-.455.169-1.008.253-1.661.253-.154 0-.334-.007-.539-.022-.205-.007-.378-.026-.517-.055v-1.331c.147.029.301.055.462.077s.323.033.484.033c.653 0 1.155-.103 1.507-.308.359-.213.612-.502.759-.869s.231-.792.253-1.276h-.066c-.154.257-.359.473-.616.649-.249.176-.623.264-1.122.264-.667 0-1.203-.216-1.606-.649s-.605-1.045-.605-1.837c0-.851.238-1.518.715-2.002.484-.484 1.137-.726 1.958-.726.535 0 1.019.125 1.452.374.433.242.777.62 1.034 1.133.257.506.385 1.151.385 1.936zm-2.838-2.112c-.323 0-.587.11-.792.33s-.308.568-.308 1.045c0 .381.088.682.264.902s.444.33.803.33c.249 0 .462-.055.638-.165.183-.11.326-.246.429-.407.103-.169.154-.341.154-.517 0-.242-.044-.48-.132-.715s-.22-.425-.396-.572c-.176-.154-.396-.231-.66-.231zm5.426-1.353c.616 0 1.081.216 1.397.649.322.425.484 1.027.484 1.804s-.151 1.386-.451 1.826c-.301.433-.778.649-1.43.649-.602 0-1.06-.216-1.375-.649-.316-.44-.473-1.049-.473-1.826s.146-1.379.44-1.804c.293-.433.762-.649 1.408-.649zm5.577.11-4.356 7.854h-1.287l4.356-7.854zm-5.566 1.012c-.338 0-.506.447-.506 1.342 0 .902.168 1.353.506 1.353.344 0 .517-.451.517-1.353 0-.895-.173-1.342-.517-1.342zm5.489 2.013c.616 0 1.081.216 1.397.649.322.425.484 1.027.484 1.804s-.151 1.386-.451 1.826c-.301.433-.778.649-1.43.649-.602 0-1.06-.216-1.375-.649-.316-.44-.473-1.049-.473-1.826s.146-1.379.44-1.804c.293-.433.762-.649 1.408-.649zm.011 1.122c-.338 0-.506.447-.506 1.342 0 .902.168 1.353.506 1.353.344 0 .517-.451.517-1.353 0-.895-.173-1.342-.517-1.342z"/><path d="m275.8 254.906c0 .543-.165.975-.495 1.298-.322.323-.722.543-1.199.66v.033c.631.073 1.108.264 1.43.572.33.308.495.722.495 1.243 0 .455-.113.865-.341 1.232-.22.359-.564.645-1.034.858-.462.205-1.059.308-1.793.308-.85 0-1.606-.143-2.266-.429v-1.408c.338.169.69.297 1.056.385.374.088.719.132 1.034.132.594 0 1.009-.103 1.243-.308.242-.205.363-.495.363-.869 0-.22-.055-.403-.165-.55-.11-.154-.304-.268-.583-.341-.271-.081-.652-.121-1.144-.121h-.594v-1.276h.605c.484 0 .851-.044 1.1-.132.257-.095.429-.22.517-.374.096-.161.143-.345.143-.55 0-.279-.088-.495-.264-.649-.168-.161-.454-.242-.858-.242-.374 0-.7.066-.979.198-.271.125-.502.249-.693.374l-.77-1.144c.308-.22.668-.403 1.078-.55.418-.147.913-.22 1.485-.22.807 0 1.445.165 1.914.495.477.323.715.781.715 1.375zm1.301 5.324c0-.337.092-.572.275-.704.183-.139.407-.209.671-.209.257 0 .477.07.66.209.183.132.275.367.275.704 0 .323-.092.557-.275.704-.183.139-.403.209-.66.209-.264 0-.488-.07-.671-.209-.183-.147-.275-.381-.275-.704zm8.131-5.324c0 .543-.165.975-.495 1.298-.323.323-.722.543-1.199.66v.033c.631.073 1.107.264 1.43.572.33.308.495.722.495 1.243 0 .455-.114.865-.341 1.232-.22.359-.565.645-1.034.858-.462.205-1.06.308-1.793.308-.851 0-1.606-.143-2.266-.429v-1.408c.337.169.689.297 1.056.385.374.088.719.132 1.034.132.594 0 1.008-.103 1.243-.308.242-.205.363-.495.363-.869 0-.22-.055-.403-.165-.55-.11-.154-.304-.268-.583-.341-.271-.081-.653-.121-1.144-.121h-.594v-1.276h.605c.484 0 .851-.044 1.1-.132.257-.095.429-.22.517-.374.095-.161.143-.345.143-.55 0-.279-.088-.495-.264-.649-.169-.161-.455-.242-.858-.242-.374 0-.7.066-.979.198-.271.125-.502.249-.693.374l-.77-1.144c.308-.22.667-.403 1.078-.55.418-.147.913-.22 1.485-.22.807 0 1.445.165 1.914.495.477.323.715.781.715 1.375zm2.863-1.87c.616 0 1.081.216 1.397.649.322.425.484 1.027.484 1.804s-.151 1.386-.451 1.826c-.301.433-.778.649-1.43.649-.602 0-1.06-.216-1.375-.649-.316-.44-.473-1.049-.473-1.826s.146-1.379.44-1.804c.293-.433.762-.649 1.408-.649zm5.577.11-4.356 7.854h-1.287l4.356-7.854zm-5.566 1.012c-.338 0-.506.447-.506 1.342 0 .902.168 1.353.506 1.353.344 0 .517-.451.517-1.353 0-.895-.173-1.342-.517-1.342zm5.489 2.013c.616 0 1.081.216 1.397.649.322.425.484 1.027.484 1.804s-.151 1.386-.451 1.826c-.301.433-.778.649-1.43.649-.602 0-1.06-.216-1.375-.649-.316-.44-.473-1.049-.473-1.826s.146-1.379.44-1.804c.293-.433.762-.649 1.408-.649zm.011 1.122c-.338 0-.506.447-.506 1.342 0 .902.168 1.353.506 1.353.344 0 .517-.451.517-1.353 0-.895-.173-1.342-.517-1.342z"/><path d="m320.8 246.906c0 .543-.165.975-.495 1.298-.322.323-.722.543-1.199.66v.033c.631.073 1.108.264 1.43.572.33.308.495.722.495 1.243 0 .455-.113.865-.341 1.232-.22.359-.564.645-1.034.858-.462.205-1.059.308-1.793.308-.85 0-1.606-.143-2.266-.429v-1.408c.338.169.69.297 1.056.385.374.088.719.132 1.034.132.594 0 1.009-.103 1.243-.308.242-.205.363-.495.363-.869 0-.22-.055-.403-.165-.55-.11-.154-.304-.268-.583-.341-.271-.081-.652-.121-1.144-.121h-.594v-1.276h.605c.484 0 .851-.044 1.1-.132.257-.095.429-.22.517-.374.096-.161.143-.345.143-.55 0-.279-.088-.495-.264-.649-.168-.161-.454-.242-.858-.242-.374 0-.7.066-.979.198-.271.125-.502.249-.693.374l-.77-1.144c.308-.22.668-.403 1.078-.55.418-.147.913-.22 1.485-.22.807 0 1.445.165 1.914.495.477.323.715.781.715 1.375zm1.301 5.324c0-.337.092-.572.275-.704.183-.139.407-.209.671-.209.257 0 .477.07.66.209.183.132.275.367.275.704 0 .323-.092.557-.275.704-.183.139-.403.209-.66.209-.264 0-.488-.07-.671-.209-.183-.147-.275-.381-.275-.704zm5.656-7.183c.455 0 .869.07 1.243.209.381.139.686.348.913.627.235.279.352.631.352 1.056 0 .469-.136.858-.407 1.166-.264.301-.598.55-1.001.748.279.147.543.319.792.517.257.191.462.418.616.682.161.257.242.561.242.913 0 .433-.117.81-.352 1.133-.227.323-.55.572-.968.748-.411.176-.887.264-1.43.264-.88 0-1.562-.187-2.046-.561-.477-.374-.715-.887-.715-1.54 0-.543.147-.979.44-1.309s.649-.598 1.067-.803c-.352-.22-.653-.484-.902-.792-.242-.315-.363-.708-.363-1.177 0-.418.117-.766.352-1.045s.543-.488.924-.627c.389-.139.803-.209 1.243-.209zm-.011 1.21c-.271 0-.499.07-.682.209-.176.139-.264.337-.264.594 0 .271.095.491.286.66s.414.315.671.44c.249-.117.469-.257.66-.418.191-.169.286-.396.286-.682 0-.257-.092-.455-.275-.594-.176-.139-.403-.209-.682-.209zm-1.21 4.653c0 .286.099.521.297.704.205.183.506.275.902.275.411 0 .719-.088.924-.264s.308-.411.308-.704c0-.198-.059-.37-.176-.517-.117-.154-.264-.29-.44-.407-.169-.125-.345-.238-.528-.341l-.143-.077c-.337.161-.612.348-.825.561s-.319.469-.319.77zm6.559-5.874c.616 0 1.081.216 1.397.649.322.425.484 1.027.484 1.804s-.151 1.386-.451 1.826c-.301.433-.778.649-1.43.649-.602 0-1.06-.216-1.375-.649-.316-.44-.473-1.049-.473-1.826s.146-1.379.44-1.804c.293-.433.762-.649 1.408-.649zm5.577.11-4.356 7.854h-1.287l4.356-7.854zm-5.566 1.012c-.338 0-.506.447-.506 1.342 0 .902.168 1.353.506 1.353.344 0 .517-.451.517-1.353 0-.895-.173-1.342-.517-1.342zm5.489 2.013c.616 0 1.081.216 1.397.649.322.425.484 1.027.484 1.804s-.151 1.386-.451 1.826c-.301.433-.778.649-1.43.649-.602 0-1.06-.216-1.375-.649-.316-.44-.473-1.049-.473-1.826s.146-1.379.44-1.804c.293-.433.762-.649 1.408-.649zm.011 1.122c-.338 0-.506.447-.506 1.342 0 .902.168 1.353.506 1.353.344 0 .517-.451.517-1.353 0-.895-.173-1.342-.517-1.342z"/><path d="m368.284 249.372h-.946v1.628h-1.617v-1.628h-3.355v-1.155l3.443-5.071h1.529v4.939h.946zm-2.563-2.618c0-.169.004-.374.011-.616.008-.242.015-.466.022-.671.015-.213.026-.352.033-.418h-.044c-.066.147-.135.29-.209.429-.073.139-.161.282-.264.429l-1.441 2.178h1.892zm3.38 3.476c0-.337.092-.572.275-.704.183-.139.407-.209.671-.209.257 0 .477.07.66.209.183.132.275.367.275.704 0 .323-.092.557-.275.704-.183.139-.403.209-.66.209-.264 0-.488-.07-.671-.209-.183-.147-.275-.381-.275-.704zm8.131-5.324c0 .543-.165.975-.495 1.298-.323.323-.722.543-1.199.66v.033c.631.073 1.107.264 1.43.572.33.308.495.722.495 1.243 0 .455-.114.865-.341 1.232-.22.359-.565.645-1.034.858-.462.205-1.06.308-1.793.308-.851 0-1.606-.143-2.266-.429v-1.408c.337.169.689.297 1.056.385.374.088.719.132 1.034.132.594 0 1.008-.103 1.243-.308.242-.205.363-.495.363-.869 0-.22-.055-.403-.165-.55-.11-.154-.304-.268-.583-.341-.271-.081-.653-.121-1.144-.121h-.594v-1.276h.605c.484 0 .851-.044 1.1-.132.257-.095.429-.22.517-.374.095-.161.143-.345.143-.55 0-.279-.088-.495-.264-.649-.169-.161-.455-.242-.858-.242-.374 0-.7.066-.979.198-.271.125-.502.249-.693.374l-.77-1.144c.308-.22.667-.403 1.078-.55.418-.147.913-.22 1.485-.22.807 0 1.445.165 1.914.495.477.323.715.781.715 1.375zm2.863-1.87c.616 0 1.081.216 1.397.649.322.425.484 1.027.484 1.804s-.151 1.386-.451 1.826c-.301.433-.778.649-1.43.649-.602 0-1.06-.216-1.375-.649-.316-.44-.473-1.049-.473-1.826s.146-1.379.44-1.804c.293-.433.762-.649 1.408-.649zm5.577.11-4.356 7.854h-1.287l4.356-7.854zm-5.566 1.012c-.338 0-.506.447-.506 1.342 0 .902.168 1.353.506 1.353.344 0 .517-.451.517-1.353 0-.895-.173-1.342-.517-1.342zm5.489 2.013c.616 0 1.081.216 1.397.649.322.425.484 1.027.484 1.804s-.151 1.386-.451 1.826c-.301.433-.778.649-1.43.649-.602 0-1.06-.216-1.375-.649-.316-.44-.473-1.049-.473-1.826s.146-1.379.44-1.804c.293-.433.762-.649 1.408-.649zm.011 1.122c-.338 0-.506.447-.506 1.342 0 .902.168 1.353.506 1.353.344 0 .517-.451.517-1.353 0-.895-.173-1.342-.517-1.342z"/><path d="m412.284 249.372h-.946v1.628h-1.617v-1.628h-3.355v-1.155l3.443-5.071h1.529v4.939h.946zm-2.563-2.618c0-.169.004-.374.011-.616.008-.242.015-.466.022-.671.015-.213.026-.352.033-.418h-.044c-.066.147-.135.29-.209.429-.073.139-.161.282-.264.429l-1.441 2.178h1.892zm3.38 3.476c0-.337.092-.572.275-.704.183-.139.407-.209.671-.209.257 0 .477.07.66.209.183.132.275.367.275.704 0 .323-.092.557-.275.704-.183.139-.403.209-.66.209-.264 0-.488-.07-.671-.209-.183-.147-.275-.381-.275-.704zm8.395-3.157c0 .843-.092 1.566-.275 2.167-.176.601-.466 1.063-.869 1.386-.396.323-.931.484-1.606.484-.946 0-1.639-.356-2.079-1.067-.44-.719-.66-1.709-.66-2.97 0-.851.088-1.577.264-2.178s.466-1.063.869-1.386.939-.484 1.606-.484c.939 0 1.632.356 2.079 1.067s.671 1.705.671 2.981zm-3.839 0c0 .895.077 1.569.231 2.024.154.447.44.671.858.671.411 0 .697-.224.858-.671s.242-1.122.242-2.024c0-.895-.081-1.569-.242-2.024s-.447-.682-.858-.682c-.418 0-.704.227-.858.682s-.231 1.129-.231 2.024zm6.438-4.037c.616 0 1.081.216 1.397.649.322.425.484 1.027.484 1.804s-.151 1.386-.451 1.826c-.301.433-.778.649-1.43.649-.602 0-1.06-.216-1.375-.649-.316-.44-.473-1.049-.473-1.826s.146-1.379.44-1.804c.293-.433.762-.649 1.408-.649zm5.577.11-4.356 7.854h-1.287l4.356-7.854zm-5.566 1.012c-.338 0-.506.447-.506 1.342 0 .902.168 1.353.506 1.353.344 0 .517-.451.517-1.353 0-.895-.173-1.342-.517-1.342zm5.489 2.013c.616 0 1.081.216 1.397.649.322.425.484 1.027.484 1.804s-.151 1.386-.451 1.826c-.301.433-.778.649-1.43.649-.602 0-1.06-.216-1.375-.649-.316-.44-.473-1.049-.473-1.826s.146-1.379.44-1.804c.293-.433.762-.649 1.408-.649zm.011 1.122c-.338 0-.506.447-.506 1.342 0 .902.168 1.353.506 1.353.344 0 .517-.451.517-1.353 0-.895-.173-1.342-.517-1.342z"/><path d="m452.564 225.667c0-.455.033-.902.099-1.342s.18-.854.341-1.243c.169-.396.4-.744.693-1.045.301-.308.679-.546 1.133-.715.462-.176 1.02-.264 1.672-.264.154 0 .334.007.539.022.206.007.378.026.517.055v1.331c-.139-.037-.293-.062-.462-.077-.161-.022-.322-.033-.484-.033-.652 0-1.158.103-1.518.308-.352.205-.601.495-.748.869-.146.367-.231.792-.253 1.276h.066c.147-.257.356-.473.627-.649.279-.176.638-.264 1.078-.264.69 0 1.236.216 1.639.649.404.433.605 1.045.605 1.837 0 .851-.242 1.518-.726 2.002-.476.484-1.125.726-1.947.726-.535 0-1.019-.121-1.452-.363-.432-.249-.777-.627-1.034-1.133-.256-.513-.385-1.162-.385-1.947zm2.838 2.112c.323 0 .587-.11.792-.33.206-.227.308-.576.308-1.045 0-.381-.088-.682-.264-.902s-.443-.33-.803-.33c-.242 0-.454.055-.638.165-.183.103-.326.238-.429.407-.102.169-.154.341-.154.517 0 .242.044.48.132.715.088.227.22.418.396.572.184.154.404.231.66.231zm3.699.451c0-.337.092-.572.275-.704.183-.139.407-.209.671-.209.257 0 .477.07.66.209.183.132.275.367.275.704 0 .323-.092.557-.275.704-.183.139-.403.209-.66.209-.264 0-.488-.07-.671-.209-.183-.147-.275-.381-.275-.704zm8.406-3.729c0 .447-.033.895-.099 1.342-.066.44-.183.858-.352 1.254-.161.389-.392.737-.693 1.045-.293.301-.671.539-1.133.715-.455.169-1.008.253-1.661.253-.154 0-.334-.007-.539-.022-.205-.007-.378-.026-.517-.055v-1.331c.147.029.301.055.462.077s.323.033.484.033c.653 0 1.155-.103 1.507-.308.359-.213.612-.502.759-.869s.231-.792.253-1.276h-.066c-.154.257-.359.473-.616.649-.249.176-.623.264-1.122.264-.667 0-1.203-.216-1.606-.649s-.605-1.045-.605-1.837c0-.851.238-1.518.715-2.002.484-.484 1.137-.726 1.958-.726.535 0 1.019.125 1.452.374.433.242.777.62 1.034 1.133.257.506.385 1.151.385 1.936zm-2.838-2.112c-.323 0-.587.11-.792.33s-.308.568-.308 1.045c0 .381.088.682.264.902s.444.33.803.33c.249 0 .462-.055.638-.165.183-.11.326-.246.429-.407.103-.169.154-.341.154-.517 0-.242-.044-.48-.132-.715s-.22-.425-.396-.572c-.176-.154-.396-.231-.66-.231zm5.426-1.353c.616 0 1.081.216 1.397.649.322.425.484 1.027.484 1.804s-.151 1.386-.451 1.826c-.301.433-.778.649-1.43.649-.602 0-1.06-.216-1.375-.649-.316-.44-.473-1.049-.473-1.826s.146-1.379.44-1.804c.293-.433.762-.649 1.408-.649zm5.577.11-4.356 7.854h-1.287l4.356-7.854zm-5.566 1.012c-.338 0-.506.447-.506 1.342 0 .902.168 1.353.506 1.353.344 0 .517-.451.517-1.353 0-.895-.173-1.342-.517-1.342zm5.489 2.013c.616 0 1.081.216 1.397.649.322.425.484 1.027.484 1.804s-.151 1.386-.451 1.826c-.301.433-.778.649-1.43.649-.602 0-1.06-.216-1.375-.649-.316-.44-.473-1.049-.473-1.826s.146-1.379.44-1.804c.293-.433.762-.649 1.408-.649zm.011 1.122c-.338 0-.506.447-.506 1.342 0 .902.168 1.353.506 1.353.344 0 .517-.451.517-1.353 0-.895-.173-1.342-.517-1.342z"/><path d="m48.5747 140h-1.661v-4.543c0-.191.0037-.44.011-.748.0147-.308.0257-.579.033-.814-.0366.044-.1173.125-.242.242-.1173.11-.2273.209-.33.297l-.902.726-.803-1.001 2.53-2.013h1.364zm2.973 0 2.948-6.457h-3.872v-1.397h5.632v1.045l-2.97 6.809zm5.7009-.77c0-.337.0916-.572.275-.704.1833-.139.407-.209.671-.209.2566 0 .4766.07.66.209.1833.132.275.367.275.704 0 .323-.0917.557-.275.704-.1834.139-.4034.209-.66.209-.264 0-.4877-.07-.671-.209-.1834-.147-.275-.381-.275-.704zm5.6557-7.183c.4547 0 .869.07 1.243.209.3813.139.6857.348.913.627.2347.279.352.631.352 1.056 0 .469-.1357.858-.407 1.166-.264.301-.5977.55-1.001.748.2787.147.5427.319.792.517.2567.191.462.418.616.682.1613.257.242.561.242.913 0 .433-.1173.81-.352 1.133-.2273.323-.55.572-.968.748-.4107.176-.8873.264-1.43.264-.88 0-1.562-.187-2.046-.561-.4767-.374-.715-.887-.715-1.54 0-.543.1467-.979.44-1.309s.649-.598 1.067-.803c-.352-.22-.6527-.484-.902-.792-.242-.315-.363-.708-.363-1.177 0-.418.1173-.766.352-1.045s.5427-.488.924-.627c.3887-.139.803-.209 1.243-.209zm-.011 1.21c-.2713 0-.4987.07-.682.209-.176.139-.264.337-.264.594 0 .271.0953.491.286.66s.4143.315.671.44c.2493-.117.4693-.257.66-.418.1907-.169.286-.396.286-.682 0-.257-.0917-.455-.275-.594-.176-.139-.4033-.209-.682-.209zm-1.21 4.653c0 .286.099.521.297.704.2053.183.506.275.902.275.4107 0 .7187-.088.924-.264s.308-.411.308-.704c0-.198-.0587-.37-.176-.517-.1173-.154-.264-.29-.44-.407-.1687-.125-.3447-.238-.528-.341l-.143-.077c-.3373.161-.6123.348-.825.561s-.319.469-.319.77zm6.5589-5.874c.616 0 1.0817.216 1.397.649.3227.425.484 1.027.484 1.804s-.1503 1.386-.451 1.826c-.3006.433-.7773.649-1.43.649-.6013 0-1.0596-.216-1.375-.649-.3153-.44-.473-1.049-.473-1.826s.1467-1.379.44-1.804c.2934-.433.7627-.649 1.408-.649zm5.577.11-4.356 7.854h-1.287l4.356-7.854zm-5.566 1.012c-.3373 0-.506.447-.506 1.342 0 .902.1687 1.353.506 1.353.3447 0 .517-.451.517-1.353 0-.895-.1723-1.342-.517-1.342zm5.489 2.013c.616 0 1.0817.216 1.397.649.3227.425.484 1.027.484 1.804s-.1503 1.386-.451 1.826c-.3006.433-.7773.649-1.43.649-.6013 0-1.0596-.216-1.375-.649-.3153-.44-.473-1.049-.473-1.826s.1467-1.379.44-1.804c.2934-.433.7627-.649 1.408-.649zm.011 1.122c-.3373 0-.506.447-.506 1.342 0 .902.1687 1.353.506 1.353.3447 0 .517-.451.517-1.353 0-.895-.1723-1.342-.517-1.342z"/><path d="m93.5747 151h-1.661v-4.543c0-.191.0037-.44.011-.748.0147-.308.0257-.579.033-.814-.0366.044-.1173.125-.242.242-.1173.11-.2273.209-.33.297l-.902.726-.803-1.001 2.53-2.013h1.364zm5.052-5.016c.4766 0 .902.092 1.276.275.3743.183.6673.451.8803.803.22.352.33.788.33 1.309 0 .851-.264 1.522-.792 2.013-.5283.484-1.3093.726-2.3433.726-.4107 0-.7994-.037-1.166-.11-.3594-.073-.6747-.18-.946-.319v-1.43c.2713.139.5976.26.979.363.3813.095.7406.143 1.078.143.4913 0 .8653-.099 1.122-.297.264-.205.396-.521.396-.946 0-.792-.5244-1.188-1.573-1.188-.2054 0-.418.022-.638.066-.22.037-.4034.073-.55.11l-.66-.352.297-4.004h4.2573v1.408h-2.8053l-.143 1.54c.1246-.022.2566-.044.396-.066.1466-.029.3483-.044.605-.044zm3.6223 4.246c0-.337.091-.572.275-.704.183-.139.407-.209.671-.209.256 0 .476.07.66.209.183.132.275.367.275.704 0 .323-.092.557-.275.704-.184.139-.404.209-.66.209-.264 0-.488-.07-.671-.209-.184-.147-.275-.381-.275-.704zm5.655-7.183c.455 0 .869.07 1.243.209.382.139.686.348.913.627.235.279.352.631.352 1.056 0 .469-.135.858-.407 1.166-.264.301-.597.55-1.001.748.279.147.543.319.792.517.257.191.462.418.616.682.162.257.242.561.242.913 0 .433-.117.81-.352 1.133-.227.323-.55.572-.968.748-.41.176-.887.264-1.43.264-.88 0-1.562-.187-2.046-.561-.476-.374-.715-.887-.715-1.54 0-.543.147-.979.44-1.309.294-.33.649-.598 1.067-.803-.352-.22-.652-.484-.902-.792-.242-.315-.363-.708-.363-1.177 0-.418.118-.766.352-1.045.235-.279.543-.488.924-.627.389-.139.803-.209 1.243-.209zm-.011 1.21c-.271 0-.498.07-.682.209-.176.139-.264.337-.264.594 0 .271.096.491.286.66.191.169.415.315.671.44.25-.117.47-.257.66-.418.191-.169.286-.396.286-.682 0-.257-.091-.455-.275-.594-.176-.139-.403-.209-.682-.209zm-1.21 4.653c0 .286.099.521.297.704.206.183.506.275.902.275.411 0 .719-.088.924-.264.206-.176.308-.411.308-.704 0-.198-.058-.37-.176-.517-.117-.154-.264-.29-.44-.407-.168-.125-.344-.238-.528-.341l-.143-.077c-.337.161-.612.348-.825.561-.212.213-.319.469-.319.77zm6.559-5.874c.616 0 1.082.216 1.397.649.323.425.484 1.027.484 1.804s-.15 1.386-.451 1.826c-.3.433-.777.649-1.43.649-.601 0-1.059-.216-1.375-.649-.315-.44-.473-1.049-.473-1.826s.147-1.379.44-1.804c.294-.433.763-.649 1.408-.649zm5.577.11-4.356 7.854h-1.287l4.356-7.854zm-5.566 1.012c-.337 0-.506.447-.506 1.342 0 .902.169 1.353.506 1.353.345 0 .517-.451.517-1.353 0-.895-.172-1.342-.517-1.342zm5.489 2.013c.616 0 1.082.216 1.397.649.323.425.484 1.027.484 1.804s-.15 1.386-.451 1.826c-.3.433-.777.649-1.43.649-.601 0-1.059-.216-1.375-.649-.315-.44-.473-1.049-.473-1.826s.147-1.379.44-1.804c.294-.433.763-.649 1.408-.649zm.011 1.122c-.337 0-.506.447-.506 1.342 0 .902.169 1.353.506 1.353.345 0 .517-.451.517-1.353 0-.895-.172-1.342-.517-1.342z"/><path d="m138.575 178h-1.661v-4.543c0-.191.003-.44.011-.748.014-.308.025-.579.033-.814-.037.044-.118.125-.242.242-.118.11-.228.209-.33.297l-.902.726-.803-1.001 2.53-2.013h1.364zm7.373-6.094c0 .543-.165.975-.495 1.298-.323.323-.723.543-1.199.66v.033c.63.073 1.107.264 1.43.572.33.308.495.722.495 1.243 0 .455-.114.865-.341 1.232-.22.359-.565.645-1.034.858-.462.205-1.06.308-1.793.308-.851 0-1.606-.143-2.266-.429v-1.408c.337.169.689.297 1.056.385.374.088.718.132 1.034.132.594 0 1.008-.103 1.243-.308.242-.205.363-.495.363-.869 0-.22-.055-.403-.165-.55-.11-.154-.305-.268-.583-.341-.272-.081-.653-.121-1.144-.121h-.594v-1.276h.605c.484 0 .85-.044 1.1-.132.256-.095.429-.22.517-.374.095-.161.143-.345.143-.55 0-.279-.088-.495-.264-.649-.169-.161-.455-.242-.858-.242-.374 0-.701.066-.979.198-.272.125-.503.249-.693.374l-.77-1.144c.308-.22.667-.403 1.078-.55.418-.147.913-.22 1.485-.22.806 0 1.444.165 1.914.495.476.323.715.781.715 1.375zm1.301 5.324c0-.337.091-.572.275-.704.183-.139.407-.209.671-.209.256 0 .476.07.66.209.183.132.275.367.275.704 0 .323-.092.557-.275.704-.184.139-.404.209-.66.209-.264 0-.488-.07-.671-.209-.184-.147-.275-.381-.275-.704zm2.894-2.563c0-.455.033-.902.099-1.342s.18-.854.341-1.243c.169-.396.4-.744.693-1.045.301-.308.679-.546 1.133-.715.462-.176 1.02-.264 1.672-.264.154 0 .334.007.539.022.206.007.378.026.517.055v1.331c-.139-.037-.293-.062-.462-.077-.161-.022-.322-.033-.484-.033-.652 0-1.158.103-1.518.308-.352.205-.601.495-.748.869-.146.367-.231.792-.253 1.276h.066c.147-.257.356-.473.627-.649.279-.176.638-.264 1.078-.264.69 0 1.236.216 1.639.649.404.433.605 1.045.605 1.837 0 .851-.242 1.518-.726 2.002-.476.484-1.125.726-1.947.726-.535 0-1.019-.121-1.452-.363-.432-.249-.777-.627-1.034-1.133-.256-.513-.385-1.162-.385-1.947zm2.838 2.112c.323 0 .587-.11.792-.33.206-.227.308-.576.308-1.045 0-.381-.088-.682-.264-.902s-.443-.33-.803-.33c-.242 0-.454.055-.638.165-.183.103-.326.238-.429.407-.102.169-.154.341-.154.517 0 .242.044.48.132.715.088.227.22.418.396.572.184.154.404.231.66.231zm5.261-6.743c.616 0 1.082.216 1.397.649.323.425.484 1.027.484 1.804s-.15 1.386-.451 1.826c-.3.433-.777.649-1.43.649-.601 0-1.059-.216-1.375-.649-.315-.44-.473-1.049-.473-1.826s.147-1.379.44-1.804c.294-.433.763-.649 1.408-.649zm5.577.11-4.356 7.854h-1.287l4.356-7.854zm-5.566 1.012c-.337 0-.506.447-.506 1.342 0 .902.169 1.353.506 1.353.345 0 .517-.451.517-1.353 0-.895-.172-1.342-.517-1.342zm5.489 2.013c.616 0 1.082.216 1.397.649.323.425.484 1.027.484 1.804s-.15 1.386-.451 1.826c-.3.433-.777.649-1.43.649-.601 0-1.059-.216-1.375-.649-.315-.44-.473-1.049-.473-1.826s.147-1.379.44-1.804c.294-.433.763-.649 1.408-.649zm.011 1.122c-.337 0-.506.447-.506 1.342 0 .902.169 1.353.506 1.353.345 0 .517-.451.517-1.353 0-.895-.172-1.342-.517-1.342z"/><path d="m183.575 164h-1.661v-4.543c0-.191.003-.44.011-.748.014-.308.025-.579.033-.814-.037.044-.118.125-.242.242-.118.11-.228.209-.33.297l-.902.726-.803-1.001 2.53-2.013h1.364zm7.857-1.628h-.946v1.628h-1.617v-1.628h-3.355v-1.155l3.443-5.071h1.529v4.939h.946zm-2.563-2.618c0-.169.003-.374.011-.616.007-.242.014-.466.022-.671.014-.213.025-.352.033-.418h-.044c-.066.147-.136.29-.209.429-.074.139-.162.282-.264.429l-1.441 2.178h1.892zm3.38 3.476c0-.337.091-.572.275-.704.183-.139.407-.209.671-.209.256 0 .476.07.66.209.183.132.275.367.275.704 0 .323-.092.557-.275.704-.184.139-.404.209-.66.209-.264 0-.488-.07-.671-.209-.184-.147-.275-.381-.275-.704zm8.405-3.729c0 .447-.033.895-.099 1.342-.066.44-.183.858-.352 1.254-.161.389-.392.737-.693 1.045-.293.301-.671.539-1.133.715-.454.169-1.008.253-1.661.253-.154 0-.333-.007-.539-.022-.205-.007-.377-.026-.517-.055v-1.331c.147.029.301.055.462.077.162.022.323.033.484.033.653 0 1.155-.103 1.507-.308.36-.213.613-.502.759-.869.147-.367.231-.792.253-1.276h-.066c-.154.257-.359.473-.616.649-.249.176-.623.264-1.122.264-.667 0-1.202-.216-1.606-.649-.403-.433-.605-1.045-.605-1.837 0-.851.239-1.518.715-2.002.484-.484 1.137-.726 1.958-.726.536 0 1.02.125 1.452.374.433.242.778.62 1.034 1.133.257.506.385 1.151.385 1.936zm-2.838-2.112c-.322 0-.586.11-.792.33-.205.22-.308.568-.308 1.045 0 .381.088.682.264.902s.444.33.803.33c.25 0 .462-.055.638-.165.184-.11.327-.246.429-.407.103-.169.154-.341.154-.517 0-.242-.044-.48-.132-.715s-.22-.425-.396-.572c-.176-.154-.396-.231-.66-.231zm5.426-1.353c.616 0 1.082.216 1.397.649.323.425.484 1.027.484 1.804s-.15 1.386-.451 1.826c-.3.433-.777.649-1.43.649-.601 0-1.059-.216-1.375-.649-.315-.44-.473-1.049-.473-1.826s.147-1.379.44-1.804c.294-.433.763-.649 1.408-.649zm5.577.11-4.356 7.854h-1.287l4.356-7.854zm-5.566 1.012c-.337 0-.506.447-.506 1.342 0 .902.169 1.353.506 1.353.345 0 .517-.451.517-1.353 0-.895-.172-1.342-.517-1.342zm5.489 2.013c.616 0 1.082.216 1.397.649.323.425.484 1.027.484 1.804s-.15 1.386-.451 1.826c-.3.433-.777.649-1.43.649-.601 0-1.059-.216-1.375-.649-.315-.44-.473-1.049-.473-1.826s.147-1.379.44-1.804c.294-.433.763-.649 1.408-.649zm.011 1.122c-.337 0-.506.447-.506 1.342 0 .902.169 1.353.506 1.353.345 0 .517-.451.517-1.353 0-.895-.172-1.342-.517-1.342z"/><path d="m228.575 172h-1.661v-4.543c0-.191.003-.44.011-.748.014-.308.025-.579.033-.814-.037.044-.118.125-.242.242-.118.11-.228.209-.33.297l-.902.726-.803-1.001 2.53-2.013h1.364zm7.857-1.628h-.946v1.628h-1.617v-1.628h-3.355v-1.155l3.443-5.071h1.529v4.939h.946zm-2.563-2.618c0-.169.003-.374.011-.616.007-.242.014-.466.022-.671.014-.213.025-.352.033-.418h-.044c-.066.147-.136.29-.209.429-.074.139-.162.282-.264.429l-1.441 2.178h1.892zm3.38 3.476c0-.337.091-.572.275-.704.183-.139.407-.209.671-.209.256 0 .476.07.66.209.183.132.275.367.275.704 0 .323-.092.557-.275.704-.184.139-.404.209-.66.209-.264 0-.488-.07-.671-.209-.184-.147-.275-.381-.275-.704zm8.614-.858h-.946v1.628h-1.617v-1.628h-3.355v-1.155l3.443-5.071h1.529v4.939h.946zm-2.563-2.618c0-.169.004-.374.011-.616.008-.242.015-.466.022-.671.015-.213.026-.352.033-.418h-.044c-.066.147-.135.29-.209.429-.073.139-.161.282-.264.429l-1.441 2.178h1.892zm4.942-3.718c.616 0 1.082.216 1.397.649.323.425.484 1.027.484 1.804s-.15 1.386-.451 1.826c-.3.433-.777.649-1.43.649-.601 0-1.059-.216-1.375-.649-.315-.44-.473-1.049-.473-1.826s.147-1.379.44-1.804c.294-.433.763-.649 1.408-.649zm5.577.11-4.356 7.854h-1.287l4.356-7.854zm-5.566 1.012c-.337 0-.506.447-.506 1.342 0 .902.169 1.353.506 1.353.345 0 .517-.451.517-1.353 0-.895-.172-1.342-.517-1.342zm5.489 2.013c.616 0 1.082.216 1.397.649.323.425.484 1.027.484 1.804s-.15 1.386-.451 1.826c-.3.433-.777.649-1.43.649-.601 0-1.059-.216-1.375-.649-.315-.44-.473-1.049-.473-1.826s.147-1.379.44-1.804c.294-.433.763-.649 1.408-.649zm.011 1.122c-.337 0-.506.447-.506 1.342 0 .902.169 1.353.506 1.353.345 0 .517-.451.517-1.353 0-.895-.172-1.342-.517-1.342z"/><path d="m271.575 167h-1.661v-4.543c0-.191.003-.44.011-.748.014-.308.025-.579.033-.814-.037.044-.118.125-.242.242-.118.11-.228.209-.33.297l-.902.726-.803-1.001 2.53-2.013h1.364zm7.857-1.628h-.946v1.628h-1.617v-1.628h-3.355v-1.155l3.443-5.071h1.529v4.939h.946zm-2.563-2.618c0-.169.003-.374.011-.616.007-.242.014-.466.022-.671.014-.213.025-.352.033-.418h-.044c-.066.147-.136.29-.209.429-.074.139-.162.282-.264.429l-1.441 2.178h1.892zm3.38 3.476c0-.337.091-.572.275-.704.183-.139.407-.209.671-.209.256 0 .476.07.66.209.183.132.275.367.275.704 0 .323-.092.557-.275.704-.184.139-.404.209-.66.209-.264 0-.488-.07-.671-.209-.184-.147-.275-.381-.275-.704zm5.655-7.183c.455 0 .869.07 1.243.209.382.139.686.348.913.627.235.279.352.631.352 1.056 0 .469-.135.858-.407 1.166-.264.301-.597.55-1.001.748.279.147.543.319.792.517.257.191.462.418.616.682.162.257.242.561.242.913 0 .433-.117.81-.352 1.133-.227.323-.55.572-.968.748-.41.176-.887.264-1.43.264-.88 0-1.562-.187-2.046-.561-.476-.374-.715-.887-.715-1.54 0-.543.147-.979.44-1.309.294-.33.649-.598 1.067-.803-.352-.22-.652-.484-.902-.792-.242-.315-.363-.708-.363-1.177 0-.418.118-.766.352-1.045.235-.279.543-.488.924-.627.389-.139.803-.209 1.243-.209zm-.011 1.21c-.271 0-.498.07-.682.209-.176.139-.264.337-.264.594 0 .271.096.491.286.66.191.169.415.315.671.44.25-.117.47-.257.66-.418.191-.169.286-.396.286-.682 0-.257-.091-.455-.275-.594-.176-.139-.403-.209-.682-.209zm-1.21 4.653c0 .286.099.521.297.704.206.183.506.275.902.275.411 0 .719-.088.924-.264.206-.176.308-.411.308-.704 0-.198-.058-.37-.176-.517-.117-.154-.264-.29-.44-.407-.168-.125-.344-.238-.528-.341l-.143-.077c-.337.161-.612.348-.825.561-.212.213-.319.469-.319.77zm6.559-5.874c.616 0 1.082.216 1.397.649.323.425.484 1.027.484 1.804s-.15 1.386-.451 1.826c-.3.433-.777.649-1.43.649-.601 0-1.059-.216-1.375-.649-.315-.44-.473-1.049-.473-1.826s.147-1.379.44-1.804c.294-.433.763-.649 1.408-.649zm5.577.11-4.356 7.854h-1.287l4.356-7.854zm-5.566 1.012c-.337 0-.506.447-.506 1.342 0 .902.169 1.353.506 1.353.345 0 .517-.451.517-1.353 0-.895-.172-1.342-.517-1.342zm5.489 2.013c.616 0 1.082.216 1.397.649.323.425.484 1.027.484 1.804s-.15 1.386-.451 1.826c-.3.433-.777.649-1.43.649-.601 0-1.059-.216-1.375-.649-.315-.44-.473-1.049-.473-1.826s.147-1.379.44-1.804c.294-.433.763-.649 1.408-.649zm.011 1.122c-.337 0-.506.447-.506 1.342 0 .902.169 1.353.506 1.353.345 0 .517-.451.517-1.353 0-.895-.172-1.342-.517-1.342z"/><path d="m317.575 156h-1.661v-4.543c0-.191.003-.44.011-.748.014-.308.025-.579.033-.814-.037.044-.118.125-.242.242-.118.11-.228.209-.33.297l-.902.726-.803-1.001 2.53-2.013h1.364zm5.052-5.016c.476 0 .902.092 1.276.275s.667.451.88.803c.22.352.33.788.33 1.309 0 .851-.264 1.522-.792 2.013-.528.484-1.309.726-2.343.726-.411 0-.8-.037-1.166-.11-.36-.073-.675-.18-.946-.319v-1.43c.271.139.597.26.979.363.381.095.74.143 1.078.143.491 0 .865-.099 1.122-.297.264-.205.396-.521.396-.946 0-.792-.525-1.188-1.573-1.188-.206 0-.418.022-.638.066-.22.037-.404.073-.55.11l-.66-.352.297-4.004h4.257v1.408h-2.805l-.143 1.54c.124-.022.256-.044.396-.066.146-.029.348-.044.605-.044zm3.622 4.246c0-.337.091-.572.275-.704.183-.139.407-.209.671-.209.256 0 .476.07.66.209.183.132.275.367.275.704 0 .323-.092.557-.275.704-.184.139-.404.209-.66.209-.264 0-.488-.07-.671-.209-.184-.147-.275-.381-.275-.704zm5.809-4.246c.477 0 .902.092 1.276.275s.668.451.88.803c.22.352.33.788.33 1.309 0 .851-.264 1.522-.792 2.013-.528.484-1.309.726-2.343.726-.41 0-.799-.037-1.166-.11-.359-.073-.674-.18-.946-.319v-1.43c.272.139.598.26.979.363.382.095.741.143 1.078.143.492 0 .866-.099 1.122-.297.264-.205.396-.521.396-.946 0-.792-.524-1.188-1.573-1.188-.205 0-.418.022-.638.066-.22.037-.403.073-.55.11l-.66-.352.297-4.004h4.257v1.408h-2.805l-.143 1.54c.125-.022.257-.044.396-.066.147-.029.349-.044.605-.044zm5.184-2.948c.616 0 1.082.216 1.397.649.323.425.484 1.027.484 1.804s-.15 1.386-.451 1.826c-.3.433-.777.649-1.43.649-.601 0-1.059-.216-1.375-.649-.315-.44-.473-1.049-.473-1.826s.147-1.379.44-1.804c.294-.433.763-.649 1.408-.649zm5.577.11-4.356 7.854h-1.287l4.356-7.854zm-5.566 1.012c-.337 0-.506.447-.506 1.342 0 .902.169 1.353.506 1.353.345 0 .517-.451.517-1.353 0-.895-.172-1.342-.517-1.342zm5.489 2.013c.616 0 1.082.216 1.397.649.323.425.484 1.027.484 1.804s-.15 1.386-.451 1.826c-.3.433-.777.649-1.43.649-.601 0-1.059-.216-1.375-.649-.315-.44-.473-1.049-.473-1.826s.147-1.379.44-1.804c.294-.433.763-.649 1.408-.649zm.011 1.122c-.337 0-.506.447-.506 1.342 0 .902.169 1.353.506 1.353.345 0 .517-.451.517-1.353 0-.895-.172-1.342-.517-1.342z"/><path d="m363.575 185h-1.661v-4.543c0-.191.003-.44.011-.748.014-.308.025-.579.033-.814-.037.044-.118.125-.242.242-.118.11-.228.209-.33.297l-.902.726-.803-1.001 2.53-2.013h1.364zm7.373-6.094c0 .543-.165.975-.495 1.298-.323.323-.723.543-1.199.66v.033c.63.073 1.107.264 1.43.572.33.308.495.722.495 1.243 0 .455-.114.865-.341 1.232-.22.359-.565.645-1.034.858-.462.205-1.06.308-1.793.308-.851 0-1.606-.143-2.266-.429v-1.408c.337.169.689.297 1.056.385.374.088.718.132 1.034.132.594 0 1.008-.103 1.243-.308.242-.205.363-.495.363-.869 0-.22-.055-.403-.165-.55-.11-.154-.305-.268-.583-.341-.272-.081-.653-.121-1.144-.121h-.594v-1.276h.605c.484 0 .85-.044 1.1-.132.256-.095.429-.22.517-.374.095-.161.143-.345.143-.55 0-.279-.088-.495-.264-.649-.169-.161-.455-.242-.858-.242-.374 0-.701.066-.979.198-.272.125-.503.249-.693.374l-.77-1.144c.308-.22.667-.403 1.078-.55.418-.147.913-.22 1.485-.22.806 0 1.444.165 1.914.495.476.323.715.781.715 1.375zm1.301 5.324c0-.337.091-.572.275-.704.183-.139.407-.209.671-.209.256 0 .476.07.66.209.183.132.275.367.275.704 0 .323-.092.557-.275.704-.184.139-.404.209-.66.209-.264 0-.488-.07-.671-.209-.184-.147-.275-.381-.275-.704zm8.438.77h-5.489v-1.155l1.969-1.991c.396-.411.715-.752.957-1.023.242-.279.418-.528.528-.748.11-.227.165-.469.165-.726 0-.315-.088-.55-.264-.704-.168-.154-.399-.231-.693-.231-.3 0-.594.07-.88.209s-.586.337-.902.594l-.902-1.067c.228-.198.466-.381.715-.55.257-.169.55-.304.88-.407.338-.11.741-.165 1.21-.165.514 0 .954.095 1.32.286.374.183.66.436.858.759.206.315.308.675.308 1.078 0 .433-.088.829-.264 1.188-.168.359-.418.715-.748 1.067-.322.352-.715.741-1.177 1.166l-1.012.946v.077h3.421zm2.555-7.964c.616 0 1.082.216 1.397.649.323.425.484 1.027.484 1.804s-.15 1.386-.451 1.826c-.3.433-.777.649-1.43.649-.601 0-1.059-.216-1.375-.649-.315-.44-.473-1.049-.473-1.826s.147-1.379.44-1.804c.294-.433.763-.649 1.408-.649zm5.577.11-4.356 7.854h-1.287l4.356-7.854zm-5.566 1.012c-.337 0-.506.447-.506 1.342 0 .902.169 1.353.506 1.353.345 0 .517-.451.517-1.353 0-.895-.172-1.342-.517-1.342zm5.489 2.013c.616 0 1.082.216 1.397.649.323.425.484 1.027.484 1.804s-.15 1.386-.451 1.826c-.3.433-.777.649-1.43.649-.601 0-1.059-.216-1.375-.649-.315-.44-.473-1.049-.473-1.826s.147-1.379.44-1.804c.294-.433.763-.649 1.408-.649zm.011 1.122c-.337 0-.506.447-.506 1.342 0 .902.169 1.353.506 1.353.345 0 .517-.451.517-1.353 0-.895-.172-1.342-.517-1.342z"/><path d="m392.575 160h-1.661v-4.543c0-.191.003-.44.011-.748.014-.308.025-.579.033-.814-.037.044-.118.125-.242.242-.118.11-.228.209-.33.297l-.902.726-.803-1.001 2.53-2.013h1.364zm5.052-5.016c.476 0 .902.092 1.276.275s.667.451.88.803c.22.352.33.788.33 1.309 0 .851-.264 1.522-.792 2.013-.528.484-1.309.726-2.343.726-.411 0-.8-.037-1.166-.11-.36-.073-.675-.18-.946-.319v-1.43c.271.139.597.26.979.363.381.095.74.143 1.078.143.491 0 .865-.099 1.122-.297.264-.205.396-.521.396-.946 0-.792-.525-1.188-1.573-1.188-.206 0-.418.022-.638.066-.22.037-.404.073-.55.11l-.66-.352.297-4.004h4.257v1.408h-2.805l-.143 1.54c.124-.022.256-.044.396-.066.146-.029.348-.044.605-.044zm3.622 4.246c0-.337.091-.572.275-.704.183-.139.407-.209.671-.209.256 0 .476.07.66.209.183.132.275.367.275.704 0 .323-.092.557-.275.704-.184.139-.404.209-.66.209-.264 0-.488-.07-.671-.209-.184-.147-.275-.381-.275-.704zm7.052.77h-1.661v-4.543c0-.191.004-.44.011-.748.015-.308.026-.579.033-.814-.036.044-.117.125-.242.242-.117.11-.227.209-.33.297l-.902.726-.803-1.001 2.53-2.013h1.364zm3.941-7.964c.616 0 1.082.216 1.397.649.323.425.484 1.027.484 1.804s-.15 1.386-.451 1.826c-.3.433-.777.649-1.43.649-.601 0-1.059-.216-1.375-.649-.315-.44-.473-1.049-.473-1.826s.147-1.379.44-1.804c.294-.433.763-.649 1.408-.649zm5.577.11-4.356 7.854h-1.287l4.356-7.854zm-5.566 1.012c-.337 0-.506.447-.506 1.342 0 .902.169 1.353.506 1.353.345 0 .517-.451.517-1.353 0-.895-.172-1.342-.517-1.342zm5.489 2.013c.616 0 1.082.216 1.397.649.323.425.484 1.027.484 1.804s-.15 1.386-.451 1.826c-.3.433-.777.649-1.43.649-.601 0-1.059-.216-1.375-.649-.315-.44-.473-1.049-.473-1.826s.147-1.379.44-1.804c.294-.433.763-.649 1.408-.649zm.011 1.122c-.337 0-.506.447-.506 1.342 0 .902.169 1.353.506 1.353.345 0 .517-.451.517-1.353 0-.895-.172-1.342-.517-1.342z"/><path d="m454.653 24.906c0 .5427-.165.9753-.495 1.298-.323.3227-.723.5427-1.199.66v.033c.63.0733 1.107.264 1.43.572.33.308.495.7223.495 1.243 0 .4547-.114.8653-.341 1.232-.22.3593-.565.6453-1.034.858-.462.2053-1.06.308-1.793.308-.851 0-1.606-.143-2.266-.429v-1.408c.337.1687.689.297 1.056.385.374.088.718.132 1.034.132.594 0 1.008-.1027 1.243-.308.242-.2053.363-.495.363-.869 0-.22-.055-.4033-.165-.55-.11-.154-.305-.2677-.583-.341-.272-.0807-.653-.121-1.144-.121h-.594v-1.276h.605c.484 0 .85-.044 1.1-.132.256-.0953.429-.22.517-.374.095-.1613.143-.3447.143-.55 0-.2787-.088-.495-.264-.649-.169-.1613-.455-.242-.858-.242-.374 0-.701.066-.979.198-.272.1247-.503.2493-.693.374l-.77-1.144c.308-.22.667-.4033 1.078-.55.418-.1467.913-.22 1.485-.22.806 0 1.444.165 1.914.495.476.3227.715.781.715 1.375zm6.603 6.094h-5.489v-1.155l1.969-1.991c.396-.4107.715-.7517.957-1.023.242-.2787.418-.528.528-.748.11-.2273.165-.4693.165-.726 0-.3153-.088-.55-.264-.704-.169-.154-.4-.231-.693-.231-.301 0-.594.0697-.88.209s-.587.3373-.902.594l-.902-1.067c.227-.198.465-.3813.715-.55.256-.1687.55-.3043.88-.407.337-.11.74-.165 1.21-.165.513 0 .953.0953 1.32.286.374.1833.66.4363.858.759.205.3153.308.6747.308 1.078 0 .4327-.088.8287-.264 1.188-.169.3593-.418.715-.748 1.067-.323.352-.715.7407-1.177 1.166l-1.012.946v.077h3.421zm.993-.77c0-.3373.091-.572.275-.704.183-.1393.407-.209.671-.209.256 0 .476.0697.66.209.183.132.275.3667.275.704 0 .3227-.092.5573-.275.704-.184.1393-.404.209-.66.209-.264 0-.488-.0697-.671-.209-.184-.1467-.275-.3813-.275-.704zm8.614-.858h-.946v1.628h-1.617v-1.628h-3.355v-1.155l3.443-5.071h1.529v4.939h.946zm-2.563-2.618c0-.1687.004-.374.011-.616.008-.242.015-.4657.022-.671.015-.2127.026-.352.033-.418h-.044c-.066.1467-.135.2897-.209.429-.073.1393-.161.2823-.264.429l-1.441 2.178h1.892zm4.942-3.718c.616 0 1.082.2163 1.397.649.323.4253.484 1.0267.484 1.804s-.15 1.386-.451 1.826c-.3.4327-.777.649-1.43.649-.601 0-1.059-.2163-1.375-.649-.315-.44-.473-1.0487-.473-1.826s.147-1.3787.44-1.804c.294-.4327.763-.649 1.408-.649zm5.577.11-4.356 7.854h-1.287l4.356-7.854zm-5.566 1.012c-.337 0-.506.4473-.506 1.342 0 .902.169 1.353.506 1.353.345 0 .517-.451.517-1.353 0-.8947-.172-1.342-.517-1.342zm5.489 2.013c.616 0 1.082.2163 1.397.649.323.4253.484 1.0267.484 1.804s-.15 1.386-.451 1.826c-.3.4327-.777.649-1.43.649-.601 0-1.059-.2163-1.375-.649-.315-.44-.473-1.0487-.473-1.826s.147-1.3787.44-1.804c.294-.4327.763-.649 1.408-.649zm.011 1.122c-.337 0-.506.4473-.506 1.342 0 .902.169 1.353.506 1.353.345 0 .517-.451.517-1.353 0-.8947-.172-1.342-.517-1.342z"/></g><circle cx="85" cy="339" fill="#ff5753" r="6"/><circle cx="281" cy="339" fill="#0072f5" r="6"/></svg>