<svg width="108" height="122" viewBox="0 0 108 122" fill="none" xmlns="http://www.w3.org/2000/svg">
<path d="M76.5877 32.5053C76.5825 32.2547 76.6746 32.0119 76.8446 31.8282C77.8129 30.7454 81.455 26.0332 82.6665 24.4411C83.2077 23.732 84.7947 24.4945 84.2945 25.5589C83.8218 26.5669 80.4837 33.6414 79.8863 34.3475C79.3178 35.0078 76.6577 34.4359 76.5877 32.5053Z" fill="#280A38"/>
<path d="M82.6058 25.7816L83.0344 26.05C83.682 26.4556 84.6792 25.9905 85.1929 25.0435L87.6038 20.5874C88.0598 19.7472 87.9656 18.8261 87.391 18.4662L87.2207 18.3594C86.6127 17.9766 85.6779 18.367 85.1413 19.2317L82.472 23.5246C81.9339 24.3877 81.9947 25.3988 82.6058 25.7816Z" fill="#280A38"/>
<path fill-rule="evenodd" clip-rule="evenodd" d="M93.9197 85.5768C90.3399 83.5043 87.0975 83.2893 84.7353 84.6008C82.329 85.9428 76.9388 89.5067 76.9388 89.5067L96.18 121.074C96.18 121.074 101.082 118.062 103.476 116.507C105.667 115.078 107.009 112.229 107.009 108.243C107.008 99.9087 101.145 89.7614 93.9197 85.5768Z" fill="#280A38"/>
<path fill-rule="evenodd" clip-rule="evenodd" d="M86.8179 90.0299C79.593 85.8453 73.7361 89.2064 73.7361 97.539C73.7361 105.872 79.593 116.016 86.8179 120.2C94.0428 124.385 99.8997 121.024 99.8997 112.693C99.8997 104.362 94.0428 94.2145 86.8179 90.0299Z" fill="#280A38"/>
<path fill-rule="evenodd" clip-rule="evenodd" d="M79.4455 100.845C79.4455 105.541 82.7456 111.258 86.8179 113.617C90.8902 115.976 94.1903 114.074 94.1903 109.385C94.1903 104.696 90.8947 98.9724 86.8179 96.6148C82.741 94.2571 79.4455 96.1496 79.4455 100.845Z" fill="#CAD1D7"/>
<path fill-rule="evenodd" clip-rule="evenodd" d="M84.0544 103.513C84.0544 105.275 85.2933 107.423 86.8225 108.307C88.3517 109.192 89.5905 108.481 89.5905 106.718C89.5905 104.955 88.3517 102.809 86.8225 101.923C85.2933 101.037 84.0544 101.75 84.0544 103.513Z" fill="#30121B"/>
<path fill-rule="evenodd" clip-rule="evenodd" d="M31.9475 49.6051C28.3692 47.5326 25.1254 47.3176 22.7632 48.6291C20.3569 49.9711 14.9667 53.5366 14.9667 53.5366L34.2079 85.0949C34.2079 85.0949 39.1101 82.083 41.4966 80.5275C43.6871 79.0986 45.0293 76.2499 45.0293 72.2636C45.0293 63.9371 39.1724 53.7897 31.9475 49.6051Z" fill="#280A38"/>
<path fill-rule="evenodd" clip-rule="evenodd" d="M24.8457 54.0582C17.6208 49.8736 11.7639 53.2347 11.7639 61.5673C11.7639 69.8999 17.6269 80.0442 24.8457 84.2288C32.0646 88.4134 37.9275 85.0523 37.9275 76.7212C37.9275 68.3902 32.0676 58.2443 24.8457 54.0582Z" fill="#280A38"/>
<path fill-rule="evenodd" clip-rule="evenodd" d="M17.4749 64.8734C17.4749 69.5689 20.7765 75.2861 24.8472 77.6453C28.918 80.0045 32.2196 78.1028 32.2196 73.4134C32.2196 68.7241 28.9195 63.0007 24.8472 60.6431C20.7749 58.2854 17.4749 60.178 17.4749 64.8734Z" fill="#CAD1D7"/>
<path fill-rule="evenodd" clip-rule="evenodd" d="M22.0776 67.5408C22.0776 69.3037 23.318 71.4509 24.8457 72.3354C26.3734 73.2199 27.6138 72.5093 27.6138 70.7479C27.6138 68.9865 26.3749 66.8378 24.8457 65.9518C23.3165 65.0658 22.0776 65.7779 22.0776 67.5408Z" fill="#280A38"/>
<path fill-rule="evenodd" clip-rule="evenodd" d="M99.2552 79.2572L104.489 86.5208C104.773 86.9133 104.971 87.3612 105.072 87.8355C105.172 88.3098 105.172 88.8 105.072 89.2743C104.972 89.7487 104.773 90.1966 104.489 90.5892C104.206 90.9818 103.843 91.3102 103.425 91.5533L103.373 91.5838C101.132 92.8816 94.7816 95.3277 90.1149 92.4988C78.3328 85.3755 70.2019 95.6906 70.2019 95.6906C70.2019 95.6906 66.1417 81.8757 78.9393 78.205C91.7369 74.5343 99.2552 79.2572 99.2552 79.2572Z" fill="#3264FF"/>
<path d="M78.5243 43.6532C78.0588 43.5793 77.5819 43.6484 77.1563 43.8515C75.9995 44.4249 70.0499 46.9228 70.0499 46.9228L79.745 57.4926C81.6147 65.8054 81.601 72.7319 78.4727 77.5479L77.062 79.724C75.7639 81.7218 73.2618 81.9871 70.5515 80.4149L63.2156 76.1647C61.0601 74.9172 59.1524 72.1997 58.4927 69.4547L56.5409 61.3402C55.2549 55.9783 51.5247 50.6896 47.3247 48.2541L26.8036 36.3591L20.4193 46.4943C19.1409 48.5256 19.4342 52.0819 21.1656 55.507C22.444 58.0385 24.3578 60.1796 26.3613 61.3432L48.7536 82.3196L69.3096 96.4899C69.3096 96.4899 65.251 82.5788 77.1456 81.7065C78.8724 81.58 85.0804 83.2422 85.0804 83.2422C85.6596 82.2693 87.9124 85.7341 87.9124 85.7341C87.9124 85.7341 99.6383 79.0668 100.015 78.7968C101.126 77.984 101.433 75.4144 97.5831 69.3418L85.5745 49.9469C83.9024 46.5324 81.0401 43.975 78.5243 43.6532Z" fill="white"/>
<path d="M43.0411 50.287L24.0234 40.222L5.47839 28.4612L16.4108 21.7893C16.4108 21.7893 34.4314 31.8757 36.7601 33.2268L48.6472 40.1076C49.9271 40.8488 51.4958 40.6093 53.9933 40.7756C56.4908 40.9418 59.0096 46.5614 60.1253 50.2977L61.5298 55.0252C62.3461 57.7702 62.0619 60.1461 60.8671 61.3859C60.5768 61.6909 49.205 68.2484 49.205 68.2484C49.205 68.2484 48.1182 53.2226 43.0411 50.287Z" fill="white"/>
<path d="M34.3478 54.1375L9.20565 39.6103L6.17613 34.3613C4.5314 31.5111 5.48449 28.4641 5.48449 28.4641C5.48449 28.4641 22.9092 38.6054 25.2455 39.9535L37.1386 46.8419C38.417 47.583 40.6075 47.426 42.9013 48.0939C45.1951 48.7619 47.5041 53.2957 48.6168 57.0335L50.0213 61.7533C51.0337 65.1556 50.3512 68.0058 48.3325 68.8049L45.4778 69.935C43.9152 63.4613 39.4188 57.0762 34.3478 54.1375Z" fill="#280A38"/>
<path d="M8.8925 53.2226L12.2367 50.0795L15.2768 43.0874L35.7979 54.9824C40.0025 57.4224 43.7267 62.7065 45.0142 68.0684L46.9644 76.189C47.6226 78.934 49.5319 81.6455 51.6873 82.899L59.0232 87.1477C61.7381 88.72 64.2356 88.4562 65.5322 86.4584L66.9505 84.2746C69.5574 80.2623 70.4816 74.4673 69.6365 67.8366C69.1772 64.4038 68.9345 60.9454 68.9098 57.4819V51.2202C69.0467 48.0406 69.3796 46.4211 71.4529 46.6879C73.9687 47.0112 76.831 49.5671 78.5016 52.9816L86.9426 75.7163C89.9113 82.3928 89.3519 86.1427 87.0672 85.8408C87.0672 85.8408 83.945 84.5613 81.183 84.9914C73.0794 86.2525 69.8645 94.1932 70.1882 95.6953C68.6256 97.5421 65.9503 97.6885 63.0439 96.0003L39.6589 82.4568C39.6589 82.4568 37.6828 72.0273 25.4751 62.5952C15.9761 55.2584 12.7976 66.6258 11.8916 65.5934C11.0033 64.5743 10.2464 63.4471 9.63886 62.2384C7.90749 58.8163 7.61259 55.2584 8.8925 53.2226Z" fill="#FF9F00"/>
<path d="M41.0149 83.2422C40.7681 83.4005 40.4887 83.5004 40.1978 83.5343C39.9069 83.5681 39.6121 83.5351 39.3358 83.4376C39.0595 83.3402 38.809 83.1809 38.6032 82.9719C38.3974 82.7628 38.2417 82.5095 38.148 82.2312C36.406 77.0462 31.2316 67.7925 22.859 64.0181C15.9487 60.9056 12.2488 65.9182 12.2488 65.9182C12.2488 65.9182 5.15311 59.0085 9.18437 52.7651C11.9996 48.4036 17.6588 48.7498 21.9363 50.4242C27.4238 52.5745 30.9443 56.9817 34.0042 61.8617C37.9306 68.1356 40.4707 75.3199 40.9829 82.7314C40.9951 82.8991 41.0057 83.0669 41.0149 83.2331V83.2422Z" fill="#3264FF"/>
<path d="M83.0587 45.8292L75.4583 50.2319C74.994 50.5021 74.4641 50.6379 73.9275 50.6245C73.3909 50.611 72.8685 50.4487 72.4182 50.1556L69.0056 47.9383C68.6297 47.6921 68.3305 47.3447 68.1423 46.9358C67.9541 46.5269 67.8845 46.0731 67.9415 45.6264L69.4616 33.6383L72.0062 34.9956C72.4368 35.269 72.9342 35.418 73.4437 35.4264C73.9532 35.4347 74.4551 35.302 74.8944 35.0429L79.1308 32.5327L83.7777 43.6576C83.9415 44.0454 83.9588 44.4798 83.8265 44.8794C83.6941 45.2791 83.4212 45.6168 83.0587 45.8292V45.8292Z" fill="#3264FF"/>
<path d="M75.3215 44.8502C75.7775 46.023 76.5087 46.6909 77.322 46.8327C78.1352 46.9746 80.4594 46.2944 81.2742 45.2772C82.8702 43.2734 83.2928 40.6901 82.3641 38.3126C81.8731 37.0529 79.8118 35.6621 78.9272 35.5996C78.1398 35.5447 77.2885 35.9778 76.5376 36.9218C74.9339 38.9195 74.3927 42.4728 75.3215 44.8502Z" fill="#FF9F00"/>
<path d="M77.9817 44.3958C78.7128 46.2669 80.3226 46.5048 81.5782 44.928C82.8338 43.3511 83.2609 40.5543 82.5298 38.6831C81.7986 36.8119 80.1888 36.574 78.9332 38.1524C77.6777 39.7308 77.252 42.5246 77.9817 44.3958Z" fill="white"/>
<path d="M69.8037 34.3598L72.2799 35.775C72.6122 35.9651 72.9886 36.0643 73.3712 36.0624C73.7538 36.0605 74.1292 35.9577 74.4597 35.7643L78.8056 33.2252C78.9107 33.1643 78.998 33.0767 79.0587 32.9712C79.1193 32.8657 79.1513 32.7461 79.1513 32.6243C79.1513 32.5025 79.1193 32.3829 79.0587 32.2774C78.998 32.172 78.9107 32.0844 78.8056 32.0235L76.3278 30.6083C75.9958 30.4181 75.6197 30.319 75.2373 30.3208C74.8549 30.3227 74.4798 30.4255 74.1496 30.6189L69.8037 33.1581C69.6982 33.2187 69.6105 33.3061 69.5495 33.4117C69.4885 33.5172 69.4564 33.637 69.4564 33.7589C69.4564 33.8809 69.4885 34.0007 69.5495 34.1062C69.6105 34.2117 69.6982 34.2992 69.8037 34.3598V34.3598Z" fill="white"/>
<path d="M70.6625 35.6438C70.4532 35.5072 70.1994 35.4569 69.9541 35.5035C68.5252 35.7552 62.6121 36.3621 60.6254 36.5497C59.7377 36.6351 59.5446 38.3888 60.709 38.5322C61.811 38.6633 69.5604 39.5677 70.477 39.4274C71.3343 39.2916 72.2586 36.7251 70.6625 35.6438Z" fill="#280A38"/>
<path d="M61.7913 37.2101V37.7179C61.7913 38.4804 60.8701 39.0904 59.7969 39.0218L54.7533 38.7168C53.8017 38.6588 53.0706 38.093 53.0706 37.4129V37.2101C53.0706 36.4872 53.8944 35.9016 54.9099 35.9016H59.952C60.9674 35.8986 61.7913 36.4842 61.7913 37.2101Z" fill="#280A38"/>
<path d="M1.26173 16.3328V16.3839C1.25927 16.367 1.25927 16.3497 1.26173 16.3328V16.3328Z" fill="#F9BB58"/>
<path d="M42.5425 34.2684L21.2705 46.5888V24.641L42.5425 12.3206V34.2684Z" fill="#FF9F00"/>
<path d="M21.2705 46.5888L0 34.2684V12.3206L21.2705 24.641V46.5888Z" fill="#280A38"/>
<path d="M42.5425 12.3205L21.2705 24.641L0 12.3205L21.2705 0L42.5425 12.3205Z" fill="white"/>
<path d="M34.5423 7.7074L13.2946 19.9974L8.00018 16.9245L29.2463 4.63452L34.5423 7.7074Z" fill="#3264FF"/>
<path d="M13.2946 20.0279L8.00018 16.9321V23.0474L13.2946 26.1447V20.0279Z" fill="#3264FF"/>
</svg>
