<svg width="338" height="265" viewBox="0 0 338 265" fill="none" xmlns="http://www.w3.org/2000/svg">
<path d="M338 132.143L109.04 0L0 62.9315L228.96 195.074L338 132.143Z" fill="#00D273"/>
<path d="M109.655 8.69141L15.4517 63.1993L228.345 186.383L322.549 131.875L109.655 8.69141Z" fill="white"/>
<path d="M303.234 131.949L230.876 173.829L36.6973 62.1643L109.056 20.28L303.234 131.949Z" fill="#00D273"/>
<path d="M171.379 135.932C208.309 133.55 237.139 114.43 235.771 93.227C234.404 72.0235 203.357 56.7655 166.427 59.1472C129.496 61.529 100.667 80.6485 102.034 101.852C103.402 123.055 134.448 138.313 171.379 135.932Z" fill="white"/>
<path d="M171.554 128.726C202.572 125.28 226.13 108.209 224.174 90.5974C222.217 72.986 195.486 61.503 164.468 64.9494C133.45 68.3958 109.891 85.4666 111.848 103.078C113.805 120.689 140.536 132.172 171.554 128.726Z" fill="#00D273"/>
<path d="M176.969 108.542C176.189 109.956 174.637 111.345 172.314 112.709C170.419 113.801 168.385 114.626 166.268 115.16C163.92 115.768 161.511 116.111 159.087 116.181C156.512 116.259 153.937 116.054 151.405 115.57C148.804 115.08 146.268 114.285 143.849 113.202L135.985 117.817L130.372 114.55L138.235 109.934C135.385 107.834 133.452 105.579 132.436 103.168C131.442 100.948 131.172 98.4675 131.663 96.0828L140.606 96.7328C139.875 98.4118 139.785 100.305 140.355 102.046C141.013 103.917 142.185 105.56 143.732 106.784L163.354 95.2626C162.256 94.0416 161.234 92.7521 160.296 91.4018C159.442 90.2277 158.862 88.8735 158.599 87.4405C158.392 86.0614 158.668 84.6522 159.381 83.4575C160.115 82.1226 161.573 80.8138 163.755 79.5312C165.571 78.486 167.532 77.7213 169.572 77.2627C171.77 76.7549 174.019 76.5089 176.274 76.5298C178.626 76.5484 180.969 76.8086 183.269 77.3063C185.593 77.8021 187.857 78.5495 190.023 79.5356L197.187 75.3257L202.8 78.5976L195.632 82.8031C198.154 84.6529 199.828 86.5259 200.654 88.4221C201.469 90.2736 201.73 92.3252 201.405 94.3247L193.089 93.631C194.004 90.743 193.13 88.1138 190.467 85.7435L172.906 96.0392C174.012 97.326 175.045 98.6763 175.997 100.083C176.879 101.342 177.481 102.778 177.763 104.293C178 105.76 177.719 107.264 176.969 108.542ZM158.172 111.465C161.018 111.44 163.812 110.689 166.294 109.284C167.302 108.756 168.171 107.993 168.829 107.059C169.294 106.345 169.532 105.505 169.511 104.651C169.468 103.762 169.224 102.895 168.799 102.116C168.303 101.192 167.725 100.316 167.072 99.4987L149.194 109.973C152.062 111.058 155.112 111.565 158.172 111.465V111.465ZM169.265 91.79L184.996 82.5588C182.432 81.5119 179.687 80.9913 176.921 81.0276C174.395 81.0149 171.909 81.669 169.71 82.9253C168.823 83.3872 168.061 84.0611 167.491 84.8884C167.083 85.5173 166.891 86.2634 166.942 87.013C167.012 87.8178 167.253 88.5977 167.65 89.299C168.126 90.1698 168.668 91.0026 169.27 91.79" fill="white"/>
<path d="M338 132.303V191.186L228.875 253.983V195.099L338 132.303Z" fill="#3264FF"/>
<path d="M228.874 253.983V194.955L0 62.7715V121.8L228.874 253.983Z" fill="#3264FF"/>
<path d="M338 143.891V155.428L228.875 218.251V206.71L338 143.891Z" fill="#00D273"/>
<path d="M228.874 218.252V206.675L0 74.3601V85.937L228.874 218.252Z" fill="white"/>
<path d="M338 167.069V178.61L228.875 241.429V229.887L338 167.069Z" fill="#00D273"/>
<path d="M228.874 241.429V229.851L0 97.5371V109.11L228.874 241.429Z" fill="white"/>
<path d="M338 190.246V201.787L228.875 264.606V253.069L338 190.246Z" fill="#00D273"/>
<path d="M228.874 264.606V253.033L0 120.714V132.287L228.874 264.606Z" fill="white"/>
</svg>
