<svg width="75" height="124" viewBox="0 0 75 124" fill="none" xmlns="http://www.w3.org/2000/svg">
<path d="M17.3934 124L0.0744657 113.953L6.10352e-05 88.0005L17.319 98.0477L17.3934 124Z" fill="#280A38"/>
<path d="M49.1667 36.3955L66.4955 46.4427C61.2624 43.4048 54.0153 43.8331 46.0169 48.4432L28.6979 38.3961C36.6865 33.786 43.9261 33.3576 49.1667 36.3955Z" fill="#280A38"/>
<path d="M46.0069 48.4432C61.9022 39.2824 74.8287 46.6358 74.8808 64.8708L74.9552 90.823L17.3884 124L17.314 98.0477C17.2668 79.8128 30.1116 57.604 46.0069 48.4432Z" fill="#3264FF"/>
<path d="M17.3189 98.0477L3.5763e-05 88.0005C-0.0520475 69.7656 12.7927 47.5593 28.688 38.3961L46.0069 48.4432C30.1116 57.604 17.2669 79.8128 17.3189 98.0477Z" fill="#14B4EF"/>
<path d="M36.4012 50.6072C50.4001 50.6072 61.7484 39.2784 61.7484 25.3036C61.7484 11.3288 50.4001 0 36.4012 0C22.4023 0 11.054 11.3288 11.054 25.3036C11.054 39.2784 22.4023 50.6072 36.4012 50.6072Z" fill="#FF9F00"/>
</svg>
