<svg width="115" height="126" viewBox="0 0 115 126" fill="none" xmlns="http://www.w3.org/2000/svg">
<path d="M49.866 71.3968L3.89383 44.8109L3.85125 95.5096L3.84961 99.4141L49.8201 126L49.8234 122.097L49.866 71.3968Z" fill="#280A38"/>
<path d="M111.367 35.9375L80.6539 29.2391L49.9998 71.3051L49.8671 71.4493L49.8246 120.82L49.8213 126L111.336 90.3147L111.367 35.9375Z" fill="#FF6429"/>
<path d="M80.3075 27.2672C80.283 27.2574 46.4336 74.1073 46.4336 74.1073L47.4441 74.8329L80.6597 29.2325L113.87 36.4763L114.643 35.0187L80.3075 27.2672Z" fill="white"/>
<path d="M80.285 27.2606L34.1016 0L0 47.3069L46.434 74.1122L80.285 27.2606Z" fill="white"/>
<path d="M67.8772 7.62217L114.644 35.0237L80.285 27.2606L34.1016 0L67.8772 7.62217Z" fill="#280A38"/>
<path d="M47.9042 46.1408L41.2646 41.8597V23.3808L47.9042 27.2131V46.1408Z" fill="#280A38"/>
<path d="M54.5448 35.3594L47.9053 46.1408V27.2131L54.5448 23.3808V35.3594Z" fill="#FF6429"/>
<path d="M47.9046 29.1015L40.1416 24.6205V22.9156L47.9046 27.3982V29.1015Z" fill="#FF6429"/>
<path d="M55.6683 24.6205L47.9053 29.1015V27.3982L55.6683 22.9156V24.6205Z" fill="#280A38"/>
<path d="M47.9046 18.4347L55.6676 22.9156L47.9046 27.3982L40.1416 22.9156L47.9046 18.4347Z" fill="white"/>
<path d="M47.9039 19.8039L53.2938 22.9156L47.9039 26.0274L42.5156 22.9156L47.9039 19.8039Z" fill="#280A38"/>
<path d="M47.9053 19.8039V26.0274L53.2952 22.9156L47.9053 19.8039Z" fill="#FF6429"/>
<path d="M76.5225 78.0249L88.4487 71.1462L88.5257 103.587L76.6011 110.466L76.5225 78.0249Z" fill="#280A38"/>
<path d="M78.7115 93.6181C79.1637 93.6181 79.5303 93.2515 79.5303 92.7992C79.5303 92.347 79.1637 91.9803 78.7115 91.9803C78.2592 91.9803 77.8926 92.347 77.8926 92.7992C77.8926 93.2515 78.2592 93.6181 78.7115 93.6181Z" fill="white"/>
<path d="M90.0134 68.4308L90.0969 102.677L88.5279 103.582L88.4493 71.1414L76.5231 78.0265L76.6017 110.467L75.0327 111.373L74.9492 77.129L90.0134 68.4308Z" fill="white"/>
<path d="M80.3075 27.2672C80.283 27.2574 46.4336 74.1073 46.4336 74.1073L47.4441 74.8329L80.6597 29.2325L80.3075 27.2672Z" fill="#280A38"/>
<path d="M101.142 80.7354L96.9408 83.1609L96.9277 78.413L101.129 75.9875L101.142 80.7354Z" fill="white"/>
<path d="M101.143 81.0809L101.142 80.7354L101.129 75.9875L101.127 75.2963L101.112 70.5485L101.713 70.2029L101.726 74.9508L101.728 75.6403L101.743 80.3882V80.7337L101.143 81.0809Z" fill="#280A38"/>
<path d="M106.23 73.0411L105.931 73.2147L101.728 75.6403L101.727 74.9508L105.927 72.5252L106.229 72.3516L106.23 73.0411Z" fill="#280A38"/>
<path d="M101.112 70.5485L101.127 75.2963L96.9242 77.7235L96.9111 72.974L101.112 70.5485Z" fill="white"/>
<path d="M101.743 80.3898L101.729 75.6403L105.931 73.2148L105.944 77.9626L101.743 80.3898Z" fill="white"/>
<path d="M105.927 72.5253L101.726 74.9508L101.713 70.2029L105.914 67.7757L105.927 72.5253Z" fill="white"/>
<path d="M107.115 67.0846L105.914 67.7757L105.927 72.5252L106.229 72.3516L106.23 73.0411L105.931 73.2147L105.944 77.9626L101.743 80.3881V80.7337L101.143 81.0809L101.142 80.7354L96.9408 83.1609L96.9277 78.413V84.5497L107.147 78.6505L107.115 67.0846Z" fill="#280A38"/>
<path d="M101.126 75.298L96.9238 77.7235L96.9271 78.413L101.128 75.9875L101.126 75.298Z" fill="#280A38"/>
<path d="M62.9871 103.266L58.7862 105.692L58.7715 100.944L62.974 98.5182L62.9871 103.266Z" fill="white"/>
<path d="M62.9891 103.612L62.9875 103.266L62.9744 98.5182L62.9711 97.8287L62.958 93.0792L63.5591 92.7336L63.5722 97.4815L63.5738 98.171L63.5869 102.919L63.5885 103.264L62.9891 103.612Z" fill="#280A38"/>
<path d="M68.0761 95.5719L67.7748 95.7455L63.5739 98.1711L63.5723 97.4816L67.7731 95.056L68.0729 94.8824L68.0761 95.5719Z" fill="#280A38"/>
<path d="M62.9567 93.0792L62.9698 97.8287L58.769 100.254L58.7559 95.5048L62.9567 93.0792Z" fill="white"/>
<path d="M63.5863 102.919L63.5732 98.171L67.7741 95.7455L67.7889 100.493L63.5863 102.919Z" fill="white"/>
<path d="M67.7716 95.056L63.5707 97.4816L63.5576 92.7337L67.7585 90.3065L67.7716 95.056Z" fill="white"/>
<path d="M68.9584 89.6154L67.7596 90.3065L67.7727 95.056L68.0724 94.8824L68.0756 95.5719L67.7743 95.7455L67.789 100.493L63.5865 102.919L63.5882 103.265L62.9887 103.612L62.9871 103.266L58.7862 105.692L58.7715 100.944V107.082L68.9912 101.181L68.9584 89.6154Z" fill="#280A38"/>
<path d="M62.972 97.8287L58.7695 100.254L58.7712 100.944L62.9737 98.5182L62.972 97.8287Z" fill="#280A38"/>
<path d="M82.1541 56.277L77.9516 58.7025L77.9385 53.953L82.1393 51.5275L82.1541 56.277Z" fill="white"/>
<path d="M82.1535 56.6209V56.277L82.1388 51.5275L82.1371 50.838L82.124 46.0901L82.7251 45.7429L82.7382 50.4907L82.7398 51.1802L82.7529 55.9298L82.7546 56.2753L82.1535 56.6209Z" fill="#280A38"/>
<path d="M87.2405 48.5827L86.9408 48.7547L82.7399 51.1802L82.7383 50.4907L86.9392 48.0652L87.2389 47.8932L87.2405 48.5827Z" fill="#280A38"/>
<path d="M82.1237 46.09L82.1368 50.8379L77.936 53.2634L77.9229 48.5156L82.1237 46.09Z" fill="white"/>
<path d="M82.7533 55.9298L82.7402 51.1802L86.9411 48.7547L86.9542 53.5042L82.7533 55.9298Z" fill="white"/>
<path d="M86.9396 48.0652L82.7387 50.4907L82.7256 45.7428L86.9265 43.3173L86.9396 48.0652Z" fill="white"/>
<path d="M88.1254 42.6245L86.9265 43.3173L86.9396 48.0652L87.2394 47.8932L87.241 48.5827L86.9413 48.7547L86.9544 53.5042L82.7535 55.9298L82.7552 56.2737L82.1541 56.6209V56.277L77.9516 58.7025L77.9385 53.953V60.0913L88.1581 54.1905L88.1254 42.6245Z" fill="#280A38"/>
<path d="M82.1374 50.8379L77.9365 53.2635L77.9382 53.953L82.139 51.5274L82.1374 50.8379Z" fill="#280A38"/>
</svg>
