<svg width="286" height="286" viewBox="0 0 286 286" fill="none" xmlns="http://www.w3.org/2000/svg">
<path d="M280.43 146.139C287.791 150.39 287.83 157.15 280.702 161.511L108.387 261.662C101.069 265.916 89.2069 265.805 82.0319 261.662L5.53764 217.507C-1.82687 213.256 -1.67671 206.385 5.45184 202.245L177.788 102.091C185.103 97.8407 196.965 97.9516 204.14 102.091L280.43 146.139ZM251.73 169.598L257.954 165.984L244.466 158.197L170.145 115.297L96.3033 158.197L76.6801 169.602L28.2031 197.776L37.3301 203.06L57.082 214.464L116.012 248.463L174.285 214.59L180.441 211.015L193.908 203.189L251.712 169.584" fill="#3264FF"/>
<path d="M244.466 158.197L96.3035 158.194L170.145 115.287L244.466 158.197Z" fill="#A1E1F9"/>
<path d="M251.73 169.598L193.926 203.192L193.74 169.598H251.73Z" fill="#00D273"/>
<path d="M174.049 169.598L174.238 203.046H37.3303L28.1997 197.773L76.6803 169.598H174.049Z" fill="#00D273"/>
<path d="M257.954 165.984L251.73 169.598H193.74L193.926 203.192L180.455 211.018L174.556 214.446H57.082L37.3301 203.046H174.238L174.049 169.598H76.6801L96.3033 158.194L244.466 158.197L257.954 165.984Z" fill="#FF9F00"/>
<path d="M70.7851 235.682C72.3116 236.562 72.3188 237.995 70.803 238.875C69.9487 239.31 69.0036 239.536 68.0449 239.536C67.0862 239.536 66.1411 239.31 65.2868 238.875L44.9307 227.12C43.4042 226.241 43.3935 224.811 44.9128 223.928C45.7671 223.492 46.7122 223.266 47.671 223.266C48.6297 223.266 49.5748 223.492 50.4291 223.928L70.7851 235.682Z" fill="white"/>
<path d="M174.303 214.446L116.012 248.47L57.082 214.446H174.303Z" fill="#A1E1F9"/>
<path d="M231.41 130.545C232.936 131.428 232.943 132.858 231.428 133.741C229.912 134.624 227.438 134.62 225.911 133.741C224.385 132.861 224.374 131.428 225.911 130.545C227.449 129.662 229.872 129.662 231.41 130.545Z" fill="white"/>
<path d="M286 153.89L285.939 175.082C285.939 177.814 284.152 180.548 280.645 182.701L280.702 161.512C284.213 159.359 286 156.621 286 153.89Z" fill="#280A38"/>
<path d="M0 231.024L0.0607743 209.835C0.0607743 212.602 1.84827 215.383 5.53767 217.507L5.4769 238.7C1.7875 236.572 0 233.805 0 231.024Z" fill="#280A38"/>
<path d="M280.702 161.512L280.641 182.701L108.308 282.851L108.369 261.662L280.702 161.512Z" fill="#280A38"/>
<path d="M82.014 261.662L81.9568 282.851L5.47681 238.696L5.53758 217.507L82.014 261.662Z" fill="#280A38"/>
<path d="M108.369 261.662L108.323 282.851C101.004 287.105 89.1462 286.994 81.9712 282.851L82.0284 261.662C89.1891 265.805 101.051 265.916 108.369 261.662Z" fill="#280A38"/>
<path d="M133.226 19.6627C160.711 4.19724 182.965 17.0923 183.054 48.7632C183.024 57.001 181.793 65.1903 179.401 73.0732C179.229 73.563 175.954 82.8294 174.249 86.6761L133.08 193.994L91.4272 134.51C89.7076 132.643 86.39 127.181 86.2148 126.895C83.7123 121.493 82.4611 114.74 82.4361 106.875C82.3467 75.2039 104.458 36.6976 131.936 20.4528C132.154 20.3062 132.368 20.1918 132.586 20.0631L133.226 19.6627ZM132.822 103.35C147.211 95.0416 158.845 74.8929 158.798 58.3513C158.752 41.8098 147.04 35.1353 132.651 43.4436C118.261 51.7519 106.621 71.9042 106.667 88.4457C106.714 104.987 118.426 111.662 132.822 103.35" fill="#F0324E"/>
<path d="M132.651 43.4577C147.04 35.1494 158.748 41.8239 158.798 58.3655C158.848 74.907 147.212 95.0557 132.822 103.364C118.433 111.672 106.725 105.005 106.667 88.4598C106.61 71.9147 118.254 51.7696 132.651 43.4577Z" fill="white"/>
<path d="M168.383 16.5382L145.774 3.39649C136.765 -1.84088 124.342 -1.19023 110.611 6.53534C110.393 6.66047 110.182 6.79274 109.967 6.91429C109.753 7.03584 109.538 7.15382 109.32 7.30397C81.839 23.5452 59.7312 62.0551 59.8206 93.726C59.842 101.591 61.1076 108.351 63.5994 113.746C63.7745 114.036 67.0886 119.498 68.8117 121.364L110.468 180.852L133.087 193.994L91.4272 134.51C89.7076 132.643 86.39 127.181 86.2148 126.895C83.7123 121.493 82.4611 114.74 82.436 106.875C82.3467 75.204 104.458 36.6976 131.935 20.4528C132.154 20.3062 132.368 20.1918 132.586 20.0631L133.226 19.6842C146.958 11.9515 159.381 11.3044 168.383 16.5382Z" fill="#280A38"/>
</svg>
