<svg width="138" height="112" viewBox="0 0 138 112" fill="none" xmlns="http://www.w3.org/2000/svg">
<path d="M13.1616 111.881L0.056407 104.266L0 84.5919L13.1052 92.2092L13.1616 111.881Z" fill="#280A38"/>
<path d="M37.2146 45.4759L50.3198 53.0908C46.3596 50.7899 40.8763 51.1142 34.8243 54.6091L21.7026 46.9918C27.7617 43.4969 33.2449 43.1726 37.2146 45.4759Z" fill="#280A38"/>
<path d="M34.8152 54.6091C46.8416 47.664 56.6259 53.2389 56.6729 67.0657L56.7293 86.7376L13.1713 111.886L13.1149 92.2138C13.0679 78.387 22.7864 61.5519 34.8152 54.6091Z" fill="#14B4EF"/>
<path d="M13.1053 92.2092L0.000108764 84.5919C-0.0374959 70.7722 9.68097 53.937 21.7098 46.9872L34.815 54.6045C22.7862 61.5519 13.0677 78.3871 13.1053 92.2092Z" fill="#43C3F2"/>
<path d="M62.4473 106.12L51.0437 99.4949L50.9873 66.0291L62.3933 72.6569L62.4473 106.12Z" fill="#280A38"/>
<path d="M88.2676 26.8356L99.6713 33.4635C95.704 31.1578 90.209 31.4822 84.1452 34.9841L72.7393 28.3469C78.8148 24.8543 84.3003 24.53 88.2676 26.8356Z" fill="#280A38"/>
<path d="M84.1451 34.9841C96.1951 28.0248 106.003 33.6115 106.038 47.4594L106.092 80.9229L62.4495 106.123L62.3931 72.6569C62.3626 58.809 72.0928 41.9409 84.1451 34.9841Z" fill="#00D273"/>
<path d="M62.393 72.6569L50.9894 66.0291C50.9494 52.1812 60.689 35.3131 72.739 28.3563L84.145 34.9841C72.0927 41.941 62.3625 58.809 62.393 72.6569Z" fill="#33DB8F"/>
<path d="M27.5455 56.2472C38.1387 56.2472 46.7262 47.6597 46.7262 37.0665C46.7262 26.4733 38.1387 17.8857 27.5455 17.8857C16.9523 17.8857 8.36475 26.4733 8.36475 37.0665C8.36475 47.6597 16.9523 56.2472 27.5455 56.2472Z" fill="#FF9F00"/>
<path d="M79.3882 36.627C89.5025 36.627 97.7017 28.4277 97.7017 18.3135C97.7017 8.19923 89.5025 0 79.3882 0C69.2739 0 61.0747 8.19923 61.0747 18.3135C61.0747 28.4277 69.2739 36.627 79.3882 36.627Z" fill="#FF9F00"/>
<path d="M106.781 86.841L97.3871 81.3812L97.3472 67.2795L106.744 72.7392L106.781 86.841Z" fill="#280A38"/>
<path d="M124.02 39.2358L133.422 44.6956C130.583 43.0504 126.65 43.2854 122.312 45.7838L112.911 40.324C117.249 37.8186 121.181 37.5859 124.02 39.2358Z" fill="#280A38"/>
<path d="M122.295 45.7837C130.918 40.8058 137.932 44.8013 137.96 54.7148L138 68.8166L106.783 86.841L106.743 72.7393C106.715 62.8304 113.681 50.7617 122.295 45.7837Z" fill="#3264FF"/>
<path d="M106.744 72.7392L97.3424 67.2795C97.3142 57.3707 104.28 45.3019 112.904 40.324L122.305 45.7837C113.682 50.7616 106.715 62.8304 106.744 72.7392Z" fill="#5B83FF"/>
<path d="M117.094 46.9589C124.687 46.9589 130.843 40.8031 130.843 33.2097C130.843 25.6162 124.687 19.4604 117.094 19.4604C109.5 19.4604 103.345 25.6162 103.345 33.2097C103.345 40.8031 109.5 46.9589 117.094 46.9589Z" fill="#FF9F00"/>
</svg>
