<svg width="222" height="208" viewBox="0 0 222 208" fill="none" xmlns="http://www.w3.org/2000/svg">
<path d="M169.602 17.7091L169.378 97.0237H99.3086L99.5327 17.7091H169.602Z" fill="white"/>
<path d="M222 53.1273L221.776 132.442L191.371 150.151L191.595 70.8406L222 53.1273Z" fill="white"/>
<path d="M191.595 70.8407L191.371 150.151L191.143 109.47L191.367 30.16L191.595 70.8407Z" fill="#280A38"/>
<path d="M52.6177 110.976L52.3936 190.291L191.143 109.47L191.367 30.16L52.6177 110.976Z" fill="#280A38"/>
<path d="M122.688 110.976L122.464 190.291L92.0625 207.996L92.2866 128.685L122.688 110.976Z" fill="white"/>
<path d="M92.2865 128.685L92.0624 207.996L0.294922 208L0.519039 128.69L92.2865 128.685Z" fill="#280A38"/>
<path d="M0.224117 75.5581L0 154.869L0.294672 208L0.518789 128.69L0.224117 75.5581Z" fill="white"/>
<path d="M221.702 0H129.938L99.5332 17.7091H169.603L30.8539 98.5296L30.6298 57.849L0.224609 75.5581L0.519281 128.69L92.2868 128.685L122.688 110.976H52.6181L191.367 30.16L191.595 70.8406L222.001 53.1274L221.702 0Z" fill="#00D273"/>
</svg>
