<svg width="231" height="289" viewBox="0 0 231 289" fill="none" xmlns="http://www.w3.org/2000/svg">
<path d="M179.903 184.698L164.532 175.765L164.467 152.687L179.838 161.621L179.903 184.698Z" fill="#280A38"/>
<path d="M208.111 106.805L223.494 115.738C218.848 113.046 212.414 113.431 205.315 117.519L189.933 108.585C197.028 104.486 203.465 104.105 208.111 106.805Z" fill="#280A38"/>
<path d="M205.303 117.519C219.413 109.374 230.888 115.911 230.935 132.132L231 155.206L179.907 184.702L179.841 161.628C179.795 145.411 191.194 125.671 205.303 117.519Z" fill="#3264FF"/>
<path d="M179.841 161.625L164.459 152.691C164.412 136.478 175.815 116.731 189.924 108.585L205.307 117.519C191.194 125.672 179.795 145.411 179.841 161.625Z" fill="#5B83FF"/>
<path d="M196.778 119.438C209.202 119.438 219.275 109.365 219.275 96.9406C219.275 84.5159 209.202 74.4436 196.778 74.4436C184.353 74.4436 174.281 84.5159 174.281 96.9406C174.281 109.365 184.353 119.438 196.778 119.438Z" fill="#FF9F00"/>
<path d="M21.5356 288.888L0.0922953 276.425L0 244.237L21.4433 256.7L21.5356 288.888Z" fill="#280A38"/>
<path d="M60.892 180.233L82.3353 192.693C75.8554 188.928 66.8835 189.459 56.9809 195.178L35.5107 182.714C45.4248 176.995 54.3967 176.465 60.892 180.233Z" fill="#280A38"/>
<path d="M56.9661 195.178C76.6442 183.814 92.6536 192.936 92.7305 215.559L92.8228 247.747L21.5516 288.896L21.4593 256.708C21.3823 234.084 37.2841 206.538 56.9661 195.178Z" fill="#14B4EF"/>
<path d="M21.4435 256.7L0.000177963 244.237C-0.0613523 221.624 15.8404 194.078 35.5223 182.706L56.9656 195.17C37.2837 206.538 21.3819 234.084 21.4435 256.7Z" fill="#43C3F2"/>
<path d="M102.179 279.462L83.5195 268.622L83.4272 213.864L102.09 224.708L102.179 279.462Z" fill="#280A38"/>
<path d="M144.427 149.734L163.086 160.578C156.594 156.806 147.603 157.336 137.681 163.066L119.019 152.206C128.96 146.492 137.935 145.961 144.427 149.734Z" fill="#280A38"/>
<path d="M137.682 163.067C157.398 151.68 173.446 160.821 173.504 183.479L173.592 238.233L102.183 279.466L102.09 224.708C102.04 202.05 117.961 174.45 137.682 163.067Z" fill="#00D273"/>
<path d="M102.09 224.708L83.4314 213.864C83.366 191.205 99.3023 163.605 119.019 152.222L137.682 163.067C117.961 174.45 102.04 202.05 102.09 224.708Z" fill="#33DB8F"/>
<path d="M45.0708 197.858C62.4038 197.858 76.4551 183.807 76.4551 166.474C76.4551 149.141 62.4038 135.09 45.0708 135.09C27.7377 135.09 13.6865 149.141 13.6865 166.474C13.6865 183.807 27.7377 197.858 45.0708 197.858Z" fill="#FF9F00"/>
<path d="M129.898 165.755C146.447 165.755 159.863 152.339 159.863 135.789C159.863 119.24 146.447 105.824 129.898 105.824C113.349 105.824 99.9326 119.24 99.9326 135.789C99.9326 152.339 113.349 165.755 129.898 165.755Z" fill="#FF9F00"/>
<path d="M171.062 272.979L155.764 264.087L155.698 241.121L170.996 250.012L171.062 272.979Z" fill="#280A38"/>
<path d="M199.127 195.462L214.425 204.354C209.81 201.662 203.404 202.046 196.351 206.123L181.057 197.235C188.106 193.155 194.505 192.778 199.127 195.462Z" fill="#280A38"/>
<path d="M196.335 206.122C210.376 198.02 221.797 204.526 221.843 220.659L221.909 243.621L171.062 272.979L170.996 250.013C170.95 233.88 182.295 214.229 196.335 206.122Z" fill="#B066FF"/>
<path d="M170.996 250.013L155.698 241.125C155.652 224.974 167.001 205.342 181.041 197.235L196.335 206.122C182.295 214.229 170.95 233.88 170.996 250.013Z" fill="#C085FF"/>
<path d="M187.852 208.037C200.217 208.037 210.241 198.013 210.241 185.648C210.241 173.283 200.217 163.259 187.852 163.259C175.486 163.259 165.462 173.283 165.462 185.648C165.462 198.013 175.486 208.037 187.852 208.037Z" fill="#FF9F00"/>
<path d="M76.759 101.598C77.1436 101.644 77.5282 101.678 77.932 101.698L75.6246 107.631L74.4517 107.531L76.759 101.598Z" fill="#280A38"/>
<path d="M91.1302 26.3269C110.085 15.3822 125.503 24.1657 125.564 45.9397C125.626 67.7137 110.308 94.2486 91.3379 105.193C72.3673 116.138 56.9655 107.351 56.904 85.5805C56.8425 63.8104 72.175 37.2716 91.1302 26.3269Z" fill="#F5F5F5"/>
<path d="M91.0995 15.4939C115.262 1.54196 134.913 12.7405 134.994 40.4906C135.074 68.2407 115.546 102.09 91.3841 116.057C67.222 130.025 47.5669 118.811 47.49 91.0608C47.4131 63.3106 66.9374 29.4421 91.0995 15.4939ZM91.3533 105.205C110.308 94.2603 125.626 67.7331 125.58 45.9514C125.533 24.1697 110.101 15.3824 91.1457 26.3386C72.1905 37.2949 56.8733 63.8106 56.9195 85.5923C56.9656 107.374 72.3982 116.161 91.3533 105.205Z" fill="#B066FF"/>
<path d="M105.886 2.94941C97.9293 -1.66535 86.9153 -1.02313 74.7362 5.99901C50.5971 19.9471 31.0728 53.758 31.1536 81.5312C31.192 95.3255 36.0606 105.028 43.9134 109.604L60.2535 119.099C52.3969 114.534 47.5283 104.832 47.4898 91.0261C47.4091 63.2606 66.9334 29.442 91.0994 15.4939C103.259 8.47175 114.273 7.80261 122.23 12.4443L105.886 2.94941Z" fill="#280A38"/>
<path d="M105.886 84.7844L108.193 88.0494L107.039 89.5223L104.713 86.2573C105.108 85.7676 105.499 85.2767 105.886 84.7844Z" fill="#280A38"/>
<path d="M115.827 66.9792L119.838 67.3254L119.165 69.0597L115.154 68.7175C115.385 68.1406 115.609 67.5612 115.827 66.9792Z" fill="#280A38"/>
<path d="M123.81 46.1821V47.7204L119.195 50.3893C119.195 50.1278 119.195 49.8663 119.195 49.6201C119.195 49.374 119.195 49.101 119.195 48.851L123.81 46.1821Z" fill="#280A38"/>
<path d="M119.058 30.2996L119.734 31.2533L115.743 36.2218C115.523 35.8911 115.297 35.5719 115.058 35.2681L119.058 30.2996Z" fill="#280A38"/>
<path d="M66.7412 95.3218C66.9604 95.6525 67.1873 95.9717 67.4219 96.2755L63.4263 101.244L62.7456 100.29L66.7412 95.3218Z" fill="#280A38"/>
<path d="M106.847 23.9004L108.02 24.0004L105.713 29.9342C105.328 29.8842 104.944 29.8534 104.54 29.8342L106.847 23.9004Z" fill="#280A38"/>
<path d="M92.6917 66.1023C92.8941 65.6779 93.0029 65.2149 93.0109 64.7448C93.025 64.4319 92.9402 64.1224 92.7686 63.8603C92.6475 63.6832 92.463 63.5594 92.2533 63.5142L92.1533 63.495L93.0494 43.2092L91.365 44.0706L90.4689 64.3718C89.8688 65.0385 89.5158 65.891 89.4691 66.7868C89.4487 67.1447 89.5656 67.4967 89.796 67.7713C89.9443 67.9261 90.1438 68.0218 90.3574 68.0405C90.6709 68.0535 90.9809 67.9703 91.2458 67.8021C91.3122 67.7634 91.3763 67.721 91.438 67.6752L102.737 83.9576L103.998 82.4194L92.6917 66.1023Z" fill="#280A38"/>
<path d="M63.2915 81.1235C63.2915 81.385 63.2915 81.6465 63.2915 81.8927C63.2915 82.1388 63.2915 82.408 63.2915 82.6618L58.6768 85.3345V83.7962L63.2915 81.1235Z" fill="#280A38"/>
<path d="M91.938 27.75L91.9572 34.0722L90.3459 35.0029L90.3267 28.6806L91.938 27.75Z" fill="#280A38"/>
<path d="M63.3146 62.4724L67.3257 62.8147C67.0949 63.3915 66.868 63.9684 66.6527 64.5491L62.6455 64.2068L63.3146 62.4724Z" fill="#280A38"/>
<path d="M75.4476 42.0288L77.755 45.2938C77.3602 45.7706 76.9756 46.2552 76.6013 46.7474L74.2939 43.4825L75.4476 42.0288Z" fill="#280A38"/>
<path d="M92.1759 96.1831L92.1951 102.751L90.4954 103.728L90.48 97.1637L92.1759 96.1831Z" fill="#280A38"/>
<path d="M110.381 32.1147L110.92 32.4224L92.7683 63.8605C92.6471 63.6834 92.4627 63.5596 92.2529 63.5144L110.381 32.1147Z" fill="#FF6429"/>
<path d="M89.796 67.7715C89.9443 67.9263 90.1439 68.022 90.3575 68.0407L85.6312 76.2204L85.0928 75.9165L89.796 67.7715Z" fill="#FF6429"/>
</svg>
