<svg width="128" height="121" viewBox="0 0 128 121" fill="none" xmlns="http://www.w3.org/2000/svg">
<path d="M0 89.2113L54.8026 121V64.3706L0 32.5798V89.2113Z" fill="#280A38"/>
<path d="M54.8026 121L109.603 89.2113V32.5798L54.8026 64.3706V121Z" fill="#FF9F00"/>
<path d="M0 32.5799L54.8026 64.3706L109.603 32.5799L54.8026 0.79126L0 32.5799Z" fill="white"/>
<path d="M20.6102 20.6772L75.3502 52.3883L88.993 44.4616L34.2529 12.7505L20.6102 20.6772Z" fill="#B066FF"/>
<path d="M75.3523 52.4658L88.993 44.4783V60.2584L75.3502 68.248L75.3523 52.4658Z" fill="#8D52CC"/>
<path d="M99.6422 110.998C99.83 111.021 100.022 111.038 100.214 111.049L99.0957 113.951L98.5241 113.901L99.6422 110.998Z" fill="#280A38"/>
<path d="M106.641 74.1731C115.872 68.8202 123.377 73.1252 123.409 83.7745C123.44 94.4238 115.98 107.41 106.749 112.765C97.5186 118.12 90.013 113.813 89.9817 103.164C89.9504 92.5144 97.4101 79.5282 106.641 74.1731Z" fill="#F5F5F5"/>
<path d="M106.626 68.8725C118.392 62.0483 127.96 67.527 128 81.1105C128.04 94.6941 118.531 111.239 106.764 118.063C94.9966 124.888 85.43 119.409 85.3903 105.828C85.3507 92.2461 94.861 75.6989 106.626 68.8725ZM106.749 112.765C115.98 107.41 123.438 94.43 123.409 83.7744C123.379 73.1188 115.872 68.8201 106.641 74.1731C97.4101 79.526 89.9525 92.506 89.9817 103.164C90.0109 113.821 97.5186 118.118 106.749 112.765" fill="#B066FF"/>
<path d="M113.829 62.7379C109.956 60.4743 104.592 60.795 98.6701 64.2281C86.9048 71.0544 77.3924 87.5974 77.4362 101.183C77.455 107.93 79.8268 112.677 83.6505 114.911L91.6067 119.556C87.7809 117.324 85.4112 112.574 85.3903 105.828C85.3527 92.242 94.8589 75.699 106.626 68.8726C112.546 65.4395 117.912 65.1188 121.786 67.3824L113.829 62.7379Z" fill="#280A38"/>
<path d="M113.823 102.774L114.954 104.371L114.386 105.082L113.254 103.484C113.446 103.25 113.635 103.013 113.823 102.774Z" fill="#280A38"/>
<path d="M118.667 94.0634L120.62 94.231L120.292 95.082L118.339 94.9122C118.446 94.6397 118.563 94.3463 118.667 94.0634Z" fill="#280A38"/>
<path d="M122.553 83.8876V84.6484L120.302 85.9563C120.302 85.8263 120.302 85.7006 120.302 85.5727C120.302 85.4449 120.302 85.3191 120.302 85.1955L122.553 83.8876Z" fill="#280A38"/>
<path d="M120.24 76.1118L120.569 76.5792L118.625 79.0084C118.52 78.8477 118.409 78.6926 118.294 78.5431L120.24 76.1118Z" fill="#280A38"/>
<path d="M94.7651 107.928C94.8715 108.089 94.9737 108.246 95.0967 108.395L93.1505 110.826L92.8209 110.359L94.7651 107.928Z" fill="#280A38"/>
<path d="M114.295 72.9868L114.866 73.035L113.748 75.94C113.56 75.9148 113.368 75.898 113.177 75.8896L114.295 72.9868Z" fill="#280A38"/>
<path d="M107.402 93.6337C107.5 93.4257 107.553 93.1992 107.557 92.9693C107.564 92.816 107.523 92.6643 107.44 92.5354C107.379 92.4499 107.289 92.3895 107.187 92.3657H107.139L107.575 82.4415L106.756 82.8607L106.32 92.7911C106.027 93.117 105.855 93.5346 105.834 93.9732C105.823 94.148 105.879 94.3204 105.99 94.4553C106.063 94.5306 106.161 94.5767 106.265 94.5852C106.455 94.582 106.639 94.5198 106.791 94.4071L112.292 102.372L112.918 101.611L107.402 93.6337Z" fill="#280A38"/>
<path d="M93.0857 100.982C93.0857 101.11 93.0857 101.238 93.0857 101.365C93.0857 101.493 93.0857 101.617 93.0857 101.743L90.8349 103.048V102.29L93.0857 100.982Z" fill="#280A38"/>
<path d="M107.035 74.8711L107.043 77.9646L106.259 78.4195L106.251 75.328L107.035 74.8711Z" fill="#280A38"/>
<path d="M93.0983 91.8563L95.0508 92.024C94.9361 92.307 94.8276 92.5899 94.7233 92.8749L92.7708 92.7052L93.0983 91.8563Z" fill="#280A38"/>
<path d="M99.0059 81.8546L100.137 83.4517C99.9447 83.685 99.7548 83.9219 99.5671 84.1622L98.4365 82.5651L99.0059 81.8546Z" fill="#280A38"/>
<path d="M107.15 108.351L107.16 111.564L106.334 112.042L106.324 108.831L107.15 108.351Z" fill="#280A38"/>
<path d="M116.016 77.0047L116.278 77.1556L107.44 92.5438C107.379 92.4582 107.289 92.3978 107.188 92.374L116.016 77.0047Z" fill="#FF6429"/>
<path d="M105.99 94.451C106.063 94.5263 106.161 94.5725 106.265 94.581L103.971 98.5842L103.708 98.4333L105.99 94.451Z" fill="#FF6429"/>
</svg>
