<svg width="370" height="219" viewBox="0 0 370 219" fill="none" xmlns="http://www.w3.org/2000/svg">
<path d="M270.192 59.7827L270.206 64.4169L316.183 55.7265L316.169 51.0923L270.192 59.7827Z" fill="#FF9F00"/>
<path d="M127.433 58.2056L127.446 62.8398L135.614 67.5851L135.6 62.9508L127.433 58.2056Z" fill="#00D273"/>
<path d="M100.626 61.3783L135.6 62.9508L127.432 58.2056L100.626 61.3783Z" fill="#66E4AB"/>
<path d="M127.433 58.2056L135.6 62.9509L287.268 34.299L228.248 0L127.433 58.2056Z" fill="#00D273"/>
<path d="M135.601 62.9509L135.614 67.5852L287.277 38.9333L287.268 34.2991L135.601 62.9509Z" fill="#00D273"/>
<path d="M100.626 61.3784L100.635 66.008L135.614 67.5852L135.6 62.9509L100.626 61.3784Z" fill="#33DB8F"/>
<path d="M23.5645 97.0972L23.5783 101.731L55.1208 79.1985L55.107 74.5642L23.5645 97.0972Z" fill="#FFBB24"/>
<path d="M43.9512 68.0847L43.965 72.719L55.6062 79.4807L55.5923 74.8511L43.9512 68.0847Z" fill="#FFB233"/>
<path d="M55.5923 74.8511L55.6062 79.4807L71.5624 80.2022L71.5532 75.568L55.5923 74.8511Z" fill="#FFB233"/>
<path d="M135.601 62.9509L135.614 67.5852L164.516 84.3786L164.502 79.7489L135.601 62.9509Z" fill="#FF9F00"/>
<path d="M164.502 79.749L164.516 84.3786L235.408 70.9892L235.394 66.355L164.502 79.749Z" fill="#FF9F00"/>
<path d="M121.526 77.811L121.54 82.4453L164.516 84.3785L164.502 79.7489L121.526 77.811Z" fill="#FFB233"/>
<path d="M71.5532 75.5679L71.5625 80.2021L73.7825 90.0441L73.7686 85.4145L71.5532 75.5679Z" fill="#FFB233"/>
<path d="M130.693 118.492L130.707 123.127L185.703 155.085L185.694 150.456L130.693 118.492Z" fill="#33DB8F"/>
<path d="M130.208 118.21L160.964 185.851L185.203 150.169L130.208 118.21Z" fill="#00D273"/>
<path d="M130.208 118.21L130.221 122.845L160.978 190.485L160.964 185.851L130.208 118.21Z" fill="#00D273"/>
<path d="M73.2832 85.1277L128.441 206.418L141.738 214.147L160.964 185.851L130.208 118.21L73.2832 85.1277Z" fill="#FF9F00"/>
<path d="M130.693 118.493L130.698 119.283L130.207 118.21L130.217 120.944L121.54 82.4453L121.526 77.811L130.693 118.493Z" fill="#33DB8F"/>
<path d="M73.7732 86.2052V90.0439L76.1319 91.4314L73.7732 86.2052ZM130.698 119.283V118.492L73.7686 85.4097L130.194 118.21L130.698 119.283Z" fill="#FFB233"/>
<path d="M73.2832 85.1277L73.2971 89.7619L128.455 211.053L128.441 206.418L73.2832 85.1277Z" fill="#FF9F00"/>
<path d="M55.5923 74.8511L55.6062 79.4807L73.7824 90.0442L73.7685 85.4146L55.5923 74.8511Z" fill="#3264FF"/>
<path d="M55.5923 74.8511L73.7685 85.4146L71.5532 75.568L55.5923 74.8511Z" fill="#5B83FF"/>
<path d="M43.4658 67.8025L23.5645 97.0972L55.107 74.5642L43.4658 67.8025Z" fill="#FF9F00"/>
<path d="M43.9512 68.0847L55.5923 74.851L71.5532 75.5679L73.7685 85.4145L130.693 118.493L121.526 77.811L164.502 79.7489L135.6 62.9509L100.626 61.3784L43.9512 68.0847Z" fill="#FFC566"/>
<path d="M270.192 59.7827L304.038 120.444L369.986 82.3712L316.169 51.0923L270.192 59.7827Z" fill="#A1E1F9"/>
<path d="M270.192 59.7827L270.206 64.417L304.052 125.078L304.038 120.444L270.192 59.7827Z" fill="#A1E1F9"/>
<path d="M304.038 120.444L304.052 125.078L370 87.0053L369.986 82.3711L304.038 120.444Z" fill="white"/>
<path d="M135.601 62.9509L164.502 79.7489L235.394 66.3549L274.947 137.242L304.038 120.444L270.193 59.7828L316.17 51.0924L287.268 34.2991L135.601 62.9509Z" fill="#FF9F00"/>
<path d="M274.947 137.242L274.961 141.872L304.052 125.079L304.039 120.444L274.947 137.242Z" fill="white"/>
<path d="M235.394 66.355L235.408 70.9892L274.961 141.872L274.947 137.242L235.394 66.355Z" fill="#FF9F00"/>
<path d="M269.175 140.577L269.184 145.206L274.961 141.872L274.947 137.242L269.175 140.577Z" fill="white"/>
<path d="M164.502 79.749L164.516 84.3787L269.185 145.207L269.175 140.577L164.502 79.749Z" fill="white"/>
<path d="M164.502 79.749L269.175 140.577L274.947 137.242L235.394 66.355L164.502 79.749Z" fill="#00D273"/>
<path d="M185.694 150.456L185.703 155.085L269.184 145.206L269.175 140.577L185.694 150.456Z" fill="white"/>
<path d="M121.526 77.811L130.693 118.493L185.694 150.456L269.175 140.577L164.502 79.7489L121.526 77.811Z" fill="#66E4AB"/>
<path d="M160.964 185.851L160.978 190.485L185.217 154.803L185.203 150.169L160.964 185.851Z" fill="white"/>
<path d="M55.1069 74.5642L23.5644 97.0972L0 131.78L128.441 206.418L73.2831 85.1277L55.1069 74.5642Z" fill="#3264FF"/>
<path d="M0 131.78L0.013875 136.41L128.455 211.053L128.441 206.418L0 131.78Z" fill="#280A38"/>
<path d="M128.441 206.418L128.455 211.053L141.752 218.781L141.738 214.147L128.441 206.418Z" fill="#280A38"/>
<path d="M141.738 214.147L141.752 218.781L160.978 190.485L160.964 185.851L141.738 214.147Z" fill="white"/>
<path opacity="0.5" d="M292.3 70.4434C292.022 76.3912 288.664 82.2927 282.49 87.5236C281.065 88.7584 271.566 95.2103 265.428 97.3332C254.328 101.19 241.582 103.905 228.179 103.905C210.456 103.905 193.954 99.9926 181.707 92.8654C172.387 87.4542 166.592 80.7757 165.029 73.7827C166.879 66.6879 172.646 57.1327 183.011 51.6798C208.245 38.3783 249.273 38.4107 274.387 51.6798C284.345 56.9847 290.292 63.6031 292.3 70.4434Z" fill="white"/>
<path opacity="0.5" d="M168.267 66.022H290.45C291.229 67.4225 291.85 68.9055 292.3 70.4435C292.083 75.0685 289.988 79.6935 286.14 83.9855H170.515C167.67 80.748 165.806 77.307 165.02 73.7827C165.758 71.0649 166.85 68.4557 168.267 66.022V66.022Z" fill="white"/>
<path d="M183.02 42.0414C208.254 28.7445 249.278 28.7676 274.397 42.0414C289.229 49.9039 295.251 60.6801 292.466 70.906C290.589 63.8899 284.567 57.1004 274.397 51.703C249.278 38.4061 208.259 38.3784 183.02 51.6706C172.651 57.1281 166.879 66.6926 165.034 73.7781C162.189 63.506 167.989 49.9363 183.02 42.0414Z" fill="#280A38"/>
<path d="M299.237 69.9624L299.265 80.0449C299.265 85.7753 297.373 92.3983 295.505 95.423C293.354 98.8964 290.653 101.954 284.044 106.939L282.541 96.2417C282.541 96.2417 297.521 78.7129 299.237 69.9624Z" fill="#280A38"/>
<path d="M273.56 98.1103C265.198 101.389 262.196 102.379 259.139 103.276C253.179 104.996 247.08 106.189 240.912 106.842C230.09 108.016 219.158 107.675 208.431 105.829C197.95 103.956 187.512 100.631 178.29 95.0531C164.59 86.7744 157.713 71.0771 157.713 71.0771L157.755 78.6806C157.782 89.5587 164.632 100.418 178.322 108.711C183.521 111.808 189.061 114.292 194.833 116.111C205.235 119.411 216.078 121.115 226.991 121.166C238.267 121.166 259.144 119.746 273.56 112.184V98.1103Z" fill="#280A38"/>
<path d="M302.429 111.477C299.524 114.693 297.612 118.681 296.925 122.96C296.809 123.703 296.749 124.452 296.745 125.204C296.745 128.376 297.873 130.615 299.677 131.679L352.818 162.624C351.005 161.57 349.886 159.341 349.881 156.149C349.881 151.645 351.889 147.08 354.613 143.579C355.958 141.799 357.601 140.266 359.469 139.046C361.226 137.936 363.488 137.057 365.592 137.525C366.11 137.633 366.608 137.822 367.068 138.084C367.068 138.084 313.816 107.097 313.755 107.046C309.718 104.858 304.982 108.674 302.429 111.477Z" fill="#FF9F00"/>
<path d="M359.904 138.778C354.354 142.016 349.858 149.772 349.877 156.145C349.895 162.518 354.391 165.117 359.968 161.898C365.546 158.679 370 150.905 370 144.541C370 138.177 365.454 135.578 359.904 138.778Z" fill="#280A38"/>
<path d="M299.048 116.411C298.003 118.47 297.285 120.68 296.92 122.96C296.829 123.573 296.772 124.191 296.749 124.81L273.569 112.166V102.522L299.048 116.411Z" fill="#3264FF"/>
<path d="M157.713 70.6516C158.018 80.8682 164.844 91.0016 178.243 98.8132C202.529 112.915 236.749 116.693 273.574 102.559L299.053 116.397C299.947 114.611 301.082 112.956 302.424 111.476C303.369 110.433 304.412 109.482 305.537 108.637L283.587 96.7828C296.509 89.3366 299.099 78.0099 299.238 70.0781V69.5693C299.238 69.4907 299.238 69.4121 299.238 69.3381C299.239 68.4331 299.179 67.5291 299.057 66.6324C299.035 66.3057 298.989 65.981 298.919 65.6612C298.812 65.0414 298.669 64.4032 298.521 63.7788C298.465 63.5707 298.058 62.1554 297.896 61.6467C297.818 61.4062 297.716 61.1842 297.637 60.9206C297.462 60.4581 297.281 59.9956 297.092 59.5701C296.967 59.2879 296.837 59.0104 296.708 58.7283C296.578 58.4462 296.379 58.0484 296.199 57.7201C295.931 57.2113 295.061 55.7174 294.913 55.4862C294.682 55.1069 294.451 54.7369 294.169 54.3762C294.169 54.3392 291.324 50.7687 291.088 50.4866C290.584 49.9501 290.08 49.4182 289.53 48.8817C288.979 48.3452 288.369 47.7301 287.731 47.1843C285.979 45.6452 284.124 44.2267 282.181 42.9386C281.492 42.4761 280.761 42.0136 280.025 41.5511C279.605 41.2967 279.179 41.0562 278.763 40.7972C251.225 24.8039 206.317 24.8039 178.599 40.7972L177.29 41.5649C176.462 42.0737 175.658 42.5963 174.867 43.1236C174.469 43.3872 174.085 43.6554 173.706 43.9237C172.938 44.4648 172.212 45.0198 171.495 45.5702C170.134 46.6369 168.832 47.7779 167.596 48.9881C167.009 49.5708 166.422 50.1721 165.885 50.7733C165.349 51.3746 164.84 51.9573 164.34 52.5586C163.39 53.7371 162.526 54.9829 161.755 56.2863C158.915 60.9206 157.565 65.7953 157.713 70.6516ZM167.675 59.7458C168.268 58.7573 168.929 57.8115 169.654 56.9153C170.071 56.3927 170.519 55.8793 170.963 55.3844C171.407 54.8896 171.93 54.3669 172.397 53.9044C173.448 52.8733 174.553 51.8992 175.709 50.9861C176.324 50.5004 176.971 50.0148 177.637 49.5569L178.618 48.8678C179.344 48.3822 180.098 47.8966 180.801 47.4803C181.194 47.2537 181.61 47.0178 182.012 46.7727C194.38 39.6409 210.974 35.6958 228.725 35.6958C246.476 35.6958 262.991 39.6271 275.174 46.7079L275.724 47.0363C275.928 47.1519 276.131 47.2676 276.422 47.4572C277.075 47.8503 277.699 48.2481 278.337 48.6828C280.044 49.8063 281.669 51.0506 283.198 52.4059C283.693 52.8268 284.156 53.2754 284.701 53.8258C285.108 54.2282 285.506 54.6537 285.899 55.0699C286.362 55.6296 288.128 57.8681 288.619 58.4739C288.767 58.7052 288.924 58.9364 289.049 59.1538C289.174 59.3712 289.867 60.5413 290.085 60.9252C290.224 61.1796 290.353 61.4478 290.455 61.6513C290.557 61.8548 290.667 62.1138 290.76 62.3127L291.181 63.3626C291.241 63.5429 291.306 63.7187 291.361 63.8759C291.486 64.2691 291.768 65.2634 291.824 65.4438C291.939 65.9063 292.041 66.3688 292.115 66.8313C292.143 66.9331 292.171 67.1366 292.194 67.2429C292.195 67.3579 292.207 67.4726 292.231 67.5852C292.308 68.1771 292.346 68.7735 292.346 69.3704V69.9809C292.24 76.1091 288.836 82.1771 282.5 87.5559C281.071 88.7769 271.571 95.2334 265.433 97.3609C254.333 101.223 241.596 103.928 228.179 103.928C210.461 103.928 193.954 100.016 181.702 92.8839C170.912 86.6263 164.83 78.6482 164.59 70.4666C164.485 66.9022 165.515 63.3286 167.679 59.7458H167.675Z" fill="#F8F5FA"/>
</svg>
