<svg width="269" height="263" viewBox="0 0 269 263" fill="none" xmlns="http://www.w3.org/2000/svg">
<path d="M216.665 173.967L108.334 236.514V125.091L216.665 62.5472V173.967Z" fill="#FF6429"/>
<path d="M108.334 236.514L0 173.967V62.5472L108.334 125.091V236.514Z" fill="#280A38"/>
<path d="M216.665 62.5472L108.334 125.091L0 62.5472L108.334 0L216.665 62.5472Z" fill="white"/>
<path d="M175.923 39.1287L67.7146 101.518L40.7412 85.9227L148.954 23.5295L175.923 39.1287Z" fill="#B066FF"/>
<path d="M67.7074 101.672L40.7412 85.955V117.003L67.7146 132.724L67.7074 101.672Z" fill="#8D52CC"/>
<path d="M267.698 8.70801L268.196 197.328L154.447 263L153.949 74.3801L267.698 8.70801Z" fill="#B066FF"/>
<path d="M154.447 263L149.928 260.373L149.427 71.7533L153.949 74.38L154.447 263Z" fill="#280A38"/>
<path d="M153.949 74.38L149.427 71.7533L263.176 6.07764L267.698 8.70796L153.949 74.38Z" fill="#280A38"/>
<path d="M257.27 23.6263L257.711 191.336L162.162 246.505L161.722 78.7914L257.27 23.6263Z" fill="white"/>
<path d="M234.876 14.3736L237.585 15.9504C236.697 15.4308 235.46 15.5025 234.095 16.2908L231.382 14.7141C232.748 13.9293 233.984 13.854 234.876 14.3736Z" fill="#280A38"/>
<path d="M225.48 21.2648L222.768 19.6881L231.382 14.7141L234.095 16.2909L225.48 21.2648Z" fill="#280A38"/>
<path d="M218.077 27.2636C218.077 27.1453 218.048 27.0307 218.03 26.9052C218.012 26.7798 218.012 26.7512 217.998 26.6795C217.974 26.5345 217.941 26.3909 217.901 26.2495V26.1706C217.854 26.0165 217.804 25.866 217.751 25.7227C217.497 24.9706 216.99 24.3297 216.317 23.9094L213.604 22.3326C214.285 22.7487 214.799 23.3903 215.056 24.1459C215.109 24.2893 215.16 24.4398 215.206 24.5939V24.6727C215.246 24.8141 215.279 24.9577 215.303 25.1027C215.303 25.1744 215.328 25.2532 215.339 25.3285C215.35 25.4037 215.371 25.5542 215.382 25.6868C215.4 25.8911 215.414 26.1061 215.414 26.3283C215.414 30.2702 212.655 35.0721 209.222 37.0503C207.494 38.0501 205.932 38.1253 204.803 37.4839L207.512 39.0606C208.645 39.7164 210.207 39.6233 211.934 38.627C215.368 36.6453 218.138 31.847 218.127 27.9051C218.109 27.6865 218.095 27.4714 218.077 27.2636Z" fill="#280A38"/>
<path d="M218.919 13.1624C216.41 11.711 212.959 11.9153 209.139 14.1228C202.252 18.0969 196.561 27.2135 195.583 35.384L186.982 40.3615C184.269 41.9132 182.069 45.7153 182.076 48.8294L182.155 72.9108L184.868 74.4876L184.789 50.4062C184.789 47.2921 186.968 43.5007 189.677 41.9347L198.277 36.9607C199.252 28.7902 204.946 19.6737 211.834 15.6959C215.654 13.4921 219.116 13.2878 221.613 14.7391L218.919 13.1624Z" fill="#280A38"/>
<path d="M234.081 16.2908C236.793 14.7248 238.994 15.9826 239.005 19.0967L239.083 43.1782L184.868 74.4876L184.789 50.4062C184.789 47.2921 186.968 43.5007 189.677 41.9347L198.278 36.9607C199.252 28.7902 204.946 19.6737 211.834 15.6959C218.722 11.7182 224.441 14.2625 225.452 21.2648L234.081 16.2908ZM211.902 38.6306C215.335 36.6489 218.105 31.8506 218.095 27.9087C218.095 27.6865 218.095 27.4715 218.062 27.2636C218.062 27.1454 218.034 27.0307 218.016 26.9053C217.998 26.7799 217.998 26.7512 217.983 26.6795C217.959 26.5345 217.927 26.3909 217.887 26.2495V26.1707C217.84 26.0166 217.79 25.8661 217.736 25.7227C216.876 23.4436 214.579 22.7806 211.877 24.3395C209.175 25.8983 206.885 29.2095 206.039 32.4777C205.986 32.682 205.936 32.8898 205.896 33.0905L205.875 33.1908C205.839 33.3736 205.81 33.5492 205.781 33.7319C205.781 33.8179 205.781 33.9075 205.749 33.9935C205.717 34.0795 205.721 34.2587 205.71 34.3841C205.692 34.6171 205.685 34.8428 205.685 35.065C205.685 39.0069 208.483 40.598 211.917 38.6163" fill="#FF6429"/>
<path d="M172.232 111.283V115.627L247.311 72.2801V67.9369L172.232 111.283Z" fill="#280A38"/>
<path d="M172.232 125.309V129.649L247.311 86.3025V81.9592L172.232 125.309Z" fill="#280A38"/>
<path d="M172.232 139.332V143.675L247.311 100.329V95.9854L172.232 139.332Z" fill="#280A38"/>
<path d="M172.232 153.354V157.698L247.311 114.351V110.008L172.232 153.354Z" fill="#280A38"/>
<path d="M172.232 167.377V171.72L247.311 128.373V124.03L172.232 167.377Z" fill="#280A38"/>
<path d="M172.232 181.399V185.742L247.311 142.396V138.052L172.232 181.399Z" fill="#280A38"/>
</svg>
