<svg width="164" height="141" viewBox="0 0 164 141" fill="none" xmlns="http://www.w3.org/2000/svg">
<path d="M119.062 70.9348L119.068 72.9769L139.328 69.1495L139.322 67.1074L119.062 70.9348Z" fill="#FF9F00"/>
<path d="M56.1538 70.2398L56.1599 72.2819L59.7591 74.3729L59.753 72.3308L56.1538 70.2398Z" fill="#00D273"/>
<path d="M44.3413 71.6379L59.7529 72.3308L56.1537 70.2398L44.3413 71.6379Z" fill="#66E4AB"/>
<path d="M56.1538 70.2398L59.753 72.3308L126.586 59.7052L100.579 44.5912L56.1538 70.2398Z" fill="#00D273"/>
<path d="M59.7529 72.3308L59.759 74.3729L126.59 61.7473L126.586 59.7052L59.7529 72.3308Z" fill="#00D273"/>
<path d="M44.3413 71.6379L44.3454 73.68L59.759 74.3729L59.7529 72.3308L44.3413 71.6379Z" fill="#33DB8F"/>
<path d="M10.3838 87.3775L10.3899 89.4196L24.2892 79.4924L24.2831 77.4503L10.3838 87.3775Z" fill="#FFBB24"/>
<path d="M19.3672 74.593L19.3733 76.6351L24.503 79.6168L24.4969 77.5747L19.3672 74.593Z" fill="#FFB233"/>
<path d="M24.4971 77.5746L24.5032 79.6168L31.5344 79.9326L31.5303 77.8905L24.4971 77.5746Z" fill="#FFB233"/>
<path d="M59.7529 72.3307L59.759 74.3728L72.4947 81.775L72.4885 79.7329L59.7529 72.3307Z" fill="#FF9F00"/>
<path d="M72.4883 79.7328L72.4944 81.775L103.733 75.8728L103.727 73.8328L72.4883 79.7328Z" fill="#FF9F00"/>
<path d="M53.5513 78.879L53.5574 80.9211L72.4947 81.775L72.4886 79.7329L53.5513 78.879Z" fill="#FFB233"/>
<path d="M31.5303 77.8905L31.5343 79.9326L32.5126 84.2716L32.5065 82.2295L31.5303 77.8905Z" fill="#FFB233"/>
<path d="M57.5903 96.8054L57.5964 98.8475L81.8306 112.932L81.8265 110.89L57.5903 96.8054Z" fill="#33DB8F"/>
<path d="M57.3765 96.6812L70.9293 126.487L81.6106 110.766L57.3765 96.6812Z" fill="#00D273"/>
<path d="M57.3765 96.6812L57.3826 98.7233L70.9354 128.529L70.9293 126.487L57.3765 96.6812Z" fill="#00D273"/>
<path d="M32.2925 82.1052L56.598 135.552L62.4573 138.958L70.9294 126.487L57.3765 96.6811L32.2925 82.1052Z" fill="#FF9F00"/>
<path d="M57.5906 96.8054L57.5927 97.156L57.3766 96.6811L57.3807 97.8856L53.5574 80.9211L53.5513 78.879L57.5906 96.8054Z" fill="#33DB8F"/>
<path d="M32.5084 82.578V84.2716L33.5478 84.883L32.5084 82.578ZM57.5924 97.156V96.8055L32.5063 82.2295L57.3703 96.6811L57.5924 97.156Z" fill="#FFB233"/>
<path d="M32.2925 82.1052L32.2986 84.1452L56.6041 137.592L56.598 135.552L32.2925 82.1052Z" fill="#FF9F00"/>
<path d="M24.4971 77.5746L24.5032 79.6168L32.5126 84.2716L32.5065 82.2295L24.4971 77.5746Z" fill="#3264FF"/>
<path d="M24.4971 77.5746L32.5065 82.2295L31.5303 77.8905L24.4971 77.5746Z" fill="#5B83FF"/>
<path d="M19.1534 74.4686L10.3838 87.3775L24.2831 77.4503L19.1534 74.4686Z" fill="#FF9F00"/>
<path d="M19.3672 74.593L24.4969 77.5746L31.5301 77.8905L32.5063 82.2295L57.5904 96.8055L53.551 78.879L72.4883 79.7329L59.7527 72.3308L44.3412 71.6379L19.3672 74.593Z" fill="#FFC566"/>
<path d="M119.062 70.9348L133.976 97.6655L163.036 80.8885L139.322 67.1074L119.062 70.9348Z" fill="#A1E1F9"/>
<path d="M119.062 70.9348L119.068 72.9769L133.982 99.7076L133.976 97.6655L119.062 70.9348Z" fill="#A1E1F9"/>
<path d="M133.976 97.6655L133.982 99.7076L163.042 82.9306L163.036 80.8885L133.976 97.6655Z" fill="white"/>
<path d="M59.7529 72.3308L72.4886 79.7329L103.727 73.8328L121.157 105.068L133.976 97.6655L119.062 70.9347L139.322 67.1073L126.586 59.7052L59.7529 72.3308Z" fill="#FF9F00"/>
<path d="M121.157 105.068L121.163 107.11L133.982 99.7076L133.976 97.6655L121.157 105.068Z" fill="white"/>
<path d="M103.727 73.8328L103.733 75.8728L121.162 107.11L121.156 105.068L103.727 73.8328Z" fill="#FF9F00"/>
<path d="M118.613 106.537L118.617 108.579L121.163 107.11L121.157 105.068L118.613 106.537Z" fill="white"/>
<path d="M72.4883 79.7329L72.4944 81.775L118.617 108.579L118.613 106.537L72.4883 79.7329Z" fill="white"/>
<path d="M72.4883 79.7328L118.613 106.537L121.156 105.068L103.727 73.8328L72.4883 79.7328Z" fill="#00D273"/>
<path d="M81.8267 110.89L81.8307 112.932L118.617 108.579L118.613 106.537L81.8267 110.89Z" fill="white"/>
<path d="M53.5513 78.879L57.5906 96.8054L81.8268 110.89L118.613 106.537L72.4886 79.7329L53.5513 78.879Z" fill="#66E4AB"/>
<path d="M70.9297 126.487L70.9358 128.529L81.6171 112.806L81.611 110.766L70.9297 126.487Z" fill="white"/>
<path d="M24.2831 77.4503L10.3837 87.3775L0 102.661L56.598 135.552L32.2925 82.1052L24.2831 77.4503Z" fill="#3264FF"/>
<path d="M0 102.661L0.00611408 104.703L56.6041 137.592L56.598 135.552L0 102.661Z" fill="#280A38"/>
<path d="M56.5981 135.552L56.6043 137.592L62.4636 141L62.4575 138.958L56.5981 135.552Z" fill="#280A38"/>
<path d="M62.4575 138.958L62.4636 141L70.9357 128.529L70.9296 126.487L62.4575 138.958Z" fill="white"/>
<path d="M61.0897 9.20699C73.9517 1.96996 84.368 8.00455 84.4108 22.8271C84.3964 26.6835 83.8204 30.5171 82.7009 34.2074C82.6194 34.4357 81.0868 38.7726 80.2879 40.5742L61.0204 90.7932L41.5267 62.9579C40.7115 62.0836 39.1687 59.5258 39.081 59.3913C37.9153 56.8642 37.3243 53.6971 37.3141 50.0164C37.2754 35.1918 47.6244 17.1696 60.4844 9.5616C60.5883 9.49231 60.6882 9.43729 60.7881 9.37818L61.0897 9.20699ZM60.9001 48.3758C67.6256 44.4873 73.0794 35.0573 73.057 27.3148C73.0346 19.5724 67.5543 16.4481 60.8288 20.3366C54.1033 24.2252 48.6455 33.6592 48.6679 41.4017C48.6903 49.1441 54.1706 52.2664 60.9083 48.3758" fill="#F0324E"/>
<path d="M60.8209 20.3367C67.5464 16.4481 73.0348 19.5724 73.0491 27.3149C73.0633 35.0573 67.6259 44.4873 60.8923 48.3758C54.1586 52.2644 48.6641 49.1441 48.6519 41.4017C48.6396 33.6592 54.0812 24.2354 60.8209 20.3367Z" fill="white"/>
<path d="M77.5471 7.73759L66.9616 1.58683C62.7449 -0.858804 56.9304 -0.559213 50.5045 3.05624L50.2049 3.23355C50.101 3.29265 50.0011 3.34565 49.8992 3.41698C37.0393 11.0188 26.6984 29.0411 26.733 43.8657C26.7432 47.5341 27.3444 50.7094 28.502 53.2406C28.5835 53.3751 30.1324 55.9328 30.9476 56.8051L50.4352 84.6425L61.0207 90.7932L41.527 62.9579C40.7118 62.0836 39.169 59.5259 39.0814 59.3913C37.9156 56.8642 37.3246 53.6971 37.3144 50.0164C37.2757 35.1918 47.6248 17.1696 60.4847 9.56162C60.5887 9.49233 60.6885 9.4373 60.7884 9.3782L61.09 9.20089C67.5159 5.59155 73.3304 5.28177 77.5471 7.73759Z" fill="#280A38"/>
</svg>
