<svg width="124" height="327" viewBox="0 0 124 327" fill="none" xmlns="http://www.w3.org/2000/svg">
<path d="M28.5462 327L0.126247 310.52L0.00415039 267.954L28.4241 284.433L28.5462 327Z" fill="#280A38"/>
<path d="M80.6854 183.313L109.122 199.792C100.534 194.809 88.642 195.512 75.5167 203.073L47.0967 186.594C60.2058 179.033 72.0858 178.33 80.6854 183.313Z" fill="#280A38"/>
<path d="M75.5005 203.073C101.584 188.048 122.797 200.109 122.882 230.017L123.004 272.584L28.5381 327L28.416 284.433C28.3387 254.525 49.4166 218.098 75.5005 203.073Z" fill="#3264FF"/>
<path d="M28.4241 284.433L0.00416525 267.954C-0.0813023 238.046 20.9966 201.623 47.0805 186.594L75.5005 203.073C49.4166 218.098 28.3387 254.525 28.4241 284.433Z" fill="#14B4EF"/>
<path d="M59.7378 206.622C82.7096 206.622 101.332 188.041 101.332 165.12C101.332 142.199 82.7096 123.618 59.7378 123.618C36.7659 123.618 18.1436 142.199 18.1436 165.12C18.1436 188.041 36.7659 206.622 59.7378 206.622Z" fill="#FF9F00"/>
<path d="M54.5849 111.48L36.6448 101.08L26.8486 92.0969L44.7846 102.497L54.5849 111.48Z" fill="#280A38"/>
<path d="M82.0404 11.7763C87.5918 8.57628 92.1093 11.1468 92.1256 17.5103L92.2518 62.501C92.2721 68.8685 87.7749 76.6207 82.2317 79.8207L67.5557 88.2755C66.7035 88.8149 66.0263 89.5893 65.6062 90.505L55.8914 110.708C55.7532 111.016 55.5266 111.276 55.2402 111.455C55.146 111.527 55.031 111.565 54.9126 111.565C54.7943 111.565 54.6792 111.527 54.585 111.455L44.7888 102.472C44.3208 102.066 43.5963 102.066 42.8312 102.493L28.1552 110.948C22.6039 114.148 18.0863 111.581 18.07 105.214L17.9561 60.2472C17.9561 53.8838 22.4329 46.1274 27.9761 42.9315L82.0404 11.7763Z" fill="#F0324E"/>
<path d="M63.0179 41.5466C71.1088 36.8847 75.1827 45.973 69.5297 55.8613L55.9281 79.577C55.7496 79.9078 55.4889 80.1875 55.1711 80.3892C55.0622 80.4678 54.934 80.5157 54.8001 80.5278C54.6662 80.54 54.5315 80.5159 54.4101 80.4582L40.719 72.4663C34.9845 69.1201 39.0463 55.374 47.1128 50.7283C51.9966 47.9223 54.2107 50.7283 55.0857 51.0004C55.9363 49.7253 58.1544 44.3487 63.0179 41.5466Z" fill="white"/>
<path d="M71.2713 0.677953C69.4439 -0.381943 66.9125 -0.235753 64.1205 1.37642L10.0237 32.5276C7.23579 34.152 4.73281 36.8931 2.90137 40.0443L20.8373 50.4443C22.6525 47.293 25.1718 44.5357 27.9596 42.9316L82.0402 11.7764C84.8322 10.152 87.3637 10.018 89.191 11.0779L71.2713 0.677953Z" fill="#FF9F00"/>
<path d="M2.8978 40.0483C1.09891 43.1712 -0.00809518 46.6839 4.45814e-05 49.8514L0.130284 94.8421C0.130284 98.0055 1.25763 100.231 3.06059 101.275L20.9966 111.675C19.1936 110.631 18.0744 108.405 18.0663 105.242L17.9564 60.2473C17.9564 57.0798 19.0552 53.5671 20.8541 50.4442L2.8978 40.0483Z" fill="#280A38"/>
</svg>
