<svg width="97" height="117" viewBox="0 0 97 117" fill="none" xmlns="http://www.w3.org/2000/svg">
<path d="M57.8012 116.095L39.1315 105.265L28.9368 95.9099L47.6023 106.74L57.8012 116.095Z" fill="#280A38"/>
<path d="M86.3733 12.2642C92.1505 8.9317 96.8518 11.6087 96.8687 18.2355L97 65.0888C97.0212 71.7199 92.341 79.7931 86.5724 83.1256L71.2995 91.9304C70.4126 92.4921 69.7079 93.2986 69.2707 94.2521L59.1608 115.291C59.0169 115.612 58.7811 115.883 58.4831 116.07C58.3851 116.144 58.2653 116.184 58.1422 116.184C58.019 116.184 57.8992 116.144 57.8012 116.07L47.6065 106.715C47.1195 106.292 46.3656 106.292 45.5693 106.736L30.2964 115.541C24.5193 118.873 19.818 116.201 19.801 109.57L19.6824 62.7417C19.6824 56.1149 24.3414 48.0374 30.11 44.7092L86.3733 12.2642Z" fill="#F0324E"/>
<path d="M66.577 43.267C74.997 38.4121 79.2366 47.8767 73.3537 58.1743L59.1989 82.8718C59.0131 83.2164 58.7418 83.5076 58.4111 83.7176C58.2977 83.7995 58.1643 83.8494 58.025 83.862C57.8856 83.8747 57.7454 83.8496 57.6191 83.7895L43.3711 75.4668C37.4034 71.9821 41.6304 57.6668 50.025 52.8288C55.1075 49.9066 57.4116 52.8288 58.3222 53.1122C59.2074 51.7843 61.5157 46.1851 66.577 43.267Z" fill="white"/>
<path d="M75.1664 0.706263C73.2647 -0.39751 70.6303 -0.245269 67.7248 1.43365L11.4276 33.8744C8.52635 35.5661 5.92156 38.4206 4.01562 41.7024L22.6811 52.5329C24.5701 49.2512 27.1918 46.3797 30.0931 44.7092L86.3733 12.2642C89.2788 10.5726 91.9133 10.433 93.815 11.5368L75.1664 0.706263Z" fill="#FF9F00"/>
<path d="M4.01139 41.7065C2.13933 44.9587 0.987303 48.6168 0.995774 51.9154L1.13131 98.7687C1.13131 102.063 2.30451 104.381 4.1808 105.467L22.8463 116.298C20.97 115.211 19.8053 112.894 19.7968 109.599L19.6824 62.7417C19.6824 59.443 20.826 55.7849 22.6981 52.5328L4.01139 41.7065Z" fill="#280A38"/>
</svg>
