<svg width="168" height="110" viewBox="0 0 168 110" fill="none" xmlns="http://www.w3.org/2000/svg">
<path d="M167.998 54.287C168.001 54.3261 168.001 54.3654 167.998 54.4046V54.287Z" fill="#3F3C44"/>
<path d="M97.4241 95.7004L167.368 55.3139C168.292 54.7784 168.176 53.8439 167.107 53.2307L75.8091 0.511023C74.7403 -0.106368 73.1275 -0.173567 72.2014 0.359825L2.2431 40.7464C1.31912 41.2798 1.43461 42.2164 2.5014 42.8296L93.8164 95.5387C94.8831 96.1666 96.498 96.2317 97.4241 95.7004Z" fill="#B066FF"/>
<path d="M11.8907 39.9631V40.1878L70.5701 6.30903L151.226 52.8758H152.41V53.5604L92.752 88.004L10.9121 40.7527V40.0681L11.8907 39.9631Z" fill="#280A38"/>
<path d="M92.752 87.3195L152.41 52.8758L70.5701 5.62654L10.9121 40.0681L92.752 87.3195Z" fill="white"/>
<path d="M15.2354 29.3414V29.4275C15.2574 29.5534 15.3096 29.672 15.3875 29.7733C15.4654 29.8746 15.5667 29.9556 15.6826 30.0092L22.812 34.1252C23.1527 34.298 23.5293 34.3881 23.9114 34.3881C24.2934 34.3881 24.67 34.298 25.0107 34.1252L61.3191 13.1717C61.444 13.1125 61.5513 13.0221 61.6308 12.9091C61.7103 12.7961 61.7592 12.6645 61.7727 12.527V10.4102L59.7756 11.3111V11.8256L54.1792 8.60217C53.8382 8.4293 53.4612 8.33922 53.0789 8.33922C52.6965 8.33922 52.3195 8.4293 51.9785 8.60217L42.0645 14.3267C30.4874 7.81678 22.5663 16.0067 22.5663 16.0067V19.1293C22.5663 19.1503 22.5663 19.1734 22.5663 19.1944C22.5632 19.2504 22.5632 19.3064 22.5663 19.3624C22.5978 20.9647 23.6016 22.5607 25.5987 23.8248L18.1228 28.1487L15.2354 27.1806V29.3414ZM30.9179 17.3989C32.6861 16.3762 35.5567 16.3762 37.3249 17.3989C39.0931 18.4216 39.0952 20.0764 37.3249 21.0991C35.5546 22.1218 32.6861 22.1197 30.9179 21.0991C29.1497 20.0785 29.1476 18.4216 30.9179 17.3947V17.3989Z" fill="#280A38"/>
<path d="M15.6876 27.8925L22.8275 32.0084C23.1682 32.1813 23.5448 32.2713 23.9268 32.2713C24.3088 32.2713 24.6855 32.1813 25.0261 32.0084L61.3199 11.0549C61.9268 10.7042 61.9268 10.1352 61.3199 9.78446L54.18 5.66852C53.8389 5.49565 53.462 5.40557 53.0796 5.40557C52.6972 5.40557 52.3203 5.49565 51.9792 5.66852L42.0632 11.3951C37.4852 8.98437 30.3958 9.04947 25.969 11.6051C21.5423 14.1608 21.431 18.2536 25.6036 20.8975L15.6876 26.622C15.0807 26.9727 15.0807 27.5418 15.6876 27.8925ZM30.9187 18.1612C29.1484 17.1385 29.1484 15.4838 30.9187 14.4611C32.6889 13.4384 35.5575 13.4405 37.3256 14.4611C39.0938 15.4817 39.0959 17.1385 37.3256 18.1612C35.5554 19.1839 32.6868 19.1818 30.9187 18.1612Z" fill="#FF9F00"/>
<path d="M167.368 55.3138L97.4242 95.7004C97.2652 95.7902 97.096 95.8607 96.9203 95.9104C96.1503 96.1194 95.3369 96.1055 94.5746 95.8705C94.3101 95.7929 94.0556 95.6843 93.8165 95.5471L2.50153 42.8379C1.89674 42.4851 1.60905 42.0336 1.63215 41.6115V45.3411C1.64895 45.7464 1.93664 46.1685 2.51203 46.5024L93.827 99.2115C94.0657 99.3496 94.3202 99.4582 94.5851 99.5349C95.3472 99.7707 96.1606 99.7852 96.9307 99.5769C97.1062 99.5263 97.2753 99.4558 97.4347 99.3669L167.368 58.9783C167.532 58.9017 167.675 58.7843 167.781 58.6373C167.888 58.4903 167.955 58.3185 167.977 58.1383C167.989 58.1383 167.989 54.3961 167.989 54.3961C167.998 54.751 167.788 55.0723 167.368 55.3138Z" fill="#280A38"/>
<path d="M4.20033 63.8901L0.361593 63.4512C0.315636 63.4437 0.268524 63.4534 0.229294 63.4785C0.162844 63.5222 0.107542 63.5809 0.0677987 63.6498C0.0280559 63.7187 0.00497449 63.796 0.000398007 63.8754C-0.0011736 63.8986 0.0019195 63.9219 0.0094934 63.9439C0.0170673 63.9659 0.0289685 63.9862 0.0444971 64.0035L2.26836 67.0338L4.20033 63.8901Z" fill="#FF9F00"/>
<path d="M3.7969 63.8481C3.55266 63.8073 3.30202 63.8606 3.09551 63.9972C2.74183 64.2272 2.44714 64.537 2.23521 64.9018C2.02328 65.2666 1.90004 65.6761 1.87543 66.0972C1.86364 66.3212 1.92641 66.5427 2.05392 66.7272L4.39958 69.9023L7.53903 64.2618L3.7969 63.8481Z" fill="white"/>
<path d="M4.73535 66.3009L70.2921 104.041L71.9406 101.301L8.1016 64.4529C7.6711 64.1715 7.06421 64.1925 6.39012 64.5852C5.70191 65.0074 5.13245 65.5978 4.73535 66.3009V66.3009Z" fill="#FF9F00"/>
<path d="M4.02734 68.6591C4.02734 69.4634 4.32974 70.0094 4.80853 70.2278L68.5068 107.002L70.2918 104.041L4.73503 66.3009C4.29937 67.0126 4.05555 67.8251 4.02734 68.6591V68.6591Z" fill="#280A38"/>
<path d="M71.9408 101.303C71.5082 100.988 70.8804 100.994 70.179 101.4C68.8791 102.154 67.8291 103.978 67.8291 105.48C67.8291 106.228 68.0895 106.753 68.5116 107L72.008 108.974C72.008 108.974 75.2294 103.208 75.2504 103.168L71.9408 101.303Z" fill="#280A38"/>
<path d="M71.21 107.401C71.21 108.903 72.2599 109.501 73.564 108.76C74.8681 108.019 75.9181 106.183 75.9181 104.682C75.9181 103.18 74.8681 102.582 73.564 103.323C72.2599 104.065 71.21 105.9 71.21 107.401Z" fill="#FF9F00"/>
<path d="M72.6846 106.549C72.6846 107.112 73.0773 107.338 73.5645 107.057C73.8207 106.89 74.0339 106.665 74.1868 106.4C74.3397 106.135 74.4279 105.838 74.4443 105.532C74.4443 104.972 74.0495 104.745 73.5645 105.024C73.3082 105.191 73.095 105.416 72.9421 105.681C72.7892 105.946 72.701 106.243 72.6846 106.549V106.549Z" fill="white"/>
<path d="M58.291 58.3294L59.9332 59.2828L93.1148 40.1248L91.4726 39.1714L58.291 58.3294Z" fill="#280A38"/>
<path d="M52.2617 54.8245L53.8997 55.7779L99.2233 29.6102L97.5832 28.6569L52.2617 54.8245Z" fill="#280A38"/>
<path d="M46.2285 51.3197L47.8686 52.271L93.1922 26.1054L91.5521 25.152L46.2285 51.3197Z" fill="#280A38"/>
<path d="M40.1953 47.8128L41.8375 48.7661L87.1611 22.6006L85.5189 21.6451L40.1953 47.8128Z" fill="#280A38"/>
<path d="M34.1641 44.3079L35.8062 45.2613L81.1298 19.0936L79.4876 18.1402L34.1641 44.3079Z" fill="#280A38"/>
<path d="M28.1328 40.8031L29.7729 41.7564L75.0965 15.5888L73.4564 14.6354L28.1328 40.8031Z" fill="#280A38"/>
</svg>
