<svg width="125" height="123" viewBox="0 0 125 123" fill="none" xmlns="http://www.w3.org/2000/svg">
<path d="M100.982 81.3609L50.4921 110.613V58.5025L100.982 29.2521V81.3609Z" fill="#FF6429"/>
<path d="M50.492 110.613L0 81.3609V29.2521L50.492 58.5025V110.613Z" fill="#280A38"/>
<path d="M100.982 29.2521L50.492 58.5026L0 29.2521L50.492 0L100.982 29.2521Z" fill="white"/>
<path d="M81.9938 18.2997L31.5602 47.4781L18.9886 40.1843L69.4238 11.0043L81.9938 18.2997Z" fill="#B066FF"/>
<path d="M31.5569 47.5502L18.9886 40.1995V54.7199L31.5602 62.0723L31.5569 47.5502Z" fill="#8D52CC"/>
<path d="M124.768 4.07256L125 92.2864L71.9842 123L71.7521 34.7861L124.768 4.07256Z" fill="#B066FF"/>
<path d="M71.9842 123L69.8781 121.772L69.6443 33.5576L71.7521 34.7861L71.9842 123Z" fill="#280A38"/>
<path d="M71.7521 34.7861L69.6443 33.5576L122.66 2.84241L124.768 4.07256L71.7521 34.7861Z" fill="#280A38"/>
<path d="M119.908 11.0496L120.113 89.4843L75.5802 115.286L75.3748 36.8492L119.908 11.0496Z" fill="white"/>
<path d="M109.47 6.72219L110.733 7.45962C110.319 7.2166 109.743 7.25012 109.106 7.61883L107.842 6.88141C108.478 6.51438 109.055 6.47918 109.47 6.72219Z" fill="#280A38"/>
<path d="M105.091 9.94507L103.827 9.20765L107.842 6.88142L109.106 7.61884L105.091 9.94507Z" fill="#280A38"/>
<path d="M101.64 12.7506C101.64 12.6953 101.627 12.6417 101.619 12.583C101.61 12.5244 101.61 12.511 101.604 12.4774C101.592 12.4096 101.577 12.3425 101.559 12.2763V12.2395C101.537 12.1674 101.514 12.097 101.489 12.03C101.37 11.6782 101.134 11.3785 100.82 11.1819L99.5561 10.4445C99.8735 10.6391 100.113 10.9392 100.233 11.2925C100.258 11.3596 100.281 11.43 100.303 11.502V11.5389C100.321 11.605 100.336 11.6722 100.348 11.74C100.348 11.7735 100.359 11.8104 100.364 11.8456C100.369 11.8808 100.379 11.9512 100.384 12.0132C100.393 12.1087 100.4 12.2093 100.4 12.3132C100.4 14.1567 99.1135 16.4025 97.5134 17.3276C96.7084 17.7952 95.9802 17.8304 95.454 17.5304L96.7167 18.2679C97.2445 18.5746 97.9727 18.531 98.7778 18.0651C100.378 17.1383 101.669 14.8942 101.664 13.0506C101.656 12.9484 101.649 12.8478 101.64 12.7506Z" fill="#280A38"/>
<path d="M102.033 6.15573C100.864 5.47697 99.2554 5.5725 97.475 6.60489C94.2649 8.46352 91.6126 12.7271 91.1566 16.5483L87.1481 18.8762C85.8837 19.6019 84.8582 21.3801 84.8616 22.8365L84.8983 34.0989L86.1627 34.8363L86.1259 23.5739C86.1259 22.1175 87.1414 20.3444 88.4041 19.612L92.4126 17.2857C92.8669 13.4646 95.5208 9.20094 98.731 7.34063C100.511 6.30992 102.125 6.21439 103.289 6.89315L102.033 6.15573Z" fill="#280A38"/>
<path d="M109.1 7.61883C110.364 6.88644 111.389 7.4747 111.395 8.93111L111.431 20.1935L86.1627 34.8363L86.1259 23.5739C86.1259 22.1175 87.1414 20.3444 88.4041 19.612L92.4126 17.2857C92.8669 13.4646 95.5209 9.20093 98.731 7.34062C101.941 5.48031 104.607 6.67024 105.078 9.94506L109.1 7.61883ZM98.7627 18.0667C100.363 17.1399 101.654 14.8958 101.649 13.0523C101.649 12.9484 101.649 12.8478 101.634 12.7506C101.634 12.6953 101.62 12.6417 101.612 12.583C101.604 12.5244 101.604 12.5109 101.597 12.4774C101.586 12.4096 101.571 12.3425 101.552 12.2763V12.2394C101.53 12.1674 101.507 12.097 101.482 12.0299C101.081 10.964 100.01 10.654 98.751 11.383C97.4917 12.1121 96.4244 13.6606 96.0303 15.1891C96.0052 15.2846 95.9818 15.3819 95.9635 15.4757L95.9534 15.5226C95.9367 15.6081 95.9234 15.6902 95.91 15.7757C95.91 15.8159 95.91 15.8578 95.895 15.898C95.8799 15.9383 95.8816 16.0221 95.8766 16.0807C95.8683 16.1897 95.8649 16.2953 95.8649 16.3992C95.8649 18.2427 97.1694 18.9868 98.7694 18.06" fill="#FF6429"/>
<path d="M80.2735 52.0451V54.0763L115.266 33.804V31.7727L80.2735 52.0451Z" fill="#280A38"/>
<path d="M80.2735 58.6048V60.6344L115.266 40.3621V38.3308L80.2735 58.6048Z" fill="#280A38"/>
<path d="M80.2735 65.1629V67.1941L115.266 46.9218V44.8905L80.2735 65.1629Z" fill="#280A38"/>
<path d="M80.2735 71.7208V73.7521L115.266 53.4797V51.4485L80.2735 71.7208Z" fill="#280A38"/>
<path d="M80.2735 78.2788V80.3101L115.266 60.0377V58.0065L80.2735 78.2788Z" fill="#280A38"/>
<path d="M80.2735 84.8368V86.8681L115.266 66.5957V64.5645L80.2735 84.8368Z" fill="#280A38"/>
</svg>
