<svg width="102" height="120" viewBox="0 0 102 120" fill="none" xmlns="http://www.w3.org/2000/svg">
<path d="M44.6687 99.5179C45.0476 99.5649 45.4294 99.598 45.8194 99.6201L43.5677 105.429L42.4199 105.332L44.6687 99.5179Z" fill="#280A38"/>
<path d="M58.7452 25.7917C77.3137 15.0705 92.4136 23.6756 92.4745 45.0129C92.5354 66.3501 77.5377 92.3344 58.9665 103.053C40.3953 113.771 25.2983 105.166 25.2375 83.8315C25.1766 62.497 40.1796 36.5101 58.7452 25.7917Z" fill="#F5F5F5"/>
<path d="M58.7147 15.1783C82.3837 1.51408 101.635 12.4815 101.71 39.68C101.785 66.8785 82.663 99.9991 58.994 113.666C35.325 127.333 16.0787 116.36 16.0012 89.1645C15.9238 61.9687 35.0484 28.8537 58.7147 15.1783ZM58.9662 103.053C77.5319 92.3343 92.5351 66.3473 92.4742 45.0128C92.4134 23.6783 77.3134 15.0705 58.745 25.7917C40.1765 36.5129 25.1764 62.4942 25.2372 83.8315C25.2981 105.169 40.3977 113.774 58.9662 103.053Z" fill="#B066FF"/>
<path d="M73.2091 2.89165C65.4171 -1.63636 54.624 -0.997462 42.7135 5.87892C19.0472 19.5432 -0.0772148 52.6665 0.00023441 79.8651C0.038959 93.3744 4.80774 102.881 12.5001 107.351L28.5016 116.651C20.8092 112.181 16.0542 102.674 16.0017 89.1645C15.9242 61.966 35.0489 28.8426 58.7152 15.1784C70.6258 8.30201 81.4189 7.66297 89.2108 12.191L73.2091 2.89165Z" fill="#280A38"/>
<path d="M73.1841 83.0515L75.4607 86.2491L74.3154 87.6709L72.0391 84.476C72.4374 84.0058 72.819 83.5328 73.1841 83.0515Z" fill="#280A38"/>
<path d="M82.9403 65.6117L86.8681 65.9491L86.2098 67.6502L82.2793 67.3128C82.5098 66.7522 82.7301 66.1852 82.9403 65.6117Z" fill="#280A38"/>
<path d="M90.7573 45.2425V46.7638L86.2266 49.3805C86.2266 49.1233 86.2266 48.866 86.2266 48.6143C86.2266 48.3626 86.2266 48.1082 86.2266 47.8565L90.7573 45.2425Z" fill="#280A38"/>
<path d="M86.1016 29.6835L86.7682 30.6184L82.8542 35.484C82.6412 35.1603 82.4198 34.8477 82.1875 34.5489L86.1016 29.6835Z" fill="#280A38"/>
<path d="M34.8576 93.3717C35.0706 93.6953 35.2947 94.0078 35.527 94.3066L31.6102 99.1721L30.9463 98.2371L34.8576 93.3717Z" fill="#280A38"/>
<path d="M74.144 23.4156L75.2948 23.5124L73.0433 29.3211C72.6643 29.2741 72.2826 29.241 71.8926 29.2216L74.144 23.4156Z" fill="#280A38"/>
<path d="M60.2782 64.7542C60.4758 64.337 60.5823 63.8826 60.5907 63.421C60.605 63.1145 60.5219 62.8113 60.353 62.5551C60.2342 62.3822 60.0543 62.2606 59.8495 62.2149C59.8168 62.2067 59.7834 62.2011 59.7498 62.1983L60.6266 42.3271L58.967 43.1735L58.0902 63.0558C57.5007 63.7087 57.1548 64.5451 57.111 65.4236C57.0894 65.7734 57.2034 66.1181 57.4292 66.3861C57.5719 66.545 57.7696 66.6439 57.9824 66.6627C58.2901 66.6761 58.5946 66.5939 58.8538 66.4276C58.9174 66.3916 58.981 66.3502 59.0418 66.3087L70.106 82.255L71.3423 80.7336L60.2782 64.7542Z" fill="#280A38"/>
<path d="M31.4812 79.4723C31.4812 79.7295 31.4812 79.984 31.4812 80.2385C31.4812 80.493 31.4812 80.7446 31.4812 80.9963L26.9502 83.6103V82.089L31.4812 79.4723Z" fill="#280A38"/>
<path d="M59.5425 27.1885L59.5591 33.3817L57.9824 34.2917L57.9658 28.0986L59.5425 27.1885Z" fill="#280A38"/>
<path d="M31.503 61.1943L35.4335 61.5318C35.204 62.085 34.9855 62.663 34.7726 63.23L30.8447 62.8926L31.503 61.1943Z" fill="#280A38"/>
<path d="M43.3853 41.1708L45.6619 44.3684C45.2746 44.8349 44.893 45.3099 44.5168 45.793L42.2402 42.5955L43.3853 41.1708Z" fill="#280A38"/>
<path d="M59.7747 94.2181L59.7941 100.649L58.1317 101.609L58.1123 95.1779L59.7747 94.2181Z" fill="#280A38"/>
<path d="M77.6098 31.4593L78.1382 31.7607L60.358 62.5551C60.2392 62.3822 60.0593 62.2606 59.8545 62.2149L77.6098 31.4593Z" fill="#FF6429"/>
<path d="M57.4395 66.3861C57.5822 66.545 57.78 66.6439 57.9927 66.6627L53.365 74.6843L52.8369 74.3855L57.4395 66.3861Z" fill="#FF6429"/>
</svg>
