<svg width="97" height="115" viewBox="0 0 97 115" fill="none" xmlns="http://www.w3.org/2000/svg">
<path d="M42.6018 95.7375C42.9632 95.7801 43.3272 95.8121 43.6992 95.8334L41.552 101.421L40.4546 101.328L42.6018 95.7375Z" fill="#280A38"/>
<path d="M56.0259 24.8105C73.734 14.4967 88.1342 22.7749 88.1922 43.3013C88.2503 63.8277 73.9477 88.8244 56.2343 99.1355C38.521 109.447 24.1287 101.168 24.0681 80.6447C24.0074 60.121 38.3126 35.1216 56.0259 24.8105Z" fill="#F5F5F5"/>
<path d="M55.9864 14.6005C78.5588 1.45552 96.9157 12.0061 96.9896 38.171C97.0635 64.3359 78.8357 96.1979 56.2634 109.346C33.6911 122.493 15.3341 111.927 15.2629 85.775C15.1917 59.6234 33.4273 27.7455 55.9864 14.6005ZM56.2239 99.1355C73.9319 88.8244 88.2398 63.825 88.1817 43.3013C88.1237 22.7775 73.7235 14.4967 56.0155 24.8105C38.3074 35.1242 24.0127 60.1184 24.0681 80.6448C24.1235 101.171 38.5263 109.449 56.2318 99.1355" fill="#B066FF"/>
<path d="M69.8195 2.78339C62.3886 -1.57521 52.0956 -0.960531 40.7369 5.65454C18.1673 18.7942 -0.0710148 50.6641 0.000207891 76.829C0.0371382 89.825 4.58748 98.9706 11.9234 103.271L27.1835 112.217C19.8476 107.917 15.2973 98.7711 15.263 85.7751C15.1891 59.6102 33.4274 27.7456 55.997 14.6006C67.3557 7.98551 77.6487 7.37084 85.0796 11.7294L69.8195 2.78339Z" fill="#280A38"/>
<path d="M69.8064 79.8943L71.9774 82.9704L70.8827 84.3381L68.7144 81.2647C69.0837 80.8124 69.4398 80.3573 69.8064 79.8943Z" fill="#280A38"/>
<path d="M79.0997 63.1172L82.8455 63.4418L82.215 65.0783L78.4692 64.7536C78.6882 64.2082 78.8966 63.6653 79.0997 63.1172Z" fill="#280A38"/>
<path d="M86.554 43.5221V44.9856L82.2305 47.5029C82.2305 47.2554 82.2305 47.0106 82.2305 46.7658C82.2305 46.521 82.2305 46.2789 82.2305 46.0367L86.554 43.5221Z" fill="#280A38"/>
<path d="M82.1146 28.5438L82.7477 29.4431L79.0178 34.1237C78.8146 33.8124 78.601 33.5117 78.3794 33.2243L82.1146 28.5438Z" fill="#280A38"/>
<path d="M33.2453 89.8223C33.4484 90.1336 33.6594 90.4343 33.881 90.7217L30.1484 95.4022L29.5127 94.5028L33.2453 89.8223Z" fill="#280A38"/>
<path d="M70.7112 22.5194L71.8059 22.6125L69.6613 28.2005C69.2999 28.1526 68.9333 28.1207 68.564 28.102L70.7112 22.5194Z" fill="#280A38"/>
<path d="M57.4846 62.2923C57.6726 61.8907 57.775 61.4538 57.7853 61.0098C57.7977 60.7151 57.7184 60.4238 57.5584 60.1769C57.4452 60.0105 57.2736 59.8935 57.0783 59.8496L56.9834 59.8336L57.8328 40.7175L56.25 41.5318L55.4138 60.6585C54.8517 61.2866 54.5218 62.0912 54.48 62.9363C54.4594 63.2728 54.568 63.6044 54.7834 63.8623C54.9195 64.0151 55.108 64.1102 55.311 64.1284C55.6044 64.1409 55.8945 64.0619 56.1419 63.9022C56.2026 63.8676 56.2632 63.8277 56.3213 63.7878L66.8728 79.128L68.0545 77.6645L57.4846 62.2923Z" fill="#280A38"/>
<path d="M30.0245 76.4431C30.0245 76.6906 30.0245 76.9354 30.0245 77.1802C30.0245 77.425 30.0245 77.6671 30.0245 77.9093L25.7036 80.4239V78.9603L30.0245 76.4431Z" fill="#280A38"/>
<path d="M56.7829 26.1542L56.7987 32.1121L55.2951 32.9875L55.2793 27.0297L56.7829 26.1542Z" fill="#280A38"/>
<path d="M30.0458 58.8677L33.7942 59.1923C33.5744 59.7351 33.3642 60.2798 33.1637 60.8261L29.418 60.5015L30.0458 58.8677Z" fill="#280A38"/>
<path d="M41.3777 39.6079L43.5487 42.6813C43.1794 43.1301 42.8154 43.5869 42.4566 44.0517L40.2856 40.9756L41.3777 39.6079Z" fill="#280A38"/>
<path d="M57.0048 90.6365L57.0233 96.8232L55.4379 97.7465L55.4194 91.5599L57.0048 90.6365Z" fill="#280A38"/>
<path d="M74.0109 30.2627L74.5147 30.5528L57.569 60.1769C57.4557 60.0105 57.2842 59.8935 57.0889 59.8496L74.0109 30.2627Z" fill="#FF6429"/>
<path d="M54.781 63.8622C54.9172 64.0151 55.1057 64.1102 55.3086 64.1283L50.8954 71.845L50.3916 71.5576L54.781 63.8622Z" fill="#FF6429"/>
</svg>
