<svg width="249" height="300" viewBox="0 0 249 300" fill="none" xmlns="http://www.w3.org/2000/svg">
<path d="M133.032 11.9019L133.992 289.815L116.35 300L115.394 22.0873L133.032 11.9019Z" fill="#00D273"/>
<path d="M116.35 300L95.8749 288.098L94.9146 10.1853L115.394 22.0871L116.35 300Z" fill="#280A38"/>
<path d="M115.394 22.0872L94.9146 10.1854L112.552 0L133.032 11.9018L115.394 22.0872Z" fill="#3264FF"/>
<path d="M36.6484 195.348L31.2603 192.215L216.992 84.9812L222.384 88.1142L36.6484 195.348Z" fill="white"/>
<path d="M222.384 88.114L222.558 150.1L36.8265 257.333L5.38818 244.436L36.6483 195.348L222.384 88.114Z" fill="#3264FF"/>
<path d="M5.38818 244.437L0 241.304L31.2601 192.215L36.6483 195.348L5.38818 244.437Z" fill="#00D273"/>
<path d="M217.495 3.13297L212.103 0L243.537 12.8969L248.929 16.0298L217.495 3.13297Z" fill="white"/>
<path d="M217.496 3.13306L248.93 16.0299L217.669 65.1232L31.9336 172.357L31.7598 110.367L217.496 3.13306Z" fill="#3264FF"/>
<path d="M31.9335 172.357L26.5453 169.224L26.3672 107.233L31.7597 110.366L31.9335 172.357Z" fill="#00D273"/>
<path d="M31.7597 110.366L26.3672 107.233L212.103 0L217.496 3.13297L31.7597 110.366Z" fill="white"/>
</svg>
