<svg width="258" height="283" viewBox="0 0 258 283" fill="none" xmlns="http://www.w3.org/2000/svg">
<path d="M170.184 144.783L170.326 193.734L118.577 223.611L118.892 223.429L118.751 174.482L170.184 144.783Z" fill="#14B4EF"/>
<path d="M170.047 95.8359L170.184 144.783L118.751 174.482L118.44 174.66L118.298 125.713L170.047 95.8359Z" fill="white"/>
<path d="M118.751 174.482L118.892 223.429L118.577 223.611L67.4551 253.123L67.1438 253.305L67.0023 204.358L67.3136 204.176L118.44 174.66L118.751 174.482Z" fill="white"/>
<path d="M118.298 125.713L118.44 174.66L67.3136 204.176L67.1761 155.23L118.298 125.713Z" fill="#14B4EF"/>
<path d="M67.0023 204.358L67.1438 253.305L67.4551 253.123L15.7065 283L15.5691 234.053L67.0023 204.358Z" fill="#14B4EF"/>
<path d="M15.7065 283L0.525594 274.175L0.384094 225.228L15.5691 234.053L15.7065 283Z" fill="#14B4EF"/>
<path d="M67.1761 155.229L67.3136 204.176L67.0023 204.358L15.569 234.053L15.4316 185.102L67.1761 155.229Z" fill="white"/>
<path d="M15.569 234.053L0.384039 225.227L0.246582 176.281L15.4316 185.102L15.569 234.053Z" fill="white"/>
<path d="M169.909 46.8889L170.047 95.8358L118.298 125.713L118.613 125.531L118.476 76.5837L169.909 46.8889Z" fill="#14B4EF"/>
<path d="M141.484 25.1749L126.299 16.3493L154.615 0L169.8 8.82556L141.484 25.1749Z" fill="white"/>
<path d="M137.87 19.81C139.855 18.6618 141.468 19.5836 141.476 21.8637V25.1708L141.496 32.0436C141.496 34.3238 139.879 37.1013 137.914 38.2454C135.949 39.3895 134.316 38.4758 134.308 36.1916V29.3188V26.0117C134.284 23.7356 135.885 20.9581 137.87 19.81Z" fill="#280A38"/>
<path d="M125.244 10.7377C124.589 10.3576 123.683 10.4102 122.685 10.9883C120.704 12.1324 119.099 14.9099 119.103 17.1901V20.4971L119.123 27.37C119.123 28.506 119.527 29.3025 120.17 29.6744L135.355 38.5C134.708 38.124 134.308 37.3275 134.304 36.1955V29.3227V26.0156C134.304 23.7354 135.901 20.958 137.886 19.8139C138.884 19.2357 139.79 19.1832 140.441 19.5632L125.244 10.7377Z" fill="#280A38"/>
<path d="M110.649 42.9756L95.4641 34.15L119.115 20.4973L134.3 29.3229L110.649 42.9756Z" fill="white"/>
<path d="M118.476 76.5837L118.613 125.531L118.298 125.713L67.1762 155.229L66.8649 155.407L66.7274 106.46L118.476 76.5837Z" fill="white"/>
<path d="M94.4088 28.5384C93.7539 28.1584 92.8483 28.215 91.8497 28.7891C89.8647 29.9372 88.2596 32.7147 88.2677 34.9949V38.3019V45.1748C88.2677 46.3068 88.672 47.1032 89.3148 47.4792L104.5 56.3048C103.857 55.9288 103.457 55.1323 103.453 54.0003V47.1275V43.8245C103.453 41.5443 105.05 38.7668 107.035 37.6187C108.033 37.0405 108.939 36.988 109.594 37.368L94.4088 28.5384Z" fill="#280A38"/>
<path d="M107.035 37.5987C109.02 36.4546 110.633 37.3723 110.641 39.6525V42.9595L110.661 49.8324C110.661 52.1166 109.064 54.89 107.079 56.0341C105.094 57.1783 103.481 56.2646 103.473 53.9844V47.1116V43.8085C103.445 41.5405 105.05 38.7631 107.035 37.5987Z" fill="#280A38"/>
<path d="M79.8141 60.7801L64.6292 51.9545L88.2758 38.3018L103.461 47.1233L79.8141 60.7801Z" fill="white"/>
<path d="M76.1997 55.4193C78.1807 54.2712 79.7979 55.1929 79.8019 57.4731V60.7802V67.653C79.8019 69.9332 78.1848 72.7106 76.22 73.8548C74.2551 74.9989 72.6218 74.0852 72.6137 71.801L72.5935 64.9281V61.6211C72.6097 59.3409 74.2147 56.5635 76.1997 55.4193Z" fill="#280A38"/>
<path d="M63.5699 46.3431C62.919 45.9631 62.0134 46.0156 61.0148 46.5938C59.0297 47.7379 57.4288 50.5153 57.4328 52.7955V56.1026L57.453 62.9754C57.453 64.1115 57.8573 64.9079 58.5001 65.2799L73.6851 74.1054C73.0423 73.7294 72.642 72.933 72.638 71.801L72.6178 64.9281V61.6211C72.6178 59.3409 74.2147 56.5635 76.1998 55.4193C77.1983 54.8412 78.0999 54.7886 78.7548 55.1687L63.5699 46.3431Z" fill="#280A38"/>
<path d="M48.9792 78.5811L33.7943 69.7555L57.4409 56.1028L72.6259 64.9283L48.9792 78.5811Z" fill="white"/>
<path d="M66.7274 106.46L66.8648 155.407L67.1761 155.229L15.4316 185.102L15.2941 136.155L66.7274 106.46Z" fill="#14B4EF"/>
<path d="M15.4316 185.102L0.246649 176.281L0.109192 127.33L15.2942 136.155L15.4316 185.102Z" fill="#14B4EF"/>
<path d="M45.365 73.22C47.35 72.0759 48.9631 72.9937 48.9712 75.2738V78.5809L48.9914 85.4537C48.9914 87.738 47.3945 90.5114 45.4094 91.6555C43.4244 92.7996 41.8072 91.8859 41.8032 89.6058L41.783 82.7329V79.4258C41.7749 77.1457 43.3799 74.3884 45.365 73.22Z" fill="#280A38"/>
<path d="M32.7229 64.1439C32.072 63.7679 31.1664 63.8204 30.1678 64.3945C28.1828 65.5427 26.5778 68.3202 26.5858 70.6003V73.9074L26.6061 80.7802C26.6061 81.9122 27.0103 82.7087 27.6532 83.0847L42.8381 91.9102C42.1913 91.5342 41.791 90.7378 41.791 89.6058L41.7708 82.7329V79.4259C41.7708 77.1457 43.3677 74.3683 45.3528 73.2201C46.3514 72.642 47.257 72.5894 47.9079 72.9694L32.7229 64.1439Z" fill="#280A38"/>
<path d="M169.8 8.82568L169.909 46.8892L118.476 76.584L66.7273 106.461L15.2941 136.156L15.1849 98.092L41.791 82.7291L41.8112 89.602C41.8112 91.8822 43.4283 92.7999 45.4174 91.6517C47.4065 90.5036 49.0035 87.7342 48.9994 85.45L48.9792 78.5771L72.6259 64.9284L72.6461 71.8013C72.6461 74.0855 74.2632 74.9992 76.2523 73.8551C78.2414 72.7109 79.8383 69.9335 79.8343 67.6533V60.7805L103.473 47.1237V53.9965C103.473 56.2767 105.09 57.1944 107.079 56.0463C109.068 54.8981 110.669 52.1287 110.661 49.8445L110.641 42.9717L134.292 29.3189V36.1918C134.292 38.476 135.909 39.3897 137.898 38.2456C139.887 37.1014 141.484 34.324 141.48 32.0438L141.46 25.171L169.8 8.82568Z" fill="#FF6429"/>
<path d="M15.185 98.0916L0 89.266L26.606 73.9072L41.791 82.7287L15.185 98.0916Z" fill="white"/>
<path d="M15.2941 136.155L0.109157 127.33L0 89.2664L15.185 98.0919L15.2941 136.155Z" fill="#FF6429"/>
<path d="M173.924 224.039C174.478 224.104 175.036 224.152 175.606 224.184L172.315 232.674L170.633 232.533L173.924 224.039Z" fill="#280A38"/>
<path d="M194.498 116.277C221.638 100.607 243.708 113.184 243.796 144.371C243.885 175.557 221.965 213.536 194.817 229.202C167.669 244.868 145.612 232.291 145.519 201.108C145.426 169.925 167.35 131.943 194.498 116.277Z" fill="#F5F5F5"/>
<path d="M194.437 100.764C229.032 80.7924 257.166 96.8223 257.279 136.576C257.393 176.329 229.456 224.738 194.862 244.714C160.267 264.69 132.133 248.636 132.024 208.902C131.914 169.169 159.863 120.736 194.437 100.764ZM194.801 229.202C221.941 213.536 243.869 175.553 243.78 144.37C243.691 113.188 221.621 100.606 194.482 116.277C167.342 131.947 145.434 169.921 145.519 201.108C145.604 232.294 167.678 244.872 194.813 229.202" fill="#B066FF"/>
<path d="M215.638 82.8097C204.249 76.1875 188.474 77.1214 171.065 87.172C136.475 107.136 108.522 155.557 108.632 195.31C108.688 215.056 115.662 228.951 126.905 235.484L150.293 249.076C139.05 242.543 132.076 228.648 132.024 208.902C131.91 169.149 159.863 120.736 194.453 100.764C211.862 90.7135 227.637 89.7796 239.026 96.4018L215.638 82.8097Z" fill="#280A38"/>
<path d="M215.618 199.968L218.945 204.641L217.267 206.719L213.944 202.05C214.51 201.363 215.056 200.671 215.618 199.968Z" fill="#280A38"/>
<path d="M229.861 174.478L235.602 174.971L234.635 177.457L228.895 176.964C229.23 176.135 229.549 175.31 229.861 174.478Z" fill="#280A38"/>
<path d="M241.286 144.706V146.93L234.66 150.754C234.66 150.378 234.66 150.006 234.66 149.634C234.66 149.262 234.66 148.894 234.66 148.527L241.286 144.706Z" fill="#280A38"/>
<path d="M234.482 121.949L235.452 123.315L229.735 130.427C229.424 129.954 229.097 129.497 228.757 129.06L234.482 121.949Z" fill="#280A38"/>
<path d="M159.584 215.052C159.895 215.525 160.218 215.982 160.558 216.418L154.837 223.53L153.863 222.163L159.584 215.052Z" fill="#280A38"/>
<path d="M217.005 112.796L218.682 112.937L215.395 121.427C214.842 121.355 214.28 121.306 213.714 121.278L217.005 112.796Z" fill="#280A38"/>
<path d="M196.734 173.224C197.022 172.614 197.179 171.95 197.194 171.276C197.213 170.828 197.092 170.385 196.847 170.01C196.673 169.757 196.41 169.58 196.111 169.513L195.965 169.489L197.267 140.445L194.841 141.682L193.56 170.742C192.698 171.696 192.193 172.919 192.129 174.203C192.097 174.714 192.264 175.218 192.594 175.61C192.802 175.842 193.091 175.986 193.402 176.014C193.852 176.033 194.297 175.913 194.676 175.67C194.769 175.618 194.862 175.557 194.951 175.496L211.122 198.803L212.933 196.58L196.734 173.224Z" fill="#280A38"/>
<path d="M154.647 194.724C154.647 195.1 154.647 195.472 154.647 195.844C154.647 196.216 154.647 196.584 154.647 196.952L148.025 200.772V198.549L154.647 194.724Z" fill="#280A38"/>
<path d="M195.658 118.318L195.686 127.37L193.378 128.7L193.354 119.648L195.658 118.318Z" fill="#280A38"/>
<path d="M154.68 168.021L160.425 168.514C160.088 169.339 159.766 170.167 159.458 170.997L153.718 170.504L154.68 168.021Z" fill="#280A38"/>
<path d="M172.048 138.759L175.375 143.428C174.809 144.11 174.251 144.804 173.701 145.51L170.374 140.837L172.048 138.759Z" fill="#280A38"/>
<path d="M195.998 216.289L196.026 225.688L193.596 227.091L193.568 217.692L195.998 216.289Z" fill="#280A38"/>
<path d="M222.062 124.561L222.834 125.001L196.863 170.01C196.689 169.758 196.426 169.58 196.127 169.513L222.062 124.561Z" fill="#FF6429"/>
<path d="M192.59 175.61C192.798 175.842 193.087 175.986 193.398 176.014L186.635 187.738L185.862 187.302L192.59 175.61Z" fill="#FF6429"/>
</svg>
