<svg width="61" height="160" viewBox="0 0 61 160" fill="none" xmlns="http://www.w3.org/2000/svg">
<path d="M13.9249 160L0.0615124 151.937L0.00195312 131.109L13.8654 139.172L13.9249 160Z" fill="#280A38"/>
<path d="M39.3589 89.6943L53.2302 97.7575C49.0412 95.3195 43.2401 95.6632 36.8375 99.363L22.9741 91.2998C29.3688 87.6001 35.1639 87.2563 39.3589 89.6943Z" fill="#280A38"/>
<path d="M36.8295 99.363C49.5533 92.0112 59.9007 97.9125 59.9424 112.547L60.002 133.374L13.921 160L13.8614 139.172C13.8237 124.538 24.1056 106.715 36.8295 99.363Z" fill="#3264FF"/>
<path d="M13.8655 139.172L0.00207947 131.109C-0.039612 116.475 10.2423 98.6537 22.9661 91.2998L36.8296 99.363C24.1057 106.715 13.8238 124.538 13.8655 139.172Z" fill="#14B4EF"/>
<path d="M29.1404 101.1C40.3462 101.1 49.4303 92.0079 49.4303 80.7927C49.4303 69.5775 40.3462 60.4857 29.1404 60.4857C17.9347 60.4857 8.85059 69.5775 8.85059 80.7927C8.85059 92.0079 17.9347 101.1 29.1404 101.1Z" fill="#FF9F00"/>
<path d="M26.627 54.5465L17.8758 49.4579L13.0972 45.0627L21.8464 50.1513L26.627 54.5465Z" fill="#280A38"/>
<path d="M40.02 5.76208C42.7279 4.19633 44.9316 5.45409 44.9395 8.5677L45.0011 30.5815C45.011 33.6971 42.8172 37.4903 40.1133 39.056L32.9542 43.1929C32.5385 43.4568 32.2082 43.8357 32.0033 44.2838L27.2643 54.169C27.1969 54.3196 27.0864 54.4469 26.9467 54.5346C26.9007 54.5696 26.8446 54.5885 26.7869 54.5885C26.7291 54.5885 26.673 54.5696 26.6271 54.5346L21.8484 50.1394C21.6201 49.9407 21.2667 49.9407 20.8935 50.1493L13.7345 54.2862C11.0265 55.852 8.82281 54.5962 8.81487 51.4806L8.75928 29.4787C8.75928 26.3651 10.9431 22.57 13.6471 21.0062L40.02 5.76208Z" fill="#F0324E"/>
<path d="M34.7667 0.33172C33.8753 -0.186883 32.6405 -0.115353 31.2785 0.67348L4.88982 15.9156C3.52988 16.7104 2.30892 18.0517 1.41553 19.5936L10.1648 24.6822C11.0502 23.1403 12.2791 21.7912 13.6391 21.0063L40.0199 5.76215C41.3818 4.96736 42.6166 4.90179 43.508 5.42039L34.7667 0.33172Z" fill="#FF9F00"/>
<path d="M1.41356 19.5956C0.536054 21.1236 -0.00394887 22.8423 2.1747e-05 24.3922L0.0635531 46.406C0.0635531 47.9538 0.61348 49.0427 1.49297 49.5534L10.2422 54.642C9.36274 54.1314 8.81677 53.0425 8.8128 51.4946L8.7592 29.4788C8.7592 27.929 9.29524 26.2103 10.1727 24.6823L1.41356 19.5956Z" fill="#280A38"/>
</svg>
