<svg width="85" height="146" viewBox="0 0 85 146" fill="none" xmlns="http://www.w3.org/2000/svg">
<path d="M2.40708 6.79627L2.10368 113.362L0 112.155L0.303397 5.58694L2.40708 6.79627Z" fill="#14B4EF"/>
<path d="M2.40691 6.79627L12.0714 1.20734L11.768 107.775L2.10352 113.362L2.40691 6.79627Z" fill="#280A38"/>
<path d="M0.303711 5.58694L9.9682 0L12.0719 1.20734L2.4074 6.79628L0.303711 5.58694Z" fill="white"/>
<path d="M75.1381 127.466L75.0858 146L6.18262 106.424L6.23687 87.8898L75.1381 127.466Z" fill="#FF6429"/>
<path d="M75.1382 127.466L84.8027 121.879L84.7504 140.413L75.0859 146L75.1382 127.466Z" fill="#280A38"/>
<path d="M6.23682 87.8898L15.9013 82.3029L84.8025 121.879L75.138 127.466L6.23682 87.8898Z" fill="white"/>
<path d="M63.046 97.3167L62.9918 115.851L6.24854 83.2564L6.30078 64.7245L63.046 97.3167Z" fill="#14B4EF"/>
<path d="M63.0459 97.3167L72.7104 91.7297L72.6562 110.262L62.9917 115.851L63.0459 97.3167Z" fill="#280A38"/>
<path d="M6.30078 64.7245L15.9653 59.1376L72.7105 91.7297L63.046 97.3167L6.30078 64.7245Z" fill="white"/>
<path d="M50.9529 67.1652L50.8987 85.699L6.31543 60.091L6.36767 41.5572L50.9529 67.1652Z" fill="#B066FF"/>
<path d="M50.9527 67.1652L60.6172 61.5782L60.5629 80.1101L50.8984 85.699L50.9527 67.1652Z" fill="#280A38"/>
<path d="M6.36719 41.5572L16.0317 35.9702L60.6169 61.5782L50.9524 67.1651L6.36719 41.5572Z" fill="white"/>
<path d="M38.8589 37.0137L38.8046 55.5476L6.38135 36.9238L6.43359 18.3899L38.8589 37.0137Z" fill="#00D273"/>
<path d="M38.8589 37.0137L48.5234 31.4268L48.4692 49.9606L38.8047 55.5476L38.8589 37.0137Z" fill="#280A38"/>
<path d="M6.43359 18.3899L16.0981 12.803L48.5234 31.4268L38.8589 37.0137L6.43359 18.3899Z" fill="white"/>
</svg>
