<svg width="282" height="309" viewBox="0 0 282 309" fill="none" xmlns="http://www.w3.org/2000/svg">
<path d="M13.0243 235.616L114.133 294.033L114.09 309L0.0656433 243.063L13.0243 235.616Z" fill="#280A38"/>
<path d="M13.0244 104.987V235.616L0.0656625 243.063L0 97.4663L13.0244 104.987Z" fill="#280A38"/>
<path d="M114.133 294.033L281.85 196.566L281.808 211.534L114.091 309L114.133 294.033Z" fill="#00D273"/>
<path d="M13.0243 235.616L180.85 138.15L281.85 196.567L114.133 294.033L13.0243 235.616Z" fill="#B066FF"/>
<path d="M145.493 233.434L191.924 206.47L222.557 224.156L176.153 251.12L145.493 233.434Z" fill="white"/>
<path d="M13.0243 104.987L180.742 7.52026L180.85 138.15L13.0243 235.616V104.987Z" fill="#00D273"/>
<path d="M20.8034 111.499L172.97 23.0706L173.067 132.202L20.8034 220.641V111.499Z" fill="#280A38"/>
<path d="M0 97.4663L167.717 0L180.742 7.52029L13.0244 104.987L0 97.4663Z" fill="#B066FF"/>
<path d="M172.588 160.116L172.604 165.408L161.765 159.108L161.75 153.816L172.588 160.116Z" fill="#280A38"/>
<path d="M184.11 153.465L184.125 158.756L172.604 165.408L172.588 160.116L184.11 153.465Z" fill="white"/>
<path d="M172.588 160.116L161.75 153.816L173.272 147.165L184.11 153.465L172.588 160.116Z" fill="#B066FF"/>
<path d="M158.768 168.1L158.78 173.392L147.941 167.092L147.926 161.796L158.768 168.1Z" fill="#280A38"/>
<path d="M170.286 161.445L170.301 166.74L158.78 173.391L158.768 168.1L170.286 161.445Z" fill="white"/>
<path d="M158.768 168.1L147.926 161.796L159.448 155.145L170.286 161.445L158.768 168.1Z" fill="#B066FF"/>
<path d="M144.944 176.08L144.96 181.371L134.118 175.072L134.102 169.78L144.944 176.08Z" fill="#280A38"/>
<path d="M156.466 169.428L156.478 174.72L144.96 181.371L144.944 176.08L156.466 169.428Z" fill="white"/>
<path d="M144.944 176.08L134.102 169.78L145.624 163.129L156.466 169.429L144.944 176.08Z" fill="#B066FF"/>
<path d="M131.116 184.06L131.132 189.351L120.294 183.055L120.278 177.76L131.116 184.06Z" fill="#280A38"/>
<path d="M142.638 177.408L142.654 182.7L131.132 189.351L131.116 184.06L142.638 177.408Z" fill="white"/>
<path d="M131.116 184.06L120.278 177.76L131.796 171.109L142.638 177.409L131.116 184.06Z" fill="#B066FF"/>
<path d="M117.293 192.044L117.308 197.335L106.47 191.036L106.454 185.744L117.293 192.044Z" fill="#280A38"/>
<path d="M128.814 185.392L128.83 190.684L117.308 197.335L117.293 192.044L128.814 185.392Z" fill="white"/>
<path d="M117.293 192.043L106.454 185.744L117.976 179.093L128.814 185.392L117.293 192.043Z" fill="#B066FF"/>
<path d="M103.473 200.023L103.488 205.315L92.6459 199.015L92.6305 193.724L103.473 200.023Z" fill="#280A38"/>
<path d="M114.99 193.372L115.006 198.664L103.488 205.315L103.473 200.024L114.99 193.372Z" fill="white"/>
<path d="M103.473 200.023L92.6305 193.724L104.152 187.073L114.99 193.372L103.473 200.023Z" fill="#B066FF"/>
<path d="M89.6486 208.003L89.6641 213.295L78.822 206.995L78.8066 201.704L89.6486 208.003Z" fill="#280A38"/>
<path d="M101.167 201.352L101.182 206.644L89.6641 213.295L89.6486 208.003L101.167 201.352Z" fill="white"/>
<path d="M89.6486 208.003L78.8066 201.704L90.3284 195.052L101.167 201.352L89.6486 208.003Z" fill="#B066FF"/>
<path d="M75.8247 215.983L75.8402 221.275L64.9981 214.979L64.9827 209.684L75.8247 215.983Z" fill="#280A38"/>
<path d="M87.3466 209.332L87.362 214.624L75.8402 221.275L75.8247 215.983L87.3466 209.332Z" fill="white"/>
<path d="M75.8247 215.983L64.9827 209.683L76.5045 203.032L87.3466 209.332L75.8247 215.983Z" fill="#B066FF"/>
<path d="M62.0008 223.967L62.0163 229.259L51.1743 222.959L51.1627 217.667L62.0008 223.967Z" fill="#280A38"/>
<path d="M73.5227 217.316L73.5381 222.607L62.0163 229.259L62.0008 223.967L73.5227 217.316Z" fill="white"/>
<path d="M62.0008 223.967L51.1627 217.667L62.6806 211.016L73.5227 217.316L62.0008 223.967Z" fill="#B066FF"/>
<path d="M48.177 231.947L48.1924 237.239L37.3542 230.939L37.3388 225.647L48.177 231.947Z" fill="#280A38"/>
<path d="M59.6988 225.296L59.7142 230.588L48.1924 237.239L48.1769 231.947L59.6988 225.296Z" fill="white"/>
<path d="M59.6988 225.296L48.177 231.947L37.3388 225.647L48.8568 218.996L59.6988 225.296Z" fill="#B066FF"/>
<path d="M185.721 167.748L185.736 173.04L174.894 166.74L174.879 161.445L185.721 167.748Z" fill="#280A38"/>
<path d="M197.242 161.097L197.254 166.389L185.736 173.04L185.721 167.748L197.242 161.097Z" fill="white"/>
<path d="M185.721 167.748L174.879 161.445L186.397 154.793L197.242 161.097L185.721 167.748Z" fill="#B066FF"/>
<path d="M171.897 175.728L171.912 181.02L161.07 174.72L161.055 169.428L171.897 175.728Z" fill="#280A38"/>
<path d="M183.419 169.077L183.434 174.369L171.912 181.02L171.897 175.728L183.419 169.077Z" fill="white"/>
<path d="M171.897 175.728L161.055 169.429L172.576 162.777L183.419 169.077L171.897 175.728Z" fill="#B066FF"/>
<path d="M158.073 183.708L158.088 189L147.246 182.7L147.231 177.408L158.073 183.708Z" fill="#280A38"/>
<path d="M169.595 177.057L169.61 182.349L158.088 189L158.073 183.708L169.595 177.057Z" fill="white"/>
<path d="M158.073 183.708L147.231 177.409L158.753 170.757L169.595 177.057L158.073 183.708Z" fill="#B066FF"/>
<path d="M144.249 191.692L144.264 196.984L133.422 190.684L133.403 185.392L144.249 191.692Z" fill="#280A38"/>
<path d="M155.767 185.041L155.782 190.332L144.264 196.984L144.249 191.692L155.767 185.041Z" fill="white"/>
<path d="M144.249 191.692L133.403 185.392L144.925 178.737L155.767 185.041L144.249 191.692Z" fill="#B066FF"/>
<path d="M130.425 199.672L130.44 204.964L119.598 198.664L119.583 193.372L130.425 199.672Z" fill="#280A38"/>
<path d="M141.947 193.021L141.962 198.312L130.44 204.964L130.425 199.672L141.947 193.021Z" fill="white"/>
<path d="M130.425 199.672L119.583 193.372L131.101 186.721L141.947 193.021L130.425 199.672Z" fill="#B066FF"/>
<path d="M116.601 207.652L116.617 212.947L105.775 206.644L105.759 201.352L116.601 207.652Z" fill="#280A38"/>
<path d="M128.123 201.001L128.138 206.292L116.617 212.947L116.601 207.652L128.123 201.001Z" fill="white"/>
<path d="M116.601 207.652L105.759 201.352L117.281 194.701L128.123 201.001L116.601 207.652Z" fill="#B066FF"/>
<path d="M102.777 215.636L102.793 220.927L91.9507 214.624L91.9352 209.332L102.777 215.636Z" fill="#280A38"/>
<path d="M114.299 208.981L114.315 214.276L102.793 220.927L102.777 215.636L114.299 208.981Z" fill="white"/>
<path d="M102.777 215.636L91.9352 209.332L103.457 202.681L114.299 208.98L102.777 215.636Z" fill="#B066FF"/>
<path d="M88.9534 223.615L88.9688 228.907L78.1268 222.607L78.1113 217.316L88.9534 223.615Z" fill="#280A38"/>
<path d="M100.475 216.964L100.491 222.256L88.9688 228.907L88.9534 223.616L100.475 216.964Z" fill="white"/>
<path d="M88.9534 223.615L78.1113 217.316L89.6332 210.661L100.475 216.964L88.9534 223.615Z" fill="#B066FF"/>
<path d="M75.1295 231.596L75.1449 236.887L64.3029 230.588L64.2875 225.296L75.1295 231.596Z" fill="#280A38"/>
<path d="M86.6513 224.944L86.6668 230.236L75.1449 236.887L75.1295 231.596L86.6513 224.944Z" fill="white"/>
<path d="M75.1295 231.595L64.2875 225.296L75.8093 218.645L86.6513 224.944L75.1295 231.595Z" fill="#B066FF"/>
<path d="M61.3056 239.575L61.3249 244.871L50.479 238.567L50.4674 233.276L61.3056 239.575Z" fill="#280A38"/>
<path d="M72.8274 232.924L72.8429 238.22L61.3249 244.871L61.3056 239.576L72.8274 232.924Z" fill="white"/>
<path d="M61.3056 239.575L50.4674 233.276L61.9854 226.624L72.8274 232.924L61.3056 239.575Z" fill="#B066FF"/>
<path d="M198.849 175.377L198.865 180.669L188.023 174.369L188.007 169.077L198.849 175.377Z" fill="#280A38"/>
<path d="M210.367 168.726L210.383 174.017L198.865 180.668L198.849 175.377L210.367 168.726Z" fill="white"/>
<path d="M198.849 175.377L188.007 169.077L199.529 162.426L210.367 168.726L198.849 175.377Z" fill="#B066FF"/>
<path d="M185.025 183.357L185.041 188.648L174.199 182.349L174.183 177.057L185.025 183.357Z" fill="#280A38"/>
<path d="M196.547 176.706L196.563 181.997L185.041 188.648L185.025 183.357L196.547 176.706Z" fill="white"/>
<path d="M185.025 183.357L174.183 177.057L185.705 170.406L196.547 176.705L185.025 183.357Z" fill="#B066FF"/>
<path d="M171.201 191.341L171.217 196.632L160.375 190.329L160.359 185.037L171.201 191.341Z" fill="#280A38"/>
<path d="M182.723 184.685L182.739 189.981L171.217 196.632L171.201 191.34L182.723 184.685Z" fill="white"/>
<path d="M171.201 191.341L160.359 185.037L171.881 178.39L182.723 184.686L171.201 191.341Z" fill="#B066FF"/>
<path d="M157.378 199.32L157.393 204.612L146.551 198.312L146.536 193.021L157.378 199.32Z" fill="#280A38"/>
<path d="M168.896 192.669L168.911 197.961L157.393 204.612L157.378 199.32L168.896 192.669Z" fill="white"/>
<path d="M157.378 199.32L146.536 193.021L158.057 186.369L168.896 192.669L157.378 199.32Z" fill="#B066FF"/>
<path d="M143.554 207.3L143.569 212.592L132.727 206.292L132.712 201.001L143.554 207.3Z" fill="#280A38"/>
<path d="M155.075 200.649L155.087 205.941L143.569 212.592L143.554 207.3L155.075 200.649Z" fill="white"/>
<path d="M143.554 207.3L132.712 201.001L144.233 194.349L155.076 200.649L143.554 207.3Z" fill="#B066FF"/>
<path d="M129.73 215.284L129.745 220.576L118.903 214.276L118.888 208.981L129.73 215.284Z" fill="#280A38"/>
<path d="M141.252 208.629L141.267 213.925L129.745 220.576L129.73 215.284L141.252 208.629Z" fill="white"/>
<path d="M129.73 215.284L118.888 208.981L130.41 202.329L141.252 208.629L129.73 215.284Z" fill="#B066FF"/>
<path d="M115.906 223.264L115.921 228.556L105.079 222.256L105.064 216.964L115.906 223.264Z" fill="#280A38"/>
<path d="M127.428 216.613L127.443 221.904L115.921 228.556L115.906 223.264L127.428 216.613Z" fill="white"/>
<path d="M115.906 223.264L105.064 216.964L116.586 210.313L127.428 216.613L115.906 223.264Z" fill="#B066FF"/>
<path d="M102.082 231.244L102.097 236.536L91.2554 230.236L91.2438 224.944L102.082 231.244Z" fill="#280A38"/>
<path d="M113.604 224.593L113.619 229.884L102.097 236.536L102.082 231.244L113.604 224.593Z" fill="white"/>
<path d="M102.082 231.244L91.2438 224.944L102.762 218.293L113.604 224.593L102.082 231.244Z" fill="#B066FF"/>
<path d="M88.2581 239.224L88.2736 244.516L77.4354 238.22L77.42 232.924L88.2581 239.224Z" fill="#280A38"/>
<path d="M99.78 232.573L99.7954 237.864L88.2736 244.515L88.2581 239.224L99.78 232.573Z" fill="white"/>
<path d="M88.2581 239.224L77.42 232.924L88.9379 226.273L99.78 232.573L88.2581 239.224Z" fill="#B066FF"/>
<path d="M74.4342 247.208L74.4497 252.499L63.6115 246.2L63.596 240.908L74.4342 247.208Z" fill="#280A38"/>
<path d="M85.9561 240.553L85.9715 245.848L74.4497 252.499L74.4342 247.208L85.9561 240.553Z" fill="white"/>
<path d="M74.4342 247.208L63.596 240.908L75.114 234.257L85.9561 240.553L74.4342 247.208Z" fill="#B066FF"/>
<path d="M211.974 183.005L211.993 188.297L201.151 181.997L201.136 176.706L211.974 183.005Z" fill="#280A38"/>
<path d="M223.496 176.354L223.511 181.646L211.993 188.297L211.974 183.005L223.496 176.354Z" fill="white"/>
<path d="M211.974 183.005L201.136 176.706L212.658 170.054L223.496 176.354L211.974 183.005Z" fill="#B066FF"/>
<path d="M198.154 190.985L198.166 196.281L187.327 189.981L187.312 184.685L198.154 190.985Z" fill="#280A38"/>
<path d="M209.672 184.334L209.687 189.625L198.166 196.28L198.154 190.985L209.672 184.334Z" fill="white"/>
<path d="M198.154 190.985L187.312 184.685L198.834 178.034L209.672 184.334L198.154 190.985Z" fill="#B066FF"/>
<path d="M184.33 198.969L184.346 204.261L173.503 197.961L173.488 192.669L184.33 198.969Z" fill="#280A38"/>
<path d="M195.852 192.318L195.863 197.609L184.346 204.26L184.33 198.969L195.852 192.318Z" fill="white"/>
<path d="M184.33 198.969L173.488 192.669L185.01 186.018L195.852 192.318L184.33 198.969Z" fill="#B066FF"/>
<path d="M170.502 206.949L170.518 212.241L159.68 205.941L159.664 200.649L170.502 206.949Z" fill="#280A38"/>
<path d="M182.024 200.298L182.04 205.589L170.518 212.24L170.502 206.949L182.024 200.298Z" fill="white"/>
<path d="M170.502 206.949L159.664 200.649L171.182 193.998L182.024 200.298L170.502 206.949Z" fill="#B066FF"/>
<path d="M156.678 214.933L156.698 220.224L145.856 213.925L145.84 208.629L156.678 214.933Z" fill="#280A38"/>
<path d="M168.2 208.281L168.216 213.573L156.698 220.224L156.678 214.933L168.2 208.281Z" fill="white"/>
<path d="M156.678 214.933L145.84 208.629L157.362 201.978L168.2 208.281L156.678 214.933Z" fill="#B066FF"/>
<path d="M142.858 222.913L142.87 228.204L132.032 221.904L132.016 216.613L142.858 222.913Z" fill="#280A38"/>
<path d="M154.376 216.261L154.396 221.553L142.87 228.204L142.858 222.912L154.376 216.261Z" fill="white"/>
<path d="M142.858 222.913L132.016 216.613L143.538 209.962L154.376 216.261L142.858 222.913Z" fill="#B066FF"/>
<path d="M129.035 230.893L129.05 236.184L118.208 229.884L118.192 224.593L129.035 230.893Z" fill="#280A38"/>
<path d="M140.556 224.241L140.572 229.533L129.05 236.184L129.035 230.892L140.556 224.241Z" fill="white"/>
<path d="M129.035 230.893L118.192 224.593L129.714 217.942L140.556 224.241L129.035 230.893Z" fill="#B066FF"/>
<path d="M115.211 238.872L115.226 244.164L104.384 237.864L104.369 232.573L115.211 238.872Z" fill="#280A38"/>
<path d="M126.732 232.221L126.748 237.513L115.226 244.164L115.211 238.872L126.732 232.221Z" fill="white"/>
<path d="M115.211 238.872L104.369 232.573L115.89 225.921L126.732 232.221L115.211 238.872Z" fill="#B066FF"/>
<path d="M101.387 246.856L101.402 252.148L90.564 245.848L90.5486 240.553L101.387 246.856Z" fill="#280A38"/>
<path d="M112.909 240.205L112.924 245.497L101.402 252.148L101.387 246.856L112.909 240.205Z" fill="white"/>
<path d="M101.387 246.856L90.5486 240.553L102.067 233.901L112.909 240.205L101.387 246.856Z" fill="#B066FF"/>
<path d="M87.5629 254.836L87.5783 260.128L76.7401 253.828L76.7247 248.536L87.5629 254.836Z" fill="#280A38"/>
<path d="M99.0847 248.185L99.1002 253.477L87.5783 260.128L87.5629 254.836L99.0847 248.185Z" fill="white"/>
<path d="M87.5629 254.836L76.7247 248.536L88.2427 241.885L99.0847 248.185L87.5629 254.836Z" fill="#B066FF"/>
<path d="M112.449 91.9663L104.658 105.462L89.0268 114.485L96.8174 100.993L112.449 91.9663Z" fill="#00D273"/>
<path d="M104.709 123.422L96.9179 136.918L81.2863 145.945L89.077 132.449L104.709 123.422Z" fill="#FF6429"/>
<path d="M88.9997 105.504L89.0268 114.484L89.077 132.449L81.2863 145.945L81.2091 119L88.9997 105.504Z" fill="#14B4EF"/>
<path d="M112.449 91.9663L112.526 118.911L104.736 132.407L104.658 105.462L112.449 91.9663Z" fill="#B066FF"/>
</svg>
