<svg width="103" height="26" viewBox="0 0 103 26" fill="none" xmlns="http://www.w3.org/2000/svg">
<path d="M19.4999 6.9H6.8999L13.1999 0.5H25.8999L19.4999 6.9Z" fill="#00D273"/>
<path d="M13.2 25.9H0.5L6.89999 19.5H19.5L13.2 25.9Z" fill="#FF6429"/>
<path d="M0.5 6.9V25.9L6.89999 19.5V0.5L0.5 6.9Z" fill="#14B4EF"/>
<path d="M19.5 6.9V25.9L25.9 19.5V0.5L19.5 6.9Z" fill="#B066FF"/>
<path d="M32.2002 3.7002H35.0002V20.0002H44.3002V22.8002H32.2002V3.7002Z" fill="#2D003C"/>
<path d="M52.3004 23.0002C51.3004 23.0002 50.3004 22.8002 49.4004 22.4002C48.5004 22.0002 47.7004 21.5002 47.1004 20.8002C46.4004 20.1002 45.9004 19.4002 45.5004 18.5002C45.1004 17.6002 44.9004 16.7002 44.9004 15.6002C44.9004 14.6002 45.1004 13.6002 45.5004 12.7002C45.9004 11.8002 46.4004 11.0002 47.1004 10.4002C47.8004 9.70019 48.5004 9.20019 49.4004 8.80019C50.3004 8.40019 51.2004 8.2002 52.3004 8.2002C53.3004 8.2002 54.3004 8.40019 55.2004 8.80019C56.1004 9.20019 56.9004 9.70019 57.5004 10.4002C58.2004 11.1002 58.7004 11.8002 59.1004 12.7002C59.5004 13.6002 59.7004 14.5002 59.7004 15.6002C59.7004 16.6002 59.5004 17.6002 59.1004 18.5002C58.7004 19.4002 58.2004 20.2002 57.5004 20.8002C56.8004 21.5002 56.1004 22.0002 55.2004 22.4002C54.2004 22.8002 53.3004 23.0002 52.3004 23.0002ZM52.3004 20.4002C52.9004 20.4002 53.5004 20.3002 54.1004 20.0002C54.6004 19.8002 55.1004 19.4002 55.5004 19.0002C55.9004 18.6002 56.2004 18.1002 56.5004 17.5002C56.8004 16.9002 56.9004 16.3002 56.9004 15.7002C56.9004 15.1002 56.8004 14.4002 56.5004 13.9002C56.3004 13.3002 55.9004 12.8002 55.5004 12.4002C55.1004 12.0002 54.6004 11.6002 54.1004 11.4002C53.5004 11.2002 53.0004 11.0002 52.3004 11.0002C51.7004 11.0002 51.1004 11.1002 50.5004 11.4002C50.0004 11.6002 49.5004 12.0002 49.1004 12.4002C48.7004 12.8002 48.4004 13.3002 48.1004 13.9002C47.9004 14.5002 47.8004 15.1002 47.8004 15.7002C47.8004 16.4002 47.9004 17.0002 48.1004 17.5002C48.3004 18.1002 48.6004 18.6002 49.1004 19.0002C49.5004 19.4002 50.0004 19.8002 50.5004 20.0002C51.0004 20.2002 51.6004 20.4002 52.3004 20.4002Z" fill="#2D003C"/>
<path d="M68.4 23.0002C67.4 23.0002 66.4 22.8002 65.5 22.4002C64.6 22.0002 63.8 21.5002 63.2 20.8002C62.5 20.1002 62 19.4002 61.6 18.5002C61.2 17.6002 61 16.7002 61 15.6002C61 14.6002 61.2 13.6002 61.6 12.7002C62 11.8002 62.5 11.0002 63.2 10.4002C63.9 9.70019 64.6 9.20019 65.5 8.80019C66.4 8.40019 67.4 8.2002 68.4 8.2002C69.2 8.2002 69.9 8.30019 70.6 8.50019C71.3 8.70019 71.9 9.00019 72.5 9.40019C73.1 9.80019 73.6 10.2002 74 10.8002C74.4 11.3002 74.8 11.9002 75.1 12.5002L72.6 13.6002C72.2 12.7002 71.7 12.1002 71 11.6002C70.3 11.1002 69.4 10.9002 68.5 10.9002C67.8 10.9002 67.2 11.0002 66.7 11.3002C66.1 11.5002 65.7 11.9002 65.3 12.3002C64.9 12.7002 64.6 13.2002 64.3 13.8002C64.1 14.4002 63.9 15.0002 63.9 15.6002C63.9 16.2002 64 16.9002 64.3 17.4002C64.5 18.0002 64.9 18.5002 65.3 18.9002C65.7 19.3002 66.2 19.7002 66.8 19.9002C67.4 20.1002 68 20.3002 68.6 20.3002C69.6 20.3002 70.5 20.0002 71.2 19.5002C71.9 19.0002 72.4 18.3002 72.8 17.5002L75.4 18.6002C74.8 19.9002 74 21.0002 72.8 21.8002C71.4 22.6002 70 23.0002 68.4 23.0002Z" fill="#2D003C"/>
<path d="M82.6003 23.0006C80.7003 23.0006 79.3003 22.4006 78.3003 21.3006C77.3003 20.2006 76.8003 18.7006 76.8003 16.7006V8.60059H79.7003V16.6006C79.7003 17.8006 80.0003 18.8006 80.6003 19.5006C81.2003 20.2006 82.1003 20.6006 83.3003 20.6006C83.8003 20.6006 84.3003 20.5006 84.8003 20.3006C85.3003 20.1006 85.7003 19.8006 86.0003 19.5006C86.3003 19.2006 86.6003 18.7006 86.8003 18.2006C87.0003 17.7006 87.1003 17.1006 87.1003 16.5006V8.70059H89.9003V22.8006H87.0003V20.9006C86.5003 21.6006 85.9003 22.1006 85.1003 22.5006C84.4003 22.8006 83.5003 23.0006 82.6003 23.0006Z" fill="#2D003C"/>
<path d="M102.6 16.7006C102.3 16.2006 101.9 15.8006 101.4 15.5006C100.9 15.2006 100.4 14.9006 99.8003 14.8006C99.2003 14.6006 98.6003 14.5006 98.0003 14.3006C96.9003 14.1006 96.1003 13.8006 95.5003 13.6006C94.9003 13.4006 94.6003 13.0006 94.6003 12.4006C94.6003 11.9006 94.8003 11.5006 95.2003 11.1006C95.6003 10.8006 96.3003 10.6006 97.1003 10.6006C97.9003 10.6006 98.5003 10.7006 99.0003 11.0006C99.5003 11.3006 100 11.7006 100.3 12.2006L102.3 10.2006C101.8 9.60059 101.2 9.20058 100.5 8.80058C99.6003 8.30058 98.5003 8.10059 97.1003 8.10059C96.3003 8.10059 95.5003 8.20059 94.8003 8.40059C94.1003 8.60059 93.6003 8.90058 93.1003 9.30058C92.6003 9.70058 92.3003 10.1006 92.0003 10.7006C91.7003 11.2006 91.6003 11.7006 91.6003 12.3006C91.6003 13.0006 91.7003 13.6006 92.0003 14.1006C92.3003 14.6006 92.7003 15.0006 93.1003 15.3006C93.6003 15.6006 94.1003 15.8006 94.7003 16.0006C95.3003 16.2006 95.9003 16.3006 96.5003 16.5006C97.0003 16.6006 97.4003 16.7006 97.8003 16.8006C98.2003 16.9006 98.6003 17.0006 98.9003 17.1006C99.2003 17.2006 99.5003 17.4006 99.7003 17.6006C99.9003 17.8006 100 18.1006 100 18.4006C100 18.9006 99.8003 19.4006 99.3003 19.8006C98.8003 20.2006 98.1003 20.4006 97.2003 20.4006C96.3003 20.4006 95.6003 20.2006 95.0003 19.9006C94.4003 19.5006 93.9003 19.0006 93.4003 18.4006L91.3003 20.5006C91.8003 21.2006 92.5003 21.8006 93.3003 22.2006C94.3003 22.7006 95.6003 23.0006 97.1003 23.0006C98.1003 23.0006 98.9003 22.9006 99.6003 22.6006C100.3 22.3006 100.9 22.0006 101.4 21.6006C101.9 21.2006 102.2 20.7006 102.5 20.2006C102.7 19.7006 102.9 19.1006 102.9 18.6006C103 17.8006 102.9 17.2006 102.6 16.7006Z" fill="#2D003C"/>
</svg>
