<svg fill="none" height="483" viewBox="0 0 919 483" width="919" xmlns="http://www.w3.org/2000/svg" xmlns:xlink="http://www.w3.org/1999/xlink"><clipPath id="a"><path d="m0 0h919v483h-919z"/></clipPath><g clip-path="url(#a)"><path d="m1041.75 283.02h-1095.85v200.2h1095.85z" fill="#ecf6ff"/><path d="m1042.5-.100098h-1096.6v297.270098h1096.6z" fill="#d2e9ff"/><path d="m503.1-7.78992s-31.74 102.91992 79.32 117.68992c20.081 2.617 40.462 1.802 60.27-2.41l138.88-29.09c21.087-4.4194 42.912-3.8845 63.758 1.5624 20.845 5.4469 40.142 15.6573 56.372 29.8276l20.1 17.54c24.86 21.71 63.71 4 63.71-28.9999v-129.3301z" fill="#ecf6ff"/><path d="m765.52 62.9998c7.81-12.47 22.62-25.46 26.54-48.87 2.31-13.739972 12.9-18.84991 23.23-18.18991 11.67.74 20.45 8.93994 22.35 25.93991v.36c2 12.61 11.16 23.8301 16.42 28.0601 17.23 13.88 30.45 33.3399 30 57.2101-.189 10.761-2.959 21.32-8.078 30.789-5.118 9.468-12.436 17.568-21.337 23.62s-19.124 9.878-29.812 11.156c-10.687 1.278-21.525-.029-31.601-3.81-10.077-3.782-19.099-9.929-26.306-17.923-7.208-7.993-12.39-17.601-15.111-28.015-2.722-10.413-2.903-21.328-.528-31.8261 2.374-10.498 7.235-20.2725 14.173-28.5011z" fill="#bcdeff"/><path d="m777.52 44.8301 37.77 60.8999" stroke="#0067e8" stroke-linecap="round" stroke-linejoin="round"/><path d="m755.98 77.9099 59.31 89.0901" stroke="#0067e8" stroke-linecap="round" stroke-linejoin="round"/><path d="m804.4-2.37988 10.89 27.17998v26.97 245.3999" stroke="#0067e8" stroke-linecap="round" stroke-linejoin="round"/><path d="m815.29 105.73 33.54-59.6599" stroke="#0067e8" stroke-linecap="round" stroke-linejoin="round"/><path d="m815.29 166.99c5.25-7.55 61.26-91.71 61.26-91.71" stroke="#0067e8" stroke-linecap="round" stroke-linejoin="round"/><path d="m673.65 134.4c4.29-6.85 12.42-14 14.57-26.83 1.27-7.54 7.08-10.3499 12.75-9.9999 6.41.4 11.23 4.9099 12.27 14.2299v.2c1.09 6.92 6.12 13.08 9 15.41 9.46 7.62 16.72 18.3 16.49 31.4-.104 5.907-1.625 11.703-4.435 16.9s-6.826 9.643-11.712 12.965-10.498 5.422-16.364 6.124c-5.866.701-11.815-.016-17.346-2.091s-10.484-5.449-14.44-9.836c-3.957-4.387-6.802-9.661-8.297-15.377-1.494-5.715-1.595-11.706-.293-17.469 1.303-5.763 3.97-11.128 7.777-15.646z" fill="#bcdeff"/><path d="m680.24 124.42 20.73 33.44" stroke="#0067e8" stroke-linecap="round" stroke-linejoin="round"/><path d="m668.42 142.58 32.55 48.91" stroke="#0067e8" stroke-linecap="round" stroke-linejoin="round"/><path d="m694.99 98.51 5.98 14.92v14.8 167.53" stroke="#0067e8" stroke-linecap="round" stroke-linejoin="round"/><path d="m700.97 157.86 18.41-32.75" stroke="#0067e8" stroke-linecap="round" stroke-linejoin="round"/><path d="m700.95 191.48c2.88-4.14 33.63-50.34 33.63-50.34" stroke="#0067e8" stroke-linecap="round" stroke-linejoin="round"/><path d="m804.92 447.97v-50.67h126.19l69.99 56.3z" fill="#d2e9ff"/><path d="m907.06 447.97h22.16v-5.96h-22.16z" fill="#dd3c3c"/><path d="m848.29 447.97h22.16v-5.96h-22.16z" fill="#dd3c3c"/><path d="m799.63 447.97h22.16v-5.96h-22.16z" fill="#dd3c3c"/><path d="m788.54 442.02h157.06v-6.95h-157.06z" fill="#ff5753"/><path d="m788.54 436.88h11.08v-9.14h-11.08z" fill="#ff5753"/><path d="m914.78 447.97h22.17v-5.96h-22.17z" fill="#ff5753"/><path d="m804.93 447.97h22.16v-5.96h-22.16z" fill="#ff5753"/><path d="m855.99 447.93h22.16v-5.95h-22.16z" fill="#ff5753"/><path d="m931.1 397.3h-43.05v37.98h43.05z" fill="#f39719"/><path d="m888.05 397.3 43.06 37.98v-37.98z" fill="#ffc347"/><path d="m905.88 410.99h7.94v-13.73h-7.94z" fill="#fff"/><path d="m888.05 397.3h-43.05v37.98h43.05z" fill="#f39719"/><path d="m845 397.3 43.05 37.98v-37.98z" fill="#ffc347"/><path d="m862.84 410.99h7.93v-13.73h-7.93z" fill="#fff"/><path d="m845 397.3h-43.05v37.98h43.05z" fill="#f39719"/><path d="m801.95 397.3 43.05 37.98v-37.98z" fill="#ffc347"/><path d="m819.79 410.99h7.93v-13.73h-7.93z" fill="#fff"/><path d="m931.1 359.33h-43.05v37.98h43.05z" fill="#f39719"/><path d="m888.05 359.33 43.06 37.97v-37.97z" fill="#ffc347"/><path d="m905.88 373.02h7.94v-13.73h-7.94z" fill="#fff"/><path d="m888.05 359.33h-43.05v37.98h43.05z" fill="#f39719"/><path d="m845 359.33 43.05 37.97v-37.97z" fill="#ffc347"/><path d="m862.84 373.02h7.93v-13.73h-7.93z" fill="#fff"/><path d="m845 359.33h-43.05v37.98h43.05z" fill="#f39719"/><path d="m801.95 359.33 43.05 37.97v-37.97z" fill="#ffc347"/><path d="m819.79 373.02h7.93v-13.73h-7.93z" fill="#fff"/><path d="m619.97 88.1899h-450.76v214.4101h450.76z" fill="#fff"/><path d="m620.81 290.57h-327.34v12.03h327.34z" fill="#ff5753"/><path d="m622.38 126.85h-453.17v7.45h453.17z" fill="#ff5753"/><path d="m619.26 134.3h-443.41v5.43h443.41z" fill="#d2e9ff"/><path clip-rule="evenodd" d="m198.9 88.1899h55.2l242.24 214.4101h-297.44z" fill="#efefef" fill-rule="evenodd"/><path d="m594.94 140.85h-303.32v163.29h303.32z" fill="#2c2334"/><path d="m576.01 162.59h-284.39v141.55h284.39z" fill="#2c2334"/><path d="m347.37 221.32h9.21v-2.48h-9.21z" fill="#dd3c3c"/><path d="m322.94 221.32h9.21v-2.48h-9.21z" fill="#dd3c3c"/><path d="m302.71 221.32h9.21v-2.48h-9.21z" fill="#dd3c3c"/><path d="m298.11 218.85h65.28v-2.89h-65.28z" fill="#ff5753"/><path d="m358.78 216.72h4.6v-3.8h-4.6z" fill="#ff5753"/><path d="m298.11 216.72h4.61v-3.8h-4.61z" fill="#ff5753"/><path d="m350.57 221.32h9.21v-2.48h-9.21z" fill="#ff5753"/><path d="m304.92 221.32h9.21v-2.48h-9.21z" fill="#ff5753"/><path d="m326.15 221.31h9.21v-2.47h-9.21z" fill="#ff5753"/><path d="m357.36 200.27h-17.89v15.78h17.89z" fill="#f39719"/><path d="m339.47 200.27 17.89 15.78v-15.78z" fill="#ffc347"/><path d="m346.88 205.95h3.3v-5.7h-3.3z" fill="#fff"/><path d="m339.47 200.27h-17.89v15.78h17.89z" fill="#f39719"/><path d="m321.58 200.27 17.89 15.78v-15.78z" fill="#ffc347"/><path d="m328.99 205.95h3.3v-5.7h-3.3z" fill="#fff"/><path d="m321.57 200.27h-17.89v15.78h17.89z" fill="#f39719"/><path d="m303.68 200.27 17.9 15.78v-15.78z" fill="#ffc347"/><path d="m311.09 205.95h3.3v-5.7h-3.3z" fill="#fff"/><path d="m357.36 184.48h-17.89v15.78h17.89z" fill="#f39719"/><path d="m339.47 184.48 17.89 15.79v-15.79z" fill="#ffc347"/><path d="m346.88 190.18h3.3v-5.71h-3.3z" fill="#fff"/><path d="m339.47 184.48h-17.89v15.78h17.89z" fill="#f39719"/><path d="m321.58 184.48 17.89 15.79v-15.79z" fill="#ffc347"/><path d="m328.99 190.18h3.3v-5.71h-3.3z" fill="#fff"/><path d="m321.57 184.48h-17.89v15.78h17.89z" fill="#f39719"/><path d="m303.68 184.48 17.9 15.79v-15.79z" fill="#ffc347"/><path d="m311.09 190.18h3.3v-5.71h-3.3z" fill="#fff"/><path d="m347.37 299.01h9.21v-2.48h-9.21z" fill="#dd3c3c"/><path d="m322.94 299.01h9.21v-2.48h-9.21z" fill="#dd3c3c"/><path d="m302.71 299.01h9.21v-2.48h-9.21z" fill="#dd3c3c"/><path d="m298.11 296.52h65.28v-2.89h-65.28z" fill="#ff5753"/><path d="m358.78 294.39h4.6v-3.8h-4.6z" fill="#ff5753"/><path d="m298.11 294.39h4.61v-3.8h-4.61z" fill="#ff5753"/><path d="m350.57 299.01h9.21v-2.48h-9.21z" fill="#ff5753"/><path d="m304.92 299.01h9.21v-2.48h-9.21z" fill="#ff5753"/><path d="m326.15 298.99h9.21v-2.47h-9.21z" fill="#ff5753"/><path d="m357.36 263.64h-17.89v30.08h17.89z" fill="#f39719"/><path d="m339.47 263.64 17.89 30.09v-30.09z" fill="#ffc347"/><path d="m346.88 283.64h3.3v-20.01h-3.3z" fill="#fff"/><path d="m339.47 263.64h-17.89v30.08h17.89z" fill="#f39719"/><path d="m321.58 263.64 17.89 30.09v-30.09z" fill="#ffc347"/><path d="m328.99 283.64h3.3v-20.01h-3.3z" fill="#fff"/><path d="m321.57 263.64h-17.89v30.08h17.89z" fill="#f39719"/><path d="m303.68 263.64 17.9 30.09v-30.09z" fill="#ffc347"/><path d="m311.09 283.64h3.3v-20.01h-3.3z" fill="#fff"/><path d="m357.36 233.74h-17.89v30.08h17.89z" fill="#f39719"/><path d="m339.47 233.74 17.89 30.09v-30.09z" fill="#ffc347"/><path d="m346.88 253.74h3.3v-20.01h-3.3z" fill="#fff"/><path d="m339.47 233.74h-17.89v30.08h17.89z" fill="#f39719"/><path d="m321.58 233.74 17.89 30.09v-30.09z" fill="#ffc347"/><path d="m328.99 253.74h3.3v-20.01h-3.3z" fill="#fff"/><path d="m321.57 233.74h-17.89v30.08h17.89z" fill="#f39719"/><path d="m303.68 233.74 17.9 30.09v-30.09z" fill="#ffc347"/><path d="m311.09 253.74h3.3v-20.01h-3.3z" fill="#fff"/><path d="m422.13 299.01h9.21v-2.48h-9.21z" fill="#dd3c3c"/><path d="m397.69 299.01h9.21v-2.48h-9.21z" fill="#dd3c3c"/><path d="m377.47 299.01h9.21v-2.48h-9.21z" fill="#dd3c3c"/><path d="m372.86 296.52h65.28v-2.89h-65.28z" fill="#ff5753"/><path d="m433.54 294.39h4.6v-3.8h-4.6z" fill="#ff5753"/><path d="m372.86 294.39h4.61v-3.8h-4.61z" fill="#ff5753"/><path d="m425.33 299.01h9.21v-2.48h-9.21z" fill="#ff5753"/><path d="m379.67 299.01h9.21v-2.48h-9.21z" fill="#ff5753"/><path d="m400.89 298.99h9.21v-2.47h-9.21z" fill="#ff5753"/><path d="m432.11 263.64h-17.89v30.08h17.89z" fill="#f39719"/><path d="m414.22 263.64 17.89 30.09v-30.09z" fill="#ffc347"/><path d="m421.63 283.64h3.3v-20.01h-3.3z" fill="#fff"/><path d="m414.22 263.64h-17.89v30.08h17.89z" fill="#f39719"/><path d="m396.33 263.64 17.89 30.09v-30.09z" fill="#ffc347"/><path d="m403.74 283.64h3.3v-20.01h-3.3z" fill="#fff"/><path d="m396.32 263.64h-17.89v30.08h17.89z" fill="#f39719"/><path d="m378.44 263.64 17.89 30.09v-30.09z" fill="#ffc347"/><path d="m385.85 283.64h3.3v-20.01h-3.3z" fill="#fff"/><path d="m432.11 233.74h-17.89v30.08h17.89z" fill="#f39719"/><path d="m414.22 233.74 17.89 30.09v-30.09z" fill="#ffc347"/><path d="m421.63 253.74h3.3v-20.01h-3.3z" fill="#fff"/><path d="m414.22 233.74h-17.89v30.08h17.89z" fill="#f39719"/><path d="m396.33 233.74 17.89 30.09v-30.09z" fill="#ffc347"/><path d="m403.74 253.74h3.3v-20.01h-3.3z" fill="#fff"/><path d="m396.32 233.74h-17.89v30.08h17.89z" fill="#f39719"/><path d="m378.44 233.74 17.89 30.09v-30.09z" fill="#ffc347"/><path d="m385.85 253.74h3.3v-20.01h-3.3z" fill="#fff"/><path d="m496.87 299.01h9.21v-2.48h-9.21z" fill="#dd3c3c"/><path d="m472.44 299.01h9.21v-2.48h-9.21z" fill="#dd3c3c"/><path d="m452.22 299.01h9.21v-2.48h-9.21z" fill="#dd3c3c"/><path d="m447.61 296.52h65.28v-2.89h-65.28z" fill="#ff5753"/><path d="m508.29 294.39h4.6v-3.8h-4.6z" fill="#ff5753"/><path d="m447.6 294.39h4.61v-3.8h-4.61z" fill="#ff5753"/><path d="m500.08 299.01h9.21v-2.48h-9.21z" fill="#ff5753"/><path d="m454.43 299.01h9.21v-2.48h-9.21z" fill="#ff5753"/><path d="m475.65 298.99h9.21v-2.47h-9.21z" fill="#ff5753"/><path d="m506.86 263.64h-17.89v30.08h17.89z" fill="#f39719"/><path d="m488.97 263.64 17.9 30.09v-30.09z" fill="#ffc347"/><path d="m496.38 283.64h3.3v-20.01h-3.3z" fill="#fff"/><path d="m488.97 263.64h-17.89v30.08h17.89z" fill="#f39719"/><path d="m471.08 263.64 17.89 30.09v-30.09z" fill="#ffc347"/><path d="m478.49 283.64h3.3v-20.01h-3.3z" fill="#fff"/><path d="m471.08 263.64h-17.89v30.08h17.89z" fill="#f39719"/><path d="m453.19 263.64 17.89 30.09v-30.09z" fill="#ffc347"/><path d="m460.6 283.64h3.3v-20.01h-3.3z" fill="#fff"/><path d="m506.86 233.74h-17.89v30.08h17.89z" fill="#f39719"/><path d="m488.97 233.74 17.9 30.09v-30.09z" fill="#ffc347"/><path d="m496.38 253.74h3.3v-20.01h-3.3z" fill="#fff"/><path d="m488.97 233.74h-17.89v30.08h17.89z" fill="#f39719"/><path d="m471.08 233.74 17.89 30.09v-30.09z" fill="#ffc347"/><path d="m478.49 253.74h3.3v-20.01h-3.3z" fill="#fff"/><path d="m471.08 233.74h-17.89v30.08h17.89z" fill="#f39719"/><path d="m453.19 233.74 17.89 30.09v-30.09z" fill="#ffc347"/><path d="m460.6 253.74h3.3v-20.01h-3.3z" fill="#fff"/><path d="m571.63 299.01h9.21v-2.48h-9.21z" fill="#dd3c3c"/><path d="m547.2 299.01h9.21v-2.48h-9.21z" fill="#dd3c3c"/><path d="m526.98 299.01h9.21v-2.48h-9.21z" fill="#dd3c3c"/><path d="m522.36 296.52h65.28v-2.89h-65.28z" fill="#ff5753"/><path d="m583.05 294.39h4.6v-3.8h-4.6z" fill="#ff5753"/><path d="m522.36 294.39h4.61v-3.8h-4.61z" fill="#ff5753"/><path d="m574.84 299.01h9.21v-2.48h-9.21z" fill="#ff5753"/><path d="m529.17 299.01h9.21v-2.48h-9.21z" fill="#ff5753"/><path d="m550.4 298.99h9.21v-2.47h-9.21z" fill="#ff5753"/><path d="m581.61 263.64h-17.89v30.08h17.89z" fill="#f39719"/><path d="m563.73 263.64 17.89 30.09v-30.09z" fill="#ffc347"/><path d="m571.14 283.64h3.3v-20.01h-3.3z" fill="#fff"/><path d="m563.72 263.64h-17.89v30.08h17.89z" fill="#f39719"/><path d="m545.83 263.64 17.9 30.09v-30.09z" fill="#ffc347"/><path d="m553.24 283.64h3.3v-20.01h-3.3z" fill="#fff"/><path d="m545.83 263.64h-17.89v30.08h17.89z" fill="#f39719"/><path d="m527.94 263.64 17.89 30.09v-30.09z" fill="#ffc347"/><path d="m535.35 283.64h3.3v-20.01h-3.3z" fill="#fff"/><path d="m581.61 233.74h-17.89v30.08h17.89z" fill="#f39719"/><path d="m563.73 233.74 17.89 30.09v-30.09z" fill="#ffc347"/><path d="m571.14 253.74h3.3v-20.01h-3.3z" fill="#fff"/><path d="m563.72 233.74h-17.89v30.08h17.89z" fill="#f39719"/><path d="m545.83 233.74 17.9 30.09v-30.09z" fill="#ffc347"/><path d="m553.24 253.74h3.3v-20.01h-3.3z" fill="#fff"/><path d="m545.83 233.74h-17.89v30.08h17.89z" fill="#f39719"/><path d="m527.94 233.74 17.89 30.09v-30.09z" fill="#ffc347"/><path d="m535.35 253.74h3.3v-20.01h-3.3z" fill="#fff"/><path d="m347.37 185.25h9.21v-2.48h-9.21z" fill="#dd3c3c"/><path d="m322.94 185.25h9.21v-2.48h-9.21z" fill="#dd3c3c"/><path d="m302.71 185.25h9.21v-2.48h-9.21z" fill="#dd3c3c"/><path d="m298.11 182.78h65.28v-2.89h-65.28z" fill="#ff5753"/><path d="m358.78 180.64h4.6v-3.8h-4.6z" fill="#ff5753"/><path d="m298.11 180.64h4.61v-3.8h-4.61z" fill="#ff5753"/><path d="m350.57 185.25h9.21v-2.48h-9.21z" fill="#ff5753"/><path d="m304.92 185.25h9.21v-2.48h-9.21z" fill="#ff5753"/><path d="m326.15 185.23h9.21v-2.47h-9.21z" fill="#ff5753"/><path d="m357.36 164.19h-17.89v15.78h17.89z" fill="#f39719"/><path d="m339.47 164.19 17.89 15.79v-15.79z" fill="#ffc347"/><path d="m346.88 169.88h3.3v-5.7h-3.3z" fill="#fff"/><path d="m339.47 164.19h-17.89v15.78h17.89z" fill="#f39719"/><path d="m321.58 164.19 17.89 15.79v-15.79z" fill="#ffc347"/><path d="m328.99 169.88h3.3v-5.7h-3.3z" fill="#fff"/><path d="m321.57 164.19h-17.89v15.78h17.89z" fill="#f39719"/><path d="m303.68 164.19 17.9 15.79v-15.79z" fill="#ffc347"/><path d="m311.09 169.88h3.3v-5.7h-3.3z" fill="#fff"/><path d="m357.36 148.41h-17.89v15.78h17.89z" fill="#f39719"/><path d="m339.47 148.41 17.89 15.78v-15.78z" fill="#ffc347"/><path d="m346.88 154.09h3.3v-5.71h-3.3z" fill="#fff"/><path d="m339.47 148.41h-17.89v15.78h17.89z" fill="#f39719"/><path d="m321.58 148.41 17.89 15.78v-15.78z" fill="#ffc347"/><path d="m328.99 154.09h3.3v-5.71h-3.3z" fill="#fff"/><path d="m321.57 148.41h-17.89v15.78h17.89z" fill="#f39719"/><path d="m303.68 148.41 17.9 15.78v-15.78z" fill="#ffc347"/><path d="m311.09 154.09h3.3v-5.71h-3.3z" fill="#fff"/><path d="m422.13 221.32h9.21v-2.48h-9.21z" fill="#dd3c3c"/><path d="m397.69 221.32h9.21v-2.48h-9.21z" fill="#dd3c3c"/><path d="m377.47 221.32h9.21v-2.48h-9.21z" fill="#dd3c3c"/><path d="m372.86 218.85h65.28v-2.89h-65.28z" fill="#ff5753"/><path d="m433.54 216.72h4.6v-3.8h-4.6z" fill="#ff5753"/><path d="m372.86 216.72h4.61v-3.8h-4.61z" fill="#ff5753"/><path d="m425.33 221.32h9.21v-2.48h-9.21z" fill="#ff5753"/><path d="m379.67 221.32h9.21v-2.48h-9.21z" fill="#ff5753"/><path d="m400.89 221.31h9.21v-2.47h-9.21z" fill="#ff5753"/><path d="m432.11 200.27h-17.89v15.78h17.89z" fill="#f39719"/><path d="m414.22 200.27 17.89 15.78v-15.78z" fill="#ffc347"/><path d="m421.63 205.95h3.3v-5.7h-3.3z" fill="#fff"/><path d="m414.22 200.27h-17.89v15.78h17.89z" fill="#f39719"/><path d="m396.33 200.27 17.89 15.78v-15.78z" fill="#ffc347"/><path d="m403.74 205.95h3.3v-5.7h-3.3z" fill="#fff"/><path d="m396.32 200.27h-17.89v15.78h17.89z" fill="#f39719"/><path d="m378.44 200.27 17.89 15.78v-15.78z" fill="#ffc347"/><path d="m385.85 205.95h3.3v-5.7h-3.3z" fill="#fff"/><path d="m432.11 184.48h-17.89v15.78h17.89z" fill="#f39719"/><path d="m414.22 184.48 17.89 15.79v-15.79z" fill="#ffc347"/><path d="m421.63 190.18h3.3v-5.71h-3.3z" fill="#fff"/><path d="m414.22 184.48h-17.89v15.78h17.89z" fill="#f39719"/><path d="m396.33 184.48 17.89 15.79v-15.79z" fill="#ffc347"/><path d="m403.74 190.18h3.3v-5.71h-3.3z" fill="#fff"/><path d="m396.32 184.48h-17.89v15.78h17.89z" fill="#f39719"/><path d="m378.44 184.48 17.89 15.79v-15.79z" fill="#ffc347"/><path d="m385.85 190.18h3.3v-5.71h-3.3z" fill="#fff"/><path d="m422.13 185.25h9.21v-2.48h-9.21z" fill="#dd3c3c"/><path d="m397.69 185.25h9.21v-2.48h-9.21z" fill="#dd3c3c"/><path d="m377.47 185.25h9.21v-2.48h-9.21z" fill="#dd3c3c"/><path d="m372.86 182.78h65.28v-2.89h-65.28z" fill="#ff5753"/><path d="m433.54 180.64h4.6v-3.8h-4.6z" fill="#ff5753"/><path d="m372.86 180.64h4.61v-3.8h-4.61z" fill="#ff5753"/><path d="m425.33 185.25h9.21v-2.48h-9.21z" fill="#ff5753"/><path d="m379.67 185.25h9.21v-2.48h-9.21z" fill="#ff5753"/><path d="m400.89 185.23h9.21v-2.47h-9.21z" fill="#ff5753"/><path d="m432.11 164.19h-17.89v15.78h17.89z" fill="#f39719"/><path d="m414.22 164.19 17.89 15.79v-15.79z" fill="#ffc347"/><path d="m421.63 169.88h3.3v-5.7h-3.3z" fill="#fff"/><path d="m414.22 164.19h-17.89v15.78h17.89z" fill="#f39719"/><path d="m396.33 164.19 17.89 15.79v-15.79z" fill="#ffc347"/><path d="m403.74 169.88h3.3v-5.7h-3.3z" fill="#fff"/><path d="m396.32 164.19h-17.89v15.78h17.89z" fill="#f39719"/><path d="m378.44 164.19 17.89 15.79v-15.79z" fill="#ffc347"/><path d="m385.85 169.88h3.3v-5.7h-3.3z" fill="#fff"/><path d="m432.11 148.41h-17.89v15.78h17.89z" fill="#f39719"/><path d="m414.22 148.41 17.89 15.78v-15.78z" fill="#ffc347"/><path d="m421.63 154.09h3.3v-5.71h-3.3z" fill="#fff"/><path d="m414.22 148.41h-17.89v15.78h17.89z" fill="#f39719"/><path d="m396.33 148.41 17.89 15.78v-15.78z" fill="#ffc347"/><path d="m403.74 154.09h3.3v-5.71h-3.3z" fill="#fff"/><path d="m396.32 148.41h-17.89v15.78h17.89z" fill="#f39719"/><path d="m378.44 148.41 17.89 15.78v-15.78z" fill="#ffc347"/><path d="m385.85 154.09h3.3v-5.71h-3.3z" fill="#fff"/><path d="m496.87 221.32h9.21v-2.48h-9.21z" fill="#dd3c3c"/><path d="m472.44 221.32h9.21v-2.48h-9.21z" fill="#dd3c3c"/><path d="m452.22 221.32h9.21v-2.48h-9.21z" fill="#dd3c3c"/><path d="m447.61 218.85h65.28v-2.89h-65.28z" fill="#ff5753"/><path d="m508.29 216.72h4.6v-3.8h-4.6z" fill="#ff5753"/><path d="m447.6 216.72h4.61v-3.8h-4.61z" fill="#ff5753"/><path d="m500.08 221.32h9.21v-2.48h-9.21z" fill="#ff5753"/><path d="m454.43 221.32h9.21v-2.48h-9.21z" fill="#ff5753"/><path d="m475.65 221.31h9.21v-2.47h-9.21z" fill="#ff5753"/><path d="m506.86 200.27h-17.89v15.78h17.89z" fill="#f39719"/><path d="m488.97 200.27 17.9 15.78v-15.78z" fill="#ffc347"/><path d="m496.38 205.95h3.3v-5.7h-3.3z" fill="#fff"/><path d="m488.97 200.27h-17.89v15.78h17.89z" fill="#f39719"/><path d="m471.08 200.27 17.89 15.78v-15.78z" fill="#ffc347"/><path d="m478.49 205.95h3.3v-5.7h-3.3z" fill="#fff"/><path d="m471.08 200.27h-17.89v15.78h17.89z" fill="#f39719"/><path d="m453.19 200.27 17.89 15.78v-15.78z" fill="#ffc347"/><path d="m460.6 205.95h3.3v-5.7h-3.3z" fill="#fff"/><path d="m506.86 184.48h-17.89v15.78h17.89z" fill="#f39719"/><path d="m488.97 184.48 17.9 15.79v-15.79z" fill="#ffc347"/><path d="m496.38 190.18h3.3v-5.71h-3.3z" fill="#fff"/><path d="m488.97 184.48h-17.89v15.78h17.89z" fill="#f39719"/><path d="m471.08 184.48 17.89 15.79v-15.79z" fill="#ffc347"/><path d="m478.49 190.18h3.3v-5.71h-3.3z" fill="#fff"/><path d="m471.08 184.48h-17.89v15.78h17.89z" fill="#f39719"/><path d="m453.19 184.48 17.89 15.79v-15.79z" fill="#ffc347"/><path d="m460.6 190.18h3.3v-5.71h-3.3z" fill="#fff"/><path d="m571.63 221.32h9.21v-2.48h-9.21z" fill="#dd3c3c"/><path d="m547.2 221.32h9.21v-2.48h-9.21z" fill="#dd3c3c"/><path d="m526.98 221.32h9.21v-2.48h-9.21z" fill="#dd3c3c"/><path d="m522.36 218.85h65.28v-2.89h-65.28z" fill="#ff5753"/><path d="m583.05 216.72h4.6v-3.8h-4.6z" fill="#ff5753"/><path d="m522.36 216.72h4.61v-3.8h-4.61z" fill="#ff5753"/><path d="m574.84 221.32h9.21v-2.48h-9.21z" fill="#ff5753"/><path d="m529.17 221.32h9.21v-2.48h-9.21z" fill="#ff5753"/><path d="m550.4 221.31h9.21v-2.47h-9.21z" fill="#ff5753"/><path d="m581.61 200.27h-17.89v15.78h17.89z" fill="#f39719"/><path d="m563.73 200.27 17.89 15.78v-15.78z" fill="#ffc347"/><path d="m571.14 205.95h3.3v-5.7h-3.3z" fill="#fff"/><path d="m563.72 200.27h-17.89v15.78h17.89z" fill="#f39719"/><path d="m545.83 200.27 17.9 15.78v-15.78z" fill="#ffc347"/><path d="m553.24 205.95h3.3v-5.7h-3.3z" fill="#fff"/><path d="m545.83 200.27h-17.89v15.78h17.89z" fill="#f39719"/><path d="m527.94 200.27 17.89 15.78v-15.78z" fill="#ffc347"/><path d="m535.35 205.95h3.3v-5.7h-3.3z" fill="#fff"/><path d="m581.61 184.48h-17.89v15.78h17.89z" fill="#f39719"/><path d="m563.73 184.48 17.89 15.79v-15.79z" fill="#ffc347"/><path d="m571.14 190.18h3.3v-5.71h-3.3z" fill="#fff"/><path d="m563.72 184.48h-17.89v15.78h17.89z" fill="#f39719"/><path d="m545.83 184.48 17.9 15.79v-15.79z" fill="#ffc347"/><path d="m553.24 190.18h3.3v-5.71h-3.3z" fill="#fff"/><path d="m545.83 184.48h-17.89v15.78h17.89z" fill="#f39719"/><path d="m527.94 184.48 17.89 15.79v-15.79z" fill="#ffc347"/><path d="m535.35 190.18h3.3v-5.71h-3.3z" fill="#fff"/><path d="m571.63 185.25h9.21v-2.48h-9.21z" fill="#dd3c3c"/><path d="m547.2 185.25h9.21v-2.48h-9.21z" fill="#dd3c3c"/><path d="m526.98 185.25h9.21v-2.48h-9.21z" fill="#dd3c3c"/><path d="m522.36 182.78h65.28v-2.89h-65.28z" fill="#ff5753"/><path d="m583.05 180.64h4.6v-3.8h-4.6z" fill="#ff5753"/><path d="m522.36 180.64h4.61v-3.8h-4.61z" fill="#ff5753"/><path d="m574.84 185.25h9.21v-2.48h-9.21z" fill="#ff5753"/><path d="m529.17 185.25h9.21v-2.48h-9.21z" fill="#ff5753"/><path d="m550.4 185.23h9.21v-2.47h-9.21z" fill="#ff5753"/><path d="m581.61 164.19h-17.89v15.78h17.89z" fill="#f39719"/><path d="m563.73 164.19 17.89 15.79v-15.79z" fill="#ffc347"/><path d="m571.14 169.88h3.3v-5.7h-3.3z" fill="#fff"/><path d="m563.72 164.19h-17.89v15.78h17.89z" fill="#f39719"/><path d="m545.83 164.19 17.9 15.79v-15.79z" fill="#ffc347"/><path d="m553.24 169.88h3.3v-5.7h-3.3z" fill="#fff"/><path d="m545.83 164.19h-17.89v15.78h17.89z" fill="#f39719"/><path d="m527.94 164.19 17.89 15.79v-15.79z" fill="#ffc347"/><path d="m535.35 169.88h3.3v-5.7h-3.3z" fill="#fff"/><path d="m581.61 148.41h-17.89v15.78h17.89z" fill="#f39719"/><path d="m563.73 148.41 17.89 15.78v-15.78z" fill="#ffc347"/><path d="m571.14 154.09h3.3v-5.71h-3.3z" fill="#fff"/><path d="m563.72 148.41h-17.89v15.78h17.89z" fill="#f39719"/><path d="m545.83 148.41 17.9 15.78v-15.78z" fill="#ffc347"/><path d="m553.24 154.09h3.3v-5.71h-3.3z" fill="#fff"/><path d="m545.83 148.41h-17.89v15.78h17.89z" fill="#f39719"/><path d="m527.94 148.41 17.89 15.78v-15.78z" fill="#ffc347"/><path d="m535.35 154.09h3.3v-5.71h-3.3z" fill="#fff"/><path d="m593.1 300.82h-304.21v3.25h304.21z" fill="#efefef"/><path d="m593.1 298.87h-304.21v3.25h304.21z" fill="#efefef"/><path d="m593.1 222.49h-304.21v3.25h304.21z" fill="#efefef"/><path d="m593.1 220.54h-304.21v3.25h304.21z" fill="#efefef"/><path d="m593.1 144.17h-304.21v3.25h304.21z" fill="#efefef"/><path d="m593.1 142.22h-304.21v3.25h304.21z" fill="#efefef"/><path d="m294.58 140.92h-2.27-3.42v157.95h3.42 2.27 3.41v-157.95z" fill="#fff"/><path d="m369.33 140.92h-2.27-3.41v157.95h3.41 2.27 3.42v-157.95z" fill="#fff"/><path d="m444.09 140.92h-2.28-3.41v157.95h3.41 2.28 3.41v-157.95z" fill="#fff"/><path d="m518.84 140.92h-2.28-3.41v157.95h3.41 2.28 3.41v-157.95z" fill="#fff"/><path d="m594.24 140.92h-2.27-3.42v163.15h3.42 2.27 3.41v-163.15z" fill="#fff"/><path d="m296.64 140.85h-303.32005v163.29h303.32005z" fill="#2c2334"/><path d="m277.71 162.59h-284.39005v141.55h284.39005z" fill="#2c2334"/><path d="m49.08 221.32h9.21v-2.48h-9.21z" fill="#dd3c3c"/><path d="m24.65 221.32h9.21v-2.48h-9.21z" fill="#dd3c3c"/><path d="m4.42 221.32h9.21v-2.48h-9.21z" fill="#dd3c3c"/><path d="m-.180023 218.85h65.280023v-2.89h-65.280023z" fill="#ff5753"/><path d="m60.5 216.72h4.6v-3.8h-4.6z" fill="#ff5753"/><path d="m-.189957 216.72h4.609997v-3.8h-4.609997z" fill="#ff5753"/><path d="m52.29 221.32h9.21v-2.48h-9.21z" fill="#ff5753"/><path d="m6.62994 221.32h9.21006v-2.48h-9.21006z" fill="#ff5753"/><path d="m27.8601 221.31h9.21v-2.47h-9.21z" fill="#ff5753"/><path d="m59.0699 200.27h-17.89v15.78h17.89z" fill="#f39719"/><path d="m41.1799 200.27 17.89 15.78v-15.78z" fill="#ffc347"/><path d="m48.59 205.95h3.3v-5.7h-3.3z" fill="#fff"/><path d="m41.18 200.27h-17.89v15.78h17.89z" fill="#f39719"/><path d="m23.28 200.27 17.9 15.78v-15.78z" fill="#ffc347"/><path d="m30.7 205.95h3.3v-5.7h-3.3z" fill="#fff"/><path d="m23.28 200.27h-17.88999v15.78h17.88999z" fill="#f39719"/><path d="m5.39001 200.27 17.88999 15.78v-15.78z" fill="#ffc347"/><path d="m12.8 205.95h3.3v-5.7h-3.3z" fill="#fff"/><path d="m59.0699 184.48h-17.89v15.78h17.89z" fill="#f39719"/><path d="m41.1799 184.48 17.89 15.79v-15.79z" fill="#ffc347"/><path d="m48.59 190.18h3.3v-5.71h-3.3z" fill="#fff"/><path d="m41.18 184.48h-17.89v15.78h17.89z" fill="#f39719"/><path d="m23.28 184.48 17.9 15.79v-15.79z" fill="#ffc347"/><path d="m30.7 190.18h3.3v-5.71h-3.3z" fill="#fff"/><path d="m23.28 184.48h-17.88999v15.78h17.88999z" fill="#f39719"/><path d="m5.39001 184.48 17.88999 15.79v-15.79z" fill="#ffc347"/><path d="m12.8 190.18h3.3v-5.71h-3.3z" fill="#fff"/><path d="m49.08 299.01h9.21v-2.48h-9.21z" fill="#dd3c3c"/><path d="m24.65 299.01h9.21v-2.48h-9.21z" fill="#dd3c3c"/><path d="m4.42 299.01h9.21v-2.48h-9.21z" fill="#dd3c3c"/><path d="m-.180023 296.52h65.280023v-2.89h-65.280023z" fill="#ff5753"/><path d="m60.5 294.39h4.6v-3.8h-4.6z" fill="#ff5753"/><path d="m-.189957 294.39h4.609997v-3.8h-4.609997z" fill="#ff5753"/><path d="m52.29 299.01h9.21v-2.48h-9.21z" fill="#ff5753"/><path d="m6.62994 299.01h9.21006v-2.48h-9.21006z" fill="#ff5753"/><path d="m27.8601 298.99h9.21v-2.47h-9.21z" fill="#ff5753"/><path d="m59.0699 263.64h-17.89v30.08h17.89z" fill="#f39719"/><path d="m41.1799 263.64 17.89 30.09v-30.09z" fill="#ffc347"/><path d="m48.59 283.64h3.3v-20.01h-3.3z" fill="#fff"/><path d="m41.18 263.64h-17.89v30.08h17.89z" fill="#f39719"/><path d="m23.28 263.64 17.9 30.09v-30.09z" fill="#ffc347"/><path d="m30.7 283.64h3.3v-20.01h-3.3z" fill="#fff"/><path d="m23.28 263.64h-17.88999v30.08h17.88999z" fill="#f39719"/><path d="m5.39001 263.64 17.88999 30.09v-30.09z" fill="#ffc347"/><path d="m12.8 283.64h3.3v-20.01h-3.3z" fill="#fff"/><path d="m59.0699 233.74h-17.89v30.08h17.89z" fill="#f39719"/><path d="m41.1799 233.74 17.89 30.09v-30.09z" fill="#ffc347"/><path d="m48.59 253.74h3.3v-20.01h-3.3z" fill="#fff"/><path d="m41.18 233.74h-17.89v30.08h17.89z" fill="#f39719"/><path d="m23.28 233.74 17.9 30.09v-30.09z" fill="#ffc347"/><path d="m30.7 253.74h3.3v-20.01h-3.3z" fill="#fff"/><path d="m23.28 233.74h-17.88999v30.08h17.88999z" fill="#f39719"/><path d="m5.39001 233.74 17.88999 30.09v-30.09z" fill="#ffc347"/><path d="m12.8 253.74h3.3v-20.01h-3.3z" fill="#fff"/><path d="m123.84 299.01h9.21v-2.48h-9.21z" fill="#dd3c3c"/><path d="m99.4 299.01h9.21v-2.48h-9.21z" fill="#dd3c3c"/><path d="m79.18 299.01h9.21v-2.48h-9.21z" fill="#dd3c3c"/><path d="m74.57 296.52h65.28v-2.89h-65.28z" fill="#ff5753"/><path d="m135.24 294.39h4.6v-3.8h-4.6z" fill="#ff5753"/><path d="m74.57 294.39h4.6101v-3.8h-4.6101z" fill="#ff5753"/><path d="m127.04 299.01h9.21v-2.48h-9.21z" fill="#ff5753"/><path d="m81.3799 299.01h9.2101v-2.48h-9.2101z" fill="#ff5753"/><path d="m102.6 298.99h9.21v-2.47h-9.21z" fill="#ff5753"/><path d="m133.82 263.64h-17.89v30.08h17.89z" fill="#f39719"/><path d="m115.93 263.64 17.89 30.09v-30.09z" fill="#ffc347"/><path d="m123.34 283.64h3.3v-20.01h-3.3z" fill="#fff"/><path d="m115.93 263.64h-17.89v30.08h17.89z" fill="#f39719"/><path d="m98.04 263.64 17.89 30.09v-30.09z" fill="#ffc347"/><path d="m105.45 283.64h3.3v-20.01h-3.3z" fill="#fff"/><path d="m98.03 263.64h-17.89v30.08h17.89z" fill="#f39719"/><path d="m80.14 263.64 17.9 30.09v-30.09z" fill="#ffc347"/><path d="m87.56 283.64h3.3v-20.01h-3.3z" fill="#fff"/><path d="m133.82 233.74h-17.89v30.08h17.89z" fill="#f39719"/><path d="m115.93 233.74 17.89 30.09v-30.09z" fill="#ffc347"/><path d="m123.34 253.74h3.3v-20.01h-3.3z" fill="#fff"/><path d="m115.93 233.74h-17.89v30.08h17.89z" fill="#f39719"/><path d="m98.04 233.74 17.89 30.09v-30.09z" fill="#ffc347"/><path d="m105.45 253.74h3.3v-20.01h-3.3z" fill="#fff"/><path d="m98.03 233.74h-17.89v30.08h17.89z" fill="#f39719"/><path d="m80.14 233.74 17.9 30.09v-30.09z" fill="#ffc347"/><path d="m87.56 253.74h3.3v-20.01h-3.3z" fill="#fff"/><path d="m198.58 299.01h9.21v-2.48h-9.21z" fill="#dd3c3c"/><path d="m174.15 299.01h9.21v-2.48h-9.21z" fill="#dd3c3c"/><path d="m153.93 299.01h9.21v-2.48h-9.21z" fill="#dd3c3c"/><path d="m149.32 296.52h65.28v-2.89h-65.28z" fill="#ff5753"/><path d="m210 294.39h4.6v-3.8h-4.6z" fill="#ff5753"/><path d="m149.32 294.39h4.61v-3.8h-4.61z" fill="#ff5753"/><path d="m201.79 299.01h9.21v-2.48h-9.21z" fill="#ff5753"/><path d="m156.14 299.01h9.21v-2.48h-9.21z" fill="#ff5753"/><path d="m177.36 298.99h9.21v-2.47h-9.21z" fill="#ff5753"/><path d="m208.57 263.64h-17.89v30.08h17.89z" fill="#f39719"/><path d="m190.68 263.64 17.89 30.09v-30.09z" fill="#ffc347"/><path d="m198.09 283.64h3.3v-20.01h-3.3z" fill="#fff"/><path d="m190.68 263.64h-17.89v30.08h17.89z" fill="#f39719"/><path d="m172.79 263.64 17.89 30.09v-30.09z" fill="#ffc347"/><path d="m180.2 283.64h3.3v-20.01h-3.3z" fill="#fff"/><path d="m172.79 263.64h-17.89v30.08h17.89z" fill="#f39719"/><path d="m154.9 263.64 17.89 30.09v-30.09z" fill="#ffc347"/><path d="m162.31 283.64h3.3v-20.01h-3.3z" fill="#fff"/><path d="m208.57 233.74h-17.89v30.08h17.89z" fill="#f39719"/><path d="m190.68 233.74 17.89 30.09v-30.09z" fill="#ffc347"/><path d="m198.09 253.74h3.3v-20.01h-3.3z" fill="#fff"/><path d="m190.68 233.74h-17.89v30.08h17.89z" fill="#f39719"/><path d="m172.79 233.74 17.89 30.09v-30.09z" fill="#ffc347"/><path d="m180.2 253.74h3.3v-20.01h-3.3z" fill="#fff"/><path d="m172.79 233.74h-17.89v30.08h17.89z" fill="#f39719"/><path d="m154.9 233.74 17.89 30.09v-30.09z" fill="#ffc347"/><path d="m162.31 253.74h3.3v-20.01h-3.3z" fill="#fff"/><path d="m273.33 299.01h9.21v-2.48h-9.21z" fill="#dd3c3c"/><path d="m248.91 299.01h9.21v-2.48h-9.21z" fill="#dd3c3c"/><path d="m228.68 299.01h9.21v-2.48h-9.21z" fill="#dd3c3c"/><path d="m224.07 296.52h65.28v-2.89h-65.28z" fill="#ff5753"/><path d="m284.75 294.39h4.6v-3.8h-4.6z" fill="#ff5753"/><path d="m224.07 294.39h4.61v-3.8h-4.61z" fill="#ff5753"/><path d="m276.54 299.01h9.21v-2.48h-9.21z" fill="#ff5753"/><path d="m230.88 299.01h9.21v-2.48h-9.21z" fill="#ff5753"/><path d="m252.11 298.99h9.21v-2.47h-9.21z" fill="#ff5753"/><path d="m283.32 263.64h-17.89v30.08h17.89z" fill="#f39719"/><path d="m265.43 263.64 17.9 30.09v-30.09z" fill="#ffc347"/><path d="m272.84 283.64h3.3v-20.01h-3.3z" fill="#fff"/><path d="m265.43 263.64h-17.89v30.08h17.89z" fill="#f39719"/><path d="m247.54 263.64 17.89 30.09v-30.09z" fill="#ffc347"/><path d="m254.95 283.64h3.3v-20.01h-3.3z" fill="#fff"/><path d="m247.54 263.64h-17.89v30.08h17.89z" fill="#f39719"/><path d="m229.65 263.64 17.89 30.09v-30.09z" fill="#ffc347"/><path d="m237.06 283.64h3.3v-20.01h-3.3z" fill="#fff"/><path d="m283.32 233.74h-17.89v30.08h17.89z" fill="#f39719"/><path d="m265.43 233.74 17.9 30.09v-30.09z" fill="#ffc347"/><path d="m272.84 253.74h3.3v-20.01h-3.3z" fill="#fff"/><path d="m265.43 233.74h-17.89v30.08h17.89z" fill="#f39719"/><path d="m247.54 233.74 17.89 30.09v-30.09z" fill="#ffc347"/><path d="m254.95 253.74h3.3v-20.01h-3.3z" fill="#fff"/><path d="m247.54 233.74h-17.89v30.08h17.89z" fill="#f39719"/><path d="m229.65 233.74 17.89 30.09v-30.09z" fill="#ffc347"/><path d="m237.06 253.74h3.3v-20.01h-3.3z" fill="#fff"/><path d="m49.08 185.25h9.21v-2.48h-9.21z" fill="#dd3c3c"/><path d="m24.65 185.25h9.21v-2.48h-9.21z" fill="#dd3c3c"/><path d="m4.42 185.25h9.21v-2.48h-9.21z" fill="#dd3c3c"/><path d="m-.180023 182.78h65.280023v-2.89h-65.280023z" fill="#ff5753"/><path d="m60.5 180.64h4.6v-3.8h-4.6z" fill="#ff5753"/><path d="m-.189957 180.64h4.609997v-3.8h-4.609997z" fill="#ff5753"/><path d="m52.29 185.25h9.21v-2.48h-9.21z" fill="#ff5753"/><path d="m6.62994 185.25h9.21006v-2.48h-9.21006z" fill="#ff5753"/><path d="m27.8601 185.23h9.21v-2.47h-9.21z" fill="#ff5753"/><path d="m59.0699 164.19h-17.89v15.78h17.89z" fill="#f39719"/><path d="m41.1799 164.19 17.89 15.79v-15.79z" fill="#ffc347"/><path d="m48.59 169.88h3.3v-5.7h-3.3z" fill="#fff"/><path d="m41.18 164.19h-17.89v15.78h17.89z" fill="#f39719"/><path d="m23.28 164.19 17.9 15.79v-15.79z" fill="#ffc347"/><path d="m30.7 169.88h3.3v-5.7h-3.3z" fill="#fff"/><path d="m23.28 164.19h-17.88999v15.78h17.88999z" fill="#f39719"/><path d="m5.39001 164.19 17.88999 15.79v-15.79z" fill="#ffc347"/><path d="m12.8 169.88h3.3v-5.7h-3.3z" fill="#fff"/><path d="m59.0699 148.41h-17.89v15.78h17.89z" fill="#f39719"/><path d="m41.1799 148.41 17.89 15.78v-15.78z" fill="#ffc347"/><path d="m48.59 154.09h3.3v-5.71h-3.3z" fill="#fff"/><path d="m41.18 148.41h-17.89v15.78h17.89z" fill="#f39719"/><path d="m23.28 148.41 17.9 15.78v-15.78z" fill="#ffc347"/><path d="m30.7 154.09h3.3v-5.71h-3.3z" fill="#fff"/><path d="m23.28 148.41h-17.88999v15.78h17.88999z" fill="#f39719"/><path d="m5.39001 148.41 17.88999 15.78v-15.78z" fill="#ffc347"/><path d="m12.8 154.09h3.3v-5.71h-3.3z" fill="#fff"/><path d="m123.84 221.32h9.21v-2.48h-9.21z" fill="#dd3c3c"/><path d="m99.4 221.32h9.21v-2.48h-9.21z" fill="#dd3c3c"/><path d="m79.18 221.32h9.21v-2.48h-9.21z" fill="#dd3c3c"/><path d="m74.57 218.85h65.28v-2.89h-65.28z" fill="#ff5753"/><path d="m135.24 216.72h4.6v-3.8h-4.6z" fill="#ff5753"/><path d="m74.57 216.72h4.6101v-3.8h-4.6101z" fill="#ff5753"/><path d="m127.04 221.32h9.21v-2.48h-9.21z" fill="#ff5753"/><path d="m81.3799 221.32h9.2101v-2.48h-9.2101z" fill="#ff5753"/><path d="m102.6 221.31h9.21v-2.47h-9.21z" fill="#ff5753"/><path d="m133.82 200.27h-17.89v15.78h17.89z" fill="#f39719"/><path d="m115.93 200.27 17.89 15.78v-15.78z" fill="#ffc347"/><path d="m123.34 205.95h3.3v-5.7h-3.3z" fill="#fff"/><path d="m115.93 200.27h-17.89v15.78h17.89z" fill="#f39719"/><path d="m98.04 200.27 17.89 15.78v-15.78z" fill="#ffc347"/><path d="m105.45 205.95h3.3v-5.7h-3.3z" fill="#fff"/><path d="m98.03 200.27h-17.89v15.78h17.89z" fill="#f39719"/><path d="m80.14 200.27 17.9 15.78v-15.78z" fill="#ffc347"/><path d="m87.56 205.95h3.3v-5.7h-3.3z" fill="#fff"/><path d="m133.82 184.48h-17.89v15.78h17.89z" fill="#f39719"/><path d="m115.93 184.48 17.89 15.79v-15.79z" fill="#ffc347"/><path d="m123.34 190.18h3.3v-5.71h-3.3z" fill="#fff"/><path d="m115.93 184.48h-17.89v15.78h17.89z" fill="#f39719"/><path d="m98.04 184.48 17.89 15.79v-15.79z" fill="#ffc347"/><path d="m105.45 190.18h3.3v-5.71h-3.3z" fill="#fff"/><path d="m98.03 184.48h-17.89v15.78h17.89z" fill="#f39719"/><path d="m80.14 184.48 17.9 15.79v-15.79z" fill="#ffc347"/><path d="m87.56 190.18h3.3v-5.71h-3.3z" fill="#fff"/><path d="m123.84 185.25h9.21v-2.48h-9.21z" fill="#dd3c3c"/><path d="m99.4 185.25h9.21v-2.48h-9.21z" fill="#dd3c3c"/><path d="m79.18 185.25h9.21v-2.48h-9.21z" fill="#dd3c3c"/><path d="m74.57 182.78h65.28v-2.89h-65.28z" fill="#ff5753"/><path d="m135.24 180.64h4.6v-3.8h-4.6z" fill="#ff5753"/><path d="m74.57 180.64h4.6101v-3.8h-4.6101z" fill="#ff5753"/><path d="m127.04 185.25h9.21v-2.48h-9.21z" fill="#ff5753"/><path d="m81.3799 185.25h9.2101v-2.48h-9.2101z" fill="#ff5753"/><path d="m102.6 185.23h9.21v-2.47h-9.21z" fill="#ff5753"/><path d="m133.82 164.19h-17.89v15.78h17.89z" fill="#f39719"/><path d="m115.93 164.19 17.89 15.79v-15.79z" fill="#ffc347"/><path d="m123.34 169.88h3.3v-5.7h-3.3z" fill="#fff"/><path d="m115.93 164.19h-17.89v15.78h17.89z" fill="#f39719"/><path d="m98.04 164.19 17.89 15.79v-15.79z" fill="#ffc347"/><path d="m105.45 169.88h3.3v-5.7h-3.3z" fill="#fff"/><path d="m98.03 164.19h-17.89v15.78h17.89z" fill="#f39719"/><path d="m80.14 164.19 17.9 15.79v-15.79z" fill="#ffc347"/><path d="m87.56 169.88h3.3v-5.7h-3.3z" fill="#fff"/><path d="m133.82 148.41h-17.89v15.78h17.89z" fill="#f39719"/><path d="m115.93 148.41 17.89 15.78v-15.78z" fill="#ffc347"/><path d="m123.34 154.09h3.3v-5.71h-3.3z" fill="#fff"/><path d="m115.93 148.41h-17.89v15.78h17.89z" fill="#f39719"/><path d="m98.04 148.41 17.89 15.78v-15.78z" fill="#ffc347"/><path d="m105.45 154.09h3.3v-5.71h-3.3z" fill="#fff"/><path d="m98.03 148.41h-17.89v15.78h17.89z" fill="#f39719"/><path d="m80.14 148.41 17.9 15.78v-15.78z" fill="#ffc347"/><path d="m87.56 154.09h3.3v-5.71h-3.3z" fill="#fff"/><path d="m198.58 221.32h9.21v-2.48h-9.21z" fill="#dd3c3c"/><path d="m174.15 221.32h9.21v-2.48h-9.21z" fill="#dd3c3c"/><path d="m153.93 221.32h9.21v-2.48h-9.21z" fill="#dd3c3c"/><path d="m149.32 218.85h65.28v-2.89h-65.28z" fill="#ff5753"/><path d="m210 216.72h4.6v-3.8h-4.6z" fill="#ff5753"/><path d="m149.32 216.72h4.61v-3.8h-4.61z" fill="#ff5753"/><path d="m201.79 221.32h9.21v-2.48h-9.21z" fill="#ff5753"/><path d="m156.14 221.32h9.21v-2.48h-9.21z" fill="#ff5753"/><path d="m177.36 221.31h9.21v-2.47h-9.21z" fill="#ff5753"/><path d="m208.57 200.27h-17.89v15.78h17.89z" fill="#f39719"/><path d="m190.68 200.27 17.89 15.78v-15.78z" fill="#ffc347"/><path d="m198.09 205.95h3.3v-5.7h-3.3z" fill="#fff"/><path d="m190.68 200.27h-17.89v15.78h17.89z" fill="#f39719"/><path d="m172.79 200.27 17.89 15.78v-15.78z" fill="#ffc347"/><path d="m180.2 205.95h3.3v-5.7h-3.3z" fill="#fff"/><path d="m172.79 200.27h-17.89v15.78h17.89z" fill="#f39719"/><path d="m154.9 200.27 17.89 15.78v-15.78z" fill="#ffc347"/><path d="m162.31 205.95h3.3v-5.7h-3.3z" fill="#fff"/><path d="m208.57 184.48h-17.89v15.78h17.89z" fill="#f39719"/><path d="m190.68 184.48 17.89 15.79v-15.79z" fill="#ffc347"/><path d="m198.09 190.18h3.3v-5.71h-3.3z" fill="#fff"/><path d="m190.68 184.48h-17.89v15.78h17.89z" fill="#f39719"/><path d="m172.79 184.48 17.89 15.79v-15.79z" fill="#ffc347"/><path d="m180.2 190.18h3.3v-5.71h-3.3z" fill="#fff"/><path d="m172.79 184.48h-17.89v15.78h17.89z" fill="#f39719"/><path d="m154.9 184.48 17.89 15.79v-15.79z" fill="#ffc347"/><path d="m162.31 190.18h3.3v-5.71h-3.3z" fill="#fff"/><path d="m273.33 221.32h9.21v-2.48h-9.21z" fill="#dd3c3c"/><path d="m248.91 221.32h9.21v-2.48h-9.21z" fill="#dd3c3c"/><path d="m228.68 221.32h9.21v-2.48h-9.21z" fill="#dd3c3c"/><path d="m224.07 218.85h65.28v-2.89h-65.28z" fill="#ff5753"/><path d="m284.75 216.72h4.6v-3.8h-4.6z" fill="#ff5753"/><path d="m224.07 216.72h4.61v-3.8h-4.61z" fill="#ff5753"/><path d="m276.54 221.32h9.21v-2.48h-9.21z" fill="#ff5753"/><path d="m230.88 221.32h9.21v-2.48h-9.21z" fill="#ff5753"/><path d="m252.11 221.31h9.21v-2.47h-9.21z" fill="#ff5753"/><path d="m283.32 200.27h-17.89v15.78h17.89z" fill="#f39719"/><path d="m265.43 200.27 17.9 15.78v-15.78z" fill="#ffc347"/><path d="m272.84 205.95h3.3v-5.7h-3.3z" fill="#fff"/><path d="m265.43 200.27h-17.89v15.78h17.89z" fill="#f39719"/><path d="m247.54 200.27 17.89 15.78v-15.78z" fill="#ffc347"/><path d="m254.95 205.95h3.3v-5.7h-3.3z" fill="#fff"/><path d="m247.54 200.27h-17.89v15.78h17.89z" fill="#f39719"/><path d="m229.65 200.27 17.89 15.78v-15.78z" fill="#ffc347"/><path d="m237.06 205.95h3.3v-5.7h-3.3z" fill="#fff"/><path d="m283.32 184.48h-17.89v15.78h17.89z" fill="#f39719"/><path d="m265.43 184.48 17.9 15.79v-15.79z" fill="#ffc347"/><path d="m272.84 190.18h3.3v-5.71h-3.3z" fill="#fff"/><path d="m265.43 184.48h-17.89v15.78h17.89z" fill="#f39719"/><path d="m247.54 184.48 17.89 15.79v-15.79z" fill="#ffc347"/><path d="m254.95 190.18h3.3v-5.71h-3.3z" fill="#fff"/><path d="m247.54 184.48h-17.89v15.78h17.89z" fill="#f39719"/><path d="m229.65 184.48 17.89 15.79v-15.79z" fill="#ffc347"/><path d="m237.06 190.18h3.3v-5.71h-3.3z" fill="#fff"/><path d="m273.33 185.25h9.21v-2.48h-9.21z" fill="#dd3c3c"/><path d="m248.91 185.25h9.21v-2.48h-9.21z" fill="#dd3c3c"/><path d="m228.68 185.25h9.21v-2.48h-9.21z" fill="#dd3c3c"/><path d="m224.07 182.78h65.28v-2.89h-65.28z" fill="#ff5753"/><path d="m284.75 180.64h4.6v-3.8h-4.6z" fill="#ff5753"/><path d="m224.07 180.64h4.61v-3.8h-4.61z" fill="#ff5753"/><path d="m276.54 185.25h9.21v-2.48h-9.21z" fill="#ff5753"/><path d="m230.88 185.25h9.21v-2.48h-9.21z" fill="#ff5753"/><path d="m252.11 185.23h9.21v-2.47h-9.21z" fill="#ff5753"/><path d="m283.32 164.19h-17.89v15.78h17.89z" fill="#f39719"/><path d="m265.43 164.19 17.9 15.79v-15.79z" fill="#ffc347"/><path d="m272.84 169.88h3.3v-5.7h-3.3z" fill="#fff"/><path d="m265.43 164.19h-17.89v15.78h17.89z" fill="#f39719"/><path d="m247.54 164.19 17.89 15.79v-15.79z" fill="#ffc347"/><path d="m254.95 169.88h3.3v-5.7h-3.3z" fill="#fff"/><path d="m247.54 164.19h-17.89v15.78h17.89z" fill="#f39719"/><path d="m229.65 164.19 17.89 15.79v-15.79z" fill="#ffc347"/><path d="m237.06 169.88h3.3v-5.7h-3.3z" fill="#fff"/><path d="m283.32 148.41h-17.89v15.78h17.89z" fill="#f39719"/><path d="m265.43 148.41 17.9 15.78v-15.78z" fill="#ffc347"/><path d="m272.84 154.09h3.3v-5.71h-3.3z" fill="#fff"/><path d="m265.43 148.41h-17.89v15.78h17.89z" fill="#f39719"/><path d="m247.54 148.41 17.89 15.78v-15.78z" fill="#ffc347"/><path d="m254.95 154.09h3.3v-5.71h-3.3z" fill="#fff"/><path d="m247.54 148.41h-17.89v15.78h17.89z" fill="#f39719"/><path d="m229.65 148.41 17.89 15.78v-15.78z" fill="#ffc347"/><path d="m237.06 154.09h3.3v-5.71h-3.3z" fill="#fff"/><path d="m294.81 300.82h-304.21002v3.25h304.21002z" fill="#efefef"/><path d="m294.81 298.87h-304.21002v3.25h304.21002z" fill="#efefef"/><path d="m294.81 222.49h-304.21002v3.25h304.21002z" fill="#efefef"/><path d="m294.81 220.54h-304.21002v3.25h304.21002z" fill="#efefef"/><path d="m294.81 144.17h-304.21002v3.25h304.21002z" fill="#efefef"/><path d="m294.81 142.22h-304.21002v3.25h304.21002z" fill="#efefef"/><path d="m71.04 140.92h-2.27-3.41v157.95h3.41 2.27 3.42v-157.95z" fill="#fff"/><path d="m145.8 140.92h-2.28-3.41v157.95h3.41 2.28 3.41v-157.95z" fill="#fff"/><path d="m220.55 140.92h-2.28-3.41v157.95h3.41 2.28 3.41v-157.95z" fill="#fff"/><path d="m295.95 140.92h-2.27-3.42v163.15h3.42 2.27 3.41v-163.15z" fill="#fff"/><path d="m634.21 78.3101h-447.39v8.09h447.39z" fill="#fff"/><path d="m173.85 145.79h-295.85v154.32h295.85z" fill="#fff"/><path clip-rule="evenodd" d="m26.94 63.23-148.94 42.6h295.85z" fill="#ff5753" fill-rule="evenodd"/><path d="m175.88 289.21h-297.88v10.9h297.88z" fill="#ff5753"/><path d="m176.03 105.37h-298.03v42.24h298.03z" fill="#ff5753"/><path d="m174.02 147.61h-296.02v4.92h296.02z" fill="#d2e9ff"/><path d="m137.12 196.93h-93.52v103.18h93.52z" fill="#dbdbdb"/><path d="m137.08 215.73h-93.42v2.94h93.42z" fill="#b8b8b8" opacity=".5"/><path d="m137.08 236.2h-93.42v2.94h93.42z" fill="#b8b8b8" opacity=".5"/><path d="m137.08 256.67h-93.42v2.94h93.42z" fill="#b8b8b8" opacity=".5"/><path d="m137.08 277.14h-93.42v2.94h93.42z" fill="#b8b8b8" opacity=".5"/><path d="m137.08 297.17h-93.42v2.94h93.42z" fill="#b8b8b8" opacity=".5"/><path d="m43.61 196.93h-6.22v103.18h6.22z" fill="#ededed"/><path d="m143.71 196.93h-6.58v103.18h6.58z" fill="#ededed"/><path d="m145.94 187.25h-111.15v11.82h111.15z" fill="#ededed"/><path d="m145.94 199.07h-111.15v4.04h111.15z" fill="#b8b8b8" opacity=".5"/><path d="m22.33 182.64h-120.42v34.89h120.42z" fill="#efefef"/><path d="m16.99 186.72h-109.73v26.73h109.73z" fill="#bcdeff"/><path clip-rule="evenodd" d="m-5.52002 205.42 8.39 8.02h-8.39z" fill="#ecf6ff" fill-rule="evenodd"/><path clip-rule="evenodd" d="m-1.31995 186.72 18.21005 16.25.1-16.25z" fill="#d2e9ff" fill-rule="evenodd"/><path clip-rule="evenodd" d="m-122 105.83 29.26-8.37 217.8 202.65h-247.06z" fill="#efefef" fill-rule="evenodd"/><path d="m154.71 189.75h-122.11v3.72h122.11z" fill="#efefef"/><path d="m154.71 204.28h-122.11v91.11h122.11z" fill="#c8eaff"/><path d="m157.26 180.06h-127.22v10.11h127.22z" fill="#efefef"/><path d="m157.26 189.46h-127.22v.7h127.22z" fill="#fff"/><path d="m154.71 193.47h-122.11v.81h122.11z" fill="#fff"/><path d="m154.71 194.27h-122.11v2.49h122.11z" fill="#efefef"/><path d="m154.71 196.77h-122.11v.81h122.11z" fill="#fff"/><path d="m154.71 197.57h-122.11v2.49h122.11z" fill="#efefef"/><path d="m154.71 200.07h-122.11v.81h122.11z" fill="#fff"/><path d="m154.71 200.87h-122.11v2.49h122.11z" fill="#efefef"/><path d="m154.71 203.37h-122.11v.81h122.11z" fill="#fff"/><path d="m153.06 204.28h-117.11v91.11h117.11z" fill="#a1abb3"/><path d="m154.71 204.18h-122.11v2.49h122.11z" fill="#efefef"/><path d="m154.71 206.67h-122.11v.81h122.11z" fill="#fff"/><path d="m154.71 207.48h-122.11v2.49h122.11z" fill="#efefef"/><path d="m154.71 209.97h-122.11v.81h122.11z" fill="#fff"/><path d="m154.71 210.78h-122.11v2.49h122.11z" fill="#efefef"/><path d="m154.71 213.27h-122.11v.81h122.11z" fill="#fff"/><path d="m154.71 214.08h-122.11v2.49h122.11z" fill="#efefef"/><path d="m154.71 216.57h-122.11v.81h122.11z" fill="#fff"/><path d="m154.71 217.38h-122.11v2.49h122.11z" fill="#efefef"/><path d="m154.71 219.87h-122.11v.81h122.11z" fill="#fff"/><path d="m154.71 219.87h-122.11v.81h122.11z" fill="#fff"/><path d="m154.71 220.68h-122.11v2.49h122.11z" fill="#efefef"/><path d="m154.71 223.17h-122.11v.81h122.11z" fill="#fff"/><path d="m154.71 223.98h-122.11v2.49h122.11z" fill="#efefef"/><path d="m154.71 226.47h-122.11v.81h122.11z" fill="#fff"/><path d="m154.71 227.28h-122.11v2.49h122.11z" fill="#efefef"/><path d="m154.71 229.77h-122.11v.81h122.11z" fill="#fff"/><path d="m154.71 230.58h-122.11v2.49h122.11z" fill="#efefef"/><path d="m154.71 233.08h-122.11v.81h122.11z" fill="#fff"/><path d="m154.71 233.88h-122.11v2.49h122.11z" fill="#efefef"/><path d="m154.71 236.38h-122.11v.81h122.11z" fill="#fff"/><path d="m154.71 237.18h-122.11v2.49h122.11z" fill="#efefef"/><path d="m154.71 239.68h-122.11v.81h122.11z" fill="#fff"/><path d="m154.71 240.48h-122.11v2.49h122.11z" fill="#efefef"/><path d="m154.71 242.98h-122.11v.81h122.11z" fill="#fff"/><path d="m154.71 243.78h-122.11v2.49h122.11z" fill="#efefef"/><path d="m154.71 246.28h-122.11v.81h122.11z" fill="#fff"/><path d="m154.71 247.09h-122.11v2.49h122.11z" fill="#efefef"/><path d="m154.71 249.58h-122.11v.81h122.11z" fill="#fff"/><path d="m154.71 250.39h-122.11v2.49h122.11z" fill="#efefef"/><path d="m154.71 252.88h-122.11v.81h122.11z" fill="#fff"/><path d="m154.71 253.69h-122.11v2.49h122.11z" fill="#efefef"/><path d="m154.71 256.18h-122.11v.81h122.11z" fill="#fff"/><path d="m154.71 256.99h-122.11v2.49h122.11z" fill="#efefef"/><path d="m154.71 259.48h-122.11v.81h122.11z" fill="#fff"/><path d="m154.71 260.29h-122.11v2.49h122.11z" fill="#efefef"/><path d="m154.71 262.78h-122.11v.81h122.11z" fill="#fff"/><path d="m154.71 263.59h-122.11v2.49h122.11z" fill="#efefef"/><path d="m154.71 266.08h-122.11v.81h122.11z" fill="#fff"/><path d="m154.71 266.89h-122.11v2.49h122.11z" fill="#efefef"/><path d="m154.71 269.38h-122.11v.81h122.11z" fill="#fff"/><path d="m154.71 270.19h-122.11v2.49h122.11z" fill="#efefef"/><path d="m154.71 272.68h-122.11v.81h122.11z" fill="#fff"/><path d="m154.71 272.65h-122.11v.81h122.11z" fill="#fff"/><path d="m154.71 273.46h-122.11v2.49h122.11z" fill="#efefef"/><path d="m154.71 275.95h-122.11v.81h122.11z" fill="#fff"/><path d="m154.71 276.76h-122.11v2.49h122.11z" fill="#efefef"/><path d="m154.71 279.25h-122.11v.81h122.11z" fill="#fff"/><path d="m154.71 280.06h-122.11v2.49h122.11z" fill="#efefef"/><path d="m154.71 282.55h-122.11v.81h122.11z" fill="#fff"/><path d="m154.71 283.36h-122.11v2.49h122.11z" fill="#efefef"/><path d="m154.71 285.85h-122.11v.81h122.11z" fill="#fff"/><path d="m154.71 286.66h-122.11v2.49h122.11z" fill="#efefef"/><path d="m154.71 289.15h-122.11v.81h122.11z" fill="#fff"/><path d="m154.71 289.96h-122.11v2.49h122.11z" fill="#efefef"/><path d="m154.71 292.46h-122.11v.81h122.11z" fill="#fff"/><path d="m154.71 293.26h-122.11v2.49h122.11z" fill="#efefef"/><path d="m35.92 190.17h-3.32v105.33h3.32z" fill="#efefef"/><path d="m35.9199 190.17h-.74v105.33h.74z" fill="#fff"/><path d="m154.71 190.17h-3.32v105.33h3.32z" fill="#efefef"/><path d="m152.13 190.17h-.74v105.33h.74z" fill="#fff"/><path clip-rule="evenodd" d="m173.85 105.82s-109.4 21.24-151.24-41.35l4.33-1.24z" fill="#34233c" fill-rule="evenodd"/><path d="m224.82 354.44c102.244 0 185.13-2.964 185.13-6.62s-82.886-6.62-185.13-6.62c-102.245 0-185.1301 2.964-185.1301 6.62s82.8851 6.62 185.1301 6.62z" fill="#d2e9ff"/><path d="m380.02 324.9h-299.67v-27.83h299.22z" fill="#2c2334"/><path d="m95.17 210.9c7.38-3.4 13-5.87 16.19-7.27.341-.148.714-.208 1.084-.176s.727.156 1.037.36c.311.205.566.483.742.811.176.327.268.693.267 1.065v26.1l-41.9 3.64c-.0026-2.456.8217-4.84 2.34-6.77 3.76-4.76 11.61-13.76 20.24-17.76z" fill="#fff"/><path d="m50.78 310.63v-31.29c1.7681-12.798 5.0442-25.342 9.76-37.37 2.11-5.25 12.05-7.28 12.05-7.28l41.9-2.87v75.17h-8.43c-4.54 0-20.84 5.26-20.84 18.38v5.53h-33.34c-.4959 0-.9716-.197-1.3223-.548-.3507-.35-.5477-.826-.5477-1.322v-12.12l1.72-3.26z" fill="#fff"/><path d="m51.73 313.74c13.5-.41 27-1.42 40.5-1.29-3.89 3.09-7 7.53-7 13.55v5.84h-33.35c-.2548-.007-.5057-.064-.7382-.168s-.4419-.254-.616-.44c-.174-.186-.3093-.405-.3978-.644-.0886-.239-.1287-.494-.118-.748v-12.71l1.72-3.42z" fill="#2c2334"/><path d="m67.25 247.78c.267-1.447 1.0052-2.765 2.0995-3.749s2.4832-1.579 3.9505-1.691l27-2.11c.911-.071 1.826.045 2.69.342s1.658.768 2.333 1.383c.675.616 1.216 1.364 1.591 2.197.374.833.574 1.735.586 2.648l.67 50.16s-14.35 7-18 10.22c-2.122 1.868-3.9286 4.066-5.35 6.51h-23.33v-34.41c-.0002-.41.04-.818.12-1.22z" fill="#fff"/><path d="m65.34 273.99c-.109.649-.0752 1.315.0993 1.95.1744.635.4852 1.224.9108 1.727.4255.503.9555.906 1.553 1.183.5976.277 1.2483.42 1.9069.42.2956 0 .5904-.03.88-.09l30.08-6c1.315-.26 2.495-.976 3.332-2.024.837-1.047 1.275-2.356 1.238-3.696l-.45-17.82c-.009-1.016-.225-2.02-.634-2.95s-1.003-1.767-1.746-2.46c-.649-.602-1.417-1.062-2.253-1.351-.837-.29-1.7247-.401-2.607-.329l-22.27 1.91c-1.5207.172-2.9413.844-4.0396 1.91-1.0983 1.065-1.8124 2.465-2.0304 3.98 0 0-2.63 15.55-3.97 23.64z" fill="#bcdeff"/><path d="m61.49 313.7h-9.76l-.95-3.07v-12.9h10.71z" fill="#ffc347"/><path d="m107.34 315.9c3.125-.006 6.181.915 8.782 2.647 2.6 1.732 4.629 4.197 5.828 7.082 1.2 2.885 1.516 6.061.909 9.127-.606 3.065-2.109 5.881-4.317 8.092s-5.022 3.717-8.087 4.328c-3.064.61-6.241.298-9.128-.898-2.8864-1.196-5.3536-3.221-7.0887-5.82-1.7352-2.598-2.6603-5.653-2.6583-8.778-.0014-2.071.4053-4.122 1.1966-6.036s1.9518-3.653 3.4152-5.118c1.4635-1.465 3.2012-2.628 5.1142-3.422s3.963-1.203 6.034-1.204z" fill="#000"/><path d="m107.34 321.9c1.938-.004 3.833.567 5.445 1.641 1.613 1.074 2.871 2.602 3.615 4.391s.94 3.759.564 5.659c-.377 1.901-1.309 3.647-2.678 5.018s-3.115 2.304-5.015 2.683c-1.9.378-3.87.184-5.66-.558s-3.319-1.998-4.3946-3.61c-1.0754-1.612-1.6484-3.506-1.6464-5.444-.0014-1.284.2504-2.555.7408-3.742.4904-1.186 1.2098-2.265 2.1172-3.173.907-.908 1.985-1.629 3.171-2.12 1.186-.492 2.457-.745 3.741-.745z" fill="#2c2334"/><path d="m107.34 324.9c1.334-.004 2.64.388 3.751 1.127 1.111.738 1.978 1.79 2.491 3.022s.649 2.588.39 3.897c-.258 1.309-.9 2.512-1.843 3.456-.942.944-2.144 1.588-3.453 1.848-1.309.261-2.665.127-3.898-.384-1.232-.511-2.285-1.377-3.026-2.487-.74-1.11-1.134-2.415-1.132-3.749 0-1.783.708-3.494 1.968-4.755 1.26-1.262 2.969-1.972 4.752-1.975z" fill="#fff"/><path d="m283.25 315.9c3.125-.006 6.181.915 8.782 2.647 2.6 1.732 4.629 4.197 5.828 7.082 1.2 2.885 1.516 6.061.91 9.127-.607 3.065-2.11 5.881-4.318 8.092s-5.022 3.717-8.087 4.328c-3.064.61-6.241.298-9.128-.898-2.886-1.196-5.354-3.221-7.089-5.82-1.735-2.598-2.66-5.653-2.658-8.778 0-4.182 1.66-8.192 4.615-11.151s6.963-4.624 11.145-4.629z" fill="#000"/><path d="m283.25 321.9c1.937-.004 3.833.567 5.445 1.641 1.613 1.074 2.871 2.602 3.615 4.391s.94 3.759.564 5.659c-.377 1.901-1.309 3.647-2.678 5.018s-3.115 2.304-5.015 2.683c-1.9.378-3.87.184-5.66-.558s-3.319-1.998-4.395-3.61c-1.075-1.612-1.648-3.506-1.646-5.444 0-2.592 1.029-5.078 2.861-6.912s4.317-2.865 6.909-2.868z" fill="#2c2334"/><path d="m283.25 324.9c1.334-.002 2.638.392 3.748 1.132 1.11.739 1.976 1.792 2.487 3.024s.646 2.588.386 3.896c-.26 1.309-.902 2.511-1.845 3.454s-2.145 1.585-3.454 1.845c-1.308.26-2.664.125-3.896-.386s-2.284-1.377-3.024-2.487-1.134-2.414-1.132-3.748c0-1.785.709-3.497 1.971-4.759s2.974-1.971 4.759-1.971z" fill="#fff"/><path d="m317.89 315.9c3.125-.006 6.181.915 8.782 2.647s4.629 4.197 5.828 7.082c1.2 2.885 1.516 6.061.91 9.127-.607 3.065-2.11 5.881-4.318 8.092s-5.022 3.717-8.087 4.328c-3.064.61-6.241.298-9.128-.898-2.886-1.196-5.354-3.221-7.089-5.82-1.735-2.598-2.66-5.653-2.658-8.778-.001-2.071.405-4.122 1.197-6.036.791-1.914 1.951-3.653 3.415-5.118 1.463-1.465 3.201-2.628 5.114-3.422s3.963-1.203 6.034-1.204z" fill="#000"/><path d="m317.89 321.9c1.938-.004 3.833.567 5.446 1.641 1.612 1.074 2.87 2.602 3.614 4.391s.94 3.759.564 5.659c-.377 1.901-1.309 3.647-2.678 5.018s-3.115 2.304-5.015 2.683c-1.9.378-3.87.184-5.66-.558s-3.319-1.998-4.395-3.61c-1.075-1.612-1.648-3.506-1.646-5.444-.001-1.284.25-2.555.741-3.742.49-1.186 1.21-2.265 2.117-3.173s1.985-1.629 3.171-2.12c1.186-.492 2.457-.745 3.741-.745z" fill="#2c2334"/><path d="m317.89 324.9c1.334-.002 2.638.392 3.748 1.132 1.11.739 1.976 1.792 2.487 3.024s.646 2.588.386 3.896c-.26 1.309-.902 2.511-1.845 3.454s-2.145 1.585-3.454 1.845c-1.308.26-2.664.125-3.896-.386s-2.284-1.377-3.024-2.487-1.134-2.414-1.132-3.748c0-1.785.709-3.497 1.971-4.759s2.974-1.971 4.759-1.971z" fill="#fff"/><path d="m388.5 201.07h-271v111.07h271z" fill="#005fcc"/><path d="m383.53 205.14h-261.06v96.25h261.06z" fill="#0072f5"/><path d="m388.5 300.57h-271v11.57h271z" fill="#005fcc"/><path d="m90 306.99c5.39-4.75 11.67-10.41 11.67-10.41h12.82v12.24c.001.161-.029.321-.09.47s-.15.285-.264.399c-.113.115-.248.205-.397.267-.148.062-.308.094-.469.094h-12.32c-11.1.77-13.2 11.88-13.2 11.88v6.3c0 .972-.3853 1.904-1.0714 2.592s-1.617 1.075-2.5886 1.078h-3.61s-.2-3.65 0-9.39 3.21-9.97 9.52-15.52z" fill="#2c2334"/><path d="m376.71 315.49h-39.56v14.8h39.56z" fill="#2c2334"/><path d="m138.17 315.89h-12.79v15.6h12.79z" fill="#2c2334"/><path d="m189.53 203.47h-6.64v104.87h6.64z" fill="#005fcc"/><path d="m255.3 203.47h-6.64v104.87h6.64z" fill="#005fcc"/><path d="m321.07 203.47h-6.64v104.87h6.64z" fill="#005fcc"/><path d="m68.82 253.26 29.77 20.38-11.52 2.29-19.67-14.23z" fill="#d2e9ff"/><path d="m80.35 244.05 24.83 16.85v-13.38c-.002-.703-.149-1.398-.433-2.042-.283-.643-.696-1.221-1.214-1.697-.517-.477-1.127-.841-1.792-1.07s-1.37-.317-2.071-.261z" fill="#d2e9ff"/><path d="m906.6 244.24h-60.3v52.94h60.3z" fill="#ecf6ff"/><path d="m906.6 236.62h-76.23v7.41h76.23z" fill="#ecf6ff"/><path d="m1002.62 182.19h-105.61v114.67h105.61z" fill="#fff"/><path d="m928.34 198h-16.86v42.35h16.86z" fill="#d2e9ff"/><path d="m909.57 260.94h-.24v25.34h.24z" fill="#0067e8"/><path d="m897.85 263.35h-.24v25.34h.24z" fill="#0067e8"/><path d="m886.82 267.94h-.24v25.34h.24z" fill="#0067e8"/><path d="m866.85 269.68v5.55l135.76-45.54v-4.67z" fill="#bcdeff"/><path d="m866.85 296.86 135.76-43.9v43.9z" fill="#bcdeff"/><path d="m1002.62 182.18-11.37 9c-26.902 21.268-59.959 33.268-94.24 34.21v-43.2z" fill="#ecf6ff"/><path d="m911.48 224.32v-26.32h16.86v23.67z" fill="#bcdeff"/><path d="m894.67 182.19h-30.82l138.76-65.38v65.38z" fill="#ecf6ff"/><path d="m751.09 332.3c63.905 0 115.71-3.385 115.71-7.56s-51.805-7.56-115.71-7.56-115.71 3.385-115.71 7.56 51.805 7.56 115.71 7.56z" fill="#d2e9ff"/><path d="m650.68 309.36h213l7.28-.48c.459-.037.888-.245 1.202-.581.315-.337.492-.778.498-1.239l-.3-20.54c-.26-1.77 0-3.46-.56-5.55-.764-3.162-2.444-6.029-4.83-8.24-3.33-3-10-5.57-15.27-7.9-4.33-1.92-8.84-3.71-11.92-7.21 0 0-10.08-12.4-28.42-35.58-1.43-1.82-3.44-.92-30.15-.92-.28 0-106.17 0-128.27 0-2.2 0-4.5 2.94-4.5 5.14v80.83c.002.596.238 1.167.657 1.592.419.424.987.667 1.583.678z" fill="#fac348"/><path d="m863.95 270.58c1.065.621 2.069 1.341 3 2.15 2.386 2.211 4.066 5.078 4.83 8.24.376 1.439.548 2.923.51 4.41v2.85l-223.89-.33v-17.36z" fill="#e9a01e"/><path d="m872.62 307.06c-.006.46-.183.902-.498 1.239-.314.336-.743.544-1.202.581l-7.28.48h-213c-.605 0-1.185-.24-1.612-.668-.428-.427-.668-1.007-.668-1.612v-19.18h224l.23 4.87z" fill="#e9a01e"/><path d="m838.81 266.97h1c-1-2-4.4-7.81-5.51-9.26-1.25-1.63-3-4-5-6.78-6.09-8.48-15.29-21.27-18.7-22.46-.34 0-3.79-.5-7.94-.78-4.92-.33-11.21-.65-14.24-.8h-1.08c-.102.002-.202.025-.296.067-.093.042-.177.102-.246.176-.07.074-.124.162-.16.258-.036.095-.052.197-.048.299v38.42c-.005.221.077.435.228.596.152.161.361.256.582.264h35 7.8 5.68 1.38z" fill="#fff"/><path d="m786.28 227.61v38.42c-.005.31.111.609.324.833.214.225.507.357.816.367h3.17 14 4.29 5.74 15.6 5.68c.94 0 1.93.08 2.9.08.498.004.995-.023 1.49-.08-.64-1.31-4.52-8.12-5.76-9.75-5.3-6.9-19.28-27.84-23.84-29.35 0 0-3.63-.49-8-.79-5.55-.38-12.69-.72-15.29-.85h-.06c-.288.01-.561.134-.759.343-.198.21-.306.489-.301.777zm.67 0c-.004-.058.003-.116.022-.171.018-.055.047-.106.085-.149.038-.044.085-.08.137-.105.052-.026.108-.041.166-.045h1c3 .15 9.32.46 14.24.79 4 .28 7.4.72 7.88.78 3.35 1.24 12.47 13.92 18.51 22.32 2 2.77 3.7 5.16 5 6.79 1 1.34 4 6.46 5.23 8.75h-.43c-.49 0-1 0-1.51 0h-1.38-13.49-7.8-5.73-21.48c-.066-.004-.13-.021-.189-.049-.059-.029-.112-.069-.156-.118-.044-.05-.077-.107-.099-.169-.021-.062-.03-.128-.026-.194z" fill="#fff"/><path d="m806.57 262.82h20.41 2.33c.3 0 .43-.21.29-.47-1.023-1.946-2.152-3.836-3.38-5.66-2.63-3.88-4.93-7-7.52-10.47-2.36-3.17-4.93-7.89-7.76-10.64-.81-.78-1.87-2-3-2.27 0 0-2.73-.36-6-.59-4.19-.28-9.59-.53-11.55-.63-.113-.004-.226.015-.332.056-.105.041-.201.103-.282.183-.08.08-.144.175-.186.28s-.063.218-.06.331v29c0 .232.089.455.249.623.161.167.379.267.611.277 4.56 0 11.95-.04 16.18-.02z" fill="#fff"/><path d="m664.26 306.2c0-6.347 2.521-12.433 7.009-16.921s10.574-7.009 16.921-7.009 12.433 2.521 16.921 7.009 7.009 10.574 7.009 16.921c.001 1.074-.069 2.146-.21 3.21h-47.44c-.141-1.064-.211-2.136-.21-3.21z" fill="#fac348"/><path d="m840.76 282.06c3.16-.015 6.292.599 9.212 1.807 2.921 1.207 5.572 2.984 7.799 5.226s3.986 4.905 5.174 7.833c1.187 2.928 1.781 6.064 1.745 9.224.001 1.074-.069 2.146-.21 3.21h-47.44c-.141-1.064-.211-2.136-.21-3.21-.036-3.16.557-6.296 1.745-9.224s2.947-5.591 5.174-7.833 4.878-4.019 7.799-5.226c2.92-1.208 6.052-1.822 9.212-1.807z" fill="#fac348"/><path d="m870.95 309.61c.489-.021.961-.192 1.35-.488.39-.297.68-.706.83-1.172 1.09-3.57.57-8.07-.54-12-4.9 0-9.66 0-14.55 0v13.68z" fill="#34233c"/><path d="m862.5 295.9c1.453 3.207 2.199 6.689 2.19 10.21.001 1.073-.069 2.146-.21 3.21h-6.41v-13.42z" fill="#483556"/><path d="m650.42 309.53h19.76v-14.1h-22c-1.201 3.983-1.267 8.222-.19 12.24.16.525.481.986.917 1.32.435.333.965.522 1.513.54z" fill="#34233c"/><path d="m664.26 306.2c-.013-3.731.828-7.415 2.46-10.77h3.46v14h-5.71c-.142-1.071-.212-2.15-.21-3.23z" fill="#483556"/><path d="m840.76 285.13c11.62 0 21 8.86 21 20.48.001 1.343-.13 2.682-.39 4h-41.28c-.263-1.317-.397-2.657-.4-4 .03-11.62 9.45-20.48 21.07-20.48z" fill="#34233c"/><path d="m667.16 305.53c0-11.62 9.42-20.48 21-20.48s21 8.86 21 20.48c-.002 1.343-.136 2.683-.4 4h-41.2c-.264-1.317-.398-2.657-.4-4z" fill="#34233c"/><path d="m706.44 310.38h116.44c.37 0 .67-.6.67-1.33v-4h-117.77v4c0 .73.3 1.33.66 1.33z" fill="#34233c"/><path d="m688.38 288.95c3.551.04 7.011 1.129 9.945 3.13 2.934 2.002 5.21 4.827 6.542 8.119 1.331 3.293 1.659 6.905.942 10.384-.717 3.478-2.447 6.667-4.972 9.164s-5.732 4.192-9.218 4.87c-3.486.679-7.095.311-10.373-1.057-3.277-1.368-6.077-3.675-8.046-6.631-1.969-2.955-3.02-6.427-3.02-9.979.032-4.799 1.966-9.389 5.378-12.763 3.412-3.375 8.023-5.258 12.822-5.237z" fill="#000"/><path d="m688.38 295.71c2.229.002 4.407.665 6.26 1.905 1.852 1.24 3.295 3.001 4.146 5.061s1.072 4.327.636 6.512c-.437 2.186-1.512 4.193-3.09 5.768-1.577 1.575-3.587 2.646-5.773 3.079-2.187.433-4.452.208-6.511-.647s-3.817-2.301-5.054-4.155c-1.237-1.855-1.896-4.034-1.894-6.263.005-2.988 1.196-5.852 3.311-7.963s4.981-3.297 7.969-3.297z" fill="#fff"/><path d="m688.38 296.7c2.03.018 4.009.636 5.688 1.777 1.678 1.141 2.982 2.753 3.746 4.633.764 1.881.954 3.945.547 5.934-.408 1.988-1.395 3.811-2.837 5.24-1.442 1.428-3.275 2.397-5.267 2.786-1.993.388-4.055.178-5.928-.604-1.873-.783-3.473-2.102-4.597-3.791-1.125-1.69-1.724-3.675-1.722-5.705.016-2.736 1.117-5.354 3.061-7.28 1.944-1.925 4.573-3.001 7.309-2.99z" fill="#000"/><path d="m683.23 307.63-5.47-1.78 1.33-4.12 5.37 1.75c.197.087.413.12.627.098.214-.023.418-.102.592-.229.175-.126.312-.296.4-.492.088-.197.123-.413.101-.627v-5.77h4.31v5.65c-.023.213.011.429.097.626.087.197.224.367.396.495.173.127.377.207.59.231.214.025.43-.007.627-.092l5.47-1.78 1.34 4.11-5.37 1.75c-.204.051-.392.153-.546.296-.153.144-.268.324-.333.524s-.078.413-.038.62c.04.206.132.399.267.56l3.38 4.67-3.49 2.54-3.31-4.58c-.11-.184-.266-.337-.453-.443-.186-.106-.397-.162-.612-.162s-.426.056-.612.162c-.187.106-.343.259-.453.443l-3.38 4.67-3.49-2.54 3.32-4.58c.132-.163.222-.356.26-.563.038-.206.023-.419-.043-.618-.065-.199-.18-.378-.333-.522-.154-.143-.341-.245-.544-.297z" fill="#fff"/><path d="m688.38 304.65c.461.002.911.14 1.293.398s.679.623.853 1.05c.175.426.219.895.127 1.346-.092.452-.315.866-.643 1.191-.327.324-.743.544-1.195.632-.453.088-.921.04-1.346-.138s-.787-.479-1.042-.863c-.254-.384-.389-.835-.387-1.296.001-.306.063-.609.181-.891.119-.282.291-.538.509-.754.217-.215.474-.386.758-.501.283-.116.586-.175.892-.174z" fill="#000"/><path d="m688.42 302.67c.117-.013.236-.001.348.035.113.036.216.096.304.175.088.078.158.175.207.282.048.108.073.225.073.343s-.025.235-.073.343c-.049.107-.119.204-.207.282-.088.079-.191.139-.304.175-.112.036-.231.048-.348.035-.221 0-.433-.087-.59-.242-.158-.156-.247-.367-.25-.588.003-.222.092-.434.249-.591s.369-.246.591-.249z" fill="#000"/><path d="m691.79 305.4c.105-.034.216-.048.326-.039s.218.039.316.089c.099.05.186.119.258.203s.126.182.16.287c.054.204.028.421-.072.607s-.268.326-.468.393c-.211.067-.44.049-.638-.05s-.349-.271-.422-.48c-.054-.206-.029-.424.071-.611.1-.188.268-.33.469-.399z" fill="#000"/><path d="m690.09 309.77c.181-.131.406-.186.627-.152s.419.153.553.332c.065.089.112.19.138.297s.03.219.013.328c-.018.109-.057.213-.116.307-.058.093-.135.174-.225.238-.182.112-.399.151-.608.11-.209-.04-.396-.158-.522-.33-.128-.17-.184-.383-.158-.593.026-.211.133-.404.298-.537z" fill="#000"/><path d="m686.55 309.7c.18.13.301.327.337.546.035.219-.018.443-.147.624-.134.179-.332.298-.553.332s-.446-.021-.627-.152c-.09-.063-.166-.143-.225-.236-.058-.092-.097-.196-.115-.304s-.014-.219.012-.325c.026-.107.073-.207.138-.295.132-.181.33-.302.551-.337.221-.036.447.017.629.147z" fill="#000"/><path d="m684.95 305.3c.155.053.29.151.389.281s.158.286.169.449-.027.326-.108.468c-.081.141-.203.256-.349.329s-.311.102-.473.082c-.162-.021-.315-.088-.439-.195-.124-.106-.214-.247-.258-.404s-.041-.324.009-.48c.034-.105.088-.202.16-.286s.16-.152.259-.201c.098-.05.206-.079.316-.086.11-.008.221.007.325.043z" fill="#000"/><path d="m670.18 306.97c-.002 3.602 1.065 7.125 3.065 10.121s4.844 5.331 8.172 6.711 6.99 1.741 10.523 1.039c3.533-.703 6.779-2.437 9.326-4.985 2.548-2.547 4.282-5.793 4.985-9.326.702-3.533.34-7.195-1.039-10.523-1.38-3.328-3.715-6.172-6.711-8.172s-6.519-3.067-10.121-3.065c-4.827 0-9.456 1.918-12.869 5.331-3.414 3.413-5.331 8.042-5.331 12.869zm3 0c0-3.007.892-5.946 2.562-8.446 1.671-2.5 4.045-4.448 6.823-5.598 2.779-1.15 5.835-1.45 8.784-.863s5.657 2.036 7.783 4.163c2.125 2.126 3.572 4.836 4.157 7.785s.283 6.005-.869 8.783c-1.152 2.777-3.102 5.15-5.603 6.819s-5.44 2.559-8.447 2.557c-4.027-.008-7.887-1.613-10.732-4.462-2.846-2.849-4.445-6.711-4.448-10.738z" fill="#000"/><g fill="#34233c"><path d="m688.66 288.78.37.44c.24.28.29.62.12.76s-.5 0-.73-.25l-.61-.73c-.057-.063-.104-.133-.14-.21h.6z"/><path d="m691.04 288.97.3.48c.2.31.21.66 0 .78s-.49 0-.69-.35l-.51-.8c-.046-.072-.083-.149-.11-.23l.6.06z"/><path d="m693.36 289.48.25.51c.15.33.11.67-.09.77s-.49-.1-.64-.43l-.4-.87c-.04-.075-.067-.156-.08-.24l.59.14z"/><path d="m695.61 290.28.17.54c.11.35 0 .68-.19.75s-.47-.17-.57-.51l-.29-.91c-.008-.083-.008-.167 0-.25l.57.21z"/><path d="m697.72 291.36.1.56c.07.36-.06.68-.28.72s-.44-.22-.5-.58l-.17-.94c-.015-.083-.015-.167 0-.25l.53.28z"/><path d="m699.38 292.47.3.24v.57c0 .37-.15.67-.37.68s-.42-.28-.43-.65v-1c-.015-.083-.015-.167 0-.25z"/><path d="m700.68 293.9c.008-.086.028-.17.06-.25l.43.41.28.29v.56c0 .37-.24.65-.46.63s-.37-.33-.34-.69z"/><path d="m702.29 295.57c.021-.083.051-.163.09-.24.12.16.25.31.38.47s.15.22.23.32l-.12.56c-.08.35-.32.6-.54.56s-.32-.38-.24-.74z"/><path d="m703.66 297.49c.028-.082.068-.16.12-.23.1.17.21.34.31.52s.13.23.19.34l-.19.54c-.13.34-.4.56-.61.48s-.27-.41-.14-.76z"/><path d="m704.77 299.56c.038-.075.085-.146.14-.21.09.18.17.37.25.55s.09.25.14.37l-.26.51c-.17.32-.47.5-.66.4s-.22-.45 0-.77z"/><path d="m705.6 301.76c.051-.068.108-.131.17-.19 0 .2.11.39.17.58l.09.39-.33.46c-.21.3-.52.44-.7.32s-.16-.48.05-.78z"/><path d="m706.13 304.06c.053-.067.117-.125.19-.17 0 .2.07.4.1.6s0 .26 0 .39l-.39.42c-.24.27-.57.36-.74.22s-.09-.49.16-.76z"/><path d="m705.63 307.01.73-.61c.063-.057.133-.104.21-.14v.6.4l-.44.36c-.28.24-.62.29-.76.12s-.02-.5.26-.73z"/><path d="m705.48 309.26.8-.51c.07-.049.148-.086.23-.11l-.06.6c0 .13 0 .26-.07.39l-.48.3c-.3.2-.65.21-.77 0s.04-.47.35-.67z"/><path d="m705.03 311.47.87-.4c.075-.04.156-.067.24-.08-.05.2-.09.39-.14.59l-.12.38-.51.23c-.33.16-.68.12-.77-.08s.1-.49.43-.64z"/><path d="m704.3 313.61.91-.29c.081-.025.165-.042.25-.05l-.21.57-.17.36-.54.17c-.35.11-.68 0-.75-.18s.16-.48.51-.58z"/><path d="m703.3 315.63.94-.17c.083-.015.167-.015.25 0-.09.17-.18.35-.29.53s-.13.22-.2.33l-.56.1c-.36.07-.68-.06-.72-.28s.23-.45.58-.51z"/><path d="m702.04 317.5h1c.083-.015.167-.015.25 0l-.36.49-.24.3h-.57c-.37 0-.67-.15-.68-.37s.24-.4.6-.42z"/><path d="m700.55 319.19.95.08c.086.008.17.029.25.06l-.42.44-.28.27-.57-.05c-.36 0-.64-.24-.62-.46s.33-.37.69-.34z"/><path d="m698.85 320.68.93.2c.087.019.171.05.25.09l-.48.38-.31.23-.56-.12c-.35-.08-.61-.32-.56-.54s.38-.32.73-.24z"/><path d="m696.95 321.9.89.32c.082.028.16.068.23.12l-.52.31-.34.19-.54-.19c-.34-.13-.56-.4-.48-.61s.44-.24.76-.14z"/><path d="m694.95 322.9.85.44c.075.038.146.085.21.14l-.56.25-.36.14-.51-.26c-.32-.17-.5-.47-.4-.66s.45-.2.77-.05z"/><path d="m692.81 323.64.78.55c.074.043.139.101.19.17l-.58.17-.38.09-.46-.33c-.3-.21-.44-.52-.32-.7s.48-.16.77.05z"/><path d="m690.6 324.08.7.64c.065.056.122.12.17.19l-.6.1h-.39l-.42-.39c-.27-.24-.37-.58-.22-.74s.49-.05.76.2z"/><path d="m688.35 324.22.61.73c.057.063.104.133.14.21h-.6-.4l-.36-.44c-.24-.28-.29-.62-.12-.76s.5-.06.73.26z"/><path d="m685.41 323.72c.18-.12.49 0 .69.35l.51.8c.049.07.086.148.11.23l-.6-.06-.39-.07-.3-.47c-.2-.31-.21-.66-.02-.78z"/><path d="m683.25 323.19c.2-.09.48.1.64.43l.4.86c.039.079.066.163.08.25l-.59-.15-.38-.11-.24-.51c-.15-.33-.11-.68.09-.77z"/><path d="m681.17 322.38c.21-.06.47.16.58.51l.29.91c.008.083.008.167 0 .25l-.57-.22-.36-.16-.17-.54c-.06-.35.01-.68.23-.75z"/><path d="m679.22 321.31c.22 0 .45.22.51.58l.17.94c.01.083.01.167 0 .25l-.53-.28-.34-.21-.09-.56c-.06-.36.07-.68.28-.72z"/><path d="m677.43 319.99c.22 0 .42.28.43.64v1c.015.083.015.167 0 .25-.16-.12-.33-.23-.49-.36l-.3-.24v-.57c-.02-.41.14-.71.36-.72z"/><path d="m675.83 318.45c.22 0 .37.33.34.69l-.09 1c.016.082.016.167 0 .25l-.44-.41-.27-.29v-.57c.03-.41.24-.69.46-.67z"/><path d="m674.44 316.71c.21 0 .32.38.24.73l-.2.94c-.019.08-.05.158-.09.23l-.38-.47-.23-.31.12-.56c.05-.37.32-.61.54-.56z"/><path d="m673.28 314.81c.21.07.28.41.15.76l-.32.89c-.028.082-.068.16-.12.23-.1-.17-.21-.34-.31-.52s-.13-.23-.19-.34l.19-.54c.13-.34.4-.56.6-.48z"/><path d="m672.39 312.77c.2.1.22.45 0 .77l-.44.85c-.039.075-.085.146-.14.21-.09-.19-.17-.37-.25-.56l-.14-.36.26-.51c.27-.27.52-.5.71-.4z"/><path d="m671.77 310.63c.18.13.16.48-.05.77l-.55.79c-.049.067-.106.127-.17.18-.06-.19-.11-.38-.17-.57l-.09-.39.33-.46c.2-.3.52-.44.7-.32z"/><path d="m671.44 308.43c.16.15.09.49-.16.76l-.64.7c-.056.064-.12.122-.19.17 0-.2-.07-.4-.1-.6s0-.26 0-.39l.39-.42c.21-.27.53-.37.7-.22z"/><path d="m670.63 306.33c.28-.24.62-.29.76-.12s0 .5-.25.73l-.73.61c-.063.057-.133.104-.21.14 0-.2 0-.4 0-.6s0-.26 0-.4z"/><path d="m670.38 304.32.48-.31c.31-.19.66-.2.78 0s0 .49-.35.69l-.8.51c-.07.049-.148.086-.23.11l.06-.6c.02-.14.05-.27.06-.4z"/><path d="m670.88 301.99.52-.24c.33-.15.67-.11.77.09s-.1.48-.43.64l-.87.4c-.077.036-.157.062-.24.08.05-.2.09-.39.14-.59s.08-.25.11-.38z"/><path d="m671.68 299.75.55-.17c.34-.11.68 0 .75.18s-.16.47-.51.58l-.91.29c-.083.009-.167.009-.25 0 .07-.19.14-.38.22-.57z"/><path d="m672.77 297.63.56-.09c.36-.07.68.06.72.27s-.22.45-.58.51l-.94.17c-.083.01-.167.01-.25 0l.28-.53z"/><path d="m674.12 295.67h.57c.37 0 .67.15.68.37s-.28.42-.65.43h-.95c-.083.015-.167.015-.25 0l.36-.49z"/><path d="m675.72 293.9h.57c.36 0 .64.24.62.46s-.33.37-.7.34l-.94-.08c-.086-.008-.17-.028-.25-.06l.41-.44z"/><path d="m677.53 292.37.56.12c.35.08.61.32.56.54s-.38.32-.74.24l-.93-.2c-.084-.018-.165-.048-.24-.09l.47-.38z"/><path d="m679.53 291.08.54.19c.34.13.56.4.48.61s-.41.27-.76.14l-.89-.32c-.082-.028-.16-.068-.23-.12l.52-.31z"/><path d="m681.68 290.06.51.26c.32.17.5.46.4.66s-.45.22-.77.05l-.85-.44c-.075-.038-.146-.085-.21-.14l.56-.25z"/><path d="m683.95 289.33.46.33c.3.2.44.52.32.7s-.48.16-.78 0l-.78-.55c-.07-.048-.134-.105-.19-.17l.58-.17z"/><path d="m686.29 288.9.42.39c.27.24.36.57.22.74s-.49.09-.76-.16l-.71-.64c-.059-.058-.113-.122-.16-.19l.6-.1z"/></g><path d="m840.76 288.95c3.551.039 7.012 1.128 9.945 3.13 2.934 2.002 5.21 4.827 6.542 8.119 1.331 3.292 1.659 6.905.942 10.384-.717 3.478-2.446 6.666-4.971 9.164-2.526 2.497-5.733 4.192-9.219 4.87-3.486.679-7.095.311-10.373-1.057-3.277-1.368-6.077-3.675-8.046-6.631s-3.02-6.428-3.02-9.979c.029-4.8 1.962-9.391 5.375-12.767 3.413-3.375 8.025-5.257 12.825-5.233z" fill="#000"/><path d="m840.76 295.71c2.229.002 4.407.665 6.26 1.905 1.852 1.24 3.295 3.001 4.146 5.061s1.072 4.327.635 6.512c-.436 2.186-1.512 4.193-3.089 5.768-1.578 1.575-3.587 2.646-5.773 3.079-2.187.433-4.453.208-6.511-.647-2.059-.855-3.817-2.301-5.054-4.155-1.237-1.855-1.896-4.034-1.894-6.263.005-2.988 1.196-5.852 3.311-7.963s4.981-3.297 7.969-3.297z" fill="#fff"/><path d="m840.76 296.7c2.029.02 4.007.64 5.685 1.782 1.677 1.142 2.979 2.755 3.742 4.635.762 1.881.951 3.945.542 5.933-.408 1.988-1.396 3.81-2.839 5.237-1.442 1.428-3.275 2.396-5.267 2.783-1.992.388-4.054.177-5.927-.605-1.872-.783-3.471-2.102-4.595-3.791-1.124-1.69-1.723-3.675-1.721-5.704.007-1.356.28-2.698.806-3.948.525-1.25 1.292-2.384 2.256-3.338s2.106-1.708 3.362-2.22 2.6-.772 3.956-.764z" fill="#000"/><path d="m835.61 307.63-5.47-1.78 1.33-4.12 5.36 1.75c.197.087.413.12.627.098.214-.023.418-.102.592-.229.175-.126.312-.296.4-.492.088-.197.123-.413.101-.627v-5.77h4.31v5.65c-.021.214.015.43.103.626s.225.366.398.493c.174.127.378.207.591.232.214.024.43-.007.628-.091l5.47-1.78 1.33 4.11-5.36 1.75c-.205.05-.394.151-.549.293-.155.143-.271.323-.337.523-.066.201-.08.414-.04.621.039.208.131.401.266.563l3.38 4.67-3.49 2.54-3.31-4.58c-.109-.185-.264-.338-.45-.444-.185-.106-.396-.162-.61-.162s-.425.056-.611.162-.34.259-.449.444l-3.38 4.67-3.49-2.54 3.31-4.58c.135-.161.227-.354.267-.561.04-.206.027-.419-.038-.619s-.18-.38-.333-.524c-.154-.143-.342-.245-.546-.296z" fill="#fff"/><path d="m840.76 304.65c.46.004.909.144 1.29.403s.676.625.849 1.051c.173.427.216.895.123 1.346s-.318.865-.645 1.188c-.328.323-.744.543-1.196.63s-.92.038-1.344-.14c-.425-.179-.787-.479-1.041-.863s-.388-.835-.386-1.295c.005-.619.256-1.21.696-1.645s1.035-.678 1.654-.675z" fill="#000"/><path d="m840.8 302.67c.222.003.434.092.591.249s.246.369.249.591c-.023.208-.122.401-.277.541-.156.139-.359.217-.568.217-.21 0-.412-.078-.568-.217-.156-.14-.254-.333-.277-.541.003-.224.093-.437.252-.595.16-.157.374-.245.598-.245z" fill="#000"/><path d="m844.16 305.4c.105-.034.216-.048.326-.039s.218.039.316.089c.099.05.186.119.258.203s.126.182.16.287c.057.204.032.422-.069.609-.1.186-.269.326-.471.391-.107.046-.223.07-.34.069-.116-.001-.232-.026-.338-.074-.107-.048-.202-.118-.28-.205s-.137-.189-.174-.3c-.036-.111-.049-.228-.037-.345.011-.116.047-.228.105-.33.057-.102.135-.19.229-.26s.201-.119.315-.145z" fill="#000"/><path d="m842.46 309.77c.181-.131.406-.186.627-.152s.419.153.553.332c.066.088.114.189.14.296.027.106.032.218.015.327-.016.108-.055.213-.112.307-.058.094-.133.175-.223.24-.182.13-.408.183-.629.147-.221-.035-.419-.157-.551-.337-.066-.088-.113-.187-.14-.293-.026-.107-.031-.217-.014-.325.016-.108.055-.212.112-.305.058-.093.133-.174.222-.237z" fill="#000"/><path d="m838.95 309.7c.09.064.165.146.223.24.057.094.096.198.112.307.017.109.012.22-.015.327-.026.107-.074.208-.14.296-.133.179-.332.298-.553.332s-.446-.021-.627-.152c-.089-.063-.164-.144-.222-.237-.057-.093-.096-.197-.112-.305-.017-.108-.012-.219.014-.325.027-.106.074-.206.14-.293.132-.181.33-.302.551-.337.221-.036.447.017.629.147z" fill="#000"/><path d="m837.35 305.3c.202.065.371.205.471.391.101.187.125.405.069.609-.042.164-.132.312-.258.424-.127.112-.285.183-.453.204-.168.02-.338-.01-.488-.087-.151-.078-.274-.199-.355-.348-.08-.149-.113-.318-.096-.487.018-.168.086-.327.195-.456.11-.129.256-.222.419-.266.163-.045.336-.039.496.016z" fill="#000"/><path d="m822.56 306.97c0 3.6 1.067 7.118 3.067 10.111s4.843 5.326 8.168 6.704c3.326 1.377 6.985 1.738 10.516 1.035 3.53-.702 6.773-2.435 9.318-4.981 2.546-2.545 4.279-5.788 4.981-9.318.703-3.531.342-7.19-1.035-10.516-1.378-3.325-3.711-6.168-6.704-8.168s-6.511-3.067-10.111-3.067c-4.827 0-9.456 1.918-12.869 5.331s-5.331 8.042-5.331 12.869zm3 0c0-3.006.892-5.945 2.562-8.445 1.67-2.499 4.044-4.448 6.821-5.598 2.778-1.15 5.834-1.451 8.782-.865 2.949.587 5.657 2.034 7.783 4.16s3.573 4.834 4.16 7.783c.586 2.948.286 6.004-.865 8.782-1.15 2.777-3.099 5.151-5.598 6.821-2.5 1.671-5.439 2.562-8.445 2.562-4.03-.005-7.893-1.608-10.742-4.458-2.849-2.849-4.453-6.712-4.458-10.742z" fill="#000"/><g fill="#34233c"><path d="m841.04 288.78.36.44c.24.28.29.62.12.76s-.49 0-.73-.25l-.61-.73c-.053-.065-.1-.136-.14-.21h.61z"/><path d="m843.41 288.97.31.48c.19.31.2.66 0 .78s-.5 0-.7-.35l-.51-.8c-.043-.074-.08-.151-.11-.23l.6.06z"/><path d="m845.74 289.48.24.51c.15.33.12.67-.08.77s-.49-.1-.65-.43l-.4-.87c-.035-.077-.062-.157-.08-.24l.59.14z"/><path d="m847.95 290.28.17.54c.11.35 0 .68-.18.75s-.47-.17-.58-.51l-.29-.91c0-.09 0-.17-.05-.25l.57.21z"/><path d="m850.1 291.36.1.56c.06.36-.06.68-.28.72s-.45-.22-.51-.58l-.17-.94c-.01-.083-.01-.167 0-.25l.53.28z"/><path d="m851.75 292.47.31.24v.57c0 .37-.15.67-.37.68s-.41-.28-.43-.65v-1c-.01-.083-.01-.167 0-.25.16.17.33.28.49.41z"/><path d="m853.06 293.9c.005-.085.022-.169.05-.25l.44.41.27.29v.56c0 .37-.23.65-.45.63s-.38-.33-.34-.69z"/><path d="m854.67 295.57c.013-.084.04-.165.08-.24.13.16.26.31.38.47l.23.32-.12.56c-.08.35-.32.6-.53.56s-.33-.38-.25-.74z"/><path d="m856.03 297.49c.032-.081.072-.158.12-.23l.32.52.18.34-.19.54c-.13.34-.39.56-.6.48s-.28-.41-.15-.76z"/><path d="m857.14 299.56c.038-.078.089-.149.15-.21l.24.55c.05.13.1.25.14.37l-.26.51c-.17.32-.46.5-.66.4s-.22-.45 0-.77z"/><path d="m857.95 301.76c.051-.068.108-.131.17-.19.06.2.12.39.17.58l.09.39-.32.46c-.21.3-.53.44-.71.32s-.16-.48 0-.78z"/><path d="m858.5 304.06c.057-.067.124-.125.2-.17l.09.6v.39l-.38.42c-.25.27-.58.36-.75.22s-.09-.49.16-.76z"/><path d="m858 307.01.73-.61c.065-.059.139-.107.22-.14v.6.4l-.44.36c-.27.24-.62.29-.76.12s-.03-.5.25-.73z"/><path d="m857.85 309.26.8-.51c.072-.046.149-.083.23-.11 0 .2 0 .4-.06.6l-.06.39-.48.3c-.31.2-.66.21-.78 0s.04-.47.35-.67z"/><path d="m857.41 311.47.86-.4c.075-.04.156-.067.24-.08 0 .2-.09.39-.14.59s-.08.25-.11.38l-.52.23c-.33.16-.67.12-.77-.08s.1-.49.44-.64z"/><path d="m856.68 313.61.9-.29c.084-.026.172-.043.26-.05-.08.19-.14.38-.22.57l-.16.36-.54.17c-.35.11-.69 0-.76-.18s.17-.48.52-.58z"/><path d="m855.67 315.63.94-.17c.086-.015.174-.015.26 0-.1.17-.19.35-.29.53l-.21.33-.56.1c-.36.07-.68-.06-.72-.28s.22-.45.58-.51z"/><path d="m854.42 317.5h1c.083-.016.168-.016.25 0l-.35.49-.25.3h-.57c-.36 0-.67-.15-.68-.37s.23-.4.6-.42z"/><path d="m852.95 319.19 1 .08c.083.008.163.028.24.06l-.41.44-.29.27-.56-.05c-.37 0-.65-.24-.63-.46s.26-.37.65-.34z"/><path d="m851.23 320.68.93.2c.084.018.165.048.24.09l-.47.38-.32.23-.56-.12c-.35-.08-.6-.32-.56-.54s.38-.32.74-.24z"/><path d="m849.35 321.9.9.32c.079.028.154.068.22.12l-.51.31-.35.19-.53-.19c-.35-.13-.56-.4-.49-.61s.42-.24.76-.14z"/><path d="m847.32 322.9.85.44c.075.038.146.085.21.14l-.55.25-.37.14-.5-.26c-.33-.17-.51-.47-.41-.66s.45-.2.77-.05z"/><path d="m845.19 323.64.78.55c.072.046.136.103.19.17l-.58.17-.39.09-.46-.33c-.3-.21-.44-.52-.31-.7s.47-.16.77.05z"/><path d="m842.95 324.08.7.64c.064.053.118.117.16.19l-.59.1h-.4l-.41-.39c-.27-.24-.37-.58-.22-.74s.52-.05.76.2z"/><path d="m840.72 324.22.62.73c.054.065.1.136.14.21h-.61-.39l-.37-.44c-.23-.28-.29-.62-.12-.76s.5-.06.73.26z"/><path d="m837.78 323.72c.19-.12.5 0 .69.35l.52.8c.042.073.075.15.1.23l-.6-.06-.38-.07-.31-.47c-.2-.31-.2-.66-.02-.78z"/><path d="m835.62 323.19c.2-.09.49.1.64.43l.41.86c.031.081.055.165.07.25-.19 0-.39-.09-.58-.15l-.38-.11-.24-.51c-.16-.33-.12-.68.08-.77z"/><path d="m833.55 322.38c.21-.06.47.16.58.51l.29.91c.009.083.009.167 0 .25l-.56-.22-.36-.16-.17-.54c-.07-.35.01-.68.22-.75z"/><path d="m831.6 321.31c.22 0 .44.22.51.58l.16.94c.015.083.015.167 0 .25l-.53-.28-.33-.21-.1-.56c-.05-.36.07-.68.29-.72z"/><path d="m829.81 319.99c.22 0 .41.28.42.64v1c.005.083.005.167 0 .25-.17-.12-.33-.23-.49-.36l-.31-.24v-.57c-.01-.41.16-.71.38-.72z"/><path d="m828.2 318.45c.22 0 .37.33.34.69l-.08 1c-.008.086-.028.17-.06.25l-.43-.41-.27-.29v-.57c.08-.41.25-.69.5-.67z"/><path d="m826.81 316.71c.22 0 .33.38.25.73l-.21.94c-.021.079-.047.155-.08.23-.135-.15-.261-.307-.38-.47l-.24-.31.13-.56c.08-.37.31-.61.53-.56z"/><path d="m825.66 314.81c.21.07.27.41.15.76l-.33.89c-.028.08-.065.157-.11.23-.11-.17-.22-.34-.32-.52s-.12-.23-.19-.34l.2-.54c.12-.34.39-.56.6-.48z"/><path d="m824.77 312.77c.19.1.21.45 0 .77l-.43.85-.15.21c-.08-.19-.17-.37-.25-.56s-.09-.24-.14-.36l.27-.51c.2-.27.5-.5.7-.4z"/><path d="m824.15 310.63c.18.13.15.48-.06.77l-.54.79c-.052.065-.108.125-.17.18l-.18-.57-.09-.39.33-.46c.21-.3.51-.44.71-.32z"/><path d="m823.81 308.43c.16.15.1.49-.15.76l-.64.7c-.059.065-.126.122-.2.17 0-.2-.07-.4-.09-.6s0-.26 0-.39l.39-.42c.2-.27.53-.37.69-.22z"/><path d="m823 306.33c.28-.24.62-.29.77-.12s0 .5-.26.73l-.72.61c-.068.055-.141.102-.22.14 0-.2 0-.4 0-.6s0-.26 0-.4z"/><path d="m822.76 304.32.48-.31c.3-.19.65-.2.77 0s0 .49-.34.69l-.81.51c-.069.051-.147.088-.23.11 0-.2 0-.4.07-.6s.04-.27.06-.4z"/><path d="m823.26 301.99.51-.24c.33-.15.68-.11.77.09s-.1.48-.43.64l-.86.4c-.08.036-.164.063-.25.08l.15-.59c.03-.13.07-.25.11-.38z"/><path d="m824.06 299.75.54-.17c.35-.11.68 0 .75.18s-.16.47-.51.58l-.91.29c-.083.009-.167.009-.25 0 .07-.19.14-.38.22-.57z"/><path d="m825.14 297.63.56-.09c.36-.07.69.06.73.27s-.23.45-.59.51l-.94.17c-.083.01-.167.01-.25 0l.29-.53c.072-.106.139-.217.2-.33z"/><path d="m826.5 295.67h.57c.36 0 .66.15.67.37s-.27.42-.64.43h-1c-.086.015-.174.015-.26 0l.36-.49z"/><path d="m828.09 293.9h.57c.36 0 .64.24.63.46s-.34.37-.7.34l-1-.08c-.085-.009-.17-.029-.25-.06l.42-.44z"/><path d="m829.95 292.37.55.12c.36.08.61.32.56.54s-.37.32-.73.24l-.93-.2c-.084-.018-.165-.048-.24-.09l.47-.38z"/><path d="m831.95 291.08.54.19c.34.13.56.4.49.61s-.42.27-.76.14l-.9-.32c-.081-.03-.159-.07-.23-.12l.52-.31z"/><path d="m834.06 290.06.5.26c.32.17.5.46.4.66s-.44.22-.77.05l-.84-.44c-.075-.038-.146-.085-.21-.14l.55-.25z"/><path d="m836.32 289.33.47.33c.3.2.44.52.31.7s-.47.16-.77 0l-.78-.55c-.074-.043-.139-.101-.19-.17l.58-.17z"/><path d="m838.66 288.9.42.39c.27.24.37.57.22.74s-.49.09-.76-.16l-.7-.64c-.062-.058-.119-.122-.17-.19l.6-.1z"/></g><path d="m800.16 227.15-9.43-.67 21.77 40.81 10.69.04z" fill="#d2e9ff"/><path d="m794.28 267.31-7.95-14.99-.1 4.31 4.87 10.68z" fill="#d2e9ff" opacity=".16"/><path d="m872.62 292.81c-2.23 0-4.48 0-6.72 0-.152 0-.298-.06-.407-.166-.108-.107-.17-.252-.173-.404 0-1.58-.1-2.88-.14-4.38.007-.344.103-.68.278-.976s.424-.542.722-.714c1.94-1.002 3.944-1.874 6-2.61z" fill="#fff"/><path d="m652.05 292.52c.06.005.121-.004.176-.027.056-.023.106-.06.145-.105.039-.046.066-.101.08-.16.014-.058.014-.119-.001-.178-2.62-9.72-1.21-4.72-4.13-15v15.43z" fill="#fff"/><path d="m788.03 273.64h6.62c.308.038.619-.046.866-.232.248-.187.415-.462.464-.768v-.85c-.052-.305-.218-.579-.466-.765-.247-.186-.557-.27-.864-.235h-6.62c-.306-.035-.614.05-.86.236s-.411.46-.46.764v.85c.047.305.211.581.457.767.247.187.556.27.863.233z" fill="#34233c"/><path d="m781.41 221.13h-.33v83.84h.33z" fill="#e9a01e"/><path d="m866.17 286.17c.83-.41 1.66-.83 2.48-1.2v7.84h-2.7c-.152 0-.298-.06-.407-.166-.108-.107-.17-.252-.173-.404 0-1.58-.1-2.88-.14-4.38.001-.338.088-.671.252-.966.164-.296.401-.545.688-.724z" fill="#d2e9ff"/><path d="m834.46 258.57c4.12 0 7.46 4.77 7.46 6.39 0 3.53-3.34 6.39-7.46 6.39-3 0-1.92-4.81-1.92-12.28 0-.68 1.15-.5 1.92-.5z" fill="#e9a01e"/><path d="m834.27 259.27c4.12 0 7.46 4.78 7.46 6.4 0 3.52-3.34 6.39-7.46 6.39-3 0-1.92-2.85-1.92-12.28 0-.68 1.15-.51 1.92-.51z" fill="#fac348"/><path d="m854.09 50.2999c-5.26-4.23-14.43-15.4501-16.42-28.0601 0-.12 0-.24 0-.36-1.9-16.99997-10.68-25.19991-22.35-25.93991-10.33-.66-20.92 4.449938-23.23 18.18991-3.92 23.41-18.73 36.4-26.54 48.87-5.312 6.2969-9.42 13.517-12.12 21.3001l28.17-5.9001c34.934-7.3154 71.344-.9363 101.71 17.82-3.18-18.76-14.8-34.3199-29.22-45.9199z" fill="#d2e9ff"/><path d="m478.79 401.94c64.253 0 116.34-2.964 116.34-6.62s-52.087-6.62-116.34-6.62-116.34 2.964-116.34 6.62 52.087 6.62 116.34 6.62z" fill="#d2e9ff"/><path d="m555.24 396.84h14.48v-3.89h-14.48z" fill="#dd3c3c"/><path d="m516.83 396.84h14.48v-3.89h-14.48z" fill="#dd3c3c"/><path d="m485.04 396.84h14.48v-3.89h-14.48z" fill="#dd3c3c"/><path d="m477.8 392.95h102.62v-4.54h-102.62z" fill="#ff5753"/><path d="m573.18 389.6h7.24v-5.97h-7.24z" fill="#ff5753"/><path d="m477.81 389.6h7.24v-5.97h-7.24z" fill="#ff5753"/><path d="m560.27 396.84h14.49v-3.89h-14.49z" fill="#ff5753"/><path d="m488.5 396.84h14.48v-3.89h-14.48z" fill="#ff5753"/><path d="m521.87 396.82h14.48v-3.89h-14.48z" fill="#ff5753"/><path d="m570.95 363.74h-28.13v24.81h28.13z" fill="#f39719"/><path d="m542.82 363.74 28.13 24.82v-24.82z" fill="#ffc347"/><path d="m554.47 372.69h5.19v-8.97h-5.19z" fill="#fff"/><path d="m542.82 363.74h-28.13v24.81h28.13z" fill="#f39719"/><path d="m514.69 363.74 28.13 24.82v-24.82z" fill="#ffc347"/><path d="m526.34 372.69h5.18v-8.97h-5.18z" fill="#fff"/><path d="m514.69 363.74h-28.13v24.81h28.13z" fill="#f39719"/><path d="m486.56 363.74 28.13 24.82v-24.82z" fill="#ffc347"/><path d="m498.22 372.69h5.18v-8.97h-5.18z" fill="#fff"/><path d="m570.95 338.93h-28.13v24.81h28.13z" fill="#f39719"/><path d="m542.82 338.93 28.13 24.81v-24.81z" fill="#ffc347"/><path d="m554.47 347.87h5.19v-8.97h-5.19z" fill="#fff"/><path d="m542.82 338.93h-28.13v24.81h28.13z" fill="#f39719"/><path d="m514.69 338.93 28.13 24.81v-24.81z" fill="#ffc347"/><path d="m526.34 347.87h5.18v-8.97h-5.18z" fill="#fff"/><path d="m514.69 338.93h-28.13v24.81h28.13z" fill="#f39719"/><path d="m486.56 338.93 28.13 24.81v-24.81z" fill="#ffc347"/><path d="m498.22 347.87h5.18v-8.97h-5.18z" fill="#fff"/><path d="m456.24 397.9h14.48v-3.89h-14.48z" fill="#dd3c3c"/><path d="m417.84 397.9h14.48v-3.89h-14.48z" fill="#dd3c3c"/><path d="m386.05 397.9h14.48v-3.89h-14.48z" fill="#dd3c3c"/><path d="m378.8 394h102.62v-4.54h-102.62z" fill="#ff5753"/><path d="m474.18 390.65h7.24v-5.97h-7.24z" fill="#ff5753"/><path d="m378.81 390.65h7.24v-5.97h-7.24z" fill="#ff5753"/><path d="m461.28 397.9h14.49v-3.89h-14.49z" fill="#ff5753"/><path d="m389.51 397.9h14.48v-3.89h-14.48z" fill="#ff5753"/><path d="m422.87 397.87h14.48v-3.89h-14.48z" fill="#ff5753"/><path d="m471.95 364.79h-28.13v24.81h28.13z" fill="#f39719"/><path d="m443.82 364.79 28.13 24.82v-24.82z" fill="#ffc347"/><path d="m455.47 373.74h5.19v-8.97h-5.19z" fill="#fff"/><path d="m443.83 364.79h-28.13v24.81h28.13z" fill="#f39719"/><path d="m415.7 364.79 28.12 24.82v-24.82z" fill="#ffc347"/><path d="m427.36 373.74h5.18v-8.97h-5.18z" fill="#fff"/><path d="m415.7 364.79h-28.13v24.81h28.13z" fill="#f39719"/><path d="m387.57 364.79 28.13 24.82v-24.82z" fill="#ffc347"/><path d="m399.22 373.74h5.18v-8.97h-5.18z" fill="#fff"/><path d="m471.95 339.98h-28.13v24.81h28.13z" fill="#f39719"/><path d="m443.82 339.98 28.13 24.81v-24.81z" fill="#ffc347"/><path d="m455.47 348.93h5.19v-8.97h-5.19z" fill="#fff"/><path d="m443.83 339.98h-28.13v24.81h28.13z" fill="#f39719"/><path d="m415.7 339.98 28.12 24.81v-24.81z" fill="#ffc347"/><path d="m427.36 348.93h5.18v-8.97h-5.18z" fill="#fff"/><path d="m415.7 339.98h-28.13v24.81h28.13z" fill="#f39719"/><path d="m387.57 339.98 28.13 24.81v-24.81z" fill="#ffc347"/><path d="m399.22 348.93h5.18v-8.97h-5.18z" fill="#fff"/></g></svg>