<svg fill="none" height="78" viewBox="0 0 56 78" width="56" xmlns="http://www.w3.org/2000/svg" xmlns:xlink="http://www.w3.org/1999/xlink"><clipPath id="a"><path d="m0 0h56v78h-56z"/></clipPath><g clip-path="url(#a)"><path d="m9.56543 73.7599 36.84207-8.48-27.2765-12.0799" stroke="#34233c" stroke-miterlimit="10" stroke-width="2"/><g fill="#0070fe"><path d="m19.131 57.44c5.2829 0 9.5655-1.8984 9.5655-4.24 0-2.3417-4.2826-4.24-9.5655-4.24s-9.56557 1.8983-9.56557 4.24c0 2.3416 4.28267 4.24 9.56557 4.24z"/><path d="m46.4342 69.52c5.2829 0 9.5655-1.8983 9.5655-4.24 0-2.3416-4.2826-4.24-9.5655-4.24s-9.5655 1.8984-9.5655 4.24c0 2.3417 4.2826 4.24 9.5655 4.24z"/><path d="m9.56555 78c5.28295 0 9.56555-1.8983 9.56555-4.24s-4.2826-4.24-9.56555-4.24c-5.28291 0-9.56555 1.8983-9.56555 4.24s4.28264 4.24 9.56555 4.24z"/></g><path d="m19.3452 0c-.0804 0-.1608 0-.2144 0-.0804 0-.1608 0-.2143 0-9.72637.133333-17.55029 7.97333-17.55029 17.68 0 2.4.42871 4.6933 1.31292 6.7733 0 0 1.23254 2.3734 1.82201 3.2534l14.62966 25.4933 14.6297-25.4933c.6162-.88 1.822-3.2534 1.822-3.2534.8842-2.08 1.3129-4.3733 1.3129-6.7733 0-9.70667-7.8239-17.546667-17.5502-17.68z" fill="#ff5753"/><path d="m19.1309 25.4667c5.0757 0 9.1904-4.0951 9.1904-9.1467s-4.1147-9.14666-9.1904-9.14666c-5.0758 0-9.19047 4.09506-9.19047 9.14666s4.11467 9.1467 9.19047 9.1467z" fill="#fff"/><path d="m19.1308 53.2-14.62966-25.4933c-.61627-.88-1.82201-3.2534-1.82201-3.2534-.88421-2.08-1.31292-4.3733-1.31292-6.7733 0-9.70667 7.82392-17.546667 17.52349-17.68h.4555s-17.36272 4.50667-11.65554 22.6933z" fill="#d64141"/></g></svg>