<svg fill="none" height="72" viewBox="0 0 80 72" width="80" xmlns="http://www.w3.org/2000/svg" xmlns:xlink="http://www.w3.org/1999/xlink"><clipPath id="a"><path d="m0 0h80v72h-80z"/></clipPath><g clip-path="url(#a)"><path d="m79.7499 23.7881c-.0834-.9681-.6673-1.7702-1.4737-2.2128-.5283-.3596-1.1401-.5255-1.8074-.4702l-.6396.0553c-.5283.0553-1.0845-.1106-1.585-.3596-.5005-.3319-.8898-.8021-1.1123-1.3277l-1.14-2.3788c-.584-1.0234-.3615-2.5724.4727-3.4022l.4449-.4426c1.0845-1.0787 1.0845-2.8767 0-3.95542l-2.1411-2.12984c-.2781-.27661-.6118-.49789-.9733-.60853-1.0566-.52555-2.3913-.38725-3.2534.49788l-.4449.44257c-.8342.82981-2.3635 1.05109-3.4202.47023l-1.1401-.52555-1.0288-.47023c-1.1123-.4149-1.9465-1.71494-1.8353-2.90434l.0556-.63619c.1113-1.35536-.7507-2.572414-2.0298-2.931999-.2503-.110641-.5284-.193623-.8064-.193623l-2.9754-.30426381c-1.5293-.13830219-2.9197 1.02343581-3.0309 2.54475581l-.0556.63619c-.1112 1.1894-1.1401 2.32347-2.308 2.54476l-2.586.69151c-.5283.19362-1.1401.16596-1.724.02766-.5283-.19363-1.0011-.52555-1.3069-.96812l-.3615-.52555c-.3893-.5532-.9455-.88513-1.5294-1.07875-.862-.33193-1.8352-.24894-2.6416.30426l-2.4748 1.74261c-1.2513.88513-1.585 2.62773-.6952 3.90011l.3615.52557c.6952.9681.6395 2.5171-.139 3.4299l-1.5294 2.1575c-.6118 1.0234-2.0021 1.5766-3.1422 1.3l-.4171-.1106s-.0278 0-.0556 0l-.1946-.0553c-1.5016-.3873-3.031.4978-3.4481 1.9915l-.7786 2.932c-.3893 1.4937.5006 3.015 2.0021 3.4299l.6118.166c1.14.3042 2.1133 1.5213 2.1133 2.7107l.2224 2.6277c.1947 1.1617-.5283 2.5448-1.6128 3.0427l-.5839.2766c-1.3903.6638-2.0021 2.3234-1.3625 3.7064l1.2791 2.7384c.1946.4149.5005.7745.862 1.0235l.0556-.0554c.8064.6916 2.0021.9128 3.0309.415l.584-.2767c1.0844-.4978 2.586-.1659 3.3646.7192l1.863 1.8809c.9177.7745 1.2513 2.2682.723 3.3469l-.278.5809c-.4728 1.0234-.2781 2.2128.4449 3.015l-.0556.0553c.2224.2213.5005.4426.8063.5809l2.7529 1.2723.1669.083c.4171.1937.8898.2766 1.3069.249v-.083c.9454-.1107 1.8074-.6639 2.2245-1.5767l.2781-.5808c.5005-1.0788 1.863-1.7426 3.0309-1.5213 0 0 .1668.0276 1.3347.1383 1.1679.1106 1.3348.0829 1.3348.0829 1.1956-.0276 2.4191.8575 2.725 2.0192l.1669.6086c.3336 1.217 1.4181 2.0192 2.6416 2.0468v.083c.3337.0277.6396.0277.9732-.083l2.9197-.7744c1.5016-.3873 2.3914-1.9363 1.9743-3.4299l-.1668-.6086c-.3059-1.134.3059-2.5447 1.3625-3.0979 0 0 .139-.083 1.1123-.7469.9732-.6638 1.0844-.7744 1.0844-.7744.8621-.7745 2.3636-.8852 3.3647-.2213l.3615.2489h.0278l.1668.1107c1.2791.8851 3.0309.5808 3.9207-.6916l1.7519-2.4617c.8898-1.2724.5839-3.015-.6952-3.9001l-.1668-.1107s0 0-.0278-.0276l-.3337-.249c-.9733-.6915-1.4182-2.1298-1.0289-3.2639l.6952-2.5448c.2224-1.1617 1.3625-2.2128 2.5582-2.2958l.6396-.0553c1.5293-.1383 2.6972-1.4937 2.5582-3.0426z" fill="#ff5753"/><path d="m52.5273 35.3777c4.4536 0 8.064-3.5913 8.064-8.0215 0-4.4301-3.6104-8.0215-8.064-8.0215s-8.0639 3.5914-8.0639 8.0215c0 4.4302 3.6103 8.0215 8.0639 8.0215z" fill="#fff"/><path d="m52.5271 40.4119c7.2486 0 13.1248-5.8452 13.1248-13.0557 0-7.2104-5.8762-13.0557-13.1248-13.0557s-13.1248 5.8453-13.1248 13.0557c0 7.2105 5.8762 13.0557 13.1248 13.0557z" fill="#fff"/><path d="m52.5271 35.6821c4.6225 0 8.3698-3.7276 8.3698-8.3258s-3.7473-8.3258-8.3698-8.3258c-4.6226 0-8.3699 3.7276-8.3699 8.3258s3.7473 8.3258 8.3699 8.3258z" fill="#34233c"/><path d="m53.7228.220672c-.2502-.110641-.5283-.1936223-.8064-.1936223-1.5293-.1383017-2.9197 1.0234303-3.0309 2.5447603l-.0556.63618c-.1112 1.1894-1.1401 2.32348-2.308 2.54476l-2.586.69151c-.5283.19362-1.1401.16596-1.724.02766-.5283-.19362-1.0011-.52555-1.3069-.96811l-.3615-.52555c-.3893-.55321-.9455-.88513-1.5294-1.07876-.862-.33192-1.8352-.24894-2.6416.30427l-2.4748 1.7426c-1.2513.88514-1.585 2.62774-.6952 3.90012l.3615.52551c.6952.9681.6395 2.5171-.139 3.4299l-1.5294 2.1575c-.6118 1.0235-2.0021 1.5767-3.1422 1.3001l-.4171-.1107s-.0278 0-.0556 0l-.1946-.0553c-1.5016-.3872-3.031.4979-3.4481 1.9916l-.7786 2.932c-.3893 1.4936.5006 3.0149 2.0021 3.4298l.6118.166c1.14.3043 2.1133 1.5213 2.1133 2.7107l.2224 2.6278c.1947 1.1617-.5283 2.5447-1.6128 3.0426l-.5839.2766c-1.3903.6639-2.0021 2.3235-1.3625 3.7065l1.2791 2.7384c.1946.4149.5005.7745.862 1.0234l.0556-.0553c.8064.6915 2.0021.9128 3.0309.4149l.584-.2766c1.0844-.4979 2.586-.166 3.3646.7192l1.863 1.8809c.9177.7745 1.2513 2.2681.723 3.3469l-.278.5809c-.4728 1.0234-.2781 2.2128.4449 3.0149l-.0556.0554c.2224.2212.5005.4425.8063.5808l2.7529 1.2724.1669.083c.4171.1936.8898.2766 1.3069.2489v-.083c.9454-.1106 1.8074-.6638 2.2245-1.5766l.2781-.5809c.5005-1.0787 1.863-1.7426 3.0309-1.5213 0 0 .1668.0277 1.3347.1383 1.1679.1107 1.3348.083 1.3348.083 1.1956-.0277 2.4191.8575 2.725 2.0192l.1669.6085" fill="#d64141"/><path d="m52.5273 35.378c-4.449 0-8.0639-3.5959-8.0639-8.0215 0-4.4257 3.6149-8.0215 8.0639-8.0215" fill="#fff"/><path d="m54.3624 40.3842c-7.2576 0-14.9601-5.8363-14.9601-13.0557 0-7.2193 7.7303-12.9174 14.9601-12.9174" fill="#fff"/><path d="m52.5271 35.6821c-4.616 0-8.3699-3.7342-8.3699-8.3258s3.7539-8.3258 8.3699-8.3258" fill="#34233c"/><path d="m52.694 41.5739c8.2161 0 14.8766-6.6254 14.8766-14.7983s-6.6605-14.7983-14.8766-14.7983-14.8766 6.6254-14.8766 14.7983 6.6605 14.7983 14.8766 14.7983z" fill="#fff"/><path d="m52.6939 34.2437c4.1464 0 7.5078-3.3436 7.5078-7.4683 0-4.1246-3.3614-7.4683-7.5078-7.4683-4.1465 0-7.5079 3.3437-7.5079 7.4683 0 4.1247 3.3614 7.4683 7.5079 7.4683z" fill="#34233c"/><path d="m39.6246 50.8122h-31.5328v-26.305c0-8.6577 7.0629-15.68347 15.7664-15.68347s15.7664 7.02577 15.7664 15.68347z" fill="#34233c"/><path d="m46.0202 72.0001h-46.0202v-13.4706c0-5.3384 4.36566-9.6811 9.73236-9.6811h26.58324c5.3667 0 9.7324 4.3427 9.7324 9.6811v13.4706z" fill="#0070fe"/><path d="m14.0146 72.0001h-14.0146v-14.1344c0-4.9789 4.05978-9.0173 9.065-9.0173h4.9496z" fill="#0055bf"/><path d="m31.6162 20.856h-15.5996c-2.0577 0-3.7539 1.6596-3.7539 3.7341v12.6685c0 3.4022 2.6138 6.1959 5.9228 6.5555v5.698c0 1.7703 1.446 3.2363 3.2534 3.2363h4.8384c1.7796 0 3.2534-1.4383 3.2534-3.2363v-5.7257c3.2812-.3872 5.8394-3.1533 5.8394-6.5278v-12.6685c0-2.0745-1.6962-3.7341-3.7539-3.7341z" fill="#e2a091"/><path d="m21.3277 20.856h-5.3111c-2.0577 0-3.7539 1.6596-3.7539 3.7341v12.6685c0 3.4022 2.6138 6.1959 5.9228 6.5555v5.698c0 1.7703 1.446 3.2363 3.2534 3.2363" fill="#d3897d"/><path d="m21.3276 20.8559s6.8127 6.9981 14.0424 6.5002l.445-9.8471z" fill="#34233c"/><path d="m25.0537 15.4622s4.0598 5.5874 11.512 7.081" stroke="#fff" stroke-miterlimit="10"/><path d="m35.6202 22.0454h-23.4967s10.1495 12.0323 23.4967 0z" fill="#0070fe"/><path d="m8.06396 22.9028c0-8.6577 7.06294-15.65573 15.73864-15.65573s15.7386 7.02573 15.7386 15.65573" fill="#0070fe"/><path d="m8.36963 22.5432h31.00457" stroke="#fff" stroke-miterlimit="10" stroke-width="2"/></g></svg>