<svg fill="none" height="61" viewBox="0 0 79 61" width="79" xmlns="http://www.w3.org/2000/svg" xmlns:xlink="http://www.w3.org/1999/xlink"><clipPath id="a"><path d="m0 0h79v61h-79z"/></clipPath><g clip-path="url(#a)"><path d="m79.0003 0h-61.1116v39.3243h61.1116z" fill="#fdc300"/><g stroke="#34233c" stroke-linecap="round" stroke-linejoin="round" stroke-miterlimit="10" stroke-width="2"><path d="m43.7905 11.1892h24.6875"/><path d="m43.7905 19.6487h24.6875"/><path d="m43.7905 28.7026h24.6875"/></g><path d="m33.1329 15.6216 15.2981 23.7027h-30.5423z" fill="#f39719"/><path d="m18.1042 7.08105c-.081 0-.1619 0-.2159 0-.0809 0-.1619 0-.2158 0-9.79408.13514-17.6725 8.08105-17.6725 17.91895 0 2.4324.431694 4.7567 1.32206 6.8648 0 0 1.24112 2.4054 1.8347 3.2973l14.73154 25.8379 14.7316-25.8379c.6205-.8919 1.8347-3.2973 1.8347-3.2973.8903-2.1081 1.322-4.4324 1.322-6.8648 0-9.8379-7.8784-17.78381-17.6724-17.91895z" fill="#ff5753"/><path d="m17.8882 32.8919c5.1111 0 9.2545-4.1505 9.2545-9.2703s-4.1434-9.2703-9.2545-9.2703-9.25441 4.1505-9.25441 9.2703 4.14331 9.2703 9.25441 9.2703z" fill="#fff"/><path d="m17.8883 61-14.73154-25.8378c-.62056-.8919-1.8347-3.2973-1.8347-3.2973-.890366-2.1081-1.32206-4.4324-1.32206-6.8649 0-9.8108 7.87842-17.78374 17.6455-17.89185h.4587s-17.48364 4.56755-11.73671 23.00005z" fill="#d64141"/></g></svg>