<svg fill="none" height="65" viewBox="0 0 90 65" width="90" xmlns="http://www.w3.org/2000/svg" xmlns:xlink="http://www.w3.org/1999/xlink"><clipPath id="a"><path d="m0 0h90v65h-90z"/></clipPath><g clip-path="url(#a)"><path d="m88.8299 64.1695c-1.4267 1.2313-3.5669 1.0881-4.8224-.3436l-24.8256-28.5771c-1.227-1.4317-1.0844-3.5793.3424-4.8392 1.4268-1.2313 3.5669-1.0881 4.8224.3436l24.8256 28.5771c1.2271 1.4317 1.0844 3.5793-.3424 4.8392z" fill="#34233c"/><path d="m57.3555 51.141c14.0733 0 25.4819-11.4483 25.4819-25.5705s-11.4086-25.5705-25.4819-25.5705-25.482 11.4483-25.482 25.5705 11.4087 25.5705 25.482 25.5705z" fill="#0070fe"/><path d="m57.3557 45.1849c10.7953 0 19.5466-8.7817 19.5466-19.6145 0-10.8329-8.7513-19.61459-19.5466-19.61459s-19.5466 8.78169-19.5466 19.61459c0 10.8328 8.7513 19.6145 19.5466 19.6145z" fill="#fff"/><path d="m67.5713 35.8788v-20.4163c0-2.3767-1.9118-4.3238-4.3088-4.3238h-30.6468c-2.1401 0-4.1946.7445-5.8212 2.1189l-10.2441 8.619-13.21178 3.207c-.9702.2291-1.76918.9163-2.14014 1.804l-.941663 2.1762c-.1712114.4009-.256817.8304-.256817 1.2599v5.0396c0 .2577.228282.4868.485098.4868h67.086202z" fill="#ffc347"/><path d="m40.948 11.1387-.428 24.6829h-40.52v-5.6124c0-.5154.114141-1.0022.342422-1.489l.913128-1.9757c.37096-.8304 1.11287-1.4604 1.99746-1.6895l13.29739-3.1784 9.5308-8.3612c1.7692-1.5463 4.0234-2.4053 6.3633-2.4053h8.5035z" fill="#ffc347"/><path d="m37.5521 14.6896v7.2445c0 .4295-.3424.7731-.7704.7731h-15.5232c-.5421 0-.799-.6586-.3995-1.0309l8.4179-7.5881c.1142-.0859.2568-.1431.3995-.1431h7.1053c.428 0 .7704.3436.7704.7445z" fill="#fff"/><path d="m11.6138 40.7754c2.7264 0 4.9366-2.2179 4.9366-4.9537 0-2.7359-2.2102-4.9538-4.9366-4.9538-2.72637 0-4.93655 2.2179-4.93655 4.9538 0 2.7358 2.21018 4.9537 4.93655 4.9537z" fill="#34233c"/><path d="m11.6137 37.5683c.9613 0 1.7406-.782 1.7406-1.7467 0-.9646-.7793-1.7466-1.7406-1.7466s-1.74065.782-1.74065 1.7466c0 .9647.77935 1.7467 1.74065 1.7467z" fill="#fff"/><path d="m20.688 35.8787h48.3386v-7.044h-41.319c-3.8807-.0287-7.0196 3.1497-7.0196 7.044z" fill="#f39719"/><path d="m55.9288 40.7754c2.7264 0 4.9366-2.2179 4.9366-4.9537 0-2.7359-2.2102-4.9538-4.9366-4.9538s-4.9366 2.2179-4.9366 4.9538c0 2.7358 2.2102 4.9537 4.9366 4.9537z" fill="#34233c"/><path d="m55.9291 37.5683c.9614 0 1.7407-.782 1.7407-1.7467 0-.9646-.7793-1.7466-1.7407-1.7466-.9613 0-1.7406.782-1.7406 1.7466 0 .9647.7793 1.7467 1.7406 1.7467z" fill="#fff"/></g></svg>