<svg fill="none" height="63" viewBox="0 0 74 63" width="74" xmlns="http://www.w3.org/2000/svg" xmlns:xlink="http://www.w3.org/1999/xlink"><clipPath id="a"><path d="m0 0h74v63h-74z"/></clipPath><g clip-path="url(#a)"><path d="m67.0665 58.3314h-60.13291v-39.3782c0-.5328.42862-.9388.93288-.9388h58.24193c.5295 0 .9329.4313.9329.9388v39.3782z" fill="#0070fe"/><path d="m63.1333 56.7331h-52.2916c-.1261 0-.227-.1015-.227-.2284v-35.2678c0-.1269.1009-.2284.227-.2284h52.2916c.1261 0 .227.1015.227.2284v35.2678c.0252.1015-.1009.2284-.227.2284z" fill="#fff"/><path d="m69.3608 63.0001h-64.74683c-2.54651 0-4.61397-2.1059-4.61397-4.6686h74c0 2.5627-2.0675 4.6686-4.6392 4.6686z" fill="#0055bf"/><path d="m10.5645 56.7331v-35.7246l24.28 35.7246z" fill="#d2e9ff"/><path d="m38.2734 44.7318h32.4995v-30.2695l-13.0351-14.4623h-19.4644z" fill="#ffc347"/><path d="m70.7729 14.4623-13.0351-14.4623v14.4623z" fill="#f39719"/><path d="m50.4765 11.8235 20.2964 32.9082h-25.1121l-7.3874-11.1386z" fill="#f39719"/><path d="m49.6694 33.5933h-17.3213c-1.2354 0-2.2187-1.0149-2.2187-2.2328v-17.4563c0-1.2433 1.0085-2.2328 2.2187-2.2328h17.3213c1.2355 0 2.2188 1.0149 2.2188 2.2328v17.4309c0 1.2433-.9833 2.2582-2.2188 2.2582z" fill="#34233c"/><path d="m42.6352 25.474c0-.4314-.1261-.7866-.353-1.0403-.2521-.2537-.6555-.5075-1.2354-.7105-.5799-.2283-1.0842-.4313-1.5128-.6596-.4286-.2284-.7816-.4567-1.0842-.7612-.3025-.2791-.5294-.609-.7059-.9895-.1765-.3806-.2522-.8373-.2522-1.3702 0-.9134.2774-1.6492.8573-2.2327.5799-.5836 1.3363-.9135 2.2944-1.0149v-1.7254h1.2858v1.7507c.9581.1269 1.6893.5329 2.2188 1.1925.5294.6597.8068 1.5224.8068 2.5627h-2.3196c0-.6343-.1261-1.1164-.4034-1.4463-.2522-.3298-.6304-.482-1.059-.482s-.7816.1268-1.0085.3805c-.2521.2538-.353.5836-.353 1.0403 0 .406.1261.7358.353.9895.2269.2538.6808.5075 1.3111.7612s1.1598.5075 1.5632.7358c.4034.2284.7564.4821 1.0337.7866.2774.2791.5043.6089.6555.9895.1513.3806.227.7865.227 1.294 0 .9134-.2774 1.6492-.8573 2.2328-.5547.5582-1.3363.9134-2.3448 1.0149v1.5985h-1.2858v-1.5985c-1.0842-.1269-1.9414-.5075-2.5465-1.1672-.6052-.6596-.9077-1.5477-.9077-2.6387h2.3196c0 .6343.1513 1.1418.4538 1.4716.3026.3299.7312.5075 1.3111.5075.479 0 .832-.1269 1.1094-.3806.3025-.3299.4286-.6597.4286-1.091z" fill="#fff"/></g></svg>