<svg fill="none" height="55" viewBox="0 0 84 55" width="84" xmlns="http://www.w3.org/2000/svg" xmlns:xlink="http://www.w3.org/1999/xlink"><clipPath id="a"><path d="m0 0h84v55h-84z"/></clipPath><g clip-path="url(#a)"><path d="m26.1766 28.0698c-.1718-1.4819 0-23.25388 0-23.25388h-16.26729c-1.40334 0-2.69213.74093-3.40812 1.96632l-6.300713 11.05696c-.1431978.228-.200477.4845-.200477.741v16.2435c0 .8264.658711 1.4819 1.48926 1.4819h24.68734z" fill="#0067e8"/><path d="m13.1169 28.0698c-.1718-1.4819 0-23.25388 0-23.25388h-3.20759c-1.40334 0-2.69213.74093-3.40812 1.96632l-6.300713 11.05696c-.1431978.228-.200477.4845-.200477.741v16.2435c0 .8264.658711 1.4819 1.48926 1.4819h11.65634v-8.2358z" fill="#0055bf"/><path d="m18.5585 45.7099c4.3023 0 7.79-3.4704 7.79-7.7513 0-4.281-3.4877-7.7513-7.79-7.7513s-7.7899 3.4703-7.7899 7.7513c0 4.2809 3.4876 7.7513 7.7899 7.7513z" fill="#34233c"/><path d="m18.5585 40.6942c1.5184 0 2.7494-1.2249 2.7494-2.7358s-1.231-2.7357-2.7494-2.7357c-1.5185 0-2.7494 1.2248-2.7494 2.7357s1.2309 2.7358 2.7494 2.7358z" fill="#fff"/><path d="m22.0526 10.0025v9.6321c0 .9119-.7446 1.6243-1.6324 1.6243h-12.17188-4.75418v-2.6217c0-.3135.08592-.5985.25776-.8549l5.41289-8.66326c.28639-.48446.83055-.76943 1.37471-.76943h9.8807c.8878.0285 1.6324.76943 1.6324 1.65289z" fill="#fff"/><path d="m30.1559 28.6135h41.327v-28.468885h-41.327z" fill="#0067e8"/><path d="m26.1928 33.4749h45.5943v-5.1296h-45.5943z" fill="#34233c"/><path d="m54.8163 45.7099c4.3023 0 7.79-3.4704 7.79-7.7513 0-4.281-3.4877-7.7513-7.79-7.7513-4.3022 0-7.7899 3.4703-7.7899 7.7513 0 4.2809 3.4877 7.7513 7.7899 7.7513z" fill="#34233c"/><path d="m54.8163 40.6942c1.5185 0 2.7494-1.2249 2.7494-2.7358s-1.2309-2.7357-2.7494-2.7357-2.7494 1.2248-2.7494 2.7357 1.2309 2.7358 2.7494 2.7358z" fill="#fff"/><path d="m30.1577 28.6114v-28.440416l32.4487-.170984-18.4726 18.8653v9.7461z" fill="#0055bf"/><path d="m45.7947 33.057c-.2578-1.3393-.086-17.0699-.0287-21.6865 0-.7124.5728-1.2824 1.2888-1.2824h30.2721c.716 0 1.2888.57 1.2888 1.2824v21.658l3.5799 4.6451v6.7824h-39.0931v-7.3523z" fill="#ff5753"/><path d="m75.0645 24.2512h-25.117c-.1432 0-.2864-.1139-.2864-.2849v-10.3161c0-.1425.1146-.285.2864-.285h25.117c.1432 0 .2864.114.2864.285v10.3161c0 .1425-.1146.2849-.2864.2849z" fill="#fff"/><path d="m45.7947 33.0569h32.8496l3.58 4.6451v6.7538h-39.1218v-7.3238z" fill="#ff5753"/><g fill="#34233c"><path d="m83.9998 43.8577h-42.9881v3.5906h42.9881z"/><path d="m52.1527 55.0001c-1.9761 0-3.5799-1.5958-3.5799-3.5621v-4.5311c0-1.6814 1.3747-3.0492 3.0644-3.0492h1.0597c1.6897 0 3.0644 1.3678 3.0644 3.0492v4.5311c0 1.9663-1.6038 3.5621-3.6086 3.5621z"/><path d="m72.8016 55.0001c-1.9761 0-3.5799-1.5958-3.5799-3.5621v-4.5311c0-1.6814 1.3747-3.0492 3.0644-3.0492h1.0597c1.6897 0 3.0644 1.3678 3.0644 3.0492v4.5311c-.0286 1.9663-1.6324 3.5621-3.6086 3.5621z"/></g><path d="m42.0145 17.9534h-2.0907v6.2979h2.0907z" fill="#ff5753"/><path d="m41.0117 24.2512v5.0726h4.6683" stroke="#34233c" stroke-miterlimit="10"/><path d="m69.1932 27.5h-14.3485v16.3575h14.3485z" fill="#34233c"/></g></svg>