<svg fill="none" height="65" viewBox="0 0 84 65" width="84" xmlns="http://www.w3.org/2000/svg" xmlns:xlink="http://www.w3.org/1999/xlink"><clipPath id="a"><path d="m0 0h84v65h-84z"/></clipPath><g clip-path="url(#a)"><path d="m32.9717 0h-32.51418v32.5458h32.51418z" fill="#f39719"/><path d="m32.9719 0h-16.2571v32.5458h16.2571z" fill="#ffc347"/><path d="m20.0085 21.4326-3.0806-1.4655-3.2941 1.4655v-21.4326h6.3747z" fill="#34233c"/><path d="m74.5141 32.4849h-32.5141v32.5458h32.5141z" fill="#f39719"/><path d="m74.5144 32.4849h-16.2571v32.5458h16.2571z" fill="#ffc347"/><path d="m61.551 53.8869-3.0806-1.4655-3.2941 1.4655v-21.402h6.3747z" fill="#34233c"/><g stroke="#34233c" stroke-linecap="round" stroke-linejoin="round" stroke-miterlimit="10" stroke-width="2"><path d="m66.0043 6.86938 8.5098 7.14422h-29.83"/><path d="m66.0044 20.8831 8.5098-6.8694"/><path d="m8.96732 60.5729-8.5098-7.1442h29.83008"/><path d="m8.96732 46.5593-8.5098 6.8695"/></g></g></svg>