<svg fill="none" height="54" viewBox="0 0 89 54" width="89" xmlns="http://www.w3.org/2000/svg" xmlns:xlink="http://www.w3.org/1999/xlink"><clipPath id="a"><path d="m0 0h89v54h-89z"/></clipPath><g clip-path="url(#a)"><path d="m35.5819 39.0322h53.4303v-39.0461313h-53.4303z" fill="#ffc347"/><path d="m-.00796127 53.9893h53.43036127v-39.0462h-53.43036127z" fill="#ff5753"/><path d="m-.0122004 53.9893h10.3101004v-39.0462h-10.3101003z" fill="#d64141"/><path d="m88.8183 47.7229v-13.1692h-15.2831z" fill="#ffc347"/><path d="m53.4302 14.9539 6.4286 24.0923h-6.4286z" fill="#f39719"/><path d="m64.0437 29.6c1.8589 0 3.3659-1.5291 3.3659-3.4153 0-1.8863-1.507-3.4154-3.3659-3.4154-1.859 0-3.366 1.5291-3.366 3.4154 0 1.8862 1.507 3.4153 3.366 3.4153z" fill="#fff"/><path d="m55.0679 26.4309 1.4555-1.6c.7884-.8923 1.2433-2.0308 1.2433-3.2308v-4.8c0-3.5384 2.8201-6.3692 6.277-6.3692 3.4872 0 6.277 2.8615 6.277 6.3692v4.8923c0 1.2616.4852 2.4616 1.3645 3.3539l1.2736 1.2923z" fill="#0070fe"/><path d="m64.0745 10.4001c-3.4873 0-6.2771 2.8616-6.2771 6.3693v4.8c0 1.2-.4548 2.3384-1.2432 3.2307l-1.4556 1.6001h8.9759z" fill="#0055bf"/><path d="m64.0439 8.61548h-1.1523v2.73842h1.1523z" fill="#34233c"/><g stroke="#fff" stroke-linecap="round" stroke-linejoin="round" stroke-miterlimit="10" stroke-width="2"><path d="m8.88477 25.4463h35.66063"/><path d="m8.88477 35.354h35.66063"/><path d="m8.88477 45.2615h35.66063"/></g></g></svg>