<svg fill="none" height="60" viewBox="0 0 70 60" width="70" xmlns="http://www.w3.org/2000/svg" xmlns:xlink="http://www.w3.org/1999/xlink"><clipPath id="a"><path d="m0 0h70v60h-70z"/></clipPath><g clip-path="url(#a)"><path d="m64.043 58.7244c-1.1965 1.4837-3.3816 1.718-4.8643.5206l-29.8105-24.0781c-1.4827-1.1974-1.7168-3.3839-.5202-4.8676 1.1965-1.4838 3.3816-1.718 4.8643-.5206l29.8105 24.078c1.4827 1.1974 1.7168 3.358.5202 4.8677z" fill="#34233c"/><path d="m25.8305 51.6963c14.2659 0 25.8306-11.5726 25.8306-25.8481 0-14.2756-11.5647-25.8482-25.8306-25.8482-14.2658 0-25.8305 11.5726-25.8305 25.8482 0 14.2755 11.5647 25.8481 25.8305 25.8481z" fill="#0072f5"/><path d="m25.8304 45.6832c10.9472 0 19.8216-8.8805 19.8216-19.8351 0-10.9547-8.8744-19.83516-19.8216-19.83516s-19.82161 8.88046-19.82161 19.83516c0 10.9546 8.87441 19.8351 19.82161 19.8351z" fill="#d2e9ff"/><path d="m29.2902 45.3709c-10.7952 1.9002-21.07022-5.2842-22.96914-16.0868s5.28054-21.08457 16.07584-22.98478" fill="#fff"/><path d="m6.00879 26.0044h10.22301l14.9572 7.8091" stroke="#34233c" stroke-linecap="round" stroke-miterlimit="10" stroke-width="2"/><path d="m46.4326 9.60523 7.6998-5.62256h15.3474" stroke="#34233c" stroke-linecap="round" stroke-miterlimit="10" stroke-width="2"/><path d="m35.1431 17.883 6.1389-4.4772" stroke="#34233c" stroke-linecap="round" stroke-miterlimit="10" stroke-width="4"/><g fill="#ff5753"><path d="m16.2319 29.8308c2.198 0 3.9799-1.7831 3.9799-3.9827 0-2.1995-1.7819-3.9826-3.9799-3.9826-2.1981 0-3.9799 1.7831-3.9799 3.9826 0 2.1996 1.7818 3.9827 3.9799 3.9827z"/><path d="m31.1889 37.7961c2.1981 0 3.98-1.7831 3.98-3.9826 0-2.1996-1.7819-3.9827-3.98-3.9827-2.198 0-3.9799 1.7831-3.9799 3.9827 0 2.1995 1.7819 3.9826 3.9799 3.9826z"/><path d="m35.143 21.8657c2.1981 0 3.98-1.7831 3.98-3.9827 0-2.1995-1.7819-3.9826-3.98-3.9826-2.198 0-3.9799 1.7831-3.9799 3.9826 0 2.1996 1.7819 3.9827 3.9799 3.9827z"/><path d="m54.1323 7.96529c2.198 0 3.9799-1.78309 3.9799-3.98264 0-2.19956-1.7819-3.98265-3.9799-3.98265-2.1981 0-3.98 1.78309-3.98 3.98265 0 2.19955 1.7819 3.98264 3.98 3.98264z"/></g></g></svg>