<svg fill="none" height="864" viewBox="0 0 644 864" width="644" xmlns="http://www.w3.org/2000/svg" xmlns:xlink="http://www.w3.org/1999/xlink"><filter id="a" color-interpolation-filters="sRGB" filterUnits="userSpaceOnUse" height="174" width="174" x="119" y="263"><feFlood flood-opacity="0" result="BackgroundImageFix"/><feColorMatrix in="SourceAlpha" type="matrix" values="0 0 0 0 0 0 0 0 0 0 0 0 0 0 0 0 0 0 127 0"/><feOffset dy="4"/><feGaussianBlur stdDeviation="6.5"/><feColorMatrix type="matrix" values="0 0 0 0 0 0 0 0 0 0 0 0 0 0 0 0 0 0 0.15 0"/><feBlend in2="BackgroundImageFix" mode="normal" result="effect1_dropShadow"/><feBlend in="SourceGraphic" in2="effect1_dropShadow" mode="normal" result="shape"/></filter><filter id="b" color-interpolation-filters="sRGB" filterUnits="userSpaceOnUse" height="142" width="189" x="334" y="42"><feFlood flood-opacity="0" result="BackgroundImageFix"/><feColorMatrix in="SourceAlpha" type="matrix" values="0 0 0 0 0 0 0 0 0 0 0 0 0 0 0 0 0 0 127 0"/><feOffset dy="4"/><feGaussianBlur stdDeviation="6.5"/><feColorMatrix type="matrix" values="0 0 0 0 0 0 0 0 0 0 0 0 0 0 0 0 0 0 0.15 0"/><feBlend in2="BackgroundImageFix" mode="normal" result="effect1_dropShadow"/><feBlend in="SourceGraphic" in2="effect1_dropShadow" mode="normal" result="shape"/></filter><filter id="c" color-interpolation-filters="sRGB" filterUnits="userSpaceOnUse" height="154" width="227" x="255" y="574"><feFlood flood-opacity="0" result="BackgroundImageFix"/><feColorMatrix in="SourceAlpha" type="matrix" values="0 0 0 0 0 0 0 0 0 0 0 0 0 0 0 0 0 0 127 0"/><feOffset dy="4"/><feGaussianBlur stdDeviation="6.5"/><feColorMatrix type="matrix" values="0 0 0 0 0 0 0 0 0 0 0 0 0 0 0 0 0 0 0.15 0"/><feBlend in2="BackgroundImageFix" mode="normal" result="effect1_dropShadow"/><feBlend in="SourceGraphic" in2="effect1_dropShadow" mode="normal" result="shape"/></filter><linearGradient id="d" gradientUnits="userSpaceOnUse" x1="407.105" x2="413.154" y1="-1.4671" y2="447.28"><stop offset="0" stop-color="#fff"/><stop offset="1" stop-color="#fff" stop-opacity="0"/></linearGradient><clipPath id="e"><path d="m0 0h644v864h-644z"/></clipPath><clipPath id="f"><path d="m369 74h118v81h-118z"/></clipPath><clipPath id="g"><path d="m288 612h88v90h-88z"/></clipPath><g clip-path="url(#e)"><rect fill="#dbecfe" height="1335.27" rx="249.311" transform="matrix(.56143651 -.82751982 .82751982 .56143651 -309.972064 70.355699)" width="498.621" x="-88.6094" y="327.619"/><path d="m102.613 634.85 226.237 145.537" opacity=".142346" stroke="#0179f5" stroke-linecap="round" stroke-width="121"/><path d="m592.403 525.192h-350.466c-9.426 0-17.126-7.636-17.126-17.12v-176.248c0-9.422 7.638-17.119 17.126-17.119h350.466c9.425 0 17.126 7.636 17.126 17.119v176.31c0 9.422-7.639 17.058-17.126 17.058z" fill="#0072f5"/><path d="m605.218 536.954h-380.098c-8.132 0-15.647-4.495-19.405-11.762h418.908c-3.758 7.205-11.273 11.762-19.405 11.762z" fill="#0072f5"/><path d="m350.053 314.705 176.865 210.487h-212.472l-89.573-105.121v-105.366" fill="#005fcc"/><path d="m493.714 371.606h-136.823v124.827h136.823z" fill="#f39719"/><path d="m488.107 371.606h-131.216v120.578h131.216z" fill="#ffc347"/><path d="m430.076 371.606h-21.253v124.211h21.253z" fill="#f39719"/><path d="m478.189 382.075h-34.19v24.079h34.19z" fill="#fff"/><path d="m462.666 531.042h-84.952c-3.265 0-5.853-2.648-5.853-5.85h96.657c0 3.264-2.587 5.85-5.852 5.85z" fill="#fff"/><path d="m624.623 522.852h-418.908v2.34h418.908z" fill="#005fcc"/><path d="m564 0h-310v496h310z" fill="url(#d)"/><path d="m664 537h-440l440 299.5v-135.5z" fill="#bcdeff"/><path d="m224 539.762 208 141.269 490.222 10.777-298.719-163.808z" fill="#bcdeff"/><g filter="url(#a)"><rect fill="#fff" height="148" rx="9" width="148" x="132" y="272"/></g><g filter="url(#b)"><rect fill="#fff" height="116" rx="9" width="163" x="347" y="51"/></g><g clip-path="url(#f)"><path d="m475.928 138.032h-95.856v-62.6116c0-.8062.651-1.4204 1.417-1.4204h93.021c.805 0 1.418.6526 1.418 1.4204z" fill="#0070fe"/><path d="m469.722 135.499h-83.443c-.192 0-.345-.154-.345-.346v-56.0472c0-.192.153-.3455.345-.3455h83.443c.191 0 .345.1535.345.3455v56.0092c0 .23-.154.384-.345.384z" fill="#fff"/><path d="m479.644 145.441h-103.25c-4.099 0-7.394-3.301-7.394-7.409h118c0 4.108-3.295 7.409-7.356 7.409z" fill="#0055bf"/><path d="m426.391 129.203c10.262 0 18.581-8.336 18.581-18.619 0-10.282-8.319-18.6182-18.581-18.6182s-18.581 8.3362-18.581 18.6182c0 10.283 8.319 18.619 18.581 18.619z" fill="#0067e8"/><path d="m426.391 122.408c6.517 0 11.8-5.294 11.8-11.824s-5.283-11.8234-11.8-11.8234-11.8 5.2934-11.8 11.8234 5.283 11.824 11.8 11.824z" fill="#bcdeff"/><path d="m427.846 87.6663c12.605 0 21.417 10.2497 21.417 22.9177h-21.417z" fill="#ffc347"/><path d="m443.286 94.3843c3.754 4.1459 5.977 9.8657 5.977 16.1997h-21.417" fill="#f39719"/><path d="m476.081 152.697-.881 1.075c-1.15 1.42-3.218 1.65-4.636.499l-35.515-28.715c-1.417-1.152-1.647-3.225-.498-4.645l.881-1.075c1.15-1.42 3.218-1.651 4.636-.499l35.515 28.715c1.417 1.113 1.647 3.224.498 4.645z" fill="#34233c"/><path d="m431.524 145.057c16.462 0 29.807-13.371 29.807-29.866 0-16.4947-13.345-29.8663-29.807-29.8663-16.461 0-29.806 13.3716-29.806 29.8663 0 16.495 13.345 29.866 29.806 29.866z" fill="#fac348"/><path d="m431.524 145.096c-16.474 0-29.806-13.398-29.806-29.867 0-16.4683 13.371-29.866 29.806-29.866" fill="#f39719"/><path d="m431.524 138.147c12.653 0 22.911-10.278 22.911-22.956s-10.258-22.9564-22.911-22.9564-22.91 10.2784-22.91 22.9564 10.257 22.956 22.91 22.956z" fill="#fff"/><path d="m385.934 111.122 26.665-32.3617h-26.703z" fill="#d2e9ff"/><path d="m385.934 119.375 32.948-40.6147h3.372l-36.32 45.4137z" fill="#d2e9ff"/><g stroke="#34233c" stroke-linecap="round" stroke-linejoin="round" stroke-miterlimit="10" stroke-width="3"><path d="m439.876 106.822-16.742 16.776"/><path d="m439.876 123.598-16.742-16.776"/></g></g><g filter="url(#c)"><rect fill="#fff" height="128" rx="9" width="201" x="268" y="583"/></g><path d="m390 651.5c0 10.77 8.73 19.5 19.5 19.5s19.5-8.73 19.5-19.5-8.73-19.5-19.5-19.5c-10.764.012-19.488 8.735-19.5 19.5z" fill="#2a73ed"/><path d="m417 651.671-7-6.671m0 0-6 6.671m6-6.671v15" stroke="#fff" stroke-linecap="round" stroke-width="2"/><g clip-path="url(#g)"><path d="m312 683.137h46.576v-44.089l-18.667-21.048h-27.909z" fill="#34233c"/><path d="m319.061 676.743h46.575v-44.089l-18.666-21.048h-27.909z" fill="#ffc347"/><path d="m365.637 632.654-18.666-21.048v21.048z" fill="#f39719"/><path d="m319.061 612.5 46.576 64.243h-35.997l-10.579-16.248z" fill="#f39719"/><path d="m337 653.086 1.649-2.597c1.218.889 2.15 1.245 3.082 1.245 1.111 0 1.577-.391 1.577-1.245 0-1.779-5.77-2.028-5.77-5.907 0-2.704 1.863-4.412 4.874-4.412 1.972 0 3.369.783 4.445 1.957l-1.9 2.171c-.824-.712-1.505-1.068-2.33-1.068-.968 0-1.433.285-1.433 1.174 0 1.708 5.77 1.78 5.77 5.836 0 2.633-1.72 4.59-5.233 4.59-1.326 0-3.369-.534-4.731-1.744zm3.978-15.086h2.509v3.345h-2.509zm0 15.228h2.509v3.772h-2.509z" fill="#34233c"/></g><circle cx="206.5" cy="348.5" fill="#ff5753" r="45.5"/><path d="m164.001 334.5c-8.5 13 0 59 42.499 59-20.5-8.5-42.499-28.2-42.499-59z" fill="#de2f2b"/><path d="m209.684 354.276h-6.263l-1.316-24.276h8.895zm-7.684 8.5c0-1.561.439-2.647 1.316-3.257.877-.645 1.947-.967 3.21-.967 1.228 0 2.281.322 3.158.967.877.61 1.316 1.696 1.316 3.257 0 1.493-.439 2.578-1.316 3.257-.877.645-1.93.967-3.158.967-1.263 0-2.333-.322-3.21-.967-.877-.679-1.316-1.764-1.316-3.257z" fill="#fff"/></g></svg>