<svg version="1.1" id="Layer_1" xmlns="http://www.w3.org/2000/svg" xmlns:xlink="http://www.w3.org/1999/xlink" x="0" y="0" viewBox="0 0 768 622" style="enable-background:new 0 0 768 622" xml:space="preserve"><style>.st3{fill:#fff}.st4{fill:#bcdeff}.st5{fill:#d2e9ff}.st6,.st7{opacity:.5;fill:#fff;enable-background:new}.st7{opacity:.2}.st8{fill:#add3ff}.st9{opacity:.5}.st12{fill:#2c2334}.st13{fill:#0072f5}.st14{fill:#005fcc}.st15{fill:#ffc347}.st16{fill:#f39719}.st17{fill:#c2deff}.st18{fill:#e2a091}.st19{fill:#34233c}.st20{fill:#dd3c3c}.st21{fill:#d3897d}.st22{fill:#ff5753}</style><defs><path id="SVGID_1_" d="M0 0h768v622H0z"/></defs><clipPath id="SVGID_00000062178960948166080170000011479952046702581668_"><use xlink:href="#SVGID_1_" style="overflow:visible"/></clipPath><g style="clip-path:url(#SVGID_00000062178960948166080170000011479952046702581668_)"><path d="M912 514a298 298 0 0 1-421 34L191 292a298 298 0 0 1 387-453L878 94a298 298 0 0 1 34 420z" style="fill:#e7f3ff"/><path d="M276 193c-38 36-101 88-139 36C88 162 80 60 88-1h718v300h-63c-76 0-138-54-138-121v-10c0-67-56-121-132-121-16 0-54 9-90 45L276 193z" style="fill:#9bcbff"/><path class="st3" d="M825 53H586v488h239V53z"/><path class="st4" d="M817 121H596v267h221V121z"/><path class="st5" d="M817 371H596v21h221v-21z"/><path class="st3" d="M817 212H596v7h221v-7z"/><path class="st5" d="M817 191H596v21h221v-21z"/><path class="st6" d="M646 168h-34l-1 1v29l1 1h34v-31zM749 168h-84l-2 1v29l2 1h84l2-1v-29l-2-1z"/><path class="st3" d="M639 153h-21l-1 1v39l1 1h21l1-1v-39l-1-1z"/><path class="st4" d="M638 158h-19v30h19v-30zM632 189h-6l-1 1v1h7v-2z"/><path class="st3" d="M679 152h53l1 1v37h-56v-37l1-1h1z"/><path class="st4" d="M729 155h-47l-2 1v31l2 1h47l1-1v-31l-1-1z"/><path class="st7" d="m694 155 36 27v-10l-22-17h-14zM680 155l43 33h3l-43-33h-3z"/><path class="st3" d="M670 190h70l-1 3-3 1h-62l-3-1-1-3zM640 198h-23v9h23v-9zM745 198h-76v9h76v-9zM818 299H596v7h222v-7z"/><path class="st5" d="M818 278H596v21h222v-21z"/><path class="st6" d="M687 258h-80v28h79v-28z"/><path class="st5" d="M624 262c-3 0-5 0-6 2-2 1-4 2-5 5v6l3 6 5 3 7-1a11 11 0 0 0-4-21z"/><path class="st3" d="m624 264-5 2c-2 0-3 2-3 3l-1 5 2 5 5 2 5-1c1 0 3-1 3-3l2-5a8 8 0 0 0-8-8z"/><path class="st4" d="M624 269a4 4 0 0 0-4 2v2l1 2 2 1h2l2-1v-2l-1-3-2-1z"/><path class="st5" d="M670 284c6 0 11-5 11-11a11 11 0 1 0-11 11z"/><path class="st3" d="m670 264-4 2-4 3v5l2 5 5 2 4-1c2 0 3-1 4-3l2-4-1-4-2-3-3-1-3-1z"/><path class="st8" d="M670 269a4 4 0 0 0-3 2v2l1 2 1 1h3l1-1 1-2v-2l-1-1-1-1h-2z"/><path class="st3" d="m646 265-4 2c-1 0-2 1-2 3l-1 4a7 7 0 0 0 6 6l4-1 3-2 2-4-1-3a8 8 0 0 0-4-4l-3-1z"/><path class="st8" d="M646 269a4 4 0 0 0-3 2v2l1 2 1 1h3l1-1 1-2v-2l-1-1-1-1h-2z"/><path class="st6" d="M724 241h-21l-1 1v42l1 2h21l1-2v-42l-1-1z"/><path class="st5" d="M714 262a9 9 0 0 0-9 6v5l2 5a9 9 0 0 0 10 2 9 9 0 0 0 6-9l-1-3-2-3-3-2-3-1z"/><path class="st3" d="m714 264-4 1-3 4a7 7 0 0 0 2 7l3 2a7 7 0 0 0 8-3l1-4-2-5-5-2z"/><path class="st4" d="m714 268-2 1-1 1v3l2 1h2l1-1 1-2v-1a4 4 0 0 0-2-2h-1z"/><path class="st3" d="m714 247-4 1-2 3v3l2 3c0 1 1 2 3 2l3-1 3-2 1-3-2-4-4-2z"/><path class="st8" d="M714 250h-2l-1 1v4l2 1h2l1-2 1-1v-1a4 4 0 0 0-2-2h-1z"/><path class="st6" d="M752 241h-21l-1 1v42l1 2h21l2-2v-42l-2-1z"/><path class="st5" d="M742 262a9 9 0 0 0-9 6v5l2 5c1 2 3 2 5 2h5l4-4c2-2 2-3 2-5s-1-5-3-6c-1-2-4-3-6-3z"/><path class="st3" d="m742 264-4 1-3 4a7 7 0 0 0 2 7l3 2a7 7 0 0 0 8-3l1-4-2-5-5-2z"/><path class="st4" d="m742 268-2 1-1 1v2l1 1 1 1h2l1-1 1-2-1-2-2-1z"/><path class="st3" d="m742 247-3 1-3 3v3l2 3 3 2 3-1 3-2 1-3-2-4-4-2z"/><path class="st8" d="M742 250h-2l-1 1v2l1 2 1 1h2l1-2 1-1-1-2-2-1z"/><path class="st7" d="m596 213 221-92H596v92zM596 299l221-79H596v79z"/><g class="st9"><path class="st6" d="M739 359v18l-1 2h-33l-1-1v-21h2l1-1h6l2-2 3-2h8l2 2 2 2 1 1h7l1 2zm-17 16 4-1 3-4v-5l-2-4a8 8 0 0 0-9-1l-3 2-2 5 1 3 2 2 2 2 4 1zm15-15v-1h-1v-1l-1 1v2h2v-1z"/></g><path class="st3" d="m722 375-5-1-3-4v-5l2-4a8 8 0 0 1 12 1l1 5c0 2 0 4-2 5-1 2-3 3-5 3zm0-14-4 1-2 3v3l1 3 3 2h4l3-3 1-3-1-2-1-2-2-1-2-1zM737 360v1h-2c-1 0 0 0 0 0v-3h1l1 1v1z"/><path class="st5" d="m721 361 4 1 2 3v3l-1 3-4 2h-3l-3-3-1-3 2-4 4-2z"/><g class="st9"><path class="st6" d="M791 359v18l-1 2h-34v-1l-1-2v-17l1-1v-1h1l1-1h6l3-2 2-2h8l2 2 3 2 1 1h7l1 2zm-18 16 5-1 3-4v-5l-2-4a8 8 0 0 0-9-1l-3 2-2 5 1 3 2 2 2 2 3 1zm16-15-1-1h-1l-1 1h1l1 1 1-1c1-1 0 0 0 0z"/></g><path class="st7" d="m596 392 221-86H596v86z"/><defs><path id="SVGID_00000092420225629009403520000000447241546518882469_" d="M912 514a298 298 0 0 1-421 34L191 292a298 298 0 0 1 387-453L878 94a298 298 0 0 1 34 420z"/></defs><clipPath id="SVGID_00000053527162191258423890000001809500689308108945_"><use xlink:href="#SVGID_00000092420225629009403520000000447241546518882469_" style="overflow:visible"/></clipPath><path style="clip-path:url(#SVGID_00000053527162191258423890000001809500689308108945_);fill:#9bcbff" d="M126 486h680v188H126z"/><g><defs><path id="SVGID_00000015348538962826692270000004147254208087585430_" d="M6 117h723v369H6z"/></defs><clipPath id="SVGID_00000153693712070536252600000001766666228219209121_"><use xlink:href="#SVGID_00000015348538962826692270000004147254208087585430_" style="overflow:visible"/></clipPath><g style="clip-path:url(#SVGID_00000153693712070536252600000001766666228219209121_)"><path class="st12" d="M378 419h-35v49h35v-49zM162 419h-35v49h35v-49z"/><path class="st13" d="M375 117H130v260h245V117z"/><path class="st12" d="M124 232h-16v45h16v-45zM397 232h-16v45h16v-45z"/><path class="st14" d="M130 238h-6v9h6v-9zM381 238h-6v9h6v-9z"/><path class="st13" d="M370 377H135v58h235v-58z"/><path class="st14" d="M334 435H172v15h162v-15z"/><path class="st12" d="M343 435H135v27h208v-27z"/><path d="M369 441h-18c-2 0-3 1-3 3v38c0 2 1 4 3 4h18c2 0 4-2 4-4v-38c0-2-2-3-4-3zM336 441h-18c-2 0-3 1-3 3v38c0 2 1 4 3 4h18c2 0 4-2 4-4v-38c0-2-2-3-4-3zM188 441h-18c-2 0-4 1-4 3v38c0 2 2 4 4 4h18c2 0 3-2 3-4v-38c0-2-1-3-3-3zM156 441h-18c-2 0-4 1-4 3v38c0 2 2 4 4 4h18c2 0 3-2 3-4v-38c0-2-1-3-3-3z"/><path class="st15" d="M194 402h-64v12h64v-12z"/><path class="st16" d="M154 402h-24v12h24v-12z"/><path class="st15" d="M375 402h-64v12h64v-12z"/><path class="st14" d="M370 377H135v14h235v-14z"/><path class="st16" d="M375 402h-24v12h24v-12z"/><path class="st13" d="M242 238h-3v30h3v-30z"/><path class="st12" d="M361 131H144v232h217V131z"/><path class="st17" d="M393 377h106V131H393v246z"/><path class="st8" d="M474 377h25V131h-25v246z"/><path class="st17" d="M113 131H6v246h107V131z"/><path class="st8" d="M31 131H6v246h25V131z"/><path class="st12" d="M527 396H391v7h136v-7z"/><path class="st12" d="M527 390H391v7h136v-7z"/><path class="st18" d="m606 420-6-3-3 5 6 3 3-5z"/><path class="st13" d="M588 419v-1l1-1 7 2 2-1h1l-1 2 6 4-2 3-14-8z"/><path class="st19" d="m588 419 14 8-1 1-2-1-11-6-1-1v-1z"/><path class="st20" d="m605 421 15-29-10-5-15 29 10 5z"/><path class="st12" d="m590 376 10 6-16 35 14 13-26-1 7-29 11-24z"/><path class="st13" d="m678 411 2-45-6-54h8l10 56v46l-35 42-61-5a26 26 0 0 0-8-19h68l22-21z"/><path class="st12" d="m720 459-165-1v-27h165v28z"/><path class="st13" d="M683 309h-68l-2 2 2 2h68l2-2-2-2z"/><path class="st13" d="m615 310 2 3s-26 22-32 62l-11 57-4-1 12-57c6-41 32-63 33-64z"/><path d="M668 428H549v6h119v-6z"/><path class="st13" d="M622 401h27l3-13 27-1 5 6 3 12-29 27-44-1v-19c0-2 0-5 2-7 1-2 3-3 6-4z"/><path class="st14" d="M682 414h10v-21h24l4 16v22h-27s-20 5-20 31v7h-80v-18h52l37-37z"/><path d="M706 486c13 0 23-11 23-24 0-12-10-23-23-23s-23 11-23 23c0 13 10 24 23 24z"/><path class="st12" d="M706 447c3 0 6 1 8 3 3 1 5 4 6 6a15 15 0 0 1-3 17c-2 2-5 4-8 4l-9-1-7-5-2-9 1-5 3-5 5-4 6-1z"/><path class="st3" d="M706 474c6 0 11-5 11-12s-5-11-11-11-12 5-12 11 6 12 12 12z"/><path class="st14" d="M590 436c6 7 5 15 5 15v18h-4v-18s1-7-3-12c-3-3-6-5-11-5h-24v-4h24c6 1 10 3 13 6z"/><path class="st13" d="M553 320h-16v162h16V320z"/><path class="st13" d="M572 320h-35v8h35v-8z"/><path class="st12" d="M565 326h-27v6h27v-6z"/><path class="st13" d="M533 292h-8v108h8V292z"/><path class="st12" d="M542 396h-26v5h26v-5z"/><path class="st13" d="M543 292h-17v4h17v-4z"/><path d="M565 486a23 23 0 1 0 0-47 23 23 0 0 0 0 47z"/><path class="st3" d="M621 395h32v6h-32l-3-1-1-2 1-2 3-1z"/><path class="st3" d="M651 359h3l1 1v41h-6s-5-20-5-30c0-6 4-10 7-12z"/><path class="st12" d="m594 366 18 10v3l-1 1h-2l-17-10-1-1v-1l1-1 2-1z"/><path class="st12" d="m602 374-6 11-2-2 6-11 2 2zM565 478c8 0 15-7 15-16a15 15 0 1 0-15 16z"/><path class="st3" d="M565 474c6 0 11-5 11-12s-5-11-11-11c-7 0-12 5-12 11s5 12 12 12z"/><path class="st18" d="M601 375c5 0 3-3 3-3-1-1 1-1 1-1l5 1 1 3-5 3-6-2-1-1v-1l2 1z"/><path class="st13" d="m623 336 1-5c1-1 2-3 4-3l5-1 4 3a8 8 0 0 1 1 8c0 2-1 3-3 4l-4 2v-9l-8 1z"/><path class="st18" d="M635 336c0-3-3-6-6-6s-5 3-5 6v4c0 3 2 5 5 5s6-2 6-5v-4z"/><path class="st18" d="M635 339h-7v10h7v-10z"/><path class="st13" d="M644 384h-22v-18c0-10 1-12 6-15l6-2"/><path class="st13" d="m636 352-11 3v-8h11v5z"/><path class="st21" d="M624 335v2h8l2 4v6h1v-9h-1v-4l-10 1z"/><path class="st19" d="M636 334h-2v4h2v-4z"/><path class="st21" d="m635 340 1-2-1-1-1 1 1 2z"/><path class="st13" d="M629 328h2a5 5 0 0 1 5 6h-12v-2l2-2 1-1 2-1z"/><path class="st19" d="M627 351v-1 1z"/><path class="st21" d="M628 345h3l-3 1v-1z"/><path class="st18" d="m607 377 22 4 1-6-22-3-1 5z"/><path class="st18" d="m627 380 9-16-6-3-9 16 6 3zM598 419l-5-3-3 4 6 4 2-5z"/><path class="st13" d="M580 417h1v-1h1l7 2 2-1h1l-1 2 5 3-2 3-14-8z"/><path class="st19" d="m584 423 14 8v1h-2l-11-7-1-1v-1z"/><path class="st21" d="m593 417 5 4v-1l-5-3z"/><path class="st14" d="m631 461 5 2h-5v-2z"/><path class="st13" d="m626 368 8 5 8-14-9-4-7 13z"/><path class="st14" d="m636 365-9 15-1 2h6l4-17z"/><path class="st19" d="M644 382h-23v2h23v-2z"/><path class="st14" d="M625 336h11v-2h-15l2 2h2z"/><path class="st13" d="m644 382-1-24c1-2 0-3-1-5l-3-3-5-1 7 33h3z"/><path class="st21" d="m626 368 5 4 1-1-6-3z"/><path class="st19" d="m634 340-1-1h-1v-3h2v4z"/><path class="st19" d="M634 338h2v-1h-3l1 1z"/><path class="st22" d="M633 395h-29v-4c0-1 0-3 2-4l5-2h33l-1 4-3 3-3 3h-4z"/><path class="st22" d="m614 389-16 32-10-5 14-27a6 6 0 0 1 8-2l4 2z"/><path class="st16" d="M508 328h-52v62h52v-62z"/><path class="st15" d="M508 328h-50v60h50v-60z"/><path class="st16" d="M488 328h-8v62h8v-62z"/><path class="st3" d="M475 334h-13v11h13v-11z"/><path class="st16" d="M456 328h-53v62h53v-62z"/><path class="st15" d="M456 328h-50v60h50v-60z"/><path class="st16" d="M436 328h-8v62h8v-62z"/><path class="st3" d="M423 334h-13v11h13v-11z"/><path class="st16" d="M508 267h-52v61h52v-61z"/><path class="st15" d="M508 267h-50v59h50v-59z"/><path class="st16" d="M488 267h-8v61h8v-61z"/><path class="st3" d="M475 272h-13v12h13v-12z"/><path class="st16" d="M456 267h-53v61h53v-61z"/><path class="st15" d="M456 267h-50v59h50v-59z"/><path class="st16" d="M436 267h-8v61h8v-61z"/><path class="st3" d="M423 272h-13v12h13v-12z"/><path class="st7" d="M508 275H404v104h104V275z"/><path class="st7" d="m508 382-104-13v-89l104 14v88z"/><path class="st7" d="m508 369-104 12v-93l104-3v84z"/><path class="st7" d="m508 361-104 6v-83l104 5v72z"/><path class="st16" d="M342 294h-45v54h45v-54z"/><path class="st15" d="M342 294h-43v52h43v-52z"/><path class="st16" d="M325 294h-7v54h7v-54z"/><path class="st3" d="M313 299h-11v10h11v-10z"/><path class="st16" d="M297 294h-46v54h46v-54z"/><path class="st15" d="M297 294h-44v52h44v-52z"/><path class="st16" d="M279 294h-7v54h7v-54z"/><path class="st3" d="M268 299h-12v10h12v-10z"/><path class="st16" d="M342 240h-45v54h45v-54z"/><path class="st15" d="M342 240h-43v52h43v-52z"/><path class="st16" d="M325 240h-7v54h7v-54z"/><path class="st3" d="M313 245h-11v10h11v-10z"/><path class="st16" d="M297 240h-46v54h46v-54z"/><path class="st15" d="M297 240h-44v52h44v-52z"/><path class="st16" d="M279 240h-7v54h7v-54z"/><path class="st3" d="M268 245h-12v10h12v-10z"/><path class="st7" d="M343 247h-92v92h92v-92z"/><path class="st7" d="m343 341-92-11v-78l92 12v77z"/><path class="st7" d="m343 330-92 11v-83l92-2v74z"/><path class="st7" d="m343 323-92 5v-72l92 3v64z"/><path class="st22" d="m229 347-4 2-3 3-1 5c0 2 2 3 3 4l4 2h4l4-3a8 8 0 0 0 1-8l-2-2-3-2-3-1z"/><path d="m229 350-3 1-2 2v4c0 2 1 2 2 2l2 2h4l2-3 1-3v-2l-2-2-1-1h-3z" style="fill:#002a4f"/><path class="st22" d="M232 325h-2v21h2v-21z"/><path class="st22" d="M225 349h13v-6l-13 2v4z"/><path class="st20" d="m233 336-1 1h-5l-2-6h-5l-1 6v6h18l-1-7h-3z"/><path class="st22" d="M226 329h-6v2h6v-2z"/><path class="st22" d="m223 271-1 1v58h2v-59h-1z"/><path class="st20" d="M224 269h-2v16c0 1 0 0 0 0h1v1l1-1h1v-16h-1z"/><path class="st22" d="M229 322v1l9 4v23h13l-6-28h-16zM321 351l6 7h2l-2-8-6 1z"/><path class="st22" d="m327 356-2 1-2 1v3l1 2 2 1h2l2-2 1-2-1-3-3-1z"/><path d="m327 357-2 1-1 1v1l1 2h3l1-1 1-1-1-2-2-1z" style="opacity:.9;fill:#00172b;enable-background:new"/><path class="st22" d="M238 352h103l7-4H238v4zM233 324h-4v1h4v-1z"/><path class="st20" d="m229 323 9 4v25h9l-8-30h-10v1z"/><path class="st22" d="m171 350 12-44 14-31h-27l-11 73 12 2z"/><path class="st18" d="m158 355 8 1 1-7-8-1-1 7z"/><path class="st13" d="M179 362v-3h-1l-8-4-2-2v-1h-1v3l-9-2-1 5 22 4z"/><path class="st19" d="m178 364-19-3h-1l-1-2v-1l22 4v2h-1z"/><path class="st21" d="m167 349-9 2 1-3 8 1z"/><path class="st18" d="m207 355 8-4-3-6-8 3 3 7z"/><path class="st13" d="M228 349v-1l-1-1h-1l-10 1-2-1h-2l2 3-8 4 2 4 20-9z"/><path class="st19" d="m228 351-17 8-2 1v-1l-1-1 20-10 1 1v1l-1 1z"/><path class="st21" d="m211 345-6 6-1-3 7-3z"/><path class="st22" d="m215 343-23-68h-22l17 38 28 30z"/><path class="st22" d="m215 343-30-65-12 6 30 64 12-5z"/><path class="st20" d="M169 285s3 9 11 11l3 10-4 13-12-24 2-10z"/><path class="st18" d="M186 228h3c3 0 5-3 5-6v-7c0-3-2-6-5-6h-3c-3 0-5 3-5 6v7c0 3 2 6 5 6z"/><path class="st18" d="M181 232h8v-12h-8v12z"/><path class="st13" d="M170 280h27v-27c0-12-2-15-7-19l-8-2"/><path class="st13" d="m180 236 13 4v-10h-14v6z"/><path class="st21" d="M194 215v2h-10l-2 5v8h-1v-11h1v-5l12 1z"/><path class="st19" d="M180 219h2v-5h-2v5z"/><path class="st21" d="m181 221 1-2-1-1-1 1 1 2z"/><path class="st13" d="M194 214h-14v-2a5 5 0 0 1 5-5h4l4 2 1 3v2z"/><path class="st19" d="m192 221 1-1-1-1v2z"/><path class="st21" d="M189 228h-4l4 1v-1z"/><path class="st18" d="M212 262h-22v7h22v-7z"/><path class="st18" d="m197 266-11-19-6 4 10 19 7-4z"/><path class="st13" d="m184 239-11 5 8 17 11-6-8-16z"/><path class="st14" d="m180 251 10 19 6 10h-9l-7-29zM193 216h-13v-2h17l-1 2h-3z"/><path class="st13" d="m169 280 2-37 1-5 4-4 6-2-10 48h-3z"/><path class="st21" d="m191 256-6 5-1-2 7-3z"/><path class="st18" d="M212 262h11l2 2 2 6h-9l-1-1h-1l2 1h-6v-8z"/></g></g><g><defs><path id="SVGID_00000156558808269240023140000012176518712829503418_" d="M98 480h318v12H98z"/></defs><clipPath id="SVGID_00000001664756261682507420000016525304057800066981_"><use xlink:href="#SVGID_00000156558808269240023140000012176518712829503418_" style="overflow:visible"/></clipPath><g style="clip-path:url(#SVGID_00000001664756261682507420000016525304057800066981_)"><path d="M257 492c88 0 159-3 159-6s-71-6-159-6-159 2-159 6c0 3 71 6 159 6z" style="fill:#d1e4ff"/></g></g></g></svg>