<svg fill="none" height="787" viewBox="0 0 764 787" width="764" xmlns="http://www.w3.org/2000/svg" xmlns:xlink="http://www.w3.org/1999/xlink"><clipPath id="a"><path d="m0 0h764v787h-764z"/></clipPath><clipPath id="b"><path d="m29 78.5713h245.5v421.6h-245.5z"/></clipPath><clipPath id="c"><path d="m0 0h299v658h-299z" transform="matrix(-1 0 0 1 790 -44.4287)"/></clipPath><clipPath id="d"><path d="m129 294.571h541v236h-541z"/></clipPath><clipPath id="e"><path d="m0 0h84v208h-84z" transform="matrix(-1 0 0 1 394 362.571)"/></clipPath><g clip-path="url(#a)"><path d="m0 0h764v787h-764z" fill="#fff"/><path d="m449.642 714.441-382.7718-333.511" stroke="#e7f3ff" stroke-linecap="round" stroke-width="121"/><path d="m901.48 508.834c-106.719 125.342-294.842 140.439-420.184 33.72l-300.342-255.717c-125.3426-106.719-140.44-294.84233-33.721-420.185 106.719-125.342 294.842-140.439 420.185-33.72l300.341 255.7167c125.343 106.7193 140.441 294.8423 33.721 420.1853z" fill="#e7f3ff"/><path d="m266.001 187.572c-38 36-100.97 88-139 36-49-67-57.0155-168.8592-49.0003-229.99998l718.0003-.00024v300.00022h-63.555c-75.981 0-137.537-54.305-137.537-121.336v-10.08c0-67.0302-55.927-120.5845-131.908-120.5845-16.139 0-54 9.0003-90 45.0003z" fill="#9bcbff"/><path d="m392 459.571h372v140c-127.2 42.4-241-17.666-282-53z" fill="#bcdeff"/><g clip-path="url(#b)" fill="#2c2334"><path d="m202.6 212.871h-9.2v4.3h9.2z"/><path d="m200 171.571h8v329h-8z"/><path d="m197 154.571h13v23h-13z"/></g><path d="m272.725 234.171h-139.2c-1.3 0-2.6-.6-3.5-1.5l-11.9-13c-1.7-1.8-1.7-4.6 0-6.4l11.8-13.3c.9-1 2.2-1.6 3.5-1.6h139.2c2.6 0 4.8 2.1 4.8 4.8v26.2c.1 2.6-2.1 4.8-4.7 4.8z" fill="#0072f5"/><path d="m272.725 235.971h-139.2c-1.9 0-3.6-.8-4.9-2.1l-11.9-13c-2.3-2.5-2.3-6.4 0-8.9l11.9-13.2c1.3-1.4 3.1-2.2 4.9-2.2h139.2c3.7 0 6.6 3 6.6 6.6v26.2c0 3.6-2.9 6.6-6.6 6.6zm-139.2-35.7c-.8 0-1.6.3-2.1 1l-12 13.2c-1 1.1-1 2.8 0 3.9l11.9 13c.5.6 1.3.9 2.1.9h139.2c1.6 0 2.9-1.3 2.9-2.9v-26.2c0-1.6-1.3-2.9-2.9-2.9z" fill="#0072f5"/><g fill="#fff"><path d="m147.125 215.471-1.4 13.1h-5.3l-2.7-24.6h3.8l2.1 19.4 1.9-19.4h3.7l1.9 19.6 2-19.6h3.4l-2.7 24.6h-5.1z"/><path d="m170.425 228.571h-3.9l-.7-4.5h-4.8l-.7 4.5h-3.6l3.9-24.6h5.7zm-8.8-7.8h3.7l-1.9-12.5z"/><path d="m180.325 228.571c-.2-.6-.4-1-.4-3v-3.9c0-2.3-.8-3.1-2.5-3.1h-1.3v10h-3.9v-24.6h5.8c4 0 5.7 1.9 5.7 5.7v1.9c0 2.5-.8 4.2-2.5 5 1.9.8 2.6 2.7 2.6 5.2v3.8c0 1.2 0 2.1.4 3zm-4.2-21.1v7.6h1.5c1.4 0 2.3-.6 2.3-2.6v-2.4c0-1.8-.6-2.5-2-2.5h-1.8z"/><path d="m190.225 214.272h5.3v3.5h-5.3v7.2h6.7v3.5h-10.6v-24.6h10.6v3.5h-6.7z"/><path d="m203.225 228.571h-3.9v-24.6h3.9v10.6h4.4v-10.6h3.9v24.6h-3.9v-10.6h-4.4z"/><path d="m214.025 209.871c0-3.9 2.1-6.2 5.9-6.2s5.9 2.3 5.9 6.2v12.8c0 3.9-2.1 6.2-5.9 6.2s-5.9-2.3-5.9-6.2zm3.9 13c0 1.8.8 2.4 2 2.4s2-.7 2-2.4v-13.3c0-1.8-.8-2.4-2-2.4s-2 .7-2 2.4z"/><path d="m232.025 203.971v19c0 1.8.8 2.4 2 2.4s2-.6 2-2.4v-19h3.7v18.8c0 3.9-2 6.2-5.8 6.2s-5.8-2.3-5.8-6.2v-18.8z"/><path d="m247.525 203.671c3.8 0 5.7 2.3 5.7 6.2v.8h-3.7v-1c0-1.8-.7-2.4-1.9-2.4s-1.9.7-1.9 2.4c0 5.1 7.6 6 7.6 13.1 0 3.9-2 6.2-5.8 6.2s-5.8-2.3-5.8-6.2v-1.5h3.7v1.8c0 1.8.8 2.4 2 2.4s2-.6 2-2.4c0-5.1-7.6-6-7.6-13.1 0-4.1 1.9-6.3 5.7-6.3z"/><path d="m259.325 214.272h5.3v3.5h-5.3v7.2h6.7v3.5h-10.6v-24.6h10.6v3.5h-6.7z"/></g><g clip-path="url(#c)"><path d="m693.688-44.4287h96.312v502.5597h-96.312z" fill="#ffc347"/><path d="m569.024 191.389h8.765v266.741h-8.765z" fill="#2c2334"/><path d="m684.923 249.668h8.765v208.355h-8.765z" fill="#2c2334"/><path d="m671.179 266.644h22.509v-27.68h-11.579l-10.93 13.732z" fill="#fff"/><path d="m678.213 266.644h6.818v29.085h-6.818z" fill="#fff"/><g fill="#f39719"><path d="m693.688-4.53076v10.488h23.591c.974 0 1.84-.86498 1.84-1.8381v-6.8118c0-.97311-.866-1.8381-1.84-1.8381z"/><path d="m747.579-4.53076h-25.322c-.974 0-1.84.86499-1.84 1.8381v6.8118c0 .97312.866 1.8381 1.84 1.8381h25.322c.974 0 1.84-.86498 1.84-1.8381v-6.8118c0-1.08124-.757-1.8381-1.84-1.8381z"/><path d="m693.688-4.53076v10.488h23.591c.974 0 1.84-.86498 1.84-1.8381v-6.8118c0-.97311-.866-1.8381-1.84-1.8381z" opacity=".2"/><path d="m747.579-4.53076h-25.322c-.974 0-1.84.86499-1.84 1.8381v6.8118c0 .97312.866 1.8381 1.84 1.8381h25.322c.974 0 1.84-.86498 1.84-1.8381v-6.8118c0-1.08124-.757-1.8381-1.84-1.8381z" opacity=".2"/><path d="m753.748 53.856h-25.323c-.974 0-1.839.8649-1.839 1.8381v6.8118c0 .9731.865 1.8381 1.839 1.8381h25.323c.974 0 1.839-.865 1.839-1.8381v-6.8118c0-1.0813-.865-1.8381-1.839-1.8381z"/><path d="m784.048 53.856h-25.322c-.974 0-1.84.8649-1.84 1.8381v6.8118c0 .9731.866 1.8381 1.84 1.8381h25.322c.974 0 1.84-.865 1.84-1.8381v-6.8118c0-1.0813-.866-1.8381-1.84-1.8381z"/><path d="m738.706 41.854h-25.323c-.974 0-1.84.865-1.84 1.8381v6.8118c0 .9731.866 1.8381 1.84 1.8381h25.323c.974 0 1.839-.865 1.839-1.8381v-6.8118c0-.9731-.865-1.8381-1.839-1.8381z"/><path d="m769.006 41.854h-25.322c-.974 0-1.84.865-1.84 1.8381v6.8118c0 .9731.866 1.8381 1.84 1.8381h25.322c.974 0 1.84-.865 1.84-1.8381v-6.8118c0-.9731-.866-1.8381-1.84-1.8381z"/><path d="m753.748 53.856h-25.323c-.974 0-1.839.8649-1.839 1.8381v6.8118c0 .9731.865 1.8381 1.839 1.8381h25.323c.974 0 1.839-.865 1.839-1.8381v-6.8118c0-1.0813-.865-1.8381-1.839-1.8381z" opacity=".2"/><path d="m784.048 53.856h-25.322c-.974 0-1.84.8649-1.84 1.8381v6.8118c0 .9731.866 1.8381 1.84 1.8381h25.322c.974 0 1.84-.865 1.84-1.8381v-6.8118c0-1.0813-.866-1.8381-1.84-1.8381z" opacity=".2"/><path d="m738.706 41.854h-25.323c-.974 0-1.84.865-1.84 1.8381v6.8118c0 .9731.866 1.8381 1.84 1.8381h25.323c.974 0 1.839-.865 1.839-1.8381v-6.8118c0-.9731-.865-1.8381-1.839-1.8381z" opacity=".2"/><path d="m769.006 41.854h-25.322c-.974 0-1.84.865-1.84 1.8381v6.8118c0 .9731.866 1.8381 1.84 1.8381h25.322c.974 0 1.84-.865 1.84-1.8381v-6.8118c0-.9731-.866-1.8381-1.84-1.8381z" opacity=".2"/><path d="m765.002 396.932h-25.322c-.974 0-1.84-.865-1.84-1.838v-6.812c0-.973.866-1.838 1.84-1.838h25.322c.974 0 1.84.865 1.84 1.838v6.812c0 .973-.758 1.838-1.84 1.838z"/><path d="m738.273 410.556h25.322c.974 0 1.84.865 1.84 1.838v6.812c0 .973-.866 1.838-1.84 1.838h-25.322c-.974 0-1.84-.865-1.84-1.838v-6.812c0-1.081.866-1.838 1.84-1.838z"/><path d="m707.973 410.556h25.322c.974 0 1.84.865 1.84 1.838v6.812c0 .973-.866 1.838-1.84 1.838h-25.322c-.974 0-1.84-.865-1.84-1.838v-6.812c0-1.081.866-1.838 1.84-1.838z"/><path d="m751.475 407.205v-6.812c0-.973.866-1.838 1.84-1.838h25.322c.974 0 1.84.865 1.84 1.838v6.812c0 .973-.866 1.838-1.84 1.838h-25.322c-.974 0-1.84-.757-1.84-1.838z"/><path d="m750.177 400.393v6.812c0 .973-.866 1.838-1.84 1.838h-25.323c-.974 0-1.839-.865-1.839-1.838v-6.812c0-.973.865-1.838 1.839-1.838h25.323c.974 0 1.84.865 1.84 1.838z"/><path d="m721.608 330.977h25.322c.974 0 1.84.865 1.84 1.838v6.812c0 .973-.866 1.838-1.84 1.838h-25.322c-.974 0-1.84-.865-1.84-1.838v-6.812c0-.973.758-1.838 1.84-1.838z"/><path d="m751.908 330.977h25.323c.974 0 1.839.865 1.839 1.838v6.812c0 .973-.865 1.838-1.839 1.838h-25.323c-.974 0-1.84-.865-1.84-1.838v-6.812c0-.973.758-1.838 1.84-1.838z"/><path d="m706.566 319.083h25.322c.974 0 1.84.865 1.84 1.839v6.811c0 .974-.866 1.838-1.84 1.838h-25.322c-.974 0-1.84-.864-1.84-1.838v-6.811c0-1.082.758-1.839 1.84-1.839z"/><path d="m762.189 329.571h-25.323c-.974 0-1.84-.864-1.84-1.838v-6.811c0-.974.866-1.839 1.84-1.839h25.323c.973 0 1.839.865 1.839 1.839v6.811c0 .974-.866 1.838-1.839 1.838z"/><path d="m693.688 108.242v10.488h23.375c.974 0 1.839-.865 1.839-1.838v-6.812c0-.973-.865-1.838-1.839-1.838z"/><path d="m693.688 84.2388v10.488h21.968c.974 0 1.839-.865 1.839-1.8381v-6.8118c0-.9731-.865-1.8381-1.839-1.8381z"/><path d="m703.536 104.782v-6.8116c0-.9731.865-1.8381 1.839-1.8381h23.267c1.082 0 1.839.865 1.839 1.8381v6.7036c0 1.081-.865 1.838-1.839 1.838h-23.267c-.974.108-1.839-.757-1.839-1.73z"/><path d="m693.688 96.1323v10.4877h6.601c.974 0 1.84-.865 1.84-1.838v-6.8116c0-.9731-.866-1.8381-1.84-1.8381z"/><path d="m693.688 247.722v10.488h5.411c.974 0 1.839-.865 1.839-1.838v-6.812c0-.973-.865-1.838-1.839-1.838z"/><path d="m693.688 271.833v10.489h6.818c.974 0 1.839-.865 1.839-1.839v-6.811c0-.974-.757-1.839-1.839-1.839z"/><path d="m730.914 271.833h-25.322c-.974 0-1.84.865-1.84 1.839v6.811c0 .974.866 1.839 1.84 1.839h25.322c.974 0 1.84-.865 1.84-1.839v-6.811c0-1.082-.866-1.839-1.84-1.839z"/><path d="m693.688 259.832v10.488h22.184c.974 0 1.84-.865 1.84-1.839v-6.811c0-.973-.866-1.838-1.84-1.838z"/><path d="m738.273 234.423h25.322c.974 0 1.84.865 1.84 1.838v6.812c0 .973-.866 1.838-1.84 1.838h-25.322c-.974 0-1.84-.865-1.84-1.838v-6.812c0-1.081.866-1.838 1.84-1.838z" opacity=".3"/><path d="m753.315 222.421h25.322c.974 0 1.84.865 1.84 1.838v6.812c0 .973-.866 1.838-1.84 1.838h-25.322c-.974 0-1.84-.865-1.84-1.838v-6.812c0-.973.866-1.838 1.84-1.838z" opacity=".3"/></g><path d="m765.976 233.882c-13.31 0-24.132-10.812-24.132-24.112 0 13.3-10.713 24.112-24.024 24.112-13.31 0-24.024-10.812-24.024-24.112v-88.445h96.204v88.445c0 13.3-10.822 24.112-24.024 24.112z" fill="#2c2334"/><path d="m765.976 215.393c-13.31 0-24.024-10.813-24.024-24.004h48.048c0 13.191-10.822 24.004-24.024 24.004z" fill="#dd3c3c"/><path d="m772.469 102.944h17.531v88.445h-48.156z" fill="#ff5753"/><path d="m717.82 215.393c-13.31 0-24.024-10.813-24.024-24.004h48.048c0 13.191-10.713 24.004-24.024 24.004z" fill="#d1e4ff"/><path d="m772.469 102.944-30.625 88.445h-48.156l30.733-88.445z" fill="#fff"/><path d="m669.664 215.393c-13.31 0-24.024-10.813-24.024-24.004h48.048c0 13.191-10.713 24.004-24.024 24.004z" fill="#dd3c3c"/><path d="m724.421 102.944-30.733 88.445h-48.048l30.625-88.445z" fill="#ff5753"/><path d="m621.508 215.393c-13.31 0-24.024-10.813-24.024-24.004h48.156c0 13.191-10.821 24.004-24.132 24.004z" fill="#d1e4ff"/><path d="m676.265 102.944-30.625 88.445h-48.156l30.625-88.445z" fill="#fff"/><path d="m573.352 215.393c-13.31 0-24.024-10.813-24.024-24.004h48.156c0 13.191-10.821 24.004-24.132 24.004z" fill="#dd3c3c"/><path d="m628.109 102.944-30.625 88.445h-48.156l30.625-88.445z" fill="#ff5753"/><path d="m525.304 215.393c-13.31 0-24.024-10.813-24.024-24.004h48.156c-.108 13.191-10.821 24.004-24.132 24.004z" fill="#d1e4ff"/><path d="m579.953 102.944-30.625 88.445h-48.156l30.625-88.445z" fill="#fff"/></g><g clip-path="url(#d)"><path d="m129 493.655h491.258v-45.584h-490.508z" fill="#2c2334"/><path d="m596.011 306.821c-12.081-5.583-21.247-9.666-26.579-11.916-2.416-1.084-5.166.75-5.166 3.416v42.75l68.739 6c0-4-1.333-7.916-3.832-11.083-6.166-7.917-18.997-22.667-33.162-29.167z" fill="#0072f5"/><path d="m668.75 470.238v-51.334s-3.5-30.25-15.998-61.25c-3.499-8.583-19.747-11.916-19.747-11.916l-68.739-4.75v123.25h13.831c7.416 0 34.162 8.666 34.162 30.166v9.167h37.994 16.664c1.666 0 3.083-1.333 3.083-3.083v-19.834l-2.833-5.333z" fill="#0072f5"/><path d="m667.25 475.405c-22.163-.667-44.243-2.334-66.406-2.084 6.416 5.084 11.498 12.334 11.498 22.25v9.584h54.658c1.667 0 3.083-1.417 3.083-3.25v-20.834z" fill="#2c2334"/><path d="m641.755 367.238c-.917-4.917-5-8.5-9.916-8.917l-44.326-3.5c-6.333-.5-11.748 4.417-11.832 10.75l-1.083 82.25s23.497 11.417 29.496 16.75 8.748 10.667 8.748 10.667h38.244v-56.417c0-.667-.083-1.333-.166-2z" fill="#0072f5"/><path d="m638.422 371.488c-.917-5.25-5-9.25-9.915-9.667l-36.495-3.083c-2.916-.25-5.749.75-7.915 2.75-2.417 2.25-3.833 5.5-3.916 8.917l-.75 29.166c-.084 4.584 2.999 8.5 7.498 9.417l49.326 9.833c.5.084 1 .167 1.417.167 1.916 0 3.749-.75 5.166-2.083 1.749-1.667 2.583-4.167 2.166-6.584-2.333-13.333-6.582-38.833-6.582-38.833z" fill="#fff"/><path d="m651.253 475.321h15.997l1.5-5.083v-21.083h-17.497z" fill="#ffc347"/><path d="m576.015 478.821c-14.248 0-25.83 11.584-25.83 25.917s11.582 25.917 25.83 25.917c14.247 0 25.829-11.584 25.829-25.917s-11.498-25.917-25.829-25.917z" fill="#000"/><path d="m576.015 488.655c-8.832 0-15.998 7.166-15.998 16 0 8.833 7.166 16 15.998 16s15.997-7.167 15.997-16c.083-8.834-7.165-16-15.997-16z" fill="#2c2334"/><path d="m576.014 493.655c-6.082 0-10.998 4.916-10.998 11.083 0 6.083 4.916 11.083 10.998 11.083 6.083 0 10.999-4.916 10.999-11.083.083-6.083-4.916-11.083-10.999-11.083z" fill="#bcdeff"/><path d="m287.642 478.821c-14.247 0-25.829 11.584-25.829 25.917s11.582 25.917 25.829 25.917c14.248 0 25.83-11.584 25.83-25.917s-11.582-25.917-25.83-25.917z" fill="#000"/><path d="m287.642 488.655c-8.832 0-15.997 7.166-15.997 16 0 8.833 7.165 16 15.997 16s15.998-7.167 15.998-16c0-8.834-7.166-16-15.998-16z" fill="#2c2334"/><path d="m287.642 493.655c-6.082 0-10.998 4.916-10.998 11.083 0 6.083 4.916 11.083 10.998 11.083s10.998-4.916 10.998-11.083c.084-6.083-4.916-11.083-10.998-11.083z" fill="#e7f3ff"/><path d="m230.818 478.821c-14.248 0-25.829 11.584-25.829 25.917s11.581 25.917 25.829 25.917 25.829-11.584 25.829-25.917c.084-14.333-11.498-25.917-25.829-25.917z" fill="#000"/><path d="m230.818 488.655c-8.832 0-15.998 7.166-15.998 16 0 8.833 7.166 16 15.998 16s15.997-7.167 15.997-16c.084-8.834-7.082-16-15.997-16z" fill="#2c2334"/><path d="m230.818 493.655c-6.083 0-10.999 4.916-10.999 11.083 0 6.083 4.916 11.083 10.999 11.083 6.082 0 10.998-4.916 10.998-11.083.083-6.083-4.833-11.083-10.998-11.083z" fill="#e7f3ff"/><path d="m604.51 464.321c-8.832-7.75-19.164-17.083-19.164-17.083h-20.997v20.083c0 1.083.917 2 2 2h20.247c18.164 1.25 21.663 19.5 21.663 19.5v10.333c0 3.334 2.667 6 6 6h5.915s.334-6 0-15.416c-.333-9.417-5.332-16.334-15.664-25.417z" fill="#2c2334"/><path d="m199.239 478.238h-64.823v24.25h64.823z" fill="#2c2334"/><path d="m546.519 478.905h-20.997v25.583h20.997z" fill="#2c2334"/><path d="m639.171 376.238-48.742 33.416 18.83 3.75 32.245-23.333z" fill="#d2e9ff"/><path d="m620.257 361.071-40.66 27.667v-21.917c0-4.916 4.166-8.75 8.999-8.333z" fill="#d2e9ff"/><path d="m281.726 397.155h-56.074v51.166h56.074z" fill="#f39719"/><path d="m225.627 397.155h-56.074v51.166h56.074z" fill="#f39719"/><path d="m186.919 397.155h-56.075v51.166h56.075z" fill="#f39719"/><path d="m279.393 397.155h-53.741v49.416h53.741z" fill="#ffc347"/><path d="m223.294 397.155h-53.741v49.416h53.741z" fill="#ffc347"/><path d="m184.586 397.155h-53.742v49.416h53.742z" fill="#ffc347"/><g fill="#f39719"><path d="m255.647 397.155h-8.749v50.916h8.749z"/><path d="m199.547 397.155h-8.748v50.916h8.748z"/><path d="m160.839 397.155h-8.749v50.916h8.749z"/><path d="m338.385 397.155h-56.075v51.166h56.075z"/></g><path d="m336.052 397.155h-53.742v49.416h53.742z" fill="#ffc347"/><path d="m312.305 397.155h-8.748v50.916h8.748z" fill="#f39719"/><path d="m395.042 397.155h-56.074v51.166h56.074z" fill="#f39719"/><path d="m392.709 397.155h-53.741v49.416h53.741z" fill="#ffc347"/><path d="m368.963 397.155h-8.749v50.916h8.749z" fill="#f39719"/><path d="m464.448 397.155h-56.074v51.166h56.074z" fill="#f39719"/><path d="m462.115 397.155h-53.741v49.416h53.741z" fill="#ffc347"/><path d="m438.369 397.155h-8.749v50.916h8.749z" fill="#f39719"/><path d="m458.033 401.488h-13.998v9.834h13.998z" fill="#fff"/><path d="m451.867 397.155h-56.075v51.166h56.075z" fill="#f39719"/><path d="m449.534 397.155h-53.742v49.416h53.742z" fill="#ffc347"/><path d="m425.788 397.155h-8.749v50.916h8.749z" fill="#f39719"/><path d="m508.525 397.155h-56.075v51.166h56.075z" fill="#f39719"/><path d="m506.192 397.155h-53.742v49.416h53.742z" fill="#ffc347"/><path d="m482.446 397.155h-8.749v50.916h8.749z" fill="#f39719"/><path d="m564.261 397.155h-56.074v51.166h56.074z" fill="#f39719"/><path d="m561.928 397.155h-53.741v49.416h53.741z" fill="#ffc347"/><path d="m539.104 397.155h-8.749v50.916h8.749z" fill="#f39719"/><path d="m302.557 345.488h-56.075v51.166h56.075z" fill="#f39719"/><path d="m300.224 345.488h-53.742v49.416h53.742z" fill="#ffc347"/><path d="m276.477 345.488h-8.748v50.916h8.748z" fill="#f39719"/><path d="m359.215 345.488h-56.075v51.166h56.075z" fill="#f39719"/><path d="m356.882 345.488h-53.742v49.416h53.742z" fill="#ffc347"/><path d="m333.135 345.488h-8.748v50.916h8.748z" fill="#f39719"/><path d="m415.873 345.488h-56.075v51.166h56.075z" fill="#f39719"/><path d="m413.54 345.488h-53.742v49.416h53.742z" fill="#ffc347"/><path d="m389.793 345.488h-8.748v50.916h8.748z" fill="#f39719"/><path d="m370.963 294.571h-56.075v51.167h56.075z" fill="#f39719"/><path d="m368.63 294.571h-53.742v49.417h53.742z" fill="#ffc347"/><path d="m344.883 294.571h-8.748v50.917h8.748z" fill="#f39719"/><path d="m427.621 294.571h-56.075v51.167h56.075z" fill="#f39719"/><path d="m425.288 294.571h-53.742v49.417h53.742z" fill="#ffc347"/><path d="m401.541 294.571h-8.748v50.917h8.748z" fill="#f39719"/><path d="m472.53 345.488h-56.074v51.166h56.074z" fill="#f39719"/><path d="m470.198 345.488h-53.742v49.416h53.742z" fill="#ffc347"/><path d="m446.451 345.488h-8.749v50.916h8.749z" fill="#f39719"/></g><g clip-path="url(#e)"><path d="m367.304 440.267 20.815 20.842-7.512 7.417-20.816-20.842z" fill="#d3897d"/><path d="m381.765 505.461-7.227-33.217h-31.635l21.111 35.99z" fill="#34233c"/><path d="m363.637 552.877v-47.21h18.005v47.21z" fill="#34233c"/><path d="m374.538 472.244h-11.665l11.665 34.541 1.141 46.201 5.959-.126.127-47.399z" fill="#000"/><path d="m362.049 392.826c4.247 0 7.671-3.404 7.671-7.627v-15.821h-15.279v15.821c-.063 4.223 3.36 7.627 7.608 7.627z" fill="#d3897d"/><path d="m368.198 376.186c-3.782 0-6.847-3.048-6.847-6.807 0-3.76 3.065-6.808 6.847-6.808 3.781 0 6.847 3.048 6.847 6.808 0 3.759-3.066 6.807-6.847 6.807z" fill="#34233c"/><path d="m355.074 366.479c4.755-1.386 13.124-3.908 13.124-3.908l-6.15 9.707h-3.994l-1.838-1.072.126 10.779h-1.965-3.043l-2.155-5.106c-.761-1.828-.191-3.908 1.458-5.042l1.458-1.009c-.127-1.954 1.078-3.782 2.979-4.349z" fill="#34233c"/><path d="m353.426 385.578c-1.4 0-2.535-1.129-2.535-2.522 0-1.392 1.135-2.521 2.535-2.521 1.401 0 2.536 1.129 2.536 2.521 0 1.393-1.135 2.522-2.536 2.522z" fill="#d3897d"/><path d="m362.049 372.278h-3.994l-1.839-1.071.127 10.778 2.155-8.005h3.551s.887 1.45 4.818 2.206c0 0-4.184-.946-4.818-3.908z" fill="#c1736b"/><path d="m353.999 384.467 9.418 2.027-2.965 13.615-9.418-2.027z" fill="#d3897d"/><path d="m374.537 424.278h-10.207l10.207 34.54z" fill="#005fcc"/><path d="m363.887 552.986h11.792v9.833h-11.792z" fill="#d3897d"/><path d="m394 567.104v-1.197c0-1.135-.761-2.143-1.902-2.458l-12.616-3.467-1.838-2.71c-.444-.631-1.205-1.072-1.966-1.072h-.063v4.223h-11.728v6.618h30.113z" fill="#fac348"/><path d="m364.838 570.508h28.274c.508 0 .888-.378.888-.882v-2.459h-30.05v2.459c0 .441.381.882.888.882z" fill="#34233c"/><path d="m375.679 552.986-11.729 3.34v-3.34z" fill="#c1736b"/><path d="m363.95 560.549 12.363 6.429h-12.363z" fill="#f39719"/><path d="m313.584 547.396 11.525 2.48-2.092 9.611-11.526-2.481z" fill="#d3897d"/><path d="m339.986 567.483.254-1.135c.254-1.134-.317-2.269-1.331-2.836l-11.602-5.988-1.204-3.025c-.317-.757-.951-1.261-1.712-1.45h-.064l-.887 4.097-11.475-2.458-1.394 6.429z" fill="#fac348"/><path d="m310.76 564.646 27.641 5.925c.507.126.951-.189 1.078-.693l.507-2.395-29.416-6.303-.507 2.395c-.127.441.19.945.697 1.071z" fill="#34233c"/><path d="m325.088 549.834-12.426 1.639.888-4.097z" fill="#c1736b"/><path d="m388.104 461.088 3.106 3.088c.508.505.698 1.261.571 1.954l-1.395 7.123c-.127.819-.887 1.323-1.711 1.26-.825-.063-1.395-.756-1.395-1.575l1.014-5.799-9.699-1.387z" fill="#d3897d"/><path d="m385.061 477.602c.824.252 1.712-.253 1.966-1.135l2.409-8.761c.253-.82-.254-1.702-1.141-1.954-.825-.252-1.712.252-1.966 1.134l-2.409 8.762c-.19.819.317 1.701 1.141 1.954z" fill="#d3897d"/><path d="m382.715 475.27c.824.252 1.712-.253 1.966-1.135l2.345-8.698c.254-.82-.253-1.702-1.141-1.954-.824-.252-1.712.252-1.965 1.134l-2.409 8.762c-.19.756.317 1.638 1.204 1.891z" fill="#d3897d"/><path d="m380.497 471.803c.824.252 1.712-.252 1.965-1.135l1.585-5.736c.254-.819-.254-1.701-1.141-1.954-.824-.252-1.712.253-1.965 1.135l-1.585 5.736c-.254.819.253 1.702 1.141 1.954z" fill="#d3897d"/><path d="m361.795 392.826s-6.403-1.387-8.115-7.249l-2.092 9.707z" fill="#c1736b"/><path d="m371.938 444.889-5.515 9.391-2.029-1.954z" fill="#c1736b"/><path d="m326.102 553.679 17.181-30.507 23.33-60.824-27.451 9.896-8.875 40.465-19.336 37.062z" fill="#34233c"/><path d="m339.162 472.244h35.375v-51.622c0-11.282-7.734-21.115-18.765-23.825-8.432-2.08-16.61 4.286-16.61 12.921z" fill="#0072f5"/><path d="m339.162 472.244 15.722 20.8-11.601 30.129-7.671-34.541z" fill="#000"/><path d="m343.917 452.39 9.509 1.701 3.424-25.338-12.68-.567z" fill="#d3897d"/><path d="m343.79 402.722-.507 47.525 11.411 3.151 10.017-47.399z" fill="#0072f5"/><path d="m339.353 463.041 29.415 2.9c.698.063 1.205.693 1.142 1.387l-1.966 20.169c-.063.694-.697 1.198-1.394 1.135l-29.48-2.9c-.697-.063-1.204-.693-1.141-1.386l1.965-20.17c.127-.693.761-1.198 1.459-1.135z" fill="#ff5753"/><path d="m340.767 464.581 26.12 2.548-1.814 18.38-26.12-2.548z" fill="#fff"/><path d="m365.155 471.613 4.881.505c.508.063.825.441.761.945l-.697 7.375c-.064.504-.444.819-.951.756l-4.882-.504c-.507-.063-.824-.441-.76-.946l.697-7.374c.063-.504.444-.82.951-.757zm-.824 8.384 3.74.378c.127 0 .19-.063.19-.189l.698-7.375c0-.126-.064-.189-.191-.189l-3.74-.378c-.127 0-.19.063-.19.189l-.697 7.374c0 .063.063.19.19.19z" fill="#dd3c3c"/><path d="m361.835 470.217.757.074-1.337 13.549-.757-.074z" fill="#efefef"/><path d="m358.218 469.902.757.074-1.337 13.549-.757-.074z" fill="#efefef"/><path d="m356.886 469.779.757.074-1.337 13.549-.757-.074z" fill="#efefef"/><path d="m355.56 469.592.757.074-1.337 13.549-.757-.074z" fill="#efefef"/><path d="m354.165 469.462.757.074-1.337 13.549-.757-.074z" fill="#efefef"/><path d="m352.833 469.339.757.074-1.338 13.549-.757-.074z" fill="#efefef"/><g fill="#d3897d"><path d="m353.757 449.853 2.099 24.368-9.854.839-2.099-24.368z"/><path d="m354.441 473.946.697 7.942c.063.756.697 1.323 1.458 1.26s1.331-.693 1.268-1.45l-.697-7.941c-.064-.757-.698-1.324-1.458-1.261-.761.063-1.332.756-1.268 1.45z"/><path d="m352.158 474.954.888 10.653c.063.63.634 1.134 1.268 1.071s1.141-.63 1.077-1.261l-.887-10.652c-.064-.63-.634-1.134-1.268-1.071s-1.141.567-1.078 1.26z"/><path d="m348.292 474.072.887 10.652c.063.631.634 1.135 1.268 1.072s1.141-.631 1.078-1.261l-.888-10.652c-.063-.63-.634-1.135-1.268-1.072-.697.064-1.141.631-1.077 1.261z"/><path d="m345.756 472.307.824 9.833c.063.63.634 1.134 1.268 1.071s1.141-.63 1.077-1.26l-.824-9.833c-.063-.63-.634-1.135-1.268-1.072s-1.077.568-1.077 1.261z"/><path d="m350.067 475.08 1.014 11.724c.063.63.634 1.135 1.268 1.072s1.141-.631 1.078-1.261l-1.015-11.724c-.063-.63-.634-1.134-1.268-1.071-.697.063-1.141.63-1.077 1.26z"/></g><path d="m354.441 474.135.634 7.563s.063 1.45 1.458 1.387z" fill="#c1736b"/><path d="m361.351 420.433-6.467 21.178-1.014 9.833 1.141 13.11 6.34.631z" fill="#005fcc"/><path d="m374.537 424.278s1.522-16.64-11.094-24.141l-2.916-1.638s14.01 8.635 14.01 25.779z" fill="#005fcc"/><path d="m343.917 450.184-4.565 12.858 5.706.567z" fill="#005fcc"/><path d="m353.743 449.868-9.636 2.9-.19-2.585z" fill="#c1736b"/></g></g></svg>