<svg enable-background="new 0 0 710 626.8" viewBox="0 0 710 626.8" xmlns="http://www.w3.org/2000/svg" xmlns:xlink="http://www.w3.org/1999/xlink"><clipPath id="a"><path d="m0 0h710v626.8h-710z"/></clipPath><clipPath id="b"><path d="m855.6 515.2c-106.7 125.4-294.9 140.5-420.2 33.8l-300.3-255.8c-125.5-106.7-140.5-294.8-33.8-420.1s294.8-140.4 420.2-33.7l300.3 255.7c125.4 106.7 140.5 294.8 33.8 420.1z"/></clipPath><g clip-path="url(#a)"><path d="m855.6 515.2c-106.7 125.4-294.9 140.5-420.2 33.8l-300.3-255.8c-125.5-106.7-140.5-294.8-33.8-420.1s294.8-140.4 420.2-33.7l300.3 255.7c125.4 106.7 140.5 294.8 33.8 420.1z" fill="#e7f3ff"/><g clip-path="url(#b)"><path d="m839.6 350.4h-809v167h809z" fill="#bcdeff"/></g><path d="m340.1 466h378v140c-127.2 42.4-241-17.7-282-53z" fill="#bcdeff"/><path d="m220.1 194c-38 36-101 88-139 36-49-67-57-168.9-49-230h718v300h-63.6c-76 0-137.5-54.3-137.5-121.3v-10.1c0-67-55.9-120.6-131.9-120.6-16.1 0-54 9-90 45z" fill="#9bcbff"/><path d="m9.2 326.4h324.5v-30.1h-324z" fill="#101f2d"/><path d="m317.6 203c-8-3.7-14-6.4-17.5-7.9-.4-.2-.8-.2-1.2-.2s-.8.2-1.1.4-.6.5-.8.9-.3.8-.3 1.2v28.3l45.4 3.9c0-2.7-.9-5.2-2.5-7.3-4.1-5.3-12.6-15-22-19.3z" fill="#fff"/><path d="m365.7 310.9v-33.9c-1.9-13.9-5.5-27.4-10.6-40.5-2.3-5.7-13.1-7.9-13.1-7.9l-45.4-3.1v81.5h9.1c4.9 0 22.6 5.7 22.6 19.9v6h36.1c.5 0 1-.2 1.4-.6s.6-.9.6-1.4v-13.1l-1.9-3.5z" fill="#fff"/><path d="m364.7 314.3c-14.6-.4-29.2-1.5-43.9-1.4 4.2 3.4 7.6 8.2 7.6 14.7v6.3h36.1c.3 0 .5-.1.8-.2s.5-.3.7-.5.3-.4.4-.7.1-.5.1-.8v-13.7z" fill="#101f2d"/><path d="m347.9 242.9c-.3-1.6-1.1-3-2.3-4.1s-2.7-1.7-4.3-1.8l-29.3-2.3c-1-.1-2 .1-2.9.4s-1.8.8-2.5 1.5-1.3 1.5-1.7 2.4-.6 1.9-.6 2.9l-.7 54.3s15.5 7.6 19.5 11.1c2.3 2 4.3 4.4 5.8 7.1h25.3v-37.4c0-.4 0-.9-.1-1.3z" fill="#fff"/><path d="m345.6 245.7c-.2-1.6-1-3.2-2.2-4.3-1.2-1.2-2.7-1.9-4.4-2.1l-24.1-2.1c-1-.1-1.9 0-2.8.3s-1.7.8-2.4 1.5c-.8.8-1.5 1.7-1.9 2.7s-.7 2.1-.7 3.2l-.5 19.3c0 1.5.4 2.9 1.3 4s2.2 1.9 3.6 2.2l32.6 6.5c.3.1.6.1.9.1.7 0 1.4-.2 2.1-.5.6-.3 1.2-.7 1.7-1.3.5-.5.8-1.2 1-1.9s.2-1.4.1-2.1c-1.4-8.7-4.3-25.5-4.3-25.5z" fill="#bce8ff"/><path d="m354.1 314.2h10.6l1-3.3v-14h-11.6z" fill="#ffd600"/><path d="m304.5 316.6c-3.4 0-6.7 1-9.5 2.9s-5 4.5-6.3 7.7c-1.3 3.1-1.6 6.5-1 9.9.7 3.3 2.3 6.3 4.7 8.7s5.4 4 8.7 4.7 6.7.3 9.9-1c3.1-1.3 5.8-3.5 7.7-6.3s2.9-6.1 2.9-9.5c0-4.5-1.8-8.9-5-12.1-3.3-3.2-7.6-5-12.1-5z"/><path d="m304.5 323.1c-2.1 0-4.1.6-5.9 1.8-1.7 1.2-3.1 2.8-3.9 4.8-.8 1.9-1 4.1-.6 6.1.4 2.1 1.4 3.9 2.9 5.4s3.4 2.5 5.4 2.9c2.1.4 4.2.2 6.1-.6s3.6-2.2 4.8-3.9 1.8-3.8 1.8-5.9c0-1.4-.3-2.8-.8-4.1s-1.3-2.5-2.3-3.4c-1-1-2.2-1.8-3.4-2.3-1.4-.6-2.7-.8-4.1-.8z" fill="#101f2d"/><path d="m304.5 326.4c-1.4 0-2.9.4-4.1 1.2s-2.1 1.9-2.7 3.3c-.6 1.3-.7 2.8-.4 4.2s1 2.7 2 3.7 2.3 1.7 3.7 2 2.9.1 4.2-.4c1.3-.6 2.5-1.5 3.3-2.7s1.2-2.6 1.2-4.1c0-1.9-.8-3.8-2.1-5.2-1.4-1.3-3.2-2-5.1-2z" fill="#fff"/><path d="m114 316.6c-3.4 0-6.7 1-9.5 2.9s-5 4.5-6.3 7.7c-1.3 3.1-1.6 6.5-1 9.9.7 3.3 2.3 6.3 4.7 8.7s5.4 4 8.7 4.7 6.7.3 9.8-1 5.8-3.5 7.7-6.3 2.9-6.1 2.9-9.5c0-4.5-1.8-8.9-5-12.1s-7.5-5-12-5z"/><path d="m114 323.1c-2.1 0-4.1.6-5.9 1.8-1.7 1.2-3.1 2.8-3.9 4.8s-1 4.1-.6 6.1c.4 2.1 1.4 3.9 2.9 5.4s3.4 2.5 5.4 2.9c2.1.4 4.2.2 6.1-.6s3.6-2.2 4.8-3.9 1.8-3.8 1.8-5.9c0-1.4-.3-2.8-.8-4.1s-1.3-2.5-2.3-3.4c-1-1-2.1-1.8-3.4-2.3-1.4-.5-2.7-.8-4.1-.8z" fill="#101f2d"/><path d="m114 326.4c-1.4 0-2.9.4-4.1 1.2s-2.1 1.9-2.7 3.3c-.6 1.3-.7 2.8-.4 4.2s1 2.7 2 3.7 2.3 1.7 3.7 2 2.9.1 4.2-.4c1.3-.6 2.5-1.5 3.3-2.7s1.2-2.6 1.2-4.1c0-1.9-.8-3.8-2.1-5.2-1.3-1.3-3.2-2-5.1-2z" fill="#fff"/><path d="m76.5 316.6c-3.4 0-6.7 1-9.5 2.9s-5 4.5-6.3 7.7c-1.3 3.1-1.6 6.5-1 9.9.7 3.3 2.3 6.3 4.7 8.7s5.4 4 8.7 4.7 6.7.3 9.9-1c3.1-1.3 5.8-3.5 7.7-6.3s2.9-6.1 2.9-9.5c0-4.5-1.8-8.9-5-12.1-3.3-3.2-7.6-5-12.1-5z"/><path d="m76.5 323.1c-2.1 0-4.1.6-5.9 1.8-1.7 1.2-3.1 2.8-3.9 4.8s-1 4.1-.6 6.1c.4 2.1 1.4 3.9 2.9 5.4s3.4 2.5 5.4 2.9c2.1.4 4.2.2 6.1-.6s3.6-2.2 4.8-3.9 1.8-3.8 1.8-5.9c0-1.4-.3-2.8-.8-4.1s-1.3-2.5-2.3-3.4c-1-1-2.1-1.8-3.4-2.3-1.4-.5-2.7-.8-4.1-.8z" fill="#101f2d"/><path d="m76.5 326.4c-1.4 0-2.9.4-4.1 1.2s-2.1 1.9-2.7 3.3c-.6 1.3-.7 2.8-.4 4.2s1 2.7 2 3.7 2.3 1.7 3.7 2 2.9.1 4.2-.4c1.3-.6 2.5-1.5 3.3-2.7s1.2-2.6 1.2-4.1c0-1.9-.8-3.8-2.1-5.2-1.4-1.3-3.2-2-5.1-2z" fill="#fff"/><path d="m293.5 192.3h-293.5v120.3h293.5z" fill="#005dd2"/><path d="m288.1 196.7h-282.7v104.2h282.7z" fill="#006ffd"/><path d="m293.5 300h-293.5v12.5h293.5z" fill="#005dd2"/><path d="m323.2 307c-5.8-5.1-12.6-11.3-12.6-11.3h-13.9v13.3c0 .4.1.7.4.9.2.2.6.4.9.4h13.4c12 .8 14.3 12.9 14.3 12.9v6.8c0 1.1.4 2.1 1.2 2.8.7.7 1.8 1.2 2.8 1.2h3.9s.2-3.9 0-10.2c-.2-6.2-3.5-10.8-10.4-16.8z" fill="#101f2d"/><path d="m55.6 316.2h-42.8v16h42.8z" fill="#101f2d"/><path d="m284.9 316.6h-13.8v16.9h13.8z" fill="#101f2d"/><path d="m222.7 194.9h-7.2v113.6h7.2" fill="#005dd2"/><path d="m144.2 308.4h7.2v-113.5h-7.2" fill="#005dd2"/><path d="m73 308.4h7.2v-113.5h-7.2" fill="#005dd2"/><path d="m346.2 248.8-32.2 22.1 12.5 2.5 21.3-15.4z" fill="#9ed8f2"/><path d="m333.7 238.8-26.9 18.3v-14.5c0-.8.2-1.5.5-2.2s.8-1.3 1.3-1.8c.6-.5 1.2-.9 1.9-1.2.7-.2 1.5-.3 2.2-.3z" fill="#9ed8f2"/><path d="m660.7 392.7h-123.2c-2.9 0-5.8-1.2-7.9-3.2-2.1-2.1-3.3-4.9-3.3-7.8v-249.4c0-2.9 1.2-5.8 3.3-7.8 2.1-2.1 4.9-3.2 7.9-3.2h123.2c1.5 0 2.9.3 4.2.8 1.3.6 2.6 1.4 3.6 2.4s1.9 2.2 2.4 3.6c.6 1.3.9 2.8.9 4.2v249.3c0 1.5-.3 2.9-.9 4.2s-1.4 2.6-2.4 3.6-2.3 1.8-3.6 2.4-2.7.9-4.2.9z" fill="#fff" opacity=".64"/><path d="m599.1 221.8c-1.1 0-2.2-.2-3.2-.6s-1.9-1-2.7-1.8-1.4-1.7-1.8-2.7-.6-2.1-.6-3.2v-23.5c0-1.1.2-2.2.6-3.2s1-1.9 1.8-2.7 1.7-1.4 2.7-1.8 2.1-.6 3.2-.6 2.2.2 3.2.6 1.9 1 2.7 1.8 1.4 1.7 1.8 2.7.6 2.1.6 3.2v23.5c0 2.2-.9 4.3-2.4 5.8-1.6 1.7-3.7 2.5-5.9 2.5z" fill="#ff5753"/><path d="m617.2 241.3c-1.3-.9-2.4-2-3.2-3.3s-1.4-2.7-1.7-4.3c-.8-4.5-1.6-8.9-2.4-13.4h-21.5c-.8 4.5-1.6 8.9-2.4 13.4-.3 1.5-.8 3-1.7 4.3-.8 1.3-1.9 2.4-3.2 3.3-2.5 1.7-4.5 4-5.9 6.6s-2.1 5.6-2.1 8.6v3.5 64.4c0 1 .2 2 .6 2.9s1 1.8 1.7 2.5 1.6 1.3 2.5 1.7 1.9.6 2.9.6h36.8c2 0 4-.8 5.4-2.3 1.4-1.4 2.3-3.4 2.3-5.4v-67.9c0-3-.7-5.9-2.1-8.6-1.5-2.6-3.6-4.9-6-6.6z" fill="#0b1f2e"/><path d="m619.8 226.7h-41.3v-18.9h41.3z" fill="#006ffd"/><path d="m625.2 317.1h-52.2v-57h52.2z" fill="#ff5753"/><path d="m615.3 288.6c0 3.2-1 6.4-2.7 9-1.8 2.7-4.3 4.8-7.3 6s-6.2 1.6-9.4.9c-3.2-.6-6-2.2-8.3-4.4-2.3-2.3-3.8-5.2-4.4-8.3-.6-3.2-.3-6.4.9-9.4s3.3-5.5 6-7.3 5.8-2.7 9-2.7c4.3 0 8.4 1.7 11.5 4.8 3 3 4.7 7.1 4.7 11.4z" fill="#fff"/><path d="m626.6 131.7h-54.9c-.9 0-1.6.7-1.6 1.6s.7 1.6 1.6 1.6h54.9c.9 0 1.6-.7 1.6-1.6s-.7-1.6-1.6-1.6z" fill="#bcdeff"/><path d="m599.1 379.7c3.7 0 6.7-3 6.7-6.7s-3-6.7-6.7-6.7-6.7 3-6.7 6.7 3 6.7 6.7 6.7z" fill="#bcdeff"/><path d="m463.6 217.6h-7.7c-19.1 0-34.6 15.5-34.6 34.6v36c0 19.1 15.5 34.6 34.6 34.6h7.7c19.1 0 34.6-15.5 34.6-34.6v-36c0-19.1-15.5-34.6-34.6-34.6z" fill="#e19d8f"/><path d="m498.2 278.2h-45.2v71.5h45.2z" fill="#e19d8f"/><path d="m506.8 334.9h-79.5v34.1h79.5z" fill="#0172f3"/><path d="m421.3 248v15.1h57.5l12.8 28.2-1.5 43.6h8.2v-64.8h-8.3v-29z" fill="#d1877d"/><path d="m506.3 241.1h-16.3v32.9h16.4v-32.9z" fill="#0b1f2e"/><path d="m498.2 282.2c4.5 0 8.2-3.7 8.2-8.2s-3.7-8.2-8.2-8.2-8.2 3.7-8.2 8.2 3.6 8.2 8.2 8.2z" fill="#d1877d"/><path d="m458.9 203.5h9.8c4.9 0 9.8 1 14.4 2.9s8.7 4.7 12.2 8.2 6.3 7.6 8.2 12.2 2.9 9.5 2.9 14.4h-85c0-10 4-19.5 11-26.6 6.9-7.1 16.5-11.1 26.5-11.1z" fill="#0172f3"/><path d="m421.3 241.1-7.1 9c-.6.7-.9 1.6-1 2.6-.1.9.1 1.9.5 2.7s1.1 1.6 1.9 2.1 1.7.8 2.7.8h53.7c5.3 0 10.4-2 14.3-5.7l11.9-11.4z" fill="#fff"/><path d="m432.6 282.2c.5 0 1-1.8 1-4.1s-.4-4.1-1-4.1c-.5 0-1 1.8-1 4.1s.4 4.1 1 4.1z" fill="#0b1f2e"/><path d="m447.5 282.2c.5 0 1-1.8 1-4.1s-.4-4.1-1-4.1-1 1.8-1 4.1.5 4.1 1 4.1z" fill="#0b1f2e"/><path d="m453 322.8h20.5l-20.5 7.9z" fill="#d1877d"/><path d="m427.3 354.2h46.1l33.4-19.2.3 19.2z" fill="#015fca"/><path d="m554.6 615.4h-158.3l-5.1-261 132.3-3c15.4 0 31.1 12.5 31.1 28z" fill="#0172f3"/><path d="m554.6 615.4-40.4-54.8h40.4z" fill="#015fca"/><path d="m618 690.3v-68.5c-65-4-120.8-26.5-144.7-39.5 0 0-25.9-11.5-82.5-62l-9.9 151z" fill="#fff"/><path d="m503.6 394.8 24.4-36.9c1.1-1.7 2.8-2.9 4.8-3.3s4 0 5.7 1.1l83.1 54.9-28.6 43.3z" fill="#0172f3"/><path d="m403.2 435.7-38.9-19.5-37.3 74.7 38.9 19.5z" fill="#e19d8f"/><path d="m628.7 468.1h-114.5v92.6h114.5z" fill="#ffc347"/><path d="m626.8 457.2h-119.1v10.9h119.2v-10.9z" fill="#ffc347"/><path d="m514.2 488.2v-20.2h105.6z" fill="#ec9019"/><path d="m400 356.8 34.2 17.1-43.6 87.2-46.4-23.2 37.5-74.9c1.6-3.2 4.5-5.7 7.9-6.9s7.2-.9 10.4.7z" fill="#0172f3"/><path d="m597.3 447.2 24.2-36.7 32.4 22.7c2.1 1.5 3.7 3.4 4.8 5.8 1 2.3 1.5 4.9 1.2 7.4l-13.1 121.4c-.2 2.2-1.3 4.3-3 5.8s-3.8 2.3-6.1 2.3h-25.6c-2.7 0-5.3-1.1-7.3-3l-11.8-11.7 35.6-3.3-9.3-94.8z" fill="#e19d8f"/><path d="m597.3 447.2 24.2-36.7 12.7 9z" fill="#d1877d"/><path d="m385.3 471.6-33.6-30 38.9 19.5z" fill="#d1877d"/><path d="m393.5 455.3v-30.7l14.6 97.5-13.4-.8z" fill="#015fca"/><path d="m554.6 428.5-27.2-18v46h27.2z" fill="#015fca"/><path d="m279.1 452.1 65.3-3.3c.4 0 .7 0 1.1.2.3.1.6.3.9.6l60.2 65.5c1.5 1.6.6 2.2 1.1 7.1h-65.7c-.3 0-.7-.1-1-.2s-.6-.3-.8-.6l-62.7-65.2c-.3-.3-.5-.8-.6-1.2-.1-.5 0-.9.1-1.4.2-.4.5-.8.9-1.1.3-.2.7-.4 1.2-.4z" fill="#ffc347"/><path d="m340.1 522.2-5.5-31.4-20.8 4.1z" fill="#ec9019"/><g fill="#e19d8f"><path d="m323.5 469.6-31.3 6.9c-2.5.6-4.1 3.1-3.6 5.6.6 2.5 3.1 4.1 5.6 3.5l31.3-6.9c2.5-.6 4.1-3.1 3.6-5.6-.6-2.5-3.1-4.1-5.6-3.5z"/><path d="m331.1 486.6-34.1 7.6c-2.5.6-4.1 3.1-3.6 5.6.6 2.5 3.1 4.1 5.6 3.5l34.1-7.6c2.5-.6 4.1-3.1 3.6-5.6-.6-2.4-3.1-4-5.6-3.5z"/><path d="m324.5 497.5-21 4.7c-2.5.6-4.1 3.1-3.6 5.6.6 2.5 3.1 4.1 5.6 3.5l21-4.7c2.5-.6 4.1-3.1 3.6-5.6s-3.1-4-5.6-3.5z"/><path d="m329.6 477.7-35.1 7.8c-2.5.6-4.1 3.1-3.6 5.6.6 2.5 3.1 4.1 5.6 3.5l35.1-7.8c2.5-.6 4.1-3.1 3.6-5.6-.6-2.4-3.1-4-5.6-3.5z"/></g><path d="m329 473.2s.8 4.7-3.5 5.6l-31 6.8z" fill="#d1877d"/><path d="m296.5 494.7 35.1-7.8s3.8-.2 3.5-5.6z" fill="#d1877d"/><path d="m303.5 502.3 29.6-6.4s4-.6 3.6-5.6z" fill="#d1877d"/><path d="m311.8 510 14.7-3.3c1.2-.3 2.2-1.1 2.9-2.1s.9-2.3.7-3.5z" fill="#d1877d"/><path d="m279.5 448.8h66.6v6h-69.9v-2.7c0-.9.4-1.8 1-2.4.6-.5 1.4-.9 2.3-.9z" fill="#0b1f2e"/><path d="m408 522.2-61.9-67.3v-6l60.3 65.2c.7.8 1.1 1.7 1.2 2.8z" fill="#0b1f2e"/><path d="m588.1 510.2h-37.9c-2.7 0-4.9 2.2-4.9 4.9s2.2 4.9 4.9 4.9h37.9c2.7 0 5-2.2 5-4.9s-2.3-4.9-5-4.9z" fill="#ff5753"/><path d="m564.2 496.2v37.9c0 2.7 2.2 4.9 4.9 4.9s5-2.2 5-4.9v-37.9c0-2.7-2.2-4.9-5-4.9-2.6 0-4.9 2.2-4.9 4.9z" fill="#ff5753"/><path d="m421.3 288h57.3v34.7h-37.4c-5.3 0-10.3-2.1-14.1-5.8-3.7-3.7-5.8-8.8-5.8-14.1z" fill="#fff"/><path d="m478.6 288 11.9-16" fill="none" stroke="#fff" stroke-miterlimit="10"/><path d="m478.6 322.8 19.6-40.6" fill="none" stroke="#fff" stroke-miterlimit="10"/><path d="m425.1 292.8h50.4" fill="none" stroke="#bce8ff" stroke-miterlimit="10"/><path d="m447.5 318.4h26.6" fill="none" stroke="#bce8ff" stroke-miterlimit="10"/><path d="m163.9 248.3h-31.7c-2.3 0-4.1 1.8-4.1 4 0 2.2 1.9 4 4.1 4h31.7c2.3 0 4.1-1.8 4.1-4 0-2.2-1.9-4-4.1-4z" fill="#ffc347"/><path d="m144.1 248.3-6.1 8h8z" fill="#ec9019"/><path d="m144 236.4v31.7c0 2.3 1.8 4.1 4 4.1 2.2 0 4-1.9 4-4.1v-31.7c0-2.3-1.8-4.1-4-4.1-2.2 0-4 1.8-4 4.1z" fill="#ffc347"/></g><path d="m161.9 388c45.8 0 82.9-2 82.9-4.5s-37.1-4.5-82.9-4.5-82.9 2-82.9 4.5 37.1 4.5 82.9 4.5z" fill="#d1e4ff"/><path d="m197.2 383.9h21.2v-5.6h-21.2z" fill="#dd3c3c"/><path d="m141.1 383.9h21.2v-5.6h-21.2z" fill="#dd3c3c"/><path d="m94.6 383.9h21.2v-5.6h-21.2z" fill="#dd3c3c"/><g fill="#ff5753"><path d="m84 378.3h150v-6.6h-150z"/><path d="m223.4 373.4h10.6v-8.7h-10.6z"/><path d="m84 373.4h10.6v-8.7h-10.6z"/><path d="m204.6 383.9h21.2v-5.6h-21.2z"/><path d="m99.6 383.9h21.2v-5.6h-21.2z"/><path d="m148.4 383.9h21.2v-5.6h-21.2z"/></g><path d="m220.2 335.9h-41.2v36h41.1v-36z" fill="#f39719"/><path d="m179 335.9 41.1 36v-36z" fill="#ffc347"/><path d="m196.1 348.9h7.6v-13h-7.6z" fill="#fff"/><path d="m179 335.9h-41.1v36h41.1z" fill="#f39719"/><path d="m137.9 335.9 41.1 36v-36z" fill="#ffc347"/><path d="m155 348.9h7.6v-13h-7.6z" fill="#fff"/><path d="m137.9 335.9h-41.1v36h41.1z" fill="#f39719"/><path d="m96.8 335.9 41.1 36v-36z" fill="#ffc347"/><path d="m113.8 348.9h7.6v-13h-7.6z" fill="#fff"/><path d="m220.2 300h-41.2v36h41.1v-36z" fill="#f39719"/><path d="m179 300 41.1 36v-36z" fill="#ffc347"/><path d="m196.1 312.9h7.6v-13h-7.6z" fill="#fff"/><path d="m179 300h-41.1v36h41.1z" fill="#f39719"/><path d="m137.9 300 41.1 36v-36z" fill="#ffc347"/><path d="m155 312.9h7.6v-13h-7.6z" fill="#fff"/><path d="m137.9 300h-41.1v36h41.1z" fill="#f39719"/><path d="m96.8 300 41.1 36v-36z" fill="#ffc347"/><path d="m113.8 312.9h7.6v-13h-7.6z" fill="#fff"/></svg>