<svg fill="none" height="675" viewBox="0 0 780 675" width="780" xmlns="http://www.w3.org/2000/svg" xmlns:xlink="http://www.w3.org/1999/xlink"><clipPath id="a"><path d="m0 0h780v675h-780z"/></clipPath><clipPath id="b"><path d="m231.822 213h510v285h-510z"/></clipPath><clipPath id="c"><path d="m165.822 93h383v251h-383z"/></clipPath><g clip-path="url(#a)"><path d="m0 0h780v675h-780z" fill="#fff"/><path d="m458.464 720.87-382.7715-333.512" stroke="#e7f3ff" stroke-linecap="round" stroke-width="121"/><path d="m910.302 515.262c-106.719 125.342-294.842 140.439-420.184 33.72l-300.342-255.717c-125.3424-106.719-140.4398-294.84209-33.721-420.185 106.719-125.342 294.843-140.439 420.185-33.72l300.342 255.7169c125.338 106.7191 140.438 294.8421 33.72 420.1851z" fill="#e7f3ff"/><path d="m274.795 172.013c-38.002 31.92-133.59 35.987-177.0096-39.457-17.8735-31.056-19.0155-78.3443-10.9999-132.5557835l718.0365-.00021163v265.99999513h-63.558c-75.985 0-137.544-48.15-137.544-107.584v-8.938c0-59.4335-55.93-106.9182-131.914-106.9182-16.14 0-54.004 7.9802-90.005 39.9002z" fill="#bcdeff"/><path d="m449.822 513h330v93.36c-129.756 42.564-245.842-17.735-287.666-53.205z" fill="#9bcbff"/><path d="m741.707 232.436c0-10.943-8.964-19.882-19.941-19.882h-472.157c-10.919 0-19.884 8.939-19.884 19.882v269.929h511.982z" fill="#0072f5"/><path d="m727.822 247.455c0-10.158-8.404-18.455-18.695-18.455h-442.663c-10.236 0-18.642 8.297-18.642 18.455v250.545h480z" fill="#0072f5"/><path d="m363.066 251.149h169.563" opacity=".2" stroke="#34233c"/><path d="m457.221 251.649v78.866" opacity=".2" stroke="#34233c"/><path d="m0-.5h158.611" opacity=".2" stroke="#34233c" transform="matrix(-.67012 .742253 -.755763 -.654845 397.286 213.202)"/><ellipse cx="291.101" cy="327.065" fill="#9bcbff" opacity=".9" rx="17.7449" ry="18.2379"/><ellipse fill="#0072f5" rx="6.40789" ry="6.40789" transform="matrix(1 0 0 -1 455.162 331.654)"/><circle fill="#0072f5" r="6.40789" transform="matrix(1 0 0 -1 291.594 327.065)"/><path d="m278.856 612.066c.646-2.741-1.059-5.486-3.808-6.131-2.751-.646-5.503 1.055-6.151 3.797-.646 2.741 1.06 5.486 3.809 6.131 2.751.645 5.503-1.055 6.15-3.797z" fill="#f6f7f9"/><path d="m735.643 515.138h-501.231c-10.723 0-20.634-5.93-25.59-15.517h552.411c-4.956 9.505-14.867 15.517-25.59 15.517z" fill="#0072f5"/><path d="m548.607 505.828h-113.196c-4.35 0-7.798-2.809-7.798-6.207h128.793c0 3.463-3.448 6.207-7.799 6.207z" fill="#fff"/><path d="m208.822 498.07h546.204v1.55171h-546.204z" fill="#005fcc"/><g fill="#b9ddff"><path d="m521.822 315c-1.001.333-2 .667-3 1 1-.333 1.999-.667 3-1z"/><path d="m563.822 303c-7.499 2.858-15.562 5.62-24 8 8.532-2.38 16.501-5.142 24-8z"/><path d="m539.822 311c-2.605.348-5.302.652-8 1 2.698-.304 5.395-.652 8-1z"/><path d="m563.822 303c38.798-14.646 63-33 63-33s-24.202 18.354-63 33z"/></g><g clip-path="url(#b)"><path d="m229.822 498v-152-117l309.5-17-13 130.5-189.5 155.5z" fill="#005fcc"/><path d="m491.74 357.034v-37.034h-18.205v47.424c0 2.261-2.132 4.099-4.756 4.099h-58.059c-14.761 0-26.816 10.319-26.816 23.04v12.722l-.082 120.715h18.451l.082-128.984c0-6.432 6.069-11.662 13.531-11.662h51.745l-5.904.071h12.464c9.759-.071 17.631-6.856 17.631-15.266v-.707z" fill="#34233c" opacity=".2"/><path d="m392.822 513 .077-116.214c0-9.269 8.231-16.853 18.462-16.783h52.769c9.231 0 16.692-6.811 16.692-15.237v-17.766" opacity=".3" stroke="#fff" stroke-dasharray="8 8" stroke-miterlimit="10" stroke-width="1.5"/><path d="m612.889 325.96h-110.541c-10.254 0-18.644-8.322-18.644-18.665v-58.558" stroke="#0067e8" stroke-dasharray="8 8" stroke-miterlimit="10" stroke-width=".5"/><path d="m642.822 544h-73.076c-24.228 0-43.924-20.78-43.924-46.527l.078-8.941v-58.532h25.089v62.754c0 13.66 10.473 24.671 23.29 24.671h68.543z" fill="#34233c" opacity=".2"/><path d="m537.771 428.457-.078 69.057c0 18.897 15.304 34.217 34.18 34.217h66.962" opacity=".3" stroke="#fff" stroke-dasharray="8 8" stroke-miterlimit="10" stroke-width="1.5"/><path d="m358.248 214.986h-51.426v117.273h51.426z" fill="#abd0ef" opacity=".58"/><path d="m338.827 321.294-25.324 13.22h50.571z" fill="#2c2334"/><path d="m338.827 321.294 25.325 13.22v-113.929h-.156l-25.169 13.143z" fill="#ff5753"/><path d="m338.827 233.728-25.246-13.143h-.078v113.929l25.324-13.22z" fill="#d83939"/><path d="m313.503 220.508.078.078.077-.078z" fill="#2c2334"/><path d="m363.919 220.508.078.078.077-.078z" fill="#2c2334"/><path d="m313.581 220.586 25.247 13.142 25.169-13.142-.078-.078h-25.091-25.169z" fill="#2c2334"/><path d="m345.818 310.174 11.264 9.72v-19.441z" fill="#d83939"/><path d="m345.818 310.174h11.187v-9.721z" fill="#2c2334"/><path d="m345.818 279.299 11.264 9.721v-19.441z" fill="#d83939"/><path d="m345.818 279.299h11.187v-9.72z" fill="#2c2334"/><path d="m345.818 248.426 11.264 9.721v-19.441z" fill="#d83939"/><path d="m345.818 248.426h11.187v-9.72z" fill="#2c2334"/><path d="m332.846 248.426-11.264-9.72v19.441z" fill="#ff5753"/><path d="m332.845 248.426h-11.186v9.721z" fill="#2c2334"/><path d="m332.846 279.299-11.264-9.72v19.441z" fill="#ff5753"/><path d="m332.845 279.3h-11.186v9.721z" fill="#2c2334"/><path d="m332.846 310.174-11.264-9.721v19.441z" fill="#ff5753"/><path d="m332.845 310.173h-11.186v9.721z" fill="#2c2334"/><path d="m606.2 319h-44.005c-20.095 0-36.373 15.402-36.373 34.414v19.012h.078l-.078 53.574h25.001v-65.954c0-9.58 8.256-17.391 18.381-17.391h172.618v-23.655z" fill="#34233c" opacity=".2"/><path d="m537.822 426v-64.461c0-16.828 11.872-30.539 26.614-30.539h176.386" opacity=".3" stroke="#fff" stroke-dasharray="8 8" stroke-miterlimit="10" stroke-width="1.5"/><path d="m507.822 225h-43.566c-20.155 0-36.434 21.667-36.434 48.492v149.5h.078l-.078 75.008h24.884v-217.698c0-12.278 7.442-22.183 16.667-22.183h38.372v-33.119z" fill="#34233c" opacity=".2"/><path d="m439.822 498v-222.022c0-21.501 11.798-38.978 26.312-38.978h42.688" opacity=".3" stroke="#fff" stroke-dasharray="8 8" stroke-miterlimit="10" stroke-width="1.5"/><path d="m292.623 357.423c0 38.112 33.998 69.117 76.086 69.117l373.113.234v25.226l-372.941-.234c-57.495 0-104.059-42.33-104.059-94.578v-43.188h27.801z" fill="#bcdeff"/><g stroke-miterlimit="10"><path d="m737.423 438.489h-3.429" stroke="#0072f5" stroke-width=".5"/><path d="m741.822 441-370.524-.237c-51.149 0-92.564-37.124-92.476-82.876v-36.887" stroke="#0072f5" stroke-dasharray="7.92 7.92" stroke-width="1.5"/><path d="m278.707 317.561v-3.111" stroke="#0072f5" stroke-width=".5"/></g><circle cx="316.322" cy="424.5" fill="#fff" r="22.5"/><circle cx="316.322" cy="424.5" fill="#0072f5" r="7.5"/><path d="m593.822 249h38.665c17.888 0 32.335 14.365 32.335 32.15v99.119h-.069l.069 49.731h-22.084v-144.335c0-8.14-6.605-14.707-14.792-14.707h-87.124v-21.958z" fill="#bcdeff"/><path d="m653.822 416v-132.703c0-12.851-10.429-23.297-23.261-23.297h-90.739" stroke="#0072f5" stroke-dasharray="8 8" stroke-miterlimit="10" stroke-width="1.5"/><circle cx="620.322" cy="256.5" fill="#fff" r="22.5"/><circle cx="620.322" cy="256.5" fill="#0072f5" r="7.5"/></g><g clip-path="url(#c)"><path d="m515.148 344h-315.734c-18.553 0-33.592-14.951-33.592-33.396v-184.208c0-18.445 15.039-33.396 33.592-33.396h315.734c18.554 0 33.593 14.951 33.593 33.396v184.127c.081 18.526-14.958 33.477-33.593 33.477z" fill="#fff"/><path d="m532.555 152.059h-167.1v171.27h167.1z" fill="#dbecfe"/><path d="m183.477 93h347.691c9.726 0 17.654 6.7038 17.654 14.928v17.554h-383v-17.554c0-8.2242 7.928-14.928 17.655-14.928z" fill="#0072f5"/><path d="m190.342 116.239c2.302 0 4.169-1.855 4.169-4.144 0-2.288-1.867-4.144-4.169-4.144s-4.168 1.856-4.168 4.144c0 2.289 1.866 4.144 4.168 4.144z" fill="#0e222e"/><path d="m205.871 116.239c2.302 0 4.168-1.855 4.168-4.144 0-2.288-1.866-4.144-4.168-4.144-2.303 0-4.169 1.856-4.169 4.144 0 2.289 1.866 4.144 4.169 4.144z" fill="#fff"/><path d="m220.664 116.239c2.303 0 4.169-1.855 4.169-4.144 0-2.288-1.866-4.144-4.169-4.144-2.302 0-4.168 1.856-4.168 4.144 0 2.289 1.866 4.144 4.168 4.144z" fill="#bcdeff"/><g fill="#fff"><path d="m515.475 193.27h-132.734v14.626h132.734z"/><path d="m515.475 286.634h-132.734v14.626h132.734z"/><path d="m515.475 257.381h-132.734v14.626h132.734z"/><path d="m433.497 178.644h-50.756v8.938h50.756z"/><path d="m513.267 228.835h-17v16.902h17z"/></g><path d="m264.789 292.129h6.757v-6.751h-6.757z" fill="#e2a091"/><path d="m271.545 285.384h-6.719v1.918z" fill="#d3897d"/><path d="m284.176 298.695-19.618-.116v-9.474l9.79.038 1.996 4.066 3.187.077c2.572 0 4.645 2.071 4.645 4.641z" fill="#0055bf"/><path d="m265.095 259.837 8.677-8.208-17.929-34.139-16.24 15.381z" fill="#ff5753"/><path d="m263.292 285.384h8.254l2.227-33.755h-10.481z" fill="#ff5753"/><path d="m265.057 235.019-19.696-.115s-3.954.307-5.758-1.994l15.28 16.57z" fill="#34233c"/><path d="m264.944 260.719 1.459-4.526 6.642-6.444.73 1.88-1.421 21.672z" fill="#dd3c3c"/><path d="m282.642 193.017 3.992 7.518 7.833-6.52-6.796-4.872z" fill="#e2a091"/><path d="m282.411 193.018 5.26-3.875 3.302-4.027 4.108.92-5.798 6.56-4.069 2.953z" fill="#d3897d"/><path d="m310.591 222.667h4.914c1.612 0 2.918 1.305 2.918 2.916v3.912l-8.677-1.649z" fill="#e2a091"/><path d="m305.488 237.551h-50.026v2.072h50.026z" fill="#0067e8"/><path d="m254.504 231.922-1.983.607 15.412 50.244 1.982-.607z" fill="#0067e8"/><path d="m305.967 243.55-36.713 36.607 1.464 1.466 36.713-36.607z" fill="#0067e8"/><path d="m318.577 281.663c-1.228 0-2.188-.997-2.188-2.186 0-1.228.998-2.225 2.188-2.225 1.229 0 2.227.997 2.227 2.225-.039 1.189-1.037 2.186-2.227 2.186zm0-4.066c-1.037 0-1.881.844-1.881 1.88 0 1.035.844 1.879 1.881 1.879s1.881-.844 1.881-1.879c-.038-1.036-.883-1.88-1.881-1.88z" fill="#0067e8"/><path d="m318.577 249.212c-16.739 0-30.292 13.541-30.292 30.265s13.553 30.265 30.292 30.265 30.292-13.541 30.292-30.265-13.591-30.265-30.292-30.265zm0 59.11c-15.971 0-28.91-12.926-28.91-28.883s12.939-28.884 28.91-28.884c15.972 0 28.91 12.927 28.91 28.884-.038 15.957-12.977 28.883-28.91 28.883z" fill="#0067e8"/><path d="m318.578 250.593c-15.972 0-28.91 12.927-28.91 28.884s12.938 28.884 28.91 28.884c15.971 0 28.91-12.927 28.91-28.884-.039-15.957-12.977-28.884-28.91-28.884zm0 54.661c-14.282 0-25.839-11.546-25.839-25.815 0-14.27 11.557-25.815 25.839-25.815s25.838 11.545 25.838 25.815c-.038 14.269-11.595 25.815-25.838 25.815z" stroke="#34233c" stroke-miterlimit="10"/><path d="m232.308 281.663c-1.228 0-2.188-.997-2.188-2.186 0-1.228.998-2.225 2.188-2.225 1.229 0 2.227.997 2.227 2.225-.038 1.189-1.036 2.186-2.227 2.186zm0-4.066c-1.036 0-1.881.844-1.881 1.88 0 1.035.845 1.879 1.881 1.879 1.037 0 1.882-.844 1.882-1.879-.039-1.036-.845-1.88-1.882-1.88z" fill="#34233c"/><path d="m229.237 289.105c-1.228 0-2.188-.997-2.188-2.225 0-1.227.998-2.186 2.188-2.186 1.229 0 2.227.997 2.227 2.186-.038 1.228-.998 2.225-2.227 2.225zm0-4.066c-1.036 0-1.881.844-1.881 1.88 0 1.035.845 1.879 1.881 1.879 1.037 0 1.881-.844 1.881-1.879-.038-1.074-.844-1.88-1.881-1.88z" fill="#e7e9ea"/><path d="m232.309 285.615c-3.379 0-6.143-2.762-6.143-6.138 0-3.375 2.764-6.137 6.143-6.137 3.378 0 6.143 2.762 6.143 6.137 0 3.376-2.765 6.138-6.143 6.138zm0-11.968c-3.187 0-5.797 2.608-5.797 5.792s2.61 5.792 5.797 5.792c3.186 0 5.797-2.608 5.797-5.792s-2.611-5.792-5.797-5.792z" fill="#e7e9ea"/><path d="m232.309 249.212c-16.74 0-30.292 13.541-30.292 30.227 0 16.724 13.552 30.264 30.292 30.264 16.739 0 30.291-13.54 30.291-30.264 0-16.725-13.591-30.227-30.291-30.227zm0 59.11c-15.972 0-28.91-12.926-28.91-28.883s12.938-28.884 28.91-28.884c15.971 0 28.909 12.927 28.909 28.884-.038 15.957-12.976 28.883-28.909 28.883z" fill="#0067e8"/><path d="m232.309 250.593c-15.971 0-28.91 12.927-28.91 28.884s12.939 28.884 28.91 28.884c15.972 0 28.91-12.927 28.91-28.884-.038-15.957-12.977-28.884-28.91-28.884zm0 54.661c-14.282 0-25.838-11.546-25.838-25.815 0-14.27 11.556-25.815 25.838-25.815s25.839 11.545 25.839 25.815c-.039 14.269-11.595 25.815-25.839 25.815z" stroke="#34233c" stroke-miterlimit="10"/><path d="m312.511 243.535c-.614 0-1.113-.498-1.113-1.112s.499-1.112 1.113-1.112c3.494 0 6.296-2.839 6.296-6.291 0-3.491-2.841-6.291-6.296-6.291h-9.79c-.614 0-1.114-.498-1.114-1.112s.5-1.113 1.114-1.113h9.79c4.684 0 8.523 3.836 8.523 8.516s-3.839 8.515-8.523 8.515z" fill="#0067e8"/><path d="m268.935 273.647h-36.627c-.077 0-.154-.077-.154-.154 0-.076.077-.153.154-.153h36.627c.076 0 .153.077.153.153 0 .077-.077.154-.153.154z" fill="#e7e9ea"/><path d="m318.349 280.474c-.499 0-.998-.345-1.113-.92-1.421-6.138-14.282-44.995-15.626-51.285-.154-.652.23-1.266.845-1.42.614-.153 1.19.269 1.343.921 1.306 6.291 14.206 45.109 15.588 51.247.154.652-.23 1.304-.806 1.457-.039-.038-.154 0-.231 0z" fill="#0067e8"/><path d="m268.054 283.006c-.039 0-.039 0-.077 0l-35.744-2.685c-.345-.039-.652-.23-.844-.537-.154-.307-.154-.691 0-.998l22.882-41.158c.268-.499.883-.69 1.382-.384.499.269.691.883.384 1.381l-22.076 39.778 34.17 2.57c.575.038.998.537.959 1.112-.038.537-.499.921-1.036.921z" fill="#0067e8"/><path d="m268.934 284.425c1.336 0 2.419-1.082 2.419-2.416 0-1.335-1.083-2.417-2.419-2.417-1.335 0-2.418 1.082-2.418 2.417 0 1.334 1.083 2.416 2.418 2.416z" fill="#e7e9ea"/><path d="m268.935 290.677c-4.799 0-8.715-3.912-8.715-8.707s3.916-8.707 8.715-8.707 8.715 3.912 8.715 8.707-3.916 8.707-8.715 8.707zm0-17.031c-4.607 0-8.37 3.759-8.37 8.362s3.763 8.362 8.37 8.362 8.37-3.759 8.37-8.362-3.763-8.362-8.37-8.362z" fill="#e7e9ea"/><path d="m274.194 300.114c-.422 0-.845-.268-.998-.729l-9.79-31.76c-.154-.537.153-1.113.691-1.266.537-.154 1.113.153 1.267.69l9.79 31.761c.154.537-.154 1.112-.691 1.266-.077 0-.192.038-.269.038z" fill="#0067e8"/><path d="m268.934 290.678-39.698-1.573c-.077 0-.154-.077-.154-.192 0-.077.077-.153.192-.153l39.698 1.572c.077 0 .154.077.154.192-.039.077-.115.154-.192.154z" fill="#e7e9ea"/><path d="m268.282 270.271c-.154 0-.307-.038-.422-.115l-6.873-3.222c-.499-.23-.729-.844-.499-1.381.23-.499.845-.729 1.382-.499l6.873 3.222c.499.231.729.844.499 1.381-.231.422-.576.614-.96.614z" fill="#34233c"/><path d="m278.61 300.344c-.115.077-.268.115-.422.115l-7.602.192c-.575 0-1.036-.422-1.036-.997 0-.576.422-1.036.998-1.036l7.602-.192c.576 0 1.036.422 1.036.998 0 .383-.23.767-.576.92z" fill="#34233c"/><path d="m248.549 234.368h13.898c.077 0 .116-.038.116-.115v-2.302c0-.076-.039-.115-.116-.115h-13.898c-.077 0-.115.039-.115.115v2.302c-.038.077.038.115.115.115z" fill="#0067e8"/><path d="m251.159 233.945 35.091-24.817c.192-.116.96-1.343 1.113-1.496 2.189-1.918 2.381.191 1.651-7.71l-2.534-5.562c-1.689-3.338-5.797-4.642-9.137-2.916l-36.742 19.486c-3.379 2.302-7.487 9.705-4.031 17.492z" fill="#0067e8"/><path d="m245.362 234.866h33.978c4.108 0 7.486-3.337 7.486-7.48v-11.431l-39.276-1.151c-5.682-.153-10.596 3.99-11.326 9.628-.729 5.524 3.571 10.434 9.138 10.434z" fill="#ff5753"/><path d="m258.952 257.612 5.989 3.107 3.456-6.674-5.951-3.222z" fill="#e2a091"/><path d="m239.812 210.573 44.625-19.632-12.951-29.383-44.624 19.632z" fill="#ffc347"/><path d="m235.176 200.099.974 2.212 42.657-18.766-.975-2.212z" fill="#0067e8"/><path d="m230.403 189.156.975 2.211 42.656-18.766-.974-2.212z" fill="#0067e8"/><path d="m260.948 251.321 8.14 4.143 21.461-30.994-9.214-6.367z" fill="#ff5753"/><path d="m284.292 191.905-47.722 36.478s-5.298-8.975 3.263-17.798l42.271-20.79z" fill="#0055bf"/><path d="m286.826 227.425v-11.431l-39.276-1.151c-5.682-.153-10.596 3.989-11.325 9.628 0 0-1.191 3.606 3.378 8.4 0 0 .346-7.71 47.223-5.446z" fill="#dd3c3c"/><path d="m280.377 224.854 9.253-4.142-3.686-10.779-9.253 4.143z" fill="#e2a091"/><path d="m273.042 231.606-12.094 19.716 4.339 2.34z" fill="#dd3c3c"/><path d="m310.593 226.504v-3.797l-30.292-5.025-.576 3.337c-.499 2.992 1.535 5.869 4.568 6.367z" fill="#e2a091"/><path d="m277.918 220.443 12.439-2.685-1.152-14.538-15.434-1.956z" fill="#0067e8"/><path d="m288.285 227.386 24.226-.882s3.686 0 5.913 2.416v-3.567l-2.688-.115c-1.651-.077-8.638.23-11.287.383z" fill="#d3897d"/><path d="m280.539 192.673 3.936-1.732-13.353-30.296-3.935 1.732z" fill="#fff"/><path d="m280.185 191.905-12.593-28.615-3.801 1.687z" fill="#e9a01e" opacity=".3"/><path d="m287.094 193.401 9.982 1.381c1.881.268 3.57-1.036 3.839-2.916l1.728-12.543c.269-1.879-1.037-3.567-2.918-3.836l-6.604-.92c-1.881-.269-3.57 1.035-3.839 2.915z" fill="#e2a091"/><path d="m288.477 183.235 1.42.192.691-5.025 11.787 2.8-.346 2.647-11.21-1.381-1.882 10.434-2.111 1.457-1.92-3.183 2.765-2.033z" fill="#d3897d"/><path d="m286.965 183.681 2.852.392.785-5.7-2.853-.392z" fill="#34233c"/><path d="m288.399 185.307c.785 0 1.421-.635 1.421-1.419s-.636-1.419-1.421-1.419c-.784 0-1.42.635-1.42 1.419s.636 1.419 1.42 1.419z" fill="#d3897d"/><path d="m287.745 177.98 14.781 2.033c.499-3.605-2.034-6.942-5.643-7.441l-1.69-.23c-3.609-.46-6.949 2.033-7.448 5.638z" fill="#0072f5"/><path d="m299.837 186.191c.055-.398.031-.731-.053-.743-.084-.011-.196.303-.251.702-.055.398-.031.731.053.742.084.012.196-.302.251-.701z" fill="#34233c"/><path d="m301.145 182.738-13.745-1.88.384-2.838 18.16 2.493c-.921 1.611-2.841 2.493-4.799 2.225z" fill="#005fcc"/><path d="m294.044 194.36-3.033-.383 1.996 1.265z" fill="#d3897d"/><path d="m276.881 215.764-3.11-.154.884-10.241z" fill="#0055bf"/><path d="m273.735 271.115-17.661-8.516 4.07-8.554 8.83 4.258.039 4.526 2.841 1.458c2.342 1.112 3.301 3.874 2.188 6.214z" fill="#0067e8"/><path d="m261.949 251.858 6.028 3.031-6.757-1.688z" fill="#d3897d"/></g><path d="m620.813 149c-.163 0-.245 0-.409 0s-.246 0-.409 0c-17.847.243-32.173 14.586-32.173 32.171 0 4.457.819 8.59 2.374 12.399 0 0 2.211 4.295 3.357 5.915l26.769 46.515 26.769-46.515c1.147-1.62 3.357-5.915 3.357-5.915 1.637-3.809 2.374-7.942 2.374-12.399.082-17.585-14.244-31.928-32.009-32.171z" fill="#fac348"/><path d="m620.322 195c9.113 0 16.5-7.387 16.5-16.5s-7.387-16.5-16.5-16.5c-9.112 0-16.5 7.387-16.5 16.5s7.388 16.5 16.5 16.5z" fill="#fff"/><path d="m620.413 246-26.859-46.515c-1.146-1.62-3.357-5.915-3.357-5.915-1.556-3.809-2.375-7.942-2.375-12.399 0-17.585 14.33-31.928 32.181-32.171h.819s-31.771 8.266-21.372 41.328z" fill="#e9a01e"/></g></svg>