<svg fill="none" height="88" viewBox="0 0 125 88" width="125" xmlns="http://www.w3.org/2000/svg" xmlns:xlink="http://www.w3.org/1999/xlink"><clipPath id="a"><path d="m0 0h125v88h-125z"/></clipPath><g clip-path="url(#a)"><path d="m107.734 25.0992.076 24.1838c0 2.1743-1.597 4.0434-3.727 4.3485l-66.2836 9.4981c-3.3465.4958-6.5029-1.6784-7.2634-4.997l-8.4424-36.7334z" fill="#ffc347"/><path d="m107.734 25.0992-85.6404-3.7 8.1001 37.0004c.038.1145.038.2289.0761.3433 1.0267 3.6619 5.1719 5.4166 8.5944 3.8145z" fill="#f39719"/><path d="m108.258 67.9495-77.0087 1.1139" stroke="#34233c" stroke-miterlimit="10" stroke-width="2"/><path d="m38.1038 88.0382c3.8014 0 6.8831-3.0912 6.8831-6.9043 0-3.813-3.0817-6.9042-6.8831-6.9042-3.8015 0-6.8832 3.0912-6.8832 6.9042 0 3.8131 3.0817 6.9043 6.8832 6.9043z" fill="#ff5753"/><path d="m39.1427 68.6572-2.1676.0081.0536 14.4569 2.1677-.0081z" fill="#34233c"/><path d="m95.0714 87.8094c3.8015 0 6.8836-3.0911 6.8836-6.9042s-3.0821-6.9042-6.8836-6.9042-6.8832 3.0911-6.8832 6.9042 3.0817 6.9042 6.8832 6.9042z" fill="#ff5753"/><path d="m96.0719 68.4665-2.1676.0081.0536 14.4569 2.1677-.0081z" fill="#34233c"/><path d="m3.76453 2.78467 15.62977 6.52275 13.0438 59.39138" stroke="#34233c" stroke-miterlimit="10" stroke-width="3"/><path d="m15.5152 9.72648-15.173379-6.25574c-.2662005-.11444-.4183149-.45774-.3042291-.7629l.9507151-2.364973c.152113-.2670132.456343-.4195923.760573-.305158l15.17342 6.255741c.3042.11444.4183.45774.3042.72475l-.9507 2.36498c-.1521.30516-.4563.45774-.7606.3433z" fill="#34233c"/><path d="m103.515 43.4469c11.866 0 21.486-9.6491 21.486-21.5518 0-11.90277-9.62-21.551838-21.486-21.551838-11.8667 0-21.4864 9.649068-21.4864 21.551838 0 11.9027 9.6197 21.5518 21.4864 21.5518z" fill="#0055bf"/><path d="m103.513 38.8313c9.325 0 16.885-7.5826 16.885-16.9363 0-9.3536-7.56-16.93626-16.885-16.93626-9.3249 0-16.8845 7.58266-16.8845 16.93626 0 9.3537 7.5596 16.9363 16.8845 16.9363z" fill="#0072f5"/><path d="m101.233 11.5198v14.4568h14.413" stroke="#fff" stroke-linecap="round" stroke-linejoin="round" stroke-miterlimit="10" stroke-width="3"/></g></svg>