<svg fill="none" height="87" viewBox="0 0 99 87" width="99" xmlns="http://www.w3.org/2000/svg" xmlns:xlink="http://www.w3.org/1999/xlink"><clipPath id="a"><path d="m0 0h99v87h-99z"/></clipPath><g clip-path="url(#a)"><path d="m48.3288 41.9809-6.117 2.1824c-4.7721 1.7118-10.0648-.7274-11.8001-5.4348l-8.1561-22.2528c-2.3426-6.3763.9979-13.43728 7.5053-15.748154 6.4641-2.310866 13.6223.984264 15.965 7.403344l8.156 22.21001c1.6919 4.7074-.7809 9.9282-5.5531 11.64z" fill="#ffc347"/><path d="m39.8685 11.0409-12.0605 4.964c-1.0412.428-2.2559-.0427-2.6897-1.1126-.4338-1.027.0434-2.2253 1.1279-2.6532l12.0605-4.92132c1.0412-.42793 2.2559.0428 2.6898 1.11265.4338 1.02705-.0868 2.18247-1.128 2.61047z" fill="#f39719"/><path d="m43.3829 19.3857-12.0605 4.9213c-1.0412.4279-2.2559-.0428-2.6897-1.1127-.4338-1.027.0434-2.2253 1.1279-2.6532l12.0605-4.9213c1.0412-.428 2.2559.0428 2.6898 1.1126.3904 1.0271-.0868 2.2253-1.128 2.6533z" fill="#f39719"/><path d="m80.4756 41.3817s-18.004-10.3989-33.0579-35.94689c0 0-14.7936 16.51849 2.5163 34.10669-.0434 0 13.7524 12.7526 30.5416 1.8402z" fill="#34233c"/><path d="m78.8267 40.3548s-16.5289-9.7143-30.4548-33.33649c0 0-13.1451 15.87649 2.4728 31.32519 0 0 11.1928 11.1264 27.982 2.0113z" fill="#ee9219"/><path d="m54.1421 15.8337c-1.128 3.2952-.9545 7.7029.7375 11.0837 2.9066 5.9055 9.631 8.8155 15.8348 7.2321 0 0-8.1126-6.9754-15.0539-16.4756z" fill="#fff"/><path d="m82.6441 39.8839c-10.4119 8.9011-26.1166 7.7885-35.1402-2.4821-9.0237-10.2705-7.8957-25.7619 2.5162-34.66303" fill="#34233c"/><path d="m80.389 36.9311c-8.8067 7.5318-22.1687 6.5903-29.8041-2.0969-7.6354-8.6871-6.681-21.8677 2.1258-29.39939" fill="#ff5753"/><path d="m72.6672 28.1584c-3.9045 3.3379-9.848 2.91-13.2319-.9415-3.3838-3.8514-2.95-9.7142.9545-13.0521" fill="#ffc347"/><path d="m82.6442 39.8839s-22.1688-16.4757-32.6241-37.14513c13.5789 9.45743 24.685 21.95323 32.3204 36.54603z" fill="#d64141"/><path d="m68.8052 87.0001h-43.9036c-4.3383 0-8.1126-2.8672-9.1972-6.9754l-11.1928-41.3389h84.6402l-11.106 41.3389c-1.128 4.1082-4.9023 6.9754-9.2406 6.9754z" fill="#ffc347"/><g fill="#34233c"><path d="m92.0153 31.5391h-92.0153v7.1465h92.0153z"/><path d="m7.06505 2.7076-7.06309688 4.02262 16.89764688 28.86938 7.0631-4.0226z"/><path d="m75.0346 32.4337 7.0631 4.0226 16.8976-28.86937-7.0631-4.02262z"/></g><path d="m4.5116 38.6858 79.0872 20.755 5.5964-20.755z" fill="#f39719"/><path d="m81.9074 85.8018c6.8525 0 12.4075-5.4796 12.4075-12.239 0-6.7595-5.555-12.2391-12.4075-12.2391s-12.4075 5.4796-12.4075 12.2391c0 6.7594 5.555 12.239 12.4075 12.239z" fill="#ff5753"/><path d="m86.1157 85.0742c-6.464 2.3109-13.5788-.9842-15.9215-7.3605s.9978-13.3945 7.4619-15.7054" fill="#d64141"/><path d="m77.6993 62.0939s-.7809-10.2277 9.9347-11.2548c0 0 0 9.9282-9.9347 11.2548z" fill="#0070fe"/><path d="m77.6993 62.0939s-.7809-10.2277 9.9347-11.2548z" fill="#0055bf"/><path d="m75.9204 57.4294 1.7787 4.7074" stroke="#34233c" stroke-miterlimit="10" stroke-width="2"/></g></svg>