<svg fill="none" height="94" viewBox="0 0 111 94" width="111" xmlns="http://www.w3.org/2000/svg" xmlns:xlink="http://www.w3.org/1999/xlink"><clipPath id="a"><path d="m0 0h111v94h-111z"/></clipPath><g clip-path="url(#a)"><path d="m88.6012 3.74451h-88.6012v69.13919h88.6012z" fill="#0055bf"/><g fill="#34233c"><path d="m88.6012 3.74451h-88.6012v19.18599h88.6012z"/><path d="m18.7674 9.30346h-2.9432c-.3058 0-.5733-.27022-.5733-.57905v-8.10678c0-.30883.2675-.5790558.5733-.5790558h2.9432c.3058 0 .5733.2702258.5733.5790558v8.10678c.0383.30883-.2293.57905-.5733.57905z"/><path d="m36.4654 9.30346h-2.9432c-.3058 0-.5733-.27022-.5733-.57905v-8.10678c0-.30883.2675-.5790558.5733-.5790558h2.9432c.3058 0 .5733.2702258.5733.5790558v8.10678c0 .30883-.2675.57905-.5733.57905z"/><path d="m54.1237 9.30346h-2.9432c-.3058 0-.5733-.27022-.5733-.57905v-8.10678c0-.30883.2675-.5790558.5733-.5790558h2.9432c.3058 0 .5734.2702258.5734.5790558v8.10678c0 .30883-.2676.57905-.5734.57905z"/><path d="m71.7832 9.30346h-2.9431c-.3058 0-.5734-.27022-.5734-.57905v-8.10678c0-.30883.2676-.5790558.5734-.5790558h2.9431c.3058 0 .5734.2702258.5734.5790558v8.10678c0 .30883-.2676.57905-.5734.57905z"/></g><path d="m29.6612 22.9305h-29.6612v24.6678h29.6612z" fill="#0070fe"/><path d="m58.9404 48.2546h-29.6611v24.6678h29.6611z" fill="#0070fe"/><path d="m88.6021 22.9305h-29.6612v24.6678h29.6612z" fill="#0070fe"/><path d="m77.8604 94.0385c18.3024 0 33.1396-14.9847 33.1396-33.4694 0-18.4846-14.8372-33.4694-33.1396-33.4694s-33.1395 14.9848-33.1395 33.4694c0 18.4847 14.8371 33.4694 33.1395 33.4694z" fill="#f39719"/><path d="m77.8609 86.8583c14.3759 0 26.0301-11.7701 26.0301-26.2892 0-14.519-11.6542-26.2891-26.0301-26.2891-14.376 0-26.03 11.7701-26.03 26.2891 0 14.5191 11.654 26.2892 26.03 26.2892z" fill="#ffc347"/><path d="m80.957 65.935c0-.8106-.2294-1.5055-.6881-1.9688-.4586-.5018-1.2231-.9264-2.3316-1.3511-1.1084-.4246-2.0258-.8107-2.8285-1.2353s-1.4525-.8879-2.0258-1.4283c-.5734-.5405-.9938-1.1581-1.3378-1.8916-.3058-.7335-.4587-1.5828-.4587-2.5479 0-1.6985.5351-3.1269 1.6054-4.2078 1.0702-1.0809 2.5227-1.7371 4.3192-1.9301v-3.2428h2.4081v3.2814c1.7582.2702 3.1725 1.0037 4.1663 2.239s1.4907 2.8566 1.4907 4.8254h-4.3575c0-1.1967-.2293-2.1232-.7262-2.7408-.4969-.6177-1.1467-.8879-1.9876-.8879s-1.4525.2316-1.9112.6949c-.4586.4632-.688 1.1195-.688 1.9687 0 .7721.2294 1.3898.6498 1.853.4587.4633 1.2614.9265 2.4463 1.4284 1.1849.5018 2.1787.9264 2.9432 1.3897.7644.4246 1.4142.9265 1.9494 1.4669.5351.5405.9555 1.1581 1.2231 1.853s.4205 1.5055.4205 2.432c0 1.7372-.5352 3.1269-1.6054 4.2078-1.0703 1.0809-2.5227 1.6986-4.3957 1.8916v3.0111h-2.408v-3.0111c-2.0641-.2316-3.6312-.9651-4.7779-2.2004-1.1085-1.2353-1.6819-2.8953-1.6819-4.9799h4.3575c0 1.1967.2675 2.1232.8409 2.7795.5733.6563 1.376.9651 2.4463.9651.8791 0 1.5671-.2316 2.1023-.6949.5351-.4632.8409-1.1967.8409-1.9688z" fill="#34233c"/></g></svg>