<svg fill="none" height="93" viewBox="0 0 76 93" width="76" xmlns="http://www.w3.org/2000/svg" xmlns:xlink="http://www.w3.org/1999/xlink"><clipPath id="a"><path d="m0 0h76v93h-76z"/></clipPath><g clip-path="url(#a)"><path d="m0 93h61.043v-56.9836l-24.4675-27.22368h-36.5755z" fill="#34233c"/><path d="m66.3652 84.2073h-61.04306v-56.9837l24.50936-27.2236h36.5337z" fill="#ffc347"/><path d="m5.32214 27.2236 24.50936-27.2236v27.2236z" fill="#f39719"/><path d="m39.5088 57.0259c0-.8878-.2513-1.6487-.7541-2.1559-.5028-.5496-1.3407-1.0146-2.5557-1.4796s-2.2205-.8877-3.1003-1.3527-1.5921-.9723-2.2205-1.5641c-.6285-.5918-1.0893-1.2682-1.4664-2.0714-.3352-.8031-.5027-1.7331-.5027-2.79 0-1.86.5865-3.4241 1.7596-4.6077s2.7652-1.9023 4.7343-2.1136v-3.5509h2.6395v3.5931c1.9272.296 3.4774 1.0991 4.5667 2.4519 1.0893 1.3527 1.6339 3.1281 1.6339 5.2841h-4.7343c0-1.3105-.2513-2.325-.796-3.0014s-1.2569-.9723-2.1786-.9723-1.5921.2537-2.0948.7609c-.5028.5073-.7542 1.2259-.7542 2.1559 0 .8455.2514 1.5219.7123 2.0291.5027.5073 1.3826 1.0146 2.6813 1.5641 1.2988.5496 2.3881 1.0146 3.2261 1.5218.8379.465 1.5501 1.0146 2.1367 1.6064.5865.5918 1.0474 1.2682 1.3407 2.0291.2932.7609.4608 1.6486.4608 2.6632 0 1.9022-.5865 3.4241-1.7596 4.6077s-2.7652 1.86-4.8181 2.0714v3.2972h-2.6395v-3.2972c-2.2624-.2537-3.9801-1.0569-5.237-2.4096-1.215-1.3527-1.8435-3.1704-1.8435-5.4532h4.7762c0 1.3105.2933 2.325.9217 3.0437.6285.7186 1.5083 1.0568 2.6814 1.0568.9636 0 1.7178-.2536 2.3043-.7609.5866-.5073.8798-1.3105.8798-2.1559z" fill="#34233c"/><path d="m55.9737 50.8964h10.5579v25.7863h9.4686l-14.6218 16.2328-15.2922-16.2328h9.8875z" fill="#ff5753"/><path d="m55.9737 50.8964v25.7863h-9.8875l15.2922 16.2328v-41.7655z" fill="#d64141"/></g></svg>