<svg fill="none" height="87" viewBox="0 0 178 87" width="178" xmlns="http://www.w3.org/2000/svg" xmlns:xlink="http://www.w3.org/1999/xlink"><clipPath id="a"><path d="m0 0h178v87h-178z"/></clipPath><g clip-path="url(#a)"><path d="m129.383 42.4849-19.246-19.0857-5.563 5.5161 3.449 2.4271-17.0214 15.4451-11.6813 3.0339-2.3918 2.3719 11.7925 11.7494-13.1832 10.8667c1.4463 1.1584 10.7913 9.4877 11.9038 8.4397.0556-.0552.1112-.0552.1669-.1103l6.675-5.13 6.2295-5.6265 17.189-14.6177c.055-.0552.111-.1103.166-.1655 1.391-1.4342 6.787-4.8542 6.954-8.9913.055-.6067-.39-1.2135.055-1.6548z" fill="#e2a091"/><path d="m91.5026 43.3674s5.7293 5.2403 15.1304 4.082c-2.337 4.6335-2.448 10.4254-2.448 10.4254z" fill="#d3897d"/><path d="m56.7378 57.8198c-1.3906-1.4342-4.5612-5.7367-4.7837-9.8738-.0556-.6068.3894-1.2136-.0556-1.6549l-4.5057-4.468 19.2463-19.0858 6.2856 6.2332c.2781.2758.6675.3861 1.0013.331l21.2487 1.2135 8.3433.6068c.056 0 .167-.0552.223-.0552 2.392 0 4.061 1.1584 4.784 3.1442.667 1.9307-.835 3.9716-2.948 4.1371-.056 0-.167.0552-.223.1103l-6.6749-.1654-8.7888-.1655c-.445.1103-.7787.4413-.89.8274-.1112.3861-1.5018.2206-1.2237.5516l19.1354 18.9755 5.117 4.9093c.056.0552.111.1103.167.1655 1.446 1.5445 1.947 4.8542.445 6.3435-1.391 1.3791-4.228 1.8203-5.785.4965l-11.2919-11.0874c-.445-.4413-.6119.3861-.1113.8274l6.5642 6.509 3.782 3.6407.834.8274c.056.0551.112.1103.167.1655 1.447 1.5445 1.836 4.2474.39 5.9022-1.558 1.8203-4.45 2.2616-6.008.8274-.055-.0551-.111-.1103-.167-.1103l-5.7847-5.6264-5.6181-5.6265c-.2225-.2206-1.2794-.4413-1.2237-.331l3.6712 3.6407 2.7256 2.758 4.6725 4.5784c1.1122 1.4894 1.0012 4.0819-.2781 5.3507-1.4462 1.4341-4.005 2.1513-5.5069.7722-.0556-.0551-.1112-.1103-.1668-.1655l-1.8913-1.8203c-.0556-.0551-.0556-.1103-.0556-.1103l-.6675-.6619-6.5638-6.5642-2.1693-2.1513c-.3894-.3861-1.0013-.4413-.6119-.0552l8.7331 8.6603c1.0569 1.2687 1.2238 3.5304-.0556 4.9645-1.5575 1.71-3.6713 1.6549-4.895.4965-.0556-.0552-.1113-.0552-.1669-.1103l-6.7306-6.84-5.34-5.1852-16.1313-15.9967c-.1112.1103-.1668 0-.2225-.0552z" fill="#af675b"/><path d="m70.0324 26.1817-19.2336 19.0732.944.9361 19.2335-19.0732z" fill="#a35b52"/><path d="m72.2565 24.0611-24.4193 24.1606-24.4595-24.1606 24.3637-24.1605873z" fill="#0070fe"/><path d="m88.6099 40.3888 4.5613 4.5232 24.5858-8.3845-13.183-7.557-.723.7171c-.278.2758-.667.3861-1.001.3309l-19.5801 1.7652-9.5119 8.1638c-.0556 0-.1668-.0551-.2225-.0551-2.3918 0-4.0606 1.1583-4.7837 3.1442-.6675 1.9306.8344 3.9716 2.9481 4.137.0556 0 .1669.0552.2225.1104l6.675-.1655s8.5663-6.6194 8.9556-6.7848c.7788-.3862 1.0569-.2207 1.0569.0551z" fill="#e2a091"/><path d="m81.9359 85.1797c-1.4463 1.3238-3.8938 1.1032-5.3957-.5516-1.5018-1.6549-1.5575-4.0268-.0556-5.3507l4.5613-4.1371c1.4462-1.3238 3.8937-1.1032 5.3956.5517 1.5019 1.6548 1.5575 4.0267.0556 5.3506z" fill="#d3897d"/><path d="m76.3178 79.112c-1.4463 1.3239-3.8937 1.1032-5.3956-.5516s-1.5575-4.0268-.0556-5.3506l4.5612-4.1371c1.4462-1.3238 3.8937-1.1032 5.3956.5516 1.5019 1.6549 1.5575 4.0268.0556 5.3506z" fill="#d3897d"/><path d="m81.4342 84.6833c-1.4463 1.3238-3.7825 1.2135-5.1175-.2759-1.3906-1.4893-1.2794-3.7509.1669-5.1299l4.5612-4.1371c1.4463-1.3239 3.7825-1.2135 5.1175.2758 1.3906 1.4894 1.2794 3.751-.1668 5.13z" fill="#e2a091"/><path d="m75.8725 78.6155c-1.4462 1.3239-3.7825 1.2135-5.1731-.331-1.3906-1.4893-1.335-3.8061.1669-5.1299l4.5612-4.1371c1.4463-1.3239 3.7825-1.2136 5.1731.3309 1.3906 1.4894 1.335 3.8062-.1668 5.13z" fill="#e2a091"/><path d="m70.533 73.0443c-1.4462 1.3239-3.8937 1.1032-5.3956-.5516s-1.5575-4.0268-.0556-5.3506l4.5612-4.1371c1.4463-1.3239 3.8938-1.1033 5.3956.5516 1.5019 1.6548 1.5575 4.0267.0557 5.3506z" fill="#d3897d"/><path d="m70.0311 72.4374c-1.4462 1.3239-3.7825 1.2136-5.1175-.2758-1.3906-1.4893-1.2794-3.7509.1669-5.0748l4.5612-4.1371c1.4463-1.3238 3.7825-1.2135 5.1175.2758 1.3907 1.4894 1.2794 3.751-.1668 5.0749z" fill="#e2a091"/><path d="m65.3024 66.5353c-1.4462 1.3238-3.8937 1.1032-5.3956-.5517-1.5019-1.6548-1.5575-4.0267-.0556-5.3506l4.5612-4.1371c1.4463-1.3238 3.8938-1.1032 5.3956.5516 1.5019 1.6549 1.5575 4.0268.0557 5.3507z" fill="#d3897d"/><path d="m64.9139 66.094c-1.4462 1.3238-3.7825 1.1584-5.1731-.331-1.3906-1.5445-1.335-3.8061.1113-5.13l4.5612-4.1371c1.4463-1.3238 3.7825-1.1583 5.1731.331 1.3907 1.5445 1.335 3.8061-.1112 5.13z" fill="#e2a091"/><path d="m107.24 26.3329-.944.9361 19.233 19.0732.944-.9361z" fill="#d3897d"/><path d="m129.041.325965-24.034 23.839635 24.39 24.1794 24.033-23.8397z" fill="#ffc347"/></g></svg>