<svg fill="none" height="84" viewBox="0 0 123 84" width="123" xmlns="http://www.w3.org/2000/svg"><path d="m46.1305 0h-22.9559v23.0287h22.9559z" fill="#f39719"/><path d="m46.13 0h-11.456v23.0287h11.456z" fill="#ffc347"/><path d="m76.5637 0h-22.9559v23.0287h22.9559z" fill="#f39719"/><path d="m76.5205 0h-11.4562v23.0287h11.4562z" fill="#ffc347"/><path d="m106.953 0h-22.9559v23.0287h22.9559z" fill="#f39719"/><path d="m106.953 0h-11.4565v23.0287h11.4565z" fill="#ffc347"/><path d="m76.5637 37.9425h-22.9559v23.0287h22.9559z" fill="#f39719"/><path d="m76.5205 37.9425h-11.4562v23.0287h11.4562z" fill="#ffc347"/><path d="m106.953 37.9425h-22.9559v23.0287h22.9559z" fill="#f39719"/><path d="m106.953 37.9425h-11.4565v23.0287h11.4565z" fill="#ffc347"/><path d="m123 23.0287h-114.25488v7.4569h114.25488z" fill="#34233c"/><path d="m123 60.094h-114.25488v7.4569h114.25488z" fill="#34233c"/><path d="m45.9118 37.9425h-45.9118v46.0574h45.9118z" fill="#d64141"/><path d="m45.9119 37.9425h-22.956v46.0574h22.956z" fill="#ff5753"/><path d="m26.4101 37.9425h-6.9523v33.9948h6.9523z" fill="#34233c"/></svg>