<svg enable-background="new 0 0 550 480" viewBox="0 0 550 480" xmlns="http://www.w3.org/2000/svg" xmlns:xlink="http://www.w3.org/1999/xlink"><clipPath id="a"><path d="m2 0h548v231h-548z"/></clipPath><path d="m0 0h550v480h-550z" fill="#e9f4ff"/><path d="m17.5 461.1-17.5 18.4h549.5v-69.5h-413.1c-44.9 0-87.9 18.5-118.9 51.1z" fill="#9bcbff"/><g clip-path="url(#a)"><path d="m-45-27.8h133.6c15.5 0 30.8 3.7 44.6 10.8s25.7 17.4 34.6 30l91.3 128.6c9 12.6 20.8 22.9 34.6 30s29.1 10.8 44.6 10.8c13.5 0 26.8-2.8 39.2-8.2 12.3-5.4 23.4-13.3 32.5-23.3l50.2-54.9c9.1-9.9 20.2-17.9 32.5-23.3s25.7-8.2 39.2-8.2h61l.1-131.5h-635.6z" fill="#d2e9ff"/></g><path d="m413.8 306.4c.3 2.7.3 5.5.2 8.2-.4 13.1-4 25.4-9 37.3-8.9 21.1-21.8 39.6-36.4 57-.8 1-1.7 1.8-2.9 2.3-1.1.5-2.4.8-3.6.7-9-.1-17.9 0-26.9 0-5.9 0-7.9-2.6-6.5-8.3.6-2.6 1.3-5.2 1.9-7.8-.3-.1-.5-.2-.8-.3-11.1 0-22.3 0-33.4 0-.4.1-.8.3-1.1.6s-.6.6-.7 1c-1.1 2.9-2 5.9-3 8.9-1.2 3.6-2.6 4.6-6.4 4.6h-28.5c-5.3 0-7.4-2.5-6.3-7.7.9-4.6 1.7-9.2 2.6-13.8.2-.6.2-1.2-.1-1.7-.2-.5-.7-1-1.2-1.2-6.8-3.9-12.5-9-16.1-15.9-1-2-2.3-3.7-4-5.1s-3.7-2.4-5.8-3c-13.7-4.5-21.3-15-25.3-28.4-1.1-3.7-1.7-7.5-2.5-11.3v-3.9c.6-1 1.5-1.9 2.4-2.6 1-.7 2.1-1.2 3.2-1.5 3.7-1.1 7.2-2.5 10.8-3.6.7-.1 1.4-.5 1.8-1.1.5-.6.8-1.3.8-2 .9-4.7 2.2-9.4 3.8-13.9 1.5-3.9 4-7.5 6.1-11.3-.2-.2-.6-.5-1-.8-7.3-5.3-12.8-12.7-15.6-21.3-1.3-3.8-.5-5.9 3.1-7.7 16.3-8.6 35.3-10.7 53.1-5.8 1.1.2 2.2.1 3.2-.3 3.1-1.2 6-2.8 9.1-4 18.4-7.1 37.2-9.7 56.7-6 16.4 3.1 30.9 10.5 44.4 20 13.1 9.3 24 20.5 30.4 35.6.1.2.4.3.6.5zm-163.5 7.7c1.9 0 3.7-.6 5.3-1.7s2.8-2.6 3.5-4.3c.7-1.8.9-3.7.5-5.5s-1.3-3.5-2.7-4.9c-1.3-1.3-3-2.2-4.9-2.6s-3.8-.2-5.5.6-3.2 2-4.3 3.5c-1 1.6-1.6 3.4-1.6 5.3 0 1.3.3 2.5.8 3.7s1.2 2.2 2.1 3.1 2 1.6 3.1 2.1c1.2.5 2.5.7 3.7.7zm68.3-58c-5.1.6-10.3 1.1-15.3 2-4.2.9-8.3 2.1-12.3 3.6-.6.2-.9 1.4-1.4 2.1.8.4 1.7.7 2.6 1 .3.1.8-.2 1.1-.3 8.3-3 17.2-4.5 26-4.5 11.6-.2 22.9 3.9 31.9 11.3.6.6 1.2 1.1 1.9 1.4.3.1.7.1 1 0s.6-.2.9-.5c.2-.3.3-.5.3-.9 0-.3 0-.6-.1-.9-.4-.6-.9-1.2-1.4-1.6-10-8.7-21.9-12.3-35.2-12.7z" fill="#ff5753"/><path d="m283.1 395.7c-.4.1-.8.3-1.1.6s-.6.6-.7 1c-1.1 2.9-2 5.9-3 8.9-1.2 3.6-2.6 4.6-6.4 4.6h13.5c3.8 0 5.2-1 6.4-4.6 1-3 1.9-6 3-8.9.2-.4.4-.7.7-1s.7-.5 1.1-.6h11c-8.2-.1-16.3-.1-24.5 0z" fill="#dd3c3c"/><path d="m413.8 306.4-3.1-13.2c-.2-.2-.5-.3-.6-.5-6.4-15-17.3-26.3-30.4-35.6-13.5-9.5-28-16.9-44.4-20-8.1-1.6-16.3-2-24.5-1.5 3.7.3 7.4.8 11 1.5 16.4 3.1 30.9 10.5 44.4 20 13.1 9.3 24 20.5 30.4 35.6.1.2.4.3.6.5l3.1 13.2c.3 2.7.3 5.5.2 8.2-.4 13.1-4 25.4-9 37.3-8.9 21.1-21.8 39.6-36.4 57-.6.8-1.5 1.5-2.4 2.1-.9.5-2 .8-3 .9h12.4c1.2.1 2.5-.2 3.6-.7s2.1-1.3 2.9-2.3c14.6-17.5 27.5-36 36.4-57 5-11.9 8.6-24.3 9-37.3.2-2.8.1-5.5-.2-8.2z" fill="#dd3c3c"/><path d="m330.2 265.6c20-1.4 35.1-18.8 33.7-38.8s-18.8-35.1-38.8-33.7-35.1 18.8-33.7 38.8 18.8 35.1 38.8 33.7z" fill="#f39719"/><path d="m358.8 237.1c5.1-19.4-6.5-39.2-25.8-44.3-19.4-5.1-39.2 6.5-44.3 25.8-5.1 19.4 6.5 39.2 25.8 44.3s39.2-6.4 44.3-25.8z" fill="#ffc347"/><path d="m323.9 261.2c-8 0-15.8-2.9-21.8-8.3-6-5.3-9.9-12.6-10.9-20.6s.9-16 5.4-22.7c4.5-6.6 11.3-11.4 19.1-13.4s16-1.1 23.2 2.6c7.2 3.6 12.7 9.8 15.7 17.2 3 7.5 3.1 15.8.4 23.3-2.7 7.6-8.1 13.9-15.1 17.8-4.9 2.7-10.4 4.1-16 4.1zm-.1-64c-7.9 0-15.5 3-21.2 8.4-5.8 5.4-9.3 12.7-9.8 20.6-.6 7.9 1.9 15.6 6.9 21.8 5 6.1 12.1 10.2 19.9 11.3s15.7-.8 22.2-5.3 11-11.3 12.6-19c1.7-7.7.3-15.8-3.7-22.5-4-6.8-10.5-11.7-18.1-13.9-2.9-1-5.8-1.5-8.8-1.4z" fill="#f39719"/><path d="m332.5 234.4c-.2-.6-.6-1.2-1-1.6s-.9-.8-1.5-1c-.7-.3-1.4-.4-2.1-.5-1-.1-1.9-.1-2.9 0-1.8.1-3.5.1-5.3 0-1.5-.1-3-.3-4.4-.8-1.3-.4-2.5-1.1-3.5-2-1.1-1-1.9-2.3-2.5-3.7-.5-1.3-.8-2.6-.8-4 0-1.3.3-2.5.9-3.7s1.4-2.3 2.4-3.3c1.1-1.1 2.4-2 3.8-2.7l-2-5.2 4.1-1.7 2.1 5.1c1.4-.4 3-.5 4.5-.5 1.4.1 2.7.4 4 1s2.4 1.5 3.3 2.5c1 1.2 1.9 2.5 2.5 4l-7.4 3c-.5-1.6-1.6-2.9-3-3.8-.6-.3-1.3-.4-2-.4s-1.4.2-2 .4c-.7.3-1.3.6-1.9 1.1-.4.4-.8.9-1 1.4s-.3 1.1-.3 1.6c0 .6.2 1.2.4 1.7s.5 1.1.9 1.5.9.7 1.4 1c.7.3 1.4.4 2.1.5 1 .1 2 .1 3 .1 1.9-.1 3.7 0 5.3.1 1.5.1 3 .4 4.4.8 1.3.4 2.5 1.1 3.5 2 1.1 1 1.9 2.3 2.5 3.7.5 1.3.8 2.7.8 4s-.3 2.5-.9 3.7-1.4 2.3-2.5 3.2c-1.1 1.1-2.4 1.9-3.8 2.6l1.9 4.7-4.1 1.6-1.9-4.7c-1.5.4-3 .7-4.5.7-1.5.1-2.9-.1-4.3-.6s-2.7-1.3-3.8-2.4c-1.3-1.3-2.3-2.8-2.9-4.5l7.4-3c.4 1 .9 1.9 1.6 2.6.6.6 1.2 1 2 1.3.7.2 1.5.3 2.2.2s1.5-.3 2.2-.6 1.4-.7 2-1.2c.5-.4.9-.9 1.2-1.5.3-.5.4-1.1.4-1.7-.2.2-.3-.4-.5-1z" fill="#f39719"/><path d="m407.5 176.7-46.1 16.6 5.9 16.5 46.1-16.6z" fill="#d3897d"/><path d="m386.1 303.2 12-55.4h52.4l-34.9 60z" fill="#34233c"/><path d="m416.2 382.2v-78.7h-29.9v78.7z" fill="#34233c"/><path d="m398.1 247.8h19.4l-19.4 57.6-1.9 77.1-9.8-.2-.3-79z"/><path d="m406.2 76.3h25.3v28.4c0 2.8-1.1 5.6-3.1 7.6s-4.7 3.1-7.6 3.1h-3.9c-2.8 0-5.6-1.1-7.6-3.1s-3.1-4.7-3.1-7.6z" fill="#d3897d"/><path d="m408.6 87.7c6.3 0 11.3-5.1 11.3-11.3 0-6.3-5.1-11.3-11.3-11.3s-11.3 5.1-11.3 11.3 5.1 11.3 11.3 11.3z" fill="#34233c"/><path d="m430.4 71.6-21.8-6.6 10.2 16.2h6.6l3-1.8-.2 18h8.4l3.6-8.6c.6-1.5.7-3.1.3-4.6s-1.4-2.9-2.7-3.8l-2.5-1.7c.1-1.6-.3-3.1-1.2-4.4s-2.2-2.3-3.7-2.7z" fill="#34233c"/><path d="m433.1 103.3c2.3 0 4.2-1.9 4.2-4.2s-1.9-4.2-4.2-4.2-4.2 1.9-4.2 4.2c.1 2.3 1.9 4.2 4.2 4.2z" fill="#d3897d"/><path d="m418.8 81.2h6.6l3-1.8-.2 18-3.5-13.4h-5.8s-1.5 2.5-8 3.7c-.1-.1 6.8-1.6 7.9-6.5z" fill="#c1736b"/><path d="m432.1 101.4-15.6 3.4 4.9 22.7 15.6-3.4z" fill="#d3897d"/><path d="m398.1 167.9h17l-17 57.5z" fill="#005fcc"/><path d="m415.7 382.4h-19.5v16.4h19.5z" fill="#d3897d"/><path d="m365.9 406v-2c0-.9.3-1.8.9-2.6.6-.7 1.4-1.3 2.3-1.5l20.8-5.7 3-4.5c.4-.5.9-1 1.4-1.3s1.2-.5 1.9-.5h.1v7h19.4v11z" fill="#fac348"/><path d="m365.9 406h49.9v3.9c0 .2 0 .5-.1.7s-.2.4-.4.6-.4.3-.6.4-.4.1-.7.1h-46.4c-.2 0-.5 0-.7-.1s-.4-.2-.6-.4-.3-.4-.4-.6-.1-.4-.1-.7v-3.9z" fill="#f39719"/><path d="m396.2 382.4 19.5 5.5v-5.5z" fill="#c1736b"/><path d="m499.2 373-19.1 4.1 3.5 16 19.1-4.1z" fill="#d3897d"/><path d="m455.4 406.5-.4-1.9c-.2-.9-.1-1.9.3-2.7s1.1-1.5 1.9-2l19.2-10 2-5c.3-.6.7-1.1 1.2-1.5s1.1-.7 1.7-.8h.1l1.5 6.9 19-4.1 2.3 10.8z" fill="#fac348"/><path d="m455.5 406.5 48.7-10.5.8 3.8c.1.4 0 .9-.2 1.3s-.6.7-1.1.8l-45.4 9.8c-.4.1-.9 0-1.3-.2s-.7-.6-.8-1.1z" fill="#f39719"/><path d="m481.2 382.5h20l-2.1-9.5z" fill="#c1736b"/><path d="m361.4 193.2-6.9 2.5c-.5.2-1 .5-1.4.9s-.7.9-.8 1.5l-3 11.8c-.2.6-.1 1.3.2 1.9s.8 1 1.4 1.2 1.3.2 1.9 0 1.1-.7 1.4-1.3l2.6-9.6 15.5 4.8z" fill="#d3897d"/><path d="m358 200.2-.8-.1c-1.2-.2-2.4.6-2.6 1.8l-2.8 15.6c-.2 1.2.6 2.4 1.8 2.6l.8.1c1.2.2 2.4-.6 2.6-1.8l2.8-15.6c.3-1.2-.5-2.4-1.8-2.6z" fill="#d3897d"/><path d="m363.3 198.4-.8-.1c-1.2-.2-2.4.6-2.6 1.8l-2.8 15.6c-.2 1.2.6 2.4 1.8 2.6l.8.1c1.2.2 2.4-.6 2.6-1.8l2.8-15.6c.2-1.2-.6-2.4-1.8-2.6z" fill="#d3897d"/><path d="m368.2 199.9-.8-.1c-1.2-.2-2.4.6-2.6 1.8l-1.9 10.5c-.2 1.2.6 2.4 1.8 2.6l.8.1c1.2.2 2.4-.6 2.6-1.8l1.9-10.5c.2-1.2-.6-2.4-1.8-2.6z" fill="#d3897d"/><path d="m419.2 115.4s10.6-2.4 13.4-12.1l3.4 16.2z" fill="#c1736b"/><path d="m402.5 202.2 9.1 15.7 3.3-3.3z" fill="#c1736b"/><path d="m478.4 383.5-28.5-50.9-38.7-101.3 45.5 16.4 14.7 67.5 32.1 61.8z" fill="#34233c"/><path d="m456.8 247.8h-58.6v-86c0-9.1 3.1-18 8.7-25.2s13.5-12.3 22.4-14.5c3.3-.8 6.7-.9 10-.2s6.4 2.1 9 4.2c2.7 2.1 4.8 4.7 6.3 7.8 1.5 3 2.2 6.4 2.2 9.7z" fill="#0072f5"/><path d="m456.7 247.8-26 34.7 19.2 50.2 12.8-57.6z"/><path d="m448.9 214.7-15.8 2.8-5.7-42.2 21-.9z" fill="#d3897d"/><path d="m449.1 131.9.8 79.2-18.8 5.3-16.6-79z" fill="#0072f5"/><g fill="#d3897d"><path d="m432.5 210.4-3.5 40.7 16.3 1.4 3.5-40.7z"/><path d="m426.9 249.9-1.2 13.9c-.1 1 .7 2 1.7 2.1l.7.1c1 .1 2-.7 2.1-1.7l1.2-13.9c.1-1-.7-2-1.7-2.1l-.7-.1c-1.1-.1-2 .6-2.1 1.7z"/><path d="m431.3 251.6-1.6 18.3c-.1.9.6 1.7 1.5 1.8l.6.1c.9.1 1.7-.6 1.8-1.5l1.6-18.4c.1-.9-.6-1.7-1.5-1.8l-.6-.1c-.9 0-1.7.7-1.8 1.6z"/><path d="m437.8 250.2-1.6 18.4c-.1.9.6 1.7 1.5 1.8l.6.1c.9.1 1.7-.6 1.8-1.5l1.6-18.4c.1-.9-.6-1.7-1.5-1.8l-.6-.1c-1-.1-1.8.6-1.8 1.5z"/><path d="m441.9 247.2-1.5 17c-.1.9.6 1.7 1.5 1.8l.6.1c.9.1 1.7-.6 1.8-1.5l1.5-17c.1-.9-.6-1.7-1.5-1.8l-.6-.1c-1-.1-1.7.6-1.8 1.5z"/><path d="m434.8 251.9-1.7 20.1c-.1.9.6 1.7 1.5 1.8l.6.1c.9.1 1.7-.6 1.8-1.5l1.7-20.1c.1-.9-.6-1.7-1.5-1.8l-.6-.1c-.9-.1-1.7.6-1.8 1.5z"/></g><path d="m431.4 251-1.1 12.7c0 .6-.3 1.2-.8 1.7-.5.4-1.1.7-1.7.7z" fill="#c1736b"/><path d="m419.9 161.4 10.8 35.3 1.6 16.4-1.9 21.9-10.5 1z" fill="#005fcc"/><path d="m398.1 167.9s-2.5-27.8 18.3-40.2l4.9-2.8c.1 0-23.2 14.4-23.2 43z" fill="#0072f5"/><path d="m448.9 211 7.6 21.4-9.4.9z" fill="#005fcc"/></svg>