<svg fill="none" height="550" viewBox="0 0 1160 550" width="1160" xmlns="http://www.w3.org/2000/svg" xmlns:xlink="http://www.w3.org/1999/xlink"><filter id="a" color-interpolation-filters="sRGB" filterUnits="userSpaceOnUse" height="107" width="250" x="375" y="213"><feFlood flood-opacity="0" result="BackgroundImageFix"/><feColorMatrix in="SourceAlpha" type="matrix" values="0 0 0 0 0 0 0 0 0 0 0 0 0 0 0 0 0 0 127 0"/><feOffset dy="2"/><feGaussianBlur stdDeviation="8.5"/><feColorMatrix type="matrix" values="0 0 0 0 0 0 0 0 0 0 0 0 0 0 0 0 0 0 0.08 0"/><feBlend in2="BackgroundImageFix" mode="normal" result="effect1_dropShadow"/><feBlend in="SourceGraphic" in2="effect1_dropShadow" mode="normal" result="shape"/></filter><filter id="b" color-interpolation-filters="sRGB" filterUnits="userSpaceOnUse" height="254" width="284" x="814" y="208"><feFlood flood-opacity="0" result="BackgroundImageFix"/><feColorMatrix in="SourceAlpha" type="matrix" values="0 0 0 0 0 0 0 0 0 0 0 0 0 0 0 0 0 0 127 0"/><feOffset dy="2"/><feGaussianBlur stdDeviation="8.5"/><feColorMatrix type="matrix" values="0 0 0 0 0 0 0 0 0 0 0 0 0 0 0 0 0 0 0.08 0"/><feBlend in2="BackgroundImageFix" mode="normal" result="effect1_dropShadow"/><feBlend in="SourceGraphic" in2="effect1_dropShadow" mode="normal" result="shape"/></filter><filter id="c" color-interpolation-filters="sRGB" filterUnits="userSpaceOnUse" height="121" width="127" x="62" y="83"><feFlood flood-opacity="0" result="BackgroundImageFix"/><feColorMatrix in="SourceAlpha" type="matrix" values="0 0 0 0 0 0 0 0 0 0 0 0 0 0 0 0 0 0 127 0"/><feOffset dy="2"/><feGaussianBlur stdDeviation="8.5"/><feColorMatrix type="matrix" values="0 0 0 0 0 0 0 0 0 0 0 0 0 0 0 0 0 0 0.08 0"/><feBlend in2="BackgroundImageFix" mode="normal" result="effect1_dropShadow"/><feBlend in="SourceGraphic" in2="effect1_dropShadow" mode="normal" result="shape"/></filter><filter id="d" color-interpolation-filters="sRGB" filterUnits="userSpaceOnUse" height="121" width="127" x="62" y="350"><feFlood flood-opacity="0" result="BackgroundImageFix"/><feColorMatrix in="SourceAlpha" type="matrix" values="0 0 0 0 0 0 0 0 0 0 0 0 0 0 0 0 0 0 127 0"/><feOffset dy="2"/><feGaussianBlur stdDeviation="8.5"/><feColorMatrix type="matrix" values="0 0 0 0 0 0 0 0 0 0 0 0 0 0 0 0 0 0 0.08 0"/><feBlend in2="BackgroundImageFix" mode="normal" result="effect1_dropShadow"/><feBlend in="SourceGraphic" in2="effect1_dropShadow" mode="normal" result="shape"/></filter><filter id="e" color-interpolation-filters="sRGB" filterUnits="userSpaceOnUse" height="107" width="121" x="227" y="211"><feFlood flood-opacity="0" result="BackgroundImageFix"/><feColorMatrix in="SourceAlpha" type="matrix" values="0 0 0 0 0 0 0 0 0 0 0 0 0 0 0 0 0 0 127 0"/><feOffset dy="2"/><feGaussianBlur stdDeviation="8.5"/><feColorMatrix type="matrix" values="0 0 0 0 0 0 0 0 0 0 0 0 0 0 0 0 0 0 0.08 0"/><feBlend in2="BackgroundImageFix" mode="normal" result="effect1_dropShadow"/><feBlend in="SourceGraphic" in2="effect1_dropShadow" mode="normal" result="shape"/></filter><filter id="f" color-interpolation-filters="sRGB" filterUnits="userSpaceOnUse" height="107" width="261" x="370" y="355"><feFlood flood-opacity="0" result="BackgroundImageFix"/><feColorMatrix in="SourceAlpha" type="matrix" values="0 0 0 0 0 0 0 0 0 0 0 0 0 0 0 0 0 0 127 0"/><feOffset dy="2"/><feGaussianBlur stdDeviation="8.5"/><feColorMatrix type="matrix" values="0 0 0 0 0 0 0 0 0 0 0 0 0 0 0 0 0 0 0.08 0"/><feBlend in2="BackgroundImageFix" mode="normal" result="effect1_dropShadow"/><feBlend in="SourceGraphic" in2="effect1_dropShadow" mode="normal" result="shape"/></filter><filter id="g" color-interpolation-filters="sRGB" filterUnits="userSpaceOnUse" height="107" width="121" x="655" y="213"><feFlood flood-opacity="0" result="BackgroundImageFix"/><feColorMatrix in="SourceAlpha" type="matrix" values="0 0 0 0 0 0 0 0 0 0 0 0 0 0 0 0 0 0 127 0"/><feOffset dy="2"/><feGaussianBlur stdDeviation="8.5"/><feColorMatrix type="matrix" values="0 0 0 0 0 0 0 0 0 0 0 0 0 0 0 0 0 0 0.08 0"/><feBlend in2="BackgroundImageFix" mode="normal" result="effect1_dropShadow"/><feBlend in="SourceGraphic" in2="effect1_dropShadow" mode="normal" result="shape"/></filter><filter id="h" color-interpolation-filters="sRGB" filterUnits="userSpaceOnUse" height="107" width="121" x="655" y="352"><feFlood flood-opacity="0" result="BackgroundImageFix"/><feColorMatrix in="SourceAlpha" type="matrix" values="0 0 0 0 0 0 0 0 0 0 0 0 0 0 0 0 0 0 127 0"/><feOffset dy="2"/><feGaussianBlur stdDeviation="8.5"/><feColorMatrix type="matrix" values="0 0 0 0 0 0 0 0 0 0 0 0 0 0 0 0 0 0 0.08 0"/><feBlend in2="BackgroundImageFix" mode="normal" result="effect1_dropShadow"/><feBlend in="SourceGraphic" in2="effect1_dropShadow" mode="normal" result="shape"/></filter><clipPath id="i"><path d="m426 244h54v37h-54z"/></clipPath><clipPath id="j"><path d="m417 264h46v22h-46z"/></clipPath><clipPath id="k"><path d="m0 0h44.4894v41h-44.4894z" transform="matrix(-1 0 0 1 147 121)"/></clipPath><clipPath id="l"><path d="m0 0h44.4894v41h-44.4894z" transform="matrix(-1 0 0 1 147 388)"/></clipPath><clipPath id="m"><path d="m412 387h51.8182v40h-51.8182z"/></clipPath><path d="m0 0h1160v550h-1160z" fill="#fff"/><g stroke="#e9f4ff" stroke-width="20"><path d="m273 271h427"/><path d="m564 403h130.227"/><path d="m488 297v91"/><path d="m286.523 269-72.751-115.399c-4.945-7.843-13.568-12.601-22.84-12.601h-79.932" stroke-linecap="round"/><path d="m286.523 274-72.811 120.005c-4.895 8.068-13.646 12.995-23.083 12.995h-79.629" stroke-linecap="round"/></g><path d="m273 270.5h427" stroke="#0072f5"/><path d="m564 403.5h130.227" stroke="#0072f5"/><path d="m487.5 297v91" stroke="#0072f5"/><path d="m286.523 269-72.751-115.399c-4.945-7.843-13.568-12.601-22.84-12.601h-79.932" stroke="#0072f5"/><path d="m286.523 274-72.811 120.005c-4.895 8.068-13.646 12.995-23.083 12.995h-79.629" stroke="#0072f5"/><g filter="url(#a)"><rect fill="#fff" height="73" rx="11" width="216" x="392" y="228"/></g><path d="m510.168 259.576-2.96 11.424h-2.256l-1.808-6.56c-.053-.213-.123-.485-.208-.816-.075-.341-.149-.667-.224-.976-.064-.32-.101-.56-.112-.72-.021.16-.064.4-.128.72-.064.309-.133.635-.208.976-.075.331-.144.613-.208.848l-1.76 6.528h-2.272l-2.944-11.424h2.048l1.568 6.512c.075.277.144.592.208.944.075.352.144.704.208 1.056.064.341.112.64.144.896.032-.277.08-.587.144-.928.064-.352.128-.693.192-1.024.075-.341.149-.629.224-.864l1.792-6.592h1.984l1.824 6.608c.075.245.149.539.224.88s.144.683.208 1.024.112.64.144.896c.032-.256.08-.555.144-.896.064-.352.133-.699.208-1.04.075-.352.144-.672.208-.96l1.568-6.512zm4.522 2.592c1.12 0 1.968.245 2.544.736.586.491.88 1.248.88 2.272v5.824h-1.424l-.4-1.2h-.064c-.374.469-.768.816-1.184 1.04-.416.213-.982.32-1.696.32-.779 0-1.424-.219-1.936-.656s-.768-1.115-.768-2.032c0-.896.325-1.568.976-2.016.661-.448 1.658-.699 2.992-.752l1.504-.048v-.432c0-.555-.134-.949-.4-1.184-.267-.235-.64-.352-1.12-.352-.438 0-.859.064-1.264.192-.395.117-.79.267-1.184.448l-.64-1.408c.426-.224.912-.405 1.456-.544.554-.139 1.13-.208 1.728-.208zm1.424 4.736-1.056.032c-.886.032-1.499.187-1.84.464-.342.267-.512.629-.512 1.088 0 .416.117.715.352.896.245.171.565.256.96.256.586 0 1.082-.165 1.488-.496.405-.341.608-.843.608-1.504zm9.07-4.736c.138 0 .293.011.464.032.17.011.309.027.416.048l-.176 1.872c-.107-.021-.24-.037-.4-.048-.15-.021-.278-.032-.384-.032-.427 0-.827.091-1.2.272-.374.171-.678.437-.912.8-.224.363-.336.827-.336 1.392v4.496h-2.016v-8.672h1.552l.288 1.504h.096c.256-.459.608-.848 1.056-1.168.448-.331.965-.496 1.552-.496zm5.663 0c1.162 0 2.08.347 2.752 1.04.682.693 1.024 1.659 1.024 2.896v1.024h-5.728c.021.789.24 1.403.656 1.84.416.427.992.64 1.728.64.554 0 1.056-.053 1.504-.16.448-.117.906-.283 1.376-.496v1.616c-.427.203-.87.352-1.328.448-.459.096-1.008.144-1.648.144-.854 0-1.606-.16-2.256-.48-.651-.331-1.163-.821-1.536-1.472-.363-.661-.544-1.488-.544-2.48 0-1.483.362-2.613 1.088-3.392.736-.779 1.706-1.168 2.912-1.168zm0 1.488c-.544 0-.987.176-1.328.528-.331.341-.523.853-.576 1.536h3.728c-.011-.597-.166-1.088-.464-1.472-.288-.395-.742-.592-1.36-.592zm7.824-4.816v2.896c0 .341-.016.677-.048 1.008-.021.32-.042.56-.064.72h.128c.278-.437.64-.763 1.088-.976s.944-.32 1.488-.32c.982 0 1.75.256 2.304.768.555.501.832 1.307.832 2.416v5.648h-2.016v-5.248c0-.651-.128-1.136-.384-1.456-.256-.331-.661-.496-1.216-.496-.81 0-1.365.256-1.664.768-.298.512-.448 1.243-.448 2.192v4.24h-2.016v-12.16zm15.994 7.808c0 1.44-.373 2.555-1.12 3.344-.747.779-1.76 1.168-3.04 1.168-.789 0-1.493-.176-2.112-.528s-1.104-.864-1.456-1.536-.528-1.488-.528-2.448c0-1.44.368-2.544 1.104-3.312.747-.779 1.76-1.168 3.04-1.168.8 0 1.509.176 2.128.528.619.341 1.104.848 1.456 1.52.352.661.528 1.472.528 2.432zm-6.192 0c0 .917.16 1.627.48 2.128.331.501.859.752 1.584.752.715 0 1.237-.251 1.568-.752s.496-1.211.496-2.128-.165-1.621-.496-2.112-.859-.736-1.584-.736-1.248.245-1.568.736-.48 1.195-.48 2.112zm15.972-4.32v8.672h-1.584l-.272-1.12h-.096c-.277.448-.661.773-1.152.976s-1.008.304-1.552.304c-.971 0-1.733-.251-2.288-.752-.544-.501-.816-1.307-.816-2.416v-5.664h2.016v5.264c0 .651.128 1.136.384 1.456s.661.48 1.216.48c.811 0 1.365-.256 1.664-.768.309-.512.464-1.243.464-2.192v-4.24zm8.474 6.16c0 .875-.315 1.541-.944 2-.619.448-1.51.672-2.672.672-.608 0-1.131-.043-1.568-.128-.427-.085-.843-.219-1.248-.4v-1.712c.426.203.896.373 1.408.512.522.139 1.013.208 1.472.208.554 0 .954-.085 1.2-.256.245-.171.368-.4.368-.688 0-.171-.048-.32-.144-.448-.096-.139-.283-.288-.56-.448-.278-.16-.699-.357-1.264-.592-.555-.224-1.019-.448-1.392-.672-.363-.224-.64-.491-.832-.8-.182-.309-.272-.709-.272-1.2 0-.779.309-1.365.928-1.76.618-.405 1.434-.608 2.448-.608.533 0 1.034.053 1.504.16.48.107.96.267 1.44.48l-.64 1.488c-.406-.171-.8-.315-1.184-.432s-.779-.176-1.184-.176c-.886 0-1.328.251-1.328.752 0 .181.053.336.16.464.117.128.314.267.592.416.288.139.693.309 1.216.512.512.203.954.416 1.328.64.373.213.661.48.864.8.202.309.304.715.304 1.216zm5.428-6.32c1.162 0 2.08.347 2.752 1.04.682.693 1.024 1.659 1.024 2.896v1.024h-5.728c.021.789.24 1.403.656 1.84.416.427.992.64 1.728.64.554 0 1.056-.053 1.504-.16.448-.117.906-.283 1.376-.496v1.616c-.427.203-.87.352-1.328.448-.459.096-1.008.144-1.648.144-.854 0-1.606-.16-2.256-.48-.651-.331-1.163-.821-1.536-1.472-.363-.661-.544-1.488-.544-2.48 0-1.483.362-2.613 1.088-3.392.736-.779 1.706-1.168 2.912-1.168zm0 1.488c-.544 0-.987.176-1.328.528-.331.341-.523.853-.576 1.536h3.728c-.011-.597-.166-1.088-.464-1.472-.288-.395-.742-.592-1.36-.592z" fill="#979797"/><g filter="url(#b)"><rect fill="#fff" height="220" rx="11" width="250" x="831" y="223"/></g><g clip-path="url(#i)"><path d="m428.332 256.752h51.668l-24.39-12.752z" fill="#ff5753"/><path d="m480.022 257h-51.69v24.463h51.69z" fill="#ff5753"/><path d="m436 259h-2v22h2z" fill="#dd3935"/><path d="m474 259h-2v22h2z" fill="#dd3935"/><path d="m480.022 256.752h-51.69v5.006h51.69z" fill="#ff5753"/><path d="m472 262h-36v21h36z" fill="#fff"/><path d="m434 260h40v2h-40z" fill="#34233c"/><g stroke="#dd3935" stroke-linecap="round" stroke-linejoin="round"><path d="m434.5 254.5h40"/><path d="m445.5 249.5h19"/></g></g><g clip-path="url(#j)"><path d="m440.497 279.618h13.775v-12.981h-13.775z" fill="#f39719"/><path d="m440.538 279.618h6.85v-12.981h-6.85z" fill="#ffc347"/><path d="m419.628 286.04h13.776v-12.981h-13.776z" fill="#f39719"/><path d="m419.67 286.04h6.85v-12.981h-6.85z" fill="#ffc347"/><path d="m449.803 286.204h10.389v-9.79h-10.389z" fill="#f39719"/><path d="m449.845 286.204h5.156v-9.79h-5.156z" fill="#ffc347"/><path d="m430.144 286.204h19.672v-6.599h-19.672z" fill="#f39719"/><path d="m430.144 286h10.514v-6.471h-10.514z" fill="#ffc347"/></g><path d="m869.08 262.988c0 1.036-.177 1.941-.532 2.716-.345.765-.863 1.363-1.554 1.792-.681.429-1.521.644-2.52.644-1.036 0-1.899-.215-2.59-.644-.681-.429-1.19-1.031-1.526-1.806s-.504-1.68-.504-2.716c0-1.017.168-1.909.504-2.674.336-.775.845-1.377 1.526-1.806.691-.429 1.559-.644 2.604-.644.999 0 1.839.215 2.52.644.681.42 1.195 1.017 1.54 1.792.355.765.532 1.666.532 2.702zm-7.896 0c0 1.26.266 2.254.798 2.982.532.719 1.363 1.078 2.492 1.078s1.955-.359 2.478-1.078c.532-.728.798-1.722.798-2.982s-.261-2.245-.784-2.954c-.523-.719-1.349-1.078-2.478-1.078-1.139 0-1.974.359-2.506 1.078-.532.709-.798 1.694-.798 2.954zm13.556-2.632c.896 0 1.572.219 2.03.658.457.439.686 1.139.686 2.1v4.886h-1.218v-4.802c0-1.204-.56-1.806-1.68-1.806-.831 0-1.405.233-1.722.7-.318.467-.476 1.139-.476 2.016v3.892h-1.232v-7.504h.994l.182 1.022h.07c.242-.392.578-.681 1.008-.868.429-.196.882-.294 1.358-.294zm11.185 6.776c.186 0 .378-.014.574-.042s.354-.065.476-.112v.938c-.131.065-.318.117-.56.154-.243.047-.476.07-.7.07-.392 0-.756-.065-1.092-.196-.327-.14-.593-.378-.798-.714-.206-.336-.308-.807-.308-1.414v-4.368h-1.064v-.588l1.078-.49.49-1.596h.728v1.722h2.17v.952h-2.17v4.34c0 .457.107.798.322 1.022.224.215.508.322.854.322zm3.182-9.45c.187 0 .35.065.49.196.149.121.224.317.224.588s-.075.471-.224.602c-.14.121-.303.182-.49.182-.205 0-.378-.061-.518-.182-.14-.131-.21-.331-.21-.602s.07-.467.21-.588c.14-.131.313-.196.518-.196zm.602 2.814v7.504h-1.232v-7.504zm10.609-.14c.85 0 1.484.219 1.904.658s.63 1.139.63 2.1v4.886h-1.218v-4.83c0-1.185-.508-1.778-1.526-1.778-.728 0-1.25.21-1.568.63-.308.42-.462 1.031-.462 1.834v4.144h-1.218v-4.83c0-1.185-.513-1.778-1.54-1.778-.756 0-1.278.233-1.568.7-.289.467-.434 1.139-.434 2.016v3.892h-1.232v-7.504h.994l.182 1.022h.07c.234-.392.546-.681.938-.868.402-.196.826-.294 1.274-.294 1.176 0 1.942.42 2.296 1.26h.07c.252-.429.593-.747 1.022-.952.43-.205.892-.308 1.386-.308zm7.75 0c.635 0 1.186.14 1.652.42.467.28.822.677 1.064 1.19.252.504.378 1.097.378 1.778v.742h-5.138c.019.849.234 1.498.644 1.946.42.439 1.004.658 1.75.658.476 0 .896-.042 1.26-.126.374-.093.756-.224 1.148-.392v1.078c-.382.168-.76.289-1.134.364-.373.084-.816.126-1.33.126-.718 0-1.348-.145-1.89-.434-.541-.289-.966-.719-1.274-1.288-.298-.569-.448-1.274-.448-2.114 0-.821.136-1.526.406-2.114.28-.588.668-1.041 1.162-1.358.504-.317 1.088-.476 1.75-.476zm-.014 1.008c-.588 0-1.054.191-1.4.574-.336.373-.536.896-.602 1.568h3.822c-.009-.635-.158-1.148-.448-1.54-.289-.401-.746-.602-1.372-.602zm11.316 6.776c-.934 0-1.68-.322-2.24-.966-.56-.653-.84-1.624-.84-2.912s.28-2.259.84-2.912c.569-.663 1.32-.994 2.254-.994.578 0 1.05.107 1.414.322.373.215.676.476.91.784h.084c-.019-.121-.038-.299-.056-.532-.019-.243-.028-.434-.028-.574v-2.996h1.232v10.64h-.994l-.182-1.008h-.056c-.224.317-.523.588-.896.812-.374.224-.854.336-1.442.336zm.196-1.022c.793 0 1.348-.215 1.666-.644.326-.439.49-1.097.49-1.974v-.224c0-.933-.154-1.647-.462-2.142-.308-.504-.878-.756-1.708-.756-.663 0-1.162.266-1.498.798-.327.523-.49 1.227-.49 2.114 0 .896.163 1.591.49 2.086.336.495.84.742 1.512.742zm8.655-6.762c.634 0 1.185.14 1.652.42.466.28.821.677 1.064 1.19.252.504.378 1.097.378 1.778v.742h-5.138c.018.849.233 1.498.644 1.946.42.439 1.003.658 1.75.658.476 0 .896-.042 1.26-.126.373-.093.756-.224 1.148-.392v1.078c-.383.168-.761.289-1.134.364-.374.084-.817.126-1.33.126-.719 0-1.349-.145-1.89-.434-.542-.289-.966-.719-1.274-1.288-.299-.569-.448-1.274-.448-2.114 0-.821.135-1.526.406-2.114.28-.588.667-1.041 1.162-1.358.504-.317 1.087-.476 1.75-.476zm-.014 1.008c-.588 0-1.055.191-1.4.574-.336.373-.537.896-.602 1.568h3.822c-.01-.635-.159-1.148-.448-1.54-.29-.401-.747-.602-1.372-.602zm6.25 6.636h-1.232v-10.64h1.232zm3.008-10.318c.186 0 .35.065.49.196.149.121.224.317.224.588s-.075.471-.224.602c-.14.121-.304.182-.49.182-.206 0-.378-.061-.518-.182-.14-.131-.21-.331-.21-.602s.07-.467.21-.588c.14-.131.312-.196.518-.196zm.602 2.814v7.504h-1.232v-7.504zm4.029 7.504-2.842-7.504h1.316l1.596 4.424c.075.205.154.434.238.686s.159.495.224.728.112.425.14.574h.056c.028-.149.079-.341.154-.574.075-.243.154-.485.238-.728.084-.252.163-.481.238-.686l1.596-4.424h1.316l-2.856 7.504zm8.355-7.644c.635 0 1.186.14 1.652.42.467.28.822.677 1.064 1.19.252.504.378 1.097.378 1.778v.742h-5.138c.019.849.234 1.498.644 1.946.42.439 1.004.658 1.75.658.476 0 .896-.042 1.26-.126.374-.093.756-.224 1.148-.392v1.078c-.382.168-.76.289-1.134.364-.373.084-.816.126-1.33.126-.718 0-1.348-.145-1.89-.434-.541-.289-.966-.719-1.274-1.288-.298-.569-.448-1.274-.448-2.114 0-.821.136-1.526.406-2.114.28-.588.668-1.041 1.162-1.358.504-.317 1.088-.476 1.75-.476zm-.014 1.008c-.588 0-1.054.191-1.4.574-.336.373-.536.896-.602 1.568h3.822c-.009-.635-.158-1.148-.448-1.54-.289-.401-.746-.602-1.372-.602zm8.519-1.008c.14 0 .289.009.448.028.158.009.303.028.434.056l-.154 1.134c-.122-.028-.257-.051-.406-.07-.15-.019-.285-.028-.406-.028-.383 0-.742.107-1.078.322-.336.205-.607.499-.812.882-.196.373-.294.812-.294 1.316v4.004h-1.232v-7.504h1.008l.14 1.372h.056c.233-.411.541-.765.924-1.064.392-.299.849-.448 1.372-.448zm2.913-2.674c.186 0 .35.065.49.196.149.121.224.317.224.588s-.075.471-.224.602c-.14.121-.304.182-.49.182-.206 0-.378-.061-.518-.182-.14-.131-.21-.331-.21-.602s.07-.467.21-.588c.14-.131.312-.196.518-.196zm.602 2.814v7.504h-1.232v-7.504zm5.275-.14c.635 0 1.186.14 1.652.42.467.28.822.677 1.064 1.19.252.504.378 1.097.378 1.778v.742h-5.138c.019.849.234 1.498.644 1.946.42.439 1.004.658 1.75.658.476 0 .896-.042 1.26-.126.374-.093.756-.224 1.148-.392v1.078c-.382.168-.76.289-1.134.364-.373.084-.816.126-1.33.126-.718 0-1.348-.145-1.89-.434-.541-.289-.966-.719-1.274-1.288-.298-.569-.448-1.274-.448-2.114 0-.821.136-1.526.406-2.114.28-.588.668-1.041 1.162-1.358.504-.317 1.088-.476 1.75-.476zm-.014 1.008c-.588 0-1.054.191-1.4.574-.336.373-.536.896-.602 1.568h3.822c-.009-.635-.158-1.148-.448-1.54-.289-.401-.746-.602-1.372-.602zm9.905 4.564c0 .728-.271 1.279-.812 1.652-.542.373-1.27.56-2.184.56-.523 0-.976-.042-1.358-.126-.374-.084-.705-.201-.994-.35v-1.12c.298.149.658.289 1.078.42.429.121.863.182 1.302.182.625 0 1.078-.098 1.358-.294.28-.205.42-.476.42-.812 0-.187-.052-.355-.154-.504-.103-.149-.29-.299-.56-.448-.262-.149-.64-.317-1.134-.504-.486-.187-.901-.373-1.246-.56-.346-.187-.612-.411-.798-.672-.187-.261-.28-.597-.28-1.008 0-.635.256-1.125.77-1.47.522-.345 1.204-.518 2.044-.518.457 0 .882.047 1.274.14.401.093.774.215 1.12.364l-.42.98c-.318-.131-.649-.243-.994-.336-.346-.093-.7-.14-1.064-.14-.504 0-.892.084-1.162.252-.262.159-.392.378-.392.658 0 .215.06.392.182.532.121.14.322.28.602.42.289.14.672.299 1.148.476s.882.359 1.218.546.592.415.77.686c.177.261.266.593.266.994zm-114.465 42.072h-3.612v-.728l1.176-.266v-7.994l-1.176-.28v-.728h3.612v.728l-1.176.28v7.994l1.176.266zm5.374-7.644c.896 0 1.573.219 2.03.658s.686 1.139.686 2.1v4.886h-1.218v-4.802c0-1.204-.56-1.806-1.68-1.806-.831 0-1.405.233-1.722.7s-.476 1.139-.476 2.016v3.892h-1.232v-7.504h.994l.182 1.022h.07c.243-.392.579-.681 1.008-.868.429-.196.882-.294 1.358-.294zm8.052 7.784c-.672 0-1.264-.135-1.778-.406-.513-.271-.919-.691-1.218-1.26-.289-.569-.434-1.297-.434-2.184 0-.924.15-1.675.448-2.254.308-.579.728-1.003 1.26-1.274s1.134-.406 1.806-.406c.374 0 .738.042 1.092.126.364.075.658.168.882.28l-.378 1.022c-.224-.084-.485-.163-.784-.238-.298-.075-.578-.112-.84-.112-1.474 0-2.212.947-2.212 2.842 0 .905.178 1.601.532 2.086.364.476.901.714 1.61.714.402 0 .761-.042 1.078-.126.318-.084.607-.187.868-.308v1.092c-.252.131-.532.229-.84.294-.298.075-.662.112-1.092.112zm7.217-7.784c.14 0 .289.009.448.028.159.009.303.028.434.056l-.154 1.134c-.121-.028-.257-.051-.406-.07s-.285-.028-.406-.028c-.383 0-.742.107-1.078.322-.336.205-.607.499-.812.882-.196.373-.294.812-.294 1.316v4.004h-1.232v-7.504h1.008l.14 1.372h.056c.233-.411.541-.765.924-1.064.392-.299.849-.448 1.372-.448zm4.908 0c.634 0 1.185.14 1.652.42.466.28.821.677 1.064 1.19.252.504.378 1.097.378 1.778v.742h-5.138c.018.849.233 1.498.644 1.946.42.439 1.003.658 1.75.658.476 0 .896-.042 1.26-.126.373-.093.756-.224 1.148-.392v1.078c-.383.168-.761.289-1.134.364-.374.084-.817.126-1.33.126-.719 0-1.349-.145-1.89-.434-.542-.289-.966-.719-1.274-1.288-.299-.569-.448-1.274-.448-2.114 0-.821.135-1.526.406-2.114.28-.588.667-1.041 1.162-1.358.504-.317 1.087-.476 1.75-.476zm-.014 1.008c-.588 0-1.055.191-1.4.574-.336.373-.537.896-.602 1.568h3.822c-.01-.635-.159-1.148-.448-1.54-.29-.401-.747-.602-1.372-.602zm7.86-.994c.915 0 1.591.201 2.03.602s.658 1.041.658 1.918v5.11h-.896l-.238-1.064h-.056c-.327.411-.672.714-1.036.91s-.859.294-1.484.294c-.681 0-1.246-.177-1.694-.532-.448-.364-.672-.929-.672-1.694 0-.747.294-1.321.882-1.722.588-.411 1.493-.635 2.716-.672l1.274-.042v-.448c0-.625-.135-1.059-.406-1.302s-.653-.364-1.148-.364c-.392 0-.765.061-1.12.182-.355.112-.686.243-.994.392l-.378-.924c.327-.177.714-.327 1.162-.448.448-.131.915-.196 1.4-.196zm1.47 3.962-1.106.042c-.933.037-1.582.187-1.946.448-.355.261-.532.63-.532 1.106 0 .42.126.728.378.924.261.196.593.294.994.294.625 0 1.148-.173 1.568-.518.429-.355.644-.896.644-1.624zm8.422 1.596c0 .728-.271 1.279-.812 1.652-.542.373-1.27.56-2.184.56-.523 0-.976-.042-1.358-.126-.374-.084-.705-.201-.994-.35v-1.12c.298.149.658.289 1.078.42.429.121.863.182 1.302.182.625 0 1.078-.098 1.358-.294.28-.205.42-.476.42-.812 0-.187-.052-.355-.154-.504-.103-.149-.29-.299-.56-.448-.262-.149-.64-.317-1.134-.504-.486-.187-.901-.373-1.246-.56-.346-.187-.612-.411-.798-.672-.187-.261-.28-.597-.28-1.008 0-.635.256-1.125.77-1.47.522-.345 1.204-.518 2.044-.518.457 0 .882.047 1.274.14.401.093.774.215 1.12.364l-.42.98c-.318-.131-.649-.243-.994-.336-.346-.093-.7-.14-1.064-.14-.504 0-.892.084-1.162.252-.262.159-.392.378-.392.658 0 .215.06.392.182.532.121.14.322.28.602.42.289.14.672.299 1.148.476s.882.359 1.218.546.592.415.77.686c.177.261.266.593.266.994zm4.711-5.572c.635 0 1.185.14 1.652.42s.821.677 1.064 1.19c.252.504.378 1.097.378 1.778v.742h-5.138c.019.849.233 1.498.644 1.946.42.439 1.003.658 1.75.658.476 0 .896-.042 1.26-.126.373-.093.756-.224 1.148-.392v1.078c-.383.168-.761.289-1.134.364-.373.084-.817.126-1.33.126-.719 0-1.349-.145-1.89-.434s-.966-.719-1.274-1.288c-.299-.569-.448-1.274-.448-2.114 0-.821.135-1.526.406-2.114.28-.588.667-1.041 1.162-1.358.504-.317 1.087-.476 1.75-.476zm-.014 1.008c-.588 0-1.055.191-1.4.574-.336.373-.537.896-.602 1.568h3.822c-.009-.635-.159-1.148-.448-1.54-.289-.401-.747-.602-1.372-.602zm7.678 6.776c-.933 0-1.68-.322-2.24-.966-.56-.653-.84-1.624-.84-2.912s.28-2.259.84-2.912c.57-.663 1.321-.994 2.254-.994.579 0 1.05.107 1.414.322.374.215.677.476.91.784h.084c-.018-.121-.037-.299-.056-.532-.018-.243-.028-.434-.028-.574v-2.996h1.232v10.64h-.994l-.182-1.008h-.056c-.224.317-.522.588-.896.812-.373.224-.854.336-1.442.336zm.196-1.022c.794 0 1.349-.215 1.666-.644.327-.439.49-1.097.49-1.974v-.224c0-.933-.154-1.647-.462-2.142-.308-.504-.877-.756-1.708-.756-.662 0-1.162.266-1.498.798-.326.523-.49 1.227-.49 2.114 0 .896.164 1.591.49 2.086.336.495.84.742 1.512.742zm12.404 1.022c-.672 0-1.264-.135-1.778-.406-.513-.271-.919-.691-1.218-1.26-.289-.569-.434-1.297-.434-2.184 0-.924.15-1.675.448-2.254.308-.579.728-1.003 1.26-1.274s1.134-.406 1.806-.406c.374 0 .738.042 1.092.126.364.075.658.168.882.28l-.378 1.022c-.224-.084-.485-.163-.784-.238-.298-.075-.578-.112-.84-.112-1.474 0-2.212.947-2.212 2.842 0 .905.178 1.601.532 2.086.364.476.901.714 1.61.714.402 0 .761-.042 1.078-.126.318-.084.607-.187.868-.308v1.092c-.252.131-.532.229-.84.294-.298.075-.662.112-1.092.112zm9.989-7.644v7.504h-1.008l-.182-.994h-.056c-.243.392-.579.681-1.008.868-.429.177-.887.266-1.372.266-.905 0-1.587-.215-2.044-.644-.457-.439-.686-1.134-.686-2.086v-4.914h1.246v4.83c0 1.195.555 1.792 1.666 1.792.831 0 1.405-.233 1.722-.7.327-.467.49-1.139.49-2.016v-3.906zm7.268 5.432c0 .728-.27 1.279-.812 1.652-.541.373-1.269.56-2.184.56-.522 0-.975-.042-1.358-.126-.373-.084-.704-.201-.994-.35v-1.12c.299.149.658.289 1.078.42.43.121.864.182 1.302.182.626 0 1.078-.098 1.358-.294.28-.205.42-.476.42-.812 0-.187-.051-.355-.154-.504-.102-.149-.289-.299-.56-.448-.261-.149-.639-.317-1.134-.504-.485-.187-.9-.373-1.246-.56-.345-.187-.611-.411-.798-.672-.186-.261-.28-.597-.28-1.008 0-.635.257-1.125.77-1.47.523-.345 1.204-.518 2.044-.518.458 0 .882.047 1.274.14.402.093.775.215 1.12.364l-.42.98c-.317-.131-.648-.243-.994-.336-.345-.093-.7-.14-1.064-.14-.504 0-.891.084-1.162.252-.261.159-.392.378-.392.658 0 .215.061.392.182.532.122.14.322.28.602.42.29.14.672.299 1.148.476s.882.359 1.218.546.593.415.77.686c.178.261.266.593.266.994zm4.319 1.204c.187 0 .378-.014.574-.042s.355-.065.476-.112v.938c-.13.065-.317.117-.56.154-.242.047-.476.07-.7.07-.392 0-.756-.065-1.092-.196-.326-.14-.592-.378-.798-.714-.205-.336-.308-.807-.308-1.414v-4.368h-1.064v-.588l1.078-.49.49-1.596h.728v1.722h2.17v.952h-2.17v4.34c0 .457.108.798.322 1.022.224.215.509.322.854.322zm9.077-2.898c0 1.241-.317 2.203-.952 2.884-.625.681-1.475 1.022-2.548 1.022-.663 0-1.255-.149-1.778-.448-.513-.308-.919-.751-1.218-1.33-.299-.588-.448-1.297-.448-2.128 0-1.241.308-2.198.924-2.87.625-.672 1.479-1.008 2.562-1.008.672 0 1.269.154 1.792.462.523.299.929.737 1.218 1.316.299.569.448 1.269.448 2.1zm-5.67 0c0 .887.173 1.591.518 2.114.355.513.915.77 1.68.77.756 0 1.311-.257 1.666-.77.355-.523.532-1.227.532-2.114s-.177-1.582-.532-2.086-.915-.756-1.68-.756-1.321.252-1.666.756-.518 1.199-.518 2.086zm15.855-3.878c.849 0 1.484.219 1.904.658s.63 1.139.63 2.1v4.886h-1.218v-4.83c0-1.185-.509-1.778-1.526-1.778-.728 0-1.251.21-1.568.63-.308.42-.462 1.031-.462 1.834v4.144h-1.218v-4.83c0-1.185-.514-1.778-1.54-1.778-.756 0-1.279.233-1.568.7-.29.467-.434 1.139-.434 2.016v3.892h-1.232v-7.504h.994l.182 1.022h.07c.233-.392.546-.681.938-.868.401-.196.826-.294 1.274-.294 1.176 0 1.941.42 2.296 1.26h.07c.252-.429.592-.747 1.022-.952.429-.205.891-.308 1.386-.308zm7.75 0c.634 0 1.185.14 1.652.42.466.28.821.677 1.064 1.19.252.504.378 1.097.378 1.778v.742h-5.138c.018.849.233 1.498.644 1.946.42.439 1.003.658 1.75.658.476 0 .896-.042 1.26-.126.373-.093.756-.224 1.148-.392v1.078c-.383.168-.761.289-1.134.364-.374.084-.817.126-1.33.126-.719 0-1.349-.145-1.89-.434-.542-.289-.966-.719-1.274-1.288-.299-.569-.448-1.274-.448-2.114 0-.821.135-1.526.406-2.114.28-.588.667-1.041 1.162-1.358.504-.317 1.087-.476 1.75-.476zm-.014 1.008c-.588 0-1.055.191-1.4.574-.336.373-.537.896-.602 1.568h3.822c-.01-.635-.159-1.148-.448-1.54-.29-.401-.747-.602-1.372-.602zm8.518-1.008c.14 0 .289.009.448.028.159.009.303.028.434.056l-.154 1.134c-.121-.028-.257-.051-.406-.07s-.285-.028-.406-.028c-.383 0-.742.107-1.078.322-.336.205-.607.499-.812.882-.196.373-.294.812-.294 1.316v4.004h-1.232v-7.504h1.008l.14 1.372h.056c.233-.411.541-.765.924-1.064.392-.299.849-.448 1.372-.448zm-123.452 25.572c0 .728-.271 1.279-.812 1.652s-1.269.56-2.184.56c-.523 0-.975-.042-1.358-.126-.373-.084-.705-.201-.994-.35v-1.12c.299.149.658.289 1.078.42.429.121.863.182 1.302.182.625 0 1.078-.098 1.358-.294.28-.205.42-.476.42-.812 0-.187-.051-.355-.154-.504s-.289-.299-.56-.448c-.261-.149-.639-.317-1.134-.504-.485-.187-.901-.373-1.246-.56s-.611-.411-.798-.672-.28-.597-.28-1.008c0-.635.257-1.125.77-1.47.523-.345 1.204-.518 2.044-.518.457 0 .882.047 1.274.14.401.093.775.215 1.12.364l-.42.98c-.317-.131-.649-.243-.994-.336s-.7-.14-1.064-.14c-.504 0-.891.084-1.162.252-.261.159-.392.378-.392.658 0 .215.061.392.182.532s.322.28.602.42c.289.14.672.299 1.148.476s.882.359 1.218.546.593.415.77.686c.177.261.266.593.266.994zm4.655-5.558c.915 0 1.592.201 2.03.602.439.401.658 1.041.658 1.918v5.11h-.896l-.238-1.064h-.056c-.326.411-.672.714-1.036.91s-.858.294-1.484.294c-.681 0-1.246-.177-1.694-.532-.448-.364-.672-.929-.672-1.694 0-.747.294-1.321.882-1.722.588-.411 1.494-.635 2.716-.672l1.274-.042v-.448c0-.625-.135-1.059-.406-1.302-.27-.243-.653-.364-1.148-.364-.392 0-.765.061-1.12.182-.354.112-.686.243-.994.392l-.378-.924c.327-.177.714-.327 1.162-.448.448-.131.915-.196 1.4-.196zm1.47 3.962-1.106.042c-.933.037-1.582.187-1.946.448-.354.261-.532.63-.532 1.106 0 .42.126.728.378.924.262.196.593.294.994.294.626 0 1.148-.173 1.568-.518.43-.355.644-.896.644-1.624zm6.042 2.8c.187 0 .378-.014.574-.042s.355-.065.476-.112v.938c-.131.065-.317.117-.56.154-.243.047-.476.07-.7.07-.392 0-.756-.065-1.092-.196-.327-.14-.593-.378-.798-.714s-.308-.807-.308-1.414v-4.368h-1.064v-.588l1.078-.49.49-1.596h.728v1.722h2.17v.952h-2.17v4.34c0 .457.107.798.322 1.022.224.215.509.322.854.322zm3.182-9.45c.187 0 .35.065.49.196.15.121.224.317.224.588s-.074.471-.224.602c-.14.121-.303.182-.49.182-.205 0-.378-.061-.518-.182-.14-.131-.21-.331-.21-.602s.07-.467.21-.588c.14-.131.313-.196.518-.196zm.602 2.814v7.504h-1.232v-7.504zm7.264 5.432c0 .728-.271 1.279-.812 1.652s-1.269.56-2.184.56c-.523 0-.975-.042-1.358-.126-.373-.084-.705-.201-.994-.35v-1.12c.299.149.658.289 1.078.42.429.121.863.182 1.302.182.625 0 1.078-.098 1.358-.294.28-.205.42-.476.42-.812 0-.187-.051-.355-.154-.504s-.289-.299-.56-.448c-.261-.149-.639-.317-1.134-.504-.485-.187-.901-.373-1.246-.56s-.611-.411-.798-.672-.28-.597-.28-1.008c0-.635.257-1.125.77-1.47.523-.345 1.204-.518 2.044-.518.457 0 .882.047 1.274.14.401.093.775.215 1.12.364l-.42.98c-.317-.131-.649-.243-.994-.336s-.7-.14-1.064-.14c-.504 0-.891.084-1.162.252-.261.159-.392.378-.392.658 0 .215.061.392.182.532s.322.28.602.42c.289.14.672.299 1.148.476s.882.359 1.218.546.593.415.77.686c.177.261.266.593.266.994zm5.271-4.48h-1.89v6.552h-1.232v-6.552h-1.316v-.574l1.316-.42v-.434c0-.971.21-1.666.63-2.086.429-.429 1.031-.644 1.806-.644.289 0 .56.028.812.084.252.047.467.103.644.168l-.322.966c-.149-.047-.322-.093-.518-.14s-.397-.07-.602-.07c-.411 0-.719.14-.924.42-.196.271-.294.7-.294 1.288v.49h1.89zm4.197-1.078c.914 0 1.591.201 2.03.602.438.401.658 1.041.658 1.918v5.11h-.896l-.238-1.064h-.056c-.327.411-.672.714-1.036.91s-.859.294-1.484.294c-.682 0-1.246-.177-1.694-.532-.448-.364-.672-.929-.672-1.694 0-.747.294-1.321.882-1.722.588-.411 1.493-.635 2.716-.672l1.274-.042v-.448c0-.625-.136-1.059-.406-1.302-.271-.243-.654-.364-1.148-.364-.392 0-.766.061-1.12.182-.355.112-.686.243-.994.392l-.378-.924c.326-.177.714-.327 1.162-.448.448-.131.914-.196 1.4-.196zm1.47 3.962-1.106.042c-.934.037-1.582.187-1.946.448-.355.261-.532.63-.532 1.106 0 .42.126.728.378.924.261.196.592.294.994.294.625 0 1.148-.173 1.568-.518.429-.355.644-.896.644-1.624zm6.545 3.808c-.672 0-1.264-.135-1.778-.406-.513-.271-.919-.691-1.218-1.26-.289-.569-.434-1.297-.434-2.184 0-.924.15-1.675.448-2.254.308-.579.728-1.003 1.26-1.274s1.134-.406 1.806-.406c.374 0 .738.042 1.092.126.364.075.658.168.882.28l-.378 1.022c-.224-.084-.485-.163-.784-.238-.298-.075-.578-.112-.84-.112-1.474 0-2.212.947-2.212 2.842 0 .905.178 1.601.532 2.086.364.476.901.714 1.61.714.402 0 .761-.042 1.078-.126.318-.084.607-.187.868-.308v1.092c-.252.131-.532.229-.84.294-.298.075-.662.112-1.092.112zm6.223-1.008c.186 0 .378-.014.574-.042s.354-.065.476-.112v.938c-.131.065-.318.117-.56.154-.243.047-.476.07-.7.07-.392 0-.756-.065-1.092-.196-.327-.14-.593-.378-.798-.714-.206-.336-.308-.807-.308-1.414v-4.368h-1.064v-.588l1.078-.49.49-1.596h.728v1.722h2.17v.952h-2.17v4.34c0 .457.107.798.322 1.022.224.215.508.322.854.322zm3.182-9.45c.187 0 .35.065.49.196.15.121.224.317.224.588s-.074.471-.224.602c-.14.121-.303.182-.49.182-.205 0-.378-.061-.518-.182-.14-.131-.21-.331-.21-.602s.07-.467.21-.588c.14-.131.313-.196.518-.196zm.602 2.814v7.504h-1.232v-7.504zm8.902 3.738c0 1.241-.318 2.203-.952 2.884-.626.681-1.475 1.022-2.548 1.022-.663 0-1.256-.149-1.778-.448-.514-.308-.92-.751-1.218-1.33-.299-.588-.448-1.297-.448-2.128 0-1.241.308-2.198.924-2.87.625-.672 1.479-1.008 2.562-1.008.672 0 1.269.154 1.792.462.522.299.928.737 1.218 1.316.298.569.448 1.269.448 2.1zm-5.67 0c0 .887.172 1.591.518 2.114.354.513.914.77 1.68.77.756 0 1.311-.257 1.666-.77.354-.523.532-1.227.532-2.114s-.178-1.582-.532-2.086c-.355-.504-.915-.756-1.68-.756-.766 0-1.321.252-1.666.756-.346.504-.518 1.199-.518 2.086zm11.234-3.878c.896 0 1.573.219 2.03.658.458.439.686 1.139.686 2.1v4.886h-1.218v-4.802c0-1.204-.56-1.806-1.68-1.806-.83 0-1.404.233-1.722.7-.317.467-.476 1.139-.476 2.016v3.892h-1.232v-7.504h.994l.182 1.022h.07c.243-.392.579-.681 1.008-.868.43-.196.882-.294 1.358-.294zm-61.167 42.632c0 1.036-.177 1.941-.532 2.716-.345.765-.863 1.363-1.554 1.792-.681.429-1.521.644-2.52.644-1.036 0-1.899-.215-2.59-.644-.681-.429-1.19-1.031-1.526-1.806s-.504-1.68-.504-2.716c0-1.017.168-1.909.504-2.674.336-.775.845-1.377 1.526-1.806.691-.429 1.559-.644 2.604-.644.999 0 1.839.215 2.52.644.681.42 1.195 1.017 1.54 1.792.355.765.532 1.666.532 2.702zm-7.896 0c0 1.26.266 2.254.798 2.982.532.719 1.363 1.078 2.492 1.078s1.955-.359 2.478-1.078c.532-.728.798-1.722.798-2.982s-.261-2.245-.784-2.954c-.523-.719-1.349-1.078-2.478-1.078-1.139 0-1.974.359-2.506 1.078-.532.709-.798 1.694-.798 2.954zm13.514-2.632c.924 0 1.666.322 2.226.966.569.644.854 1.615.854 2.912 0 1.279-.285 2.249-.854 2.912-.56.663-1.307.994-2.24.994-.579 0-1.06-.107-1.442-.322-.374-.215-.668-.471-.882-.77h-.084c.009.159.023.359.042.602.028.243.042.453.042.63v3.08h-1.232v-10.864h1.008l.168 1.022h.056c.224-.327.518-.602.882-.826s.849-.336 1.456-.336zm-.224 1.036c-.766 0-1.307.215-1.624.644-.318.429-.481 1.083-.49 1.96v.238c0 .924.149 1.638.448 2.142.308.495.872.742 1.694.742.448 0 .821-.121 1.12-.364.298-.252.518-.597.658-1.036.149-.439.224-.938.224-1.498 0-.859-.168-1.545-.504-2.058-.327-.513-.836-.77-1.526-.77zm7.773 5.74c.186 0 .378-.014.574-.042s.354-.065.476-.112v.938c-.131.065-.318.117-.56.154-.243.047-.476.07-.7.07-.392 0-.756-.065-1.092-.196-.327-.14-.593-.378-.798-.714-.206-.336-.308-.807-.308-1.414v-4.368h-1.064v-.588l1.078-.49.49-1.596h.728v1.722h2.17v.952h-2.17v4.34c0 .457.107.798.322 1.022.224.215.508.322.854.322zm3.182-9.45c.187 0 .35.065.49.196.15.121.224.317.224.588s-.074.471-.224.602c-.14.121-.303.182-.49.182-.205 0-.378-.061-.518-.182-.14-.131-.21-.331-.21-.602s.07-.467.21-.588c.14-.131.313-.196.518-.196zm.602 2.814v7.504h-1.232v-7.504zm10.61-.14c.849 0 1.484.219 1.904.658s.63 1.139.63 2.1v4.886h-1.218v-4.83c0-1.185-.509-1.778-1.526-1.778-.728 0-1.251.21-1.568.63-.308.42-.462 1.031-.462 1.834v4.144h-1.218v-4.83c0-1.185-.514-1.778-1.54-1.778-.756 0-1.279.233-1.568.7-.29.467-.434 1.139-.434 2.016v3.892h-1.232v-7.504h.994l.182 1.022h.07c.233-.392.546-.681.938-.868.401-.196.826-.294 1.274-.294 1.176 0 1.941.42 2.296 1.26h.07c.252-.429.592-.747 1.022-.952.429-.205.891-.308 1.386-.308zm5.482-2.674c.186 0 .35.065.49.196.149.121.224.317.224.588s-.075.471-.224.602c-.14.121-.304.182-.49.182-.206 0-.378-.061-.518-.182-.14-.131-.21-.331-.21-.602s.07-.467.21-.588c.14-.131.312-.196.518-.196zm.602 2.814v7.504h-1.232v-7.504zm7.221 7.504h-5.488v-.812l4.032-5.74h-3.794v-.952h5.152v.924l-3.976 5.628h4.074zm4.63-7.644c.635 0 1.186.14 1.652.42.467.28.822.677 1.064 1.19.252.504.378 1.097.378 1.778v.742h-5.138c.019.849.234 1.498.644 1.946.42.439 1.004.658 1.75.658.476 0 .896-.042 1.26-.126.374-.093.756-.224 1.148-.392v1.078c-.382.168-.76.289-1.134.364-.373.084-.816.126-1.33.126-.718 0-1.348-.145-1.89-.434-.541-.289-.966-.719-1.274-1.288-.298-.569-.448-1.274-.448-2.114 0-.821.136-1.526.406-2.114.28-.588.668-1.041 1.162-1.358.504-.317 1.088-.476 1.75-.476zm-.014 1.008c-.588 0-1.054.191-1.4.574-.336.373-.536.896-.602 1.568h3.822c-.009-.635-.158-1.148-.448-1.54-.289-.401-.746-.602-1.372-.602zm7.679 6.776c-.934 0-1.68-.322-2.24-.966-.56-.653-.84-1.624-.84-2.912s.28-2.259.84-2.912c.569-.663 1.32-.994 2.254-.994.578 0 1.05.107 1.414.322.373.215.676.476.91.784h.084c-.019-.121-.038-.299-.056-.532-.019-.243-.028-.434-.028-.574v-2.996h1.232v10.64h-.994l-.182-1.008h-.056c-.224.317-.523.588-.896.812-.374.224-.854.336-1.442.336zm.196-1.022c.793 0 1.348-.215 1.666-.644.326-.439.49-1.097.49-1.974v-.224c0-.933-.154-1.647-.462-2.142-.308-.504-.878-.756-1.708-.756-.663 0-1.162.266-1.498.798-.327.523-.49 1.227-.49 2.114 0 .896.163 1.591.49 2.086.336.495.84.742 1.512.742zm12.054 1.022c-.934 0-1.68-.322-2.24-.966-.56-.653-.84-1.624-.84-2.912s.28-2.259.84-2.912c.569-.663 1.32-.994 2.254-.994.578 0 1.05.107 1.414.322.373.215.676.476.91.784h.084c-.019-.121-.038-.299-.056-.532-.019-.243-.028-.434-.028-.574v-2.996h1.232v10.64h-.994l-.182-1.008h-.056c-.224.317-.523.588-.896.812-.374.224-.854.336-1.442.336zm.196-1.022c.793 0 1.348-.215 1.666-.644.326-.439.49-1.097.49-1.974v-.224c0-.933-.154-1.647-.462-2.142-.308-.504-.878-.756-1.708-.756-.663 0-1.162.266-1.498.798-.327.523-.49 1.227-.49 2.114 0 .896.163 1.591.49 2.086.336.495.84.742 1.512.742zm8.655-6.762c.635 0 1.185.14 1.652.42s.821.677 1.064 1.19c.252.504.378 1.097.378 1.778v.742h-5.138c.019.849.233 1.498.644 1.946.42.439 1.003.658 1.75.658.476 0 .896-.042 1.26-.126.373-.093.756-.224 1.148-.392v1.078c-.383.168-.761.289-1.134.364-.373.084-.817.126-1.33.126-.719 0-1.349-.145-1.89-.434s-.966-.719-1.274-1.288c-.299-.569-.448-1.274-.448-2.114 0-.821.135-1.526.406-2.114.28-.588.667-1.041 1.162-1.358.504-.317 1.087-.476 1.75-.476zm-.014 1.008c-.588 0-1.055.191-1.4.574-.336.373-.537.896-.602 1.568h3.822c-.009-.635-.159-1.148-.448-1.54-.289-.401-.747-.602-1.372-.602zm6.25 6.636h-1.232v-10.64h1.232zm3.008-10.318c.186 0 .35.065.49.196.149.121.224.317.224.588s-.075.471-.224.602c-.14.121-.304.182-.49.182-.206 0-.378-.061-.518-.182-.14-.131-.21-.331-.21-.602s.07-.467.21-.588c.14-.131.312-.196.518-.196zm.602 2.814v7.504h-1.232v-7.504zm4.029 7.504-2.842-7.504h1.316l1.596 4.424c.075.205.154.434.238.686s.159.495.224.728.112.425.14.574h.056c.028-.149.079-.341.154-.574.075-.243.154-.485.238-.728.084-.252.163-.481.238-.686l1.596-4.424h1.316l-2.856 7.504zm8.355-7.644c.635 0 1.186.14 1.652.42.467.28.822.677 1.064 1.19.252.504.378 1.097.378 1.778v.742h-5.138c.019.849.234 1.498.644 1.946.42.439 1.004.658 1.75.658.476 0 .896-.042 1.26-.126.374-.093.756-.224 1.148-.392v1.078c-.382.168-.76.289-1.134.364-.373.084-.816.126-1.33.126-.718 0-1.348-.145-1.89-.434-.541-.289-.966-.719-1.274-1.288-.298-.569-.448-1.274-.448-2.114 0-.821.136-1.526.406-2.114.28-.588.668-1.041 1.162-1.358.504-.317 1.088-.476 1.75-.476zm-.014 1.008c-.588 0-1.054.191-1.4.574-.336.373-.536.896-.602 1.568h3.822c-.009-.635-.158-1.148-.448-1.54-.289-.401-.746-.602-1.372-.602zm8.519-1.008c.14 0 .289.009.448.028.158.009.303.028.434.056l-.154 1.134c-.122-.028-.257-.051-.406-.07-.15-.019-.285-.028-.406-.028-.383 0-.742.107-1.078.322-.336.205-.607.499-.812.882-.196.373-.294.812-.294 1.316v4.004h-1.232v-7.504h1.008l.14 1.372h.056c.233-.411.541-.765.924-1.064.392-.299.849-.448 1.372-.448zm1.107.14h1.316l1.624 4.27c.14.383.266.742.378 1.078s.196.658.252.966h.056c.056-.233.145-.537.266-.91.121-.383.247-.765.378-1.148l1.526-4.256h1.33l-3.234 8.54c-.271.709-.611 1.274-1.022 1.694s-.98.63-1.708.63c-.224 0-.42-.014-.588-.042-.168-.019-.313-.042-.434-.07v-.98c.103.019.224.037.364.056.149.019.303.028.462.028.429 0 .775-.121 1.036-.364s.471-.565.63-.966l.392-.994zm14.959 7.644c-.672 0-1.264-.135-1.778-.406-.513-.271-.919-.691-1.218-1.26-.289-.569-.434-1.297-.434-2.184 0-.924.15-1.675.448-2.254.308-.579.728-1.003 1.26-1.274s1.134-.406 1.806-.406c.374 0 .738.042 1.092.126.364.075.658.168.882.28l-.378 1.022c-.224-.084-.485-.163-.784-.238-.298-.075-.578-.112-.84-.112-1.474 0-2.212.947-2.212 2.842 0 .905.178 1.601.532 2.086.364.476.901.714 1.61.714.402 0 .761-.042 1.078-.126.318-.084.607-.187.868-.308v1.092c-.252.131-.532.229-.84.294-.298.075-.662.112-1.092.112zm10.237-3.906c0 1.241-.31 2.203-.948 2.884-.625.681-1.475 1.022-2.548 1.022-.663 0-1.255-.149-1.778-.448-.513-.308-.919-.751-1.218-1.33-.299-.588-.448-1.297-.448-2.128 0-1.241.308-2.198.924-2.87.625-.672 1.479-1.008 2.562-1.008.672 0 1.269.154 1.792.462.523.299.929.737 1.218 1.316.294.569.444 1.269.444 2.1zm-5.666 0c0 .887.173 1.591.518 2.114.355.513.915.77 1.68.77.756 0 1.311-.257 1.666-.77.355-.523.532-1.227.532-2.114s-.177-1.582-.532-2.086-.915-.756-1.68-.756-1.321.252-1.666.756-.518 1.199-.518 2.086zm12.506 1.694c0 .728-.27 1.279-.81 1.652s-1.27.56-2.18.56c-.53 0-.98-.042-1.36-.126-.37-.084-.71-.201-1-.35v-1.12c.3.149.66.289 1.08.42.43.121.87.182 1.3.182.63 0 1.08-.098 1.36-.294.28-.205.42-.476.42-.812 0-.187-.05-.355-.15-.504s-.29-.299-.56-.448c-.26-.149-.64-.317-1.14-.504-.48-.187-.9-.373-1.24-.56-.35-.187-.61-.411-.8-.672s-.28-.597-.28-1.008c0-.635.26-1.125.77-1.47.52-.345 1.2-.518 2.04-.518.46 0 .89.047 1.28.14.4.093.77.215 1.12.364l-.42.98c-.32-.131-.65-.243-1-.336-.34-.093-.7-.14-1.06-.14-.5 0-.89.084-1.16.252-.26.159-.39.378-.39.658 0 .215.06.392.18.532s.32.28.6.42c.29.14.67.299 1.15.476.47.177.88.359 1.22.546.33.187.59.415.77.686.17.261.26.593.26.994zm4.32 1.204c.19 0 .38-.014.58-.042.19-.028.35-.065.47-.112v.938c-.13.065-.32.117-.56.154-.24.047-.47.07-.7.07-.39 0-.75-.065-1.09-.196-.33-.14-.59-.378-.8-.714-.2-.336-.31-.807-.31-1.414v-4.368h-1.06v-.588l1.08-.49.49-1.596h.73v1.722h2.17v.952h-2.17v4.34c0 .457.1.798.32 1.022.22.215.51.322.85.322zm7.44-1.204c0 .728-.27 1.279-.81 1.652s-1.27.56-2.19.56c-.52 0-.97-.042-1.35-.126s-.71-.201-1-.35v-1.12c.3.149.66.289 1.08.42.43.121.86.182 1.3.182.63 0 1.08-.098 1.36-.294.28-.205.42-.476.42-.812 0-.187-.05-.355-.15-.504-.11-.149-.29-.299-.56-.448s-.64-.317-1.14-.504c-.48-.187-.9-.373-1.24-.56-.35-.187-.62-.411-.8-.672-.19-.261-.28-.597-.28-1.008 0-.635.25-1.125.77-1.47s1.2-.518 2.04-.518c.46 0 .88.047 1.28.14s.77.215 1.12.364l-.42.98c-.32-.131-.65-.243-1-.336-.34-.093-.7-.14-1.06-.14-.51 0-.89.084-1.16.252-.27.159-.4.378-.4.658 0 .215.06.392.19.532.12.14.32.28.6.42.29.14.67.299 1.15.476.47.177.88.359 1.21.546.34.187.6.415.77.686.18.261.27.593.27.994zm-155.808 42.072h-3.612v-.728l1.176-.266v-7.994l-1.176-.28v-.728h3.612v.728l-1.176.28v7.994l1.176.266zm5.374-7.644c.896 0 1.573.219 2.03.658s.686 1.139.686 2.1v4.886h-1.218v-4.802c0-1.204-.56-1.806-1.68-1.806-.831 0-1.405.233-1.722.7s-.476 1.139-.476 2.016v3.892h-1.232v-7.504h.994l.182 1.022h.07c.243-.392.579-.681 1.008-.868.429-.196.882-.294 1.358-.294zm8.052 7.784c-.672 0-1.264-.135-1.778-.406-.513-.271-.919-.691-1.218-1.26-.289-.569-.434-1.297-.434-2.184 0-.924.15-1.675.448-2.254.308-.579.728-1.003 1.26-1.274s1.134-.406 1.806-.406c.374 0 .738.042 1.092.126.364.075.658.168.882.28l-.378 1.022c-.224-.084-.485-.163-.784-.238-.298-.075-.578-.112-.84-.112-1.474 0-2.212.947-2.212 2.842 0 .905.178 1.601.532 2.086.364.476.901.714 1.61.714.402 0 .761-.042 1.078-.126.318-.084.607-.187.868-.308v1.092c-.252.131-.532.229-.84.294-.298.075-.662.112-1.092.112zm7.217-7.784c.14 0 .289.009.448.028.159.009.303.028.434.056l-.154 1.134c-.121-.028-.257-.051-.406-.07s-.285-.028-.406-.028c-.383 0-.742.107-1.078.322-.336.205-.607.499-.812.882-.196.373-.294.812-.294 1.316v4.004h-1.232v-7.504h1.008l.14 1.372h.056c.233-.411.541-.765.924-1.064.392-.299.849-.448 1.372-.448zm4.908 0c.634 0 1.185.14 1.652.42.466.28.821.677 1.064 1.19.252.504.378 1.097.378 1.778v.742h-5.138c.018.849.233 1.498.644 1.946.42.439 1.003.658 1.75.658.476 0 .896-.042 1.26-.126.373-.093.756-.224 1.148-.392v1.078c-.383.168-.761.289-1.134.364-.374.084-.817.126-1.33.126-.719 0-1.349-.145-1.89-.434-.542-.289-.966-.719-1.274-1.288-.299-.569-.448-1.274-.448-2.114 0-.821.135-1.526.406-2.114.28-.588.667-1.041 1.162-1.358.504-.317 1.087-.476 1.75-.476zm-.014 1.008c-.588 0-1.055.191-1.4.574-.336.373-.537.896-.602 1.568h3.822c-.01-.635-.159-1.148-.448-1.54-.29-.401-.747-.602-1.372-.602zm7.86-.994c.915 0 1.591.201 2.03.602s.658 1.041.658 1.918v5.11h-.896l-.238-1.064h-.056c-.327.411-.672.714-1.036.91s-.859.294-1.484.294c-.681 0-1.246-.177-1.694-.532-.448-.364-.672-.929-.672-1.694 0-.747.294-1.321.882-1.722.588-.411 1.493-.635 2.716-.672l1.274-.042v-.448c0-.625-.135-1.059-.406-1.302s-.653-.364-1.148-.364c-.392 0-.765.061-1.12.182-.355.112-.686.243-.994.392l-.378-.924c.327-.177.714-.327 1.162-.448.448-.131.915-.196 1.4-.196zm1.47 3.962-1.106.042c-.933.037-1.582.187-1.946.448-.355.261-.532.63-.532 1.106 0 .42.126.728.378.924.261.196.593.294.994.294.625 0 1.148-.173 1.568-.518.429-.355.644-.896.644-1.624zm8.422 1.596c0 .728-.271 1.279-.812 1.652-.542.373-1.27.56-2.184.56-.523 0-.976-.042-1.358-.126-.374-.084-.705-.201-.994-.35v-1.12c.298.149.658.289 1.078.42.429.121.863.182 1.302.182.625 0 1.078-.098 1.358-.294.28-.205.42-.476.42-.812 0-.187-.052-.355-.154-.504-.103-.149-.29-.299-.56-.448-.262-.149-.64-.317-1.134-.504-.486-.187-.901-.373-1.246-.56-.346-.187-.612-.411-.798-.672-.187-.261-.28-.597-.28-1.008 0-.635.256-1.125.77-1.47.522-.345 1.204-.518 2.044-.518.457 0 .882.047 1.274.14.401.093.774.215 1.12.364l-.42.98c-.318-.131-.649-.243-.994-.336-.346-.093-.7-.14-1.064-.14-.504 0-.892.084-1.162.252-.262.159-.392.378-.392.658 0 .215.06.392.182.532.121.14.322.28.602.42.289.14.672.299 1.148.476s.882.359 1.218.546.592.415.77.686c.177.261.266.593.266.994zm4.711-5.572c.635 0 1.185.14 1.652.42s.821.677 1.064 1.19c.252.504.378 1.097.378 1.778v.742h-5.138c.019.849.233 1.498.644 1.946.42.439 1.003.658 1.75.658.476 0 .896-.042 1.26-.126.373-.093.756-.224 1.148-.392v1.078c-.383.168-.761.289-1.134.364-.373.084-.817.126-1.33.126-.719 0-1.349-.145-1.89-.434s-.966-.719-1.274-1.288c-.299-.569-.448-1.274-.448-2.114 0-.821.135-1.526.406-2.114.28-.588.667-1.041 1.162-1.358.504-.317 1.087-.476 1.75-.476zm-.014 1.008c-.588 0-1.055.191-1.4.574-.336.373-.537.896-.602 1.568h3.822c-.009-.635-.159-1.148-.448-1.54-.289-.401-.747-.602-1.372-.602zm7.678 6.776c-.933 0-1.68-.322-2.24-.966-.56-.653-.84-1.624-.84-2.912s.28-2.259.84-2.912c.57-.663 1.321-.994 2.254-.994.579 0 1.05.107 1.414.322.374.215.677.476.91.784h.084c-.018-.121-.037-.299-.056-.532-.018-.243-.028-.434-.028-.574v-2.996h1.232v10.64h-.994l-.182-1.008h-.056c-.224.317-.522.588-.896.812-.373.224-.854.336-1.442.336zm.196-1.022c.794 0 1.349-.215 1.666-.644.327-.439.49-1.097.49-1.974v-.224c0-.933-.154-1.647-.462-2.142-.308-.504-.877-.756-1.708-.756-.662 0-1.162.266-1.498.798-.326.523-.49 1.227-.49 2.114 0 .896.164 1.591.49 2.086.336.495.84.742 1.512.742zm11.046.882-2.842-7.504h1.316l1.596 4.424c.075.205.154.434.238.686s.159.495.224.728c.066.233.112.425.14.574h.056c.028-.149.08-.341.154-.574.075-.243.154-.485.238-.728.084-.252.164-.481.238-.686l1.596-4.424h1.316l-2.856 7.504zm8.356-7.644c.634 0 1.185.14 1.652.42.466.28.821.677 1.064 1.19.252.504.378 1.097.378 1.778v.742h-5.138c.018.849.233 1.498.644 1.946.42.439 1.003.658 1.75.658.476 0 .896-.042 1.26-.126.373-.093.756-.224 1.148-.392v1.078c-.383.168-.761.289-1.134.364-.374.084-.817.126-1.33.126-.719 0-1.349-.145-1.89-.434-.542-.289-.966-.719-1.274-1.288-.299-.569-.448-1.274-.448-2.114 0-.821.135-1.526.406-2.114.28-.588.667-1.041 1.162-1.358.504-.317 1.087-.476 1.75-.476zm-.014 1.008c-.588 0-1.055.191-1.4.574-.336.373-.537.896-.602 1.568h3.822c-.01-.635-.159-1.148-.448-1.54-.29-.401-.747-.602-1.372-.602zm6.25-4.004v3.122c0 .373-.023.723-.07 1.05h.084c.243-.383.569-.672.98-.868.42-.196.873-.294 1.358-.294.905 0 1.587.219 2.044.658.467.429.7 1.125.7 2.086v4.886h-1.218v-4.802c0-1.204-.56-1.806-1.68-1.806-.84 0-1.419.238-1.736.714-.308.467-.462 1.139-.462 2.016v3.878h-1.232v-10.64zm8.052.322c.187 0 .35.065.49.196.15.121.224.317.224.588s-.074.471-.224.602c-.14.121-.303.182-.49.182-.205 0-.378-.061-.518-.182-.14-.131-.21-.331-.21-.602s.07-.467.21-.588c.14-.131.313-.196.518-.196zm.602 2.814v7.504h-1.232v-7.504zm5.388 7.644c-.672 0-1.265-.135-1.778-.406-.514-.271-.92-.691-1.218-1.26-.29-.569-.434-1.297-.434-2.184 0-.924.149-1.675.448-2.254.308-.579.728-1.003 1.26-1.274s1.134-.406 1.806-.406c.373 0 .737.042 1.092.126.364.075.658.168.882.28l-.378 1.022c-.224-.084-.486-.163-.784-.238-.299-.075-.579-.112-.84-.112-1.475 0-2.212.947-2.212 2.842 0 .905.177 1.601.532 2.086.364.476.9.714 1.61.714.401 0 .76-.042 1.078-.126.317-.084.606-.187.868-.308v1.092c-.252.131-.532.229-.84.294-.299.075-.663.112-1.092.112zm4.948-.14h-1.232v-10.64h1.232zm5.276-7.644c.634 0 1.185.14 1.652.42.466.28.821.677 1.064 1.19.252.504.378 1.097.378 1.778v.742h-5.138c.018.849.233 1.498.644 1.946.42.439 1.003.658 1.75.658.476 0 .896-.042 1.26-.126.373-.093.756-.224 1.148-.392v1.078c-.383.168-.761.289-1.134.364-.374.084-.817.126-1.33.126-.719 0-1.349-.145-1.89-.434-.542-.289-.966-.719-1.274-1.288-.299-.569-.448-1.274-.448-2.114 0-.821.135-1.526.406-2.114.28-.588.667-1.041 1.162-1.358.504-.317 1.087-.476 1.75-.476zm-.014 1.008c-.588 0-1.055.191-1.4.574-.336.373-.537.896-.602 1.568h3.822c-.01-.635-.159-1.148-.448-1.54-.29-.401-.747-.602-1.372-.602zm14.927-.868v7.504h-1.008l-.182-.994h-.056c-.243.392-.579.681-1.008.868-.43.177-.887.266-1.372.266-.906 0-1.587-.215-2.044-.644-.458-.439-.686-1.134-.686-2.086v-4.914h1.246v4.83c0 1.195.555 1.792 1.666 1.792.83 0 1.404-.233 1.722-.7.326-.467.49-1.139.49-2.016v-3.906zm4.888 6.636c.187 0 .378-.014.574-.042s.355-.065.476-.112v.938c-.131.065-.317.117-.56.154-.243.047-.476.07-.7.07-.392 0-.756-.065-1.092-.196-.327-.14-.593-.378-.798-.714s-.308-.807-.308-1.414v-4.368h-1.064v-.588l1.078-.49.49-1.596h.728v1.722h2.17v.952h-2.17v4.34c0 .457.107.798.322 1.022.224.215.509.322.854.322zm3.183-9.45c.186 0 .35.065.49.196.149.121.224.317.224.588s-.075.471-.224.602c-.14.121-.304.182-.49.182-.206 0-.378-.061-.518-.182-.14-.131-.21-.331-.21-.602s.07-.467.21-.588c.14-.131.312-.196.518-.196zm.602 2.814v7.504h-1.232v-7.504zm3.609 7.504h-1.232v-10.64h1.232zm3.007-10.318c.187 0 .35.065.49.196.15.121.224.317.224.588s-.074.471-.224.602c-.14.121-.303.182-.49.182-.205 0-.378-.061-.518-.182-.14-.131-.21-.331-.21-.602s.07-.467.21-.588c.14-.131.313-.196.518-.196zm.602 2.814v7.504h-1.232v-7.504zm7.22 7.504h-5.49v-.812l4.04-5.74h-3.8v-.952h5.15v.924l-3.97 5.628h4.07zm4.58-7.63c.91 0 1.59.201 2.03.602.43.401.65 1.041.65 1.918v5.11h-.89l-.24-1.064h-.06c-.32.411-.67.714-1.03.91-.37.196-.86.294-1.49.294-.68 0-1.24-.177-1.69-.532-.45-.364-.67-.929-.67-1.694 0-.747.29-1.321.88-1.722.59-.411 1.49-.635 2.72-.672l1.27-.042v-.448c0-.625-.14-1.059-.41-1.302s-.65-.364-1.14-.364c-.4 0-.77.061-1.12.182-.36.112-.69.243-1 .392l-.38-.924c.33-.177.72-.327 1.17-.448.44-.131.91-.196 1.4-.196zm1.47 3.962-1.11.042c-.93.037-1.58.187-1.95.448-.35.261-.53.63-.53 1.106 0 .42.13.728.38.924.26.196.59.294.99.294.63 0 1.15-.173 1.57-.518.43-.355.65-.896.65-1.624zm6.04 2.8c.18 0 .38-.014.57-.042.2-.028.36-.065.48-.112v.938c-.13.065-.32.117-.56.154-.25.047-.48.07-.7.07-.39 0-.76-.065-1.09-.196-.33-.14-.6-.378-.8-.714-.21-.336-.31-.807-.31-1.414v-4.368h-1.06v-.588l1.07-.49.49-1.596h.73v1.722h2.17v.952h-2.17v4.34c0 .457.11.798.32 1.022.23.215.51.322.86.322zm3.18-9.45c.19 0 .35.065.49.196.15.121.22.317.22.588s-.07.471-.22.602c-.14.121-.3.182-.49.182-.21 0-.38-.061-.52-.182-.14-.131-.21-.331-.21-.602s.07-.467.21-.588c.14-.131.31-.196.52-.196zm.6 2.814v7.504h-1.23v-7.504zm8.9 3.738c0 1.241-.31 2.203-.95 2.884-.62.681-1.47 1.022-2.55 1.022-.66 0-1.25-.149-1.77-.448-.52-.308-.92-.751-1.22-1.33-.3-.588-.45-1.297-.45-2.128 0-1.241.31-2.198.92-2.87.63-.672 1.48-1.008 2.57-1.008.67 0 1.26.154 1.79.462.52.299.93.737 1.22 1.316.29.569.44 1.269.44 2.1zm-5.67 0c0 .887.18 1.591.52 2.114.36.513.92.77 1.68.77s1.31-.257 1.67-.77c.35-.523.53-1.227.53-2.114s-.18-1.582-.53-2.086c-.36-.504-.92-.756-1.68-.756-.77 0-1.32.252-1.67.756-.34.504-.52 1.199-.52 2.086zm11.24-3.878c.89 0 1.57.219 2.03.658s.68 1.139.68 2.1v4.886h-1.21v-4.802c0-1.204-.56-1.806-1.68-1.806-.83 0-1.41.233-1.73.7-.31.467-.47 1.139-.47 2.016v3.892h-1.23v-7.504h.99l.18 1.022h.07c.24-.392.58-.681 1.01-.868.43-.196.88-.294 1.36-.294z" fill="#58595b"/><path d="m859 282.5h192" opacity=".2" stroke="#58595b"/><path d="m859 340.5h192" opacity=".2" stroke="#58595b"/><path d="m859 382.5h192" opacity=".2" stroke="#58595b"/><path d="m841.096 184.576-3.952 11.424h-2.192l-3.952-11.424h2.096l2.304 6.992c.064.192.139.443.224.752.085.299.165.608.24.928.085.32.149.597.192.832.043-.235.101-.507.176-.816.075-.32.155-.629.24-.928.085-.309.16-.565.224-.768l2.304-6.992zm4.437 2.592c1.12 0 1.968.245 2.544.736.587.491.88 1.248.88 2.272v5.824h-1.424l-.4-1.2h-.064c-.373.469-.768.816-1.184 1.04-.416.213-.981.32-1.696.32-.778 0-1.424-.219-1.936-.656s-.768-1.115-.768-2.032c0-.896.326-1.568.976-2.016.662-.448 1.659-.699 2.992-.752l1.504-.048v-.432c0-.555-.133-.949-.4-1.184-.266-.235-.64-.352-1.12-.352-.437 0-.858.064-1.264.192-.394.117-.789.267-1.184.448l-.64-1.408c.427-.224.912-.405 1.456-.544.555-.139 1.131-.208 1.728-.208zm1.424 4.736-1.056.032c-.885.032-1.498.187-1.84.464-.341.267-.512.629-.512 1.088 0 .416.118.715.352.896.246.171.566.256.96.256.587 0 1.083-.165 1.488-.496.406-.341.608-.843.608-1.504zm9.071-4.736c.138 0 .293.011.464.032.17.011.309.027.416.048l-.176 1.872c-.107-.021-.24-.037-.4-.048-.15-.021-.278-.032-.384-.032-.427 0-.827.091-1.2.272-.374.171-.678.437-.912.8-.224.363-.336.827-.336 1.392v4.496h-2.016v-8.672h1.552l.288 1.504h.096c.256-.459.608-.848 1.056-1.168.448-.331.965-.496 1.552-.496zm3.495-3.184c.298 0 .56.08.784.24.224.149.336.421.336.816s-.112.672-.336.832-.486.24-.784.24c-.31 0-.576-.08-.8-.24-.214-.16-.32-.437-.32-.832s.106-.667.32-.816c.224-.16.49-.24.8-.24zm1.008 3.344v8.672h-2.016v-8.672zm6.034-.16c1.12 0 1.968.245 2.544.736.586.491.88 1.248.88 2.272v5.824h-1.424l-.4-1.2h-.064c-.374.469-.768.816-1.184 1.04-.416.213-.982.32-1.696.32-.779 0-1.424-.219-1.936-.656s-.768-1.115-.768-2.032c0-.896.325-1.568.976-2.016.661-.448 1.658-.699 2.992-.752l1.504-.048v-.432c0-.555-.134-.949-.4-1.184-.267-.235-.64-.352-1.12-.352-.438 0-.859.064-1.264.192-.395.117-.79.267-1.184.448l-.64-1.408c.426-.224.912-.405 1.456-.544.554-.139 1.13-.208 1.728-.208zm1.424 4.736-1.056.032c-.886.032-1.499.187-1.84.464-.342.267-.512.629-.512 1.088 0 .416.117.715.352.896.245.171.565.256.96.256.586 0 1.082-.165 1.488-.496.405-.341.608-.843.608-1.504zm9.166-4.736c.97 0 1.728.251 2.272.752.554.501.832 1.312.832 2.432v5.648h-2.016v-5.248c0-.651-.128-1.136-.384-1.456-.256-.331-.662-.496-1.216-.496-.811 0-1.366.256-1.664.768-.299.512-.448 1.243-.448 2.192v4.24h-2.016v-8.672h1.552l.288 1.136h.112c.277-.448.656-.773 1.136-.976.49-.213 1.008-.32 1.552-.32zm8.985 7.376c.246 0 .486-.021.72-.064.246-.053.47-.112.672-.176v1.504c-.213.107-.49.192-.832.256-.341.064-.698.096-1.072.096-.501 0-.954-.08-1.36-.24-.394-.16-.709-.443-.944-.848-.234-.405-.352-.976-.352-1.712v-4.512h-1.168v-.88l1.28-.704.64-1.84h1.264v1.904h2.464v1.52h-2.464v4.496c0 .405.107.709.32.912.224.192.502.288.832.288zm9.044-1.056c0 .875-.314 1.541-.944 2-.618.448-1.509.672-2.672.672-.608 0-1.13-.043-1.568-.128-.426-.085-.842-.219-1.248-.4v-1.712c.427.203.896.373 1.408.512.523.139 1.014.208 1.472.208.555 0 .955-.085 1.2-.256.246-.171.368-.4.368-.688 0-.171-.048-.32-.144-.448-.096-.139-.282-.288-.56-.448-.277-.16-.698-.357-1.264-.592-.554-.224-1.018-.448-1.392-.672-.362-.224-.64-.491-.832-.8-.181-.309-.272-.709-.272-1.2 0-.779.31-1.365.928-1.76.619-.405 1.435-.608 2.448-.608.534 0 1.035.053 1.504.16.48.107.96.267 1.44.48l-.64 1.488c-.405-.171-.8-.315-1.184-.432s-.778-.176-1.184-.176c-.885 0-1.328.251-1.328.752 0 .181.054.336.16.464.118.128.315.267.592.416.288.139.694.309 1.216.512.512.203.955.416 1.328.64.374.213.662.48.864.8.203.309.304.715.304 1.216z" fill="#979797"/><path d="m85.896 262.576c1.4827 0 2.56.309 3.232.928.6827.608 1.024 1.461 1.024 2.56 0 .651-.1387 1.259-.416 1.824s-.7467 1.024-1.408 1.376c-.6507.352-1.536.528-2.656.528h-1.136v4.208h-2.048v-11.424zm-.128 1.696h-1.232v3.824h.928c.832 0 1.472-.149 1.92-.448.4587-.309.688-.811.688-1.504 0-.629-.1867-1.099-.56-1.408s-.9547-.464-1.744-.464zm7.4423-2.288c.2986 0 .56.08.784.24.224.149.336.421.336.816s-.112.672-.336.832-.4854.24-.784.24c-.3094 0-.576-.08-.8-.24-.2134-.16-.32-.437-.32-.832s.1066-.667.32-.816c.224-.16.4906-.24.8-.24zm1.008 3.344v8.672h-2.016v-8.672zm6.0817 8.832c-1.2373 0-2.2187-.357-2.944-1.072-.7147-.715-1.072-1.84-1.072-3.376 0-1.067.176-1.931.528-2.592.3627-.672.8587-1.163 1.488-1.472.6293-.32 1.3493-.48 2.16-.48.533 0 1.013.053 1.44.16.437.107.805.235 1.104.384l-.592 1.584c-.341-.128-.677-.235-1.008-.32-.331-.096-.645-.144-.944-.144-1.408 0-2.112.955-2.112 2.864 0 .928.176 1.627.528 2.096.3627.469.88.704 1.552.704.48 0 .907-.059 1.28-.176.384-.117.741-.277 1.072-.48v1.744c-.331.203-.688.347-1.072.432-.384.096-.853.144-1.408.144zm6.512-12.32v5.776c0 .267-.011.56-.032.88-.022.309-.043.603-.064.88h.048c.138-.192.298-.411.48-.656.181-.245.362-.464.544-.656l2.56-2.736h2.288l-3.472 3.744 3.696 4.928h-2.352l-2.688-3.712-1.008.832v2.88h-2v-12.16zm6.654 8.72v-1.696h4.064v1.696zm13.604-5.232v8.672h-1.584l-.272-1.12h-.096c-.277.448-.661.773-1.152.976s-1.008.304-1.552.304c-.971 0-1.733-.251-2.288-.752-.544-.501-.816-1.307-.816-2.416v-5.664h2.016v5.264c0 .651.128 1.136.384 1.456s.661.48 1.216.48c.811 0 1.365-.256 1.664-.768.309-.512.464-1.243.464-2.192v-4.24zm7.13-.16c1.013 0 1.829.379 2.448 1.136.618.747.928 1.861.928 3.344s-.32 2.608-.96 3.376c-.63.757-1.451 1.136-2.464 1.136-.64 0-1.158-.117-1.552-.352-.395-.235-.71-.507-.944-.816h-.128c.032.203.058.421.08.656.032.235.048.459.048.672v3.52h-2.016v-12.512h1.632l.288 1.152h.096c.245-.363.565-.672.96-.928.394-.256.922-.384 1.584-.384zm-.576 1.632c-.715 0-1.222.213-1.52.64-.288.427-.438 1.072-.448 1.936v.256c0 .928.138 1.643.416 2.144.288.491.816.736 1.584.736.629 0 1.093-.256 1.392-.768.309-.523.464-1.232.464-2.128s-.155-1.589-.464-2.08c-.299-.491-.774-.736-1.424-.736zm12.204 7.2h-2.016v-12.16h2.016zm10.321-4.352c0 1.44-.373 2.555-1.12 3.344-.746.779-1.76 1.168-3.04 1.168-.789 0-1.493-.176-2.112-.528-.618-.352-1.104-.864-1.456-1.536s-.528-1.488-.528-2.448c0-1.44.368-2.544 1.104-3.312.747-.779 1.76-1.168 3.04-1.168.8 0 1.51.176 2.128.528.619.341 1.104.848 1.456 1.52.352.661.528 1.472.528 2.432zm-6.192 0c0 .917.16 1.627.48 2.128.331.501.859.752 1.584.752.715 0 1.238-.251 1.568-.752.331-.501.496-1.211.496-2.128s-.165-1.621-.496-2.112c-.33-.491-.858-.736-1.584-.736-.725 0-1.248.245-1.568.736s-.48 1.195-.48 2.112zm11.781 4.512c-1.238 0-2.219-.357-2.944-1.072-.715-.715-1.072-1.84-1.072-3.376 0-1.067.176-1.931.528-2.592.362-.672.858-1.163 1.488-1.472.629-.32 1.349-.48 2.16-.48.533 0 1.013.053 1.44.16.437.107.805.235 1.104.384l-.592 1.584c-.342-.128-.678-.235-1.008-.32-.331-.096-.646-.144-.944-.144-1.408 0-2.112.955-2.112 2.864 0 .928.176 1.627.528 2.096.362.469.88.704 1.552.704.48 0 .906-.059 1.28-.176.384-.117.741-.277 1.072-.48v1.744c-.331.203-.688.347-1.072.432-.384.096-.854.144-1.408.144zm7.967-8.992c1.12 0 1.968.245 2.544.736.587.491.88 1.248.88 2.272v5.824h-1.424l-.4-1.2h-.064c-.373.469-.768.816-1.184 1.04-.416.213-.981.32-1.696.32-.779 0-1.424-.219-1.936-.656s-.768-1.115-.768-2.032c0-.896.325-1.568.976-2.016.661-.448 1.659-.699 2.992-.752l1.504-.048v-.432c0-.555-.133-.949-.4-1.184s-.64-.352-1.12-.352c-.437 0-.859.064-1.264.192-.395.117-.789.267-1.184.448l-.64-1.408c.427-.224.912-.405 1.456-.544.555-.139 1.131-.208 1.728-.208zm1.424 4.736-1.056.032c-.885.032-1.499.187-1.84.464-.341.267-.512.629-.512 1.088 0 .416.117.715.352.896.245.171.565.256.96.256.587 0 1.083-.165 1.488-.496.405-.341.608-.843.608-1.504zm7.886 2.64c.246 0 .486-.021.72-.064.246-.053.47-.112.672-.176v1.504c-.213.107-.49.192-.832.256-.341.064-.698.096-1.072.096-.501 0-.954-.08-1.36-.24-.394-.16-.709-.443-.944-.848-.234-.405-.352-.976-.352-1.712v-4.512h-1.168v-.88l1.28-.704.64-1.84h1.264v1.904h2.464v1.52h-2.464v4.496c0 .405.107.709.32.912.224.192.502.288.832.288zm4.148-10.56c.299 0 .56.08.784.24.224.149.336.421.336.816s-.112.672-.336.832-.485.24-.784.24c-.309 0-.576-.08-.8-.24-.213-.16-.32-.437-.32-.832s.107-.667.32-.816c.224-.16.491-.24.8-.24zm1.008 3.344v8.672h-2.016v-8.672zm10.322 4.32c0 1.44-.373 2.555-1.12 3.344-.747.779-1.76 1.168-3.04 1.168-.789 0-1.493-.176-2.112-.528s-1.104-.864-1.456-1.536-.528-1.488-.528-2.448c0-1.44.368-2.544 1.104-3.312.747-.779 1.76-1.168 3.04-1.168.8 0 1.509.176 2.128.528.619.341 1.104.848 1.456 1.52.352.661.528 1.472.528 2.432zm-6.192 0c0 .917.16 1.627.48 2.128.331.501.859.752 1.584.752.715 0 1.237-.251 1.568-.752s.496-1.211.496-2.128-.165-1.621-.496-2.112-.859-.736-1.584-.736-1.248.245-1.568.736-.48 1.195-.48 2.112zm12.916-4.48c.971 0 1.728.251 2.272.752.555.501.832 1.312.832 2.432v5.648h-2.016v-5.248c0-.651-.128-1.136-.384-1.456-.256-.331-.661-.496-1.216-.496-.81 0-1.365.256-1.664.768-.298.512-.448 1.243-.448 2.192v4.24h-2.016v-8.672h1.552l.288 1.136h.112c.278-.448.656-.773 1.136-.976.491-.213 1.008-.32 1.552-.32zm11.53 6.32c0 .875-.315 1.541-.944 2-.619.448-1.509.672-2.672.672-.608 0-1.131-.043-1.568-.128-.427-.085-.843-.219-1.248-.4v-1.712c.427.203.896.373 1.408.512.523.139 1.013.208 1.472.208.555 0 .955-.085 1.2-.256s.368-.4.368-.688c0-.171-.048-.32-.144-.448-.096-.139-.283-.288-.56-.448s-.699-.357-1.264-.592c-.555-.224-1.019-.448-1.392-.672-.363-.224-.64-.491-.832-.8-.181-.309-.272-.709-.272-1.2 0-.779.309-1.365.928-1.76.619-.405 1.435-.608 2.448-.608.533 0 1.035.053 1.504.16.48.107.96.267 1.44.48l-.64 1.488c-.405-.171-.8-.315-1.184-.432s-.779-.176-1.184-.176c-.885 0-1.328.251-1.328.752 0 .181.053.336.16.464.117.128.315.267.592.416.288.139.693.309 1.216.512.512.203.955.416 1.328.64.373.213.661.48.864.8.203.309.304.715.304 1.216z" fill="#979797"/><path d="m801 333.5-13.5-8.227v16.454z" fill="#0072f5"/><g filter="url(#c)"><rect fill="#fff" height="87" rx="11" width="93" x="79" y="98"/></g><g clip-path="url(#k)"><path d="m122.014 124.016h15.271v15.546h-15.271z" fill="#f39719"/><path d="m122.014 124.016h7.636v15.546h-7.636z" fill="#ffc347"/><path d="m132.336 135.76h11.518v11.725h-11.518z" fill="#f39719"/><path d="m132.336 135.76h5.759v11.725h-5.759z" fill="#ffc347"/><path d="m111.674 139.581h20.662v7.904h-20.662z" fill="#f39719"/><path d="m111.692 139.581h10.322v7.904h-10.322z" fill="#ffc347"/><path d="m108.546 147.578h38.454v10.302h-38.454z" fill="#0070fe"/><path d="m108.546 147.578 38.454 10.302v-10.302z" fill="#0055bf"/><path d="m137.58 162.001c-2.337 0-4.232-1.929-4.232-4.308 0-2.38 1.895-4.308 4.232-4.308s4.232 1.928 4.232 4.308c0 2.379-1.895 4.308-4.232 4.308z" fill="#34233c"/><path d="m137.58 159.285c-.864 0-1.564-.713-1.564-1.592 0-.88.7-1.592 1.564-1.592.863 0 1.564.712 1.564 1.592 0 .879-.701 1.592-1.564 1.592z" fill="#fff"/><path d="m118.757 162.001c-2.337 0-4.232-1.929-4.232-4.308 0-2.38 1.895-4.308 4.232-4.308s4.232 1.928 4.232 4.308c0 2.379-1.895 4.308-4.232 4.308z" fill="#34233c"/><path d="m118.757 159.285c-.863 0-1.564-.713-1.564-1.592 0-.88.701-1.592 1.564-1.592.864 0 1.564.712 1.564 1.592 0 .879-.7 1.592-1.564 1.592z" fill="#fff"/><path d="m108.545 157.88v-30.736l-5.777-5.881" stroke="#34233c" stroke-miterlimit="10" stroke-width="2"/></g><g filter="url(#d)"><rect fill="#fff" height="87" rx="11" width="93" x="79" y="365"/></g><g clip-path="url(#l)"><path d="m122.014 391.016h15.271v15.546h-15.271z" fill="#f39719"/><path d="m122.014 391.016h7.636v15.546h-7.636z" fill="#ffc347"/><path d="m132.336 402.76h11.518v11.725h-11.518z" fill="#f39719"/><path d="m132.336 402.76h5.759v11.725h-5.759z" fill="#ffc347"/><path d="m111.674 406.581h20.662v7.904h-20.662z" fill="#f39719"/><path d="m111.692 406.581h10.322v7.904h-10.322z" fill="#ffc347"/><path d="m108.546 414.578h38.454v10.302h-38.454z" fill="#0070fe"/><path d="m108.546 414.578 38.454 10.302v-10.302z" fill="#0055bf"/><path d="m137.58 429.001c-2.337 0-4.232-1.929-4.232-4.308 0-2.38 1.895-4.308 4.232-4.308s4.232 1.928 4.232 4.308c0 2.379-1.895 4.308-4.232 4.308z" fill="#34233c"/><path d="m137.58 426.285c-.864 0-1.564-.713-1.564-1.592 0-.88.7-1.592 1.564-1.592.863 0 1.564.712 1.564 1.592 0 .879-.701 1.592-1.564 1.592z" fill="#fff"/><path d="m118.757 429.001c-2.337 0-4.232-1.929-4.232-4.308 0-2.38 1.895-4.308 4.232-4.308s4.232 1.928 4.232 4.308c0 2.379-1.895 4.308-4.232 4.308z" fill="#34233c"/><path d="m118.757 426.285c-.863 0-1.564-.713-1.564-1.592 0-.88.701-1.592 1.564-1.592.864 0 1.564.712 1.564 1.592 0 .879-.7 1.592-1.564 1.592z" fill="#fff"/><path d="m108.545 424.88v-30.736l-5.777-5.881" stroke="#34233c" stroke-miterlimit="10" stroke-width="2"/></g><g filter="url(#e)"><rect fill="#fff" height="73" rx="11" width="87" x="244" y="226"/></g><path d="m262.121 270.161v-15.825c0-1.833 1.495-3.336 3.333-3.336h23.72c1.644 0 3.244.586 4.514 1.653l7.907 6.673 10.208 2.479c.747.181 1.36.707 1.659 1.413l.718 1.683c.134.301.194.631.194.977v3.907c0 .211-.164.376-.374.376z" fill="#ffc347"/><path d="m282.716 251 .344 19.116h31.312v-4.343c0-.391-.089-.782-.254-1.142l-.717-1.518c-.284-.646-.852-1.127-1.54-1.293l-10.283-2.479-7.368-6.477c-1.346-1.203-3.094-1.864-4.903-1.864z" fill="#ffc347"/><path d="m285.349 253.765v5.606c0 .331.269.601.597.601h12.002c.419 0 .613-.511.299-.781l-6.516-5.891c-.09-.076-.195-.121-.299-.121h-5.486c-.328-.015-.597.256-.597.586z" fill="#fff"/><path d="m305.407 273.949c2.105 0 3.811-1.716 3.811-3.833 0-2.116-1.706-3.832-3.811-3.832s-3.812 1.716-3.812 3.832c0 2.117 1.707 3.833 3.812 3.833z" fill="#34233c"/><path d="m305.406 271.469c.743 0 1.345-.606 1.345-1.353s-.602-1.352-1.345-1.352-1.345.605-1.345 1.352.602 1.353 1.345 1.353z" fill="#fff"/><path d="m298.381 270.161h-37.381v-5.455h31.956c3.004 0 5.425 2.435 5.425 5.455z" fill="#f39719"/><path d="m271.119 273.949c2.105 0 3.811-1.716 3.811-3.833 0-2.116-1.706-3.832-3.811-3.832s-3.811 1.716-3.811 3.832c0 2.117 1.706 3.833 3.811 3.833z" fill="#34233c"/><path d="m271.12 271.469c.743 0 1.345-.606 1.345-1.353s-.602-1.352-1.345-1.352-1.345.605-1.345 1.352.602 1.353 1.345 1.353z" fill="#fff"/><g filter="url(#f)"><rect fill="#fff" height="73" rx="11" width="227" x="387" y="370"/></g><path d="m483.736 401.576c1.504 0 2.613.277 3.328.832.725.555 1.088 1.397 1.088 2.528 0 .555-.107 1.029-.32 1.424-.203.395-.475.725-.816.992-.331.256-.683.464-1.056.624l3.28 5.024h-2.304l-2.736-4.512h-1.664v4.512h-2.048v-11.424zm-.128 1.712h-1.072v3.52h1.136c.853 0 1.467-.149 1.84-.448.373-.309.56-.763.56-1.36 0-.619-.203-1.056-.608-1.312-.395-.267-1.013-.4-1.856-.4zm10.52.88c1.162 0 2.08.347 2.752 1.04.682.693 1.024 1.659 1.024 2.896v1.024h-5.728c.021.789.24 1.403.656 1.84.416.427.992.64 1.728.64.554 0 1.056-.053 1.504-.16.448-.117.906-.283 1.376-.496v1.616c-.427.203-.87.352-1.328.448-.459.096-1.008.144-1.648.144-.854 0-1.606-.16-2.256-.48-.651-.331-1.163-.821-1.536-1.472-.363-.661-.544-1.488-.544-2.48 0-1.483.362-2.613 1.088-3.392.736-.779 1.706-1.168 2.912-1.168zm0 1.488c-.544 0-.987.176-1.328.528-.331.341-.523.853-.576 1.536h3.728c-.011-.597-.166-1.088-.464-1.472-.288-.395-.742-.592-1.36-.592zm9.169 5.888c.245 0 .485-.021.72-.064.245-.053.469-.112.672-.176v1.504c-.214.107-.491.192-.832.256-.342.064-.699.096-1.072.096-.502 0-.955-.08-1.36-.24-.395-.16-.71-.443-.944-.848-.235-.405-.352-.976-.352-1.712v-4.512h-1.168v-.88l1.28-.704.64-1.84h1.264v1.904h2.464v1.52h-2.464v4.496c0 .405.106.709.32.912.224.192.501.288.832.288zm6.596-7.376c1.12 0 1.968.245 2.544.736.586.491.88 1.248.88 2.272v5.824h-1.424l-.4-1.2h-.064c-.374.469-.768.816-1.184 1.04-.416.213-.982.32-1.696.32-.779 0-1.424-.219-1.936-.656s-.768-1.115-.768-2.032c0-.896.325-1.568.976-2.016.661-.448 1.658-.699 2.992-.752l1.504-.048v-.432c0-.555-.134-.949-.4-1.184-.267-.235-.64-.352-1.12-.352-.438 0-.859.064-1.264.192-.395.117-.79.267-1.184.448l-.64-1.408c.426-.224.912-.405 1.456-.544.554-.139 1.13-.208 1.728-.208zm1.424 4.736-1.056.032c-.886.032-1.499.187-1.84.464-.342.267-.512.629-.512 1.088 0 .416.117.715.352.896.245.171.565.256.96.256.586 0 1.082-.165 1.488-.496.405-.341.608-.843.608-1.504zm5.534-7.92c.299 0 .56.08.784.24.224.149.336.421.336.816s-.112.672-.336.832-.485.24-.784.24c-.309 0-.576-.08-.8-.24-.213-.16-.32-.437-.32-.832s.107-.667.32-.816c.224-.16.491-.24.8-.24zm1.008 3.344v8.672h-2.016v-8.672zm4.594 8.672h-2.016v-12.16h2.016zm14.478-4.352c0 1.44-.374 2.555-1.12 3.344-.747.779-1.76 1.168-3.04 1.168-.79 0-1.494-.176-2.112-.528-.619-.352-1.104-.864-1.456-1.536s-.528-1.488-.528-2.448c0-1.44.368-2.544 1.104-3.312.746-.779 1.76-1.168 3.04-1.168.8 0 1.509.176 2.128.528.618.341 1.104.848 1.456 1.52.352.661.528 1.472.528 2.432zm-6.192 0c0 .917.16 1.627.48 2.128.33.501.858.752 1.584.752.714 0 1.237-.251 1.568-.752.33-.501.496-1.211.496-2.128s-.166-1.621-.496-2.112c-.331-.491-.859-.736-1.584-.736-.726 0-1.248.245-1.568.736s-.48 1.195-.48 2.112zm15.972-4.32v8.672h-1.584l-.272-1.12h-.096c-.278.448-.662.773-1.152.976-.491.203-1.008.304-1.552.304-.971 0-1.734-.251-2.288-.752-.544-.501-.816-1.307-.816-2.416v-5.664h2.016v5.264c0 .651.128 1.136.384 1.456s.661.48 1.216.48c.81 0 1.365-.256 1.664-.768.309-.512.464-1.243.464-2.192v-4.24zm5.929 7.216c.246 0 .486-.021.72-.064.246-.053.47-.112.672-.176v1.504c-.213.107-.49.192-.832.256-.341.064-.698.096-1.072.096-.501 0-.954-.08-1.36-.24-.394-.16-.709-.443-.944-.848-.234-.405-.352-.976-.352-1.712v-4.512h-1.168v-.88l1.28-.704.64-1.84h1.264v1.904h2.464v1.52h-2.464v4.496c0 .405.107.709.32.912.224.192.502.288.832.288zm5.156 1.456h-2.016v-12.16h2.016zm6.066-8.832c1.163 0 2.08.347 2.752 1.04.683.693 1.024 1.659 1.024 2.896v1.024h-5.728c.021.789.24 1.403.656 1.84.416.427.992.64 1.728.64.555 0 1.056-.053 1.504-.16.448-.117.907-.283 1.376-.496v1.616c-.427.203-.869.352-1.328.448s-1.008.144-1.648.144c-.853 0-1.605-.16-2.256-.48-.651-.331-1.163-.821-1.536-1.472-.363-.661-.544-1.488-.544-2.48 0-1.483.363-2.613 1.088-3.392.736-.779 1.707-1.168 2.912-1.168zm0 1.488c-.544 0-.987.176-1.328.528-.331.341-.523.853-.576 1.536h3.728c-.011-.597-.165-1.088-.464-1.472-.288-.395-.741-.592-1.36-.592zm9.169 5.888c.245 0 .485-.021.72-.064.245-.053.469-.112.672-.176v1.504c-.213.107-.491.192-.832.256s-.699.096-1.072.096c-.501 0-.955-.08-1.36-.24-.395-.16-.709-.443-.944-.848s-.352-.976-.352-1.712v-4.512h-1.168v-.88l1.28-.704.64-1.84h1.264v1.904h2.464v1.52h-2.464v4.496c0 .405.107.709.32.912.224.192.501.288.832.288zm9.044-1.056c0 .875-.315 1.541-.944 2-.619.448-1.509.672-2.672.672-.608 0-1.131-.043-1.568-.128-.427-.085-.843-.219-1.248-.4v-1.712c.427.203.896.373 1.408.512.523.139 1.013.208 1.472.208.555 0 .955-.085 1.2-.256s.368-.4.368-.688c0-.171-.048-.32-.144-.448-.096-.139-.283-.288-.56-.448s-.699-.357-1.264-.592c-.555-.224-1.019-.448-1.392-.672-.363-.224-.64-.491-.832-.8-.181-.309-.272-.709-.272-1.2 0-.779.309-1.365.928-1.76.619-.405 1.435-.608 2.448-.608.533 0 1.035.053 1.504.16.48.107.96.267 1.44.48l-.64 1.488c-.405-.171-.8-.315-1.184-.432s-.779-.176-1.184-.176c-.885 0-1.328.251-1.328.752 0 .181.053.336.16.464.117.128.315.267.592.416.288.139.693.309 1.216.512.512.203.955.416 1.328.64.373.213.661.48.864.8.203.309.304.715.304 1.216z" fill="#979797"/><g clip-path="url(#m)"><path d="m460.795 398.097h-46.256v28.903h46.256z" fill="#ff5753"/><path d="m463.818 394.032h-51.818v4.083h51.818z" fill="#34233c"/><path d="m425.048 405.147c4.948 0 8.96-4.062 8.96-9.073 0-5.012-4.012-9.074-8.96-9.074-4.949 0-8.96 4.062-8.96 9.074 0 5.011 4.011 9.073 8.96 9.073z" fill="#0055bf"/><path d="m425.048 403.522c4.062 0 7.355-3.335 7.355-7.448s-3.293-7.448-7.355-7.448-7.355 3.335-7.355 7.448 3.293 7.448 7.355 7.448z" fill="#0067e8"/><g fill="#fff"><path d="m432.496 411.367h-9.931v15.633h9.931z"/><path d="m454.914 406.452h-13.103v1.928h13.103z"/><path d="m454.914 411.594h-13.103v1.928h13.103z"/></g><path d="m419.784 393.899h10.379" stroke="#fff" stroke-miterlimit="10"/><path d="m419.784 396.073h10.379" stroke="#fff" stroke-miterlimit="10"/><path d="m419.784 398.229h10.379" stroke="#fff" stroke-miterlimit="10"/></g><g filter="url(#g)"><rect fill="#fff" height="73" rx="11" width="87" x="672" y="228"/></g><g filter="url(#h)"><rect fill="#fff" height="73" rx="11" width="87" x="672" y="367"/></g><path d="m704.209 271.927h20.787v-18.935c0-4.971-4.008-8.992-8.963-8.992h-2.861c-4.955 0-8.963 4.021-8.963 8.992z" fill="#34233c"/><path d="m711.295 267.284h6.668c2.369 0 4.281-1.919 4.281-4.295v-7.548c0-1.901-1.53-3.436-3.425-3.436h-8.362c-1.894 0-3.425 1.535-3.425 3.436v7.548c0 2.376 1.913 4.295 4.263 4.295z" fill="#e2a091"/><path d="m700 286h30.333v-9.083c0-3.491-2.823-6.324-6.303-6.324h-17.726c-3.48.018-6.304 2.851-6.304 6.342z" fill="#ffc347"/><path d="m723.301 286h7.032v-8.425c0-3.838-3.206-6.964-7.032-6.964" fill="#f39719"/><path d="m718.345 275.729v-5.118h-7.469v5.118c0 2.065 1.676 3.747 3.735 3.747 2.058 0 3.734-1.682 3.734-3.747z" fill="#fff"/><path d="m714.101 273.206h1.02c1.785 0 3.224-1.443 3.224-3.235v-4.496c0-.146-.127-.274-.273-.274h-6.923c-.145 0-.273.128-.273.274v4.496c0 1.792 1.439 3.235 3.225 3.235z" fill="#e2a091"/><path d="m716.779 267.285c3.024 0 5.484-2.468 5.484-5.502v-6.653c0-1.718-1.385-3.107-3.097-3.107h-2.879v15.28h.492z" fill="#d3897d"/><path d="m714.101 273.206h1.02c1.785 0 3.224-1.443 3.224-3.235v-4.496c0-.146-.127-.274-.273-.274h-6.923c-.145 0-.273.128-.273.274v4.496c0 1.792 1.439 3.235 3.225 3.235z" fill="#e2a091"/><path d="m716.287 252.005s-4.482 4.661-9.255 4.332l-.292-6.562z" fill="#34233c"/><path d="m716.287 272.804.255-.164c1.13-.731 1.804-1.974 1.804-3.308v-4.131h-2.059z" fill="#d3897d"/><path d="m704.209 410.927h20.787v-18.935c0-4.971-4.008-8.992-8.963-8.992h-2.861c-4.955 0-8.963 4.021-8.963 8.992z" fill="#34233c"/><path d="m711.295 406.284h6.668c2.369 0 4.281-1.919 4.281-4.295v-7.548c0-1.901-1.53-3.436-3.425-3.436h-8.362c-1.894 0-3.425 1.535-3.425 3.436v7.548c0 2.376 1.913 4.295 4.263 4.295z" fill="#e2a091"/><path d="m700 425h30.333v-9.083c0-3.491-2.823-6.324-6.303-6.324h-17.726c-3.48.018-6.304 2.851-6.304 6.342z" fill="#ffc347"/><path d="m723.301 425h7.032v-8.425c0-3.838-3.206-6.964-7.032-6.964" fill="#f39719"/><path d="m718.345 414.729v-5.118h-7.469v5.118c0 2.065 1.676 3.747 3.735 3.747 2.058 0 3.734-1.682 3.734-3.747z" fill="#fff"/><path d="m714.101 412.206h1.02c1.785 0 3.224-1.443 3.224-3.235v-4.496c0-.146-.127-.274-.273-.274h-6.923c-.145 0-.273.128-.273.274v4.496c0 1.792 1.439 3.235 3.225 3.235z" fill="#e2a091"/><path d="m716.779 406.285c3.024 0 5.484-2.468 5.484-5.502v-6.653c0-1.718-1.385-3.107-3.097-3.107h-2.879v15.28h.492z" fill="#d3897d"/><path d="m714.101 412.206h1.02c1.785 0 3.224-1.443 3.224-3.235v-4.496c0-.146-.127-.274-.273-.274h-6.923c-.145 0-.273.128-.273.274v4.496c0 1.792 1.439 3.235 3.225 3.235z" fill="#e2a091"/><path d="m716.287 391.005s-4.482 4.661-9.255 4.332l-.292-6.562z" fill="#34233c"/><path d="m716.287 411.804.255-.164c1.13-.731 1.804-1.974 1.804-3.308v-4.131h-2.059z" fill="#d3897d"/><path d="m672 270.5-9-5.629v11.258z" fill="#0072f5"/><path d="m672 403.5-9-5.629v11.258z" fill="#0072f5"/><path d="m487.5 370 5.629-9h-11.258z" fill="#0072f5"/></svg>