<svg fill="none" height="138" viewBox="0 0 123 138" width="123" xmlns="http://www.w3.org/2000/svg" xmlns:xlink="http://www.w3.org/1999/xlink"><clipPath id="a"><path d="m0 0h123v138h-123z"/></clipPath><g clip-path="url(#a)"><path d="m63.8901 128.235c-1.1031 0-2.0224-.921-2.0224-2.027 0-1.105.9193-2.026 2.0224-2.026 30.4282 0 55.0649-24.7815 55.0649-55.182 0-24.9653-16.731-46.8905-40.816-53.3391-1.1032-.2764-1.7467-1.3819-1.4709-2.4874.2758-1.1054 1.3789-1.7503 2.4821-1.4739 25.8318 6.9092 43.8498 30.4926 43.8498 57.2083 0 32.7031-26.4754 59.3271-59.1099 59.3271z" fill="#0067e8"/><path d="m6.8027 74.6193s-.18386 0-.27579-.1842c-.55157-1.5661-1.01121-2.6716-1.74664-3.5928.18386 6.6328 1.56278 13.0814 3.86099 19.1615.91928-.9212 2.29824-1.5661 3.67714-1.5661-2.1144-5.5273-3.30943-11.4232-3.49328-17.5033-.73543.9212-1.287 2.0267-1.74664 3.5007 0 .1842-.18386.1842-.27578.1842z" fill="#0067e8"/><path d="m51.112 13.1735c-.2758-1.1054-1.3789-1.7503-2.4821-1.4739-24.5448 6.6328-42.10312 28.1896-43.75783 53.3391.6435-.8291 1.19507-1.9346 1.65471-3.4085.09193-.1843.18386-.1843.27578-.1843.09193 0 .18386 0 .27579.1843.55157 1.566 1.10314 2.7636 1.83856 3.5927 1.56279-23.3992 17.92599-43.4819 40.72419-49.562 1.1032-.2764 1.7467-1.474 1.4709-2.4874z" fill="#0067e8"/><path d="m32.3589 114.232c-6.435-4.514-11.6749-10.225-15.6278-16.7662-.8274 1.0134-2.1144 1.7504-3.4933 1.9346 4.2287 7.0936 9.9282 13.2656 16.8229 18.1486.3677.276.7354.368 1.195.368.6435 0 1.287-.276 1.6547-.829.5516-1.013.2758-2.211-.5515-2.856z" fill="#0067e8"/><g fill="#3392ff"><path d="m39.989 33.7169c9.9283-6.725 22.7063-9.3044 35.2086-5.8959 1.1031.2764 2.2062-.3685 2.482-1.3818.2758-1.1055-.3677-2.211-1.3789-2.4874-13.7893-3.777-27.9462-.9212-38.8857 6.725 1.1032.5527 2.1144 1.6582 2.574 3.0401z"/><path d="m105.993 62.7355c.736-.9212 1.287-2.1188 1.839-3.777.092-.1843.184-.1843.276-.1843.091 0 .183 0 .275.1843.46 1.5661 1.011 2.6716 1.655 3.5928-.644-4.8825-2.114-9.6729-4.321-14.1869-.459-1.0134-1.746-1.3819-2.666-.9213-1.011.4607-1.378 1.7504-.919 2.6716 1.931 4.0534 3.218 8.2911 3.861 12.6208z"/><path d="m38.6099 103.362c-4.6884-3.501-8.7332-8.015-11.6749-13.266-5.6077-9.9493-7.0785-21.3725-4.0449-32.4273 1.8386-6.6328 5.148-12.5287 9.4686-17.3191-1.195-.6448-2.2062-1.7503-2.6659-3.04-4.8722 5.3431-8.6412 11.8838-10.6637 19.2536-3.3094 11.976-1.7466 24.5968 4.5045 35.4673 3.3094 5.8959 7.8139 10.8705 13.0538 14.6475.1839-1.29 1.0112-2.487 2.0225-3.316z"/><path d="m89.4461 103.085c-7.2623 5.436-16.1793 8.568-25.556 8.568-3.6771 0-7.5381-.461-11.2153-1.566-1.195-.369-2.3901-.737-3.4932-1.106-.1839 1.382-.7355 2.672-1.6547 3.685 1.287.461 2.6659.921 4.0448 1.29 4.1368 1.105 8.2735 1.658 12.3184 1.658 10.4798 0 20.5919-3.593 28.6816-9.949-.7354-1.106-1.7466-1.843-3.1256-2.58z"/><path d="m108.384 72.6849c-.092.1843-.184.1843-.276.1843 0 0-.184 0-.276-.1843-.46-1.2897-.827-2.3031-1.379-3.1322 0 3.5928-.551 7.1856-1.471 10.6863-1.838 6.6328-5.1477 12.5287-9.4683 17.3191.6435 1.2897 1.5628 2.2109 2.7578 2.9479 4.8725-5.3431 8.6415-11.7917 10.6635-19.2537 1.195-4.2376 1.655-8.4753 1.655-12.805-1.011 1.1054-1.655 2.3952-2.206 4.2376z"/></g><path d="m90.2735 47.3511c-.5516 1.2897-1.5628 2.303-2.8498 2.8558 4.1368 5.1589 6.5269 11.6996 6.5269 18.7009 0 16.5821-13.5134 30.1242-30.0605 30.1242-1.1031 0-2.0224.9212-2.0224 2.027 0 1.105.9193 2.026 2.0224 2.026 18.7534 0 34.1054-15.292 34.1054-34.1772 0-8.1068-2.9417-15.6609-7.722-21.5567z" fill="#add3ff"/><path d="m79.9775 43.5741c.4596-1.3818 1.3789-2.4873 2.574-3.1322-5.3319-3.5006-11.7668-5.5273-18.6615-5.5273-18.7533 0-34.1053 15.2923-34.1053 34.1775 0 1.1055.9192 2.0267 2.0224 2.0267 1.1031 0 2.0224-.9212 2.0224-2.0267 0-16.5821 13.5135-30.1241 30.0605-30.1241 5.8835-.0922 11.3992 1.6582 16.0875 4.6061z" fill="#add3ff"/><path d="m63.8903 87.9771c10.4588 0 18.9373-8.4965 18.9373-18.9773 0-10.4809-8.4785-18.9773-18.9373-18.9773-10.4587 0-18.9372 8.4964-18.9372 18.9773 0 10.4808 8.4785 18.9773 18.9372 18.9773z" fill="#ffc347"/><path d="m49.8253 68.9998c0-9.6729 7.1704-17.5955 16.4552-18.7931-.8274-.0921-1.5628-.1842-2.3902-.1842-10.4798 0-18.9372 8.4753-18.9372 18.9773s8.4574 18.9773 18.9372 18.9773c.8274 0 1.6548-.0922 2.3902-.1843-9.2848-1.1976-16.4552-9.2123-16.4552-18.793z" fill="#f39719"/><path d="m85.2173 51.0362c3.1985 0 5.7914-2.5984 5.7914-5.8038 0-3.2053-2.5929-5.8037-5.7914-5.8037-3.1986 0-5.7915 2.5984-5.7915 5.8037 0 3.2054 2.5929 5.8038 5.7915 5.8038z" fill="#ff5753"/><path d="m83.8383 45.2324c0-2.3951 1.4709-4.514 3.5852-5.3431-.6435-.2763-1.4708-.4606-2.2062-.4606-3.2175 0-5.7915 2.5794-5.7915 5.8037s2.574 5.8038 5.7915 5.8038c.8273 0 1.5627-.1843 2.2062-.4606-2.1143-.9213-3.5852-2.948-3.5852-5.3432z" fill="#dd3c3c"/><path d="m12.5024 99.7691c3.1986 0 5.7915-2.5984 5.7915-5.8037 0-3.2054-2.5929-5.8038-5.7915-5.8038-3.19853 0-5.79146 2.5984-5.79146 5.8038 0 3.2053 2.59293 5.8037 5.79146 5.8037z" fill="#ff5753"/><path d="m11.2151 93.9654c0-2.3952 1.4708-4.4219 3.4932-5.3432-.7354-.2763-1.4708-.4606-2.2982-.4606-3.21746 0-5.79145 2.5795-5.79145 5.8038s2.57399 5.8037 5.79145 5.8037c.8274 0 1.5628-.1842 2.2982-.4606-2.0224-.9212-3.4932-2.9479-3.4932-5.3431z" fill="#dd3c3c"/><path d="m63.8899 18.7931c5.1786 0 9.3766-4.207 9.3766-9.39657 0-5.18956-4.198-9.39653-9.3766-9.39653s-9.3767 4.20697-9.3767 9.39653c0 5.18957 4.1981 9.39657 9.3767 9.39657z" fill="#0067e8"/><path d="m61.7756 9.39653c0-3.86916 2.3902-7.2777 5.6996-8.659547-1.1031-.460614-2.3901-.736983-3.6771-.736983-5.148 0-9.3767 4.23765-9.3767 9.39653 0 5.15887 4.2287 9.39657 9.3767 9.39657 1.287 0 2.574-.2764 3.6771-.737-3.3094-1.3819-5.6996-4.7904-5.6996-8.65957z" fill="#0055bf"/><path d="m42.7464 115.061c3.7063 0 6.7108-3.011 6.7108-6.725s-3.0045-6.725-6.7108-6.725c-3.7062 0-6.7108 3.011-6.7108 6.725s3.0046 6.725 6.7108 6.725z" fill="#fed402"/><path d="m41.3675 108.336c0-2.763 1.6547-5.159 4.0448-6.172-.8273-.368-1.7466-.553-2.6659-.553-3.6771 0-6.7108 3.04-6.7108 6.725s3.0337 6.725 6.7108 6.725c.9193 0 1.8386-.184 2.6659-.552-2.3901-1.014-4.0448-3.409-4.0448-6.173z" fill="#fac600"/><path d="m34.8408 41.3633c3.1985 0 5.7915-2.5984 5.7915-5.8037s-2.593-5.8037-5.7915-5.8037-5.7915 2.5984-5.7915 5.8037 2.593 5.8037 5.7915 5.8037z" fill="#ff5753"/><path d="m33.3699 35.5596c0-2.3952 1.4709-4.514 3.5852-5.3431-.6435-.2764-1.3789-.4606-2.1143-.4606-3.2175 0-5.7915 2.5794-5.7915 5.8037s2.574 5.8037 5.7915 5.8037c.7354 0 1.4708-.1842 2.1143-.4606-2.1143-.9212-3.5852-2.9479-3.5852-5.3431z" fill="#dd3c3c"/><path d="m116.105 20.1751c-3.769 1.1976-5.148 2.5794-6.435 6.4486-.184.4606-.827.4606-1.011 0-1.195-3.7771-2.574-5.1589-6.435-6.4486-.46-.1843-.46-.8291 0-1.0134 3.769-1.1976 5.148-2.5794 6.435-6.4486.184-.4606.827-.4606 1.011 0 1.195 3.7771 2.574 5.1589 6.435 6.4486.46.1843.46.9213 0 1.0134z" fill="#ffc347"/><path d="m105.809 17.5034c-.919.6449-2.022 1.1976-3.493 1.6582-.46.1843-.46.8291 0 1.0134 3.769 1.1976 5.148 2.5794 6.435 6.4486.184.4606.827.4606 1.011 0 .46-1.474 1.011-2.6716 1.655-3.5007-1.195-3.1322-2.482-4.514-5.608-5.6195z" fill="#f39719"/><path d="m46.6995 85.9505c-3.769 1.1976-5.148 2.5794-6.4349 6.4486-.1839.4606-.8274.4606-1.0113 0-1.195-3.7771-2.574-5.1589-6.4349-6.4486-.4597-.1843-.4597-.8291 0-1.0134 3.769-1.1976 5.1479-2.5794 6.4349-6.4486.1839-.4606.8274-.4606 1.0113 0 1.195 3.7771 2.5739 5.1589 6.4349 6.4486.4597.1843.4597.8291 0 1.0134z" fill="#ffc347"/><path d="m36.4036 83.187c-.9193.6449-2.0225 1.1976-3.5852 1.7503-.4597.1843-.4597.8291 0 1.0134 3.769 1.1976 5.1479 2.5794 6.4349 6.4486.1839.4606.8274.4606 1.0113 0 .4596-1.5661 1.0112-2.6716 1.7466-3.5928-1.1951-3.1322-2.4821-4.4219-5.6076-5.6195z" fill="#f39719"/><path d="m115.002 66.3284c-3.769 1.1976-5.148 2.5794-6.435 6.4486-.184.4606-.827.4606-1.011 0-1.195-3.777-2.574-5.1589-6.435-6.4486-.46-.1842-.46-.8291 0-1.0133 3.769-1.1976 5.148-2.5795 6.435-6.4486.184-.4607.827-.4607 1.011 0 1.195 3.777 2.574 5.1588 6.435 6.4486.552.0921.552.8291 0 1.0133z" fill="#fea613"/><path d="m115.002 66.3284c-3.769 1.1976-5.148 2.5794-6.435 6.4486-.184.4606-.827.4606-1.011 0-1.195-3.777-2.574-5.1589-6.435-6.4486-.46-.1842-.46-.8291 0-1.0133 3.769-1.1976 5.148-2.5795 6.435-6.4486.184-.4607.827-.4607 1.011 0 1.195 3.777 2.574 5.1588 6.435 6.4486.552.0921.552.8291 0 1.0133z" fill="#ffc347"/><path d="m104.706 63.5649c-.919.6449-2.022 1.1976-3.585 1.7504-.46.1842-.46.8291 0 1.0133 3.769 1.1976 5.148 2.5795 6.435 6.4486.184.4606.827.4606 1.011 0 .46-1.4739 1.011-2.5794 1.655-3.5006-1.011-3.2243-2.39-4.6062-5.516-5.7117z" fill="#f39719"/><path d="m13.3296 68.5392c-3.49331 1.1976-4.78031 2.4873-5.97537 5.988-.18386.4606-.82736.4606-1.01121 0-1.19507-3.5007-2.48207-4.7904-5.97534-5.988-.4596411-.1843-.4596411-.8291 0-1.0134 3.49327-1.1976 4.78027-2.4873 5.97534-5.988.18385-.4606.82735-.4606 1.01121 0 1.19506 3.5007 2.48206 4.7904 5.97537 5.988.4596.1843.4596.8291 0 1.0134z" fill="#ffc347"/><path d="m56.9954 122.892c-2.2063.737-3.1256 1.658-3.861 3.869-.1839.461-.8273.461-1.0112 0-.7354-2.211-1.6547-3.132-3.861-3.869-.4596-.184-.4596-.829 0-1.013 2.2063-.737 3.1256-1.659 3.861-3.869.1839-.461.8273-.461 1.0112 0 .7354 2.21 1.6547 3.132 3.861 3.869.4596.184.4596.829 0 1.013z" fill="#fff"/><path d="m98.9148 35.7436c-2.2063.737-3.1255 1.6582-3.861 3.8692-.1838.4606-.8273.4606-1.0112 0-.7354-2.211-1.6547-3.1322-3.861-3.8692-.4596-.1843-.4596-.8291 0-1.0134 2.2063-.7369 3.1256-1.6582 3.861-3.8691.1839-.4606.8274-.4606 1.0112 0 .7355 2.2109 1.6547 3.1322 3.861 3.8691.5516.1843.5516.8291 0 1.0134z" fill="#fff"/><path d="m47.9863 131.644c-3.4933 1.197-4.7803 2.487-5.9753 5.988-.1839.46-.8274.46-1.0112 0-1.1951-3.501-2.4821-4.791-5.9754-5.988-.4596-.185-.4596-.829 0-1.014 3.4933-1.197 4.7803-2.487 5.9754-5.988.1838-.46.8273-.46 1.0112 0 1.195 3.501 2.482 4.791 5.9753 5.988.4596.185.4596.829 0 1.014z" fill="#ffc347"/><path d="m38.5177 128.88c-.8274.737-1.9305 1.29-3.4933 1.75-.4596.184-.4596.829 0 1.014 3.4933 1.197 4.7803 2.487 5.9754 5.988.1838.46.8273.46 1.0112 0 .4596-1.567 1.0112-2.672 1.7466-3.501-1.0112-2.948-2.2982-4.238-5.2399-5.251z" fill="#f39719"/><path d="m101.213 102.625c-3.7693 1.197-5.1483 2.579-6.4353 6.448-.1838.461-.8273.461-1.0112 0-1.195-3.777-2.574-5.158-6.435-6.448-.4596-.184-.4596-.829 0-1.014 3.7691-1.197 5.148-2.579 6.435-6.4482.1839-.4606.8274-.4606 1.0112 0 1.1951 3.7771 2.574 5.1592 6.4353 6.4482.459.093.459.83 0 1.014z" fill="#fff"/><path d="m34.5648 77.4751-1.6547 1.6582c-.1839.1843-.3677.1843-.5516 0l-1.6547-1.6582c-.1838-.1842-.1838-.3685 0-.5527l1.6547-1.6582c.1839-.1843.3677-.1843.5516 0l1.6547 1.6582c.0919.1842.0919.3685 0 .5527z" fill="#ffc347"/><path d="m51.7557 92.5835-1.6547 1.6582c-.1839.1843-.3677.1843-.5516 0l-1.6547-1.6582c-.1838-.1842-.1838-.3685 0-.5527l1.6547-1.6582c.1839-.1843.3677-.1843.5516 0l1.6547 1.6582c.1839.1842.1839.3685 0 .5527z" fill="#ffc347"/><path d="m104.246 41.916-1.654 1.6582c-.184.1843-.368.1843-.552 0l-1.655-1.6582c-.183-.1842-.183-.3685 0-.5527l1.655-1.6582c.184-.1843.368-.1843.552 0l1.654 1.6582c.092.1842.092.3685 0 .5527z" fill="#ffc347"/><path d="m86.6883 30.3086-1.6547 1.6582c-.1838.1843-.3677.1843-.5515 0l-1.6548-1.6582c-.1838-.1842-.1838-.3685 0-.5527l1.6548-1.6582c.1838-.1843.3677-.1843.5515 0l1.6547 1.6582c.1839.1842.1839.3685 0 .5527z" fill="#ffc347"/><path d="m55.8006 100.138-1.6547 1.658c-.1838.184-.3677.184-.5515 0l-1.6547-1.658c-.1839-.1845-.1839-.3688 0-.553l1.6547-1.6582c.1838-.1843.3677-.1843.5515 0l1.6547 1.6582c.092.1842.092.3685 0 .553z" fill="#fff"/></g></svg>