<svg fill="none" height="115" viewBox="0 0 115 115" width="115" xmlns="http://www.w3.org/2000/svg"><path d="m113.904 46.1279-.548-2.2836-3.837-10.8697-4.658-8.1295-4.841-6.1199-5.298-5.1152c-10.0477-8.49483-23.0183-13.61-37.1763-13.61-17.6291 0-33.4313 7.94678-43.9357 20.3693l-7.03335 10.5044-2.64893 5.8459-2.19222 7.0334-1.187446 6.1199-.548054 7.6728.548054 7.6727c3.745036 28.1335 27.768046 49.7816 56.997646 49.7816 18.4511 0 34.8927-8.678 45.3973-22.1962l1.187-1.5528 6.303-11.1438 1.827-4.9325c1.827-5.5718 2.74-11.5091 2.74-17.629 0-3.9277-.365-7.7641-1.096-11.4178z" fill="#0070fe"/><path d="m30.2341 60.6513c-.3654-2.5576-.548-5.1152-.548-7.6727 0-14.1581 5.1151-27.1287 13.61-37.085 5.5719-6.57668 12.6965-11.96588 20.7347-15.528231-2.1922-.2740267-4.2931-.365369-6.4853-.365369-17.6291 0-33.4313 7.94678-43.9357 20.3693l1.7355 7.3988-8.8602 32.0611-5.937248 5.3892c3.745038 28.1335 27.768048 49.7816 56.997648 49.7816 8.3121 0 16.1676-1.736 23.2923-4.932-26.2153-2.832-47.1327-23.3841-50.6037-49.4167z" fill="#0055bf"/><path d="m38.9119 76.4537c.9134.9134 1.4614 2.1922 1.4614 3.5623 0 2.8316-2.2835 5.0238-5.0238 5.0238h-7.9468c-1.3701 0-2.6489-.548-3.5623-1.4614-.9134-.9135-1.4615-2.1923-1.4615-3.5624 0-2.8316 2.2836-5.0238 5.0238-5.0238h7.9468c1.3702 0 2.6489.548 3.5624 1.4615z" fill="#0055bf"/><path d="m27.4027 85.1312h7.9468c1.2788 0 2.4663-.4567 3.3797-1.2788-1.8269-2.8316-3.2883-5.7546-4.5671-8.8602h-6.7594c-2.8316 0-5.0238 2.2835-5.0238 5.0238 0 1.3701.5481 2.6489 1.4615 3.5624.9134 1.0047 2.1922 1.5528 3.5623 1.5528z" fill="#003e8a"/><g fill="#0055bf"><path d="m112.26 75.1748c-2.101 6.4853-5.298 12.4226-9.317 17.6291l-11.6919-.1827c-3.0143 0-5.4806-2.4663-5.4806-5.4806 0-1.0961-.8221-1.9181-1.9182-1.9181h-23.475c-1.3701 0-2.6489-.5481-3.5623-1.4615s-1.4615-2.1922-1.4615-3.5624c0-2.8316 2.2836-5.0238 5.0238-5.0238z"/><path d="m113.904 46.1278h-32.7919c-1.6442 0-3.1057-.6394-4.2018-1.7355s-1.7355-2.5576-1.7355-4.2017c0-3.2884 2.6489-5.9373 5.9373-5.9373h6.4853c1.1874 0 2.1922-.4567 3.0143-1.2788.7307-.7307 1.2787-1.8268 1.2787-3.0143 0-2.2835-1.9181-4.2017-4.2017-4.2017h-2.1009c-1.6441 0-3.197-.6394-4.2931-1.8269-1.0961-1.0961-1.8268-2.6489-1.8268-4.2931 0-3.3796 2.7403-6.1199 6.1199-6.1199l9.1343-.0914c9.5909 8.4035 16.5329 19.73 19.1819 32.7006z"/><path d="m61.0167 46.9497c1.0047 1.0048 1.6441 2.3749 1.6441 3.9277 0 3.1057-2.4662 5.5719-5.5718 5.5719h-40.8301c0 4.7498-3.9277 8.6776-8.67749 8.6776l-7.124698.0913c-.274027-2.5576-.456712-5.1152-.456712-7.6728 0-14.158 5.11517-27.1286 13.61-37.085h35.3495c2.1009 0 3.9277.8221 5.2978 2.1923 1.3702 1.3701 2.1923 3.2883 2.1923 5.2978 0 4.2018-3.3797 7.5814-7.5815 7.5814h-4.1104c-2.7402 0-4.9324 2.1922-4.9324 4.9325s2.1922 4.9325 4.9324 4.9325h12.4226c1.4615-.0913 2.8316.5481 3.8364 1.5528z"/></g><path d="m29.6863 52.9783c0-12.0572 3.745-23.2923 10.139-32.5179h-26.2153c-8.49483 9.9564-13.61 22.927-13.61 37.085 0 2.649.182685 5.2065.548054 7.6728l7.124706-.0913c4.74984 0 8.67754-3.9278 8.67754-8.6776h13.5186c-.0913-1.1874-.1826-2.2835-.1826-3.471z" fill="#003e8a"/></svg>