<svg fill="none" height="114" viewBox="0 0 107 114" width="107" xmlns="http://www.w3.org/2000/svg"><path d="m56.5926 63.6925c.2769 0 .5539-.0923.8309-.1847 2.308-1.3846 3.6928-3.7846 3.6928-6.4615 0-.9231-.7386-1.6615-1.6618-1.6615s-1.6618.7384-1.6618 1.6615c0 1.4769-.7385 2.7692-2.031 3.5077-.8309.4615-1.1079 1.4769-.6463 2.3077.277.4615.8309.8308 1.4772.8308z" fill="#051720"/><path d="m97.2139 53.0769c.6462.1846 1.2001.2769 1.8464.2769 4.1547 0 7.4777-3.323 7.4777-7.4769 0-1.9384-.831-3.8769-2.215-5.2615-.093-.0923-.277-.2769-.37-.3692 1.293-4.5231.924-8.4924-.923-11.7231-4.062-7.0154-14.6789-9.3231-29.1733-6.3693-4.8007-14.12303-12.0941-22.1538-20.2183-22.1538-8.1243 0-15.3253 8.03077-20.126 22.0615-14.5867-2.8615-25.20361-.5538-29.17342 6.4616-1.84641 3.1384-2.12338 7.1077-1.01553 11.4461-3.2312298 2.4923-3.785156 7.2-1.29249 10.4308 1.93874 2.4 5.07765 3.4154 8.03194 2.4923 1.0155 1.2923 2.1234 2.6769 3.2312 4.0615-9.69368 11.1693-13.017238 21.5077-8.95512 28.5231 2.86195 4.9846 9.13982 7.6616 17.91032 7.6616 3.7851-.0923 7.5703-.4616 11.3554-1.2 4.8007 14.0305 12.0941 22.0615 20.126 22.0615 3.6928 0 7.201-1.754 10.5246-4.892 3.7851 1.661 8.1242-.093 9.786-3.877 1.2002-2.769.6463-6.0925-1.5694-8.2156-.0924-.0923-.277-.1846-.3693-.3693.6462-1.4769 1.2001-3.0461 1.8464-4.7076 3.6928.7384 7.478 1.2 11.3555 1.2 8.6781 0 14.9555-2.5847 17.9105-7.6616 4.062-7.0154.738-17.3538-9.0477-28.5231.9232-1.2923 2.031-2.5846 3.0466-3.8769zm5.9081-7.2c0 2.2154-1.846 4.0616-4.0617 4.0616-1.1079 0-2.1234-.4616-2.862-1.2-1.5694-1.5693-1.5694-4.1539 0-5.8154 1.5695-1.5693 4.1547-1.5693 5.8167 0 .738.8307 1.107 1.8461 1.107 2.9538zm-2.954-15.6923c1.293 2.3077 1.57 5.1692.739 8.4923-3.9701-1.0154-8.0322 1.3846-9.0477 5.3539-.6463 2.5846.0923 5.2615 1.9387 7.1077.0923.0923.277.2769.3693.3692-.7386 1.0154-1.5695 2.0308-2.4927 3.0461-4.1544-4.2461-8.5858-8.2153-13.4789-11.723-.6462-5.9077-1.754-11.7231-3.4158-17.4462 12.7403-2.4923 22.157-.7384 25.3881 4.8zm-21.5106 17.1692c3.7851 2.9539 7.3856 6.1847 10.7092 9.6924-3.3236 3.5076-6.9241 6.7384-10.7092 9.6923.2769-3.1385.3692-6.3693.3692-9.6923 0-3.3231-.0923-6.5539-.3692-9.6924zm-2.9543 9.6c0 4.1539-.1847 8.3077-.6463 12.3693-3.2312 2.3077-6.7394 4.6154-10.4322 6.7384-3.6005 2.1231-7.2934 3.9693-10.9862 5.6308-3.6929-1.6615-7.3857-3.6-10.9862-5.6308-3.6005-2.123-7.1087-4.3384-10.4323-6.7384-.3693-4.0616-.6462-8.2154-.6462-12.3693 0-4.1538.1846-8.3076.6462-12.3692 3.2312-2.3077 6.7394-4.6154 10.4323-6.7384 3.6005-2.1231 7.2933-3.9693 10.9862-5.6308 3.6928 1.6615 7.3857 3.6 10.9862 5.6308 3.6005 2.123 7.1087 4.3384 10.4322 6.7384.4616 4.0616.6463 8.2154.6463 12.3692zm-1.2002-16.8c-2.585-1.7538-5.3546-3.5076-8.2165-5.1692-2.7697-1.6615-5.6316-3.1384-8.5859-4.5231 4.4314-1.8461 9.0475-3.323 13.7558-4.4307 1.4772 4.6154 2.4927 9.323 3.0466 14.123zm-20.8645-36.83072c6.3701 0 12.6479 7.20002 16.8947 19.47692-5.8162 1.4769-11.4478 3.4154-16.8947 5.8154-5.447-2.4-11.0785-4.3385-16.8948-5.8154 4.3391-12.1846 10.5246-19.47692 16.8948-19.47692zm-17.818 22.70772c4.7084 1.1077 9.2321 2.6769 13.7559 4.4307-2.862 1.3847-5.7239 2.8616-8.4936 4.5231-2.8619 1.6616-5.5392 3.3231-8.2165 5.1692.5539-4.8 1.5694-9.5076 2.9542-14.123zm-25.0189 22.7077c-1.56951 1.5692-4.15449 1.5692-5.81627 0-1.56946-1.5693-1.56946-4.1539 0-5.8154 1.56946-1.6616 4.15444-1.5693 5.81627 0 1.5694 1.6615 1.5694 4.2461 0 5.8154zm2.2157 2.4923c.0923-.0923.0923-.0923.1846-.1846 2.9543-2.9539 2.9543-7.6616 0-10.5231-1.7541-1.7539-4.33909-2.4923-6.73943-2.0308-.73857-3.3231-.55393-6.0923.83089-8.4 3.23124-5.5385 12.55564-7.2923 25.29594-4.8923-1.6618 5.7231-2.7696 11.5385-3.4159 17.4462-4.8007 3.5076-9.3244 7.3846-13.4788 11.723-1.0156-.923-1.8465-2.0307-2.6773-3.1384zm15.6022 15.4153c-3.7852-2.9538-7.3857-6.1846-10.7092-9.6923 3.3235-3.4153 6.924-6.6461 10.7092-9.6-.277 3.1385-.3693 6.3693-.3693 9.6924.0923 3.2307.1847 6.4615.3693 9.5999zm-21.41847 17.1693c-3.23123-5.5385 0-14.5846 8.40117-24.2769 4.1545 4.2461 8.5859 8.2153 13.3866 11.723.6462 5.9077 1.7541 11.7231 3.4159 17.4462-12.648 2.4-21.9724.6462-25.20367-4.8923zm25.57287-9.9692c2.585 1.7538 5.3547 3.5076 8.2166 5.1692 2.7696 1.6615 5.6316 3.1384 8.4935 4.5231-4.4314 1.8461-9.0474 3.323-13.7558 4.4307-1.2925-4.6153-2.308-9.323-2.9543-14.123zm37.2977 31.2918c-1.5694 1.57-4.1544 1.57-5.8162 0-.8309-.83-1.2925-2.123-1.2002-3.323.0923-.923-.5539-1.753-1.4771-1.8458-.9232-.0923-1.7541.5538-1.8464 1.4768-.1847 2.031.4616 3.969 1.7541 5.539-2.4927 2.4-5.0777 3.6-7.755 3.6-6.3701 0-12.648-7.2-16.8947-19.4773 5.8162-1.4769 11.4478-3.3231 16.8947-5.8154 5.4469 2.4 11.0785 4.3385 16.8947 5.8154-.4616 1.3846-.9232 2.6769-1.4771 3.8769-1.2002-.3692-2.4927-.3692-3.7852 0-.9232.1846-1.4771 1.1077-1.2925 2.0308.1847.9231 1.1079 1.4769 2.0311 1.2923h.0923c1.3848-.3692 2.862.0923 3.8775 1.1077 1.5695 1.5696 1.5695 4.1536 0 5.7226zm1.4771-17.1688c-4.7083-1.1077-9.2321-2.6769-13.7558-4.4307 2.862-1.3847 5.7239-2.8616 8.4936-4.5231 2.8619-1.6616 5.5392-3.3231 8.2165-5.1692-.5539 4.8-1.5694 9.5077-2.9543 14.123zm28.6194-4.1538c-3.2311 5.5385-12.5555 7.2923-25.2958 4.8923 1.6618-5.7231 2.7696-11.5385 3.4159-17.4462 4.8007-3.5077 9.3244-7.3846 13.3865-11.723 8.4934 9.6923 11.6324 18.7384 8.4934 24.2769z" fill="#0070fe"/><g fill="#ff5753"><path d="m53.9154 68.2154c6.7303 0 12.1863-5.4552 12.1863-12.1846s-5.456-12.1846-12.1863-12.1846c-6.7304 0-12.1864 5.4552-12.1864 12.1846s5.456 12.1846 12.1864 12.1846z"/><path d="m99.0602 53.8154c4.3848 0 7.9398-3.5542 7.9398-7.9385s-3.555-7.9384-7.9398-7.9384c-4.3849 0-7.9396 3.5541-7.9396 7.9384s3.5547 7.9385 7.9396 7.9385z"/><path d="m66.9328 110.031c4.3849 0 7.9396-3.554 7.9396-7.939 0-4.384-3.5547-7.9382-7.9396-7.9382-4.385 0-7.9396 3.5542-7.9396 7.9382 0 4.385 3.5546 7.939 7.9396 7.939z"/><path d="m7.9396 53.8154c4.3849 0 7.9396-3.5542 7.9396-7.9385s-3.5547-7.9384-7.9396-7.9384c-4.38492 0-7.9396 3.5541-7.9396 7.9384s3.55468 7.9385 7.9396 7.9385z"/><path d="m99.0602 53.8154c4.3848 0 7.9398-3.5542 7.9398-7.9385s-3.555-7.9384-7.9398-7.9384c-4.3849 0-7.9396 3.5541-7.9396 7.9384s3.5547 7.9385 7.9396 7.9385z"/></g><path d="m97.3984 45.8769c0-3.2307 1.9388-6.0923 4.8006-7.2923-.923-.3692-2.031-.6461-3.1388-.6461-4.3391 0-7.9396 3.5077-7.9396 7.9384 0 4.4308 3.5082 7.9385 7.9396 7.9385 1.1078 0 2.1238-.1846 3.1388-.6462-2.8618-1.2923-4.8006-4.0615-4.8006-7.2923z" fill="#dd3c3c"/><path d="m67.1173 110.215c4.385 0 7.9396-3.554 7.9396-7.938 0-4.3844-3.5546-7.9386-7.9396-7.9386-4.3849 0-7.9396 3.5542-7.9396 7.9386 0 4.384 3.5547 7.938 7.9396 7.938z" fill="#ff5753"/><path d="m65.4556 102.277c0-3.2309 1.9387-6.0925 4.8007-7.2925-.9233-.3692-2.0311-.6461-3.139-.6461-4.339 0-7.9396 3.5077-7.9396 7.9386 0 4.431 3.5082 7.938 7.9396 7.938 1.1079 0 2.1234-.184 3.139-.646-2.7697-1.292-4.8007-4.061-4.8007-7.292z" fill="#dd3c3c"/><path d="m7.9396 53.8154c4.3849 0 7.9396-3.5542 7.9396-7.9385s-3.5547-7.9384-7.9396-7.9384c-4.38492 0-7.9396 3.5541-7.9396 7.9384s3.55468 7.9385 7.9396 7.9385z" fill="#ff5753"/><path d="m6.1855 45.8769c0-3.2307 1.93874-6.0923 4.8007-7.2923-.9232-.3692-2.03107-.6461-3.13892-.6461-4.33908 0-7.84728 3.6-7.84728 7.9384 0 4.3385 3.5082 7.9385 7.9396 7.9385 1.10785 0 2.1234-.1846 3.1389-.6462-2.86193-1.2-4.893-4.0615-4.893-7.2923z" fill="#dd3c3c"/><path d="m65.686 56.4588c.224-6.7253-5.0472-12.3588-11.7735-12.5827-6.7263-.224-12.3606 5.0464-12.5846 11.7718-.224 6.7253 5.0472 12.3588 11.7735 12.5828 6.7263.2239 12.3606-5.0465 12.5846-11.7719z" fill="#ff5753"/><path d="m50.869 56.0308c0-5.0769 3.0465-9.323 7.3856-11.2615-1.4771-.6462-3.1389-1.0154-4.8007-1.0154-6.7394 0-12.1863 5.4462-12.1863 12.1846 0 6.7385 5.4469 12.1846 12.1863 12.1846 1.6618 0 3.3236-.3692 4.8007-1.0154-4.3391-1.7538-7.3856-6.0923-7.3856-11.0769z" fill="#dd3c3c"/></svg>