<svg fill="none" height="149" viewBox="0 0 82 149" width="82" xmlns="http://www.w3.org/2000/svg" xmlns:xlink="http://www.w3.org/1999/xlink"><clipPath id="a"><path d="m0 0h82v149h-82z"/></clipPath><g clip-path="url(#a)"><path d="m80.4838 136.203-3.6641-3.674c-.379-.38-.7581-.634-1.1371-.887 2.2743-12.037 3.5377-24.327 3.7904-36.6167-.1263-13.0502-1.8952-25.9736-5.1802-38.517h-66.58556c-3.28505 12.5434-5.05393 25.5935-5.18028 38.517.2527 12.2897 1.51618 24.5797 3.79045 36.6167-.37904.253-.88444.507-1.13713.887l-3.6641 3.674c-2.021573 2.027-2.021573 5.195 0 7.222l1.76887 1.774c2.02158 2.027 5.18028 2.027 7.20185 0l2.6533-2.661c8.5917 4.435 18.0678 6.715 27.7966 6.462 9.6025.253 19.205-1.901 27.7966-6.462l2.6533 2.661c2.0216 2.027 5.1803 2.027 7.2019 0l1.7689-1.774c2.1479-2.027 2.1479-5.321.1263-7.222z" fill="#ffc347"/><path d="m7.70713 46.2456h66.58547c2.7797 0 5.1803 2.2806 5.1803 5.1947 0 2.7874-2.2742 5.1948-5.1803 5.1948h-66.58547c-2.77966 0-5.18027-2.2807-5.18027-5.1948s2.27426-5.1947 5.18027-5.1947z" fill="#34233c"/><path d="m46.1171 105.288c5.6857 0 10.2342-4.561 10.2342-10.2625h-5.1803c-2.906 0-5.812 1.267-7.7072 3.5476v-13.8103h2.527c5.6856 0 10.2342-4.5613 10.2342-10.2628h-5.1803c-3.7905 0-7.2019 2.1539-8.9707 5.4481-.7581-.5068-1.6426-.5068-2.4007 0-1.7688-3.4209-5.1802-5.4481-8.9707-5.4481h-5.1803c0 5.7015 4.5486 10.2628 10.2342 10.2628h2.527v13.8103c-1.7689-2.2806-4.5485-3.5476-7.5809-3.5476h-5.1803c0 5.7015 4.5486 10.2625 10.2342 10.2625h2.527v13.811c-1.8952-2.281-4.6749-3.548-7.7072-3.548h-5.1803c0 5.702 4.5485 10.263 10.2342 10.263h2.527v7.729c0 1.393 1.1371 2.534 2.5269 2.534 1.3899 0 2.527-1.141 2.527-2.534v-7.729h2.527c5.6856 0 10.2342-4.561 10.2342-10.263h-5.1803c-2.906 0-5.812 1.267-7.7073 3.548v-13.811z" fill="#ffc347"/><path d="m69.1124 30.7882c-.1264 0-.1264 0-.2527 0-1.2635-5.9549-6.4438-10.2627-12.5085-10.2627-.379 0-.6317.1267-.8844.1267 2.4006-6.4618.1263-13.6837-5.433-17.73813-5.5593-4.05442-13.1402-3.801016-18.5732.38011-5.433 4.30782-7.3282 11.65642-4.6749 17.99152-1.1371-.5068-2.4006-.7602-3.6641-.7602-5.6857 0-10.2342 4.5612-10.2342 10.2627v.5068c-.8844-.2534-1.7689-.5068-2.6533-.5068-4.29584 0-7.70724 3.4209-7.70724 7.7288 0 4.3078 3.4114 7.7287 7.70724 7.7287h58.8783c4.2958 0 7.7072-3.4209 7.7072-7.7287 0-4.3079-3.4114-7.7288-7.7072-7.7288z" fill="#ffc347"/><g fill="#f15350"><path d="m40.9367 15.4577h-2.5269c-1.3899 0-2.527-1.1403-2.527-2.534s1.1371-2.5341 2.527-2.5341h2.5269c1.3899 0 2.527 1.1404 2.527 2.5341s-1.0108 2.534-2.527 2.534z"/><path d="m46.1169 25.7204h-2.5269c-1.3899 0-2.527-1.1403-2.527-2.534 0-1.3938 1.1371-2.5341 2.527-2.5341h2.5269c1.3899 0 2.527 1.1403 2.527 2.5341 0 1.3937-1.1371 2.534-2.527 2.534z"/><path d="m38.4099 33.4494h-2.527c-1.3898 0-2.5269-1.1403-2.5269-2.534s1.1371-2.5341 2.5269-2.5341h2.527c1.3898 0 2.527 1.1404 2.527 2.5341s-1.1372 2.534-2.527 2.534z"/><path d="m53.8244 38.5172h-2.5269c-1.3899 0-2.527-1.1403-2.527-2.534s1.1371-2.534 2.527-2.534h2.5269c1.3899 0 2.527 1.1403 2.527 2.534s-1.1371 2.534-2.527 2.534z"/><path d="m25.6487 38.5172h-2.527c-1.3898 0-2.527-1.1403-2.527-2.534s1.1372-2.534 2.527-2.534h2.527c1.3898 0 2.5269 1.1403 2.5269 2.534s-1.1371 2.534-2.5269 2.534z"/></g><path d="m40.9368 149c-9.6024.253-19.2049-1.901-27.7966-6.462l-2.6533 2.661c-2.02157 2.027-5.18027 2.027-7.20185 0l-1.76887-1.774c-2.021573-2.027-2.021573-5.195 0-7.222l3.6641-3.674c.37904-.38.75809-.634 1.13713-.887-2.27427-12.037-3.53775-24.327-3.79045-36.6167.12635-13.0502 1.89523-25.9736 5.18028-38.517h18.82586 13.1402" fill="#f39719"/><path d="m46.1171 105.288c5.6857 0 10.2342-4.561 10.2342-10.2625h-5.1803c-2.906 0-5.812 1.267-7.7072 3.5476v-13.8103h2.527c5.6856 0 10.2342-4.5613 10.2342-10.2628h-5.1803c-3.7905 0-7.2019 2.1539-8.9707 5.4481-.7581-.5068-1.6426-.5068-2.4007 0-1.7688-3.4209-5.1802-5.4481-8.9707-5.4481h-5.1803c0 5.7015 4.5486 10.2628 10.2342 10.2628h2.527v13.8103c-1.7689-2.2806-4.5485-3.5476-7.5809-3.5476h-5.1803c0 5.7015 4.5486 10.2625 10.2342 10.2625h2.527v13.811c-1.8952-2.281-4.6749-3.548-7.7072-3.548h-5.1803c0 5.702 4.5485 10.263 10.2342 10.263h2.527v7.729c0 1.393 1.1371 2.534 2.5269 2.534 1.3899 0 2.527-1.141 2.527-2.534v-7.729h2.527c5.6856 0 10.2342-4.561 10.2342-10.263h-5.1803c-2.906 0-5.812 1.267-7.7073 3.548v-13.811z" fill="#fff"/></g></svg>