<svg width="483" height="378" viewBox="0 0 483 378" fill="none" xmlns="http://www.w3.org/2000/svg">
<rect x="435" y="28" width="38" height="293" fill="#0067E8"/>
<path d="M94.511 369H89.99V361.146H94.511V362.51H91.651V364.237H94.313V365.601H91.651V367.625H94.511V369ZM100.204 367.218C100.204 367.827 99.9879 368.296 99.5553 368.626C99.1299 368.949 98.4919 369.11 97.6413 369.11C97.2233 369.11 96.8639 369.081 96.5633 369.022C96.2626 368.971 95.9619 368.883 95.6613 368.758V367.405C95.9839 367.552 96.3323 367.673 96.7063 367.768C97.0803 367.863 97.4103 367.911 97.6963 367.911C98.0189 367.911 98.2463 367.863 98.3783 367.768C98.5176 367.673 98.5873 367.548 98.5873 367.394C98.5873 367.291 98.5579 367.2 98.4993 367.119C98.4479 367.038 98.3306 366.947 98.1473 366.844C97.9639 366.741 97.6779 366.609 97.2893 366.448C96.9153 366.287 96.6073 366.129 96.3653 365.975C96.1233 365.814 95.9436 365.623 95.8263 365.403C95.7089 365.176 95.6503 364.893 95.6503 364.556C95.6503 363.999 95.8666 363.581 96.2993 363.302C96.7319 363.023 97.3076 362.884 98.0263 362.884C98.4003 362.884 98.7559 362.921 99.0933 362.994C99.4306 363.067 99.7789 363.188 100.138 363.357L99.6433 364.534C99.3499 364.409 99.0713 364.307 98.8073 364.226C98.5433 364.138 98.2756 364.094 98.0043 364.094C97.5203 364.094 97.2783 364.226 97.2783 364.49C97.2783 364.585 97.3076 364.673 97.3663 364.754C97.4323 364.827 97.5533 364.908 97.7293 364.996C97.9126 365.084 98.1803 365.201 98.5323 365.348C98.8769 365.487 99.1739 365.634 99.4233 365.788C99.6726 365.935 99.8633 366.122 99.9953 366.349C100.135 366.569 100.204 366.859 100.204 367.218ZM104.011 367.801C104.194 367.801 104.37 367.783 104.539 367.746C104.708 367.709 104.876 367.665 105.045 367.614V368.835C104.869 368.908 104.649 368.971 104.385 369.022C104.128 369.081 103.846 369.11 103.538 369.11C103.179 369.11 102.856 369.051 102.57 368.934C102.291 368.817 102.068 368.615 101.899 368.329C101.738 368.036 101.657 367.632 101.657 367.119V364.226H100.876V363.533L101.778 362.983L102.251 361.718H103.296V362.994H104.979V364.226H103.296V367.119C103.296 367.346 103.362 367.519 103.494 367.636C103.626 367.746 103.798 367.801 104.011 367.801ZM107.076 360.64C107.318 360.64 107.527 360.699 107.703 360.816C107.879 360.926 107.967 361.135 107.967 361.443C107.967 361.744 107.879 361.953 107.703 362.07C107.527 362.187 107.318 362.246 107.076 362.246C106.826 362.246 106.614 362.187 106.438 362.07C106.269 361.953 106.185 361.744 106.185 361.443C106.185 361.135 106.269 360.926 106.438 360.816C106.614 360.699 106.826 360.64 107.076 360.64ZM107.89 362.994V369H106.251V362.994H107.89ZM116.653 362.884C117.335 362.884 117.848 363.06 118.193 363.412C118.545 363.757 118.721 364.314 118.721 365.084V369H117.082V365.491C117.082 364.626 116.781 364.193 116.18 364.193C115.747 364.193 115.439 364.347 115.256 364.655C115.073 364.963 114.981 365.407 114.981 365.986V369H113.342V365.491C113.342 364.626 113.041 364.193 112.44 364.193C111.985 364.193 111.67 364.365 111.494 364.71C111.325 365.047 111.241 365.535 111.241 366.173V369H109.602V362.994H110.856L111.076 363.764H111.164C111.347 363.456 111.597 363.232 111.912 363.093C112.235 362.954 112.568 362.884 112.913 362.884C113.353 362.884 113.727 362.957 114.035 363.104C114.343 363.243 114.578 363.463 114.739 363.764H114.882C115.065 363.456 115.318 363.232 115.641 363.093C115.971 362.954 116.308 362.884 116.653 362.884ZM122.873 362.873C123.679 362.873 124.295 363.049 124.721 363.401C125.153 363.746 125.37 364.277 125.37 364.996V369H124.226L123.907 368.186H123.863C123.606 368.509 123.335 368.743 123.049 368.89C122.763 369.037 122.37 369.11 121.872 369.11C121.336 369.11 120.893 368.956 120.541 368.648C120.189 368.333 120.013 367.852 120.013 367.207C120.013 366.569 120.236 366.1 120.684 365.799C121.131 365.491 121.802 365.322 122.697 365.293L123.742 365.26V364.996C123.742 364.681 123.657 364.45 123.489 364.303C123.327 364.156 123.1 364.083 122.807 364.083C122.513 364.083 122.227 364.127 121.949 364.215C121.67 364.296 121.391 364.398 121.113 364.523L120.574 363.412C120.896 363.243 121.252 363.111 121.641 363.016C122.037 362.921 122.447 362.873 122.873 362.873ZM123.104 366.239C122.576 366.254 122.209 366.349 122.004 366.525C121.798 366.701 121.696 366.932 121.696 367.218C121.696 367.467 121.769 367.647 121.916 367.757C122.062 367.86 122.253 367.911 122.488 367.911C122.84 367.911 123.137 367.808 123.379 367.603C123.621 367.39 123.742 367.093 123.742 366.712V366.217L123.104 366.239ZM129.577 367.801C129.761 367.801 129.937 367.783 130.105 367.746C130.274 367.709 130.443 367.665 130.611 367.614V368.835C130.435 368.908 130.215 368.971 129.951 369.022C129.695 369.081 129.412 369.11 129.104 369.11C128.745 369.11 128.422 369.051 128.136 368.934C127.858 368.817 127.634 368.615 127.465 368.329C127.304 368.036 127.223 367.632 127.223 367.119V364.226H126.442V363.533L127.344 362.983L127.817 361.718H128.862V362.994H130.545V364.226H128.862V367.119C128.862 367.346 128.928 367.519 129.06 367.636C129.192 367.746 129.365 367.801 129.577 367.801ZM134.292 362.884C135.121 362.884 135.777 363.122 136.261 363.599C136.745 364.068 136.987 364.739 136.987 365.612V366.404H133.115C133.13 366.866 133.265 367.229 133.522 367.493C133.786 367.757 134.149 367.889 134.611 367.889C135 367.889 135.352 367.852 135.667 367.779C135.982 367.698 136.309 367.577 136.646 367.416V368.681C136.353 368.828 136.041 368.934 135.711 369C135.388 369.073 134.996 369.11 134.534 369.11C133.933 369.11 133.401 369 132.939 368.78C132.477 368.553 132.114 368.212 131.85 367.757C131.586 367.302 131.454 366.73 131.454 366.041C131.454 365.337 131.571 364.754 131.806 364.292C132.048 363.823 132.382 363.471 132.807 363.236C133.232 363.001 133.727 362.884 134.292 362.884ZM134.303 364.05C133.988 364.05 133.724 364.153 133.511 364.358C133.306 364.563 133.185 364.882 133.148 365.315H135.447C135.44 364.948 135.344 364.648 135.161 364.413C134.978 364.171 134.692 364.05 134.303 364.05ZM140.219 369.11C139.552 369.11 139.005 368.85 138.58 368.329C138.162 367.801 137.953 367.027 137.953 366.008C137.953 364.981 138.166 364.204 138.591 363.676C139.016 363.148 139.574 362.884 140.263 362.884C140.696 362.884 141.051 362.968 141.33 363.137C141.609 363.306 141.829 363.515 141.99 363.764H142.045C142.023 363.647 141.997 363.478 141.968 363.258C141.939 363.031 141.924 362.8 141.924 362.565V360.64H143.563V369H142.309L141.99 368.219H141.924C141.763 368.468 141.546 368.681 141.275 368.857C141.004 369.026 140.652 369.11 140.219 369.11ZM140.791 367.801C141.246 367.801 141.565 367.669 141.748 367.405C141.931 367.134 142.027 366.73 142.034 366.195V366.019C142.034 365.432 141.942 364.985 141.759 364.677C141.583 364.369 141.253 364.215 140.769 364.215C140.41 364.215 140.127 364.373 139.922 364.688C139.717 364.996 139.614 365.443 139.614 366.03C139.614 366.617 139.717 367.06 139.922 367.361C140.127 367.654 140.417 367.801 140.791 367.801ZM150.081 362.884C150.822 362.884 151.401 363.177 151.819 363.764H151.863L151.995 362.994H153.381V369.011C153.381 369.869 153.128 370.522 152.622 370.969C152.116 371.416 151.368 371.64 150.378 371.64C149.953 371.64 149.557 371.614 149.19 371.563C148.831 371.512 148.479 371.42 148.134 371.288V369.979C148.875 370.287 149.656 370.441 150.477 370.441C151.321 370.441 151.742 369.986 151.742 369.077V368.956C151.742 368.831 151.746 368.703 151.753 368.571C151.768 368.439 151.779 368.322 151.786 368.219H151.742C151.537 368.534 151.291 368.762 151.005 368.901C150.719 369.04 150.397 369.11 150.037 369.11C149.326 369.11 148.769 368.839 148.365 368.296C147.969 367.746 147.771 366.983 147.771 366.008C147.771 365.025 147.977 364.259 148.387 363.709C148.798 363.159 149.363 362.884 150.081 362.884ZM150.598 364.215C149.828 364.215 149.443 364.82 149.443 366.03C149.443 367.225 149.836 367.823 150.62 367.823C151.038 367.823 151.346 367.706 151.544 367.471C151.75 367.229 151.852 366.811 151.852 366.217V366.019C151.852 365.374 151.753 364.912 151.555 364.633C151.357 364.354 151.038 364.215 150.598 364.215ZM158.45 362.884C158.531 362.884 158.626 362.888 158.736 362.895C158.846 362.902 158.934 362.913 159 362.928L158.879 364.468C158.828 364.453 158.751 364.442 158.648 364.435C158.553 364.42 158.469 364.413 158.395 364.413C158.117 364.413 157.849 364.464 157.592 364.567C157.336 364.662 157.127 364.82 156.965 365.04C156.811 365.26 156.734 365.561 156.734 365.942V369H155.095V362.994H156.338L156.58 364.006H156.657C156.833 363.698 157.075 363.434 157.383 363.214C157.691 362.994 158.047 362.884 158.45 362.884ZM165.332 365.986C165.332 366.983 165.068 367.753 164.54 368.296C164.019 368.839 163.308 369.11 162.406 369.11C161.848 369.11 161.35 368.989 160.91 368.747C160.477 368.505 160.136 368.153 159.887 367.691C159.637 367.222 159.513 366.653 159.513 365.986C159.513 364.989 159.773 364.222 160.294 363.687C160.814 363.152 161.529 362.884 162.439 362.884C163.003 362.884 163.502 363.005 163.935 363.247C164.367 363.489 164.708 363.841 164.958 364.303C165.207 364.758 165.332 365.319 165.332 365.986ZM161.185 365.986C161.185 366.58 161.28 367.031 161.471 367.339C161.669 367.64 161.988 367.79 162.428 367.79C162.86 367.79 163.172 367.64 163.363 367.339C163.561 367.031 163.66 366.58 163.66 365.986C163.66 365.392 163.561 364.948 163.363 364.655C163.172 364.354 162.857 364.204 162.417 364.204C161.984 364.204 161.669 364.354 161.471 364.655C161.28 364.948 161.185 365.392 161.185 365.986ZM170.948 366.899C170.919 366.774 170.875 366.591 170.816 366.349C170.765 366.1 170.706 365.836 170.64 365.557C170.574 365.271 170.512 365.011 170.453 364.776C170.395 364.534 170.354 364.358 170.332 364.248H170.288C170.266 364.358 170.226 364.534 170.167 364.776C170.116 365.011 170.057 365.271 169.991 365.557C169.925 365.836 169.863 366.1 169.804 366.349C169.746 366.598 169.702 366.789 169.672 366.921L169.188 369H167.428L165.723 362.994H167.351L168.044 365.656C168.096 365.839 168.14 366.059 168.176 366.316C168.22 366.573 168.261 366.822 168.297 367.064C168.334 367.299 168.36 367.486 168.374 367.625H168.418C168.426 367.522 168.44 367.387 168.462 367.218C168.484 367.042 168.51 366.862 168.539 366.679C168.576 366.496 168.605 366.331 168.627 366.184C168.657 366.03 168.679 365.927 168.693 365.876L169.43 362.994H171.234L171.938 365.876C171.968 365.979 172.001 366.144 172.037 366.371C172.081 366.598 172.118 366.829 172.147 367.064C172.184 367.299 172.202 367.486 172.202 367.625H172.246C172.261 367.5 172.287 367.321 172.323 367.086C172.36 366.844 172.4 366.591 172.444 366.327C172.496 366.063 172.547 365.839 172.598 365.656L173.313 362.994H174.919L173.192 369H171.41L170.948 366.899ZM178.422 367.801C178.606 367.801 178.782 367.783 178.95 367.746C179.119 367.709 179.288 367.665 179.456 367.614V368.835C179.28 368.908 179.06 368.971 178.796 369.022C178.54 369.081 178.257 369.11 177.949 369.11C177.59 369.11 177.267 369.051 176.981 368.934C176.703 368.817 176.479 368.615 176.31 368.329C176.149 368.036 176.068 367.632 176.068 367.119V364.226H175.287V363.533L176.189 362.983L176.662 361.718H177.707V362.994H179.39V364.226H177.707V367.119C177.707 367.346 177.773 367.519 177.905 367.636C178.037 367.746 178.21 367.801 178.422 367.801ZM182.301 362.345C182.301 362.638 182.29 362.921 182.268 363.192C182.253 363.463 182.238 363.654 182.224 363.764H182.312C182.502 363.456 182.748 363.232 183.049 363.093C183.349 362.954 183.683 362.884 184.05 362.884C184.702 362.884 185.223 363.06 185.612 363.412C186.008 363.757 186.206 364.314 186.206 365.084V369H184.567V365.491C184.567 364.626 184.244 364.193 183.599 364.193C183.107 364.193 182.766 364.365 182.576 364.71C182.392 365.047 182.301 365.535 182.301 366.173V369H180.662V360.64H182.301V362.345ZM196.205 365.986C196.205 366.983 195.941 367.753 195.413 368.296C194.892 368.839 194.181 369.11 193.279 369.11C192.721 369.11 192.223 368.989 191.783 368.747C191.35 368.505 191.009 368.153 190.76 367.691C190.51 367.222 190.386 366.653 190.386 365.986C190.386 364.989 190.646 364.222 191.167 363.687C191.687 363.152 192.402 362.884 193.312 362.884C193.876 362.884 194.375 363.005 194.808 363.247C195.24 363.489 195.581 363.841 195.831 364.303C196.08 364.758 196.205 365.319 196.205 365.986ZM192.058 365.986C192.058 366.58 192.153 367.031 192.344 367.339C192.542 367.64 192.861 367.79 193.301 367.79C193.733 367.79 194.045 367.64 194.236 367.339C194.434 367.031 194.533 366.58 194.533 365.986C194.533 365.392 194.434 364.948 194.236 364.655C194.045 364.354 193.73 364.204 193.29 364.204C192.857 364.204 192.542 364.354 192.344 364.655C192.153 364.948 192.058 365.392 192.058 365.986ZM200.881 364.226H199.462V369H197.823V364.226H196.921V363.434L197.823 362.994V362.554C197.823 362.041 197.908 361.645 198.076 361.366C198.252 361.08 198.498 360.878 198.813 360.761C199.136 360.644 199.514 360.585 199.946 360.585C200.269 360.585 200.559 360.611 200.815 360.662C201.079 360.713 201.292 360.772 201.453 360.838L201.035 362.037C200.911 362 200.775 361.967 200.628 361.938C200.482 361.901 200.313 361.883 200.122 361.883C199.895 361.883 199.726 361.953 199.616 362.092C199.514 362.231 199.462 362.407 199.462 362.62V362.994H200.881V364.226ZM207.201 367.801C207.384 367.801 207.56 367.783 207.729 367.746C207.897 367.709 208.066 367.665 208.235 367.614V368.835C208.059 368.908 207.839 368.971 207.575 369.022C207.318 369.081 207.036 369.11 206.728 369.11C206.368 369.11 206.046 369.051 205.76 368.934C205.481 368.817 205.257 368.615 205.089 368.329C204.927 368.036 204.847 367.632 204.847 367.119V364.226H204.066V363.533L204.968 362.983L205.441 361.718H206.486V362.994H208.169V364.226H206.486V367.119C206.486 367.346 206.552 367.519 206.684 367.636C206.816 367.746 206.988 367.801 207.201 367.801ZM211.079 362.345C211.079 362.638 211.068 362.921 211.046 363.192C211.031 363.463 211.017 363.654 211.002 363.764H211.09C211.281 363.456 211.526 363.232 211.827 363.093C212.128 362.954 212.461 362.884 212.828 362.884C213.481 362.884 214.001 363.06 214.39 363.412C214.786 363.757 214.984 364.314 214.984 365.084V369H213.345V365.491C213.345 364.626 213.022 364.193 212.377 364.193C211.886 364.193 211.545 364.365 211.354 364.71C211.171 365.047 211.079 365.535 211.079 366.173V369H209.44V360.64H211.079V362.345ZM219.145 362.884C219.973 362.884 220.63 363.122 221.114 363.599C221.598 364.068 221.84 364.739 221.84 365.612V366.404H217.968C217.982 366.866 218.118 367.229 218.375 367.493C218.639 367.757 219.002 367.889 219.464 367.889C219.852 367.889 220.204 367.852 220.52 367.779C220.835 367.698 221.161 367.577 221.499 367.416V368.681C221.205 368.828 220.894 368.934 220.564 369C220.241 369.073 219.849 369.11 219.387 369.11C218.785 369.11 218.254 369 217.792 368.78C217.33 368.553 216.967 368.212 216.703 367.757C216.439 367.302 216.307 366.73 216.307 366.041C216.307 365.337 216.424 364.754 216.659 364.292C216.901 363.823 217.234 363.471 217.66 363.236C218.085 363.001 218.58 362.884 219.145 362.884ZM219.156 364.05C218.84 364.05 218.576 364.153 218.364 364.358C218.158 364.563 218.037 364.882 218.001 365.315H220.3C220.292 364.948 220.197 364.648 220.014 364.413C219.83 364.171 219.544 364.05 219.156 364.05ZM229.348 364.226H227.929V369H226.29V364.226H225.388V363.434L226.29 362.994V362.554C226.29 362.041 226.374 361.645 226.543 361.366C226.719 361.08 226.965 360.878 227.28 360.761C227.603 360.644 227.98 360.585 228.413 360.585C228.736 360.585 229.025 360.611 229.282 360.662C229.546 360.713 229.759 360.772 229.92 360.838L229.502 362.037C229.377 362 229.242 361.967 229.095 361.938C228.948 361.901 228.78 361.883 228.589 361.883C228.362 361.883 228.193 361.953 228.083 362.092C227.98 362.231 227.929 362.407 227.929 362.62V362.994H229.348V364.226ZM231.922 369H230.283V360.64H231.922V369ZM236.117 362.884C236.946 362.884 237.602 363.122 238.086 363.599C238.57 364.068 238.812 364.739 238.812 365.612V366.404H234.94C234.955 366.866 235.091 367.229 235.347 367.493C235.611 367.757 235.974 367.889 236.436 367.889C236.825 367.889 237.177 367.852 237.492 367.779C237.808 367.698 238.134 367.577 238.471 367.416V368.681C238.178 368.828 237.866 368.934 237.536 369C237.214 369.073 236.821 369.11 236.359 369.11C235.758 369.11 235.226 369 234.764 368.78C234.302 368.553 233.939 368.212 233.675 367.757C233.411 367.302 233.279 366.73 233.279 366.041C233.279 365.337 233.397 364.754 233.631 364.292C233.873 363.823 234.207 363.471 234.632 363.236C235.058 363.001 235.553 362.884 236.117 362.884ZM236.128 364.05C235.813 364.05 235.549 364.153 235.336 364.358C235.131 364.563 235.01 364.882 234.973 365.315H237.272C237.265 364.948 237.17 364.648 236.986 364.413C236.803 364.171 236.517 364.05 236.128 364.05ZM242.616 362.884C243.445 362.884 244.101 363.122 244.585 363.599C245.069 364.068 245.311 364.739 245.311 365.612V366.404H241.439C241.454 366.866 241.59 367.229 241.846 367.493C242.11 367.757 242.473 367.889 242.935 367.889C243.324 367.889 243.676 367.852 243.991 367.779C244.307 367.698 244.633 367.577 244.97 367.416V368.681C244.677 368.828 244.365 368.934 244.035 369C243.713 369.073 243.32 369.11 242.858 369.11C242.257 369.11 241.725 369 241.263 368.78C240.801 368.553 240.438 368.212 240.174 367.757C239.91 367.302 239.778 366.73 239.778 366.041C239.778 365.337 239.896 364.754 240.13 364.292C240.372 363.823 240.706 363.471 241.131 363.236C241.557 363.001 242.052 362.884 242.616 362.884ZM242.627 364.05C242.312 364.05 242.048 364.153 241.835 364.358C241.63 364.563 241.509 364.882 241.472 365.315H243.771C243.764 364.948 243.669 364.648 243.485 364.413C243.302 364.171 243.016 364.05 242.627 364.05ZM249.17 367.801C249.354 367.801 249.53 367.783 249.698 367.746C249.867 367.709 250.036 367.665 250.204 367.614V368.835C250.028 368.908 249.808 368.971 249.544 369.022C249.288 369.081 249.005 369.11 248.697 369.11C248.338 369.11 248.015 369.051 247.729 368.934C247.451 368.817 247.227 368.615 247.058 368.329C246.897 368.036 246.816 367.632 246.816 367.119V364.226H246.035V363.533L246.937 362.983L247.41 361.718H248.455V362.994H250.138V364.226H248.455V367.119C248.455 367.346 248.521 367.519 248.653 367.636C248.785 367.746 248.958 367.801 249.17 367.801ZM261.318 362.884C262 362.884 262.514 363.06 262.858 363.412C263.21 363.757 263.386 364.314 263.386 365.084V369H261.747V365.491C261.747 364.626 261.447 364.193 260.845 364.193C260.413 364.193 260.105 364.347 259.921 364.655C259.738 364.963 259.646 365.407 259.646 365.986V369H258.007V365.491C258.007 364.626 257.707 364.193 257.105 364.193C256.651 364.193 256.335 364.365 256.159 364.71C255.991 365.047 255.906 365.535 255.906 366.173V369H254.267V362.994H255.521L255.741 363.764H255.829C256.013 363.456 256.262 363.232 256.577 363.093C256.9 362.954 257.234 362.884 257.578 362.884C258.018 362.884 258.392 362.957 258.7 363.104C259.008 363.243 259.243 363.463 259.404 363.764H259.547C259.731 363.456 259.984 363.232 260.306 363.093C260.636 362.954 260.974 362.884 261.318 362.884ZM267.538 362.873C268.344 362.873 268.96 363.049 269.386 363.401C269.818 363.746 270.035 364.277 270.035 364.996V369H268.891L268.572 368.186H268.528C268.271 368.509 268 368.743 267.714 368.89C267.428 369.037 267.035 369.11 266.537 369.11C266.001 369.11 265.558 368.956 265.206 368.648C264.854 368.333 264.678 367.852 264.678 367.207C264.678 366.569 264.901 366.1 265.349 365.799C265.796 365.491 266.467 365.322 267.362 365.293L268.407 365.26V364.996C268.407 364.681 268.322 364.45 268.154 364.303C267.992 364.156 267.765 364.083 267.472 364.083C267.178 364.083 266.892 364.127 266.614 364.215C266.335 364.296 266.056 364.398 265.778 364.523L265.239 363.412C265.561 363.243 265.917 363.111 266.306 363.016C266.702 362.921 267.112 362.873 267.538 362.873ZM267.769 366.239C267.241 366.254 266.874 366.349 266.669 366.525C266.463 366.701 266.361 366.932 266.361 367.218C266.361 367.467 266.434 367.647 266.581 367.757C266.727 367.86 266.918 367.911 267.153 367.911C267.505 367.911 267.802 367.808 268.044 367.603C268.286 367.39 268.407 367.093 268.407 366.712V366.217L267.769 366.239ZM275.122 362.884C275.768 362.884 276.285 363.06 276.673 363.412C277.062 363.757 277.256 364.314 277.256 365.084V369H275.617V365.491C275.617 365.058 275.54 364.736 275.386 364.523C275.232 364.303 274.987 364.193 274.649 364.193C274.151 364.193 273.81 364.365 273.626 364.71C273.443 365.047 273.351 365.535 273.351 366.173V369H271.712V362.994H272.966L273.186 363.764H273.274C273.465 363.456 273.725 363.232 274.055 363.093C274.393 362.954 274.748 362.884 275.122 362.884ZM281.406 362.873C282.213 362.873 282.829 363.049 283.254 363.401C283.687 363.746 283.903 364.277 283.903 364.996V369H282.759L282.44 368.186H282.396C282.139 368.509 281.868 368.743 281.582 368.89C281.296 369.037 280.904 369.11 280.405 369.11C279.87 369.11 279.426 368.956 279.074 368.648C278.722 368.333 278.546 367.852 278.546 367.207C278.546 366.569 278.77 366.1 279.217 365.799C279.664 365.491 280.335 365.322 281.23 365.293L282.275 365.26V364.996C282.275 364.681 282.191 364.45 282.022 364.303C281.861 364.156 281.633 364.083 281.34 364.083C281.047 364.083 280.761 364.127 280.482 364.215C280.203 364.296 279.925 364.398 279.646 364.523L279.107 363.412C279.43 363.243 279.785 363.111 280.174 363.016C280.57 362.921 280.981 362.873 281.406 362.873ZM281.637 366.239C281.109 366.254 280.742 366.349 280.537 366.525C280.332 366.701 280.229 366.932 280.229 367.218C280.229 367.467 280.302 367.647 280.449 367.757C280.596 367.86 280.786 367.911 281.021 367.911C281.373 367.911 281.67 367.808 281.912 367.603C282.154 367.39 282.275 367.093 282.275 366.712V366.217L281.637 366.239ZM287.528 362.884C288.268 362.884 288.848 363.177 289.266 363.764H289.31L289.442 362.994H290.828V369.011C290.828 369.869 290.575 370.522 290.069 370.969C289.563 371.416 288.815 371.64 287.825 371.64C287.399 371.64 287.003 371.614 286.637 371.563C286.277 371.512 285.925 371.42 285.581 371.288V369.979C286.321 370.287 287.102 370.441 287.924 370.441C288.767 370.441 289.189 369.986 289.189 369.077V368.956C289.189 368.831 289.192 368.703 289.2 368.571C289.214 368.439 289.225 368.322 289.233 368.219H289.189C288.983 368.534 288.738 368.762 288.452 368.901C288.166 369.04 287.843 369.11 287.484 369.11C286.772 369.11 286.215 368.839 285.812 368.296C285.416 367.746 285.218 366.983 285.218 366.008C285.218 365.025 285.423 364.259 285.834 363.709C286.244 363.159 286.809 362.884 287.528 362.884ZM288.045 364.215C287.275 364.215 286.89 364.82 286.89 366.03C286.89 367.225 287.282 367.823 288.067 367.823C288.485 367.823 288.793 367.706 288.991 367.471C289.196 367.229 289.299 366.811 289.299 366.217V366.019C289.299 365.374 289.2 364.912 289.002 364.633C288.804 364.354 288.485 364.215 288.045 364.215ZM295.017 362.884C295.845 362.884 296.502 363.122 296.986 363.599C297.47 364.068 297.712 364.739 297.712 365.612V366.404H293.84C293.854 366.866 293.99 367.229 294.247 367.493C294.511 367.757 294.874 367.889 295.336 367.889C295.724 367.889 296.076 367.852 296.392 367.779C296.707 367.698 297.033 367.577 297.371 367.416V368.681C297.077 368.828 296.766 368.934 296.436 369C296.113 369.073 295.721 369.11 295.259 369.11C294.657 369.11 294.126 369 293.664 368.78C293.202 368.553 292.839 368.212 292.575 367.757C292.311 367.302 292.179 366.73 292.179 366.041C292.179 365.337 292.296 364.754 292.531 364.292C292.773 363.823 293.106 363.471 293.532 363.236C293.957 363.001 294.452 362.884 295.017 362.884ZM295.028 364.05C294.712 364.05 294.448 364.153 294.236 364.358C294.03 364.563 293.909 364.882 293.873 365.315H296.172C296.164 364.948 296.069 364.648 295.886 364.413C295.702 364.171 295.416 364.05 295.028 364.05ZM306.092 362.884C306.774 362.884 307.287 363.06 307.632 363.412C307.984 363.757 308.16 364.314 308.16 365.084V369H306.521V365.491C306.521 364.626 306.22 364.193 305.619 364.193C305.186 364.193 304.878 364.347 304.695 364.655C304.511 364.963 304.42 365.407 304.42 365.986V369H302.781V365.491C302.781 364.626 302.48 364.193 301.879 364.193C301.424 364.193 301.109 364.365 300.933 364.71C300.764 365.047 300.68 365.535 300.68 366.173V369H299.041V362.994H300.295L300.515 363.764H300.603C300.786 363.456 301.035 363.232 301.351 363.093C301.673 362.954 302.007 362.884 302.352 362.884C302.792 362.884 303.166 362.957 303.474 363.104C303.782 363.243 304.016 363.463 304.178 363.764H304.321C304.504 363.456 304.757 363.232 305.08 363.093C305.41 362.954 305.747 362.884 306.092 362.884ZM312.322 362.884C313.151 362.884 313.807 363.122 314.291 363.599C314.775 364.068 315.017 364.739 315.017 365.612V366.404H311.145C311.16 366.866 311.296 367.229 311.552 367.493C311.816 367.757 312.179 367.889 312.641 367.889C313.03 367.889 313.382 367.852 313.697 367.779C314.013 367.698 314.339 367.577 314.676 367.416V368.681C314.383 368.828 314.071 368.934 313.741 369C313.419 369.073 313.026 369.11 312.564 369.11C311.963 369.11 311.431 369 310.969 368.78C310.507 368.553 310.144 368.212 309.88 367.757C309.616 367.302 309.484 366.73 309.484 366.041C309.484 365.337 309.602 364.754 309.836 364.292C310.078 363.823 310.412 363.471 310.837 363.236C311.263 363.001 311.758 362.884 312.322 362.884ZM312.333 364.05C312.018 364.05 311.754 364.153 311.541 364.358C311.336 364.563 311.215 364.882 311.178 365.315H313.477C313.47 364.948 313.375 364.648 313.191 364.413C313.008 364.171 312.722 364.05 312.333 364.05ZM319.756 362.884C320.402 362.884 320.919 363.06 321.307 363.412C321.696 363.757 321.89 364.314 321.89 365.084V369H320.251V365.491C320.251 365.058 320.174 364.736 320.02 364.523C319.866 364.303 319.621 364.193 319.283 364.193C318.785 364.193 318.444 364.365 318.26 364.71C318.077 365.047 317.985 365.535 317.985 366.173V369H316.346V362.994H317.6L317.82 363.764H317.908C318.099 363.456 318.359 363.232 318.689 363.093C319.027 362.954 319.382 362.884 319.756 362.884ZM326.106 367.801C326.289 367.801 326.465 367.783 326.634 367.746C326.802 367.709 326.971 367.665 327.14 367.614V368.835C326.964 368.908 326.744 368.971 326.48 369.022C326.223 369.081 325.941 369.11 325.633 369.11C325.273 369.11 324.951 369.051 324.665 368.934C324.386 368.817 324.162 368.615 323.994 368.329C323.832 368.036 323.752 367.632 323.752 367.119V364.226H322.971V363.533L323.873 362.983L324.346 361.718H325.391V362.994H327.074V364.226H325.391V367.119C325.391 367.346 325.457 367.519 325.589 367.636C325.721 367.746 325.893 367.801 326.106 367.801ZM335.394 367.218C335.394 367.827 335.177 368.296 334.745 368.626C334.319 368.949 333.681 369.11 332.831 369.11C332.413 369.11 332.053 369.081 331.753 369.022C331.452 368.971 331.151 368.883 330.851 368.758V367.405C331.173 367.552 331.522 367.673 331.896 367.768C332.27 367.863 332.6 367.911 332.886 367.911C333.208 367.911 333.436 367.863 333.568 367.768C333.707 367.673 333.777 367.548 333.777 367.394C333.777 367.291 333.747 367.2 333.689 367.119C333.637 367.038 333.52 366.947 333.337 366.844C333.153 366.741 332.867 366.609 332.479 366.448C332.105 366.287 331.797 366.129 331.555 365.975C331.313 365.814 331.133 365.623 331.016 365.403C330.898 365.176 330.84 364.893 330.84 364.556C330.84 363.999 331.056 363.581 331.489 363.302C331.921 363.023 332.497 362.884 333.216 362.884C333.59 362.884 333.945 362.921 334.283 362.994C334.62 363.067 334.968 363.188 335.328 363.357L334.833 364.534C334.539 364.409 334.261 364.307 333.997 364.226C333.733 364.138 333.465 364.094 333.194 364.094C332.71 364.094 332.468 364.226 332.468 364.49C332.468 364.585 332.497 364.673 332.556 364.754C332.622 364.827 332.743 364.908 332.919 364.996C333.102 365.084 333.37 365.201 333.722 365.348C334.066 365.487 334.363 365.634 334.613 365.788C334.862 365.935 335.053 366.122 335.185 366.349C335.324 366.569 335.394 366.859 335.394 367.218ZM342.127 365.986C342.127 366.983 341.863 367.753 341.335 368.296C340.814 368.839 340.103 369.11 339.201 369.11C338.643 369.11 338.145 368.989 337.705 368.747C337.272 368.505 336.931 368.153 336.682 367.691C336.432 367.222 336.308 366.653 336.308 365.986C336.308 364.989 336.568 364.222 337.089 363.687C337.609 363.152 338.324 362.884 339.234 362.884C339.798 362.884 340.297 363.005 340.73 363.247C341.162 363.489 341.503 363.841 341.753 364.303C342.002 364.758 342.127 365.319 342.127 365.986ZM337.98 365.986C337.98 366.58 338.075 367.031 338.266 367.339C338.464 367.64 338.783 367.79 339.223 367.79C339.655 367.79 339.967 367.64 340.158 367.339C340.356 367.031 340.455 366.58 340.455 365.986C340.455 365.392 340.356 364.948 340.158 364.655C339.967 364.354 339.652 364.204 339.212 364.204C338.779 364.204 338.464 364.354 338.266 364.655C338.075 364.948 337.98 365.392 337.98 365.986ZM345.12 369H343.481V360.64H345.12V369ZM352.344 362.994V369H351.09L350.87 368.23H350.782C350.591 368.538 350.327 368.762 349.99 368.901C349.66 369.04 349.308 369.11 348.934 369.11C348.288 369.11 347.771 368.938 347.383 368.593C346.994 368.241 346.8 367.68 346.8 366.91V362.994H348.439V366.503C348.439 366.928 348.516 367.251 348.67 367.471C348.824 367.691 349.069 367.801 349.407 367.801C349.905 367.801 350.246 367.632 350.43 367.295C350.613 366.95 350.705 366.459 350.705 365.821V362.994H352.344ZM356.592 367.801C356.775 367.801 356.951 367.783 357.12 367.746C357.289 367.709 357.457 367.665 357.626 367.614V368.835C357.45 368.908 357.23 368.971 356.966 369.022C356.709 369.081 356.427 369.11 356.119 369.11C355.76 369.11 355.437 369.051 355.151 368.934C354.872 368.817 354.649 368.615 354.48 368.329C354.319 368.036 354.238 367.632 354.238 367.119V364.226H353.457V363.533L354.359 362.983L354.832 361.718H355.877V362.994H357.56V364.226H355.877V367.119C355.877 367.346 355.943 367.519 356.075 367.636C356.207 367.746 356.379 367.801 356.592 367.801ZM359.657 360.64C359.899 360.64 360.108 360.699 360.284 360.816C360.46 360.926 360.548 361.135 360.548 361.443C360.548 361.744 360.46 361.953 360.284 362.07C360.108 362.187 359.899 362.246 359.657 362.246C359.407 362.246 359.195 362.187 359.019 362.07C358.85 361.953 358.766 361.744 358.766 361.443C358.766 361.135 358.85 360.926 359.019 360.816C359.195 360.699 359.407 360.64 359.657 360.64ZM360.471 362.994V369H358.832V362.994H360.471ZM367.639 365.986C367.639 366.983 367.375 367.753 366.847 368.296C366.327 368.839 365.615 369.11 364.713 369.11C364.156 369.11 363.657 368.989 363.217 368.747C362.785 368.505 362.444 368.153 362.194 367.691C361.945 367.222 361.82 366.653 361.82 365.986C361.82 364.989 362.081 364.222 362.601 363.687C363.122 363.152 363.837 362.884 364.746 362.884C365.311 362.884 365.81 363.005 366.242 363.247C366.675 363.489 367.016 363.841 367.265 364.303C367.515 364.758 367.639 365.319 367.639 365.986ZM363.492 365.986C363.492 366.58 363.588 367.031 363.778 367.339C363.976 367.64 364.295 367.79 364.735 367.79C365.168 367.79 365.48 367.64 365.67 367.339C365.868 367.031 365.967 366.58 365.967 365.986C365.967 365.392 365.868 364.948 365.67 364.655C365.48 364.354 365.164 364.204 364.724 364.204C364.292 364.204 363.976 364.354 363.778 364.655C363.588 364.948 363.492 365.392 363.492 365.986ZM372.404 362.884C373.049 362.884 373.566 363.06 373.955 363.412C374.343 363.757 374.538 364.314 374.538 365.084V369H372.899V365.491C372.899 365.058 372.822 364.736 372.668 364.523C372.514 364.303 372.268 364.193 371.931 364.193C371.432 364.193 371.091 364.365 370.908 364.71C370.724 365.047 370.633 365.535 370.633 366.173V369H368.994V362.994H370.248L370.468 363.764H370.556C370.746 363.456 371.007 363.232 371.337 363.093C371.674 362.954 372.03 362.884 372.404 362.884ZM380.414 367.218C380.414 367.827 380.198 368.296 379.765 368.626C379.34 368.949 378.702 369.11 377.851 369.11C377.433 369.11 377.074 369.081 376.773 369.022C376.473 368.971 376.172 368.883 375.871 368.758V367.405C376.194 367.552 376.542 367.673 376.916 367.768C377.29 367.863 377.62 367.911 377.906 367.911C378.229 367.911 378.456 367.863 378.588 367.768C378.728 367.673 378.797 367.548 378.797 367.394C378.797 367.291 378.768 367.2 378.709 367.119C378.658 367.038 378.541 366.947 378.357 366.844C378.174 366.741 377.888 366.609 377.499 366.448C377.125 366.287 376.817 366.129 376.575 365.975C376.333 365.814 376.154 365.623 376.036 365.403C375.919 365.176 375.86 364.893 375.86 364.556C375.86 363.999 376.077 363.581 376.509 363.302C376.942 363.023 377.518 362.884 378.236 362.884C378.61 362.884 378.966 362.921 379.303 362.994C379.641 363.067 379.989 363.188 380.348 363.357L379.853 364.534C379.56 364.409 379.281 364.307 379.017 364.226C378.753 364.138 378.486 364.094 378.214 364.094C377.73 364.094 377.488 364.226 377.488 364.49C377.488 364.585 377.518 364.673 377.576 364.754C377.642 364.827 377.763 364.908 377.939 364.996C378.123 365.084 378.39 365.201 378.742 365.348C379.087 365.487 379.384 365.634 379.633 365.788C379.883 365.935 380.073 366.122 380.205 366.349C380.345 366.569 380.414 366.859 380.414 367.218ZM391.599 362.884C392.281 362.884 392.795 363.06 393.139 363.412C393.491 363.757 393.667 364.314 393.667 365.084V369H392.028V365.491C392.028 364.626 391.728 364.193 391.126 364.193C390.694 364.193 390.386 364.347 390.202 364.655C390.019 364.963 389.927 365.407 389.927 365.986V369H388.288V365.491C388.288 364.626 387.988 364.193 387.386 364.193C386.932 364.193 386.616 364.365 386.44 364.71C386.272 365.047 386.187 365.535 386.187 366.173V369H384.548V362.994H385.802L386.022 363.764H386.11C386.294 363.456 386.543 363.232 386.858 363.093C387.181 362.954 387.515 362.884 387.859 362.884C388.299 362.884 388.673 362.957 388.981 363.104C389.289 363.243 389.524 363.463 389.685 363.764H389.828C390.012 363.456 390.265 363.232 390.587 363.093C390.917 362.954 391.255 362.884 391.599 362.884ZM397.819 362.873C398.626 362.873 399.242 363.049 399.667 363.401C400.1 363.746 400.316 364.277 400.316 364.996V369H399.172L398.853 368.186H398.809C398.552 368.509 398.281 368.743 397.995 368.89C397.709 369.037 397.317 369.11 396.818 369.11C396.283 369.11 395.839 368.956 395.487 368.648C395.135 368.333 394.959 367.852 394.959 367.207C394.959 366.569 395.183 366.1 395.63 365.799C396.077 365.491 396.748 365.322 397.643 365.293L398.688 365.26V364.996C398.688 364.681 398.604 364.45 398.435 364.303C398.274 364.156 398.046 364.083 397.753 364.083C397.46 364.083 397.174 364.127 396.895 364.215C396.616 364.296 396.338 364.398 396.059 364.523L395.52 363.412C395.843 363.243 396.198 363.111 396.587 363.016C396.983 362.921 397.394 362.873 397.819 362.873ZM398.05 366.239C397.522 366.254 397.155 366.349 396.95 366.525C396.745 366.701 396.642 366.932 396.642 367.218C396.642 367.467 396.715 367.647 396.862 367.757C397.009 367.86 397.199 367.911 397.434 367.911C397.786 367.911 398.083 367.808 398.325 367.603C398.567 367.39 398.688 367.093 398.688 366.712V366.217L398.05 366.239ZM405.349 362.884C405.429 362.884 405.525 362.888 405.635 362.895C405.745 362.902 405.833 362.913 405.899 362.928L405.778 364.468C405.726 364.453 405.649 364.442 405.547 364.435C405.451 364.42 405.367 364.413 405.294 364.413C405.015 364.413 404.747 364.464 404.491 364.567C404.234 364.662 404.025 364.82 403.864 365.04C403.71 365.26 403.633 365.561 403.633 365.942V369H401.994V362.994H403.237L403.479 364.006H403.556C403.732 363.698 403.974 363.434 404.282 363.214C404.59 362.994 404.945 362.884 405.349 362.884ZM408.628 364.38C408.628 364.607 408.617 364.835 408.595 365.062C408.58 365.282 408.562 365.506 408.54 365.733H408.562C408.672 365.579 408.786 365.425 408.903 365.271C409.02 365.11 409.145 364.959 409.277 364.82L410.96 362.994H412.808L410.421 365.601L412.951 369H411.059L409.332 366.569L408.628 367.13V369H406.989V360.64H408.628V364.38ZM416.285 362.884C417.114 362.884 417.77 363.122 418.254 363.599C418.738 364.068 418.98 364.739 418.98 365.612V366.404H415.108C415.123 366.866 415.258 367.229 415.515 367.493C415.779 367.757 416.142 367.889 416.604 367.889C416.993 367.889 417.345 367.852 417.66 367.779C417.975 367.698 418.302 367.577 418.639 367.416V368.681C418.346 368.828 418.034 368.934 417.704 369C417.381 369.073 416.989 369.11 416.527 369.11C415.926 369.11 415.394 369 414.932 368.78C414.47 368.553 414.107 368.212 413.843 367.757C413.579 367.302 413.447 366.73 413.447 366.041C413.447 365.337 413.564 364.754 413.799 364.292C414.041 363.823 414.375 363.471 414.8 363.236C415.225 363.001 415.72 362.884 416.285 362.884ZM416.296 364.05C415.981 364.05 415.717 364.153 415.504 364.358C415.299 364.563 415.178 364.882 415.141 365.315H417.44C417.433 364.948 417.337 364.648 417.154 364.413C416.971 364.171 416.685 364.05 416.296 364.05ZM422.839 367.801C423.023 367.801 423.199 367.783 423.367 367.746C423.536 367.709 423.705 367.665 423.873 367.614V368.835C423.697 368.908 423.477 368.971 423.213 369.022C422.957 369.081 422.674 369.11 422.366 369.11C422.007 369.11 421.684 369.051 421.398 368.934C421.12 368.817 420.896 368.615 420.727 368.329C420.566 368.036 420.485 367.632 420.485 367.119V364.226H419.704V363.533L420.606 362.983L421.079 361.718H422.124V362.994H423.807V364.226H422.124V367.119C422.124 367.346 422.19 367.519 422.322 367.636C422.454 367.746 422.627 367.801 422.839 367.801Z" fill="#293243"/>
<path d="M446.72 338H441.528V337.197L443.585 335.118C443.981 334.722 444.315 334.37 444.586 334.062C444.857 333.754 445.063 333.453 445.202 333.16C445.341 332.859 445.411 332.533 445.411 332.181C445.411 331.748 445.283 331.422 445.026 331.202C444.769 330.975 444.436 330.861 444.025 330.861C443.644 330.861 443.306 330.927 443.013 331.059C442.727 331.191 442.434 331.374 442.133 331.609L441.616 330.96C441.924 330.703 442.276 330.487 442.672 330.311C443.075 330.128 443.526 330.036 444.025 330.036C444.758 330.036 445.338 330.223 445.763 330.597C446.188 330.964 446.401 331.473 446.401 332.126C446.401 332.537 446.317 332.922 446.148 333.281C445.979 333.64 445.745 333.996 445.444 334.348C445.143 334.693 444.791 335.063 444.388 335.459L442.749 337.076V337.12H446.72V338ZM453.048 334.062C453.048 334.905 452.96 335.631 452.784 336.24C452.608 336.841 452.329 337.303 451.948 337.626C451.567 337.949 451.061 338.11 450.43 338.11C449.543 338.11 448.886 337.754 448.461 337.043C448.043 336.324 447.834 335.331 447.834 334.062C447.834 333.211 447.918 332.485 448.087 331.884C448.263 331.283 448.542 330.824 448.923 330.509C449.304 330.186 449.807 330.025 450.43 330.025C451.31 330.025 451.966 330.381 452.399 331.092C452.832 331.796 453.048 332.786 453.048 334.062ZM448.802 334.062C448.802 335.14 448.923 335.947 449.165 336.482C449.414 337.017 449.836 337.285 450.43 337.285C451.017 337.285 451.435 337.021 451.684 336.493C451.941 335.958 452.069 335.147 452.069 334.062C452.069 332.991 451.941 332.188 451.684 331.653C451.435 331.118 451.017 330.85 450.43 330.85C449.836 330.85 449.414 331.118 449.165 331.653C448.923 332.188 448.802 332.991 448.802 334.062ZM459.31 338H454.118V337.197L456.175 335.118C456.571 334.722 456.905 334.37 457.176 334.062C457.447 333.754 457.653 333.453 457.792 333.16C457.931 332.859 458.001 332.533 458.001 332.181C458.001 331.748 457.873 331.422 457.616 331.202C457.359 330.975 457.026 330.861 456.615 330.861C456.234 330.861 455.896 330.927 455.603 331.059C455.317 331.191 455.024 331.374 454.723 331.609L454.206 330.96C454.514 330.703 454.866 330.487 455.262 330.311C455.665 330.128 456.116 330.036 456.615 330.036C457.348 330.036 457.928 330.223 458.353 330.597C458.778 330.964 458.991 331.473 458.991 332.126C458.991 332.537 458.907 332.922 458.738 333.281C458.569 333.64 458.335 333.996 458.034 334.348C457.733 334.693 457.381 335.063 456.978 335.459L455.339 337.076V337.12H459.31V338ZM463.02 330.036C463.709 330.036 464.274 330.197 464.714 330.52C465.154 330.843 465.374 331.308 465.374 331.917C465.374 332.232 465.304 332.507 465.165 332.742C465.033 332.977 464.853 333.186 464.626 333.369C464.398 333.545 464.149 333.703 463.878 333.842C464.2 333.996 464.494 334.172 464.758 334.37C465.022 334.561 465.231 334.784 465.385 335.041C465.546 335.298 465.627 335.606 465.627 335.965C465.627 336.625 465.392 337.149 464.923 337.538C464.461 337.919 463.837 338.11 463.053 338.11C462.209 338.11 461.56 337.927 461.106 337.56C460.651 337.186 460.424 336.665 460.424 335.998C460.424 335.639 460.497 335.327 460.644 335.063C460.798 334.799 460.999 334.572 461.249 334.381C461.498 334.19 461.766 334.029 462.052 333.897C461.67 333.677 461.344 333.413 461.073 333.105C460.809 332.79 460.677 332.39 460.677 331.906C460.677 331.503 460.779 331.165 460.985 330.894C461.19 330.615 461.469 330.403 461.821 330.256C462.173 330.109 462.572 330.036 463.02 330.036ZM463.009 330.817C462.605 330.817 462.272 330.916 462.008 331.114C461.751 331.305 461.623 331.583 461.623 331.95C461.623 332.221 461.685 332.449 461.81 332.632C461.942 332.815 462.118 332.973 462.338 333.105C462.558 333.23 462.8 333.351 463.064 333.468C463.445 333.307 463.764 333.112 464.021 332.885C464.285 332.658 464.417 332.346 464.417 331.95C464.417 331.583 464.288 331.305 464.032 331.114C463.775 330.916 463.434 330.817 463.009 330.817ZM461.37 336.009C461.37 336.39 461.505 336.709 461.777 336.966C462.048 337.215 462.466 337.34 463.031 337.34C463.566 337.34 463.973 337.215 464.252 336.966C464.538 336.709 464.681 336.379 464.681 335.976C464.681 335.595 464.53 335.279 464.23 335.03C463.929 334.773 463.529 334.55 463.031 334.359L462.855 334.293C462.371 334.498 462 334.737 461.744 335.008C461.494 335.272 461.37 335.606 461.37 336.009Z" fill="#58595B"/>
<rect x="375" y="68" width="38" height="253" fill="#0067E8"/>
<path d="M386.72 338H381.528V337.197L383.585 335.118C383.981 334.722 384.315 334.37 384.586 334.062C384.857 333.754 385.063 333.453 385.202 333.16C385.341 332.859 385.411 332.533 385.411 332.181C385.411 331.748 385.283 331.422 385.026 331.202C384.769 330.975 384.436 330.861 384.025 330.861C383.644 330.861 383.306 330.927 383.013 331.059C382.727 331.191 382.434 331.374 382.133 331.609L381.616 330.96C381.924 330.703 382.276 330.487 382.672 330.311C383.075 330.128 383.526 330.036 384.025 330.036C384.758 330.036 385.338 330.223 385.763 330.597C386.188 330.964 386.401 331.473 386.401 332.126C386.401 332.537 386.317 332.922 386.148 333.281C385.979 333.64 385.745 333.996 385.444 334.348C385.143 334.693 384.791 335.063 384.388 335.459L382.749 337.076V337.12H386.72V338ZM393.048 334.062C393.048 334.905 392.96 335.631 392.784 336.24C392.608 336.841 392.329 337.303 391.948 337.626C391.567 337.949 391.061 338.11 390.43 338.11C389.543 338.11 388.886 337.754 388.461 337.043C388.043 336.324 387.834 335.331 387.834 334.062C387.834 333.211 387.918 332.485 388.087 331.884C388.263 331.283 388.542 330.824 388.923 330.509C389.304 330.186 389.807 330.025 390.43 330.025C391.31 330.025 391.966 330.381 392.399 331.092C392.832 331.796 393.048 332.786 393.048 334.062ZM388.802 334.062C388.802 335.14 388.923 335.947 389.165 336.482C389.414 337.017 389.836 337.285 390.43 337.285C391.017 337.285 391.435 337.021 391.684 336.493C391.941 335.958 392.069 335.147 392.069 334.062C392.069 332.991 391.941 332.188 391.684 331.653C391.435 331.118 391.017 330.85 390.43 330.85C389.836 330.85 389.414 331.118 389.165 331.653C388.923 332.188 388.802 332.991 388.802 334.062ZM399.31 338H394.118V337.197L396.175 335.118C396.571 334.722 396.905 334.37 397.176 334.062C397.447 333.754 397.653 333.453 397.792 333.16C397.931 332.859 398.001 332.533 398.001 332.181C398.001 331.748 397.873 331.422 397.616 331.202C397.359 330.975 397.026 330.861 396.615 330.861C396.234 330.861 395.896 330.927 395.603 331.059C395.317 331.191 395.024 331.374 394.723 331.609L394.206 330.96C394.514 330.703 394.866 330.487 395.262 330.311C395.665 330.128 396.116 330.036 396.615 330.036C397.348 330.036 397.928 330.223 398.353 330.597C398.778 330.964 398.991 331.473 398.991 332.126C398.991 332.537 398.907 332.922 398.738 333.281C398.569 333.64 398.335 333.996 398.034 334.348C397.733 334.693 397.381 335.063 396.978 335.459L395.339 337.076V337.12H399.31V338ZM401.381 338L404.604 331.026H400.369V330.146H405.638V330.894L402.448 338H401.381Z" fill="#58595B"/>
<rect x="315" y="103" width="38" height="218" fill="#0067E8"/>
<path d="M326.72 338H321.528V337.197L323.585 335.118C323.981 334.722 324.315 334.37 324.586 334.062C324.857 333.754 325.063 333.453 325.202 333.16C325.341 332.859 325.411 332.533 325.411 332.181C325.411 331.748 325.283 331.422 325.026 331.202C324.769 330.975 324.436 330.861 324.025 330.861C323.644 330.861 323.306 330.927 323.013 331.059C322.727 331.191 322.434 331.374 322.133 331.609L321.616 330.96C321.924 330.703 322.276 330.487 322.672 330.311C323.075 330.128 323.526 330.036 324.025 330.036C324.758 330.036 325.338 330.223 325.763 330.597C326.188 330.964 326.401 331.473 326.401 332.126C326.401 332.537 326.317 332.922 326.148 333.281C325.979 333.64 325.745 333.996 325.444 334.348C325.143 334.693 324.791 335.063 324.388 335.459L322.749 337.076V337.12H326.72V338ZM333.048 334.062C333.048 334.905 332.96 335.631 332.784 336.24C332.608 336.841 332.329 337.303 331.948 337.626C331.567 337.949 331.061 338.11 330.43 338.11C329.543 338.11 328.886 337.754 328.461 337.043C328.043 336.324 327.834 335.331 327.834 334.062C327.834 333.211 327.918 332.485 328.087 331.884C328.263 331.283 328.542 330.824 328.923 330.509C329.304 330.186 329.807 330.025 330.43 330.025C331.31 330.025 331.966 330.381 332.399 331.092C332.832 331.796 333.048 332.786 333.048 334.062ZM328.802 334.062C328.802 335.14 328.923 335.947 329.165 336.482C329.414 337.017 329.836 337.285 330.43 337.285C331.017 337.285 331.435 337.021 331.684 336.493C331.941 335.958 332.069 335.147 332.069 334.062C332.069 332.991 331.941 332.188 331.684 331.653C331.435 331.118 331.017 330.85 330.43 330.85C329.836 330.85 329.414 331.118 329.165 331.653C328.923 332.188 328.802 332.991 328.802 334.062ZM339.31 338H334.118V337.197L336.175 335.118C336.571 334.722 336.905 334.37 337.176 334.062C337.447 333.754 337.653 333.453 337.792 333.16C337.931 332.859 338.001 332.533 338.001 332.181C338.001 331.748 337.873 331.422 337.616 331.202C337.359 330.975 337.026 330.861 336.615 330.861C336.234 330.861 335.896 330.927 335.603 331.059C335.317 331.191 335.024 331.374 334.723 331.609L334.206 330.96C334.514 330.703 334.866 330.487 335.262 330.311C335.665 330.128 336.116 330.036 336.615 330.036C337.348 330.036 337.928 330.223 338.353 330.597C338.778 330.964 338.991 331.473 338.991 332.126C338.991 332.537 338.907 332.922 338.738 333.281C338.569 333.64 338.335 333.996 338.034 334.348C337.733 334.693 337.381 335.063 336.978 335.459L335.339 337.076V337.12H339.31V338ZM340.49 334.645C340.49 334.08 340.537 333.527 340.633 332.984C340.735 332.434 340.915 331.939 341.172 331.499C341.436 331.052 341.802 330.696 342.272 330.432C342.741 330.168 343.346 330.036 344.087 330.036C344.241 330.036 344.409 330.043 344.593 330.058C344.783 330.073 344.937 330.098 345.055 330.135V330.96C344.923 330.916 344.772 330.883 344.604 330.861C344.442 330.839 344.277 330.828 344.109 330.828C343.603 330.828 343.181 330.912 342.844 331.081C342.506 331.25 342.239 331.481 342.041 331.774C341.85 332.067 341.711 332.405 341.623 332.786C341.535 333.167 341.48 333.574 341.458 334.007H341.524C341.692 333.75 341.927 333.534 342.228 333.358C342.528 333.175 342.913 333.083 343.383 333.083C344.065 333.083 344.615 333.292 345.033 333.71C345.451 334.121 345.66 334.707 345.66 335.47C345.66 336.291 345.432 336.937 344.978 337.406C344.53 337.875 343.925 338.11 343.163 338.11C342.664 338.11 342.213 337.985 341.81 337.736C341.406 337.487 341.084 337.105 340.842 336.592C340.607 336.079 340.49 335.43 340.49 334.645ZM343.152 337.296C343.614 337.296 343.988 337.149 344.274 336.856C344.56 336.555 344.703 336.093 344.703 335.47C344.703 334.971 344.574 334.575 344.318 334.282C344.068 333.989 343.691 333.842 343.185 333.842C342.84 333.842 342.539 333.915 342.283 334.062C342.026 334.201 341.824 334.381 341.678 334.601C341.538 334.821 341.469 335.048 341.469 335.283C341.469 335.598 341.531 335.914 341.656 336.229C341.78 336.537 341.967 336.794 342.217 336.999C342.466 337.197 342.778 337.296 343.152 337.296Z" fill="#58595B"/>
<rect x="255" y="131" width="38" height="190" fill="#0067E8"/>
<path d="M266.72 338H261.528V337.197L263.585 335.118C263.981 334.722 264.315 334.37 264.586 334.062C264.857 333.754 265.063 333.453 265.202 333.16C265.341 332.859 265.411 332.533 265.411 332.181C265.411 331.748 265.283 331.422 265.026 331.202C264.769 330.975 264.436 330.861 264.025 330.861C263.644 330.861 263.306 330.927 263.013 331.059C262.727 331.191 262.434 331.374 262.133 331.609L261.616 330.96C261.924 330.703 262.276 330.487 262.672 330.311C263.075 330.128 263.526 330.036 264.025 330.036C264.758 330.036 265.338 330.223 265.763 330.597C266.188 330.964 266.401 331.473 266.401 332.126C266.401 332.537 266.317 332.922 266.148 333.281C265.979 333.64 265.745 333.996 265.444 334.348C265.143 334.693 264.791 335.063 264.388 335.459L262.749 337.076V337.12H266.72V338ZM273.048 334.062C273.048 334.905 272.96 335.631 272.784 336.24C272.608 336.841 272.329 337.303 271.948 337.626C271.567 337.949 271.061 338.11 270.43 338.11C269.543 338.11 268.886 337.754 268.461 337.043C268.043 336.324 267.834 335.331 267.834 334.062C267.834 333.211 267.918 332.485 268.087 331.884C268.263 331.283 268.542 330.824 268.923 330.509C269.304 330.186 269.807 330.025 270.43 330.025C271.31 330.025 271.966 330.381 272.399 331.092C272.832 331.796 273.048 332.786 273.048 334.062ZM268.802 334.062C268.802 335.14 268.923 335.947 269.165 336.482C269.414 337.017 269.836 337.285 270.43 337.285C271.017 337.285 271.435 337.021 271.684 336.493C271.941 335.958 272.069 335.147 272.069 334.062C272.069 332.991 271.941 332.188 271.684 331.653C271.435 331.118 271.017 330.85 270.43 330.85C269.836 330.85 269.414 331.118 269.165 331.653C268.923 332.188 268.802 332.991 268.802 334.062ZM279.31 338H274.118V337.197L276.175 335.118C276.571 334.722 276.905 334.37 277.176 334.062C277.447 333.754 277.653 333.453 277.792 333.16C277.931 332.859 278.001 332.533 278.001 332.181C278.001 331.748 277.873 331.422 277.616 331.202C277.359 330.975 277.026 330.861 276.615 330.861C276.234 330.861 275.896 330.927 275.603 331.059C275.317 331.191 275.024 331.374 274.723 331.609L274.206 330.96C274.514 330.703 274.866 330.487 275.262 330.311C275.665 330.128 276.116 330.036 276.615 330.036C277.348 330.036 277.928 330.223 278.353 330.597C278.778 330.964 278.991 331.473 278.991 332.126C278.991 332.537 278.907 332.922 278.738 333.281C278.569 333.64 278.335 333.996 278.034 334.348C277.733 334.693 277.381 335.063 276.978 335.459L275.339 337.076V337.12H279.31V338ZM282.91 333.182C283.716 333.182 284.358 333.384 284.835 333.787C285.311 334.19 285.55 334.759 285.55 335.492C285.55 336.306 285.289 336.948 284.769 337.417C284.255 337.879 283.537 338.11 282.613 338.11C282.209 338.11 281.828 338.073 281.469 338C281.117 337.927 280.82 337.82 280.578 337.681V336.768C280.842 336.929 281.161 337.058 281.535 337.153C281.916 337.241 282.279 337.285 282.624 337.285C283.203 337.285 283.669 337.149 284.021 336.878C284.38 336.599 284.56 336.17 284.56 335.591C284.56 335.078 284.402 334.685 284.087 334.414C283.771 334.135 283.273 333.996 282.591 333.996C282.385 333.996 282.151 334.014 281.887 334.051C281.623 334.088 281.41 334.124 281.249 334.161L280.765 333.853L281.062 330.146H285V331.026H281.887L281.7 333.303C281.824 333.281 281.993 333.255 282.206 333.226C282.418 333.197 282.653 333.182 282.91 333.182Z" fill="#58595B"/>
<rect x="195" y="159" width="38" height="162" fill="#0067E8"/>
<path d="M206.72 338H201.528V337.197L203.585 335.118C203.981 334.722 204.315 334.37 204.586 334.062C204.857 333.754 205.063 333.453 205.202 333.16C205.341 332.859 205.411 332.533 205.411 332.181C205.411 331.748 205.283 331.422 205.026 331.202C204.769 330.975 204.436 330.861 204.025 330.861C203.644 330.861 203.306 330.927 203.013 331.059C202.727 331.191 202.434 331.374 202.133 331.609L201.616 330.96C201.924 330.703 202.276 330.487 202.672 330.311C203.075 330.128 203.526 330.036 204.025 330.036C204.758 330.036 205.338 330.223 205.763 330.597C206.188 330.964 206.401 331.473 206.401 332.126C206.401 332.537 206.317 332.922 206.148 333.281C205.979 333.64 205.745 333.996 205.444 334.348C205.143 334.693 204.791 335.063 204.388 335.459L202.749 337.076V337.12H206.72V338ZM213.048 334.062C213.048 334.905 212.96 335.631 212.784 336.24C212.608 336.841 212.329 337.303 211.948 337.626C211.567 337.949 211.061 338.11 210.43 338.11C209.543 338.11 208.886 337.754 208.461 337.043C208.043 336.324 207.834 335.331 207.834 334.062C207.834 333.211 207.918 332.485 208.087 331.884C208.263 331.283 208.542 330.824 208.923 330.509C209.304 330.186 209.807 330.025 210.43 330.025C211.31 330.025 211.966 330.381 212.399 331.092C212.832 331.796 213.048 332.786 213.048 334.062ZM208.802 334.062C208.802 335.14 208.923 335.947 209.165 336.482C209.414 337.017 209.836 337.285 210.43 337.285C211.017 337.285 211.435 337.021 211.684 336.493C211.941 335.958 212.069 335.147 212.069 334.062C212.069 332.991 211.941 332.188 211.684 331.653C211.435 331.118 211.017 330.85 210.43 330.85C209.836 330.85 209.414 331.118 209.165 331.653C208.923 332.188 208.802 332.991 208.802 334.062ZM219.31 338H214.118V337.197L216.175 335.118C216.571 334.722 216.905 334.37 217.176 334.062C217.447 333.754 217.653 333.453 217.792 333.16C217.931 332.859 218.001 332.533 218.001 332.181C218.001 331.748 217.873 331.422 217.616 331.202C217.359 330.975 217.026 330.861 216.615 330.861C216.234 330.861 215.896 330.927 215.603 331.059C215.317 331.191 215.024 331.374 214.723 331.609L214.206 330.96C214.514 330.703 214.866 330.487 215.262 330.311C215.665 330.128 216.116 330.036 216.615 330.036C217.348 330.036 217.928 330.223 218.353 330.597C218.778 330.964 218.991 331.473 218.991 332.126C218.991 332.537 218.907 332.922 218.738 333.281C218.569 333.64 218.335 333.996 218.034 334.348C217.733 334.693 217.381 335.063 216.978 335.459L215.339 337.076V337.12H219.31V338ZM225.957 336.218H224.813V338H223.878V336.218H220.116V335.393L223.812 330.102H224.813V335.349H225.957V336.218ZM223.878 332.874C223.878 332.493 223.885 332.17 223.9 331.906C223.914 331.635 223.925 331.378 223.933 331.136H223.889C223.83 331.275 223.757 331.426 223.669 331.587C223.581 331.748 223.496 331.884 223.416 331.994L221.062 335.349H223.878V332.874Z" fill="#58595B"/>
<rect x="135" y="192" width="38" height="129" fill="#0067E8"/>
<path d="M146.72 338H141.528V337.197L143.585 335.118C143.981 334.722 144.315 334.37 144.586 334.062C144.857 333.754 145.063 333.453 145.202 333.16C145.341 332.859 145.411 332.533 145.411 332.181C145.411 331.748 145.283 331.422 145.026 331.202C144.769 330.975 144.436 330.861 144.025 330.861C143.644 330.861 143.306 330.927 143.013 331.059C142.727 331.191 142.434 331.374 142.133 331.609L141.616 330.96C141.924 330.703 142.276 330.487 142.672 330.311C143.075 330.128 143.526 330.036 144.025 330.036C144.758 330.036 145.338 330.223 145.763 330.597C146.188 330.964 146.401 331.473 146.401 332.126C146.401 332.537 146.317 332.922 146.148 333.281C145.979 333.64 145.745 333.996 145.444 334.348C145.143 334.693 144.791 335.063 144.388 335.459L142.749 337.076V337.12H146.72V338ZM153.048 334.062C153.048 334.905 152.96 335.631 152.784 336.24C152.608 336.841 152.329 337.303 151.948 337.626C151.567 337.949 151.061 338.11 150.43 338.11C149.543 338.11 148.886 337.754 148.461 337.043C148.043 336.324 147.834 335.331 147.834 334.062C147.834 333.211 147.918 332.485 148.087 331.884C148.263 331.283 148.542 330.824 148.923 330.509C149.304 330.186 149.807 330.025 150.43 330.025C151.31 330.025 151.966 330.381 152.399 331.092C152.832 331.796 153.048 332.786 153.048 334.062ZM148.802 334.062C148.802 335.14 148.923 335.947 149.165 336.482C149.414 337.017 149.836 337.285 150.43 337.285C151.017 337.285 151.435 337.021 151.684 336.493C151.941 335.958 152.069 335.147 152.069 334.062C152.069 332.991 151.941 332.188 151.684 331.653C151.435 331.118 151.017 330.85 150.43 330.85C149.836 330.85 149.414 331.118 149.165 331.653C148.923 332.188 148.802 332.991 148.802 334.062ZM159.31 338H154.118V337.197L156.175 335.118C156.571 334.722 156.905 334.37 157.176 334.062C157.447 333.754 157.653 333.453 157.792 333.16C157.931 332.859 158.001 332.533 158.001 332.181C158.001 331.748 157.873 331.422 157.616 331.202C157.359 330.975 157.026 330.861 156.615 330.861C156.234 330.861 155.896 330.927 155.603 331.059C155.317 331.191 155.024 331.374 154.723 331.609L154.206 330.96C154.514 330.703 154.866 330.487 155.262 330.311C155.665 330.128 156.116 330.036 156.615 330.036C157.348 330.036 157.928 330.223 158.353 330.597C158.778 330.964 158.991 331.473 158.991 332.126C158.991 332.537 158.907 332.922 158.738 333.281C158.569 333.64 158.335 333.996 158.034 334.348C157.733 334.693 157.381 335.063 156.978 335.459L155.339 337.076V337.12H159.31V338ZM165.308 331.983C165.308 332.511 165.161 332.933 164.868 333.248C164.574 333.556 164.178 333.761 163.68 333.864V333.908C164.31 333.981 164.78 334.179 165.088 334.502C165.396 334.825 165.55 335.246 165.55 335.767C165.55 336.222 165.443 336.629 165.231 336.988C165.018 337.34 164.688 337.615 164.241 337.813C163.801 338.011 163.232 338.11 162.536 338.11C162.125 338.11 161.744 338.077 161.392 338.011C161.04 337.952 160.702 337.842 160.38 337.681V336.779C160.71 336.94 161.065 337.069 161.447 337.164C161.828 337.252 162.195 337.296 162.547 337.296C163.251 337.296 163.757 337.16 164.065 336.889C164.38 336.61 164.538 336.229 164.538 335.745C164.538 335.254 164.343 334.902 163.955 334.689C163.573 334.469 163.034 334.359 162.338 334.359H161.579V333.534H162.349C162.994 333.534 163.482 333.398 163.812 333.127C164.149 332.856 164.318 332.496 164.318 332.049C164.318 331.668 164.189 331.374 163.933 331.169C163.676 330.956 163.328 330.85 162.888 330.85C162.462 330.85 162.099 330.912 161.799 331.037C161.498 331.162 161.201 331.319 160.908 331.51L160.424 330.85C160.702 330.63 161.047 330.439 161.458 330.278C161.876 330.117 162.349 330.036 162.877 330.036C163.698 330.036 164.307 330.219 164.703 330.586C165.106 330.953 165.308 331.418 165.308 331.983Z" fill="#58595B"/>
<rect x="75" y="221" width="38" height="100" fill="#0067E8"/>
<path d="M86.72 338H81.528V337.197L83.585 335.118C83.981 334.722 84.3147 334.37 84.586 334.062C84.8573 333.754 85.0627 333.453 85.202 333.16C85.3413 332.859 85.411 332.533 85.411 332.181C85.411 331.748 85.2827 331.422 85.026 331.202C84.7693 330.975 84.4357 330.861 84.025 330.861C83.6437 330.861 83.3063 330.927 83.013 331.059C82.727 331.191 82.4337 331.374 82.133 331.609L81.616 330.96C81.924 330.703 82.276 330.487 82.672 330.311C83.0753 330.128 83.5263 330.036 84.025 330.036C84.7583 330.036 85.3377 330.223 85.763 330.597C86.1883 330.964 86.401 331.473 86.401 332.126C86.401 332.537 86.3167 332.922 86.148 333.281C85.9793 333.64 85.7447 333.996 85.444 334.348C85.1433 334.693 84.7913 335.063 84.388 335.459L82.749 337.076V337.12H86.72V338ZM93.0479 334.062C93.0479 334.905 92.9599 335.631 92.7839 336.24C92.6079 336.841 92.3293 337.303 91.9479 337.626C91.5666 337.949 91.0606 338.11 90.4299 338.11C89.5426 338.11 88.8863 337.754 88.4609 337.043C88.0429 336.324 87.8339 335.331 87.8339 334.062C87.8339 333.211 87.9183 332.485 88.0869 331.884C88.2629 331.283 88.5416 330.824 88.9229 330.509C89.3043 330.186 89.8066 330.025 90.4299 330.025C91.3099 330.025 91.9663 330.381 92.3989 331.092C92.8316 331.796 93.0479 332.786 93.0479 334.062ZM88.8019 334.062C88.8019 335.14 88.9229 335.947 89.1649 336.482C89.4143 337.017 89.8359 337.285 90.4299 337.285C91.0166 337.285 91.4346 337.021 91.6839 336.493C91.9406 335.958 92.0689 335.147 92.0689 334.062C92.0689 332.991 91.9406 332.188 91.6839 331.653C91.4346 331.118 91.0166 330.85 90.4299 330.85C89.8359 330.85 89.4143 331.118 89.1649 331.653C88.9229 332.188 88.8019 332.991 88.8019 334.062ZM99.3098 338H94.1178V337.197L96.1748 335.118C96.5708 334.722 96.9045 334.37 97.1758 334.062C97.4472 333.754 97.6525 333.453 97.7918 333.16C97.9312 332.859 98.0008 332.533 98.0008 332.181C98.0008 331.748 97.8725 331.422 97.6158 331.202C97.3592 330.975 97.0255 330.861 96.6148 330.861C96.2335 330.861 95.8962 330.927 95.6028 331.059C95.3168 331.191 95.0235 331.374 94.7228 331.609L94.2058 330.96C94.5138 330.703 94.8658 330.487 95.2618 330.311C95.6652 330.128 96.1162 330.036 96.6148 330.036C97.3482 330.036 97.9275 330.223 98.3528 330.597C98.7782 330.964 98.9908 331.473 98.9908 332.126C98.9908 332.537 98.9065 332.922 98.7378 333.281C98.5692 333.64 98.3345 333.996 98.0338 334.348C97.7332 334.693 97.3812 335.063 96.9778 335.459L95.3388 337.076V337.12H99.3098V338ZM105.605 338H100.413V337.197L102.47 335.118C102.866 334.722 103.199 334.37 103.471 334.062C103.742 333.754 103.947 333.453 104.087 333.16C104.226 332.859 104.296 332.533 104.296 332.181C104.296 331.748 104.167 331.422 103.911 331.202C103.654 330.975 103.32 330.861 102.91 330.861C102.528 330.861 102.191 330.927 101.898 331.059C101.612 331.191 101.318 331.374 101.018 331.609L100.501 330.96C100.809 330.703 101.161 330.487 101.557 330.311C101.96 330.128 102.411 330.036 102.91 330.036C103.643 330.036 104.222 330.223 104.648 330.597C105.073 330.964 105.286 331.473 105.286 332.126C105.286 332.537 105.201 332.922 105.033 333.281C104.864 333.64 104.629 333.996 104.329 334.348C104.028 334.693 103.676 335.063 103.273 335.459L101.634 337.076V337.12H105.605V338Z" fill="#58595B"/>
<rect x="15" y="254" width="38" height="67" fill="#0067E8"/>
<path d="M26.72 338H21.528V337.197L23.585 335.118C23.981 334.722 24.3147 334.37 24.586 334.062C24.8573 333.754 25.0627 333.453 25.202 333.16C25.3413 332.859 25.411 332.533 25.411 332.181C25.411 331.748 25.2827 331.422 25.026 331.202C24.7693 330.975 24.4357 330.861 24.025 330.861C23.6437 330.861 23.3063 330.927 23.013 331.059C22.727 331.191 22.4337 331.374 22.133 331.609L21.616 330.96C21.924 330.703 22.276 330.487 22.672 330.311C23.0753 330.128 23.5263 330.036 24.025 330.036C24.7583 330.036 25.3377 330.223 25.763 330.597C26.1883 330.964 26.401 331.473 26.401 332.126C26.401 332.537 26.3167 332.922 26.148 333.281C25.9793 333.64 25.7447 333.996 25.444 334.348C25.1433 334.693 24.7913 335.063 24.388 335.459L22.749 337.076V337.12H26.72V338ZM33.0479 334.062C33.0479 334.905 32.9599 335.631 32.7839 336.24C32.6079 336.841 32.3293 337.303 31.9479 337.626C31.5666 337.949 31.0606 338.11 30.4299 338.11C29.5426 338.11 28.8863 337.754 28.4609 337.043C28.0429 336.324 27.8339 335.331 27.8339 334.062C27.8339 333.211 27.9183 332.485 28.0869 331.884C28.2629 331.283 28.5416 330.824 28.9229 330.509C29.3043 330.186 29.8066 330.025 30.4299 330.025C31.3099 330.025 31.9663 330.381 32.3989 331.092C32.8316 331.796 33.0479 332.786 33.0479 334.062ZM28.8019 334.062C28.8019 335.14 28.9229 335.947 29.1649 336.482C29.4143 337.017 29.8359 337.285 30.4299 337.285C31.0166 337.285 31.4346 337.021 31.6839 336.493C31.9406 335.958 32.0689 335.147 32.0689 334.062C32.0689 332.991 31.9406 332.188 31.6839 331.653C31.4346 331.118 31.0166 330.85 30.4299 330.85C29.8359 330.85 29.4143 331.118 29.1649 331.653C28.9229 332.188 28.8019 332.991 28.8019 334.062ZM39.3098 338H34.1178V337.197L36.1748 335.118C36.5708 334.722 36.9045 334.37 37.1758 334.062C37.4472 333.754 37.6525 333.453 37.7918 333.16C37.9312 332.859 38.0008 332.533 38.0008 332.181C38.0008 331.748 37.8725 331.422 37.6158 331.202C37.3592 330.975 37.0255 330.861 36.6148 330.861C36.2335 330.861 35.8962 330.927 35.6028 331.059C35.3168 331.191 35.0235 331.374 34.7228 331.609L34.2058 330.96C34.5138 330.703 34.8658 330.487 35.2618 330.311C35.6652 330.128 36.1162 330.036 36.6148 330.036C37.3482 330.036 37.9275 330.223 38.3528 330.597C38.7782 330.964 38.9908 331.473 38.9908 332.126C38.9908 332.537 38.9065 332.922 38.7378 333.281C38.5692 333.64 38.3345 333.996 38.0338 334.348C37.7332 334.693 37.3812 335.063 36.9778 335.459L35.3388 337.076V337.12H39.3098V338ZM43.7898 338H42.8438V332.511C42.8438 332.196 42.8474 331.943 42.8548 331.752C42.8621 331.561 42.8731 331.363 42.8878 331.158C42.7704 331.275 42.6641 331.374 42.5688 331.455C42.4734 331.536 42.3524 331.638 42.2058 331.763L41.3698 332.445L40.8638 331.796L42.9868 330.146H43.7898V338Z" fill="#58595B"/>
<circle cx="71" cy="365" r="6" fill="#0072F5"/>
<line opacity="0.3" x1="-4.37114e-08" y1="320.5" x2="483" y2="320.5" stroke="black"/>
<path d="M439.783 17.56C439.306 17.5453 438.881 17.5013 438.507 17.428C438.133 17.3473 437.792 17.2373 437.484 17.098V15.679C437.785 15.8257 438.148 15.9613 438.573 16.086C438.998 16.2033 439.402 16.273 439.783 16.295V14.634C439.218 14.414 438.764 14.2013 438.419 13.996C438.082 13.7833 437.84 13.5487 437.693 13.292C437.546 13.0353 437.473 12.7273 437.473 12.368C437.473 11.818 437.686 11.3817 438.111 11.059C438.544 10.729 439.101 10.5347 439.783 10.476V9.651H440.52V10.454C441.334 10.4833 442.075 10.6483 442.742 10.949L442.236 12.203C441.943 12.0783 441.646 11.983 441.345 11.917C441.052 11.851 440.777 11.807 440.52 11.785V13.369C440.916 13.5157 441.294 13.677 441.653 13.853C442.012 14.0217 442.302 14.238 442.522 14.502C442.749 14.766 442.863 15.1143 442.863 15.547C442.863 16.0823 442.669 16.5297 442.28 16.889C441.891 17.2483 441.305 17.4647 440.52 17.538V18.638H439.783V17.56ZM439.783 11.807C439.321 11.873 439.09 12.06 439.09 12.368C439.09 12.522 439.145 12.6503 439.255 12.753C439.365 12.8557 439.541 12.962 439.783 13.072V11.807ZM440.52 16.262C441.004 16.174 441.246 15.9613 441.246 15.624C441.246 15.4773 441.184 15.3527 441.059 15.25C440.942 15.14 440.762 15.03 440.52 14.92V16.262ZM446.595 12.984C447.072 12.984 447.497 13.0757 447.871 13.259C448.245 13.4423 448.538 13.71 448.751 14.062C448.971 14.414 449.081 14.8503 449.081 15.371C449.081 16.2217 448.817 16.8927 448.289 17.384C447.761 17.868 446.98 18.11 445.946 18.11C445.535 18.11 445.147 18.0733 444.78 18C444.421 17.9267 444.105 17.8203 443.834 17.681V16.251C444.105 16.3903 444.432 16.5113 444.813 16.614C445.194 16.7093 445.554 16.757 445.891 16.757C446.382 16.757 446.756 16.658 447.013 16.46C447.277 16.2547 447.409 15.9393 447.409 15.514C447.409 14.722 446.885 14.326 445.836 14.326C445.631 14.326 445.418 14.348 445.198 14.392C444.978 14.4287 444.795 14.4653 444.648 14.502L443.988 14.15L444.285 10.146H448.542V11.554H445.737L445.594 13.094C445.719 13.072 445.851 13.05 445.99 13.028C446.137 12.9987 446.338 12.984 446.595 12.984ZM455.486 13.501C455.486 13.9483 455.453 14.3957 455.387 14.843C455.321 15.283 455.204 15.701 455.035 16.097C454.874 16.4857 454.643 16.834 454.342 17.142C454.049 17.4427 453.671 17.681 453.209 17.857C452.754 18.0257 452.201 18.11 451.548 18.11C451.394 18.11 451.214 18.1027 451.009 18.088C450.804 18.0807 450.631 18.0623 450.492 18.033V16.702C450.639 16.7313 450.793 16.757 450.954 16.779C451.115 16.801 451.277 16.812 451.438 16.812C452.091 16.812 452.593 16.7093 452.945 16.504C453.304 16.2913 453.557 16.0017 453.704 15.635C453.851 15.2683 453.935 14.843 453.957 14.359H453.891C453.737 14.6157 453.532 14.832 453.275 15.008C453.026 15.184 452.652 15.272 452.153 15.272C451.486 15.272 450.95 15.0557 450.547 14.623C450.144 14.1903 449.942 13.578 449.942 12.786C449.942 11.9353 450.18 11.268 450.657 10.784C451.141 10.3 451.794 10.058 452.615 10.058C453.15 10.058 453.634 10.1827 454.067 10.432C454.5 10.674 454.844 11.0517 455.101 11.565C455.358 12.071 455.486 12.7163 455.486 13.501ZM452.648 11.389C452.325 11.389 452.061 11.499 451.856 11.719C451.651 11.939 451.548 12.2873 451.548 12.764C451.548 13.1453 451.636 13.446 451.812 13.666C451.988 13.886 452.256 13.996 452.615 13.996C452.864 13.996 453.077 13.941 453.253 13.831C453.436 13.721 453.579 13.5853 453.682 13.424C453.785 13.2553 453.836 13.083 453.836 12.907C453.836 12.665 453.792 12.4267 453.704 12.192C453.616 11.9573 453.484 11.7667 453.308 11.62C453.132 11.466 452.912 11.389 452.648 11.389ZM456.512 17.23C456.512 16.8927 456.603 16.658 456.787 16.526C456.97 16.3867 457.194 16.317 457.458 16.317C457.714 16.317 457.934 16.3867 458.118 16.526C458.301 16.658 458.393 16.8927 458.393 17.23C458.393 17.5527 458.301 17.7873 458.118 17.934C457.934 18.0733 457.714 18.143 457.458 18.143C457.194 18.143 456.97 18.0733 456.787 17.934C456.603 17.7873 456.512 17.5527 456.512 17.23ZM464.906 14.073C464.906 14.9163 464.815 15.6387 464.631 16.24C464.455 16.8413 464.166 17.3033 463.762 17.626C463.366 17.9487 462.831 18.11 462.156 18.11C461.21 18.11 460.517 17.7543 460.077 17.043C459.637 16.3243 459.417 15.3343 459.417 14.073C459.417 13.2223 459.505 12.4963 459.681 11.895C459.857 11.2937 460.147 10.8317 460.55 10.509C460.954 10.1863 461.489 10.025 462.156 10.025C463.095 10.025 463.788 10.3807 464.235 11.092C464.683 11.8033 464.906 12.797 464.906 14.073ZM461.067 14.073C461.067 14.9677 461.144 15.6423 461.298 16.097C461.452 16.5443 461.738 16.768 462.156 16.768C462.567 16.768 462.853 16.5443 463.014 16.097C463.176 15.6497 463.256 14.975 463.256 14.073C463.256 13.1783 463.176 12.5037 463.014 12.049C462.853 11.5943 462.567 11.367 462.156 11.367C461.738 11.367 461.452 11.5943 461.298 12.049C461.144 12.5037 461.067 13.1783 461.067 14.073ZM468.462 10.047C468.917 10.047 469.331 10.1167 469.705 10.256C470.087 10.3953 470.391 10.6043 470.618 10.883C470.853 11.1617 470.97 11.5137 470.97 11.939C470.97 12.4083 470.835 12.797 470.563 13.105C470.299 13.4057 469.966 13.655 469.562 13.853C469.841 13.9997 470.105 14.172 470.354 14.37C470.611 14.5607 470.816 14.788 470.97 15.052C471.132 15.3087 471.212 15.613 471.212 15.965C471.212 16.3977 471.095 16.7753 470.86 17.098C470.633 17.4207 470.31 17.67 469.892 17.846C469.482 18.022 469.005 18.11 468.462 18.11C467.582 18.11 466.9 17.923 466.416 17.549C465.94 17.175 465.701 16.6617 465.701 16.009C465.701 15.4663 465.848 15.03 466.141 14.7C466.435 14.37 466.79 14.1023 467.208 13.897C466.856 13.677 466.556 13.413 466.306 13.105C466.064 12.7897 465.943 12.3973 465.943 11.928C465.943 11.51 466.061 11.1617 466.295 10.883C466.53 10.6043 466.838 10.3953 467.219 10.256C467.608 10.1167 468.022 10.047 468.462 10.047ZM468.451 11.257C468.18 11.257 467.953 11.3267 467.769 11.466C467.593 11.6053 467.505 11.8033 467.505 12.06C467.505 12.3313 467.601 12.5513 467.791 12.72C467.982 12.8887 468.206 13.0353 468.462 13.16C468.712 13.0427 468.932 12.9033 469.122 12.742C469.313 12.5733 469.408 12.346 469.408 12.06C469.408 11.8033 469.317 11.6053 469.133 11.466C468.957 11.3267 468.73 11.257 468.451 11.257ZM467.241 15.91C467.241 16.196 467.34 16.4307 467.538 16.614C467.744 16.7973 468.044 16.889 468.44 16.889C468.851 16.889 469.159 16.801 469.364 16.625C469.57 16.449 469.672 16.2143 469.672 15.921C469.672 15.723 469.614 15.5507 469.496 15.404C469.379 15.25 469.232 15.1143 469.056 14.997C468.888 14.8723 468.712 14.7587 468.528 14.656L468.385 14.579C468.048 14.7403 467.773 14.9273 467.56 15.14C467.348 15.3527 467.241 15.6093 467.241 15.91Z" fill="#293243"/>
<path d="M18.783 242.56C18.3063 242.545 17.881 242.501 17.507 242.428C17.133 242.347 16.792 242.237 16.484 242.098V240.679C16.7847 240.826 17.1477 240.961 17.573 241.086C17.9983 241.203 18.4017 241.273 18.783 241.295V239.634C18.2183 239.414 17.7637 239.201 17.419 238.996C17.0817 238.783 16.8397 238.549 16.693 238.292C16.5463 238.035 16.473 237.727 16.473 237.368C16.473 236.818 16.6857 236.382 17.111 236.059C17.5437 235.729 18.101 235.535 18.783 235.476V234.651H19.52V235.454C20.334 235.483 21.0747 235.648 21.742 235.949L21.236 237.203C20.9427 237.078 20.6457 236.983 20.345 236.917C20.0517 236.851 19.7767 236.807 19.52 236.785V238.369C19.916 238.516 20.2937 238.677 20.653 238.853C21.0123 239.022 21.302 239.238 21.522 239.502C21.7493 239.766 21.863 240.114 21.863 240.547C21.863 241.082 21.6687 241.53 21.28 241.889C20.8913 242.248 20.3047 242.465 19.52 242.538V243.638H18.783V242.56ZM18.783 236.807C18.321 236.873 18.09 237.06 18.09 237.368C18.09 237.522 18.145 237.65 18.255 237.753C18.365 237.856 18.541 237.962 18.783 238.072V236.807ZM19.52 241.262C20.004 241.174 20.246 240.961 20.246 240.624C20.246 240.477 20.1837 240.353 20.059 240.25C19.9417 240.14 19.762 240.03 19.52 239.92V241.262ZM26.8379 243H25.1769V238.457C25.1769 238.266 25.1806 238.017 25.1879 237.709C25.2026 237.401 25.2136 237.13 25.2209 236.895C25.1843 236.939 25.1036 237.02 24.9789 237.137C24.8616 237.247 24.7516 237.346 24.6489 237.434L23.7469 238.16L22.9439 237.159L25.4739 235.146H26.8379V243ZM34.4858 238.501C34.4858 238.948 34.4528 239.396 34.3868 239.843C34.3208 240.283 34.2035 240.701 34.0348 241.097C33.8735 241.486 33.6425 241.834 33.3418 242.142C33.0485 242.443 32.6708 242.681 32.2088 242.857C31.7542 243.026 31.2005 243.11 30.5478 243.11C30.3938 243.11 30.2142 243.103 30.0088 243.088C29.8035 243.081 29.6312 243.062 29.4918 243.033V241.702C29.6385 241.731 29.7925 241.757 29.9538 241.779C30.1152 241.801 30.2765 241.812 30.4378 241.812C31.0905 241.812 31.5928 241.709 31.9448 241.504C32.3042 241.291 32.5572 241.002 32.7038 240.635C32.8505 240.268 32.9348 239.843 32.9568 239.359H32.8908C32.7368 239.616 32.5315 239.832 32.2748 240.008C32.0255 240.184 31.6515 240.272 31.1528 240.272C30.4855 240.272 29.9502 240.056 29.5468 239.623C29.1435 239.19 28.9418 238.578 28.9418 237.786C28.9418 236.935 29.1802 236.268 29.6568 235.784C30.1408 235.3 30.7935 235.058 31.6148 235.058C32.1502 235.058 32.6342 235.183 33.0668 235.432C33.4995 235.674 33.8442 236.052 34.1008 236.565C34.3575 237.071 34.4858 237.716 34.4858 238.501ZM31.6478 236.389C31.3252 236.389 31.0612 236.499 30.8558 236.719C30.6505 236.939 30.5478 237.287 30.5478 237.764C30.5478 238.145 30.6358 238.446 30.8118 238.666C30.9878 238.886 31.2555 238.996 31.6148 238.996C31.8642 238.996 32.0768 238.941 32.2528 238.831C32.4362 238.721 32.5792 238.585 32.6818 238.424C32.7845 238.255 32.8358 238.083 32.8358 237.907C32.8358 237.665 32.7918 237.427 32.7038 237.192C32.6158 236.957 32.4838 236.767 32.3078 236.62C32.1318 236.466 31.9118 236.389 31.6478 236.389ZM35.5118 242.23C35.5118 241.893 35.6034 241.658 35.7868 241.526C35.9701 241.387 36.1938 241.317 36.4578 241.317C36.7144 241.317 36.9344 241.387 37.1178 241.526C37.3011 241.658 37.3928 241.893 37.3928 242.23C37.3928 242.553 37.3011 242.787 37.1178 242.934C36.9344 243.073 36.7144 243.143 36.4578 243.143C36.1938 243.143 35.9701 243.073 35.7868 242.934C35.6034 242.787 35.5118 242.553 35.5118 242.23ZM41.3215 237.984C41.7982 237.984 42.2235 238.076 42.5975 238.259C42.9715 238.442 43.2648 238.71 43.4775 239.062C43.6975 239.414 43.8075 239.85 43.8075 240.371C43.8075 241.222 43.5435 241.893 43.0155 242.384C42.4875 242.868 41.7065 243.11 40.6725 243.11C40.2618 243.11 39.8732 243.073 39.5065 243C39.1472 242.927 38.8318 242.82 38.5605 242.681V241.251C38.8318 241.39 39.1582 241.511 39.5395 241.614C39.9208 241.709 40.2802 241.757 40.6175 241.757C41.1088 241.757 41.4828 241.658 41.7395 241.46C42.0035 241.255 42.1355 240.939 42.1355 240.514C42.1355 239.722 41.6112 239.326 40.5625 239.326C40.3572 239.326 40.1445 239.348 39.9245 239.392C39.7045 239.429 39.5212 239.465 39.3745 239.502L38.7145 239.15L39.0115 235.146H43.2685V236.554H40.4635L40.3205 238.094C40.4452 238.072 40.5772 238.05 40.7165 238.028C40.8632 237.999 41.0648 237.984 41.3215 237.984ZM47.4624 235.047C47.9171 235.047 48.3314 235.117 48.7054 235.256C49.0867 235.395 49.3911 235.604 49.6184 235.883C49.8531 236.162 49.9704 236.514 49.9704 236.939C49.9704 237.408 49.8347 237.797 49.5634 238.105C49.2994 238.406 48.9657 238.655 48.5624 238.853C48.8411 239 49.1051 239.172 49.3544 239.37C49.6111 239.561 49.8164 239.788 49.9704 240.052C50.1317 240.309 50.2124 240.613 50.2124 240.965C50.2124 241.398 50.0951 241.775 49.8604 242.098C49.6331 242.421 49.3104 242.67 48.8924 242.846C48.4817 243.022 48.0051 243.11 47.4624 243.11C46.5824 243.11 45.9004 242.923 45.4164 242.549C44.9397 242.175 44.7014 241.662 44.7014 241.009C44.7014 240.466 44.8481 240.03 45.1414 239.7C45.4347 239.37 45.7904 239.102 46.2084 238.897C45.8564 238.677 45.5557 238.413 45.3064 238.105C45.0644 237.79 44.9434 237.397 44.9434 236.928C44.9434 236.51 45.0607 236.162 45.2954 235.883C45.5301 235.604 45.8381 235.395 46.2194 235.256C46.6081 235.117 47.0224 235.047 47.4624 235.047ZM47.4514 236.257C47.1801 236.257 46.9527 236.327 46.7694 236.466C46.5934 236.605 46.5054 236.803 46.5054 237.06C46.5054 237.331 46.6007 237.551 46.7914 237.72C46.9821 237.889 47.2057 238.035 47.4624 238.16C47.7117 238.043 47.9317 237.903 48.1224 237.742C48.3131 237.573 48.4084 237.346 48.4084 237.06C48.4084 236.803 48.3167 236.605 48.1334 236.466C47.9574 236.327 47.7301 236.257 47.4514 236.257ZM46.2414 240.91C46.2414 241.196 46.3404 241.431 46.5384 241.614C46.7437 241.797 47.0444 241.889 47.4404 241.889C47.8511 241.889 48.1591 241.801 48.3644 241.625C48.5697 241.449 48.6724 241.214 48.6724 240.921C48.6724 240.723 48.6137 240.551 48.4964 240.404C48.3791 240.25 48.2324 240.114 48.0564 239.997C47.8877 239.872 47.7117 239.759 47.5284 239.656L47.3854 239.579C47.0481 239.74 46.7731 239.927 46.5604 240.14C46.3477 240.353 46.2414 240.609 46.2414 240.91Z" fill="#293243"/>
</svg>
