<svg fill="none" height="402" viewBox="0 0 433 402" width="433" xmlns="http://www.w3.org/2000/svg"><path d="m25 334.5h408" opacity=".3" stroke="#000"/><path d="m25 254.5h408" opacity=".3" stroke="#000"/><path d="m25 174.5h408" opacity=".3" stroke="#000"/><path d="m25 94.5h408" opacity=".3" stroke="#000"/><path d="m25 14.5h408" opacity=".3" stroke="#000"/><path d="m158.323 386.422c-.638 0-1.126.238-1.463.715s-.506 1.129-.506 1.958c0 .836.154 1.485.462 1.947.315.455.818.682 1.507.682.323 0 .642-.037.957-.11.323-.073.671-.176 1.045-.308v1.397c-.345.139-.686.242-1.023.308s-.715.099-1.133.099c-.807 0-1.474-.165-2.002-.495-.521-.337-.906-.807-1.155-1.408-.249-.609-.374-1.316-.374-2.123 0-.792.143-1.492.429-2.101s.7-1.085 1.243-1.43c.55-.345 1.221-.517 2.013-.517.389 0 .777.051 1.166.154.396.095.774.227 1.133.396l-.539 1.353c-.293-.139-.59-.26-.891-.363-.293-.103-.583-.154-.869-.154zm8.995 3.564c0 .997-.264 1.767-.792 2.31-.521.543-1.232.814-2.134.814-.557 0-1.056-.121-1.496-.363-.433-.242-.774-.594-1.023-1.056-.249-.469-.374-1.038-.374-1.705 0-.997.26-1.764.781-2.299s1.236-.803 2.145-.803c.565 0 1.063.121 1.496.363s.774.594 1.023 1.056c.249.455.374 1.016.374 1.683zm-4.147 0c0 .594.095 1.045.286 1.353.198.301.517.451.957.451.433 0 .744-.15.935-.451.198-.308.297-.759.297-1.353s-.099-1.038-.297-1.331c-.191-.301-.506-.451-.946-.451-.433 0-.748.15-.946.451-.191.293-.286.737-.286 1.331zm12.552-3.102c.682 0 1.196.176 1.54.528.352.345.528.902.528 1.672v3.916h-1.639v-3.509c0-.865-.3-1.298-.902-1.298-.432 0-.74.154-.924.462-.183.308-.275.752-.275 1.331v3.014h-1.639v-3.509c0-.865-.3-1.298-.902-1.298-.454 0-.77.172-.946.517-.168.337-.253.825-.253 1.463v2.827h-1.639v-6.006h1.254l.22.77h.088c.184-.308.433-.532.748-.671.323-.139.657-.209 1.001-.209.44 0 .814.073 1.122.22.308.139.543.359.704.66h.143c.184-.308.437-.532.759-.671.33-.139.668-.209 1.012-.209zm7.1 0c.675 0 1.221.264 1.639.792.418.521.627 1.291.627 2.31s-.216 1.797-.649 2.332c-.433.528-.986.792-1.661.792-.433 0-.777-.077-1.034-.231-.257-.161-.466-.341-.627-.539h-.088c.059.308.088.601.088.88v2.42h-1.639v-8.646h1.331l.231.781h.077c.161-.242.378-.451.649-.627s.623-.264 1.056-.264zm-.528 1.309c-.425 0-.726.132-.902.396-.169.264-.26.667-.275 1.21v.176c0 .579.084 1.027.253 1.342.176.308.491.462.946.462.374 0 .649-.154.825-.462.183-.315.275-.766.275-1.353 0-1.181-.374-1.771-1.122-1.771zm9.601 1.793c0 .997-.264 1.767-.792 2.31-.521.543-1.232.814-2.134.814-.557 0-1.056-.121-1.496-.363-.433-.242-.774-.594-1.023-1.056-.249-.469-.374-1.038-.374-1.705 0-.997.26-1.764.781-2.299s1.236-.803 2.145-.803c.565 0 1.063.121 1.496.363s.774.594 1.023 1.056c.249.455.374 1.016.374 1.683zm-4.147 0c0 .594.095 1.045.286 1.353.198.301.517.451.957.451.433 0 .744-.15.935-.451.198-.308.297-.759.297-1.353s-.099-1.038-.297-1.331c-.191-.301-.506-.451-.946-.451-.433 0-.748.15-.946.451-.191.293-.286.737-.286 1.331zm11.013-2.992v6.006h-1.254l-.22-.77h-.088c-.191.308-.455.532-.792.671-.33.139-.682.209-1.056.209-.646 0-1.163-.172-1.551-.517-.389-.352-.583-.913-.583-1.683v-3.916h1.639v3.509c0 .425.077.748.231.968s.399.33.737.33c.498 0 .839-.169 1.023-.506.183-.345.275-.836.275-1.474v-2.827zm5.128-.11c.645 0 1.162.176 1.551.528.389.345.583.902.583 1.672v3.916h-1.639v-3.509c0-.433-.077-.755-.231-.968-.154-.22-.4-.33-.737-.33-.499 0-.84.172-1.023.517-.183.337-.275.825-.275 1.463v2.827h-1.639v-6.006h1.254l.22.77h.088c.191-.308.451-.532.781-.671.337-.139.693-.209 1.067-.209zm5.723 6.226c-.668 0-1.214-.26-1.639-.781-.418-.528-.627-1.302-.627-2.321 0-1.027.212-1.804.638-2.332.425-.528.982-.792 1.672-.792.432 0 .788.084 1.067.253.278.169.498.378.66.627h.055c-.022-.117-.048-.286-.077-.506-.03-.227-.044-.458-.044-.693v-1.925h1.639v8.36h-1.254l-.319-.781h-.066c-.162.249-.378.462-.649.638-.272.169-.624.253-1.056.253zm.572-1.309c.454 0 .773-.132.957-.396.183-.271.278-.675.286-1.21v-.176c0-.587-.092-1.034-.275-1.342-.176-.308-.506-.462-.99-.462-.36 0-.642.158-.847.473-.206.308-.308.755-.308 1.342s.102 1.03.308 1.331c.205.293.495.44.869.44zm9.807-4.928c.807 0 1.423.176 1.848.528.433.345.649.876.649 1.595v4.004h-1.144l-.319-.814h-.044c-.257.323-.528.557-.814.704s-.678.22-1.177.22c-.535 0-.979-.154-1.331-.462-.352-.315-.528-.796-.528-1.441 0-.638.224-1.107.671-1.408.447-.308 1.118-.477 2.013-.506l1.045-.033v-.264c0-.315-.084-.546-.253-.693-.161-.147-.389-.22-.682-.22s-.579.044-.858.132c-.279.081-.557.183-.836.308l-.539-1.111c.323-.169.678-.301 1.067-.396.396-.095.807-.143 1.232-.143zm.231 3.366c-.528.015-.895.11-1.1.286s-.308.407-.308.693c0 .249.073.429.22.539.147.103.337.154.572.154.352 0 .649-.103.891-.308.242-.213.363-.51.363-.891v-.495zm7.354-3.355c.645 0 1.162.176 1.551.528.388.345.583.902.583 1.672v3.916h-1.639v-3.509c0-.433-.077-.755-.231-.968-.154-.22-.4-.33-.737-.33-.499 0-.84.172-1.023.517-.184.337-.275.825-.275 1.463v2.827h-1.639v-6.006h1.254l.22.77h.088c.19-.308.451-.532.781-.671.337-.139.693-.209 1.067-.209zm7.229 0c.645 0 1.162.176 1.551.528.389.345.583.902.583 1.672v3.916h-1.639v-3.509c0-.433-.077-.755-.231-.968-.154-.22-.4-.33-.737-.33-.499 0-.84.172-1.023.517-.183.337-.275.825-.275 1.463v2.827h-1.639v-6.006h1.254l.22.77h.088c.191-.308.451-.532.781-.671.337-.139.693-.209 1.067-.209zm9.331.11v6.006h-1.254l-.22-.77h-.088c-.191.308-.455.532-.792.671-.33.139-.682.209-1.056.209-.646 0-1.163-.172-1.551-.517-.389-.352-.583-.913-.583-1.683v-3.916h1.639v3.509c0 .425.077.748.231.968s.399.33.737.33c.498 0 .839-.169 1.023-.506.183-.345.275-.836.275-1.474v-2.827zm4.182-.121c.807 0 1.423.176 1.848.528.433.345.649.876.649 1.595v4.004h-1.144l-.319-.814h-.044c-.257.323-.528.557-.814.704s-.678.22-1.177.22c-.535 0-.979-.154-1.331-.462-.352-.315-.528-.796-.528-1.441 0-.638.224-1.107.671-1.408.447-.308 1.118-.477 2.013-.506l1.045-.033v-.264c0-.315-.084-.546-.253-.693-.161-.147-.389-.22-.682-.22s-.579.044-.858.132c-.279.081-.557.183-.836.308l-.539-1.111c.323-.169.678-.301 1.067-.396.396-.095.807-.143 1.232-.143zm.231 3.366c-.528.015-.895.11-1.1.286s-.308.407-.308.693c0 .249.073.429.22.539.147.103.337.154.572.154.352 0 .649-.103.891-.308.242-.213.363-.51.363-.891v-.495zm5.583 2.761h-1.639v-8.36h1.639zm6.517-6.116c.74 0 1.32.293 1.738.88h.044l.132-.77h1.386v6.017c0 .858-.253 1.511-.759 1.958s-1.254.671-2.244.671c-.426 0-.822-.026-1.188-.077-.36-.051-.712-.143-1.056-.275v-1.309c.74.308 1.521.462 2.343.462.843 0 1.265-.455 1.265-1.364v-.121c0-.125.003-.253.011-.385.014-.132.025-.249.033-.352h-.044c-.206.315-.451.543-.737.682s-.609.209-.968.209c-.712 0-1.269-.271-1.672-.814-.396-.55-.594-1.313-.594-2.288 0-.983.205-1.749.616-2.299.41-.55.975-.825 1.694-.825zm.517 1.331c-.77 0-1.155.605-1.155 1.815 0 1.195.392 1.793 1.177 1.793.418 0 .726-.117.924-.352.205-.242.308-.66.308-1.254v-.198c0-.645-.099-1.107-.297-1.386s-.517-.418-.957-.418zm7.852-1.331c.08 0 .176.004.286.011s.198.018.264.033l-.121 1.54c-.052-.015-.129-.026-.231-.033-.096-.015-.18-.022-.253-.022-.279 0-.547.051-.803.154-.257.095-.466.253-.627.473-.154.22-.231.521-.231.902v3.058h-1.639v-6.006h1.243l.242 1.012h.077c.176-.308.418-.572.726-.792s.663-.33 1.067-.33zm6.881 3.102c0 .997-.264 1.767-.792 2.31-.521.543-1.232.814-2.134.814-.557 0-1.056-.121-1.496-.363-.433-.242-.774-.594-1.023-1.056-.249-.469-.374-1.038-.374-1.705 0-.997.26-1.764.781-2.299s1.236-.803 2.145-.803c.565 0 1.063.121 1.496.363s.774.594 1.023 1.056c.249.455.374 1.016.374 1.683zm-4.147 0c0 .594.095 1.045.286 1.353.198.301.517.451.957.451.433 0 .744-.15.935-.451.198-.308.297-.759.297-1.353s-.099-1.038-.297-1.331c-.191-.301-.506-.451-.946-.451-.433 0-.748.15-.946.451-.191.293-.286.737-.286 1.331zm9.764.913c-.03-.125-.074-.308-.132-.55-.052-.249-.11-.513-.176-.792-.066-.286-.129-.546-.187-.781-.059-.242-.099-.418-.121-.528h-.044c-.022.11-.063.286-.121.528-.052.235-.11.495-.176.781-.066.279-.129.543-.187.792-.059.249-.103.44-.132.572l-.484 2.079h-1.76l-1.705-6.006h1.628l.693 2.662c.051.183.095.403.132.66.044.257.084.506.121.748.036.235.062.422.077.561h.044c.007-.103.022-.238.044-.407.022-.176.047-.356.077-.539.036-.183.066-.348.088-.495.029-.154.051-.257.066-.308l.737-2.882h1.804l.704 2.882c.029.103.062.268.099.495.044.227.08.458.11.693.036.235.055.422.055.561h.044c.014-.125.04-.304.077-.539.036-.242.077-.495.121-.759.051-.264.102-.488.154-.671l.715-2.662h1.606l-1.727 6.006h-1.782zm7.474.902c.183 0 .359-.018.528-.055.168-.037.337-.081.506-.132v1.221c-.176.073-.396.136-.66.187-.257.059-.539.088-.847.088-.36 0-.682-.059-.968-.176-.279-.117-.503-.319-.671-.605-.162-.293-.242-.697-.242-1.21v-2.893h-.781v-.693l.902-.55.473-1.265h1.045v1.276h1.683v1.232h-1.683v2.893c0 .227.066.4.198.517.132.11.304.165.517.165zm3.878-5.456c0 .293-.011.576-.033.847-.015.271-.029.462-.044.572h.088c.191-.308.436-.532.737-.671s.634-.209 1.001-.209c.653 0 1.173.176 1.562.528.396.345.594.902.594 1.672v3.916h-1.639v-3.509c0-.865-.323-1.298-.968-1.298-.491 0-.832.172-1.023.517-.183.337-.275.825-.275 1.463v2.827h-1.639v-8.36h1.639zm11.803.539c.081 0 .176.004.286.011s.198.018.264.033l-.121 1.54c-.051-.015-.128-.026-.231-.033-.095-.015-.18-.022-.253-.022-.279 0-.546.051-.803.154-.257.095-.466.253-.627.473-.154.22-.231.521-.231.902v3.058h-1.639v-6.006h1.243l.242 1.012h.077c.176-.308.418-.572.726-.792s.664-.33 1.067-.33zm3.889-.011c.807 0 1.423.176 1.848.528.433.345.649.876.649 1.595v4.004h-1.144l-.319-.814h-.044c-.256.323-.528.557-.814.704s-.678.22-1.177.22c-.535 0-.979-.154-1.331-.462-.352-.315-.528-.796-.528-1.441 0-.638.224-1.107.671-1.408.448-.308 1.119-.477 2.013-.506l1.045-.033v-.264c0-.315-.084-.546-.253-.693-.161-.147-.388-.22-.682-.22-.293 0-.579.044-.858.132-.278.081-.557.183-.836.308l-.539-1.111c.323-.169.679-.301 1.067-.396.396-.095.807-.143 1.232-.143zm.231 3.366c-.528.015-.894.11-1.1.286-.205.176-.308.407-.308.693 0 .249.074.429.22.539.147.103.338.154.572.154.352 0 .649-.103.891-.308.242-.213.363-.51.363-.891v-.495zm6.474 1.562c.183 0 .359-.018.528-.055s.337-.081.506-.132v1.221c-.176.073-.396.136-.66.187-.257.059-.539.088-.847.088-.359 0-.682-.059-.968-.176-.279-.117-.502-.319-.671-.605-.161-.293-.242-.697-.242-1.21v-2.893h-.781v-.693l.902-.55.473-1.265h1.045v1.276h1.683v1.232h-1.683v2.893c0 .227.066.4.198.517.132.11.304.165.517.165zm4.714-4.917c.829 0 1.485.238 1.969.715.484.469.726 1.14.726 2.013v.792h-3.872c.015.462.151.825.407 1.089.264.264.627.396 1.089.396.389 0 .741-.037 1.056-.11.316-.081.642-.202.979-.363v1.265c-.293.147-.605.253-.935.319-.322.073-.715.11-1.177.11-.601 0-1.133-.11-1.595-.33-.462-.227-.825-.568-1.089-1.023s-.396-1.027-.396-1.716c0-.704.118-1.287.352-1.749.242-.469.576-.821 1.001-1.056.426-.235.921-.352 1.485-.352zm.011 1.166c-.315 0-.579.103-.792.308-.205.205-.326.524-.363.957h2.299c-.007-.367-.102-.667-.286-.902-.183-.242-.469-.363-.858-.363z" fill="#293243"/><g fill="#58595b"><path d="m5.753 334.062c0 .843-.088 1.569-.264 2.178-.176.601-.45467 1.063-.836 1.386s-.88733.484-1.518.484c-.88733 0-1.54367-.356-1.969-1.067-.418-.719-.627-1.712-.627-2.981 0-.851.084333-1.577.253-2.178.176-.601.45467-1.06.836-1.375.38133-.323.88367-.484 1.507-.484.88 0 1.53633.356 1.969 1.067.43267.704.649 1.694.649 2.97zm-4.246 0c0 1.078.121 1.885.363 2.42.24933.535.671.803 1.265.803.58667 0 1.00467-.264 1.254-.792.25667-.535.385-1.346.385-2.431 0-1.071-.12833-1.874-.385-2.409-.24933-.535-.66733-.803-1.254-.803-.594 0-1.01567.268-1.265.803-.242.535-.363 1.338-.363 2.409z"/><path d="m3.905 258h-.946v-5.489c0-.315.00367-.568.011-.759s.01833-.389.033-.594c-.11733.117-.22367.216-.319.297s-.21633.183-.363.308l-.836.682-.506-.649 2.123-1.65h.803zm4.53492-7.964c.54267 0 .95334.216 1.232.649.27867.425.41798 1.027.41798 1.804s-.13564 1.386-.40698 1.826c-.264.433-.67833.649-1.243.649-.52066 0-.92033-.216-1.199-.649-.27133-.44-.407-1.049-.407-1.826s.12834-1.379.385-1.804c.25667-.433.66367-.649 1.221-.649zm5.02698.11-4.35598 7.854h-.847l4.35598-7.854zm-5.02698.572c-.27866 0-.484.15-.616.451-.12466.293-.187.733-.187 1.32s.06234 1.03.187 1.331c.132.301.33734.451.616.451.56467 0 .847-.594.847-1.782 0-1.181-.28233-1.771-.847-1.771zm4.80698 2.464c.5354 0 .9424.216 1.221.649.286.425.429 1.027.429 1.804s-.1356 1.386-.407 1.826c-.264.433-.6783.649-1.243.649-.5206 0-.9203-.216-1.199-.649-.2713-.44-.407-1.049-.407-1.826s.1284-1.379.385-1.804c.2567-.433.6637-.649 1.221-.649zm0 .693c-.2786 0-.484.147-.616.44-.1246.293-.187.733-.187 1.32 0 .594.0624 1.041.187 1.342.132.293.3374.44.616.44.5647 0 .847-.594.847-1.782 0-1.173-.2823-1.76-.847-1.76z"/><path d="m5.72 178h-5.192v-.803l2.057-2.079c.396-.396.72967-.748 1.001-1.056s.47667-.609.616-.902c.13933-.301.209-.627.209-.979 0-.433-.12833-.759-.385-.979-.25667-.227-.59033-.341-1.001-.341-.38133 0-.71867.066-1.012.198-.286.132-.57933.315-.88.55l-.517-.649c.308-.257.66-.473 1.056-.649.40333-.183.85433-.275 1.353-.275.73333 0 1.31267.187 1.738.561.42533.367.638.876.638 1.529 0 .411-.08433.796-.253 1.155s-.40333.715-.704 1.067c-.30067.345-.65267.715-1.056 1.111l-1.639 1.617v.044h3.971zm2.71992-7.964c.54267 0 .95334.216 1.232.649.27867.425.41798 1.027.41798 1.804s-.13564 1.386-.40698 1.826c-.264.433-.67833.649-1.243.649-.52066 0-.92033-.216-1.199-.649-.27133-.44-.407-1.049-.407-1.826s.12834-1.379.385-1.804c.25667-.433.66367-.649 1.221-.649zm5.02698.11-4.35598 7.854h-.847l4.35598-7.854zm-5.02698.572c-.27866 0-.484.15-.616.451-.12466.293-.187.733-.187 1.32s.06234 1.03.187 1.331c.132.301.33734.451.616.451.56467 0 .847-.594.847-1.782 0-1.181-.28233-1.771-.847-1.771zm4.80698 2.464c.5354 0 .9424.216 1.221.649.286.425.429 1.027.429 1.804s-.1356 1.386-.407 1.826c-.264.433-.6783.649-1.243.649-.5206 0-.9203-.216-1.199-.649-.2713-.44-.407-1.049-.407-1.826s.1284-1.379.385-1.804c.2567-.433.6637-.649 1.221-.649zm0 .693c-.2786 0-.484.147-.616.44-.1246.293-.187.733-.187 1.32 0 .594.0624 1.041.187 1.342.132.293.3374.44.616.44.5647 0 .847-.594.847-1.782 0-1.173-.2823-1.76-.847-1.76z"/><path d="m5.423 91.983c0 .528-.14667.9497-.44 1.265-.29333.308-.68933.5133-1.188.616v.044c.63067.0733 1.1.2713 1.408.594s.462.7443.462 1.265c0 .4547-.10633.8617-.319 1.221-.21267.352-.54267.627-.99.825-.44.198-1.00833.297-1.705.297-.41067 0-.792-.033-1.144-.099-.352-.0587-.689333-.1687-1.012-.33v-.902c.33.1613.68567.2897 1.067.385.38133.088.748.132 1.1.132.704 0 1.21-.1357 1.518-.407.31533-.2787.473-.66.473-1.144 0-.4913-.19433-.8433-.583-1.056-.38133-.22-.92033-.33-1.617-.33h-.759v-.825h.77c.64533 0 1.133-.1357 1.463-.407.33733-.2713.506-.6307.506-1.078 0-.3813-.12833-.6747-.385-.88-.25667-.2127-.605-.319-1.045-.319-.42533 0-.78833.0623-1.089.187s-.59767.2823-.891.473l-.484-.66c.278667-.22.62333-.4107 1.034-.572.418-.1613.891-.242 1.419-.242.82133 0 1.43.1833 1.826.55.40333.3667.605.8323.605 1.397zm3.01692-1.947c.54267 0 .95334.2163 1.232.649.27867.4253.41798 1.0267.41798 1.804s-.13564 1.386-.40698 1.826c-.264.4327-.67833.649-1.243.649-.52066 0-.92033-.2163-1.199-.649-.27133-.44-.407-1.0487-.407-1.826s.12834-1.3787.385-1.804c.25667-.4327.66367-.649 1.221-.649zm5.02698.11-4.35598 7.854h-.847l4.35598-7.854zm-5.02698.572c-.27866 0-.484.1503-.616.451-.12466.2933-.187.7333-.187 1.32s.06234 1.0303.187 1.331c.132.3007.33734.451.616.451.56467 0 .847-.594.847-1.782 0-1.1807-.28233-1.771-.847-1.771zm4.80698 2.464c.5354 0 .9424.2163 1.221.649.286.4253.429 1.0267.429 1.804s-.1356 1.386-.407 1.826c-.264.4327-.6783.649-1.243.649-.5206 0-.9203-.2163-1.199-.649-.2713-.44-.407-1.0487-.407-1.826s.1284-1.3787.385-1.804c.2567-.4327.6637-.649 1.221-.649zm0 .693c-.2786 0-.484.1467-.616.44-.1246.2933-.187.7333-.187 1.32 0 .594.0624 1.0413.187 1.342.132.2933.3374.44.616.44.5647 0 .847-.594.847-1.782 0-1.1733-.2823-1.76-.847-1.76z"/><path d="m6.072 16.218h-1.144v1.782h-.935v-1.782h-3.762v-.825l3.696-5.291h1.001v5.247h1.144zm-2.079-3.344c0-.3813.00733-.704.022-.968.01467-.2713.02567-.528.033-.77h-.044c-.05867.1393-.132.2897-.22.451s-.17233.297-.253.407l-2.354 3.355h2.816zm4.44692-2.838c.54267 0 .95334.2163 1.232.649.27867.4253.41798 1.0267.41798 1.804s-.13564 1.386-.40698 1.826c-.264.4327-.67833.649-1.243.649-.52066 0-.92033-.2163-1.199-.649-.27133-.44-.407-1.0487-.407-1.826s.12834-1.3787.385-1.804c.25667-.4327.66367-.649 1.221-.649zm5.02698.11-4.35598 7.854h-.847l4.35598-7.854zm-5.02698.572c-.27866 0-.484.1503-.616.451-.12466.2933-.187.7333-.187 1.32s.06234 1.0303.187 1.331c.132.3007.33734.451.616.451.56467 0 .847-.594.847-1.782 0-1.1807-.28233-1.771-.847-1.771zm4.80698 2.464c.5354 0 .9424.2163 1.221.649.286.4253.429 1.0267.429 1.804s-.1356 1.386-.407 1.826c-.264.4327-.6783.649-1.243.649-.5206 0-.9203-.2163-1.199-.649-.2713-.44-.407-1.0487-.407-1.826s.1284-1.3787.385-1.804c.2567-.4327.6637-.649 1.221-.649zm0 .693c-.2786 0-.484.1467-.616.44-.1246.2933-.187.7333-.187 1.32 0 .594.0624 1.0413.187 1.342.132.2933.3374.44.616.44.5647 0 .847-.594.847-1.782 0-1.1733-.2823-1.76-.847-1.76z"/><path d="m156.72 351h-5.192v-.803l2.057-2.079c.396-.396.73-.748 1.001-1.056s.477-.609.616-.902c.139-.301.209-.627.209-.979 0-.433-.128-.759-.385-.979-.257-.227-.59-.341-1.001-.341-.381 0-.719.066-1.012.198-.286.132-.579.315-.88.55l-.517-.649c.308-.257.66-.473 1.056-.649.403-.183.854-.275 1.353-.275.733 0 1.313.187 1.738.561.425.367.638.876.638 1.529 0 .411-.084.796-.253 1.155s-.403.715-.704 1.067c-.301.345-.653.715-1.056 1.111l-1.639 1.617v.044h3.971zm6.328-3.938c0 .843-.088 1.569-.264 2.178-.176.601-.455 1.063-.836 1.386s-.887.484-1.518.484c-.887 0-1.544-.356-1.969-1.067-.418-.719-.627-1.712-.627-2.981 0-.851.084-1.577.253-2.178.176-.601.455-1.06.836-1.375.381-.323.884-.484 1.507-.484.88 0 1.536.356 1.969 1.067.433.704.649 1.694.649 2.97zm-4.246 0c0 1.078.121 1.885.363 2.42.249.535.671.803 1.265.803.587 0 1.005-.264 1.254-.792.257-.535.385-1.346.385-2.431 0-1.071-.128-1.874-.385-2.409-.249-.535-.667-.803-1.254-.803-.594 0-1.016.268-1.265.803-.242.535-.363 1.338-.363 2.409zm8.693 3.938h-.946v-5.489c0-.315.004-.568.011-.759s.018-.389.033-.594c-.117.117-.224.216-.319.297s-.216.183-.363.308l-.836.682-.506-.649 2.123-1.65h.803zm5.415-4.818c.806 0 1.448.202 1.925.605.476.403.715.972.715 1.705 0 .814-.261 1.456-.781 1.925-.514.462-1.232.693-2.156.693-.404 0-.785-.037-1.144-.11-.352-.073-.649-.18-.891-.319v-.913c.264.161.583.29.957.385.381.088.744.132 1.089.132.579 0 1.045-.136 1.397-.407.359-.279.539-.708.539-1.287 0-.513-.158-.906-.473-1.177-.316-.279-.814-.418-1.496-.418-.206 0-.44.018-.704.055s-.477.073-.638.11l-.484-.308.297-3.707h3.938v.88h-3.113l-.187 2.277c.124-.022.293-.048.506-.077.212-.029.447-.044.704-.044zm3.71 2.299v-.858h2.662v.858zm7.01 2.519h-.946v-5.489c0-.315.003-.568.011-.759.007-.191.018-.389.033-.594-.118.117-.224.216-.319.297-.096.081-.217.183-.363.308l-.836.682-.506-.649 2.123-1.65h.803zm8.11-4.499c0 .565-.052 1.122-.154 1.672-.096.543-.275 1.038-.539 1.485-.257.44-.624.792-1.1 1.056-.47.264-1.075.396-1.815.396-.147 0-.319-.011-.517-.033-.191-.015-.349-.04-.473-.077v-.825c.286.095.608.143.968.143.513 0 .935-.084 1.265-.253.337-.169.605-.396.803-.682.198-.293.341-.631.429-1.012.088-.389.139-.796.154-1.221h-.066c-.162.249-.396.466-.704.649-.301.176-.69.264-1.166.264-.675 0-1.221-.205-1.639-.616-.411-.418-.616-1.005-.616-1.76 0-.55.102-1.023.308-1.419.212-.396.506-.7.88-.913s.814-.319 1.32-.319c.498 0 .949.128 1.353.385.403.249.722.631.957 1.144.234.506.352 1.151.352 1.936zm-2.662-2.651c-.455 0-.829.15-1.122.451-.286.301-.429.759-.429 1.375 0 .506.121.906.363 1.199.249.286.63.429 1.144.429.352 0 .656-.07.913-.209.256-.147.454-.33.594-.55.146-.22.22-.447.22-.682 0-.315-.063-.627-.187-.935-.125-.308-.312-.565-.561-.77-.25-.205-.561-.308-.935-.308z"/><path d="m270.72 352h-5.192v-.803l2.057-2.079c.396-.396.73-.748 1.001-1.056s.477-.609.616-.902c.139-.301.209-.627.209-.979 0-.433-.128-.759-.385-.979-.257-.227-.59-.341-1.001-.341-.381 0-.719.066-1.012.198-.286.132-.579.315-.88.55l-.517-.649c.308-.257.66-.473 1.056-.649.403-.183.854-.275 1.353-.275.733 0 1.313.187 1.738.561.425.367.638.876.638 1.529 0 .411-.084.796-.253 1.155s-.403.715-.704 1.067c-.301.345-.653.715-1.056 1.111l-1.639 1.617v.044h3.971zm6.328-3.938c0 .843-.088 1.569-.264 2.178-.176.601-.455 1.063-.836 1.386s-.887.484-1.518.484c-.887 0-1.544-.356-1.969-1.067-.418-.719-.627-1.712-.627-2.981 0-.851.084-1.577.253-2.178.176-.601.455-1.06.836-1.375.381-.323.884-.484 1.507-.484.88 0 1.536.356 1.969 1.067.433.704.649 1.694.649 2.97zm-4.246 0c0 1.078.121 1.885.363 2.42.249.535.671.803 1.265.803.587 0 1.005-.264 1.254-.792.257-.535.385-1.346.385-2.431 0-1.071-.128-1.874-.385-2.409-.249-.535-.667-.803-1.254-.803-.594 0-1.016.268-1.265.803-.242.535-.363 1.338-.363 2.409zm10.508 3.938h-5.192v-.803l2.057-2.079c.396-.396.73-.748 1.001-1.056s.477-.609.616-.902c.139-.301.209-.627.209-.979 0-.433-.128-.759-.385-.979-.257-.227-.59-.341-1.001-.341-.381 0-.719.066-1.012.198-.286.132-.579.315-.88.55l-.517-.649c.308-.257.66-.473 1.056-.649.403-.183.854-.275 1.353-.275.733 0 1.313.187 1.738.561.425.367.638.876.638 1.529 0 .411-.084.796-.253 1.155s-.403.715-.704 1.067c-.301.345-.653.715-1.056 1.111l-1.639 1.617v.044h3.971zm6.328-3.938c0 .843-.088 1.569-.264 2.178-.176.601-.455 1.063-.836 1.386-.382.323-.888.484-1.518.484-.888 0-1.544-.356-1.969-1.067-.418-.719-.627-1.712-.627-2.981 0-.851.084-1.577.253-2.178.176-.601.454-1.06.836-1.375.381-.323.883-.484 1.507-.484.88 0 1.536.356 1.969 1.067.432.704.649 1.694.649 2.97zm-4.246 0c0 1.078.121 1.885.363 2.42.249.535.671.803 1.265.803.586 0 1.004-.264 1.254-.792.256-.535.385-1.346.385-2.431 0-1.071-.129-1.874-.385-2.409-.25-.535-.668-.803-1.254-.803-.594 0-1.016.268-1.265.803-.242.535-.363 1.338-.363 2.409zm5.228 1.419v-.858h2.662v.858zm8.825 2.519h-5.192v-.803l2.057-2.079c.396-.396.729-.748 1.001-1.056.271-.308.476-.609.616-.902.139-.301.209-.627.209-.979 0-.433-.129-.759-.385-.979-.257-.227-.591-.341-1.001-.341-.382 0-.719.066-1.012.198-.286.132-.58.315-.88.55l-.517-.649c.308-.257.66-.473 1.056-.649.403-.183.854-.275 1.353-.275.733 0 1.312.187 1.738.561.425.367.638.876.638 1.529 0 .411-.085.796-.253 1.155-.169.359-.404.715-.704 1.067-.301.345-.653.715-1.056 1.111l-1.639 1.617v.044h3.971zm6.647-1.782h-1.144v1.782h-.935v-1.782h-3.762v-.825l3.696-5.291h1.001v5.247h1.144zm-2.079-3.344c0-.381.007-.704.022-.968.014-.271.025-.528.033-.77h-.044c-.059.139-.132.29-.22.451s-.173.297-.253.407l-2.354 3.355h2.816z"/></g><circle cx="136" cy="389" fill="#0072f5" r="6"/><path d="m144 15h56v320h-56z" fill="#f3f4f6"/><path d="m144 112h56v223h-56z" fill="#0067e8"/><path d="m253 15h56v320h-56z" fill="#0067e8"/><path d="m277.5 150.372h-.946v1.628h-1.617v-1.628h-3.355v-1.155l3.443-5.071h1.529v4.939h.946zm-2.563-2.618c0-.169.004-.374.011-.616s.015-.466.022-.671c.015-.213.026-.352.033-.418h-.044c-.066.147-.136.29-.209.429s-.161.282-.264.429l-1.441 2.178h1.892zm4.942-3.718c.616 0 1.082.216 1.397.649.323.425.484 1.027.484 1.804s-.15 1.386-.451 1.826c-.301.433-.777.649-1.43.649-.601 0-1.06-.216-1.375-.649-.315-.44-.473-1.049-.473-1.826s.147-1.379.44-1.804c.293-.433.763-.649 1.408-.649zm5.577.11-4.356 7.854h-1.287l4.356-7.854zm-5.566 1.012c-.337 0-.506.447-.506 1.342 0 .902.169 1.353.506 1.353.345 0 .517-.451.517-1.353 0-.895-.172-1.342-.517-1.342zm5.489 2.013c.616 0 1.082.216 1.397.649.323.425.484 1.027.484 1.804s-.15 1.386-.451 1.826c-.301.433-.777.649-1.43.649-.601 0-1.06-.216-1.375-.649-.315-.44-.473-1.049-.473-1.826s.147-1.379.44-1.804c.293-.433.763-.649 1.408-.649zm.011 1.122c-.337 0-.506.447-.506 1.342 0 .902.169 1.353.506 1.353.345 0 .517-.451.517-1.353 0-.895-.172-1.342-.517-1.342z" fill="#fff"/><path d="m165.108 223h-5.489v-1.155l1.969-1.991c.396-.411.715-.752.957-1.023.242-.279.418-.528.528-.748.11-.227.165-.469.165-.726 0-.315-.088-.55-.264-.704-.168-.154-.399-.231-.693-.231-.3 0-.594.07-.88.209s-.586.337-.902.594l-.902-1.067c.228-.198.466-.381.715-.55.257-.169.55-.304.88-.407.338-.11.741-.165 1.21-.165.514 0 .954.095 1.32.286.374.183.66.436.858.759.206.315.308.675.308 1.078 0 .433-.088.829-.264 1.188-.168.359-.418.715-.748 1.067-.322.352-.715.741-1.177 1.166l-1.012.946v.077h3.421zm.993-.77c0-.337.092-.572.275-.704.183-.139.407-.209.671-.209.257 0 .477.07.66.209.183.132.275.367.275.704 0 .323-.092.557-.275.704-.183.139-.403.209-.66.209-.264 0-.488-.07-.671-.209-.183-.147-.275-.381-.275-.704zm5.656-7.183c.455 0 .869.07 1.243.209.381.139.686.348.913.627.235.279.352.631.352 1.056 0 .469-.136.858-.407 1.166-.264.301-.598.55-1.001.748.279.147.543.319.792.517.257.191.462.418.616.682.161.257.242.561.242.913 0 .433-.117.81-.352 1.133-.227.323-.55.572-.968.748-.411.176-.887.264-1.43.264-.88 0-1.562-.187-2.046-.561-.477-.374-.715-.887-.715-1.54 0-.543.147-.979.44-1.309s.649-.598 1.067-.803c-.352-.22-.653-.484-.902-.792-.242-.315-.363-.708-.363-1.177 0-.418.117-.766.352-1.045s.543-.488.924-.627c.389-.139.803-.209 1.243-.209zm-.011 1.21c-.271 0-.499.07-.682.209-.176.139-.264.337-.264.594 0 .271.095.491.286.66s.414.315.671.44c.249-.117.469-.257.66-.418.191-.169.286-.396.286-.682 0-.257-.092-.455-.275-.594-.176-.139-.403-.209-.682-.209zm-1.21 4.653c0 .286.099.521.297.704.205.183.506.275.902.275.411 0 .719-.088.924-.264s.308-.411.308-.704c0-.198-.059-.37-.176-.517-.117-.154-.264-.29-.44-.407-.169-.125-.345-.238-.528-.341l-.143-.077c-.337.161-.612.348-.825.561s-.319.469-.319.77zm6.559-5.874c.616 0 1.081.216 1.397.649.322.425.484 1.027.484 1.804s-.151 1.386-.451 1.826c-.301.433-.778.649-1.43.649-.602 0-1.06-.216-1.375-.649-.316-.44-.473-1.049-.473-1.826s.146-1.379.44-1.804c.293-.433.762-.649 1.408-.649zm5.577.11-4.356 7.854h-1.287l4.356-7.854zm-5.566 1.012c-.338 0-.506.447-.506 1.342 0 .902.168 1.353.506 1.353.344 0 .517-.451.517-1.353 0-.895-.173-1.342-.517-1.342zm5.489 2.013c.616 0 1.081.216 1.397.649.322.425.484 1.027.484 1.804s-.151 1.386-.451 1.826c-.301.433-.778.649-1.43.649-.602 0-1.06-.216-1.375-.649-.316-.44-.473-1.049-.473-1.826s.146-1.379.44-1.804c.293-.433.762-.649 1.408-.649zm.011 1.122c-.338 0-.506.447-.506 1.342 0 .902.168 1.353.506 1.353.344 0 .517-.451.517-1.353 0-.895-.173-1.342-.517-1.342z" fill="#fff"/></svg>