<svg width="420" height="323" fill="none" xmlns="http://www.w3.org/2000/svg"><path opacity=".3" stroke="#000" d="M0 265.5h420"/><path fill="#293243" d="M21 90h60v176H21zM101 62h61v204h-61zM182 41h60v225h-60zM262 18h61v248h-61zM343 0h60v266h-60z"/><path d="M51.5 220.5l81-33 80-54 81-42L373 39" stroke="#0067E8" stroke-width="2"/><circle cx="51" cy="221" r="4" fill="#0072F5"/><circle cx="132" cy="188" r="4" fill="#0072F5"/><circle cx="212" cy="134" r="4" fill="#0072F5"/><circle cx="293" cy="92" r="4" fill="#0072F5"/><circle cx="373" cy="39" r="4" fill="#0072F5"/><path d="M105.511 314h-4.521v-7.854h4.521v1.364h-2.86v1.727h2.662v1.364h-2.662v2.024h2.86V314zm2.734-3.069l-1.936-2.937h1.859l1.166 1.914 1.177-1.914h1.859l-1.958 2.937 2.046 3.069h-1.859l-1.265-2.057-1.265 2.057h-1.859l2.035-3.069zm8.472-3.047c.674 0 1.221.264 1.639.792.418.521.627 1.291.627 2.31 0 1.019-.217 1.797-.649 2.332-.433.528-.987.792-1.661.792-.433 0-.778-.077-1.034-.231a2.526 2.526 0 01-.627-.539h-.088c.058.308.088.601.088.88v2.42h-1.639v-8.646h1.331l.231.781h.077a2.2 2.2 0 01.649-.627c.271-.176.623-.264 1.056-.264zm-.528 1.309c-.426 0-.726.132-.902.396-.169.264-.261.667-.275 1.21v.176c0 .579.084 1.027.253 1.342.176.308.491.462.946.462.374 0 .649-.154.825-.462.183-.315.275-.766.275-1.353 0-1.181-.374-1.771-1.122-1.771zm6.62-1.309c.828 0 1.485.238 1.969.715.484.469.726 1.14.726 2.013v.792h-3.872c.014.462.15.825.407 1.089.264.264.627.396 1.089.396.388 0 .74-.037 1.056-.11.315-.081.641-.202.979-.363v1.265a3.701 3.701 0 01-.935.319c-.323.073-.715.11-1.177.11-.602 0-1.133-.11-1.595-.33a2.523 2.523 0 01-1.089-1.023c-.264-.455-.396-1.027-.396-1.716 0-.704.117-1.287.352-1.749a2.45 2.45 0 011.001-1.056c.425-.235.92-.352 1.485-.352zm.011 1.166c-.316 0-.58.103-.792.308-.206.205-.327.524-.363.957h2.299c-.008-.367-.103-.667-.286-.902-.184-.242-.47-.363-.858-.363zm6.455 5.06c-.895 0-1.588-.246-2.079-.737-.484-.499-.726-1.28-.726-2.343 0-.733.124-1.331.374-1.793a2.359 2.359 0 011.034-1.023c.447-.22.96-.33 1.54-.33.41 0 .766.04 1.067.121.308.081.575.176.803.286l-.484 1.265a7.853 7.853 0 00-.726-.253 2.287 2.287 0 00-.66-.099c-.851 0-1.276.605-1.276 1.815 0 .601.11 1.045.33 1.331.227.286.542.429.946.429.344 0 .649-.044.913-.132.264-.095.52-.224.77-.385v1.397c-.25.161-.514.275-.792.341-.272.073-.616.11-1.034.11zm5.738-1.309c.183 0 .359-.018.528-.055.169-.037.337-.081.506-.132v1.221a3.457 3.457 0 01-.66.187 3.786 3.786 0 01-.847.088c-.359 0-.682-.059-.968-.176a1.403 1.403 0 01-.671-.605c-.161-.293-.242-.697-.242-1.21v-2.893h-.781v-.693l.902-.55.473-1.265h1.045v1.276h1.683v1.232h-1.683v2.893c0 .227.066.4.198.517a.78.78 0 00.517.165zm4.715-4.917c.828 0 1.485.238 1.969.715.484.469.726 1.14.726 2.013v.792h-3.872c.014.462.15.825.407 1.089.264.264.627.396 1.089.396.388 0 .74-.037 1.056-.11.315-.081.641-.202.979-.363v1.265a3.701 3.701 0 01-.935.319c-.323.073-.715.11-1.177.11-.602 0-1.133-.11-1.595-.33a2.523 2.523 0 01-1.089-1.023c-.264-.455-.396-1.027-.396-1.716 0-.704.117-1.287.352-1.749a2.45 2.45 0 011.001-1.056c.425-.235.92-.352 1.485-.352zm.011 1.166c-.316 0-.58.103-.792.308-.206.205-.327.524-.363.957h2.299c-.008-.367-.103-.667-.286-.902-.184-.242-.47-.363-.858-.363zm5.916 5.06a2.02 2.02 0 01-1.639-.781c-.418-.528-.627-1.302-.627-2.321 0-1.027.212-1.804.638-2.332.425-.528.982-.792 1.672-.792.432 0 .788.084 1.067.253.278.169.498.378.66.627h.055a9.953 9.953 0 01-.077-.506 5.285 5.285 0 01-.044-.693v-1.925h1.639V314h-1.254l-.319-.781h-.066a2.172 2.172 0 01-.649.638c-.272.169-.624.253-1.056.253zm.572-1.309c.454 0 .773-.132.957-.396.183-.271.278-.675.286-1.21v-.176c0-.587-.092-1.034-.275-1.342-.176-.308-.506-.462-.99-.462-.36 0-.642.158-.847.473-.206.308-.308.755-.308 1.342 0 .587.102 1.03.308 1.331.205.293.495.44.869.44zm9.807-4.928c.807 0 1.423.176 1.848.528.433.345.649.876.649 1.595V314h-1.144l-.319-.814h-.044c-.257.323-.528.557-.814.704-.286.147-.678.22-1.177.22-.535 0-.979-.154-1.331-.462-.352-.315-.528-.796-.528-1.441 0-.638.224-1.107.671-1.408.447-.308 1.118-.477 2.013-.506l1.045-.033v-.264c0-.315-.084-.546-.253-.693-.161-.147-.389-.22-.682-.22-.293 0-.579.044-.858.132a6.415 6.415 0 00-.836.308l-.539-1.111a4.69 4.69 0 011.067-.396 5.265 5.265 0 011.232-.143zm.231 3.366c-.528.015-.895.11-1.1.286a.87.87 0 00-.308.693c0 .249.073.429.22.539.147.103.337.154.572.154.352 0 .649-.103.891-.308.242-.213.363-.51.363-.891v-.495l-.638.022zm7.354-3.355c.645 0 1.162.176 1.551.528.388.345.583.902.583 1.672V314h-1.639v-3.509c0-.433-.077-.755-.231-.968-.154-.22-.4-.33-.737-.33-.499 0-.84.172-1.023.517-.184.337-.275.825-.275 1.463V314h-1.639v-6.006h1.254l.22.77h.088c.19-.308.451-.532.781-.671a2.772 2.772 0 011.067-.209zm7.229 0c.645 0 1.162.176 1.551.528.389.345.583.902.583 1.672V314h-1.639v-3.509c0-.433-.077-.755-.231-.968-.154-.22-.4-.33-.737-.33-.499 0-.84.172-1.023.517-.183.337-.275.825-.275 1.463V314h-1.639v-6.006h1.254l.22.77H169c.191-.308.451-.532.781-.671a2.772 2.772 0 011.067-.209zm9.331.11V314h-1.254l-.22-.77h-.088a1.65 1.65 0 01-.792.671c-.33.139-.682.209-1.056.209-.646 0-1.163-.172-1.551-.517-.389-.352-.583-.913-.583-1.683v-3.916h1.639v3.509c0 .425.077.748.231.968.154.22.399.33.737.33.498 0 .839-.169 1.023-.506.183-.345.275-.836.275-1.474v-2.827h1.639zm4.182-.121c.807 0 1.423.176 1.848.528.433.345.649.876.649 1.595V314h-1.144l-.319-.814h-.044c-.257.323-.528.557-.814.704-.286.147-.678.22-1.177.22-.535 0-.979-.154-1.331-.462-.352-.315-.528-.796-.528-1.441 0-.638.224-1.107.671-1.408.447-.308 1.118-.477 2.013-.506l1.045-.033v-.264c0-.315-.084-.546-.253-.693-.161-.147-.389-.22-.682-.22-.293 0-.579.044-.858.132a6.415 6.415 0 00-.836.308l-.539-1.111a4.69 4.69 0 011.067-.396 5.265 5.265 0 011.232-.143zm.231 3.366c-.528.015-.895.11-1.1.286a.87.87 0 00-.308.693c0 .249.073.429.22.539.147.103.337.154.572.154.352 0 .649-.103.891-.308.242-.213.363-.51.363-.891v-.495l-.638.022zm5.583 2.761h-1.639v-8.36h1.639V314zm6.517-6.116c.74 0 1.32.293 1.738.88h.044l.132-.77h1.386v6.017c0 .858-.253 1.511-.759 1.958-.506.447-1.254.671-2.244.671-.426 0-.822-.026-1.188-.077a4.831 4.831 0 01-1.056-.275v-1.309c.74.308 1.521.462 2.343.462.843 0 1.265-.455 1.265-1.364v-.121c0-.125.003-.253.011-.385.014-.132.025-.249.033-.352h-.044c-.206.315-.451.543-.737.682a2.187 2.187 0 01-.968.209c-.712 0-1.269-.271-1.672-.814-.396-.55-.594-1.313-.594-2.288 0-.983.205-1.749.616-2.299.41-.55.975-.825 1.694-.825zm.517 1.331c-.77 0-1.155.605-1.155 1.815 0 1.195.392 1.793 1.177 1.793.418 0 .726-.117.924-.352.205-.242.308-.66.308-1.254v-.198c0-.645-.099-1.107-.297-1.386-.198-.279-.517-.418-.957-.418zm7.852-1.331c.08 0 .176.004.286.011.11.007.198.018.264.033l-.121 1.54a1.184 1.184 0 00-.231-.033 1.654 1.654 0 00-.253-.022c-.279 0-.547.051-.803.154a1.334 1.334 0 00-.627.473c-.154.22-.231.521-.231.902V314h-1.639v-6.006h1.243l.242 1.012h.077c.176-.308.418-.572.726-.792.308-.22.663-.33 1.067-.33zm6.881 3.102c0 .997-.264 1.767-.792 2.31-.521.543-1.232.814-2.134.814a3.053 3.053 0 01-1.496-.363 2.58 2.58 0 01-1.023-1.056c-.249-.469-.374-1.038-.374-1.705 0-.997.26-1.764.781-2.299.521-.535 1.236-.803 2.145-.803.565 0 1.063.121 1.496.363a2.58 2.58 0 011.023 1.056c.249.455.374 1.016.374 1.683zm-4.147 0c0 .594.095 1.045.286 1.353.198.301.517.451.957.451.433 0 .744-.15.935-.451.198-.308.297-.759.297-1.353s-.099-1.038-.297-1.331c-.191-.301-.506-.451-.946-.451-.433 0-.748.15-.946.451-.191.293-.286.737-.286 1.331zm9.764.913l-.132-.55a52.37 52.37 0 00-.363-1.573 14.333 14.333 0 01-.121-.528h-.044c-.022.11-.063.286-.121.528-.052.235-.11.495-.176.781l-.187.792c-.059.249-.103.44-.132.572l-.484 2.079h-1.76l-1.705-6.006h1.628l.693 2.662c.051.183.095.403.132.66.044.257.084.506.121.748.036.235.062.422.077.561h.044a14.26 14.26 0 01.121-.946c.036-.183.066-.348.088-.495.029-.154.051-.257.066-.308l.737-2.882h1.804l.704 2.882c.029.103.062.268.099.495.044.227.08.458.11.693.036.235.055.422.055.561h.044a44.36 44.36 0 01.198-1.298c.051-.264.102-.488.154-.671l.715-2.662h1.606L219.803 314h-1.782l-.462-2.101zm7.474.902c.183 0 .359-.018.528-.055.168-.037.337-.081.506-.132v1.221a3.457 3.457 0 01-.66.187 3.786 3.786 0 01-.847.088c-.36 0-.682-.059-.968-.176a1.398 1.398 0 01-.671-.605c-.162-.293-.242-.697-.242-1.21v-2.893h-.781v-.693l.902-.55.473-1.265h1.045v1.276h1.683v1.232h-1.683v2.893c0 .227.066.4.198.517a.78.78 0 00.517.165zm3.878-5.456c0 .293-.011.576-.033.847a8.496 8.496 0 01-.044.572h.088a1.7 1.7 0 01.737-.671 2.357 2.357 0 011.001-.209c.653 0 1.173.176 1.562.528.396.345.594.902.594 1.672V314h-1.639v-3.509c0-.865-.323-1.298-.968-1.298-.491 0-.832.172-1.023.517-.183.337-.275.825-.275 1.463V314h-1.639v-8.36h1.639v1.705zM288.189 306.036c.616 0 1.082.216 1.397.649.323.425.484 1.027.484 1.804 0 .777-.15 1.386-.451 1.826-.301.433-.777.649-1.43.649-.609 0-1.071-.216-1.386-.649-.308-.44-.462-1.049-.462-1.826 0-.777.147-1.379.44-1.804.293-.433.763-.649 1.408-.649zm5.577.11L289.41 314h-1.287l4.356-7.854h1.287zm-5.566 1.012c-.337 0-.506.447-.506 1.342 0 .902.169 1.353.506 1.353.345 0 .517-.451.517-1.353 0-.895-.172-1.342-.517-1.342zm5.489 2.013c.616 0 1.082.216 1.397.649.323.425.484 1.027.484 1.804 0 .777-.15 1.386-.451 1.826-.301.433-.777.649-1.43.649-.609 0-1.071-.216-1.386-.649-.308-.44-.462-1.049-.462-1.826 0-.777.147-1.379.44-1.804.293-.433.763-.649 1.408-.649zm.011 1.122c-.337 0-.506.447-.506 1.342 0 .902.169 1.353.506 1.353.345 0 .517-.451.517-1.353 0-.895-.172-1.342-.517-1.342zm8.372 3.817c-.894 0-1.587-.246-2.079-.737-.484-.491-.726-1.272-.726-2.343 0-.733.125-1.331.374-1.793.25-.462.594-.803 1.034-1.023.448-.22.961-.33 1.54-.33.411 0 .767.04 1.067.121.308.081.576.176.803.286l-.484 1.265a7.653 7.653 0 00-.726-.253 2.287 2.287 0 00-.66-.099c-.85 0-1.276.605-1.276 1.815 0 .601.11 1.045.33 1.331.228.286.543.429.946.429.345 0 .649-.044.913-.132a3.77 3.77 0 00.77-.385v1.397a2.519 2.519 0 01-.792.341c-.271.073-.616.11-1.034.11zm4.848-8.47v1.705c0 .301-.011.587-.033.858a8.401 8.401 0 01-.044.561h.088a1.7 1.7 0 01.737-.671 2.357 2.357 0 011.001-.209c.645 0 1.166.176 1.562.528.396.345.594.902.594 1.672V314h-1.639v-3.509c0-.865-.323-1.298-.968-1.298-.491 0-.832.172-1.023.517-.183.337-.275.825-.275 1.463V314h-1.639v-8.36h1.639zm8.054 2.233c.807 0 1.423.176 1.848.528.433.345.649.876.649 1.595V314h-1.144l-.319-.814h-.044c-.256.323-.528.557-.814.704-.286.147-.678.22-1.177.22-.535 0-.979-.154-1.331-.462-.352-.308-.528-.788-.528-1.441 0-.638.224-1.107.671-1.408.448-.301 1.119-.469 2.013-.506l1.045-.033v-.264c0-.315-.084-.546-.253-.693-.161-.147-.388-.22-.682-.22-.293 0-.579.044-.858.132a6.47 6.47 0 00-.836.308l-.539-1.111c.316-.161.671-.29 1.067-.385a4.876 4.876 0 011.232-.154zm.869 3.344l-.638.022c-.528.015-.894.11-1.1.286a.87.87 0 00-.308.693c0 .249.074.429.22.539.147.103.338.154.572.154.352 0 .649-.103.891-.308.242-.213.363-.51.363-.891v-.495zm6.716-3.333c.645 0 1.162.176 1.551.528.389.345.583.902.583 1.672V314h-1.639v-3.509c0-.433-.077-.755-.231-.968-.154-.22-.4-.33-.737-.33-.499 0-.84.172-1.023.517-.183.337-.275.825-.275 1.463V314h-1.639v-6.006h1.254l.22.77h.088c.191-.308.451-.532.781-.671a2.772 2.772 0 011.067-.209zm5.767 0c.74 0 1.32.293 1.738.88h.044l.132-.77h1.386v6.017c0 .858-.253 1.511-.759 1.958-.506.447-1.254.671-2.244.671-.426 0-.822-.026-1.188-.077a4.831 4.831 0 01-1.056-.275v-1.309a5.986 5.986 0 002.343.462c.843 0 1.265-.455 1.265-1.364v-.121a6.172 6.172 0 01.044-.737h-.044c-.206.315-.451.543-.737.682a2.187 2.187 0 01-.968.209c-.712 0-1.269-.271-1.672-.814-.396-.55-.594-1.313-.594-2.288 0-.983.205-1.749.616-2.299.41-.55.975-.825 1.694-.825zm.517 1.331c-.77 0-1.155.605-1.155 1.815 0 1.195.392 1.793 1.177 1.793.418 0 .726-.117.924-.352.205-.242.308-.66.308-1.254v-.198c0-.645-.099-1.107-.297-1.386-.198-.279-.517-.418-.957-.418zm6.971-1.331c.829 0 1.485.238 1.969.715.484.469.726 1.14.726 2.013v.792h-3.872c.015.462.151.825.407 1.089.264.264.627.396 1.089.396.382 0 .73-.037 1.045-.11.323-.081.653-.202.99-.363v1.265c-.3.147-.612.253-.935.319-.322.073-.715.11-1.177.11-.601 0-1.133-.11-1.595-.33a2.545 2.545 0 01-1.089-1.012c-.264-.455-.396-1.03-.396-1.727 0-.697.118-1.28.352-1.749a2.456 2.456 0 011.001-1.056c.426-.235.921-.352 1.485-.352zm.011 1.166c-.322 0-.586.103-.792.308-.205.205-.326.524-.363.957h2.299c-.007-.359-.106-.66-.297-.902-.183-.242-.465-.363-.847-.363z" fill="#293243"/><path d="M43.72 283h-5.192v-.803l2.057-2.079c.396-.396.73-.748 1.001-1.056a3.96 3.96 0 00.616-.902c.14-.301.209-.627.209-.979 0-.433-.128-.759-.385-.979-.257-.227-.59-.341-1.001-.341-.381 0-.719.066-1.012.198-.286.132-.58.315-.88.55l-.517-.649a4.47 4.47 0 011.056-.649 3.238 3.238 0 011.353-.275c.733 0 1.313.187 1.738.561.425.367.638.876.638 1.529 0 .411-.084.796-.253 1.155a4.79 4.79 0 01-.704 1.067c-.3.345-.653.715-1.056 1.111l-1.639 1.617v.044h3.971v.88zm6.328-3.938c0 .843-.088 1.569-.264 2.178-.176.601-.455 1.063-.836 1.386-.381.323-.887.484-1.518.484-.887 0-1.544-.356-1.97-1.067-.417-.719-.626-1.712-.626-2.981 0-.851.084-1.577.253-2.178.176-.601.455-1.06.836-1.375.381-.323.884-.484 1.507-.484.88 0 1.536.356 1.969 1.067.433.704.649 1.694.649 2.97zm-4.246 0c0 1.078.12 1.885.363 2.42.25.535.67.803 1.265.803.587 0 1.005-.264 1.254-.792.257-.535.385-1.346.385-2.431 0-1.071-.128-1.874-.385-2.409-.25-.535-.667-.803-1.254-.803-.594 0-1.016.268-1.265.803-.242.535-.363 1.338-.363 2.409zM56.31 283h-5.192v-.803l2.057-2.079c.396-.396.73-.748 1-1.056.272-.308.478-.609.617-.902a2.3 2.3 0 00.209-.979c0-.433-.128-.759-.385-.979-.257-.227-.59-.341-1.001-.341-.382 0-.719.066-1.012.198-.286.132-.58.315-.88.55l-.517-.649a4.47 4.47 0 011.056-.649 3.239 3.239 0 011.353-.275c.733 0 1.313.187 1.738.561.425.367.638.876.638 1.529 0 .411-.084.796-.253 1.155a4.787 4.787 0 01-.704 1.067c-.3.345-.653.715-1.056 1.111l-1.64 1.617v.044h3.972v.88zm4.48 0h-.946v-5.489c0-.315.003-.568.01-.759.008-.191.02-.389.034-.594a5.584 5.584 0 01-.32.297l-.362.308-.836.682-.506-.649 2.123-1.65h.803V283zM124.72 283h-5.192v-.803l2.057-2.079c.396-.396.73-.748 1.001-1.056a3.96 3.96 0 00.616-.902c.139-.301.209-.627.209-.979 0-.433-.128-.759-.385-.979-.257-.227-.59-.341-1.001-.341-.381 0-.719.066-1.012.198a4.526 4.526 0 00-.88.55l-.517-.649a4.47 4.47 0 011.056-.649 3.236 3.236 0 011.353-.275c.733 0 1.313.187 1.738.561.425.367.638.876.638 1.529 0 .411-.084.796-.253 1.155a4.79 4.79 0 01-.704 1.067c-.301.345-.653.715-1.056 1.111l-1.639 1.617v.044h3.971v.88zm6.328-3.938c0 .843-.088 1.569-.264 2.178-.176.601-.455 1.063-.836 1.386-.381.323-.887.484-1.518.484-.887 0-1.544-.356-1.969-1.067-.418-.719-.627-1.712-.627-2.981 0-.851.084-1.577.253-2.178.176-.601.455-1.06.836-1.375.381-.323.884-.484 1.507-.484.88 0 1.536.356 1.969 1.067.433.704.649 1.694.649 2.97zm-4.246 0c0 1.078.121 1.885.363 2.42.249.535.671.803 1.265.803.587 0 1.005-.264 1.254-.792.257-.535.385-1.346.385-2.431 0-1.071-.128-1.874-.385-2.409-.249-.535-.667-.803-1.254-.803-.594 0-1.016.268-1.265.803-.242.535-.363 1.338-.363 2.409zM137.31 283h-5.192v-.803l2.057-2.079c.396-.396.73-.748 1.001-1.056a3.96 3.96 0 00.616-.902c.139-.301.209-.627.209-.979 0-.433-.128-.759-.385-.979-.257-.227-.59-.341-1.001-.341-.381 0-.719.066-1.012.198a4.526 4.526 0 00-.88.55l-.517-.649a4.47 4.47 0 011.056-.649 3.236 3.236 0 011.353-.275c.733 0 1.313.187 1.738.561.425.367.638.876.638 1.529 0 .411-.084.796-.253 1.155a4.79 4.79 0 01-.704 1.067c-.301.345-.653.715-1.056 1.111l-1.639 1.617v.044h3.971v.88zm6.295 0h-5.192v-.803l2.057-2.079c.396-.396.729-.748 1.001-1.056.271-.308.476-.609.616-.902.139-.301.209-.627.209-.979 0-.433-.129-.759-.385-.979-.257-.227-.591-.341-1.001-.341a2.44 2.44 0 00-1.012.198c-.286.132-.58.315-.88.55l-.517-.649a4.47 4.47 0 011.056-.649 3.236 3.236 0 011.353-.275c.733 0 1.312.187 1.738.561.425.367.638.876.638 1.529 0 .411-.085.796-.253 1.155a4.826 4.826 0 01-.704 1.067c-.301.345-.653.715-1.056 1.111l-1.639 1.617v.044h3.971v.88zM204.72 283h-5.192v-.803l2.057-2.079c.396-.396.73-.748 1.001-1.056a3.96 3.96 0 00.616-.902c.139-.301.209-.627.209-.979 0-.433-.128-.759-.385-.979-.257-.227-.59-.341-1.001-.341-.381 0-.719.066-1.012.198a4.526 4.526 0 00-.88.55l-.517-.649a4.47 4.47 0 011.056-.649 3.236 3.236 0 011.353-.275c.733 0 1.313.187 1.738.561.425.367.638.876.638 1.529 0 .411-.084.796-.253 1.155a4.79 4.79 0 01-.704 1.067c-.301.345-.653.715-1.056 1.111l-1.639 1.617v.044h3.971v.88zm6.328-3.938c0 .843-.088 1.569-.264 2.178-.176.601-.455 1.063-.836 1.386-.381.323-.887.484-1.518.484-.887 0-1.544-.356-1.969-1.067-.418-.719-.627-1.712-.627-2.981 0-.851.084-1.577.253-2.178.176-.601.455-1.06.836-1.375.381-.323.884-.484 1.507-.484.88 0 1.536.356 1.969 1.067.433.704.649 1.694.649 2.97zm-4.246 0c0 1.078.121 1.885.363 2.42.249.535.671.803 1.265.803.587 0 1.005-.264 1.254-.792.257-.535.385-1.346.385-2.431 0-1.071-.128-1.874-.385-2.409-.249-.535-.667-.803-1.254-.803-.594 0-1.016.268-1.265.803-.242.535-.363 1.338-.363 2.409zM217.31 283h-5.192v-.803l2.057-2.079c.396-.396.73-.748 1.001-1.056a3.96 3.96 0 00.616-.902c.139-.301.209-.627.209-.979 0-.433-.128-.759-.385-.979-.257-.227-.59-.341-1.001-.341-.381 0-.719.066-1.012.198a4.526 4.526 0 00-.88.55l-.517-.649a4.47 4.47 0 011.056-.649 3.236 3.236 0 011.353-.275c.733 0 1.313.187 1.738.561.425.367.638.876.638 1.529 0 .411-.084.796-.253 1.155a4.79 4.79 0 01-.704 1.067c-.301.345-.653.715-1.056 1.111l-1.639 1.617v.044h3.971v.88zm5.998-6.017c0 .528-.147.95-.44 1.265-.294.308-.69.513-1.188.616v.044c.63.073 1.1.271 1.408.594.308.323.462.744.462 1.265 0 .455-.107.862-.319 1.221-.213.352-.543.627-.99.825-.44.198-1.009.297-1.705.297a6.21 6.21 0 01-1.144-.099 3.574 3.574 0 01-1.012-.33v-.902c.33.161.685.29 1.067.385.381.088.748.132 1.1.132.704 0 1.21-.136 1.518-.407.315-.279.473-.66.473-1.144 0-.491-.195-.843-.583-1.056-.382-.22-.921-.33-1.617-.33h-.759v-.825h.77c.645 0 1.133-.136 1.463-.407.337-.271.506-.631.506-1.078 0-.381-.129-.675-.385-.88-.257-.213-.605-.319-1.045-.319-.426 0-.789.062-1.089.187a5.477 5.477 0 00-.891.473l-.484-.66c.278-.22.623-.411 1.034-.572a3.924 3.924 0 011.419-.242c.821 0 1.43.183 1.826.55.403.367.605.832.605 1.397zM285.72 283h-5.192v-.803l2.057-2.079c.396-.396.73-.748 1.001-1.056a3.96 3.96 0 00.616-.902c.139-.301.209-.627.209-.979 0-.433-.128-.759-.385-.979-.257-.227-.59-.341-1.001-.341-.381 0-.719.066-1.012.198a4.526 4.526 0 00-.88.55l-.517-.649a4.47 4.47 0 011.056-.649 3.236 3.236 0 011.353-.275c.733 0 1.313.187 1.738.561.425.367.638.876.638 1.529 0 .411-.084.796-.253 1.155a4.79 4.79 0 01-.704 1.067c-.301.345-.653.715-1.056 1.111l-1.639 1.617v.044h3.971v.88zm6.328-3.938c0 .843-.088 1.569-.264 2.178-.176.601-.455 1.063-.836 1.386-.381.323-.887.484-1.518.484-.887 0-1.544-.356-1.969-1.067-.418-.719-.627-1.712-.627-2.981 0-.851.084-1.577.253-2.178.176-.601.455-1.06.836-1.375.381-.323.884-.484 1.507-.484.88 0 1.536.356 1.969 1.067.433.704.649 1.694.649 2.97zm-4.246 0c0 1.078.121 1.885.363 2.42.249.535.671.803 1.265.803.587 0 1.005-.264 1.254-.792.257-.535.385-1.346.385-2.431 0-1.071-.128-1.874-.385-2.409-.249-.535-.667-.803-1.254-.803-.594 0-1.016.268-1.265.803-.242.535-.363 1.338-.363 2.409zM298.31 283h-5.192v-.803l2.057-2.079c.396-.396.73-.748 1.001-1.056a3.96 3.96 0 00.616-.902c.139-.301.209-.627.209-.979 0-.433-.128-.759-.385-.979-.257-.227-.59-.341-1.001-.341-.381 0-.719.066-1.012.198a4.526 4.526 0 00-.88.55l-.517-.649a4.47 4.47 0 011.056-.649 3.236 3.236 0 011.353-.275c.733 0 1.313.187 1.738.561.425.367.638.876.638 1.529 0 .411-.084.796-.253 1.155a4.79 4.79 0 01-.704 1.067c-.301.345-.653.715-1.056 1.111l-1.639 1.617v.044h3.971v.88zm6.647-1.782h-1.144V283h-.935v-1.782h-3.762v-.825l3.696-5.291h1.001v5.247h1.144v.869zm-2.079-3.344c0-.381.007-.704.022-.968.014-.271.025-.528.033-.77h-.044c-.059.139-.132.29-.22.451a3.786 3.786 0 01-.253.407l-2.354 3.355h2.816v-2.475zM368.72 283h-5.192v-.803l2.057-2.079c.396-.396.73-.748 1.001-1.056a3.96 3.96 0 00.616-.902c.139-.301.209-.627.209-.979 0-.433-.128-.759-.385-.979-.257-.227-.59-.341-1.001-.341-.381 0-.719.066-1.012.198a4.526 4.526 0 00-.88.55l-.517-.649a4.47 4.47 0 011.056-.649 3.236 3.236 0 011.353-.275c.733 0 1.313.187 1.738.561.425.367.638.876.638 1.529 0 .411-.084.796-.253 1.155a4.79 4.79 0 01-.704 1.067c-.301.345-.653.715-1.056 1.111l-1.639 1.617v.044h3.971v.88zm6.328-3.938c0 .843-.088 1.569-.264 2.178-.176.601-.455 1.063-.836 1.386-.381.323-.887.484-1.518.484-.887 0-1.544-.356-1.969-1.067-.418-.719-.627-1.712-.627-2.981 0-.851.084-1.577.253-2.178.176-.601.455-1.06.836-1.375.381-.323.884-.484 1.507-.484.88 0 1.536.356 1.969 1.067.433.704.649 1.694.649 2.97zm-4.246 0c0 1.078.121 1.885.363 2.42.249.535.671.803 1.265.803.587 0 1.005-.264 1.254-.792.257-.535.385-1.346.385-2.431 0-1.071-.128-1.874-.385-2.409-.249-.535-.667-.803-1.254-.803-.594 0-1.016.268-1.265.803-.242.535-.363 1.338-.363 2.409zM381.31 283h-5.192v-.803l2.057-2.079c.396-.396.73-.748 1.001-1.056a3.96 3.96 0 00.616-.902c.139-.301.209-.627.209-.979 0-.433-.128-.759-.385-.979-.257-.227-.59-.341-1.001-.341-.381 0-.719.066-1.012.198a4.526 4.526 0 00-.88.55l-.517-.649a4.47 4.47 0 011.056-.649 3.236 3.236 0 011.353-.275c.733 0 1.313.187 1.738.561.425.367.638.876.638 1.529 0 .411-.084.796-.253 1.155a4.79 4.79 0 01-.704 1.067c-.301.345-.653.715-1.056 1.111l-1.639 1.617v.044h3.971v.88zm3.6-4.818c.806 0 1.448.202 1.925.605.476.403.715.972.715 1.705 0 .814-.261 1.456-.781 1.925-.514.462-1.232.693-2.156.693-.404 0-.785-.037-1.144-.11a3.015 3.015 0 01-.891-.319v-.913c.264.161.583.29.957.385.381.088.744.132 1.089.132.579 0 1.045-.136 1.397-.407.359-.279.539-.708.539-1.287 0-.513-.158-.906-.473-1.177-.316-.279-.814-.418-1.496-.418-.206 0-.44.018-.704.055a7.876 7.876 0 00-.638.11l-.484-.308.297-3.707H387v.88h-3.113l-.187 2.277c.124-.022.293-.048.506-.077.212-.029.447-.044.704-.044z" fill="#58595B"/><path d="M364.885 23.073c0 .843-.092 1.566-.275 2.167-.176.601-.466 1.063-.869 1.386-.396.323-.931.484-1.606.484-.946 0-1.639-.356-2.079-1.067-.44-.719-.66-1.709-.66-2.97 0-.85.088-1.577.264-2.178.176-.601.466-1.063.869-1.386.403-.323.939-.484 1.606-.484.939 0 1.632.356 2.079 1.067.447.711.671 1.705.671 2.981zm-3.839 0c0 .895.077 1.57.231 2.024.154.447.44.671.858.671.411 0 .697-.224.858-.671.161-.447.242-1.122.242-2.024 0-.895-.081-1.57-.242-2.024-.161-.455-.447-.682-.858-.682-.418 0-.704.227-.858.682-.154.455-.231 1.13-.231 2.024zm4.876 3.157c0-.337.092-.572.275-.704.183-.14.407-.209.671-.209.257 0 .477.07.66.209.183.132.275.367.275.704 0 .323-.092.557-.275.704-.183.14-.403.209-.66.209-.264 0-.488-.07-.671-.209-.183-.147-.275-.381-.275-.704zm7.053.77h-1.661v-4.543c0-.19.003-.44.011-.748.014-.308.025-.58.033-.814a3.784 3.784 0 01-.242.242c-.118.11-.228.209-.33.297l-.902.726-.803-1.001 2.53-2.013h1.364V27zm6.295 0h-1.661v-4.543c0-.19.003-.44.011-.748.014-.308.025-.58.033-.814a3.784 3.784 0 01-.242.242c-.118.11-.228.209-.33.297l-.902.726-.803-1.001 2.53-2.013h1.364V27zm3.94-7.964c.616 0 1.082.216 1.397.649.323.425.484 1.027.484 1.804 0 .777-.15 1.386-.451 1.826-.3.433-.777.649-1.43.649-.601 0-1.059-.216-1.375-.649-.315-.44-.473-1.049-.473-1.826 0-.777.147-1.379.44-1.804.294-.433.763-.649 1.408-.649zm5.577.11L384.431 27h-1.287l4.356-7.854h1.287zm-5.566 1.012c-.337 0-.506.447-.506 1.342 0 .902.169 1.353.506 1.353.345 0 .517-.451.517-1.353 0-.895-.172-1.342-.517-1.342zm5.489 2.013c.616 0 1.082.216 1.397.649.323.425.484 1.027.484 1.804 0 .777-.15 1.386-.451 1.826-.3.433-.777.649-1.43.649-.601 0-1.059-.216-1.375-.649-.315-.44-.473-1.049-.473-1.826 0-.777.147-1.379.44-1.804.294-.433.763-.649 1.408-.649zm.011 1.122c-.337 0-.506.447-.506 1.342 0 .902.169 1.353.506 1.353.345 0 .517-.451.517-1.353 0-.895-.172-1.342-.517-1.342z" fill="#fff"/><circle cx="82" cy="310" r="6" fill="#293243"/><circle cx="268" cy="310" r="6" fill="#0072F5"/></svg>