<svg width="919" height="483" fill="none" xmlns="http://www.w3.org/2000/svg"><g clip-path="url(#a)"><path d="M927-186H-264V34H927v-220Z" fill="#D6E9FF"/><path d="M928-186H-264v635H928v-635Z" fill="#D6E9FF"/><path d="m893 73-1 2-10 16h21l-9-16-1-2ZM824 73l-1 2-10 16h21l-9-16-1-2Z" fill="#34233C"/><path opacity=".3" d="M834 91h-5a6 6 0 0 1-11 0h-5l-80 184h69l56-129-24-55Z" fill="#fff"/><path d="M824 95a6 6 0 0 0 5-4h-11a6 6 0 0 0 6 4Z" fill="#fff"/><path d="M824 95a6 6 0 0 0 5-4h-11a6 6 0 0 0 6 4Z" fill="#FFC347"/><path opacity=".3" d="M903 91h-4a6 6 0 0 1-12 0h-5l-24 55 35 80 34-79v-1l-23-55h-1Z" fill="#fff"/><path d="M893 95a6 6 0 0 0 6-4h-12a6 6 0 0 0 6 4Z" fill="#fff"/><path d="M893 95a6 6 0 0 0 6-4h-12a6 6 0 0 0 6 4Z" fill="#FFC347"/><path opacity=".1" d="M802 275h69l22-49-35-80-56 129Z" fill="#fff"/><path opacity=".1" d="M802 275h69l22-49-35-80-56 129ZM915 275h12V147l-34 79 22 49Z" fill="#fff"/><path opacity=".1" d="M915 275h12V147l-34 79 22 49Z" fill="#fff"/><path opacity=".1" d="M871 275h44l-22-49-22 49Z" fill="#fff"/><path opacity=".1" d="M871 275h44l-22-49-22 49Z" fill="#fff"/><path opacity=".1" d="M871 275h44l-22-49-22 49Z" fill="#fff"/><path d="M823-42V77M893-43V76" stroke="#34233C" stroke-miterlimit="10"/><path d="m811 215-6 11 34 20 6-11-34-20Z" fill="#E2A091"/><path d="M815 221a2 2 0 0 0 0-3l-6-5a2 2 0 0 0-2 2l5 6a2 2 0 0 0 3 0Z" fill="#E2A091"/><path d="M809 219a1 1 0 0 0 0-2l-10-6a1 1 0 0 0-1 0 1 1 0 0 0 0 2l10 6a1 1 0 0 0 1 0Z" fill="#E2A091"/><path d="m845 226-7 19-27-25-5 6 32 19a5 5 0 0 0 7-2l6-12-6-5Z" fill="#D3897D"/><path d="M809 226a1 1 0 0 0-1-2l-5-1a1 1 0 0 0-2 1 1 1 0 0 0 1 1l5 2a1 1 0 0 0 2-1Z" fill="#E2A091"/><path d="M811 224a1 1 0 0 0-1-2l-8-2a1 1 0 0 0-1 1 1 1 0 0 0 0 1l8 3a1 1 0 0 0 2-1Z" fill="#E2A091"/><path d="M812 222a1 1 0 0 0 0-1 1 1 0 0 0-1-1l-9-3a1 1 0 0 0-1 1 1 1 0 0 0 0 2l9 2a1 1 0 0 0 2 0ZM920 250h-15v47h15v-47Z" fill="#E2A091"/><path d="M901 276h-54v-77c-2-3 0-6 4-6h43a4 4 0 0 1 4 3l3 80Z" fill="#FAC348"/><path d="m920 251-15 6-19-47 12-15 22 56ZM861 253h-18v-53a8 8 0 0 1 8-7h10v60Z" fill="#FAC348"/><path d="m879 198-11 1-7-12 11-5 7 16Z" fill="#E2A091"/><path d="M874 201h-9a8 8 0 0 1-9-9h27a8 8 0 0 1-9 9Z" fill="#E2A091"/><path d="m901 247-8-22v51h8v-29Z" fill="#E9A01E"/><path d="m872 182-11 11 13 8s8-1 9-9h-6l-5-10Z" fill="#D3897D"/><path d="m861 193 8-2 1 4-9-2Z" fill="#D3897D"/><path d="M861 192a10 10 0 0 1-10-10v-20h20v20a10 10 0 0 1-10 10Z" fill="#E2A091"/><path d="m870 158-9-3a11 11 0 0 0-13 4l-5 6h23l3-1v14h6l3-7a5 5 0 0 0-2-6l-2-2a6 6 0 0 0-4-5Z" fill="#34233C"/><path d="M873 183a3 3 0 0 0 3-4 3 3 0 1 0-3 4Z" fill="#E2A091"/><path d="M851 165h15l3-1v14l-3-10h-15" fill="#D3897D"/><path d="m853 177 1-1-1-1v2ZM858 177v-2 2Z" fill="#34233C"/><path d="m905 257 15-6v5l-15 1Z" fill="#D3897D"/><path d="M901 275h-55v20h55v-20Z" fill="#34233C"/><path d="M902 400V276h-24v124h24Z" fill="#34233C"/><path d="M902 400h-8V276h7l1 124Z" fill="#000"/><path d="M902 400h-16v13h16v-13Z" fill="#E2A091"/><path d="M862 419v-2a3 3 0 0 1 3-3l16-5 2-3a3 3 0 0 1 3-2v6h16v9h-40Z" fill="#FAC348"/><path d="m886 400 16 5v-5h-16Z" fill="#D3897D"/><path d="M909 297v9l-3 11 11-7 2-3 1-1v-9h-11Z" fill="#E2A091"/><path d="M905 297h4v7a2 2 0 0 1-2 2 2 2 0 0 1-2-2v-7ZM910 306a1 1 0 0 0-1 1l-3 9a1 1 0 0 0 0 1 1 1 0 0 0 1 1 1 1 0 0 0 1-1l3-9a1 1 0 0 0 0-1 1 1 0 0 0-1-1Z" fill="#E2A091"/><path d="M913 307a1 1 0 0 0-1 0l-1 1-3 8a1 1 0 0 0 3 1l3-9a1 1 0 0 0 0-1 1 1 0 0 0-1 0Z" fill="#E2A091"/><path d="M712 283a8 8 0 0 0 8 8h207v-16H720a8 8 0 0 0-8 8Z" fill="#fff"/><path d="M927 291H749v130h178V291Z" fill="#BCDEFF"/><path d="M927 291H749v7h178v-7Z" fill="#D2E9FF" style="mix-blend-mode:multiply"/><path d="M927 311H749v46h178v-46Z" fill="#0072F5"/><path d="M836 196h-85l-2 1v60l2 2h85l1-2v-60l-1-1Z" fill="#fff"/><path d="M808 209h-30l-1 1v5l1 1h30l2-1v-5l-2-1ZM757 253h-1v2h1v-2ZM759 253h-1v2h1v-2ZM761 253h-1v2h1v-2ZM762 253h-1v2h1v-2ZM764 253h-1v2h1v-2ZM766 253h-1v2h1v-2ZM767 253h-1v2h1v-2Z" fill="#D2E9FF"/><path d="M828 271h-70v4h70l1-1v-2l-1-1Z" fill="#BCDEFF"/><path d="M799 227h-11a2 2 0 0 0-3 3l-5 44a1 1 0 0 0 1 0h24a1 1 0 0 0 1 0l-5-45a2 2 0 0 0-2-2Z" fill="#BCDEFF"/><path d="M937 422H-272v119H937V422Z" fill="#ADD3FF"/><path d="M293 95c4 0 7-3 7-7s-3-7-7-7c-3 0-6 3-6 7s3 7 6 7Z" fill="#FFC347"/><path d="M283 92h21l-11-19-10 19Z" fill="#34233C"/><path d="M293-42V77" stroke="#34233C" stroke-miterlimit="10"/><path d="M224 81c-4 0-6 3-6 7s2 7 6 7 6-3 6-7-2-7-6-7Z" fill="#FFC347"/><path d="M213 92h21l-10-19-11 19Z" fill="#34233C"/><path d="M224-42V77" stroke="#34233C" stroke-miterlimit="10"/><path d="M362 95c4 0 7-3 7-7s-3-7-7-7c-3 0-6 3-6 7s3 7 6 7Z" fill="#FFC347"/><path d="M352 92h21l-11-19-10 19Z" fill="#34233C"/><path d="M362-42V77" stroke="#34233C" stroke-miterlimit="10"/><path d="M432 81c-4 0-7 3-7 7s3 7 7 7c3 0 6-3 6-7s-3-7-6-7Z" fill="#FAC348"/><path d="M421 92h21l-10-19-11 19Z" fill="#34233C"/><path d="M432-42V77" stroke="#34233C" stroke-miterlimit="10"/><path opacity=".3" d="m213 92-80 184h182L235 92h-22Z" fill="url(#b)"/><path opacity=".3" d="m283 92-81 184h182L304 92h-21Z" fill="url(#c)"/><path opacity=".3" d="m352 92-80 184h181L373 92h-21Z" fill="url(#d)"/><path opacity=".3" d="m421 92-80 184h182L442 92h-21Z" fill="url(#e)"/><path style="mix-blend-mode:multiply" opacity=".2" d="m-230 245 16 16 333-1-23-23-326 8Z" fill="url(#f)"/><path style="mix-blend-mode:multiply" opacity=".2" d="m-230 324 16 16 333-1-23-23-326 8Z" fill="url(#g)"/><path d="M96 393h-326v28H96v-28ZM96 237h-326v8H96v-8Z" fill="#fff"/><path d="M5 194h-20l-1 1v41l1 1H5l1-1v-41l-1-1Z" fill="#ADD3FF"/><path d="M-5 214a9 9 0 1 0 0 18 9 9 0 0 0 0-18Z" fill="#D2E9FF"/><path d="M-5 216a7 7 0 1 0 0 14 7 7 0 0 0 0-14ZM-5 200a6 6 0 1 0 0 11 6 6 0 0 0 0-11Z" fill="#fff"/><path d="M32 194H12l-1 1v41l1 1h20l2-1v-41l-2-1Z" fill="#ADD3FF"/><path d="M22 214a9 9 0 1 0 0 18 9 9 0 0 0 0-18Z" fill="#D2E9FF"/><path d="M22 216a7 7 0 1 0 0 14 7 7 0 0 0 0-14Z" fill="#fff"/><path d="M22 220a3 3 0 1 0 0 6 3 3 0 0 0 0-6Z" fill="#BCDEFF"/><path d="M22 200a6 6 0 1 0 0 11 6 6 0 0 0 0-11Z" fill="#fff"/><path d="M22 202a3 3 0 1 0 3 3 3 3 0 0 0-3-3ZM58 228h-3v8h3v-8Z" fill="#ADD3FF"/><path d="m51 235-2 2h15l-2-2H51ZM62 193H51l-1 1v35l1 1h11l1-1v-35l-1-1Z" fill="#ADD3FF"/><path d="M62 192H51a2 2 0 0 0-2 2v35a2 2 0 0 0 2 2h11a2 2 0 0 0 2-2v-35a2 2 0 0 0-2-2Zm0 37H51v-35h11v35Z" fill="#fff"/><path d="M56 215a5 5 0 1 0 0 9 5 5 0 0 0 0-9ZM56 199a5 5 0 1 0 0 10 5 5 0 0 0 0-10Z" fill="#D2E9FF"/><path d="M77 228h-3v8h3v-8Z" fill="#ADD3FF"/><path d="m70 235-2 2h15l-2-2H70ZM81 193H70l-1 1v35l1 1h11l1-1v-35l-1-1Z" fill="#ADD3FF"/><path d="M81 192H70a2 2 0 0 0-2 2v35a2 2 0 0 0 2 2h11a2 2 0 0 0 2-2v-35a2 2 0 0 0-2-2Zm0 37H70v-35h11v35Z" fill="#fff"/><path d="M75 215a5 5 0 1 0 0 9 5 5 0 0 0 0-9ZM75 199a5 5 0 1 0 0 10 5 5 0 0 0 0-10Z" fill="#D2E9FF"/><path d="M96 315h-326v8H96v-8Z" fill="#fff"/><path d="M83 289H2v24h81v-24Z" fill="#C2DEFF"/><path d="M83 302H2v11h81v-11Z" fill="#ADD3FF"/><path d="M79 313H6v2h73v-2Z" fill="#C2DEFF"/><path d="M12 292H7a1 1 0 0 0-1 2l1 1h5a1 1 0 0 0 1-3h-1Z" fill="#fff"/><path d="M73 295a6 6 0 1 0 0 11 6 6 0 0 0 0-11ZM51 292H30v10h21v-10Z" fill="#D6E9FF"/><path d="M51 293H31v4h20v-4Z" fill="#F6F6F6"/><path d="M7 308a1 1 0 1 0 0 2 1 1 0 0 0 0-2Z" fill="#fff"/><path d="M9 308a1 1 0 1 0 0 2 1 1 0 0 0 0-2ZM12 308a1 1 0 1 0 0 2 1 1 0 0 0 0-2ZM15 308a1 1 0 1 0 0 2 1 1 0 0 0 0-2ZM18 308a1 1 0 1 0 0 2 1 1 0 0 0 0-2ZM21 308a1 1 0 1 0 0 2 1 1 0 0 0 0-2Z" fill="#fff"/><path d="M23 308a1 1 0 1 0 0 2 1 1 0 0 0 0-2ZM26 308a1 1 0 1 0 0 2 1 1 0 0 0 0-2ZM29 308a1 1 0 1 0 0 2 1 1 0 0 0 0-2ZM53 308a1 1 0 1 0 0 2 1 1 0 0 0 0-2ZM56 308a1 1 0 1 0 0 2 1 1 0 0 0 0-2ZM63 308a1 1 0 1 0 0 2 1 1 0 0 0 0-2ZM66 308a1 1 0 1 0 0 2 1 1 0 0 0 0-2Z" fill="#fff"/><path d="M73 295a5 5 0 1 0 0 10 5 5 0 0 0 0-10Z" fill="#F6F6F6"/><path d="M77 349H1v44h76v-44Z" fill="#ADD3FF"/><path d="M77 349H1v14h76v-14Z" fill="#fff"/><path d="M61 373h-76v20h76v-20Z" fill="#0072F5"/><path d="M-60 167h160a3 3 0 0 0 2-3V83a3 3 0 0 0-2-2H-60a3 3 0 0 0-3 2v81a3 3 0 0 0 3 3Zm5-81H94a3 3 0 0 1 3 3v69a3 3 0 0 1-3 3H-55a3 3 0 0 1-2-3V89a3 3 0 0 1 2-3Z" fill="#34233C"/><path d="M97 81H-62v81H97V81Z" fill="#fff"/><path d="m-4 84 98 61v-24L34 84H-4ZM-41 84l116 75h10L-33 84h-8Z" fill="#ECF4FB"/><path d="M-63 165H97a3 3 0 0 0 3-3V81a3 3 0 0 0-3-3H-63a3 3 0 0 0-2 3v81a3 3 0 0 0 2 3Zm6-81H92a3 3 0 0 1 2 3v69a3 3 0 0 1-2 3H-57a3 3 0 0 1-3-3V87a3 3 0 0 1 3-3Z" fill="#0072F5"/><path d="M536 283H151a8 8 0 0 0 0 16h385a8 8 0 0 0 0-16Z" fill="#fff"/><path d="M288 216h84a3 3 0 0 1 2 3v57h-89v-57a3 3 0 0 1 3-3Z" fill="#0070FE"/><path d="M368 221h-78v52l1 1h77l1-1v-52h-1Z" fill="#fff"/><path d="m312 221 57 43v-17l-35-26h-22ZM290 221l68 53h5l-68-53h-5Z" fill="#ECF4FB"/><path d="M274 276h111v1a6 6 0 0 1-6 6h-98a6 6 0 0 1-7-6v-1Z" fill="#0055BF"/><path d="M168 216h85a3 3 0 0 1 2 3v57h-89v-57a3 3 0 0 1 2-3Z" fill="#0070FE"/><path d="M249 221h-78v52l1 1h77l1-1v-52h-1Z" fill="#fff"/><path d="m193 221 57 43v-17l-35-26h-22ZM171 221l68 53h5l-68-53h-5Z" fill="#ECF4FB"/><path d="M155 276h111v1a6 6 0 0 1-7 6h-97a6 6 0 0 1-7-6v-1Z" fill="#0055BF"/><path d="M509 299H178v122h331V299Z" fill="#C2DEFF"/><path d="M509 299H178v5h331v-5Z" fill="#D2E9FF" style="mix-blend-mode:multiply"/><path d="M509 316H177v45h332v-45Z" fill="#0072F5"/><path d="M516 229h-35l-1 1v47h37v-47l-1-1Z" fill="#fff"/><path d="m492 228 25 41v-16l-16-25h-9ZM482 228l30 50h3l-31-50h-2Z" fill="#ECF4FB"/><path d="M515 226h-33a5 5 0 0 0-5 5v45a5 5 0 0 0 5 4h33a5 5 0 0 0 4-4v-45a5 5 0 0 0-4-5Zm-1 49h-32v-43h32v43Z" fill="#0072F5"/><path d="M520 284h-46a6 6 0 0 1-6-7h58a6 6 0 0 1-6 7Z" fill="#0055BF"/><path d="M728 92H567v329h161V92Z" fill="#fff"/><path d="M723 138H573v180h150V138Z" fill="#BCDEFF"/><path d="M723 307H573v14h150v-14Z" fill="#D2E9FF" style="mix-blend-mode:multiply"/><path d="M723 200H573v4h150v-4Z" fill="#fff"/><path d="M723 185H573v15h150v-15Z" fill="#D2E9FF" style="mix-blend-mode:multiply"/><path opacity=".5" d="M607 170h-24v20l1 1h23v-21ZM642 170h-23v21h23v-21ZM677 170h-23v21h23l1-1v-20h-1ZM712 170h-23v21h23l1-1v-20h-1Z" fill="#fff"/><path d="M602 160h-14v27h14l1-1v-26h-1Z" fill="#fff"/><path d="M602 163h-13v20h13v-20ZM597 184h-4a1 1 0 0 0 0 1h4a1 1 0 1 0 0-1Z" fill="#BCDEFF"/><path d="M708 164h-15v22l1 1h14v-23Z" fill="#fff"/><path d="M707 167h-13v16h13v-16Z" fill="#BCDEFF"/><path d="M635 165h-9l-1 1v20l1 1h9l1-1v-20l-1-1Z" fill="#fff"/><path d="M635 167h-9v17h9v-17ZM632 185h-3v1h3v-1Z" fill="#BCDEFF"/><path d="M670 165h-9l-1 1v20l1 1h9l1-1v-20l-1-1Z" fill="#fff"/><path d="M670 167h-9v17h9v-17ZM667 185h-3v1h3v-1Z" fill="#BCDEFF"/><path d="M603 190h-15v6h15v-6ZM638 190h-15v6h15v-6ZM673 190h-15v6h15v-6ZM708 190h-15v6h15v-6ZM723 258H573v5h150v-5Z" fill="#fff"/><path d="M723 244H573v14h150v-14Z" fill="#D2E9FF" style="mix-blend-mode:multiply"/><path opacity=".5" d="M712 228h-23v21h24v-20l-1-1ZM677 228h-23v21h24v-20l-1-1ZM642 228h-23v21h23v-21ZM607 228h-23l-1 1v20h24v-21Z" fill="#fff"/><path d="M708 218h-15v27h15v-27Z" fill="#fff"/><path d="M708 219h-14v22h14v-22Z" fill="#BCDEFF"/><path d="M603 222a21 21 0 0 0-15 0v23l7 1a32 32 0 0 0 8-1v-23Z" fill="#fff"/><path d="M602 224h-13v20h13v-20Z" fill="#BCDEFF"/><path d="M671 223h-11v22h11v-22Z" fill="#fff"/><path d="M670 226h-9v17h9v-17ZM667 243h-3v1h3v-1Z" fill="#BCDEFF"/><path d="M637 224a17 17 0 0 0-13 0v21l7 1a25 25 0 0 0 6-1v-21Z" fill="#fff"/><path d="M636 225h-11v19h11v-19Z" fill="#BCDEFF"/><path d="M708 248h-15v6h15v-6ZM673 248h-15v6h15v-6ZM638 248h-15v6h15v-6ZM603 248h-15v6h15v-6Z" fill="#fff"/><path d="M702 243h-3a1 1 0 0 0 0 2h3a1 1 0 0 0 1-1 1 1 0 0 0-1-1Z" fill="#BCDEFF"/><path opacity=".2" d="m573 200 150-62H573v62ZM573 258l150-53H573v53Z" fill="#fff"/><path d="M625 289v21a3 3 0 0 1-4 2h-33a3 3 0 0 1-3-3v-19a3 3 0 0 1 3-3h6l1-1 3-3 2-1h9l3 1a115 115 0 0 0 3 4h6a3 3 0 0 1 4 2Zm-20 19a9 9 0 1 0 0-18 9 9 0 0 0 0 18Zm17-18a1 1 0 0 0 0-1 1 1 0 0 0-1 0 1 1 0 0 0-1 1 1 1 0 0 0 0 2h1a1 1 0 0 0 1-2Z" fill="#0072F5"/><path d="M605 308a9 9 0 1 1 0-18 9 9 0 0 1 0 18Zm0-16a7 7 0 1 0 2 1l-2-1ZM622 290a1 1 0 0 1-2 2 1 1 0 0 1 0-2 1 1 0 1 1 2 0Z" fill="#fff"/><path d="M605 292a7 7 0 1 1 0 13 7 7 0 0 1 0-13Z" fill="#D2E9FF" style="mix-blend-mode:multiply"/><path d="M670 298v13a2 2 0 0 1-2 1h-20a2 2 0 0 1-2-2v-11a2 2 0 0 1 2-2h4l2-2 1-1h6l1 1a61 61 0 0 0 3 2h3a2 2 0 0 1 2 1Zm-12 11a5 5 0 1 0 0-10 5 5 0 0 0 0 10Zm11-10a1 1 0 0 0-1-1 1 1 0 0 0-1 1 1 1 0 1 0 2 0Z" fill="#0072F5"/><path d="M658 309a5 5 0 1 1 0-10 5 5 0 0 1 0 10Zm0-9a4 4 0 1 0 3 1l-3-1ZM669 299a1 1 0 1 1-2 0 1 1 0 0 1 1-1 1 1 0 0 1 1 1Z" fill="#fff"/><path d="M658 300a4 4 0 1 1 0 8 4 4 0 0 1 0-8Z" fill="#D2E9FF" style="mix-blend-mode:multiply"/><path d="M705 298v13a2 2 0 0 1-2 1h-20a2 2 0 0 1-2-2v-11a2 2 0 0 1 1-2h5l2-2 1-1h6l1 1a60 60 0 0 0 3 2h3a2 2 0 0 1 2 1Zm-12 11a5 5 0 1 0 0-10 5 5 0 0 0 0 10Zm11-10a1 1 0 0 0-1-1 1 1 0 0 0-1 1 1 1 0 0 0 2 0Z" fill="#0072F5"/><path d="M693 309a5 5 0 1 1 0-10 5 5 0 0 1 0 10Zm0-9a4 4 0 1 0 3 1l-3-1ZM704 299a1 1 0 0 1-2 0 1 1 0 0 1 1-1 1 1 0 0 1 1 1Z" fill="#fff"/><path d="M693 300a4 4 0 1 1 0 8 4 4 0 0 1 0-8Z" fill="#D2E9FF" style="mix-blend-mode:multiply"/><path d="M597 287v-1l3-3 3-1h-3l-2 1-3 3-1 1h-3 6ZM591 312a3 3 0 0 1-4-3v-19a3 3 0 0 1 4-3h-3a3 3 0 0 0-3 2v20a3 3 0 0 0 3 3h3Z" fill="#005FCC"/><path opacity=".2" d="m573 321 150-58H573v58Z" fill="#fff"/><path d="M722 100H573v31h149v-31ZM722 327H573v32h149v-32Z" fill="#0072F5"/><path d="M722 359H573v43h149v-43Z" fill="#BCDEFF"/><path d="M594 105h-10l-1 2v17l1 1h10l2-1v-17l-2-2Z" fill="#fff"/><path d="M594 108h-10v14h10v-14ZM590 124h-2 3-1Z" fill="#BCDEFF"/><path d="M721 112H603v6h118v-6ZM721 340H614v6h107v-6Z" fill="#005FCC"/><path d="m451 268-27 27 10 10 27-27-10-10Z" fill="#D3897D"/><path d="m433 353 9-43h41l-27 46-23-3Z" fill="#34233C"/><path d="M456 415v-62h-23v62h23Z" fill="#34233C"/><path d="M442 310h15l-15 45-1 60-8-1v-61l9-43Z" fill="#000"/><path d="M448 176h20v21a9 9 0 0 1-9 9h-2a9 9 0 0 1-9-9v-21Z" fill="#D3897D"/><path d="M450 185a9 9 0 1 0 0-18 9 9 0 0 0 0 18Z" fill="#34233C"/><path d="m467 172-17-5 8 13h5l3-2-1 14h7l3-6a5 5 0 0 0-2-7l-2-1a5 5 0 0 0-4-6Z" fill="#34233C"/><path d="M469 197a3 3 0 1 0 0-7 3 3 0 0 0 0 7Z" fill="#D3897D"/><path d="M458 180h5l3-2-1 14-2-10h-5s-1 2-6 3c0 0 5-1 6-5Z" fill="#C1736B"/><path d="m469 196-13 2 4 18 12-3-3-17Z" fill="#D3897D"/><path d="M442 247h13l-13 45v-45Z" fill="#005FCC"/><path d="M456 415h-15v12h15v-12Z" fill="#D3897D"/><path d="M417 433v-1a3 3 0 0 1 2-4l17-4 2-4a3 3 0 0 1 3-1v5h15v9h-39Z" fill="#FAC348"/><path d="M417 433h39v3a1 1 0 0 1-1 1h-37a1 1 0 0 1-1-1v-3Z" fill="#34233C"/><path d="m441 415 15 4v-4h-15Z" fill="#C1736B"/><path d="m456 424-16 9h16v-9Z" fill="#F39719"/><path d="m521 407-15 3 3 13 15-3-3-13Z" fill="#D3897D"/><path d="m487 433-1-1a3 3 0 0 1 2-4l15-7 2-4a3 3 0 0 1 2-2l1 5 15-3 2 8-38 8Z" fill="#FAC348"/><path d="m487 433 38-8v3a1 1 0 0 1 0 2l-36 7a1 1 0 0 1-2 0v-4Z" fill="#34233C"/><path d="m506 411 16 2-1-6-15 4Z" fill="#C1736B"/><path d="m425 295-4 4a3 3 0 0 0-1 3l2 9a2 2 0 0 0 2 2 2 2 0 0 0 2-2l-2-8 13-2-12-6Z" fill="#D3897D"/><path d="M424 301c-1 1-2 2-1 3l3 11 2 2h1l1-3-3-11-3-2Z" fill="#D3897D"/><path d="M427 298c-1 1-2 2-1 3l3 11 2 2h1l1-3-3-11-3-2Z" fill="#D3897D"/><path d="M431 298c-1 0-2 1-1 2l2 8 2 1h1l1-2-2-8c-1-1-2-2-3-1Z" fill="#D3897D"/><path d="M458 206s9-1 11-9l3 13-14-4ZM445 274l8 12 2-2-10-10Z" fill="#C1736B"/><path d="m505 416-23-40-30-79 36 13 11 52 25 48-19 6Z" fill="#34233C"/><path d="M488 310h-46v-67a32 32 0 0 1 24-31 17 17 0 0 1 22 16v82Z" fill="#0072F5"/><path d="m488 310-21 27 15 39 10-45-4-21Z" fill="#000"/><path d="m482 284-13 2-4-33 16-1 1 32Z" fill="#D3897D"/><path d="M482 219v62l-14 4-13-61 27-5Z" fill="#0072F5"/><path d="m488 298-39 3a2 2 0 0 0-1 1 2 2 0 0 0 0 1l3 26a2 2 0 0 0 0 2 2 2 0 0 0 1 0l38-4a2 2 0 0 0 2-1v-1l-3-26a2 2 0 0 0-1-1Z" fill="#FF5753"/><path d="m486 300-34 3 2 24 34-3-2-24Z" fill="#fff"/><path d="M454 309h-6a1 1 0 0 0-1 2l1 9a1 1 0 0 0 1 1h6a1 1 0 0 0 1-2l-1-9a1 1 0 0 0-1-1Zm1 11h-5l-1-10h6v10Z" fill="#DD3C3C"/><path d="M458 307h-1l2 18h1l-2-18ZM463 307h-1l2 17h1l-2-17ZM465 307h-1l1 17h1l-1-17ZM466 306h-1l2 18h1l-2-18ZM468 306h-1l2 18h1l-2-18ZM470 306h-1l2 18h1l-2-18Z" fill="#EFEFEF"/><path d="m469 280-3 32 13 1 3-31-13-2Z" fill="#D3897D"/><path d="M464 311v11c-1 1 0 2 1 2l2-2 1-10-1-2h-1l-2 1ZM468 313l-1 14 1 1 2-1 1-14-1-2h-1l-1 2ZM473 312l-1 14 1 1 2-1 1-14-1-2h-1l-1 2Z" fill="#D3897D"/><path d="m476 309-1 13 1 2h1l1-1 1-14-1-1-2 1ZM471 313l-2 15 2 2 1-1 2-16-2-1-1 1Z" fill="#D3897D"/><path d="m468 312-1 10a2 2 0 0 1-2 2l3-12Z" fill="#C1736B"/><path d="m459 242 8 28 2 13-2 17-8 1v-59ZM442 247s-2-21 14-31l4-2s-18 11-18 33ZM482 281l6 17h-8l2-17Z" fill="#005FCC"/><path d="m141 430 1-15h-12v13l11 2Z" fill="#fff"/><path d="M175 285h-37l-4 10c-5 9-7 19-7 30l2 81h17l10-78 19-43Z" fill="#FF5753"/><path d="M186 406h-17l-13-78 19-43 11 121Z" fill="#FF5753"/><path d="m185 415-1-9h-14l3 9h12Z" fill="#E2A091"/><path d="m188 427-3-12h-12l4 12h11Z" fill="#fff"/><path d="M209 434v-1a3 3 0 0 0-3-3l-14-4-2-3a3 3 0 0 0-2-1h-1l1 5h-13v7h34Z" fill="#FF5753"/><path d="M208 438h-32a1 1 0 0 1-1-1v-3h34v3a1 1 0 0 1-1 1ZM141 437h-16a1 1 0 0 1-1 0 1 1 0 0 1-1-1v-2h20v2a1 1 0 0 1-2 1Z" fill="#34233C"/><path d="M139 426v-2a2 2 0 0 0-3-2h-4a2 2 0 0 0-2 2v2l-7 8h20l-4-8Z" fill="#FF5753"/><path d="m143 406-1 9h-12v-9h13Z" fill="#E2A091"/><path d="m156 328 19-43-14 76-5-33ZM143 288l-10 30v88h-4l-2-85c-1-7 1-15 4-21l7-15h6l-1 3Z" fill="#34233C"/><path d="m148 285-9 24c-2 5-2 11-2 16v81h-4v-82c0-5 1-11 3-15l8-24h4Z" fill="#fff"/><path d="M172 196c0-10-7-17-16-17s-17 8-17 17c0 0 0 4-5 6a8 8 0 0 0-5 8l1 3a9 9 0 0 1-1 10l-4 3a7 7 0 0 0-1 8c0 2 2 4 7 4h48s5-5 2-14l-4-7a15 15 0 0 1-5-12v-9Z" fill="#34233C"/><path d="M175 285h-37v-14l-6-43a7 7 0 0 1 7-7h33a7 7 0 0 1 7 7l-4 57Z" fill="#FFC347"/><path d="m170 241 12-9 20 26-6 4a8 8 0 0 1-11-2l-15-19ZM126 279l-9-4a4 4 0 0 1-3-6l12-26 13 6-13 30Z" fill="#E2A091"/><path d="m216 241 5 11-27 13a5 5 0 0 1-7-2l-3-6 32-16Z" fill="#E2A091"/><path d="m133 263-13-6 13-33 13 9-13 30ZM195 249l-12 9-19-22 13-13 18 26Z" fill="#FFC347"/><path d="m120 257 7 3 13-24a7 7 0 0 1 4-4l14-2 4-9h-22a8 8 0 0 0-8 5l-12 31Z" fill="#F39719"/><path d="M160 185h-1c-5 0-9 4-9 9v10c0 5 4 9 9 9h1c5 0 9-4 9-9v-10c0-5-4-9-9-9Z" fill="#E2A091"/><path d="M150 207h12v17a6 6 0 0 1-6 6 6 6 0 0 1-6-6v-17Z" fill="#E2A091"/><path d="M148 204a4 4 0 1 0 0-8 4 4 0 0 0 0 8Z" fill="#D3897D"/><path d="m136 253 2 32 11 2-5-6-8-28Z" fill="#F39719"/><path d="m126 266-5 11 30 13 5-11-30-13Z" fill="#E2A091"/><path d="m161 281-1-2-8-1-2 1 2 2 7 1 2-1Z" fill="#E2A091"/><path d="M165 286v-1l-11-4-1 1v1l11 4 1-1ZM162 292v-1l-10-6h-2l1 2 9 6 2-1Z" fill="#E2A091"/><path d="M156 292v-1l-6-5h-2l1 2 6 5 1-1ZM165 290v-1l-11-6-2 1v1l12 6 1-1ZM222 238h-3l-6 4v3h2l6-5 1-2Z" fill="#E2A091"/><path d="M229 239h-2l-10 4-1 2h2l10-4 1-2ZM230 246l-1-1-11 3-1 1 2 1 10-3c1 0 2 0 1-1ZM228 250l-1-1-8 1-1 1 2 1 7-1 1-1Z" fill="#E2A091"/><path d="m231 242-1-1-12 4-1 2 2 1 11-4 1-2Z" fill="#E2A091"/><path d="M155 193v37h-6v-37h6Z" fill="#D3897D"/><path d="M148 200s11 1 15-10h7l-4-7-15 2-3 11v4Z" fill="#34233C"/><path d="m183 258 4 5a6 6 0 0 0 8 2l18-9-17 4a4 4 0 0 1-4-6l3-5-12 9ZM127 260l-5 12 27 16-32-13a5 5 0 0 1-3-7l6-11 7 3Z" fill="#D3897D"/><path d="M607 339v10a2 2 0 0 1-2 1h-17a2 2 0 0 1-2-1v-10a2 2 0 0 1 2-2h4l1-2h7a63 63 0 0 0 2 2h3a2 2 0 0 1 2 1v1Zm-10 9a5 5 0 1 0 0-9 5 5 0 0 0 0 9Zm9-9a1 1 0 0 0-1 0 1 1 0 0 0 0-1 1 1 0 0 0-1 1 1 1 0 0 0 1 1 1 1 0 0 0 1-1Z" fill="#fff"/><path d="M597 348a5 5 0 1 1 0-9 5 5 0 0 1 0 9Zm0-8a3 3 0 1 0 1 0h-1ZM606 339a1 1 0 1 1-2 0 1 1 0 0 1 1-1 1 1 0 0 1 1 1Z" fill="#BCDEFF"/><path d="M597 340a3 3 0 0 1 2 6 3 3 0 1 1-2-6Z" fill="#fff"/><path d="m451 191 1-1-1-1v2ZM456 191v-2 2ZM162 200l1-1-1-1v2ZM167 200v-2 2Z" fill="#34233C"/></g><defs><linearGradient id="b" x1="224" y1="101.8" x2="224" y2="246.3" gradientUnits="userSpaceOnUse"><stop stop-color="#fff"/><stop offset="1" stop-color="#fff"/></linearGradient><linearGradient id="c" x1="138238" y1="71197.7" x2="138238" y2="106907" gradientUnits="userSpaceOnUse"><stop stop-color="#fff"/><stop offset="1" stop-color="#fff"/></linearGradient><linearGradient id="d" x1="155223" y1="71197.7" x2="155223" y2="106907" gradientUnits="userSpaceOnUse"><stop stop-color="#fff"/><stop offset="1" stop-color="#fff"/></linearGradient><linearGradient id="e" x1="172200" y1="71197.7" x2="172200" y2="106907" gradientUnits="userSpaceOnUse"><stop stop-color="#fff"/><stop offset="1" stop-color="#fff"/></linearGradient><linearGradient id="f" x1="101293" y1="14348" x2="101288" y2="13056.7" gradientUnits="userSpaceOnUse"><stop stop-color="#fff"/><stop offset="1"/></linearGradient><linearGradient id="g" x1="101293" y1="16949.4" x2="101288" y2="15658.5" gradientUnits="userSpaceOnUse"><stop stop-color="#fff"/><stop offset="1"/></linearGradient><clipPath id="a"><path fill="#fff" d="M0 0h919v483H0z"/></clipPath></defs></svg>