<svg fill="none" height="385" viewBox="0 0 524 385" width="524" xmlns="http://www.w3.org/2000/svg" xmlns:xlink="http://www.w3.org/1999/xlink"><clipPath id="a"><rect height="184.61" rx="16" width="330.296" x="34.4707" y="125"/></clipPath><path d="m0 0h524v385h-524z" fill="#fff"/><g fill="#b9ddff"><path d="m166.563 178.513c-.585.116-1.17.233-1.754.35.584-.117 1.169-.234 1.754-.35z"/><path d="m192.982 170.738c-4.676 1.754-9.703 3.449-14.964 4.91 5.319-1.461 10.288-3.156 14.964-4.91z"/><path d="m178.021 175.647c-1.638.468-3.332.877-5.028 1.345 1.696-.41 3.39-.877 5.028-1.345z"/><path d="m192.985 170.738c24.551-9.236 39.866-20.81 39.866-20.81s-15.315 11.574-39.866 20.81z"/></g><path d="m364.417 137.813c0-7.053-5.777-12.813-12.851-12.813h-304.2812c-7.0364 0-12.8141 5.76-12.8141 12.813v173.955h329.9463z" fill="#0072f5"/><path d="m102.563 250.546c0-.444.371-.812.815-.812.445 0 .815.368.815.812 0 .443-.37.813-.815.813-.444 0-.815-.37-.815-.813z" fill="#f6f7f9"/><path d="m271.711 286.86c0 .407-.334.74-.741.74s-.741-.333-.741-.74c0-.405.334-.738.741-.738s.741.333.741.738z" fill="#f6f7f9"/><path d="m275.007 290.738h-8.147c-.26 0-.482-.222-.482-.48 0-.259.222-.481.482-.481h8.147c.259 0 .481.222.481.481 0 .258-.222.48-.481.48z" fill="#f6f7f9"/><g clip-path="url(#a)"><path d="m-16.6863 125 134.6853 186h258l-133.008-186z" fill="#005fcc"/></g><path d="m66.134 382.465c.4163-1.767-.6827-3.536-2.4544-3.952-1.7726-.415-3.5463.681-3.9636 2.448-.4163 1.766.6827 3.535 2.4543 3.951 1.7727.416 3.5464-.68 3.9637-2.447z" fill="#f6f7f9"/><path d="m360.509 320h-323.0178c-6.9106 0-13.2977-3.822-16.4912-10h356c-3.194 6.126-9.581 10-16.491 10z" fill="#0072f5"/><path d="m239.975 314h-72.95c-2.803 0-5.025-1.811-5.025-4h83c0 2.232-2.222 4-5.025 4z" fill="#fff"/><path d="m310.185 195h-176.415c-10.367 0-18.77-8.399-18.77-18.76v-103.4796c0-10.3616 8.403-18.7604 18.77-18.7604h176.415c10.366 0 18.769 8.3988 18.769 18.7604v103.4336c.046 10.407-8.357 18.806-18.769 18.806z" fill="#fff"/><path d="m124.864 54h194.272c5.434 0 9.864 4.4276 9.864 9.8595v11.594h-214v-11.594c0-5.4319 4.43-9.8595 9.864-9.8595z" fill="#0072f5"/><path d="m222 85.7695h-89.829v97.1345h89.829z" fill="#dbecfe"/><path d="m310.368 110.327h-74.165v8.216h74.165z" fill="#dbecfe"/><path d="m310.368 125.938h-74.165v8.216h74.165z" fill="#fff"/><path d="m310.368 162.774h-74.165v8.216h74.165z" fill="#dbecfe"/><path d="m310.368 146.342h-74.165v8.216h74.165z" fill="#dbecfe"/><path d="m264.563 102.111h-28.36v5.021h28.36z" fill="#dbecfe"/><path d="m309.134 130.046h-9.499v9.494h9.499z" fill="#dbecfe"/><path d="m128.7 67.0548c1.286 0 2.329-1.0423 2.329-2.3279 0-1.2857-1.043-2.328-2.329-2.328s-2.329 1.0423-2.329 2.328c0 1.2856 1.043 2.3279 2.329 2.3279z" fill="#0e222e"/><path d="m137.377 67.0548c1.286 0 2.329-1.0423 2.329-2.3279 0-1.2857-1.043-2.328-2.329-2.328s-2.329 1.0423-2.329 2.328c0 1.2856 1.043 2.3279 2.329 2.3279z" fill="#fff"/><path d="m145.643 67.0548c1.286 0 2.329-1.0423 2.329-2.3279 0-1.2857-1.043-2.328-2.329-2.328s-2.329 1.0423-2.329 2.328c0 1.2856 1.043 2.3279 2.329 2.3279z" fill="#bcdeff"/><path d="m177.337 104.986c-.092 0-.183 0-.274 0-.092 0-.183 0-.274 0-11.372.137-20.551 9.403-20.551 20.769 0 2.83.502 5.523 1.553 7.988 0 0 1.415 2.785 2.146 3.834l17.126 30.035 17.125-30.035c.731-1.004 2.146-3.834 2.146-3.834 1.005-2.465 1.553-5.158 1.553-7.988 0-11.411-9.179-20.632-20.55-20.769z" fill="#ff5753"/><path d="m177.062 134.93c5.953 0 10.778-4.823 10.778-10.772 0-5.95-4.825-10.773-10.778-10.773-5.952 0-10.777 4.823-10.777 10.773 0 5.949 4.825 10.772 10.777 10.772z" fill="#fff"/><path d="m177.062 167.567 17.126-30.035c.731-1.004 2.146-3.834 2.146-3.834 1.005-2.465 1.553-5.158 1.553-7.988 0-11.412-9.179-20.632-20.551-20.769-.091 0-.456 0-.548 0 0 0 20.323 5.34 13.655 26.702z" fill="#d64141"/><path d="m21 309h352v1h-352z" fill="#005fcc"/><path d="m223.125 330.367v-84.464c0-9.64 7.793-17.903 17.879-17.903h126.988c8.711 0 17.421 3.213 24.298 8.722l42.177 35.805 54.554 13.312c4.126.919 7.335 3.673 8.711 7.345l3.667 9.181c.917 1.836.917 3.213.917 5.049v20.657c0 .918-.917 1.836-1.834 1.836h-277.357z" fill="#fac348"/><path d="m412.921 330.367h-193.921v-20.657h165.956c9.169 0 17.421 4.59 22.464 11.935z" fill="#f39719"/><path d="m347.363 243.149v29.838c0 1.836 1.375 3.213 3.209 3.213h64.182c2.292 0 3.209-2.754 1.834-4.131l-34.842-31.215c-.458-.459-.917-.459-1.834-.459h-29.34c-1.834-.459-3.209.918-3.209 2.754z" fill="#fff"/><path d="m455.098 351.023c11.394 0 20.63-9.248 20.63-20.656 0-11.409-9.236-20.657-20.63-20.657-11.393 0-20.629 9.248-20.629 20.657 0 11.408 9.236 20.656 20.629 20.656z" fill="#34233c"/><path d="m455.097 337.711c4.051 0 7.335-3.288 7.335-7.344 0-4.057-3.284-7.345-7.335-7.345s-7.335 3.288-7.335 7.345c0 4.056 3.284 7.344 7.335 7.344z" fill="#fff"/><path d="m502.775 299.611h-13.753v13.771h13.753z" fill="#34233c"/><path d="m470.684 299.152h18.338v14.23z" fill="#fff"/><path d="m271.262 351.023c11.394 0 20.63-9.248 20.63-20.656 0-11.409-9.236-20.657-20.63-20.657s-20.63 9.248-20.63 20.657c0 11.408 9.236 20.656 20.63 20.656z" fill="#34233c"/><path d="m271.264 337.711c4.051 0 7.335-3.288 7.335-7.344 0-4.057-3.284-7.345-7.335-7.345s-7.335 3.288-7.335 7.345c0 4.056 3.284 7.344 7.335 7.344z" fill="#fff"/></svg>