<svg fill="none" height="55" viewBox="0 0 81 55" width="81" xmlns="http://www.w3.org/2000/svg" xmlns:xlink="http://www.w3.org/1999/xlink"><clipPath id="a"><path d="m0 0h81v55h-81z"/></clipPath><g style="clip-path:url(#a);fill:#f7f9fb;stroke:#979797;stroke-width:2;stroke-miterlimit:10;stroke-linecap:round;stroke-linejoin:round"><path d="m11.9648 22.7134h-11.331743v31.6443h11.331743z"/><path d="m30.0703 12.8186h-11.3318v41.5391h11.3318z"/><path d="m49.8845 10.0557h-11.3318v44.3019h11.3318z"/><path d="m79.7333 52.3015-1.3611 1.1887c-.7597.6747-1.9308.5783-2.5955-.1927l-20.891-24.7372c-.6647-.771-.5698-1.9597.1899-2.6343l1.3611-1.1887c.7596-.6747 1.9308-.5783 2.5955.1927l20.891 24.7372c.6647.771.5698 1.9597-.1899 2.6343z"/><path d="m54.0632 42.0853c11.2755 0 20.4161-9.2772 20.4161-20.7213 0-11.44415-9.1406-20.721422-20.4161-20.721422-11.2756 0-20.4162 9.277272-20.4162 20.721422 0 11.4441 9.1406 20.7213 20.4162 20.7213z"/><path d="m54.0628 37.2663c8.6533 0 15.6682-7.1197 15.6682-15.9024s-7.0149-15.90247-15.6682-15.90247c-8.6534 0-15.6683 7.11977-15.6683 15.90247s7.0149 15.9024 15.6683 15.9024z"/></g></svg>