<svg fill="none" height="61" viewBox="0 0 93 61" width="93" xmlns="http://www.w3.org/2000/svg" xmlns:xlink="http://www.w3.org/1999/xlink"><clipPath id="a"><path d="m0 0h93v61h-93z"/></clipPath><g style="clip-path:url(#a);fill:#f7f9fb;stroke:#979797;stroke-width:2;stroke-miterlimit:10;stroke-linecap:round;stroke-linejoin:round"><path d="m57.5896 60.3787c-2.1584 0-3.9102-1.7393-3.9102-3.8824v-4.9384c0-1.8324 1.5016-3.3233 3.3472-3.3233h1.1574c1.8456 0 3.3471 1.4909 3.3471 3.3233v4.9384c0 2.1431-1.7517 3.8824-3.9415 3.8824z"/><path d="m80.1437 60.3787c-2.1584 0-3.9102-1.7393-3.9102-3.8824v-4.9384c0-1.8324 1.5015-3.3233 3.3471-3.3233h1.1575c1.8456 0 3.3471 1.4909 3.3471 3.3233v4.9384c-.0313 2.1431-1.7831 3.8824-3.9415 3.8824z"/><path d="m29.2169 31.0278c-.1877-1.6151 0-25.34421 0-25.34421h-17.7679c-1.53277 0-2.94044.80754-3.72248 2.14308l-6.881939 12.05093c-.156408.2795-.218971.528-.218971.8075v17.7037c0 .9007.71948 1.6151 1.62664 1.6151h26.96465z"/><path d="m20.8964 50.2533c4.6992 0 8.5086-3.7823 8.5086-8.4481 0-4.6657-3.8094-8.448-8.5086-8.448s-8.5086 3.7823-8.5086 8.448c0 4.6658 3.8094 8.4481 8.5086 8.4481z"/><path d="m20.8963 44.7871c1.6586 0 3.0031-1.335 3.0031-2.9817s-1.3445-2.9817-3.0031-2.9817c-1.6585 0-3.003 1.335-3.003 2.9817s1.3445 2.9817 3.003 2.9817z"/><path d="m24.7129 11.3363v10.498c0 .9939-.8133 1.7704-1.783 1.7704h-13.29466-5.19274v-2.8575c0-.3416.09385-.6522.28154-.9317l5.91216-9.442c.3129-.528.9072-.83859 1.5016-.83859h10.7921c.9697.03106 1.783.83859 1.783 1.80139z"/><path d="m33.5633 31.6387h45.1392v-31.02803h-45.1392z"/><path d="m29.2345 36.9368h49.8002v-5.5907h-49.8002z"/><path d="m60.4989 50.2533c4.6992 0 8.5086-3.7823 8.5086-8.4481 0-4.6657-3.8094-8.448-8.5086-8.448-4.6991 0-8.5085 3.7823-8.5085 8.448 0 4.6658 3.8094 8.4481 8.5085 8.4481z"/><path d="m60.4981 44.7871c1.6586 0 3.0031-1.335 3.0031-2.9817s-1.3445-2.9817-3.0031-2.9817c-1.6585 0-3.003 1.335-3.003 2.9817s1.3445 2.9817 3.003 2.9817z"/><path d="m50.6447 36.4941c-.2815-1.4598-.0939-18.6044-.0313-23.636 0-.7765.6256-1.3977 1.4077-1.3977h33.0646c.782 0 1.4076.6212 1.4076 1.3977v23.6049l3.9102 5.0626v7.361h-42.6993v-8.0132z"/><path d="m82.6143 26.8658h-27.4339c-.1564 0-.3128-.1243-.3128-.3106v-11.2434c0-.1553.1251-.3106.3128-.3106h27.4339c.1564 0 .3128.1243.3128.3106v11.2434c0 .1863-.1251.3106-.3128.3106z"/><path d="m92.3749 48.2346h-46.9536v3.9135h46.9536z"/><path d="m76.2018 30.4065h-15.672v17.8279h15.672z"/></g></svg>