<svg fill="none" height="86" viewBox="0 0 67 86" width="67" xmlns="http://www.w3.org/2000/svg"><g style="fill:#f7f9fb;stroke:#0072f5;stroke-width:2;stroke-miterlimit:10;stroke-linecap:round;stroke-linejoin:round"><path d="m32.0943 85.4702c17.4321 0 31.5637-14.1112 31.5637-31.5183s-14.1316-31.5183-31.5637-31.5183c-17.4322 0-31.563782 14.1112-31.563782 31.5183s14.131582 31.5183 31.563782 31.5183z"/><path d="m3.95178 42.4305c1.53814 0 2.78504-1.2451 2.78504-2.7811 0-1.5359-1.2469-2.781-2.78504-2.781-1.53813 0-2.78503 1.2451-2.78503 2.781 0 1.536 1.2469 2.7811 2.78503 2.7811z"/><path d="m63.6847 61.7652c1.5381 0 2.785-1.2451 2.785-2.781 0-1.536-1.2469-2.7811-2.785-2.7811s-2.785 1.2451-2.785 2.7811c0 1.5359 1.2469 2.781 2.785 2.781z"/><path d="m17.7711 85.126c1.5382 0 2.7851-1.2451 2.7851-2.781s-1.2469-2.781-2.7851-2.781c-1.5381 0-2.785 1.2451-2.785 2.781s1.2469 2.781 2.785 2.781z"/><path d="m43.4469 52.4424c-.0265-.3973-.2652-.7416-.61-.927-.2122-.1325-.4775-.2119-.7427-.2119l-.2653.0265c-.2122.0264-.4509-.053-.6631-.159-.2122-.1324-.3713-.3178-.4509-.5562l-.4774-1.0064c-.2387-.4238-.1592-1.0595.1857-1.4038l.1856-.1854c.4509-.4503.4509-1.1919 0-1.6421l-.9018-.9005c-.1061-.106-.2652-.2119-.3979-.2649-.4509-.2119-.9814-.1589-1.3527.2119l-.1857.1854c-.3448.3443-.9814.4238-1.4057.1854l-.4775-.2119-.4244-.1854c-.4774-.1854-.7957-.7151-.7692-1.2184l.0266-.2648c.053-.5562-.3183-1.0595-.8488-1.2184-.1061-.0529-.2122-.0794-.3448-.0794l-1.2467-.106c-.6365-.0529-1.2201.4238-1.2731 1.0595l-.0265.2648c-.0531.5033-.4775.98-.9549 1.0595l-1.061.2913c-.2122.0795-.4774.0795-.7161 0-.2122-.0794-.4244-.2119-.557-.3973l-.1592-.2119c-.1591-.2383-.3978-.3708-.6366-.4502-.3448-.1325-.7692-.106-1.0875.1324l-1.0344.7151c-.5305.3708-.6631 1.1124-.2918 1.6157l.1592.2119c.2918.3972.2652 1.0329-.0531 1.4302l-.6365.9005c-.2388.4238-.8223.6622-1.2997.5562l-.1857-.0529s0 0-.0265 0l-.0796-.0265c-.61-.1589-1.2732.2119-1.4323.821l-.3183 1.2184c-.1591.6092.2122 1.2713.8223 1.4302l.2652.0795c.4774.1324.8753.6357.8753 1.1389l.0796 1.0859c.0795.4768-.2122 1.0594-.6631 1.2713l-.2387.106c-.5836.2648-.8223.98-.5571 1.5627l.5305 1.1389c.0796.1854.2122.3178.3448.4237l.0266-.0265c.3448.2914.8222.3708 1.2466.1854l.2387-.1059c.4509-.2119 1.0875-.0795 1.4058.2913l.7692.7681c.3713.3179.504.9535.3183 1.4038l-.1061.2384c-.2122.4237-.1061.927.1857 1.2448l-.0266.0265c.1061.1059.2122.1854.3449.2384l1.1405.5297.053.0265c.1857.0794.3714.1059.557.1059v-.0265c.3979-.0529.7427-.2913.9284-.6621l.1061-.2384c.2122-.4503.7692-.7416 1.2731-.6357 0 0 .0531 0 .5571.053.4774.053.557.053.557.053.5039-.0265 1.0079.3708 1.1405.8475l.0796.2649c.1326.5032.5835.8476 1.0875.8476v.0529c.1326 0 .2652 0 .3978-.0265l1.2201-.3178c.6101-.1589.9814-.7946.8223-1.4302l-.0796-.2649c-.1326-.4767.1326-1.0594.557-1.2978 0 0 .0531-.0265.4509-.3178.3979-.2914.4509-.3179.4509-.3179.3714-.3178.9814-.3708 1.3793-.0794l.1591.1059.0796.053c.5305.3708 1.2466.2384 1.618-.2914l.7161-1.0329c.3714-.5297.2388-1.2449-.2917-1.6157l-.0796-.0529-.1326-.106c-.3979-.2913-.5836-.9005-.4244-1.3508l.2918-1.0594c.0795-.4767.557-.927 1.0609-.9535l.2653-.0265c.6365-.053 1.114-.6356 1.0609-1.2713z"/><path d="m32.1475 57.2629c1.8457 0 3.342-1.4942 3.342-3.3373s-1.4963-3.3372-3.342-3.3372c-1.8458 0-3.3421 1.4941-3.3421 3.3372s1.4963 3.3373 3.3421 3.3373z"/><path d="m32.3589.529785c-.053 0-.1061 0-.1591 0-.0531 0-.1061 0-.1592 0-7.3472.079458-13.262 6.065295-13.262 13.401915 0 1.8275.3183 3.5756.9814 5.1383 0 0 .9283 1.801 1.3792 2.4632l11.0606 19.3612 11.0606-19.3612c.4509-.6622 1.3792-2.4632 1.3792-2.4632.6631-1.5892.9814-3.3108.9814-5.1383.0265-7.33662-5.9149-13.295971-13.2621-13.401915z"/><path d="m32.1992 19.8911c3.8527 0 6.9759-3.1187 6.9759-6.9658 0-3.84713-3.1232-6.96583-6.9759-6.96583-3.8526 0-6.9758 3.1187-6.9758 6.96583 0 3.8471 3.1232 6.9658 6.9758 6.9658z"/></g></svg>