<svg fill="none" height="32" viewBox="0 0 263 32" width="263" xmlns="http://www.w3.org/2000/svg"><path d="m89.9588 0h-.8697v31h.8697z" fill="#121212"/><path d="m37.9654 1h6.5015v30.1859h-6.5015zm-12.8242 0v8.87255l6.5114-6.51335v-2.3592zm0 30.1859h6.5114v-21.35464l-6.5114 6.51534zm-13.0031-30.1859v20.5466c0 1.4418-.369 2.5427-1.1069 3.3029s-1.73858 1.137-3.00206 1.1305c-1.32343.0221-2.61457-.4094-3.65873-1.2229l-4.37041 4.3822c2.20061 1.9044 5.04279 2.8579 8.52653 2.8606 1.33895.0061 2.67097-.1928 3.94967-.5898 1.2149-.3748 2.3421-.9899 3.3147-1.8088.9906-.8546 1.7755-1.9218 2.2963-3.122.5701-1.2674.8558-2.7609.8572-4.4805v-20.9988zm50.9704 25.1196c-.1317.0688-.2654.1376-.3932.1966-.5402.2377-1.1262.3538-1.7163.3401-.8729 0-1.5125-.2792-1.9188-.8375-.4063-.5584-.6094-1.3507-.6094-2.3769v-10.3589h5.4635v-5.11157h-5.4694v-6.97143h-6.4996v6.96946h-3.3422v5.11164h3.3422v10.001c-.0123 1.2192.1243 2.4353.4069 3.6214.2383 1.0188.704 1.9706 1.3625 2.7838.6695.7993 1.5257 1.4212 2.4929 1.8107 1.0223.4378 2.2864.6566 3.7924.6566 2.367 0 4.5591-.7864 6.5762-2.3592z" fill="#2b5470"/><g fill="#000"><path d="m127.76 19.7201c-.709 1.4081-1.761 2.6151-3.06 3.51-1.443.9361-3.14 1.404-4.86 1.34-1.22.011-2.431-.2096-3.57-.65-1.039-.4451-1.983-1.0869-2.78-1.89-.786-.8189-1.41-1.7791-1.84-2.83-.441-1.1519-.662-2.3766-.65-3.61-.012-1.2335.209-2.4582.65-3.61.419-1.0538 1.044-2.01282 1.84-2.82003.793-.80052 1.738-1.43312 2.78-1.86 1.132-.46809 2.346-.70278 3.57-.68999 1.719-.05825 3.415.40922 4.86 1.33999 1.28.85213 2.284 2.05773 2.89 3.47003l-4.08 1.72c-.327-.6977-.838-1.2926-1.48-1.72-.665-.4296-1.448-.6427-2.24-.61-.574-.0052-1.143.1106-1.67.34-.523.24-.995.5796-1.39 1-.405.4396-.718.9566-.92 1.52-.237.6396-.352 1.3179-.34 2-.011.6819.105 1.36.34 2 .202.5603.515 1.0739.92 1.51.392.4235.864.7637 1.39 1 .526.2325 1.095.3517 1.67.35.824.0257 1.638-.1898 2.34-.62.681-.465 1.221-1.1086 1.56-1.86z"/><path d="m160.47 32.0001c-1.072.0156-2.14-.1466-3.16-.48-.851-.2735-1.654-.6784-2.38-1.2-.645-.4504-1.219-.9967-1.7-1.62-.427-.5387-.765-1.1432-1-1.79l4.25-1.72c.272.841.817 1.5665 1.55 2.06.704.5007 1.547.7667 2.41.76.621.0298 1.24-.0744 1.817-.3057.576-.2312 1.096-.584 1.523-1.0343.877-1.019 1.325-2.3379 1.25-3.68v-1.17h-.27c-.536.7481-1.251 1.3499-2.08 1.75-.937.4401-1.965.6526-3 .62-1.006.0016-2.001-.2097-2.92-.62-.935-.4112-1.779-1.0063-2.48-1.75-.753-.816-1.352-1.7611-1.77-2.79-.464-1.1461-.695-2.3734-.68-3.61-.015-1.2366.216-2.464.68-3.61.408-1.0339 1.009-1.98073 1.77-2.79004.694-.76176 1.539-1.37127 2.48-1.79.921-.40559 1.915-.61666 2.92-.61999 1.04-.03007 2.07.19662 3 .65999.834.37946 1.551.97294 2.08 1.72h.27v-1.83h4.25v15.66004c.019 1.3023-.201 2.597-.65 3.82-.389 1.0793-1.003 2.0641-1.8 2.89-.784.8102-1.741 1.4324-2.8 1.82-1.133.4447-2.342.6654-3.56.65zm.17-11.87c.549.0016 1.092-.1037 1.6-.31.534-.1935 1.021-.4967 1.43-.89.423-.4265.763-.9285 1-1.48.254-.6359.38-1.3155.37-2 .01-.6845-.116-1.3642-.37-2-.225-.5584-.566-1.0627-1-1.48-.404-.4092-.892-.7265-1.43-.93-.509-.2017-1.052-.3068-1.6-.31-.544.0042-1.083.1093-1.59.31-.526.2097-1.002.5264-1.4.93-.428.4335-.767.9464-1 1.51-.262.6335-.391 1.3143-.38 2-.006.6851.124 1.3648.38 2 .238.5517.577 1.0538 1 1.48.402.3885.878.6913 1.4.89.507.195 1.047.2901 1.59.28z"/><path d="m195.25 7.15999h4.18v2h.27c.477-.73463 1.135-1.33393 1.91-1.74.975-.53738 2.078-.80006 3.19-.76 1.04-.00024 2.066.23571 3 .69.969.43877 1.837 1.07186 2.55 1.86.772.81331 1.373 1.77191 1.77 2.82001.439 1.1525.656 2.3772.64 3.61.016 1.2328-.201 2.4575-.64 3.61-.399 1.0589-1 2.0302-1.77 2.86-.724.7759-1.589 1.4071-2.55 1.86-.942.4277-1.965.6493-3 .65-1.112.04-2.215-.2226-3.19-.76-.785-.4283-1.444-1.056-1.91-1.82h-.27l.27 2.41v6.97h-4.45zm8.63 13.26001c.576.0017 1.145-.1175 1.67-.35.54-.2331 1.026-.5733 1.43-1 .432-.4309.772-.9445 1-1.51.259-.6346.389-1.3147.38-2 .01-.6855-.119-1.3658-.38-2-.228-.5685-.568-1.0853-1-1.52-.406-.4235-.892-.7632-1.43-1-.526-.2293-1.095-.3452-1.67-.34-.583-.0013-1.161.1143-1.7.34-.521.2122-.994.5287-1.39.93-.431.4309-.771.9445-1 1.51-.255.6355-.385 1.3149-.38 2-.007.6853.123 1.3651.38 2 .229.5684.569 1.0853 1 1.52.397.4181.868.7574 1.39 1 .536.2444 1.113.3868 1.7.42z"/><path d="m242.13 9.5h.27c.466-.84124 1.159-1.53435 2-2 .888-.52372 1.9-.79677 2.93-.79.304-.01877.607-.01877.91 0 .222.01627.44.05993.65.13v4.48c-.271-.1261-.556-.22-.85-.28-.358-.0746-.724-.1082-1.09-.1-.615-.0316-1.23.068-1.804.2921s-1.094.5677-1.526 1.0079c-.831.9744-1.257 2.2308-1.19 3.51v8.26h-4.45v-16.85h4.18zm11.66 1.52h-2.92v-3.86h2.92v-5.16h4.45v5.16h4.08v3.86h-4.08v6.53c0 .3694.037.738.11 1.1.084.3121.246.5978.47.83.171.188.382.335.618.4303.235.0952.489.1361.742.1197.31.0107.62-.023.92-.1.229-.0928.447-.2102.65-.35l1.25 4c-.538.2605-1.11.4455-1.7.55-.656.1489-1.327.2194-2 .21-.775-.0049-1.544-.1471-2.27-.42-.62-.2545-1.184-.6282-1.66-1.1-.551-.5854-.976-1.2782-1.248-2.0353s-.385-1.5621-.332-2.3647z"/><path d="m224.891 6.82008c1.211-.01577 2.413.21914 3.53.69 1.053.40719 2.005 1.03843 2.79 1.85.795.80742 1.415 1.77102 1.82 2.83002.461 1.1471.692 2.3737.68 3.61.013 1.2396-.218 2.4697-.68 3.62-.418 1.0659-1.043 2.0381-1.84 2.86-.796.7987-1.745 1.428-2.79 1.85-1.122.4512-2.322.6756-3.53.66-1.222.0146-2.435-.2096-3.57-.66-1.041-.4318-1.988-1.0599-2.79-1.85-.777-.8339-1.394-1.8033-1.82-2.86-.439-1.1525-.656-2.3772-.64-3.61-.016-1.2329.201-2.4575.64-3.61.425-1.053 1.05-2.0139 1.84-2.83002.792-.80308 1.742-1.43304 2.79-1.85 1.129-.47392 2.344-.71212 3.57-.7zm0 13.79002c.557.0011 1.109-.1006 1.63-.3.537-.2375 1.022-.5772 1.43-1 .432-.4298.773-.9437 1-1.51.253-.6359.379-1.3155.37-2 .01-.6846-.116-1.3644-.37-2-.227-.5694-.567-1.0866-1-1.52-.406-.4056-.893-.7194-1.43-.92-.513-.2299-1.069-.3491-1.63-.35-.575-.0018-1.144.1175-1.67.35-.525.2023-.999.5162-1.39.92-.428.4376-.768.9537-1 1.52-.235.6403-.35 1.3181-.34 2-.01.6818.106 1.3595.34 2 .232.5633.572 1.0761 1 1.51.394.4198.866.7593 1.39 1 .533.2022 1.099.3039 1.67.3z"/><path d="m181.891 6.82008c1.211-.01577 2.413.21914 3.53.69 1.053.40719 2.005 1.03843 2.79 1.85.799.80482 1.419 1.76912 1.82 2.83002.461 1.1471.692 2.3737.68 3.61.013 1.2396-.218 2.4697-.68 3.62-.414 1.0679-1.04 2.0408-1.84 2.86-.796.7987-1.745 1.428-2.79 1.85-1.122.4512-2.322.6756-3.53.66-1.222.0128-2.434-.2114-3.57-.66-1.041-.4318-1.988-1.0599-2.79-1.85-.777-.8339-1.394-1.8033-1.82-2.86-.439-1.1525-.656-2.3772-.64-3.61-.016-1.2329.201-2.4575.64-3.61.425-1.053 1.05-2.0139 1.84-2.83002.792-.80308 1.742-1.43304 2.79-1.85 1.13-.47151 2.345-.70961 3.57-.7zm0 13.79002c.557.0011 1.109-.1006 1.63-.3.537-.2375 1.022-.5772 1.43-1 .436-.427.777-.9417 1-1.51.253-.6359.379-1.3155.37-2 .01-.6846-.116-1.3644-.37-2-.223-.5714-.564-1.0893-1-1.52-.406-.4056-.893-.7194-1.43-.92-.513-.2299-1.069-.3491-1.63-.35-.576-.0018-1.144.1175-1.67.35-.523.2056-.997.5191-1.39.92-.428.4376-.768.9537-1 1.52-.23.6415-.345 1.3185-.34 2-.005.6814.11 1.3583.34 2 .232.5633.572 1.0761 1 1.51.396.4176.868.7568 1.39 1 .533.2022 1.099.3039 1.67.3z"/><path d="m139.891 6.82c1.214-.01486 2.419.21999 3.54.68999 1.048.40988 1.996 1.04086 2.78 1.85001.802.8023 1.422 1.7673 1.82 2.83.461 1.1471.692 2.3737.68 3.61.013 1.2396-.218 2.4698-.68 3.62-.41 1.0698-1.037 2.0435-1.84 2.86-.794.7963-1.739 1.4254-2.78 1.85-1.126.4505-2.329.6748-3.54.66-1.222.0128-2.434-.2113-3.57-.66-1.039-.4342-1.986-1.062-2.79-1.85-.777-.8318-1.391-1.8019-1.81-2.86-.442-1.1518-.662-2.3765-.65-3.61-.012-1.2335.208-2.4582.65-3.61.418-1.0543 1.04-2.0159 1.83-2.83001.793-.80085 1.743-1.43047 2.79-1.84999 1.13-.47152 2.344-.70961 3.57-.7zm0 13.79c.557.002 1.11-.0997 1.63-.3.538-.235 1.024-.575 1.43-1 .439-.4242.781-.9396 1-1.51.256-.6352.386-1.3148.38-2 .007-.6853-.123-1.3651-.38-2-.219-.5734-.561-1.0921-1-1.52-.403-.4089-.892-.7231-1.43-.92-.513-.2299-1.069-.3491-1.63-.35-.575-.0009-1.144.1184-1.67.35-.523.2057-.997.5191-1.39.92-.428.4377-.768.9537-1 1.52-.23.6415-.346 1.3185-.34 2-.005.6814.11 1.3583.34 2 .232.5633.572 1.0761 1 1.51.396.4176.868.7568 1.39 1 .533.2014 1.099.303 1.67.3z"/></g></svg>