<svg fill="none" height="475" viewBox="0 0 919 475" width="919" xmlns="http://www.w3.org/2000/svg" xmlns:xlink="http://www.w3.org/1999/xlink"><linearGradient id="a" gradientUnits="userSpaceOnUse" x1="463.557" x2="466.145" y1="442.38" y2="6.58237"><stop offset="0" stop-color="#bcdeff"/><stop offset=".1" stop-color="#bddfff" stop-opacity=".98"/><stop offset=".23" stop-color="#c1e0ff" stop-opacity=".92"/><stop offset=".36" stop-color="#c7e4ff" stop-opacity=".83"/><stop offset=".5" stop-color="#d0e8ff" stop-opacity=".7"/><stop offset=".65" stop-color="#dbedff" stop-opacity=".53"/><stop offset=".8" stop-color="#e9f4ff" stop-opacity=".33"/><stop offset=".95" stop-color="#f9fcff" stop-opacity=".09"/><stop offset="1" stop-color="#fff" stop-opacity="0"/></linearGradient><clipPath id="b"><path d="m0 0h919v475h-919z"/></clipPath><g clip-path="url(#b)"><path d="m919-54.3984h-919v676.6894h919z" fill="#d2e9ff"/><path d="m350.342 491.909h229.229v-570.1504h-229.229z" fill="url(#a)"/><path d="m464.747 842.984c220.718 0 399.646-178.678 399.646-399.088 0-220.411-178.928-399.0889-399.646-399.0889-220.719 0-399.6463 178.6779-399.6463 399.0889 0 220.41 178.9273 399.088 399.6463 399.088z" fill="#fff" opacity=".26"/><path d="m464.747 651.179c114.64 0 207.574-92.804 207.574-207.284s-92.934-207.284-207.574-207.284-207.574 92.804-207.574 207.284 92.934 207.284 207.574 207.284z" fill="#fff" opacity=".67"/><g fill="#0070f8"><path d="m463.103 241.523c2.717 0 4.918-2.199 4.918-4.911 0-2.713-2.201-4.911-4.918-4.911-2.716 0-4.917 2.198-4.917 4.911 0 2.712 2.201 4.911 4.917 4.911z"/><path d="m276.867 358.155c2.716 0 4.918-2.199 4.918-4.911s-2.202-4.911-4.918-4.911-4.918 2.199-4.918 4.911 2.202 4.911 4.918 4.911z"/><path d="m549.168 163.851c2.716 0 4.918-2.199 4.918-4.911s-2.202-4.911-4.918-4.911c-2.717 0-4.918 2.199-4.918 4.911s2.201 4.911 4.918 4.911z"/><path d="m745.625 163.851c2.716 0 4.918-2.199 4.918-4.911s-2.202-4.911-4.918-4.911-4.918 2.199-4.918 4.911 2.202 4.911 4.918 4.911z"/><path d="m378.467 164.608c2.716 0 4.918-2.198 4.918-4.911 0-2.712-2.202-4.911-4.918-4.911s-4.918 2.199-4.918 4.911c0 2.713 2.202 4.911 4.918 4.911z"/><path d="m463.103 48.8359c2.717 0 4.918-2.1988 4.918-4.9111 0-2.7124-2.201-4.9111-4.918-4.9111-2.716 0-4.917 2.1987-4.917 4.9111 0 2.7123 2.201 4.9111 4.917 4.9111z"/><path d="m186.361 163.851c2.716 0 4.918-2.199 4.918-4.911s-2.202-4.911-4.918-4.911-4.918 2.199-4.918 4.911 2.202 4.911 4.918 4.911z"/><path d="m71.8884 369.879c2.7161 0 4.918-2.199 4.918-4.911 0-2.713-2.2019-4.911-4.918-4.911s-4.9179 2.198-4.9179 4.911c0 2.712 2.2018 4.911 4.9179 4.911z"/><path d="m855.622 369.879c2.716 0 4.918-2.199 4.918-4.911 0-2.713-2.202-4.911-4.918-4.911s-4.918 2.198-4.918 4.911c0 2.712 2.202 4.911 4.918 4.911z"/></g><path d="m186.361 223.157c35.516 0 64.307-28.751 64.307-64.218 0-35.466-28.791-64.2173-64.307-64.2173s-64.307 28.7513-64.307 64.2173c0 35.467 28.791 64.218 64.307 64.218z" fill="#fff"/><path d="m148.604 169.656v-24.216c-.002-.673.13-1.339.386-1.961.257-.622.634-1.187 1.11-1.663s1.041-.854 1.663-1.112 1.289-.391 1.963-.391h36.567c2.542.001 5.003.899 6.946 2.535l12.193 10.185 15.717 3.79c.567.138 1.094.404 1.541.779.446.375.799.848 1.032 1.383l1.133 2.568c.202.472.306.981.306 1.494v5.986c.001.077-.013.153-.041.225-.028.071-.071.136-.124.191-.054.054-.119.098-.189.128-.071.029-.147.045-.224.045z" fill="#ffc347"/><path d="m180.355 140.234.522 29.274h48.261v-6.642c.005-.606-.127-1.205-.385-1.754l-1.133-2.331c-.214-.492-.538-.929-.949-1.274-.411-.346-.897-.591-1.42-.718l-15.864-3.802-11.332-9.901c-2.098-1.835-4.791-2.849-7.581-2.852z" fill="#ffc347"/><path d="m184.4 144.489v8.577c0 .24.096.47.266.64s.401.265.641.265h18.493c.139 0 .275-.043.39-.121.115-.079.203-.19.253-.32s.06-.271.028-.407c-.032-.135-.103-.257-.206-.351l-10.04-9.053c-.129-.112-.294-.172-.465-.17h-8.453c-.122 0-.243.025-.355.072-.112.048-.214.118-.298.205-.085.088-.151.192-.195.306-.043.113-.063.235-.059.357z" fill="#fff"/><path d="m215.313 175.404c3.248 0 5.881-2.629 5.881-5.873 0-3.243-2.633-5.873-5.881-5.873s-5.881 2.63-5.881 5.873c0 3.244 2.633 5.873 5.881 5.873z" fill="#34233c"/><path d="m215.313 171.602c1.146 0 2.074-.927 2.074-2.071 0-1.143-.928-2.071-2.074-2.071-1.145 0-2.073.928-2.073 2.071 0 1.144.928 2.071 2.073 2.071z" fill="#fff"/><path d="m146.87 161.225h50.653c.915 0 1.821.18 2.667.53.845.35 1.613.862 2.26 1.509.648.646 1.161 1.413 1.511 2.257.35.845.531 1.75.531 2.663v1.392h-57.622v-8.362z" fill="#f39719"/><path d="m162.474 175.404c3.248 0 5.881-2.629 5.881-5.873 0-3.243-2.633-5.873-5.881-5.873s-5.881 2.63-5.881 5.873c0 3.244 2.633 5.873 5.881 5.873z" fill="#34233c"/><path d="m162.474 171.602c1.145 0 2.073-.927 2.073-2.071 0-1.143-.928-2.071-2.073-2.071-1.146 0-2.074.928-2.074 2.071 0 1.144.928 2.071 2.074 2.071z" fill="#fff"/><path d="m112.127 299.799c25.69 0 46.516-20.797 46.516-46.451 0-25.655-20.826-46.452-46.516-46.452-25.6905 0-46.5166 20.797-46.5166 46.452 0 25.654 20.8261 46.451 46.5166 46.451z" fill="#fff"/><path d="m135.697 236.193h-48.8058v37.67h48.8058z" fill="#0070fe"/><path d="m135.697 236.193h-48.8058v10.444h48.8058z" fill="#34233c"/><path d="m97.3279 234.156h-1.7904c-.1314 0-.2379.107-.2379.238v4.583c0 .131.1065.237.2379.237h1.7904c.1315 0 .238-.106.238-.237v-4.583c0-.131-.1065-.238-.238-.238z" fill="#34233c"/><path d="m107.062 234.156h-1.79c-.132 0-.238.107-.238.238v4.583c0 .131.106.237.238.237h1.79c.131 0 .238-.106.238-.237v-4.583c0-.131-.107-.238-.238-.238z" fill="#34233c"/><path d="m116.796 234.156h-1.791c-.131 0-.238.107-.238.238v4.583c0 .131.107.237.238.237h1.791c.131 0 .238-.106.238-.237v-4.583c0-.131-.107-.238-.238-.238z" fill="#34233c"/><path d="m126.53 234.156h-1.791c-.131 0-.238.107-.238.238v4.583c0 .131.107.237.238.237h1.791c.131 0 .238-.106.238-.237v-4.583c0-.131-.107-.238-.238-.238z" fill="#34233c"/><path d="m103.232 246.638h-16.3408v13.432h16.3408z" fill="#0055bf"/><path d="m119.379 260.432h-16.34v13.432h16.34z" fill="#0055bf"/><path d="m135.708 246.638h-16.34v13.432h16.34z" fill="#0055bf"/><path d="m107.232 251.289 3.354 17.539 11.706-8.77z" fill="#ffc347"/><path d="m113.42 258.16-1.553 1.232 7.462 9.384 1.553-1.231z" fill="#f39719"/><path d="m107.232 251.289 3.354 17.539 7.048-5.273z" fill="#f39719"/><path d="m99.2541 253.461h-8.2948c-.0153.002-.0309 0-.0455-.005-.0145-.005-.0278-.013-.0387-.024s-.0192-.024-.0243-.039c-.005-.015-.0067-.03-.0049-.045-.0001-.015.0029-.029.0087-.042.0059-.013.0144-.025.0251-.035.0107-.009.0233-.017.0371-.021.0137-.004.0282-.006.0425-.004h8.2948c.0282 0 .0554.01.0763.029.021.019.0342.045.037.073 0 .03-.012.059-.0332.08-.0213.021-.0501.033-.0801.033z" fill="#fff"/><path d="m131.686 267.029h-8.295c-.014.002-.029 0-.043-.004-.013-.004-.026-.012-.037-.021-.01-.01-.019-.022-.025-.035s-.009-.027-.008-.042c-.002-.015-.001-.03.004-.045.006-.015.014-.028.025-.039s.024-.019.038-.024c.015-.005.031-.007.046-.005h8.295c.03 0 .059.012.08.033.021.022.033.05.033.08-.003.028-.016.054-.037.073s-.048.029-.076.029z" fill="#fff"/><path d="m99.2089 268.454h-8.2948c-.0301 0-.0589-.012-.0801-.033-.0213-.021-.0332-.05-.0332-.08.0028-.028.016-.054.0369-.073.021-.019.0482-.029.0764-.029h8.2948c.0143-.002.0288 0 .0425.004.0137.005.0263.012.037.021.0107.01.0193.022.0251.035s.0088.027.0087.042c.0018.015.0002.031-.0049.045-.005.015-.0134.028-.0243.039s-.0241.019-.0387.024-.0301.007-.0454.005z" fill="#fff"/><path d="m666.507 320.609-203.403-276.6842" stroke="#0067e8" stroke-linecap="round" stroke-linejoin="round"/><path d="m463.104 236.612v-192.6872" stroke="#0067e8" stroke-linecap="round" stroke-linejoin="round"/><path d="m250.668 158.939h494.957" stroke="#0067e8" stroke-linecap="round" stroke-linejoin="round"/><path d="m226.725 364.142h-157.3523" stroke="#0067e8" stroke-linecap="round" stroke-linejoin="round"/><path d="m855.361 364.142h-157.351" stroke="#0067e8" stroke-linecap="round" stroke-linejoin="round"/><path d="m262.963 317.69 200.14-273.7652" stroke="#0067e8" stroke-linecap="round" stroke-linejoin="round"/><path d="m464.747 101.047c25.69 0 46.516-20.7967 46.516-46.4513 0-25.6545-20.826-46.45166-46.516-46.45166-25.691 0-46.517 20.79716-46.517 46.45166 0 25.6546 20.826 46.4513 46.517 46.4513z" fill="#fff"/><path d="m472.803 53.679h-.555c-.917-3.0807-2.914-5.7287-5.626-7.4594-2.712-1.7306-5.957-2.4283-9.142-1.9653s-6.096 2.0556-8.202 4.4865c-2.105 2.431-3.263 5.5377-3.263 8.7516v.396c-1.769.1432-3.415.9628-4.594 2.2878s-1.8 3.0534-1.734 4.8247.813 3.4489 2.087 4.6831c1.274 1.2343 2.976 1.9299 4.751 1.9419h26.267c2.386 0 4.675-.9466 6.362-2.6316 1.688-1.6849 2.635-3.9702 2.635-6.3531s-.947-4.6683-2.635-6.3533c-1.687-1.685-3.976-2.6316-6.362-2.6316z" fill="#0070fe"/><path d="m459.409 44.1396c-3.552 0-6.959 1.4093-9.471 3.9176-2.512 2.5084-3.923 5.9105-3.923 9.4579v.396c-1.769.1432-3.415.9627-4.594 2.2878-1.179 1.325-1.8 3.0534-1.734 4.8247s.813 3.4489 2.087 4.6831c1.274 1.2343 2.976 1.9299 4.751 1.9419h12.873z" fill="#0055bf"/><path d="m490.594 47.0589c-.039-.4082-.229-.7873-.533-1.0634-.304-.276-.699-.4295-1.11-.4304h-.34c-.293.0055-.582-.0772-.827-.2376-.25-.1815-.44-.4338-.544-.7242l-.533-1.29c-.135-.2957-.176-.6258-.118-.9457.059-.3198.215-.6139.447-.8422l.249-.2264c.146-.1299.264-.2875.348-.4636.084-.176.133-.3669.142-.5618.01-.1948-.02-.3894-.086-.5728-.067-.1833-.169-.3517-.302-.4952l-1.076-1.1316c-.137-.1522-.302-.2753-.488-.362-.271-.1546-.584-.2202-.895-.1878-.311.0325-.605.1615-.838.3689l-.25.2262c-.246.2111-.552.3399-.875.3683s-.647-.0449-.926-.2098l-.59-.3056-.521-.2716c-.294-.1402-.538-.3675-.698-.651-.16-.2834-.229-.6093-.197-.9332v-.3282c.045-.3387-.029-.6824-.208-.9732-.18-.2907-.455-.5105-.778-.6223-.131-.0671-.273-.113-.419-.1357l-1.587-.2038c-.389-.0515-.782.0529-1.094.2904-.313.2375-.518.5888-.571.977v.3282c-.055.3202-.208.6157-.437.8465-.229.2307-.524.3856-.844.4435l-1.371.2942c-.296.0843-.61.0843-.906 0-.271-.1135-.5-.307-.658-.5544l-.181-.2829c-.24-.3331-.592-.5683-.992-.662-.4-.0936-.821-.0393-1.184.1527l-1.359.86c-.33.2113-.562.5439-.647.9254-.085.3814-.015.7809.193 1.1115l.182.2829c.159.2825.23.6066.201.9298-.028.3231-.154.6302-.36.8807l-.861 1.1316c-.187.2603-.448.458-.75.567-.301.1091-.628.1245-.939.0441l-.215-.0679h-.102c-.373-.1179-.777-.0842-1.125.0937-.348.178-.611.4859-.733.8567l-.488 1.5277c-.059.1849-.082.3799-.066.5736s.071.3824.161.5549c.089.1726.212.3256.361.4505.149.1248.322.2189.508.2768l.317.1019c.307.1126.572.3158.76.5827.188.2668.291.5846.294.911v1.3918c.025.3228-.05.6455-.214.9247s-.41.5014-.704.6369l-.306.1245c-.364.1504-.653.4379-.806.8002-.153.3622-.156.77-.01 1.1349l.612 1.4709c.086.223.231.4185.419.5658.204.1988.462.3336.742.3879s.569.0257.833-.0823l.318-.1245c.305-.1116.637-.1269.951-.0439s.595.2603.805.5079l.929 1.041c.23.23.383.5254.437.8455.055.3201.009.6494-.131.9425l-.158.2942c-.132.2545-.188.5417-.159.8269.028.2852.138.556.317.7799.116.1297.254.2371.408.3169l1.417.7469h.09c.211.1068.444.1612.68.1584.252-.0154.496-.0953.709-.2321.212-.1367.386-.3257.504-.5488l.158-.3055c.161-.2796.408-.5005.703-.6307.296-.1303.625-.163.94-.0936l.691.102.703.0905c.321.0166.629.1353.877.3389.249.2036.426.4814.506.7926l.079.3283c.073.3041.241.5774.479.7807.238.2032.534.3261.847.3508.172.0281.348.0281.521 0l1.552-.3395c.191-.0389.372-.1154.533-.2251.161-.1098.298-.2504.404-.4138.105-.1633.177-.3462.211-.5377.033-.1915.029-.3877-.014-.5773l-.068-.3282c-.056-.3172-.01-.644.133-.9329s.374-.525.66-.674l.6-.3734c.522-.3281.59-.3847.59-.3847.259-.1852.57-.2848.889-.2848s.63.0996.89.2848l.181.1472.091.0678c.153.1195.328.2075.515.2591s.383.0658.576.0416c.192-.0242.378-.0862.547-.1825s.317-.2249.435-.3785l.975-1.2673c.12-.1529.208-.3279.259-.5149.052-.187.066-.3823.042-.5747-.024-.1925-.086-.3782-.183-.5466-.096-.1684-.225-.3162-.379-.4347l-.09-.0679-.17-.1357c-.246-.2089-.422-.4875-.505-.7989-.083-.3113-.069-.6406.04-.9438l.431-1.3352c.091-.3089.274-.5827.525-.7849s.558-.3231.88-.3467h.328c.393-.0177.763-.1891 1.03-.4771s.41-.6694.398-1.0619z" fill="#ff5753"/><path d="m476.18 52.4913c2.347 0 4.25-1.8999 4.25-4.2435 0-2.3435-1.903-4.2434-4.25-4.2434s-4.249 1.8999-4.249 4.2434c0 2.3436 1.902 4.2435 4.249 4.2435z" fill="#fff"/><path d="m476.18 55.1501c3.818 0 6.913-3.0905 6.913-6.9027s-3.095-6.9027-6.913-6.9027c-3.817 0-6.912 3.0905-6.912 6.9027s3.095 6.9027 6.912 6.9027z" fill="#fff"/><path d="m476.18 52.6495c2.435 0 4.408-1.9708 4.408-4.4019s-1.973-4.4019-4.408-4.4019c-2.434 0-4.408 1.9708-4.408 4.4019s1.974 4.4019 4.408 4.4019z" fill="#34233c"/><path d="m666.507 407.662c24.07 0 43.582-19.485 43.582-43.521 0-24.035-19.512-43.52-43.582-43.52-24.069 0-43.581 19.485-43.581 43.52 0 24.036 19.512 43.521 43.581 43.521z" fill="#fff"/><path d="m685.805 346.545h-38.607v35.181h38.607z" fill="#f39719"/><path d="m684.23 346.545h-37.032v33.982h37.032z" fill="#ffc347"/><path d="m667.856 346.545h-6.006v35.012h6.006z" fill="#f39719"/><path d="m681.431 349.511h-9.655v6.778h9.655z" fill="#fff"/><path d="m262.725 409.994c25.691 0 46.517-20.797 46.517-46.452s-20.826-46.452-46.517-46.452c-25.69 0-46.516 20.797-46.516 46.452s20.826 46.452 46.516 46.452z" fill="#fff"/><path d="m262.725 385.766c12.292 0 22.256-9.95 22.256-22.224s-9.964-22.225-22.256-22.225c-12.291 0-22.255 9.951-22.255 22.225s9.964 22.224 22.255 22.224z" fill="#f39719"/><path d="m262.725 380.991c9.651 0 17.474-7.812 17.474-17.449s-7.823-17.449-17.474-17.449c-9.65 0-17.473 7.812-17.473 17.449s7.823 17.449 17.473 17.449z" fill="#ffc347"/><path d="m275.281 368.147h-15.332v-15.31h.77v14.541h14.562z" fill="#fff"/><path d="m750.543 189.515c18.293 0 33.123-14.809 33.123-33.076 0-18.268-14.83-33.077-33.123-33.077s-33.122 14.809-33.122 33.077c0 18.267 14.829 33.076 33.122 33.076z" fill="#fff"/><path d="m421.097 364.73h83.503c4.024.001 7.985.997 11.529 2.901s6.559 4.655 8.778 8.008l58.301 88.264c1.493 2.256 2.462 4.816 2.839 7.494.376 2.678.15 5.406-.663 7.986-1.239 3.94-3.782 7.342-7.213 9.647s-7.545 3.376-11.666 3.038l-24.182-1.992-16.102-31.073-3.252 34.264h-114.937l-6.448-52.969 4.306 36.89-31.015 10.772c-3.931 1.584-8.233 2.012-12.399 1.234s-8.022-2.729-11.114-5.624c-3.831-3.583-6.266-8.406-6.874-13.612s.651-10.458 3.554-14.825l52.783-79.505c2.213-3.349 5.223-6.097 8.761-7.999s7.493-2.898 11.511-2.899z" fill="#0072f5"/><path d="m400.121 478.752 68.556-26.266-10.541-27.437-68.557 26.266z" fill="#d3897d"/><path d="m430.91 312.168v-22.632c-.001-2.459.482-4.894 1.424-7.166.941-2.272 2.321-4.336 4.062-6.075 1.74-1.74 3.807-3.119 6.082-4.061 2.274-.941 4.713-1.425 7.175-1.425h26.527c4.974 0 9.744 1.973 13.261 5.485s5.493 8.275 5.493 13.242v28.946z" fill="#34233c"/><path d="m488.702 306.567c0-14.737-11.963-26.683-26.72-26.683-14.758 0-26.721 11.946-26.721 26.683v21.602c0 14.736 11.963 26.683 26.721 26.683 14.757 0 26.72-11.947 26.72-26.683z" fill="#d3897d"/><path d="m435.261 314.567 1.326-16.397c.092-1.147.429-2.261.987-3.268s1.325-1.883 2.25-2.57 1.986-1.168 3.113-1.412c1.126-.244 2.292-.245 3.418-.003l42.347 9.155v-24.477l-52.035.43-4.034 20.369z" fill="#34233c"/><path d="m442.933 272.042 52.001 22.632v-14.858c-.001-1.959-.427-3.894-1.247-5.672-.821-1.779-2.017-3.36-3.507-4.634-1.49-1.273-3.238-2.21-5.124-2.746-1.887-.536-3.867-.658-5.805-.357z" fill="#34233c"/><path d="m435.262 326.132c4.237 0 7.671-3.43 7.671-7.661s-3.434-7.661-7.671-7.661-7.672 3.43-7.672 7.661 3.435 7.661 7.672 7.661z" fill="#d3897d"/><path d="m488.702 326.132c4.237 0 7.671-3.43 7.671-7.661s-3.434-7.661-7.671-7.661-7.672 3.43-7.672 7.661 3.435 7.661 7.672 7.661z" fill="#d3897d"/><path d="m450.027 291.709s26.527 17.799 38.675 8.362l-11.457-18.207z" fill="#34233c"/><path d="m436.961 364.718h50.823c0 3.623-1.441 7.097-4.006 9.658s-6.044 4-9.671 4h-23.457c-3.627 0-7.106-1.439-9.671-4s-4.006-6.035-4.006-9.658z" fill="#d3897d"/><path d="m476.837 346.76h-28.929v31.617h28.929z" fill="#d3897d"/><path d="m485.268 483.015h-46.562c-1.421 0-2.789-.543-3.823-1.516-1.034-.974-1.657-2.306-1.74-3.723l-3.672-61.434c-.045-.757.066-1.515.325-2.228.26-.714.662-1.366 1.183-1.918s1.15-.992 1.847-1.293c.698-.301 1.449-.456 2.209-.456h53.848c.76 0 1.511.155 2.209.456.697.301 1.326.741 1.847 1.293s.923 1.204 1.183 1.918c.259.713.37 1.471.325 2.228l-3.638 61.48c-.097 1.404-.722 2.719-1.749 3.682-1.028.964-2.382 1.503-3.792 1.511z" fill="#fff"/><path d="m549.947 460.981-73.162-6.251-2.509 29.281 73.162 6.251z" fill="#d3897d"/><path d="m478.329 450.864-23.778-2.032c-2.232-.191-4.197 1.46-4.387 3.686-.191 2.226 1.464 4.185 3.696 4.376l23.778 2.031c2.232.191 4.197-1.459 4.387-3.685.191-2.226-1.464-4.186-3.696-4.376z" fill="#d3897d"/><path d="m475.356 458.816-31.941-2.729c-1.914-.164-3.599 1.253-3.763 3.165-.163 1.912 1.256 3.594 3.17 3.757l31.941 2.729c1.914.164 3.599-1.253 3.762-3.165.164-1.912-1.255-3.594-3.169-3.757z" fill="#d3897d"/><path d="m477.892 470.406-31.941-2.729c-1.914-.163-3.599 1.254-3.762 3.166-.164 1.911 1.255 3.594 3.169 3.757l31.941 2.729c1.914.164 3.599-1.254 3.763-3.165.163-1.912-1.256-3.594-3.17-3.758z" fill="#d3897d"/><path d="m478.502 477.425-25.302-2.162c-1.777-.152-3.341 1.164-3.493 2.938l-.037.429c-.152 1.775 1.166 3.336 2.943 3.488l25.302 2.162c1.777.152 3.341-1.164 3.493-2.938l.037-.429c.152-1.775-1.166-3.336-2.943-3.488z" fill="#d3897d"/><path d="m476.883 458.969-22.664-1.946s-4.272-.249-4.238-4.425z" fill="#c1736b"/><path d="m549.746 461.074-12.941 28.38 10.436.894z" fill="#c1736b"/><path d="m430.638 435.522-4.872 33.337 6.697-2.569z" fill="#c1736b"/><path d="m408.032 493.222 24.431-26.932-26.573 10.863z" fill="#005fcc"/><path d="m416.36 420.608-10.47 24.386 10.47-4.006z" fill="#005fcc"/><path d="m531.037 458.969-10.131-26.163v25.801z" fill="#005fcc"/><path d="m447.908 354.852s17.394 2.331 28.93 0v9.878h10.946l.544 8.046c.054.723-.041 1.449-.281 2.133-.239.684-.618 1.311-1.111 1.842-.494.531-1.092.955-1.757 1.245-.666.289-1.383.438-2.109.438h-16.68z" fill="#c1736b"/><path d="m450.027 291.708s21.462 21.501 38.675 15.526v-7.163s-7.105 8.872-38.675-8.363z" fill="#c1736b"/><path d="m450.809 321.696c.425 0 .77-1.363.77-3.044s-.345-3.044-.77-3.044c-.426 0-.771 1.363-.771 3.044s.345 3.044.771 3.044z" fill="#34233c"/><path d="m471.104 322.793c.425 0 .77-1.363.77-3.044s-.345-3.044-.77-3.044c-.426 0-.771 1.363-.771 3.044s.345 3.044.771 3.044z" fill="#34233c"/><path d="m743.234 172.87-.09-.374 17.28-3.994-12.68-5.624.159-.362 13.757 6.11z" fill="#34233c"/><path d="m747.823 164.756c2.56 0 4.635-.922 4.635-2.06 0-1.137-2.075-2.059-4.635-2.059-2.559 0-4.634.922-4.634 2.059 0 1.138 2.075 2.06 4.634 2.06z" fill="#0070fe"/><path d="m761.059 170.618c2.56 0 4.635-.922 4.635-2.059 0-1.138-2.075-2.06-4.635-2.06s-4.635.922-4.635 2.06c0 1.137 2.075 2.059 4.635 2.059z" fill="#0070fe"/><path d="m743.189 174.747c2.559 0 4.634-.922 4.634-2.06 0-1.137-2.075-2.059-4.634-2.059-2.56 0-4.635.922-4.635 2.059 0 1.138 2.075 2.06 4.635 2.06z" fill="#0070fe"/><path d="m747.891 136.84h-.226c-2.262.027-4.423.944-6.012 2.552s-2.479 3.777-2.475 6.037c-.013 1.129.202 2.249.634 3.293 0 0 .589 1.131.884 1.584l7.082 12.391 7.082-12.391c.295-.43.884-1.584.884-1.584.432-1.044.648-2.164.635-3.293.003-2.26-.887-4.429-2.476-6.037s-3.749-2.525-6.012-2.552z" fill="#ff5753"/><path d="m747.823 149.219c2.46 0 4.454-1.991 4.454-4.447s-1.994-4.447-4.454-4.447c-2.459 0-4.453 1.991-4.453 4.447s1.994 4.447 4.453 4.447z" fill="#fff"/><path d="m747.823 162.697-7.082-12.391c-.295-.43-.884-1.584-.884-1.584-.431-1.044-.647-2.164-.634-3.293-.004-2.26.886-4.429 2.475-6.037s3.75-2.525 6.012-2.552h.227s-8.408 2.195-5.666 11.033z" fill="#d64141"/></g></svg>