<svg fill="none" height="715" viewBox="0 0 624 715" width="624" xmlns="http://www.w3.org/2000/svg" xmlns:xlink="http://www.w3.org/1999/xlink"><clipPath id="a"><path d="m0 0h624v715h-624z"/></clipPath><clipPath id="b"><path d="m30.6094 0h594v868h-594z"/></clipPath><g clip-path="url(#a)"><rect fill="#dbecfe" height="1335.27" rx="249.311" transform="matrix(.56143651 -.82751982 .82751982 .56143651 -303.416093 88.726076)" width="498.621" x="-68" y="330.619"/><g clip-path="url(#b)"><path d="m115.844 227.851-65.2346-64.616c63.4996-131.235 184.3336-152.9998 239.4996-145.9998v56.8705c0 16.3639-13.265 29.6293-29.629 29.6293-10.992 0-21.08 6.085-26.208 15.807l-51.722 98.064c-13.157 24.944-46.67 30.091-66.706 10.245z" fill="#bcdeff"/><path d="m657.718 827.861-178.021-120v-109.208c-.777-10.902-4.664-21.046-10.883-28.012l-45.088-51.026c-13.549-15.293-14.771-43.153-2.666-60.566 3.665-5.148 8.218-9.085 13.216-11.205l96.173-39.973c13.105-5.451 21.878-22.106 21.545-40.73l-.444-126.28h106.168z" fill="#bcdeff"/><path d="m276.591 131.455-.229 326.614 54.261.038.229-326.614z" fill="#d2e9ff"/><path d="m142.014 164.473 95.747 296.371 51.634-16.657-95.747-296.37z" fill="#bcdeff"/><path d="m302.188 402.32v-249.104" stroke="#0067e8" stroke-dasharray="8 8" stroke-miterlimit="10" stroke-width=".5"/><path d="m332.987 64.8855-7.227-8.333-.779.3333-.444-23.7771 1.556-1.3333s0 0 .112-.1111l6.226 2.6666c.111-.1111.223-.2222.223-.3333l.111-.1111.222-.4445c.334-.7777 0-1.5555-.778-1.8888l-5.115-2.111c-.445-.2222-.889-.1111-1.223 0l-1.334-1.1111-.111-4.7777c0-3.9998-3.447-7.222-8.006-8.2219-3.225-1.1111-7.895-1.8889-13.121-1.8889-5.337 0-10.118.7778-13.343 2-4.781.8888-8.45 4.3332-8.339 8.4442l.111 4.7776-.889.6667c-.334-.2223-.778-.2223-1.223 0l-5.115 2.111c-.778.3333-1.112 1.2222-.778 1.8888l.222.4445.111.1111c.111.1111.111.2222.223.3333l6.226-2.6666s0 0 .112.1111l1.334 1.1111.445 24.4437c0 2.2222 1.111 3.111 2.779 3.4443v1.8889c0 .4444.334.7777.779.7777h20.125l-21.793 7.3331h-.111l-13.566 78.1089 7.784 8.333.111-.222v.111l-.111.111h.111 54.483.556v-92.2195z" fill="#abd0ef" opacity=".58"/><path d="m316.419 57.219c0 .4444-.334.7777-.778.7777h-34.803c-.445 0-.778-.3333-.778-.7777v-5.5554c0-.4444.333-.7777.778-.7777h34.803c.444 0 .778.3333.778.7777z" fill="#34233c"/><path d="m298.184 19.1091c9.579 0 17.345-2.4375 17.345-5.4443 0-3.0067-7.766-5.44422-17.345-5.44422-9.58 0-17.346 2.43752-17.346 5.44422 0 3.0068 7.766 5.4443 17.346 5.4443z" fill="#34233c"/><path d="m287.955 55.3302c-5.894 0-10.786 1.4444-10.786-3.3333l-.667-33.4434c-.111-4.7777 4.67-8.66645 10.563-8.66645l21.349-.11111c5.893 0 10.785 3.77766 10.785 8.44416l.667 33.4435c.111 4.7777-4.67 3.4443-10.563 3.5555z" fill="#34233c"/><path d="m282.624 16.2437c2.11-1.9681 3.209-4.2181 2.454-5.0255-.754-.8074-3.076.1335-5.186 2.1016-2.109 1.9681-3.208 4.2181-2.454 5.0255s3.076-.1335 5.186-2.1016z" fill="#fff"/><path d="m318.569 18.8676c.808-.7538-.134-3.0739-2.103-5.1822-1.97-2.1082-4.221-3.2062-5.029-2.4525s.133 3.0738 2.103 5.1821c1.969 2.1082 4.221 3.2063 5.029 2.4526z" fill="#fff"/><path d="m281.839 65.9959s5.782 3.5554 6.671 2.3333c.779-1-6.671-2.3333-6.671-2.3333z" fill="#b03c3c"/><path d="m314.751 65.7744s-5.671 3.6665-6.672 2.3332c-.778-.9999 6.672-2.3332 6.672-2.3332z" fill="#b03c3c"/><path d="m306.411 13.998c0 .4445-.333.7778-.778.7778h-14.788c-.445 0-.779-.3333-.779-.7778v-2.2222c0-.4444.334-.7777.779-.7777h14.788c.445 0 .778.3333.778.7777z" fill="#34233c"/><path d="m288.733 53.7747c-5.226 0-9.451-2.3333-9.451-5.2221v-31.1102c0-2.8888 4.114-5.3331 9.34-5.3331l18.791-.1111c5.226 0 9.452 2.2221 9.452 5.1109l.333 31.1102c0 2.8888-4.114 5.222-9.34 5.3331z" fill="#dd3e3e"/><path d="m290.734 52.3303c-4.114 0-7.45-2.111-7.561-4.6665v-8.1109c0-2.6666 3.224-4.7776 7.45-4.7776l14.899-.1111c4.114 0 7.45 2.111 7.561 4.6665l.334 8.222c0 2.6666-3.225 4.7776-7.339 4.7776z" fill="#ff5753"/><path d="m291.846 27.6644c-3.558 0-6.449-1.6666-6.449-3.7777v-6.4442c0-2.1111 2.78-3.7777 6.338-3.7777l12.676-.1111c3.558 0 6.338 1.6666 6.449 3.6666l.222 6.4442c0 2.1111-2.779 3.7777-6.337 3.7777z" fill="#ff5753"/><path d="m325.647 56.6635h-54.706v90.7755h54.706z" fill="#ff5753"/><path d="m273.945 142.328-3.113 5.111v-90.7754l3.113 5.1109z" fill="#dd3e3e"/><path d="m320.533 143.883 4.559 3.556h-54.261l4.67-3.556z" fill="#34233c"/><path d="m275.502 60.219-4.67-3.5554h54.261l-4.559 3.5554z" fill="#dd3e3e"/><path d="m295.738 19.6646c-11.564.4445-16.234 6.4443-16.234 6.4443l3.447 10.333s2.557-3.3332 15.122-3.5555c10.007 0 15.122 3.2222 15.122 3.2222l3.224-10.4442c.111.1111-2.001-6.6664-20.681-5.9998z" fill="#fff"/><path d="m268.829 28.4419c0 .1111.111.2222.222.3333l7.895-2.9998c0-.1111 0-.3333-.111-.4444v-.1112l-8.006 2.9999z" fill="#34233c"/><path d="m274.723 24.109-5.226 1.9999c-.779.3333-1.223 1.1111-.89 1.8888l.111.4444 8.006-2.9998-.111-.4445c-.334-.8888-1.112-1.2222-1.89-.8888z" fill="#ff5753"/><path d="m326.871 30.2198c-.111.1111-.111.2222-.222.3333l-7.672-3.5554c0-.1111.111-.3333.111-.4444l.111-.1112 7.783 3.6666z" fill="#34233c"/><path d="m321.312 25.4422 5.003 2.3332c.779.3333 1.112 1.2222.779 1.9999l-.223.4445-7.783-3.6666.222-.4444c.334-.7777 1.223-1.1111 2.002-.6666z" fill="#ff5753"/><path d="m316.974 28.8865-2.446 8.1109c-.111.2222-.111.4444-.111.6666l.111 7.8887c0 .6666.334 1.2222.779 1.6666l1.89 1.6666z" fill="#fff"/><path d="m279.282 28.8865 2.558 8.1109c.111.2222.111.4444.111.6666v7.8887c0 .6666-.334 1.2222-.779 1.6666l-1.779 1.6666z" fill="#fff"/><path d="m-40.3906 283.212h126.8684c35.0252 0 67.4922 18.333 85.5052 48.443l53.149 88.442h-60.71l-36.581-63.22c-9.229-16-26.353-25.888-44.9214-25.888h-123.3102z" fill="#f7f9fb"/><path d="m345.218 436.319v-150.329c0-39.11 31.689-70.776 70.828-70.776h241.617v54.999l-224.605-2.111c-18.791-.223-34.135 14.888-34.135 33.554v126.219z" fill="#fff"/><path d="m192.109 119.328-5.893-.333c-.445 0-.89.111-1.223.444l-1.779-.666-1.668-4.667c-1.446-3.889-6.004-6-10.897-5.444-3.558 0-8.561.889-13.787 2.778-5.338 1.888-9.896 4.333-12.676 6.666-4.559 2.555-6.894 7.333-5.337 11.444l1.779 4.889-.556.889c-.445 0-.89.111-1.223.444l-4.337 4c-.667.556-.667 1.555-.111 2.222l.334.333.111.112c.111.111.222.222.333.333l5.338-4.889h.111l1.556.556 30.244 83.331c.89 2.555 2.669 2.888 5.004 2.222l5.226 14.888.889-.333.89-.334-5.226-14.888 5.226 14.888.889-.333-5.226-14.888c1.335-.556 2.78-1.222 4.337-1.778l21.237-7.778c1.668-.666 3.336-1.111 4.781-1.555l5.338 15.111.889-.334.89-.333.889-.333-5.448-15.222c1.89-1 2.78-2.222 1.89-4.667l-29.91-82.553 1.223-2v-.111l7.227.445c0-.111.111-.334.111-.445v-.111-.444c.112-.778-.556-1.556-1.445-1.556z" fill="#abd0ef" opacity=".58"/><path d="m210.798 218.825-6.73-18.952-1.257.446 6.73 18.952z" fill="#34233c"/><path d="m209.885 219.173-6.73-18.953-1.257.446 6.73 18.952z" fill="#0055bf"/><path d="m208.467 219.694-6.73-18.953-1.257.446 6.73 18.952z" fill="#0067e8"/><path d="m168.523 212.46 6.73 18.952 1.257-.445-6.73-18.953z" fill="#34233c"/><path d="m169.396 212.057 6.73 18.952 1.257-.446-6.73-18.952z" fill="#0055bf"/><path d="m170.681 211.62 6.73 18.952 1.258-.446-6.73-18.952z" fill="#0067e8"/><path d="m168.981 102.106c-1.112-2.2217-3.558 14.778-13.12 18.222-9.563 3.445-22.572-8.555-21.794-6.222-1.112-3 5.893-8.222 15.456-11.666 9.673-3.4446 17.79-3.7779 19.458-.334z" fill="#34233c"/><path d="m177.098 212.881c-7.005 2.444-11.564 1.778-13.454-3.556l-29.688-81.997c-3.78-10.111-.667-17.222 5.115-19.333l21.348-7.666c6.005-2.1113 12.565 1.444 16.234 11.555l29.577 81.553c.445 1.111.667 2.222.556 3.444-.223 4-3.336 6.445-8.339 8.222z" fill="#34233c"/><path d="m138.68 115.255c1.586-2.556 2.067-5.125 1.076-5.739-.992-.615-3.081.959-4.667 3.514-1.585 2.556-2.066 5.125-1.075 5.74.992.614 3.081-.96 4.666-3.515z" fill="#fff"/><path d="m171.173 105.514c.383-1.101-1.612-2.793-4.454-3.779-2.843-.985-5.457-.891-5.84.21-.382 1.102 1.612 2.793 4.455 3.779 2.842.986 5.457.892 5.839-.21z" fill="#fff"/><path d="m159.863 105.44c.112.444-.111.889-.556 1.111l-14.788 5.222c-.445.111-.889-.111-1.112-.556l-.778-2.222c-.111-.444.111-.889.556-1.111l14.788-5.222c.445-.111.89.111 1.112.556z" fill="#34233c"/><path d="m177.209 210.992c-5.226 1.889-10.119 1.667-12.342-4.889l-28.576-80.775c-3.003-8.333-.112-13.666 5.003-15.555l18.791-6.778c5.337-1.889 10.675.445 13.788 8.667l28.798 80.22c2.335 6.777-1.112 10.221-6.226 12.11z" fill="#0055bf"/><path d="m178.766 208.881c-5.893 2.111-9.229-2.111-10.118-4.777l-20.571-58.11c-1-2.666 1.557-6 5.671-7.444l14.9-5.333c4.114-1.445 8.228-.556 9.228 2l20.904 58.22c1.001 2.667.556 8.111-4.781 10z" fill="#0067e8"/><path d="m152.525 131.217c-3.558 1.222-7.005.666-7.783-1.445l-2.335-6.444c-2.78-7.444-.89-11.666 2.557-13l12.676-4.555c3.558-1.333 7.45.889 10.229 8.333l2.558 6.444c.778 2.111-1.446 4.778-5.004 6.111z" fill="#0067e8"/><path d="m153.748 121.328c-11.452 4.333-14.121 12.111-14.121 12.111l7.116 9.222s1.446-4.222 14.01-8.778c10.118-3.555 16.345-1.889 16.345-1.889l-.333-11.666s-4.448-6.111-23.017 1z" fill="#fff"/><path d="m129.842 140.216c.111.111.222.223.333.334l6.672-6c-.111-.111-.111-.222-.223-.333l-.111-.112z" fill="#0055bf"/><path d="m133.956 133.55-4.336 4c-.667.555-.667 1.555-.111 2.222l.333.333 6.672-6.111-.334-.333c-.556-.667-1.557-.667-2.224-.111z" fill="#0067e8"/><path d="m187.883 119.439c0 .111 0 .333-.111.445l-8.895-.556c0-.111 0-.333 0-.445v-.111l9.118.556z" fill="#0055bf"/><path d="m180.546 116.773 5.893.333c.889 0 1.557.778 1.557 1.666v.445l-9.118-.556v-.444c0-.889.778-1.444 1.668-1.444z" fill="#0067e8"/><path d="m178.543 124.772.334 9c0 .222 0 .445.111.667l2.779 7.888c.223.667.779 1.111 1.446 1.334l2.446 1z" fill="#fff"/><path d="m140.739 138.105 5.449 7.222c.111.223.222.334.333.556l2.78 7.889c.222.666.111 1.333-.222 1.999l-1.224 2.334z" fill="#fff"/><path d="m406.372 576.87h-233.722c-4.559 0-8.228-3.667-8.228-8.222v-143.329c0-4.556 3.669-8.222 8.228-8.222h233.611c4.559 0 8.228 3.666 8.228 8.222v143.218c.111 4.555-3.558 8.333-8.117 8.333z" fill="#0067e8"/><path d="m395.143 564.315h-211.707c-3.781 0-6.894-2.556-6.894-5.778v-124.218c0-3.334 3.113-5.889 7.005-5.889h211.373c3.892 0 7.005 2.667 7.005 5.889v23.11 100.997c.111 3.222-3.002 5.889-6.782 5.889z" fill="#fff"/><path d="m185.215 208.77 69.716 209.772" stroke="#0067e8" stroke-dasharray="8 8" stroke-miterlimit="10" stroke-width=".5"/><path d="m204.896 430.319-54.595-84.331c-8.673-13.444-22.905-22.332-38.805-24.221l-23.1278-22.333" stroke="#0067e8" stroke-dasharray="8 8" stroke-miterlimit="10" stroke-width=".5"/><path d="m369.901 424.43c1.223-2.444.779-81.442.445-134.662-.222-26.444 21.126-47.888 47.59-47.888h96.958" stroke="#0067e8" stroke-dasharray="8 8" stroke-miterlimit="10" stroke-width=".5"/><path d="m346.441 377.098h-83.393v102.219h83.393z" fill="#ffc347"/><path d="m295.627 377.098h-63.045v102.219h63.045z" fill="#f39719"/><path d="m294.96 376.765h-15.122v102.886h15.122z" fill="#34233c"/><g fill="#af675b"><path d="m277.391 501.65-2.668.111c-3.559.111-6.672-2.666-6.783-6.222l-2.335-56.998c-.222-4.333 3.224-8 7.561-8.222 4.336-.222 8.006 3.222 8.228 7.555l2.335 56.999c.111 3.555-2.669 6.666-6.338 6.777z"/><path d="m294.181 528.316-2.668.111c-3.558.111-6.672-2.666-6.783-6.222l-2.335-56.998c-.222-4.333 3.224-8 7.561-8.222 4.336-.222 8.006 3.222 8.228 7.555l2.335 56.999c.111 3.666-2.668 6.666-6.338 6.777z"/><path d="m310.638 535.427-3.447.111c-3.447.111-6.227-2.555-6.449-5.889l-2.335-57.442c-.223-4.334 3.224-8 7.561-8.222 4.336-.223 8.005 3.222 8.228 7.555l2.335 57.443c.111 3.444-2.558 6.333-5.893 6.444z"/><path d="m325.426 520.316-2.669.111c-3.558.111-6.671-2.666-6.783-6.222l-1.223-30.554c-.222-4.334 3.225-8 7.561-8.222 4.337-.223 8.006 3.222 8.228 7.555l1.224 30.555c0 3.666-2.78 6.666-6.338 6.777z"/><path d="m279.838 538.871-37.805-49.332c-3.002-3.888-2.224-9.555 1.89-12.444 3.892-2.777 9.451-1.889 12.231 2.111l36.137 50.888z"/><path d="m251.15 501.428 37.694 48.776-4.559 112.775h53.594l-6.227-106.997v-43.777l-57.04-33.999-7.45 18z"/></g><path d="m284.905 563.861h55.312l4.502 151h-62z" fill="#ff5753"/><path d="m317.719 714.861-32.772-151-2.228 151z" fill="#34233c"/><path d="m277.058 431.208 6.004 66.776-1.668-59.999c0-.111-.111-4.333-4.336-6.777z" fill="#a0544a"/><path d="m248.481 475.54 28.576 32.332-21.015-28.666s-2.112-3.555-7.561-3.666z" fill="#a0544a"/><path d="m294.515 458.207 4.114 39.666-.445-33.333s-.445-4.444-3.669-6.333z" fill="#a0544a"/><path d="m310.526 465.318 4.782 34.554-1.335-29.554c.111 0-.778-3.222-3.447-5z" fill="#a0544a"/><path d="m118.389 281.101-4.781 2.445c-.334.222-.667.555-.778.888l-1.668.334-3.447-2.889c-4.225-3.444-8.1171-4.889-11.4528-4.889-2.6686-.778-8.6729 3.333-14.2324 9.778-3.6693 4.333-6.2267 8.666-7.1162 11.888-1.5567 4.222.2224 9.778 6.3378 14.889l3.5582 3v1c-.3336.222-.6672.444-.7784.888l-1.5567 5.111c-.2223.778.2224 1.556.8896 1.778l.4447.111h.1112c.1112 0 .3336.111.4448.111l2.0014-6.222h.1112l1.4455-.222 47.7011 39.666c3.558 2.888 5.559-1.445 9.228-5.889l13.232-15.777c3.669-4.334 7.561-7.111 4.003-10l-47.145-39.221v-2.111-.111l5.893-3c0-.111-.111-.222-.111-.445l-.111-.111-.222-.333c-.445-.778-1.224-1.111-2.002-.667z" fill="#abd0ef" opacity=".58"/><path d="m91.5914 277.323c-1.8903-1.222 4.0028 13.222-2.0015 20.333s-21.6822 3.555-19.9031 5.111c-2.2238-1.889.8895-9.111 6.7826-16.222 6.0043-7.111 12.231-11.111 15.122-9.222z" fill="#34233c"/><path d="m139.182 352.655c-4.336 5.111-8.228 6.666-12.12 3.333l-51.3698-42.777c-7.561-6.222-8.4505-13.221-4.7812-17.443l13.2317-15.778c3.6692-4.444 10.563-4.555 18.1243 1.667l51.036 42.554c.779.667 1.557 1.445 2.002 2.445 1.667 3.222.222 6.555-2.78 10.333z" fill="#34233c"/><path d="m73.7895 301.563c.0735-2.699-.7627-4.912-1.8676-4.942s-2.0602 2.134-2.1336 4.833c-.0735 2.699.7627 4.911 1.8676 4.941s2.0602-2.134 2.1336-4.832z" fill="#fff"/><path d="m90.4586 281.95c2.6514-.52 4.6283-1.82 4.4154-2.904s-2.5349-1.541-5.1864-1.021-4.6283 1.821-4.4154 2.904c.2129 1.084 2.5349 1.541 5.1864 1.021z" fill="#fff"/><path d="m85.9214 284.213c.3336.222.3336.777.1112 1.111l-9.2288 10.888c-.2224.334-.7784.334-1.1119.111l-1.6679-1.333c-.3336-.222-.3336-.778-.1112-1.111l9.2288-10.889c.2224-.333.7784-.333 1.112-.111z" fill="#34233c"/><path d="m138.403 351.099c-3.224 3.889-7.116 6-12.008 1.889l-49.9245-42.332c-6.2267-5.111-6.3379-10.666-3.1134-14.444l11.675-13.889c3.2245-3.888 8.5617-4.555 14.7883.556l49.8136 41.777c5.003 4.222 3.78 8.444.667 12.332z" fill="#f39719"/><path d="m138.626 348.766c-3.669 4.333-8.228 2.555-10.118.889l-33.2459-28.11c-2.0014-1.667-1.4454-5.445 1.112-8.445l9.2289-10.999c2.557-3.111 6.227-4.222 8.117-2.556l33.579 27.999c2.002 1.667 4.114 6.111.779 10z" fill="#ffc347"/><path d="m91.9255 307.767c-2.2238 2.556-5.2259 3.667-6.7826 2.444l-4.7812-3.999c-5.5595-4.667-6.1155-8.778-3.8916-11.333l7.8945-9.445c2.2238-2.666 6.2266-2.666 11.7862 1.889l5.0032 3.889c1.557 1.333 1.001 4.444-1.112 7z" fill="#ffc347"/><path d="m88.3675 299.434c-7.005 8.667-5.5596 15.889-5.5596 15.889l9.7848 3.999s-.8895-3.999 7.005-13.333c6.3383-7.333 11.8973-8.999 11.8973-8.999l-5.559-9c0 .111-6.2271-2.555-17.5685 11.444z" fill="#fff"/><path d="m78.3604 325.211c.1111 0 .3336.111.4447.111l2.4462-7.777c-.1111-.111-.2223-.111-.3335-.222h-.1112z" fill="#f39719"/><path d="m78.4719 318.1-1.5566 5.111c-.2224.778.2223 1.556.8895 1.778l.4448.111 2.4461-7.889-.4447-.111c-.7783-.111-1.5567.333-1.7791 1z" fill="#ffc347"/><path d="m114.387 282.323c.111.111.111.222.111.445l-7.227 3.666c-.111-.111-.222-.222-.222-.333l-.111-.111 7.338-3.778z" fill="#f39719"/><path d="m107.382 283.657 4.781-2.445c.667-.333 1.557-.111 1.89.556l.223.333-7.339 3.778-.222-.334c-.334-.666-.112-1.555.667-1.888z" fill="#ffc347"/><path d="m109.494 290.768 4.337 6.888c.111.223.222.334.444.445l5.893 5c.445.444 1.112.555 1.779.444l2.335-.333z" fill="#fff"/><path d="m85.9219 318.656 7.5609 3.222c.2224.111.3336.222.556.333l5.8931 5c.4451.445.7781 1 .7781 1.667l.111 2.333z" fill="#fff"/><path d="m531.796 264.324.556-1.111h.445c.333-.111 1-1 1.556-1.889l-1.223 2.444v.223c0 .111.112.111.223.222.222.111.333 0 .444-.111l2.447-4.778c.111-.444.222-1.444-.667-1.889-.112-.111-.223-.111-.334-.222 0-.222-.111-.333-.222-.555.111-.223.111-.445.222-.667.111-.667-.111-4.889-.222-7.555h5.448c.222 0 .445-.223.445-.445s-.223-.444-.445-.444h-5.448c0-.111 0-.223 0-.334h8.005c.445 0 .779-.111 1.112-.444h10.563c.779 0 1.335-.556 1.335-1.333 0-.778-.556-1.334-1.335-1.334h-10.563c-.333-.222-.667-.444-1.112-.444h-8.005c0-.111 0-.222 0-.333h5.448c.222 0 .445-.223.445-.445s-.223-.444-.445-.444h-5.448c.222-2.667.444-6.889.222-7.556 0-.222-.111-.555-.222-.666.111-.111.222-.334.222-.556.111-.111.222-.111.334-.222.778-.444.778-1.444.667-1.889l-2.447-4.777c-.111-.112-.333-.223-.444-.112-.111 0-.112.112-.223.223v.222l1.223 2.444c-.556-.889-1.223-1.778-1.556-1.889-.111-.111-.334-.111-.445 0l-.556-1.111c-.222-.555-.89-.666-1.445-.444-.556.222-.668.889-.445 1.444l.556 1c-.111 0-.111 0-.223.111-.667.334-1.556.445-2.112.445-.667 0-1.223.111-1.668.222-2.558-.222-5.56-.333-8.117-.333-2.001 0-4.448.333-5.671 1-.444 0-.778.111-1.223.111-1.557.222-3.002.778-3.892 1.555-.667 0-1.445.111-2.223.334-.556.222-1.112.444-1.557.777-1.668-.555-3.78-.666-6.115-.222-.334 0-.89.111-1.78.222-2.557.445-7.227 1.556-10.118 5h-2.001v-6.666c0-.667-.556-1.111-1.112-1.111h-26.13c-.667 0-1.112.555-1.112 1.111v29.221c0 .667.445 1.111 1.112 1.111h26.13c.667 0 1.112-.444 1.112-1.111v-6.666h1.89c3.002 3.555 7.783 4.444 10.229 4.777.668.111 1.224.111 1.335.222 2.78.667 5.337.667 7.227 0 .334.112.556.223.89.334.778.222 1.556.333 2.223.333.89.667 2.335 1.222 3.892 1.556.445.111.779.111 1.223.111 1.223.666 3.67 1 5.671 1 2.557 0 5.559-.111 8.117-.334.445.111 1.112.223 1.668.223s1.445.222 2.112.444c.112 0 .112.111.223.111l-.556 1c-.223.556-.111 1.111.445 1.444.555.334 1.223 0 1.445-.555zm3.781-5.333-.556 1.111c.333-.667.444-1.333.222-1.667-.111-.111-.222-.222-.334-.333l.112-.333s.111 0 .111.111c.667.333.445 1.111.445 1.111zm-4.003-2.556c-1.112.556-.89.667-1.335 1-.667.556-1.779.667-2.557.778-.445.111-.89.222-1.223.222-1.779-.222-4.003-.555-5.893-1.222-1.112-.444-2.446-.444-3.669-.111-.89-.889-2.558-1.667-4.448-2-.556-.111-1.112-.111-1.668-.111-.445-.778-1.223-1.444-2.224-2 .223-.111.556-.222.779-.444 2.001.555 3.78.888 5.114.888 3.67 0 6.672-2.777 7.45-6.333h8.117c.445.556 1.001.778 1.668.889 0 .222.222.333.445.333h1.779c.222 3.111.333 6.889.333 7.334 0 .222-.111.333-.222.555-.334 0-.556.222-.667.445v-.112c-.667 0-1.001-.444-1.779-.111zm2.335-13.11v.333h-1.112c.222-.111.333-.222.445-.333zm0 3.777v.334h-.779c-.111 0-.222-.112-.444-.334zm-2.335-12.777c.778.333 1.112-.111 1.779-.222v-.111c.222.222.444.444.667.444.111.111.111.333.222.556.111.555-.111 4.222-.333 7.444h-1.668c-.223 0-.445.111-.445.333-.667 0-1.223.333-1.668.889h-8.117c-.778-3.667-3.891-6.444-7.672-6.444-1.223 0-3.113.333-5.003.889-.223-.112-.445-.223-.556-.334v-.111c.889-.555 1.667-1.222 2.112-1.889.556 0 1.112 0 1.668-.111 2.001-.333 3.558-1.111 4.448-2 1.223.222 2.557.222 3.669-.111 1.89-.667 4.114-1 5.893-1.222.334.111.778.222 1.223.222.667.111 1.89.333 2.558.778.333.333.111.444 1.223 1zm3.669-2.111c.222-.333 0-1-.222-1.667l.556 1.111s.222.778-.334 1.111l-.111.111-.111-.333c.111 0 .222-.111.222-.333zm-2.113 1.333-.222-.333s-.111-.111-.111-.222zm-.222 23.999.222-.333-.222.556c-.111-.111 0-.223 0-.223z" fill="#abd0ef" opacity=".58"/><path d="m540.579 244.214c-.778 0-1.334-.556-1.334-1.333 0-.778.556-1.334 1.334-1.334h17.902c.779 0 1.335.556 1.335 1.334 0 .777-.556 1.333-1.335 1.333z" fill="#34233c"/><path d="m469.418 244.214c-.778 0-1.334-.556-1.334-1.333 0-.778.556-1.334 1.334-1.334h17.902c.778 0 1.334.556 1.334 1.334 0 .777-.556 1.333-1.334 1.333z" fill="#34233c"/><path d="m523.012 244.658c-1.001 0-1.668-.777-1.668-1.666 0-1 .778-1.667 1.668-1.667h23.683c1.001 0 1.668.778 1.668 1.667 0 1-.778 1.666-1.668 1.666z" fill="#ffc347"/><path d="m480.537 244.658c-1.001 0-1.668-.777-1.668-1.666 0-1 .778-1.667 1.668-1.667h18.235c1.001 0 1.668.778 1.668 1.667 0 1-.778 1.666-1.668 1.666z" fill="#5ebae7"/><path d="m505.666 243.992c-.556 0-1.112-.445-1.112-1.111 0-.556.444-1.111 1.112-1.111h32.467c.556 0 1.112.444 1.112 1.111 0 .555-.445 1.111-1.112 1.111z" fill="#f39719"/><path d="m544.694 245.436c0-.222-.222-.444-.445-.444h-7.227c-.223-.111-1.334-1.111-1.334-2s1.111-2 1.334-2h7.227c.223 0 .445-.222.445-.444 0-.223-.222-.445-.445-.445h-8.228c-.222 0-.445.111-.445.333-1.223 0-2.223 1.223-2.223 2.556s1 2.555 2.223 2.555c0 .223.223.334.445.334h8.228c.223 0 .445-.223.445-.445z" fill="#f39719"/><path d="m462.969 244.214c-.778 0-1.334-.556-1.334-1.333 0-.778.556-1.334 1.334-1.334h17.902c.778 0 1.334.556 1.334 1.334 0 .777-.556 1.333-1.334 1.333z" fill="#34233c"/><path d="m470.641 245.325c-1.335 0-2.335-1.111-2.335-2.333 0-1.333 1.112-2.333 2.335-2.333h25.24c1.334 0 2.335 1.111 2.335 2.333 0 1.333-1.112 2.333-2.335 2.333z" fill="#ffc347"/><path d="m493.546 249.102c-4.225 0-5.226-2.777-5.226-6.222 0-3.444 1.001-6.222 5.226-6.222s10.007 2.778 10.007 6.222c0 3.445-5.893 6.222-10.007 6.222z" fill="#ca9e67"/><path d="m537.467 231.325.778-.666s.667.666.89 1.778c.222 1-.334 8.221-.445 9.666l-1.001-.111c.223-3.333.556-8.778.445-9.333-.222-.889-.667-1.334-.667-1.334z" fill="#fff"/><path d="m533.798 224.881c-.223-.555-.111-1.111.445-1.444.556-.222 1.111-.111 1.445.444l3.336 6.556c.222.555.111 1.111-.445 1.444-.556.222-1.112.111-1.445-.444z" fill="#34233c"/><path d="m537.022 224.215c0-.111.112-.111.223-.223.222-.111.333 0 .444.112l2.447 4.777c.111.445.222 1.445-.667 1.889-.334.222-.556.333-.779.444-.333.223-.445.112-.556-.111-.111-.111 0-.333.111-.444.112-.111.334-.222.779-.445.556-.333.333-1.111.333-1.111l-2.446-4.777c0 .111 0 0 .111-.111z" fill="#34233c"/><path d="m537.467 254.547.778.667s.667-.667.89-1.778c.222-1-.334-8.222-.445-9.666l-1.001.111c.223 3.333.556 8.777.445 9.333-.222.777-.667 1.333-.667 1.333z" fill="#fff"/><path d="m533.798 260.991c-.223.556-.111 1.111.445 1.445.555.222 1.111.111 1.445-.445l3.336-6.555c.222-.556.111-1.111-.445-1.444-.556-.223-1.112-.112-1.445.444z" fill="#34233c"/><path d="m537.022 261.547c0 .111.112.111.223.222.222.111.333 0 .444-.111l2.447-4.778c.111-.444.222-1.444-.667-1.889-.334-.222-.556-.333-.779-.444-.333-.222-.445-.111-.556.111-.111.111 0 .333.111.444.112.112.334.223.779.445.556.333.333 1.111.333 1.111l-2.446 4.778c0-.111 0 0 .111.111z" fill="#34233c"/><path d="m539.023 243.992c-.667 0-3.669.333-3.669-1.111 0-1.223 3.002-1.111 3.669-1.111s1.223.444 1.223 1.111c0 .666-.556 1.111-1.223 1.111z" fill="#34233c"/><path d="m502.887 233.881c.222 1.444 1.89 5.555 2.335 8.888.111 3.333-.779 7.778-.779 9.111l.223.111c2.335-7.333 7.005-6.777 6.782-9.777-.333-3-4.781-1.667-8.45-8.445z" fill="#ed6624"/><path d="m504.221 237.214c.111 1 1.223 3.889 1.445 6.222 0 2.333-.667 5.333-.667 6.333l.222.111c1.779-5 5.004-4.444 4.893-6.555-.223-2.111-3.336-1.334-5.671-6.222z" fill="#ff8e57"/><path d="m512.338 251.991c.334-1.444-.889-3.111-3.002-4.444.667-1.333 1.112-2.889 1.112-4.556 0-1.666-.445-3.111-1.112-4.444 2.113-1.111 3.447-2.666 3.113-4.111-.444-2.222-4.336-4-8.895-3.222-1.556.333-13.009 1-13.009 11.777 0 10.778 11.564 11.111 12.564 11.333 4.67 1.223 8.673-.111 9.229-2.333z" fill="#336680"/><path d="m470.085 245.214v-4.556c0-1.444 1.112-2.555 2.557-2.555h13.121c1.445 0 2.557 1.111 2.557 2.555v4.556c0 1.444-1.112 2.555-2.557 2.555h-13.121c-1.334 0-2.557-1.222-2.557-2.555zm17.234-4.556c0-.778-.667-1.444-1.445-1.444h-13.12c-.779 0-1.446.666-1.446 1.444v4.556c0 .777.667 1.444 1.446 1.444h13.12c.778 0 1.445-.667 1.445-1.444z" fill="#9d9d9c"/><path d="m484.316 238.547h-1.112v8.778h1.112z" fill="#9d9d9c"/><path d="m479.869 238.547h-1.112v8.778h1.112z" fill="#9d9d9c"/><path d="m475.31 238.547h-1.112v8.778h1.112z" fill="#9d9d9c"/><path d="m522.233 226.326c-2.78 0-6.449.666-6.449 2 0 1.222 5.115 3.888 8.673 2.666 2.669-.889 5.671-1.222 7.783-1.555v-2.667c-2.779-.222-6.782-.444-10.007-.444z" fill="#ffc0b2"/><path d="m515.34 227.548c3.114-.556 5.893.333 6.116 1.889.222 1.555-2.113 3.222-5.226 3.777-3.114.556-5.893-.333-6.116-1.889-.222-1.555 2.113-3.222 5.226-3.777z" fill="#0067e8"/><path d="m509.225 229.437c2.668-.889 5.225-.111 5.781 1.666.556 1.778-1.111 3.889-3.669 4.778-2.668.889-5.226.111-5.782-1.667-.667-1.889 1.001-4 3.67-4.777z" fill="#0067e8"/><path d="m515.34 258.324c3.114.556 5.893-.333 6.116-1.888.222-1.556-2.113-3.223-5.226-3.778-3.114-.556-5.893.333-6.116 1.889-.222 1.555 2.113 3.222 5.226 3.777z" fill="#0067e8"/><path d="m509.225 256.436c2.668.888 5.226.111 5.782-1.667.555-1.778-1.112-3.889-3.67-4.778-2.668-.888-5.226-.111-5.782 1.667-.667 1.778 1.001 3.889 3.67 4.778z" fill="#0067e8"/><path d="m472.31 239.325c1.223 0 2.335 1 2.335 2.334v2.889c0 1.222-1.001 2.333-2.335 2.333h-10.23c-1.223 0-2.335-1-2.335-2.333v-2.889c0-1.222 1.001-2.334 2.335-2.334z" fill="#3c3c3b"/><path d="m479.092 238.436c2.558 0 4.67 2.111 4.67 4.667 0 2.555-2.112 4.666-4.67 4.666h-10.674c-2.557 0-4.67-2.111-4.67-4.666 0-2.556 2.113-4.667 4.67-4.667z" fill="#f39719"/><path d="m477.757 239.77c2.113 0 3.781 1.444 3.781 3.333 0 1.777-1.668 3.333-3.781 3.333h-8.562c-2.112 0-3.78-1.444-3.78-3.333 0-1.778 1.668-3.333 3.78-3.333z" fill="#f7c443"/><path d="m482.207 250.437c-1.223 0-2.335-1-2.335-2.333v-10.111c0-1.222 1.001-2.333 2.335-2.333h8.673c1.223 0 2.335 1 2.335 2.333v10.111c0 1.222-1.001 2.333-2.335 2.333z" fill="#ca9e67"/><path d="m479.314 248.103v-10.111c0-1.556 1.335-2.889 2.891-2.889h8.673c1.557 0 2.891 1.333 2.891 2.889v10.111c0 1.555-1.334 2.888-2.891 2.888h-8.673c-1.556 0-2.891-1.222-2.891-2.888zm13.232-10.111c0-.889-.778-1.667-1.668-1.667h-8.673c-.889 0-1.667.778-1.667 1.667v10.111c0 .889.778 1.666 1.667 1.666h8.673c.89 0 1.668-.777 1.668-1.666z" fill="#34233c"/><path d="m496.883 250.437c-1.223 0-2.335-1-2.335-2.333v-10.111c0-1.222 1.001-2.333 2.335-2.333h8.673c1.223 0 2.335 1 2.335 2.333v10.111c0 1.222-1.001 2.333-2.335 2.333z" fill="#ca9e67"/><path d="m494.103 248.103v-10.111c0-1.556 1.334-2.889 2.89-2.889h8.673c1.557 0 2.891 1.333 2.891 2.889v10.111c0 1.555-1.334 2.888-2.891 2.888h-8.673c-1.667 0-2.89-1.222-2.89-2.888zm13.231-10.111c0-.889-.778-1.667-1.668-1.667h-8.673c-.889 0-1.667.778-1.667 1.667v10.111c0 .889.778 1.666 1.667 1.666h8.673c.89 0 1.668-.777 1.668-1.666z" fill="#b17f4a"/><path d="m501.108 255.991c5.225 1.334 9.784-.111 10.34-2.666.445-1.667-1-3.556-3.447-5 .779-1.556 1.223-3.333 1.223-5.111s-.444-3.555-1.223-5.111c2.447-1.333 3.781-3 3.558-4.667-.444-2.555-4.892-4.555-10.118-3.666-.333 0-.889.111-1.779.222v25.666c.778.222 1.223.333 1.446.333z" fill="#0067e8"/><path d="m486.875 243.214c0 10.222 9.229 12.111 12.898 12.555v-25.665c-4.114.777-12.898 3.111-12.898 13.11z" fill="#0067e8"/><path d="m460.3 258.769c-.667 0-1.112-.444-1.112-1.111v-29.221c0-.667.445-1.111 1.112-1.111h26.13c.667 0 1.112.444 1.112 1.111v29.221c0 .667-.445 1.111-1.112 1.111z" fill="#f39719"/><path d="m462.191 256.88c-.556 0-1.001-.444-1.001-1v-25.555c0-.555.445-1 1.001-1h22.349c.556 0 1.001.445 1.001 1v25.555c0 .556-.445 1-1.001 1z" fill="#ffc347"/><path d="m508.001 248.436 13.343 5.444-1.334 5.556-14.788-2.889z" fill="#0067e8"/><path d="m534.131 254.991-12.787-1.111-1.223 5.667 12.12-.445 3.78 1.445c.334.111.779 0 1.001-.334l1.668-3.222c.222-.444 0-.889-.445-1.111l-1.557-.556.445-.888-1.668-.223c-.111 0-.222 0-.333.111z" fill="#e2a091"/><path d="m504.221 229.659 14.566-3.334 2.668 5.222-13.454 6.556z" fill="#0067e8"/><path d="m536.133 225.214-4.226 1.223-13.231-.111 2.335 5.333 10.563-1.667 3.558 1.667c.222.111.334.111.556.111l1.557-.111-.334-1.222 1.446-.445c.444-.111.556-.555.444-.889l-1.779-3.444c-.222-.333-.556-.445-.889-.445z" fill="#e2a091"/><path d="m505.332 235.104-16.345 15.222s4.782 6.777 16.345 6.111z" fill="#0055bf"/><path d="m514.339 248.88c-3.113 0-10.785-2.555-10.785-5.889 0-3.333 7.449-5.999 10.674-5.999 3.113 0 5.782 2.555 5.782 5.888.111 3.222-2.446 5.889-5.671 6z" fill="#ffc347"/><path d="m509.112 251.213c-4.448.112-8.228-3.666-8.228-8.221 0-4.556 3.558-8.445 8.006-8.445 4.447-.111 8.228 3.667 8.228 8.222 0 4.667-3.558 8.444-8.006 8.444z" fill="#f7c443"/><path d="m506.889 234.881s9.673 5.666 7.449 13.999c0 0 5.004-5.666-.111-11.888 0-.111-2.446-2.778-7.338-2.111z" fill="#f39719"/><path d="m519.788 228.77s13.12-1.778 13.343-1.889c1.779-.667 3.78-1.333 3.78-1.333l-.334-.667-4.336 1.333h-13.454z" fill="#d3897d"/><path d="m521.011 255.324 13.231.111 1.335-1.111 1.556.223.223-.445-1.557-.222c-.111 0-.222 0-.333.111l-1.112.889c-.112.111-.223.111-.334.111l-12.676-1.111z" fill="#d3897d"/><path d="m484.541 229.325-14.455 27.888 16.345 1.556 1.112-30.221z" fill="#f39719"/><path d="m176.653 494.317 106.066 70.22-102.952.333c-2.669 0-4.893-2.222-4.782-4.889z" fill="#d2e9ff"/></g></g></svg>