<svg fill="none" height="218" viewBox="0 0 218 218" width="218" xmlns="http://www.w3.org/2000/svg"><path d="m88.44 107.64c0 1.627-.12 3.253-.36 4.88-.24 1.6-.6667 3.12-1.28 4.56-.5867 1.413-1.4267 2.68-2.52 3.8-1.0667 1.093-2.44 1.96-4.12 2.6-1.6533.613-3.6667.92-6.04.92-.56 0-1.2133-.027-1.96-.08-.7467-.027-1.3733-.093-1.88-.2v-4.84c.5333.107 1.0933.2 1.68.28s1.1733.12 1.76.12c2.3733 0 4.2-.373 5.48-1.12 1.3067-.773 2.2267-1.827 2.76-3.16s.84-2.88.92-4.64h-.24c-.56.933-1.3067 1.72-2.24 2.36-.9067.64-2.2667.96-4.08.96-2.4267 0-4.3733-.787-5.84-2.36s-2.2-3.8-2.2-6.68c0-3.093.8667-5.52 2.6-7.28 1.76-1.76 4.1333-2.64 7.12-2.64 1.9467 0 3.7067.4533 5.28 1.36 1.5733.88 2.8267 2.2533 3.76 4.12.9333 1.84 1.4 4.187 1.4 7.04zm-10.32-7.68c-1.1733 0-2.1333.4-2.88 1.2s-1.12 2.067-1.12 3.8c0 1.387.32 2.48.96 3.28s1.6133 1.2 2.92 1.2c.9067 0 1.68-.2 2.32-.6.6667-.4 1.1867-.893 1.56-1.48.3733-.613.56-1.24.56-1.88 0-.88-.16-1.747-.48-2.6s-.8-1.547-1.44-2.08c-.64-.56-1.44-.84-2.4-.84zm33.971 18.12h-3.44v5.92h-5.88v-5.92h-12.2004v-4.2l12.5204-18.44h5.56v17.96h3.44zm-9.32-9.52c0-.613.013-1.36.04-2.24.026-.88.053-1.693.08-2.44.053-.773.093-1.28.12-1.52h-.16c-.24.533-.494 1.053-.76 1.56-.267.507-.587 1.027-.96 1.56l-5.2404 7.92h6.8804zm17.97-13.52c2.24 0 3.934.7867 5.08 2.36 1.174 1.5467 1.76 3.733 1.76 6.56s-.546 5.04-1.64 6.64c-1.093 1.573-2.826 2.36-5.2 2.36-2.186 0-3.853-.787-5-2.36-1.146-1.6-1.72-3.813-1.72-6.64s.534-5.0133 1.6-6.56c1.067-1.5733 2.774-2.36 5.12-2.36zm20.28.4-15.84 28.56h-4.68l15.84-28.56zm-20.24 3.68c-1.226 0-1.84 1.627-1.84 4.88 0 3.28.614 4.92 1.84 4.92 1.254 0 1.88-1.64 1.88-4.92 0-3.253-.626-4.88-1.88-4.88zm19.96 7.32c2.24 0 3.934.787 5.08 2.36 1.174 1.547 1.76 3.733 1.76 6.56s-.546 5.04-1.64 6.64c-1.093 1.573-2.826 2.36-5.2 2.36-2.186 0-3.853-.787-5-2.36-1.146-1.6-1.72-3.813-1.72-6.64s.534-5.013 1.6-6.56c1.067-1.573 2.774-2.36 5.12-2.36zm.04 4.08c-1.226 0-1.84 1.627-1.84 4.88 0 3.28.614 4.92 1.84 4.92 1.254 0 1.88-1.64 1.88-4.92 0-3.253-.626-4.88-1.88-4.88z" fill="#0072f5"/><g stroke-miterlimit="10" stroke-width="25"><path d="m109 204.949c52.991 0 95.949-42.958 95.949-95.949 0-52.9913-42.958-95.9492-95.949-95.9492-52.9912 0-95.9491 42.9579-95.9491 95.9492 0 52.991 42.9579 95.949 95.9491 95.949z" stroke="#c2deff"/><path d="m109 13.0508c23.049.0281 45.317 8.3564 62.727 23.4604 17.41 15.1039 28.799 35.9732 32.08 58.7873 3.281 22.8145-1.763 46.0465-14.211 65.4455-12.448 19.398-31.466 33.665-53.573 40.188-22.106 6.523-45.8227 4.866-66.8074-4.668-20.9848-9.534-37.834-26.306-47.4633-47.247s-11.3945-44.65-4.9724-66.786c6.4221-22.1362 20.6017-41.2189 39.9433-53.755" stroke="#0072f5" stroke-linecap="round"/></g></svg>