<svg fill="none" height="219" viewBox="0 0 219 219" width="219" xmlns="http://www.w3.org/2000/svg"><path d="m90.2 119.08h-3.44v5.92h-5.88v-5.92h-12.2v-4.2l12.52-18.44h5.56v17.96h3.44zm-9.32-9.52c0-.613.0133-1.36.04-2.24s.0533-1.693.08-2.44c.0533-.773.0933-1.28.12-1.52h-.16c-.24.533-.4933 1.053-.76 1.56s-.5867 1.027-.96 1.56l-5.24 7.92h6.88zm31.411 1.16c0 3.067-.334 5.693-1 7.88-.64 2.187-1.694 3.867-3.16 5.04-1.44 1.173-3.387 1.76-5.84 1.76-3.4404 0-5.9604-1.293-7.5604-3.88-1.6-2.613-2.4-6.213-2.4-10.8 0-3.093.32-5.733.96-7.92s1.6934-3.8667 3.16-5.04c1.4667-1.1733 3.4134-1.76 5.8404-1.76 3.413 0 5.933 1.2933 7.56 3.88 1.626 2.587 2.44 6.2 2.44 10.84zm-13.9604 0c0 3.253.28 5.707.84 7.36.56 1.627 1.6004 2.44 3.1204 2.44 1.493 0 2.533-.813 3.12-2.44.586-1.627.88-4.08.88-7.36 0-3.253-.294-5.707-.88-7.36-.587-1.653-1.627-2.48-3.12-2.48-1.52 0-2.5604.827-3.1204 2.48s-.84 4.107-.84 7.36zm23.4104-14.68c2.24 0 3.934.7867 5.08 2.36 1.174 1.5467 1.76 3.733 1.76 6.56s-.546 5.04-1.64 6.64c-1.093 1.573-2.826 2.36-5.2 2.36-2.186 0-3.853-.787-5-2.36-1.146-1.6-1.72-3.813-1.72-6.64s.534-5.0133 1.6-6.56c1.067-1.5733 2.774-2.36 5.12-2.36zm20.28.4-15.84 28.56h-4.68l15.84-28.56zm-20.24 3.68c-1.226 0-1.84 1.627-1.84 4.88 0 3.28.614 4.92 1.84 4.92 1.254 0 1.88-1.64 1.88-4.92 0-3.253-.626-4.88-1.88-4.88zm19.96 7.32c2.24 0 3.934.787 5.08 2.36 1.174 1.547 1.76 3.733 1.76 6.56s-.546 5.04-1.64 6.64c-1.093 1.573-2.826 2.36-5.2 2.36-2.186 0-3.853-.787-5-2.36-1.146-1.6-1.72-3.813-1.72-6.64s.534-5.013 1.6-6.56c1.067-1.573 2.774-2.36 5.12-2.36zm.04 4.08c-1.226 0-1.84 1.627-1.84 4.88 0 3.28.614 4.92 1.84 4.92 1.254 0 1.88-1.64 1.88-4.92 0-3.253-.626-4.88-1.88-4.88z" fill="#0072f5"/><g stroke-miterlimit="10" stroke-width="25"><path d="m109.389 205.777c53.234 0 96.388-43.154 96.388-96.388 0-53.2343-43.154-96.389-96.388-96.389-53.2343 0-96.389 43.1547-96.389 96.389 0 53.234 43.1547 96.388 96.389 96.388z" stroke="#c2deff"/><path d="m109.389 13c20.476.009 40.417 6.5367 56.935 18.6373 16.517 12.1006 28.754 29.1458 34.936 48.6661 6.182 19.5202 5.989 40.5016-.551 59.9046-6.541 19.404-19.088 36.221-35.826 48.016" stroke="#0072f5" stroke-linecap="round"/></g></svg>