<svg width="79" height="71" viewBox="0 0 79 71" fill="none" xmlns="http://www.w3.org/2000/svg">
<path d="M24.9851 52.3043H52.5557V27.2069C52.5557 20.6113 47.2398 15.2766 40.6673 15.2766H36.8736C30.3011 15.2766 24.9851 20.6113 24.9851 27.2069V52.3043Z" fill="#34233C"/>
<path d="M34.4088 46.1696H43.2527C46.394 46.1696 48.9311 43.6235 48.9311 40.4711V30.4564C48.9311 27.9346 46.9014 25.8977 44.3884 25.8977H33.2973C30.7843 25.8977 28.7546 27.9346 28.7546 30.4564V40.4711C28.7304 43.6235 31.2676 46.1696 34.4088 46.1696Z" fill="#E2A091"/>
<path d="M19.4033 70.9999H59.6357V58.9484C59.6357 54.3169 55.8903 50.5583 51.2751 50.5583H27.7397C23.1245 50.5583 19.3792 54.3169 19.3792 58.9484V70.9999H19.4033Z" fill="#FFC347"/>
<path d="M50.3086 70.9999H59.6357V59.8213C59.6357 54.729 55.3829 50.5825 50.3086 50.5825" fill="#F39719"/>
<path d="M39.5315 70.9999L43.7359 50.5825H33.8289L37.7675 70.9999H39.5315Z" fill="white"/>
<path d="M38.1058 54.0259H39.459C41.827 54.0259 43.7359 52.1103 43.7359 49.7339V43.7688C43.7359 43.5748 43.5668 43.405 43.3735 43.405H34.1913C33.998 43.405 33.8289 43.5748 33.8289 43.7688V49.7339C33.8289 52.1103 35.7378 54.0259 38.1058 54.0259Z" fill="#E2A091"/>
<path d="M41.658 46.1696C45.6692 46.1696 48.9313 42.896 48.9313 38.8707V30.02C48.9313 27.7406 47.0948 25.8977 44.8235 25.8977H41.0056V46.1696H41.658Z" fill="#D3897D"/>
<path d="M38.1058 54.0259H39.459C41.827 54.0259 43.7359 52.1103 43.7359 49.7339V43.7688C43.7359 43.5748 43.5668 43.405 43.3735 43.405H34.1913C33.998 43.405 33.8289 43.5748 33.8289 43.7688V49.7339C33.8289 52.1103 35.7378 54.0259 38.1058 54.0259Z" fill="#E2A091"/>
<path d="M41.0055 25.8975C41.0055 25.8975 35.0612 32.0809 28.7304 31.6445L28.3438 22.9392L41.0055 25.8975Z" fill="#34233C"/>
<path d="M41.0056 53.4925L41.3439 53.2742C42.842 52.3285 43.7361 50.6554 43.7361 48.8852V43.405H41.0056V53.4925Z" fill="#D3897D"/>
<path d="M15.1262 64.1377C8.89205 57.8815 5.02588 49.2248 5.02588 39.6466C5.02588 20.5144 20.4664 5.01953 39.5315 5.01953C58.5965 5.01953 74.037 20.5144 74.037 39.6466C74.037 49.0065 70.34 57.4936 64.3233 63.7255" stroke="#34233C" stroke-width="1.5" stroke-miterlimit="10" stroke-linecap="round" stroke-linejoin="round"/>
<path d="M38.7343 10.0874C41.5101 10.0874 43.7603 7.82928 43.7603 5.04372C43.7603 2.25815 41.5101 0 38.7343 0C35.9585 0 33.7083 2.25815 33.7083 5.04372C33.7083 7.82928 35.9585 10.0874 38.7343 10.0874Z" fill="#FF5753"/>
<path d="M5.02602 39.6465C7.80182 39.6465 10.052 37.3884 10.052 34.6028C10.052 31.8172 7.80182 29.5591 5.02602 29.5591C2.25023 29.5591 0 31.8172 0 34.6028C0 37.3884 2.25023 39.6465 5.02602 39.6465Z" fill="#FF5753"/>
<path d="M72.9982 39.6465C75.774 39.6465 78.0242 37.3884 78.0242 34.6028C78.0242 31.8172 75.774 29.5591 72.9982 29.5591C70.2224 29.5591 67.9722 31.8172 67.9722 34.6028C67.9722 37.3884 70.2224 39.6465 72.9982 39.6465Z" fill="#FF5753"/>
</svg>
