<svg width="84" height="69" viewBox="0 0 84 69" fill="none" xmlns="http://www.w3.org/2000/svg">
<path d="M4.29138 59.3344C2.0268 53.2319 1.26214 46.67 2.06243 40.2068C2.86272 33.7435 5.20428 27.5701 8.88799 22.2115C12.5717 16.8529 17.4886 12.4675 23.2206 9.42845C28.9525 6.38935 35.33 4.78636 41.8107 4.75582C48.2914 4.72527 54.6835 6.26807 60.4436 9.253C66.2037 12.2379 71.1613 16.5767 74.8949 21.9004C78.6284 27.224 81.0275 33.3751 81.8881 39.8305C82.7486 46.2859 82.0453 52.8547 79.8377 58.9783" stroke="#34233C" stroke-width="1.5" stroke-miterlimit="10" stroke-linecap="round"/>
<path d="M5.17883 61.5008L42 5.20459L78.8179 61.5008" stroke="#34233C" stroke-width="1.5" stroke-miterlimit="10" stroke-linecap="round"/>
<path d="M6.93384 23.5076H73.6391" stroke="#34233C" stroke-width="1.5" stroke-miterlimit="10" stroke-linecap="round"/>
<path d="M42.0001 10.4093C44.8603 10.4093 47.1789 8.07911 47.1789 5.20466C47.1789 2.33021 44.8603 0 42.0001 0C39.1399 0 36.8213 2.33021 36.8213 5.20466C36.8213 8.07911 39.1399 10.4093 42.0001 10.4093Z" fill="#FF5753"/>
<path d="M5.17881 66.7057C8.03898 66.7057 10.3576 64.3755 10.3576 61.501C10.3576 58.6266 8.03898 56.2964 5.17881 56.2964C2.31863 56.2964 0 58.6266 0 61.501C0 64.3755 2.31863 66.7057 5.17881 66.7057Z" fill="#FF5753"/>
<path d="M78.8178 66.7057C81.678 66.7057 83.9967 64.3755 83.9967 61.501C83.9967 58.6266 81.678 56.2964 78.8178 56.2964C75.9577 56.2964 73.639 58.6266 73.639 61.501C73.639 64.3755 75.9577 66.7057 78.8178 66.7057Z" fill="#FF5753"/>
<path d="M6.93369 28.7121C9.79387 28.7121 12.1125 26.3818 12.1125 23.5074C12.1125 20.6329 9.79387 18.3027 6.93369 18.3027C4.07351 18.3027 1.75488 20.6329 1.75488 23.5074C1.75488 26.3818 4.07351 28.7121 6.93369 28.7121Z" fill="#FF5753"/>
<path d="M73.639 25.5941C76.4992 25.5941 78.8178 23.2639 78.8178 20.3895C78.8178 17.515 76.4992 15.1848 73.639 15.1848C70.7788 15.1848 68.4602 17.515 68.4602 20.3895C68.4602 23.2639 70.7788 25.5941 73.639 25.5941Z" fill="#FF5753"/>
<path d="M35.6292 41.3476L30.3113 40.0797C31.3047 36.0431 33.4702 33.0381 37.1888 31.2877C39.9901 29.9566 42.904 29.8501 45.9007 30.5955C51.8411 32.0698 55.8808 39.8634 51.6159 45.7669C50.9205 46.732 50.2715 47.727 49.5696 48.6821C47.7947 51.0914 46.4106 53.6737 46.1325 56.7719H38.8212C38.6832 54.8592 39.1842 52.955 40.2451 51.3609C41.7451 49.0814 43.4835 46.9616 45.0364 44.7053C45.7697 43.6116 46.4131 42.4598 46.9603 41.2611C47.4106 40.3127 47.1424 39.3576 46.6292 38.4757C44.9504 35.6305 41.457 34.8684 38.9868 37.0415C37.7153 38.1696 36.8444 39.7603 35.6292 41.3476Z" fill="#FFC347"/>
<path d="M47.1788 63.3677C47.1827 64.2796 46.9177 65.1722 46.4173 65.9329C45.917 66.6936 45.2036 67.2883 44.3672 67.6419C43.5309 67.9955 42.6091 68.0923 41.7181 67.9199C40.8271 67.7476 40.0068 67.3138 39.3609 66.6735C38.7149 66.0331 38.2721 65.2148 38.0885 64.3218C37.9048 63.4287 37.9885 62.5011 38.3289 61.6558C38.6693 60.8105 39.2513 60.0855 40.0013 59.5723C40.7513 59.0591 41.6357 58.7806 42.543 58.7721C43.7641 58.7641 44.9383 59.2437 45.8075 60.1055C46.6768 60.9672 47.17 62.1406 47.1788 63.3677Z" fill="#F39719"/>
</svg>
