<svg width="95" height="70" viewBox="0 0 95 70" fill="none" xmlns="http://www.w3.org/2000/svg">
<path d="M29.3452 49.1397C29.1618 47.4685 29.3452 22.9502 29.3452 22.9502H11.0931C10.3193 22.9508 9.55952 23.1563 8.89097 23.5459C8.22242 23.9355 7.66898 24.4952 7.28698 25.1681L0.217988 37.6245C0.0755344 37.8731 0.000396543 38.1546 0 38.4411V56.752C0 57.1925 0.174981 57.6149 0.486451 57.9264C0.797921 58.2378 1.22037 58.4128 1.66086 58.4128H29.3417L29.3452 49.1397Z" fill="#0067E8"/>
<path d="M14.7124 49.1397C14.529 47.4685 14.7124 22.9502 14.7124 22.9502H11.0931C10.3193 22.9508 9.55952 23.1563 8.89097 23.5459C8.22242 23.9355 7.66898 24.4952 7.28698 25.1681L0.217988 37.6245C0.0755344 37.8731 0.000396543 38.1546 0 38.4411V56.752C0 57.1925 0.174981 57.6149 0.486451 57.9264C0.797921 58.2378 1.22037 58.4128 1.66086 58.4128H14.7158L14.7124 49.1397Z" fill="#0055BF"/>
<path d="M20.7988 69.018C25.624 69.018 29.5356 65.1064 29.5356 60.2812C29.5356 55.456 25.624 51.5444 20.7988 51.5444C15.9736 51.5444 12.062 55.456 12.062 60.2812C12.062 65.1064 15.9736 69.018 20.7988 69.018Z" fill="#34233C"/>
<path d="M20.7986 63.3677C22.5032 63.3677 23.885 61.9858 23.885 60.2812C23.885 58.5767 22.5032 57.1948 20.7986 57.1948C19.094 57.1948 17.7122 58.5767 17.7122 60.2812C17.7122 61.9858 19.094 63.3677 20.7986 63.3677Z" fill="white"/>
<path d="M24.7018 28.7944V39.6487C24.7018 39.8891 24.6545 40.1271 24.5625 40.3492C24.4705 40.5713 24.3357 40.773 24.1657 40.943C23.9957 41.113 23.794 41.2478 23.5719 41.3398C23.3498 41.4318 23.1118 41.4791 22.8714 41.4791H3.89967V38.5484C3.89855 38.2058 3.99452 37.8699 4.17647 37.5796L10.2351 27.8221C10.3992 27.5577 10.628 27.3396 10.8998 27.1882C11.1717 27.0369 11.4776 26.9573 11.7887 26.9571H22.861C23.1029 26.9557 23.3426 27.0023 23.5663 27.0941C23.79 27.1859 23.9934 27.3211 24.1645 27.4919C24.3357 27.6628 24.4713 27.8658 24.5635 28.0894C24.6557 28.3129 24.7027 28.5525 24.7018 28.7944Z" fill="white"/>
<path d="M33.8018 49.7695L80.1292 49.7695V17.7082L33.8018 17.7082L33.8018 49.7695Z" fill="#0067E8"/>
<path d="M29.3659 55.24L80.4751 55.24V49.4685L29.3659 49.4685V55.24Z" fill="#0067E8"/>
<path d="M61.4377 69.018C66.2629 69.018 70.1745 65.1064 70.1745 60.2812C70.1745 55.456 66.2629 51.5444 61.4377 51.5444C56.6125 51.5444 52.7009 55.456 52.7009 60.2812C52.7009 65.1064 56.6125 69.018 61.4377 69.018Z" fill="#34233C"/>
<path d="M61.4377 63.3677C63.1423 63.3677 64.5242 61.9858 64.5242 60.2812C64.5242 58.5767 63.1423 57.1948 61.4377 57.1948C59.7332 57.1948 58.3513 58.5767 58.3513 60.2812C58.3513 61.9858 59.7332 63.3677 61.4377 63.3677Z" fill="white"/>
<path d="M33.8018 49.7694V17.708L70.1744 17.5247L49.4657 38.7939V49.7694H33.8018Z" fill="#0055BF"/>
<path d="M94.8381 20.8673C94.7725 20.2226 94.4716 19.6247 93.9928 19.188C93.514 18.7514 92.891 18.5066 92.243 18.5005L91.7101 18.5248C91.2358 18.5405 90.7693 18.401 90.3815 18.1275C89.9937 17.8539 89.7058 17.4613 89.5614 17.0092L88.7206 14.9816C88.5117 14.5163 88.4497 13.9983 88.5431 13.4968C88.6365 12.9954 88.8807 12.5344 89.2431 12.1755L89.6375 11.8295C90.0947 11.4149 90.3685 10.8359 90.399 10.2196C90.4295 9.60323 90.2141 9.00001 89.8002 8.54237L88.1082 6.67737C87.6608 6.21138 87.0575 5.92658 86.4134 5.87743C85.7694 5.82828 85.1298 6.01822 84.6169 6.41093L84.2294 6.75694C83.8379 7.08332 83.3558 7.28211 82.8481 7.32664C82.3403 7.37118 81.831 7.25933 81.3886 7.00608L80.4613 6.52512L79.6413 6.09261C79.1818 5.87139 78.8011 5.51465 78.5505 5.07046C78.3 4.62626 78.1916 4.11595 78.24 3.60825L78.3092 3.08578C78.381 2.55197 78.2659 2.00976 77.9833 1.55122C77.7007 1.09267 77.2681 0.746061 76.759 0.570271C76.5507 0.468238 76.3277 0.399371 76.0981 0.366136L73.6138 0.0201256C73.0029 -0.0606313 72.3849 0.103639 71.8948 0.477073C71.4046 0.850508 71.0822 1.40274 70.9979 2.01313L70.9287 2.53561C70.8385 3.03822 70.597 3.50131 70.2365 3.86301C69.8761 4.22471 69.4138 4.46781 68.9115 4.55978L66.7559 5.01996C66.2901 5.14954 65.7957 5.13142 65.3407 4.96807C64.9183 4.78784 64.5576 4.48845 64.3026 4.10651L64.0224 3.66014C63.7372 3.21088 63.3039 2.8755 62.7975 2.71208C62.4472 2.55388 62.0632 2.48499 61.6797 2.51155C61.2963 2.53812 60.9254 2.65933 60.6003 2.86432L58.4793 4.20685C57.9593 4.53822 57.5914 5.06178 57.456 5.66331C57.3205 6.26484 57.4284 6.89554 57.7561 7.41784L58.0398 7.86418C58.2945 8.30592 58.4075 8.81517 58.3636 9.32318C58.3197 9.83118 58.1209 10.3135 57.7942 10.7049L56.4517 12.4523C56.1565 12.8608 55.745 13.1708 55.271 13.3418C54.7969 13.5128 54.2822 13.5368 53.7943 13.4107L53.4483 13.3H53.4137L53.2545 13.2516C52.6667 13.0655 52.0292 13.1197 51.4813 13.4024C50.9333 13.6851 50.5197 14.1733 50.3307 14.7602L49.5695 17.1546C49.3835 17.7433 49.4381 18.3817 49.7214 18.9303C50.0048 19.4788 50.4938 19.8928 51.0816 20.0818L51.5902 20.241C52.0694 20.4173 52.4832 20.7358 52.7763 21.1538C53.0695 21.5718 53.2278 22.0695 53.2303 22.58L53.3099 24.7703C53.3503 25.2801 53.2333 25.79 52.9746 26.2312C52.716 26.6724 52.3282 27.0236 51.8636 27.2373L51.3791 27.4345C50.8098 27.6713 50.3569 28.1233 50.1191 28.6922C49.8813 29.2612 49.8778 29.901 50.1093 30.4725L51.0643 32.7942C51.2103 33.1411 51.4383 33.4475 51.7286 33.687L51.7736 33.6489C52.0991 33.957 52.5061 34.1654 52.9464 34.2494C53.3867 34.3334 53.8418 34.2895 54.2579 34.1229L54.7493 33.9188C55.2311 33.7453 55.7545 33.7233 56.2493 33.8556C56.744 33.988 57.1865 34.2684 57.5174 34.6593L58.981 36.2889C59.3387 36.6542 59.5759 37.1204 59.6606 37.6245C59.7454 38.1287 59.6736 38.6468 59.455 39.1089L59.2128 39.5726C59.0037 39.9713 58.9146 40.4221 58.9563 40.8704C58.9981 41.3187 59.1689 41.7453 59.4481 42.0985L59.4066 42.14C59.5873 42.3471 59.8042 42.5194 60.0467 42.6486L62.2716 43.8147L62.3996 43.8839C62.7335 44.0551 63.1039 44.1429 63.4791 44.1399L63.4964 44.0638C63.8933 44.0398 64.2773 43.9138 64.6113 43.6981C64.9453 43.4823 65.218 43.184 65.403 42.832L65.6486 42.3545C65.9024 41.917 66.2881 41.571 66.7505 41.3659C67.2129 41.1608 67.7283 41.1072 68.2229 41.2127C68.2229 41.2127 68.351 41.2438 69.3198 41.3753C70.2886 41.5068 70.4201 41.5103 70.4201 41.5103C70.9247 41.5374 71.4075 41.7243 71.7988 42.044C72.1901 42.3638 72.4695 42.7997 72.5965 43.2888L72.7107 43.8078C72.8183 44.2915 73.0779 44.7281 73.4514 45.0537C73.825 45.3793 74.2929 45.5768 74.7868 45.6174V45.697C75.0579 45.7401 75.3347 45.7331 75.6034 45.6762L78.0566 45.1468C78.6594 45.015 79.1854 44.6497 79.5194 44.1309C79.8533 43.6121 79.9681 42.982 79.8385 42.3787L79.7243 41.8632C79.6376 41.3649 79.7111 40.8519 79.9343 40.3981C80.1575 39.9442 80.5189 39.5728 80.9665 39.3373C80.9665 39.3373 81.0842 39.2785 81.9111 38.756C82.7381 38.2335 82.8419 38.1539 82.8419 38.1539C83.2413 37.8597 83.7222 37.697 84.2182 37.6883C84.7142 37.6796 85.2006 37.8254 85.61 38.1055L85.9075 38.3339L86.046 38.4377C86.534 38.8146 87.1516 38.9825 87.7632 38.9047C88.3749 38.8268 88.9308 38.5096 89.3088 38.0225L90.8451 36.0398C91.2202 35.5511 91.3871 34.934 91.3093 34.3229C91.2315 33.7118 90.9154 33.1561 90.4299 32.777L90.288 32.6662L90.0147 32.4517C89.6308 32.1211 89.3563 31.6819 89.2272 31.192C89.0981 30.7022 89.1205 30.1847 89.2915 29.7078L89.9663 27.6318C90.1028 27.14 90.3871 26.7021 90.7807 26.3772C91.1743 26.0523 91.6582 25.8561 92.1669 25.8152L92.6963 25.7945C93.3131 25.7684 93.8945 25.4988 94.3128 25.0447C94.7312 24.5907 94.9524 23.9893 94.928 23.3724L94.8381 20.8673Z" fill="#FF5753"/>
<path d="M72.1883 29.4206C75.8803 29.4206 78.8733 26.4277 78.8733 22.7357C78.8733 19.0437 75.8803 16.0508 72.1883 16.0508C68.4964 16.0508 65.5034 19.0437 65.5034 22.7357C65.5034 26.4277 68.4964 29.4206 72.1883 29.4206Z" fill="white"/>
<path d="M72.1882 33.6006C78.1886 33.6006 83.053 28.7363 83.053 22.7358C83.053 16.7354 78.1886 11.8711 72.1882 11.8711C66.1878 11.8711 61.3235 16.7354 61.3235 22.7358C61.3235 28.7363 66.1878 33.6006 72.1882 33.6006Z" fill="white"/>
<path d="M72.1881 29.6629C76.0139 29.6629 79.1153 26.5615 79.1153 22.7357C79.1153 18.91 76.0139 15.8086 72.1881 15.8086C68.3624 15.8086 65.261 18.91 65.261 22.7357C65.261 26.5615 68.3624 29.6629 72.1881 29.6629Z" fill="#34233C"/>
</svg>
