<svg fill="none" height="664" viewBox="0 0 465 664" width="465" xmlns="http://www.w3.org/2000/svg" xmlns:xlink="http://www.w3.org/1999/xlink"><filter id="a" color-interpolation-filters="sRGB" filterUnits="userSpaceOnUse" height="141" width="149" x="3" y="518"><feFlood flood-opacity="0" result="BackgroundImageFix"/><feColorMatrix in="SourceAlpha" type="matrix" values="0 0 0 0 0 0 0 0 0 0 0 0 0 0 0 0 0 0 127 0"/><feOffset dy="2"/><feGaussianBlur stdDeviation="8.5"/><feColorMatrix type="matrix" values="0 0 0 0 0 0 0 0 0 0 0 0 0 0 0 0 0 0 0.08 0"/><feBlend in2="BackgroundImageFix" mode="normal" result="effect1_dropShadow"/><feBlend in="SourceGraphic" in2="effect1_dropShadow" mode="normal" result="shape"/></filter><filter id="b" color-interpolation-filters="sRGB" filterUnits="userSpaceOnUse" height="141" width="149" x="313" y="518"><feFlood flood-opacity="0" result="BackgroundImageFix"/><feColorMatrix in="SourceAlpha" type="matrix" values="0 0 0 0 0 0 0 0 0 0 0 0 0 0 0 0 0 0 127 0"/><feOffset dy="2"/><feGaussianBlur stdDeviation="8.5"/><feColorMatrix type="matrix" values="0 0 0 0 0 0 0 0 0 0 0 0 0 0 0 0 0 0 0.08 0"/><feBlend in2="BackgroundImageFix" mode="normal" result="effect1_dropShadow"/><feBlend in="SourceGraphic" in2="effect1_dropShadow" mode="normal" result="shape"/></filter><filter id="c" color-interpolation-filters="sRGB" filterUnits="userSpaceOnUse" height="141" width="149" x="158" y="479"><feFlood flood-opacity="0" result="BackgroundImageFix"/><feColorMatrix in="SourceAlpha" type="matrix" values="0 0 0 0 0 0 0 0 0 0 0 0 0 0 0 0 0 0 127 0"/><feOffset dy="2"/><feGaussianBlur stdDeviation="8.5"/><feColorMatrix type="matrix" values="0 0 0 0 0 0 0 0 0 0 0 0 0 0 0 0 0 0 0.08 0"/><feBlend in2="BackgroundImageFix" mode="normal" result="effect1_dropShadow"/><feBlend in="SourceGraphic" in2="effect1_dropShadow" mode="normal" result="shape"/></filter><filter id="d" color-interpolation-filters="sRGB" filterUnits="userSpaceOnUse" height="107" width="261" x="102" y="39"><feFlood flood-opacity="0" result="BackgroundImageFix"/><feColorMatrix in="SourceAlpha" type="matrix" values="0 0 0 0 0 0 0 0 0 0 0 0 0 0 0 0 0 0 127 0"/><feOffset dy="2"/><feGaussianBlur stdDeviation="8.5"/><feColorMatrix type="matrix" values="0 0 0 0 0 0 0 0 0 0 0 0 0 0 0 0 0 0 0.08 0"/><feBlend in2="BackgroundImageFix" mode="normal" result="effect1_dropShadow"/><feBlend in="SourceGraphic" in2="effect1_dropShadow" mode="normal" result="shape"/></filter><filter id="e" color-interpolation-filters="sRGB" filterUnits="userSpaceOnUse" height="84" width="88" x="189" y="183"><feFlood flood-opacity="0" result="BackgroundImageFix"/><feColorMatrix in="SourceAlpha" type="matrix" values="0 0 0 0 0 0 0 0 0 0 0 0 0 0 0 0 0 0 127 0"/><feOffset dy="2"/><feGaussianBlur stdDeviation="8.5"/><feColorMatrix type="matrix" values="0 0 0 0 0 0 0 0 0 0 0 0 0 0 0 0 0 0 0.08 0"/><feBlend in2="BackgroundImageFix" mode="normal" result="effect1_dropShadow"/><feBlend in="SourceGraphic" in2="effect1_dropShadow" mode="normal" result="shape"/></filter><filter id="f" color-interpolation-filters="sRGB" filterUnits="userSpaceOnUse" height="84" width="88" x="345" y="409"><feFlood flood-opacity="0" result="BackgroundImageFix"/><feColorMatrix in="SourceAlpha" type="matrix" values="0 0 0 0 0 0 0 0 0 0 0 0 0 0 0 0 0 0 127 0"/><feOffset dy="2"/><feGaussianBlur stdDeviation="8.5"/><feColorMatrix type="matrix" values="0 0 0 0 0 0 0 0 0 0 0 0 0 0 0 0 0 0 0.08 0"/><feBlend in2="BackgroundImageFix" mode="normal" result="effect1_dropShadow"/><feBlend in="SourceGraphic" in2="effect1_dropShadow" mode="normal" result="shape"/></filter><filter id="g" color-interpolation-filters="sRGB" filterUnits="userSpaceOnUse" height="84" width="88" x="28" y="409"><feFlood flood-opacity="0" result="BackgroundImageFix"/><feColorMatrix in="SourceAlpha" type="matrix" values="0 0 0 0 0 0 0 0 0 0 0 0 0 0 0 0 0 0 127 0"/><feOffset dy="2"/><feGaussianBlur stdDeviation="8.5"/><feColorMatrix type="matrix" values="0 0 0 0 0 0 0 0 0 0 0 0 0 0 0 0 0 0 0.08 0"/><feBlend in2="BackgroundImageFix" mode="normal" result="effect1_dropShadow"/><feBlend in="SourceGraphic" in2="effect1_dropShadow" mode="normal" result="shape"/></filter><clipPath id="h"><path d="m154 69h54v47h-54z"/></clipPath><path clip-rule="evenodd" d="m155 486c0-6.627 5.373-12 12-12h131c6.627 0 12 5.373 12 12v19c0 6.627 5.373 12 12 12h131c6.627 0 12 5.373 12 12v119c0 6.627-5.373 12-12 12h-131c-6.627 0-12-5.373-12-12v-15c0-6.627-5.373-12-12-12h-131c-6.627 0-12 5.373-12 12v15c0 6.627-5.373 12-12 12h-131c-6.62742 0-12-5.373-12-12v-123c0-6.627 5.37258-12 12-12h131c6.627 0 12-5.373 12-12z" fill="#e9f4ff" fill-rule="evenodd"/><path d="m183.736 645.576c1.504 0 2.613.277 3.328.832.725.555 1.088 1.397 1.088 2.528 0 .555-.107 1.029-.32 1.424-.203.395-.475.725-.816.992-.331.256-.683.464-1.056.624l3.28 5.024h-2.304l-2.736-4.512h-1.664v4.512h-2.048v-11.424zm-.128 1.712h-1.072v3.52h1.136c.853 0 1.467-.149 1.84-.448.373-.309.56-.763.56-1.36 0-.619-.203-1.056-.608-1.312-.395-.267-1.013-.4-1.856-.4zm10.52.88c1.162 0 2.08.347 2.752 1.04.682.693 1.024 1.659 1.024 2.896v1.024h-5.728c.021.789.24 1.403.656 1.84.416.427.992.64 1.728.64.554 0 1.056-.053 1.504-.16.448-.117.906-.283 1.376-.496v1.616c-.427.203-.87.352-1.328.448-.459.096-1.008.144-1.648.144-.854 0-1.606-.16-2.256-.48-.651-.331-1.163-.821-1.536-1.472-.363-.661-.544-1.488-.544-2.48 0-1.483.362-2.613 1.088-3.392.736-.779 1.706-1.168 2.912-1.168zm0 1.488c-.544 0-.987.176-1.328.528-.331.341-.523.853-.576 1.536h3.728c-.011-.597-.166-1.088-.464-1.472-.288-.395-.742-.592-1.36-.592zm9.169 5.888c.245 0 .485-.021.72-.064.245-.053.469-.112.672-.176v1.504c-.214.107-.491.192-.832.256-.342.064-.699.096-1.072.096-.502 0-.955-.08-1.36-.24-.395-.16-.71-.443-.944-.848-.235-.405-.352-.976-.352-1.712v-4.512h-1.168v-.88l1.28-.704.64-1.84h1.264v1.904h2.464v1.52h-2.464v4.496c0 .405.106.709.32.912.224.192.501.288.832.288zm6.596-7.376c1.12 0 1.968.245 2.544.736.586.491.88 1.248.88 2.272v5.824h-1.424l-.4-1.2h-.064c-.374.469-.768.816-1.184 1.04-.416.213-.982.32-1.696.32-.779 0-1.424-.219-1.936-.656s-.768-1.115-.768-2.032c0-.896.325-1.568.976-2.016.661-.448 1.658-.699 2.992-.752l1.504-.048v-.432c0-.555-.134-.949-.4-1.184-.267-.235-.64-.352-1.12-.352-.438 0-.859.064-1.264.192-.395.117-.79.267-1.184.448l-.64-1.408c.426-.224.912-.405 1.456-.544.554-.139 1.13-.208 1.728-.208zm1.424 4.736-1.056.032c-.886.032-1.499.187-1.84.464-.342.267-.512.629-.512 1.088 0 .416.117.715.352.896.245.171.565.256.96.256.586 0 1.082-.165 1.488-.496.405-.341.608-.843.608-1.504zm5.534-7.92c.299 0 .56.08.784.24.224.149.336.421.336.816s-.112.672-.336.832-.485.24-.784.24c-.309 0-.576-.08-.8-.24-.213-.16-.32-.437-.32-.832s.107-.667.32-.816c.224-.16.491-.24.8-.24zm1.008 3.344v8.672h-2.016v-8.672zm4.594 8.672h-2.016v-12.16h2.016zm17.134-5.728c0 1.184-.198 2.219-.592 3.104-.384.875-.976 1.557-1.776 2.048s-1.803.736-3.008.736c-1.227 0-2.235-.245-3.024-.736-.79-.491-1.382-1.179-1.776-2.064-.384-.885-.576-1.92-.576-3.104 0-1.173.192-2.197.576-3.072.394-.885.986-1.568 1.776-2.048.8-.491 1.813-.736 3.04-.736 1.205 0 2.202.245 2.992.736.8.48 1.392 1.163 1.776 2.048.394.875.592 1.904.592 3.088zm-8.592 0c0 1.291.256 2.304.768 3.04.522.736 1.338 1.104 2.448 1.104 1.141 0 1.962-.368 2.464-1.104.501-.736.752-1.749.752-3.04s-.251-2.304-.752-3.04c-.502-.736-1.318-1.104-2.448-1.104-1.12 0-1.942.368-2.464 1.104-.512.736-.768 1.749-.768 3.04zm18.528-2.944v8.672h-1.584l-.272-1.12h-.096c-.277.448-.661.773-1.152.976-.49.203-1.008.304-1.552.304-.97 0-1.733-.251-2.288-.752-.544-.501-.816-1.307-.816-2.416v-5.664h2.016v5.264c0 .651.128 1.136.384 1.456s.662.48 1.216.48c.811 0 1.366-.256 1.664-.768.31-.512.464-1.243.464-2.192v-4.24zm5.93 7.216c.245 0 .485-.021.72-.064.245-.053.469-.112.672-.176v1.504c-.213.107-.491.192-.832.256s-.699.096-1.072.096c-.501 0-.955-.08-1.36-.24-.395-.16-.709-.443-.944-.848s-.352-.976-.352-1.712v-4.512h-1.168v-.88l1.28-.704.64-1.84h1.264v1.904h2.464v1.52h-2.464v4.496c0 .405.107.709.32.912.224.192.501.288.832.288zm5.156 1.456h-2.016v-12.16h2.016zm6.066-8.832c1.162 0 2.08.347 2.752 1.04.682.693 1.024 1.659 1.024 2.896v1.024h-5.728c.021.789.24 1.403.656 1.84.416.427.992.64 1.728.64.554 0 1.056-.053 1.504-.16.448-.117.906-.283 1.376-.496v1.616c-.427.203-.87.352-1.328.448-.459.096-1.008.144-1.648.144-.854 0-1.606-.16-2.256-.48-.651-.331-1.163-.821-1.536-1.472-.363-.661-.544-1.488-.544-2.48 0-1.483.362-2.613 1.088-3.392.736-.779 1.706-1.168 2.912-1.168zm0 1.488c-.544 0-.987.176-1.328.528-.331.341-.523.853-.576 1.536h3.728c-.011-.597-.166-1.088-.464-1.472-.288-.395-.742-.592-1.36-.592zm9.169 5.888c.245 0 .485-.021.72-.064.245-.053.469-.112.672-.176v1.504c-.214.107-.491.192-.832.256-.342.064-.699.096-1.072.096-.502 0-.955-.08-1.36-.24-.395-.16-.71-.443-.944-.848-.235-.405-.352-.976-.352-1.712v-4.512h-1.168v-.88l1.28-.704.64-1.84h1.264v1.904h2.464v1.52h-2.464v4.496c0 .405.106.709.32.912.224.192.501.288.832.288zm9.044-1.056c0 .875-.315 1.541-.944 2-.619.448-1.51.672-2.672.672-.608 0-1.131-.043-1.568-.128-.427-.085-.843-.219-1.248-.4v-1.712c.426.203.896.373 1.408.512.522.139 1.013.208 1.472.208.554 0 .954-.085 1.2-.256.245-.171.368-.4.368-.688 0-.171-.048-.32-.144-.448-.096-.139-.283-.288-.56-.448-.278-.16-.699-.357-1.264-.592-.555-.224-1.019-.448-1.392-.672-.363-.224-.64-.491-.832-.8-.182-.309-.272-.709-.272-1.2 0-.779.309-1.365.928-1.76.618-.405 1.434-.608 2.448-.608.533 0 1.034.053 1.504.16.48.107.96.267 1.44.48l-.64 1.488c-.406-.171-.8-.315-1.184-.432s-.779-.176-1.184-.176c-.886 0-1.328.251-1.328.752 0 .181.053.336.16.464.117.128.314.267.592.416.288.139.693.309 1.215.512.513.203.955.416 1.329.64.373.213.661.48.864.8.202.309.304.715.304 1.216z" fill="#979797"/><path d="m154.4 20-3.136-9.36h-.064c.021.2133.037.5173.048.912.021.384.037.8053.048 1.264.021.448.032.8693.032 1.264v5.92h-1.84v-11.424h2.848l3.008 8.976h.064l3.136-8.976h2.848v11.424h-1.952v-6.016c0-.3627.005-.7573.016-1.184.021-.4373.037-.848.048-1.232.021-.3947.037-.6987.048-.912h-.064l-3.264 9.344zm13.211-8.832c1.12 0 1.968.2453 2.544.736.587.4907.88 1.248.88 2.272v5.824h-1.424l-.4-1.2h-.064c-.373.4693-.768.816-1.184 1.04-.416.2133-.981.32-1.696.32-.778 0-1.424-.2187-1.936-.656s-.768-1.1147-.768-2.032c0-.896.326-1.568.976-2.016.662-.448 1.659-.6987 2.992-.752l1.504-.048v-.432c0-.5547-.133-.9493-.4-1.184-.266-.2347-.64-.352-1.12-.352-.437 0-.858.064-1.264.192-.394.1173-.789.2667-1.184.448l-.64-1.408c.427-.224.912-.4053 1.456-.544.555-.1387 1.131-.208 1.728-.208zm1.424 4.736-1.056.032c-.885.032-1.498.1867-1.84.464-.341.2667-.512.6293-.512 1.088 0 .416.118.7147.352.896.246.1707.566.256.96.256.587 0 1.083-.1653 1.488-.496.406-.3413.608-.8427.608-1.504zm9.167-4.736c.97 0 1.728.2507 2.272.752.554.5013.832 1.312.832 2.432v5.648h-2.016v-5.248c0-.6507-.128-1.136-.384-1.456-.256-.3307-.662-.496-1.216-.496-.811 0-1.366.256-1.664.768-.299.512-.448 1.2427-.448 2.192v4.24h-2.016v-8.672h1.552l.288 1.136h.112c.277-.448.656-.7733 1.136-.976.49-.2133 1.008-.32 1.552-.32zm13.321.16v8.672h-1.584l-.272-1.12h-.096c-.277.448-.661.7733-1.152.976-.49.2027-1.008.304-1.552.304-.97 0-1.733-.2507-2.288-.752-.544-.5013-.816-1.3067-.816-2.416v-5.664h2.016v5.264c0 .6507.128 1.136.384 1.456s.662.48 1.216.48c.811 0 1.366-.256 1.664-.768.31-.512.464-1.2427.464-2.192v-4.24zm7.066 1.52h-2.096v7.152h-2.016v-7.152h-1.392v-.96l1.392-.576v-.592c0-1.10933.261-1.87733.784-2.304.533-.43733 1.259-.656 2.176-.656.416 0 .795.03733 1.136.112.352.064.64.13867.864.224l-.512 1.504c-.181-.05333-.384-.10133-.608-.144-.213-.05333-.448-.08-.704-.08-.395 0-.683.12267-.864.368-.171.23467-.256.576-.256 1.024v.56h2.096zm4.897-1.68c1.12 0 1.968.2453 2.544.736.587.4907.88 1.248.88 2.272v5.824h-1.424l-.4-1.2h-.064c-.373.4693-.768.816-1.184 1.04-.416.2133-.981.32-1.696.32-.778 0-1.424-.2187-1.936-.656s-.768-1.1147-.768-2.032c0-.896.326-1.568.976-2.016.662-.448 1.659-.6987 2.992-.752l1.504-.048v-.432c0-.5547-.133-.9493-.4-1.184-.266-.2347-.64-.352-1.12-.352-.437 0-.858.064-1.264.192-.394.1173-.789.2667-1.184.448l-.64-1.408c.427-.224.912-.4053 1.456-.544.555-.1387 1.131-.208 1.728-.208zm1.424 4.736-1.056.032c-.885.032-1.498.1867-1.84.464-.341.2667-.512.6293-.512 1.088 0 .416.118.7147.352.896.246.1707.566.256.96.256.587 0 1.083-.1653 1.488-.496.406-.3413.608-.8427.608-1.504zm8.031 4.256c-1.238 0-2.219-.3573-2.944-1.072-.715-.7147-1.072-1.84-1.072-3.376 0-1.0667.176-1.9307.528-2.592.362-.672.858-1.1627 1.488-1.472.629-.32 1.349-.48 2.16-.48.533 0 1.013.0533 1.44.16.437.1067.805.2347 1.104.384l-.592 1.584c-.342-.128-.678-.2347-1.008-.32-.331-.096-.646-.144-.944-.144-1.408 0-2.112.9547-2.112 2.864 0 .928.176 1.6267.528 2.096.362.4693.88.704 1.552.704.48 0 .906-.0587 1.28-.176.384-.1173.741-.2773 1.072-.48v1.744c-.331.2027-.688.3467-1.072.432-.384.096-.854.144-1.408.144zm7.871-1.616c.246 0 .486-.0213.72-.064.246-.0533.47-.112.672-.176v1.504c-.213.1067-.49.192-.832.256-.341.064-.698.096-1.072.096-.501 0-.954-.08-1.36-.24-.394-.16-.709-.4427-.944-.848-.234-.4053-.352-.976-.352-1.712v-4.512h-1.168v-.88l1.28-.704.64-1.84h1.264v1.904h2.464v1.52h-2.464v4.496c0 .4053.107.7093.32.912.224.192.502.288.832.288zm10.836-7.216v8.672h-1.584l-.272-1.12h-.096c-.277.448-.661.7733-1.152.976-.49.2027-1.008.304-1.552.304-.97 0-1.733-.2507-2.288-.752-.544-.5013-.816-1.3067-.816-2.416v-5.664h2.016v5.264c0 .6507.128 1.136.384 1.456s.662.48 1.216.48c.811 0 1.366-.256 1.664-.768.31-.512.464-1.2427.464-2.192v-4.24zm7.114-.16c.139 0 .293.0107.464.032.171.0107.309.0267.416.048l-.176 1.872c-.107-.0213-.24-.0373-.4-.048-.149-.0213-.277-.032-.384-.032-.427 0-.827.0907-1.2.272-.373.1707-.677.4373-.912.8-.224.3627-.336.8267-.336 1.392v4.496h-2.016v-8.672h1.552l.288 1.504h.096c.256-.4587.608-.848 1.056-1.168.448-.3307.965-.496 1.552-.496zm5.663 0c1.162 0 2.08.3467 2.752 1.04.682.6933 1.024 1.6587 1.024 2.896v1.024h-5.728c.021.7893.24 1.4027.656 1.84.416.4267.992.64 1.728.64.554 0 1.056-.0533 1.504-.16.448-.1173.906-.2827 1.376-.496v1.616c-.427.2027-.87.352-1.328.448-.459.096-1.008.144-1.648.144-.854 0-1.606-.16-2.256-.48-.651-.3307-1.163-.8213-1.536-1.472-.363-.6613-.544-1.488-.544-2.48 0-1.4827.362-2.6133 1.088-3.392.736-.7787 1.706-1.168 2.912-1.168zm0 1.488c-.544 0-.987.176-1.328.528-.331.3413-.523.8533-.576 1.536h3.728c-.011-.5973-.166-1.088-.464-1.472-.288-.3947-.742-.592-1.36-.592zm10.353-1.488c.138 0 .293.0107.464.032.17.0107.309.0267.416.048l-.176 1.872c-.107-.0213-.24-.0373-.4-.048-.15-.0213-.278-.032-.384-.032-.427 0-.827.0907-1.2.272-.374.1707-.678.4373-.912.8-.224.3627-.336.8267-.336 1.392v4.496h-2.016v-8.672h1.552l.288 1.504h.096c.256-.4587.608-.848 1.056-1.168.448-.3307.965-.496 1.552-.496zm7.447-2.592-4.256 11.424h-1.872l4.256-11.424zm8.247 8.304c0 1.0133-.368 1.8133-1.104 2.4s-1.755.88-3.056.88c-1.259 0-2.326-.2133-3.2-.64v-1.92c.48.2133 1.008.4107 1.584.592.586.1707 1.173.256 1.76.256.693 0 1.194-.1333 1.504-.4.32-.2773.48-.6293.48-1.056 0-.4693-.203-.8427-.608-1.12-.406-.288-.998-.5973-1.776-.928-.47-.192-.923-.4267-1.36-.704-.427-.288-.779-.6453-1.056-1.072-.267-.4373-.4-.9813-.4-1.632 0-.9707.341-1.73333 1.024-2.288.693-.55467 1.616-.832 2.768-.832.597 0 1.162.064 1.696.192.544.128 1.077.30933 1.6.544l-.656 1.648c-.48-.2027-.939-.3627-1.376-.48-.427-.1173-.87-.176-1.328-.176-.555 0-.976.1227-1.264.368s-.432.5707-.432.976c0 .3093.08.576.24.8.16.2133.405.4107.736.592.341.1813.778.3893 1.312.624.618.2667 1.141.5493 1.568.848.437.288.768.6347.992 1.04.234.3947.352.8907.352 1.488zm9.661-5.552v8.672h-1.584l-.272-1.12h-.096c-.278.448-.662.7733-1.152.976-.491.2027-1.008.304-1.552.304-.971 0-1.734-.2507-2.288-.752-.544-.5013-.816-1.3067-.816-2.416v-5.664h2.016v5.264c0 .6507.128 1.136.384 1.456s.661.48 1.216.48c.81 0 1.365-.256 1.664-.768.309-.512.464-1.2427.464-2.192v-4.24zm7.129-.16c1.014 0 1.83.3787 2.448 1.136.619.7467.928 1.8613.928 3.344s-.32 2.608-.96 3.376c-.629.7573-1.45 1.136-2.464 1.136-.64 0-1.157-.1173-1.552-.352-.394-.2347-.709-.5067-.944-.816h-.128c.032.2027.059.4213.08.656.032.2347.048.4587.048.672v3.52h-2.016v-12.512h1.632l.288 1.152h.096c.246-.3627.566-.672.96-.928.395-.256.923-.384 1.584-.384zm-.576 1.632c-.714 0-1.221.2133-1.52.64-.288.4267-.437 1.072-.448 1.936v.256c0 .928.139 1.6427.416 2.144.288.4907.816.736 1.584.736.63 0 1.094-.256 1.392-.768.31-.5227.464-1.232.464-2.128s-.154-1.5893-.464-2.08c-.298-.4907-.773-.736-1.424-.736zm10.592-1.632c1.013 0 1.829.3787 2.448 1.136.619.7467.928 1.8613.928 3.344s-.32 2.608-.96 3.376c-.629.7573-1.451 1.136-2.464 1.136-.64 0-1.157-.1173-1.552-.352s-.709-.5067-.944-.816h-.128c.032.2027.059.4213.08.656.032.2347.048.4587.048.672v3.52h-2.016v-12.512h1.632l.288 1.152h.096c.245-.3627.565-.672.96-.928s.923-.384 1.584-.384zm-.576 1.632c-.715 0-1.221.2133-1.52.64-.288.4267-.437 1.072-.448 1.936v.256c0 .928.139 1.6427.416 2.144.288.4907.816.736 1.584.736.629 0 1.093-.256 1.392-.768.309-.5227.464-1.232.464-2.128s-.155-1.5893-.464-2.08c-.299-.4907-.773-.736-1.424-.736zm8.048 7.2h-2.016v-12.16h2.016zm3.585-12.016c.299 0 .56.08.784.24.224.14933.336.42133.336.816s-.112.672-.336.832-.485.24-.784.24c-.309 0-.576-.08-.8-.24-.213-.16-.32-.43733-.32-.832s.107-.66667.32-.816c.224-.16.491-.24.8-.24zm1.008 3.344v8.672h-2.016v-8.672zm6.066-.16c1.163 0 2.08.3467 2.752 1.04.683.6933 1.024 1.6587 1.024 2.896v1.024h-5.728c.021.7893.24 1.4027.656 1.84.416.4267.992.64 1.728.64.555 0 1.056-.0533 1.504-.16.448-.1173.907-.2827 1.376-.496v1.616c-.427.2027-.869.352-1.328.448s-1.008.144-1.648.144c-.853 0-1.605-.16-2.256-.48-.651-.3307-1.163-.8213-1.536-1.472-.363-.6613-.544-1.488-.544-2.48 0-1.4827.363-2.6133 1.088-3.392.736-.7787 1.707-1.168 2.912-1.168zm0 1.488c-.544 0-.987.176-1.328.528-.331.3413-.523.8533-.576 1.536h3.728c-.011-.5973-.165-1.088-.464-1.472-.288-.3947-.741-.592-1.36-.592zm10.353-1.488c.139 0 .293.0107.464.032.171.0107.309.0267.416.048l-.176 1.872c-.107-.0213-.24-.0373-.4-.048-.149-.0213-.277-.032-.384-.032-.427 0-.827.0907-1.2.272-.373.1707-.677.4373-.912.8-.224.3627-.336.8267-.336 1.392v4.496h-2.016v-8.672h1.552l.288 1.504h.096c.256-.4587.608-.848 1.056-1.168.448-.3307.965-.496 1.552-.496z" fill="#979797"/><g stroke="#e9f4ff" stroke-width="20"><path d="m232 102v413"/><path d="m191 122v157.499c0 7.201-2.876 14.103-7.99 19.173l-102.0205 101.156c-5.1132 5.07-7.9895 11.972-7.9895 19.173v131.999"/><path d="m273 122v157.499c0 7.201 2.876 14.103 7.99 19.173l102.02 101.156c5.114 5.07 7.99 11.972 7.99 19.173v131.999"/></g><path d="m232 102v413.137" stroke="#0072f5"/><path d="m191 122.083v157.465c0 7.201-2.877 14.104-7.991 19.174l-102.0176 101.134c-5.1144 5.07-7.9914 11.973-7.9914 19.174v131.97" stroke="#0072f5"/><path d="m273 122.083v157.465c0 7.201 2.877 14.104 7.991 19.174l102.018 101.134c5.114 5.07 7.991 11.973 7.991 19.174v131.97" stroke="#0072f5"/><g filter="url(#a)"><rect fill="#fff" height="107" rx="11" width="115" x="20" y="533"/></g><g filter="url(#b)"><rect fill="#fff" height="107" rx="11" width="115" x="330" y="533"/></g><path d="m102.674 575.206h-50.8815v31.794h50.8815z" fill="#ff5753"/><path d="m106 570.735h-57v4.492h57z" fill="#34233c"/><path d="m63.3527 582.962c5.4433 0 9.8559-4.468 9.8559-9.981 0-5.512-4.4126-9.981-9.8559-9.981-5.4432 0-9.8559 4.469-9.8559 9.981 0 5.513 4.4127 9.981 9.8559 9.981z" fill="#0055bf"/><path d="m63.3526 581.174c4.468 0 8.0901-3.668 8.0901-8.193s-3.6221-8.193-8.0901-8.193-8.09 3.668-8.09 8.193 3.622 8.193 8.09 8.193z" fill="#0067e8"/><path d="m71.5453 589.803h-10.9236v17.197h10.9236z" fill="#fff"/><path d="m96.2055 584.397h-14.4142v2.121h14.4142z" fill="#fff"/><path d="m96.2055 590.053h-14.4142v2.121h14.4142z" fill="#fff"/><path d="m57.5621 570.59h11.4165" stroke="#fff" stroke-miterlimit="10"/><path d="m57.5621 572.981h11.4165" stroke="#fff" stroke-miterlimit="10"/><path d="m57.5621 575.352h11.4165" stroke="#fff" stroke-miterlimit="10"/><path d="m412.674 575.206h-50.882v31.794h50.882z" fill="#ff5753"/><path d="m416 570.735h-57v4.492h57z" fill="#34233c"/><path d="m373.353 582.962c5.443 0 9.856-4.468 9.856-9.981 0-5.512-4.413-9.981-9.856-9.981-5.444 0-9.856 4.469-9.856 9.981 0 5.513 4.412 9.981 9.856 9.981z" fill="#0055bf"/><path d="m373.353 581.174c4.468 0 8.09-3.668 8.09-8.193s-3.622-8.193-8.09-8.193-8.09 3.668-8.09 8.193 3.622 8.193 8.09 8.193z" fill="#0067e8"/><path d="m381.545 589.803h-10.923v17.197h10.923z" fill="#fff"/><path d="m406.206 584.397h-14.415v2.121h14.415z" fill="#fff"/><path d="m406.206 590.053h-14.415v2.121h14.415z" fill="#fff"/><path d="m367.562 570.59h11.417" stroke="#fff" stroke-miterlimit="10"/><path d="m367.562 572.981h11.417" stroke="#fff" stroke-miterlimit="10"/><path d="m367.562 575.352h11.417" stroke="#fff" stroke-miterlimit="10"/><g filter="url(#c)"><rect fill="#fff" height="107" rx="11" width="115" x="175" y="494"/></g><path d="m257.674 536.206h-50.882v31.794h50.882z" fill="#ff5753"/><path d="m261 531.735h-57v4.492h57z" fill="#34233c"/><path d="m218.353 543.962c5.443 0 9.856-4.468 9.856-9.981 0-5.512-4.413-9.981-9.856-9.981-5.444 0-9.856 4.469-9.856 9.981 0 5.513 4.412 9.981 9.856 9.981z" fill="#0055bf"/><path d="m218.353 542.174c4.468 0 8.09-3.668 8.09-8.193s-3.622-8.193-8.09-8.193-8.09 3.668-8.09 8.193 3.622 8.193 8.09 8.193z" fill="#0067e8"/><path d="m226.545 550.803h-10.923v17.197h10.923z" fill="#fff"/><path d="m251.206 545.397h-14.415v2.121h14.415z" fill="#fff"/><path d="m251.206 551.053h-14.415v2.121h14.415z" fill="#fff"/><path d="m212.562 531.59h11.417" stroke="#fff" stroke-miterlimit="10"/><path d="m212.562 533.981h11.417" stroke="#fff" stroke-miterlimit="10"/><path d="m212.562 536.352h11.417" stroke="#fff" stroke-miterlimit="10"/><g filter="url(#d)"><rect fill="#fff" height="73" rx="11" width="227" x="119" y="54"/></g><path d="m238.168 85.576-2.96 11.424h-2.256l-1.808-6.56c-.053-.2133-.123-.4853-.208-.816-.075-.3413-.149-.6667-.224-.976-.064-.32-.101-.56-.112-.72-.021.16-.064.4-.128.72-.064.3093-.133.6347-.208.976-.075.3307-.144.6133-.208.848l-1.76 6.528h-2.272l-2.944-11.424h2.048l1.568 6.512c.075.2773.144.592.208.944.075.352.144.704.208 1.056.064.3413.112.64.144.896.032-.2773.08-.5867.144-.928.064-.352.128-.6933.192-1.024.075-.3413.149-.6293.224-.864l1.792-6.592h1.984l1.824 6.608c.075.2453.149.5387.224.88s.144.6827.208 1.024.112.64.144.896c.032-.256.08-.5547.144-.896.064-.352.133-.6987.208-1.04.075-.352.144-.672.208-.96l1.568-6.512zm4.522 2.592c1.12 0 1.968.2453 2.544.736.586.4907.88 1.248.88 2.272v5.824h-1.424l-.4-1.2h-.064c-.374.4693-.768.816-1.184 1.04-.416.2133-.982.32-1.696.32-.779 0-1.424-.2187-1.936-.656s-.768-1.1147-.768-2.032c0-.896.325-1.568.976-2.016.661-.448 1.658-.6987 2.992-.752l1.504-.048v-.432c0-.5547-.134-.9493-.4-1.184-.267-.2347-.64-.352-1.12-.352-.438 0-.859.064-1.264.192-.395.1173-.79.2667-1.184.448l-.64-1.408c.426-.224.912-.4053 1.456-.544.554-.1387 1.13-.208 1.728-.208zm1.424 4.736-1.056.032c-.886.032-1.499.1867-1.84.464-.342.2667-.512.6293-.512 1.088 0 .416.117.7147.352.896.245.1707.565.256.96.256.586 0 1.082-.1653 1.488-.496.405-.3413.608-.8427.608-1.504zm9.07-4.736c.138 0 .293.0107.464.032.17.0107.309.0267.416.048l-.176 1.872c-.107-.0213-.24-.0373-.4-.048-.15-.0213-.278-.032-.384-.032-.427 0-.827.0907-1.2.272-.374.1707-.678.4373-.912.8-.224.3627-.336.8267-.336 1.392v4.496h-2.016v-8.672h1.552l.288 1.504h.096c.256-.4587.608-.848 1.056-1.168.448-.3307.965-.496 1.552-.496zm5.663 0c1.162 0 2.08.3467 2.752 1.04.682.6933 1.024 1.6587 1.024 2.896v1.024h-5.728c.021.7893.24 1.4027.656 1.84.416.4267.992.64 1.728.64.554 0 1.056-.0533 1.504-.16.448-.1173.906-.2827 1.376-.496v1.616c-.427.2027-.87.352-1.328.448-.459.096-1.008.144-1.648.144-.854 0-1.606-.16-2.256-.48-.651-.3307-1.163-.8213-1.536-1.472-.363-.6613-.544-1.488-.544-2.48 0-1.4827.362-2.6133 1.088-3.392.736-.7787 1.706-1.168 2.912-1.168zm0 1.488c-.544 0-.987.176-1.328.528-.331.3413-.523.8533-.576 1.536h3.728c-.011-.5973-.166-1.088-.464-1.472-.288-.3947-.742-.592-1.36-.592zm7.824-4.816v2.896c0 .3413-.016.6773-.048 1.008-.021.32-.042.56-.064.72h.128c.278-.4373.64-.7627 1.088-.976s.944-.32 1.488-.32c.982 0 1.75.256 2.304.768.555.5013.832 1.3067.832 2.416v5.648h-2.016v-5.248c0-.6507-.128-1.136-.384-1.456-.256-.3307-.661-.496-1.216-.496-.81 0-1.365.256-1.664.768-.298.512-.448 1.2427-.448 2.192v4.24h-2.016v-12.16zm15.994 7.808c0 1.44-.373 2.5547-1.12 3.344-.747.7787-1.76 1.168-3.04 1.168-.789 0-1.493-.176-2.112-.528s-1.104-.864-1.456-1.536-.528-1.488-.528-2.448c0-1.44.368-2.544 1.104-3.312.747-.7787 1.76-1.168 3.04-1.168.8 0 1.509.176 2.128.528.619.3413 1.104.848 1.456 1.52.352.6613.528 1.472.528 2.432zm-6.192 0c0 .9173.16 1.6267.48 2.128.331.5013.859.752 1.584.752.715 0 1.237-.2507 1.568-.752s.496-1.2107.496-2.128-.165-1.6213-.496-2.112-.859-.736-1.584-.736-1.248.2453-1.568.736-.48 1.1947-.48 2.112zm15.972-4.32v8.672h-1.584l-.272-1.12h-.096c-.277.448-.661.7733-1.152.976s-1.008.304-1.552.304c-.971 0-1.733-.2507-2.288-.752-.544-.5013-.816-1.3067-.816-2.416v-5.664h2.016v5.264c0 .6507.128 1.136.384 1.456s.661.48 1.216.48c.811 0 1.365-.256 1.664-.768.309-.512.464-1.2427.464-2.192v-4.24zm8.474 6.16c0 .8747-.315 1.5413-.944 2-.619.448-1.51.672-2.672.672-.608 0-1.131-.0427-1.568-.128-.427-.0853-.843-.2187-1.248-.4v-1.712c.426.2027.896.3733 1.408.512.522.1387 1.013.208 1.472.208.554 0 .954-.0853 1.2-.256.245-.1707.368-.4.368-.688 0-.1707-.048-.32-.144-.448-.096-.1387-.283-.288-.56-.448-.278-.16-.699-.3573-1.264-.592-.555-.224-1.019-.448-1.392-.672-.363-.224-.64-.4907-.832-.8-.182-.3093-.272-.7093-.272-1.2 0-.7787.309-1.3653.928-1.76.618-.4053 1.434-.608 2.448-.608.533 0 1.034.0533 1.504.16.48.1067.96.2667 1.44.48l-.64 1.488c-.406-.1707-.8-.3147-1.184-.432s-.779-.176-1.184-.176c-.886 0-1.328.2507-1.328.752 0 .1813.053.336.16.464.117.128.314.2667.592.416.288.1387.693.3093 1.216.512.512.2027.954.416 1.328.64.373.2133.661.48.864.8.202.3093.304.7147.304 1.216zm5.428-6.32c1.162 0 2.08.3467 2.752 1.04.682.6933 1.024 1.6587 1.024 2.896v1.024h-5.728c.021.7893.24 1.4027.656 1.84.416.4267.992.64 1.728.64.554 0 1.056-.0533 1.504-.16.448-.1173.906-.2827 1.376-.496v1.616c-.427.2027-.87.352-1.328.448-.459.096-1.008.144-1.648.144-.854 0-1.606-.16-2.256-.48-.651-.3307-1.163-.8213-1.536-1.472-.363-.6613-.544-1.488-.544-2.48 0-1.4827.362-2.6133 1.088-3.392.736-.7787 1.706-1.168 2.912-1.168zm0 1.488c-.544 0-.987.176-1.328.528-.331.3413-.523.8533-.576 1.536h3.728c-.011-.5973-.166-1.088-.464-1.472-.288-.3947-.742-.592-1.36-.592z" fill="#979797"/><g clip-path="url(#h)"><g fill="#ff5753"><path d="m156.332 81.7523h51.668l-24.39-12.7523z"/><path d="m208.022 81.7524h-51.69v24.4626h51.69z"/><path d="m208.022 81.7524h-51.69v5.0058h51.69z"/></g><path d="m204.069 86.7808h-44.227v19.4572h44.227z" fill="#fff"/><path d="m183.61 69-10.929 17.7807h-16.349v-5.0284z" fill="#34233c"/><path d="m173.851 115.995h17.06v-6.864h-17.06z" fill="#e9a01e"/><path d="m167.934 115.995h5.908v-6.864h-5.908z" fill="#fac348"/><path d="m173.851 108.414h17.06v-6.864h-17.06z" fill="#e9a01e"/><path d="m167.934 108.414h5.908v-6.864h-5.908z" fill="#fac348"/><path d="m154.703 109.124h36.207v-.703h-36.207z" fill="#fff"/><path d="m173.851 100.856h17.06v-6.8632h-17.06z" fill="#e9a01e"/><path d="m167.934 100.856h5.908v-6.8632h-5.908z" fill="#fac348"/><path d="m154.703 101.565h36.207v-.702h-36.207z" fill="#fff"/><path d="m167.927 93.9834h-.688v22.0166h.688z" fill="#fff"/><path d="m161.324 115.995h5.908v-6.864h-5.908z" fill="#fac348"/><path d="m161.324 108.414h5.908v-6.864h-5.908z" fill="#fac348"/><path d="m161.324 100.856h5.908v-6.8632h-5.908z" fill="#fac348"/><path d="m161.308 93.9834h-.688v22.0166h.688z" fill="#fff"/><path d="m154.714 115.995h5.909v-6.864h-5.909z" fill="#fac348"/><path d="m154.714 108.414h5.909v-6.864h-5.909z" fill="#fac348"/><path d="m154.714 100.856h5.909v-6.8632h-5.909z" fill="#fac348"/><path d="m154.689 93.9834h-.689v22.0166h.689z" fill="#fff"/></g><g filter="url(#e)"><rect fill="#fff" height="50" rx="6" width="54" x="206" y="198"/></g><g filter="url(#f)"><rect fill="#fff" height="50" rx="6" width="54" x="362" y="424"/></g><g filter="url(#g)"><rect fill="#fff" height="50" rx="6" width="54" x="45" y="424"/></g><path d="m214.262 229.289v-11.991c0-1.389 1.133-2.528 2.526-2.528h17.973c1.246 0 2.458.444 3.42 1.253l5.992 5.056 7.735 1.878c.566.137 1.03.536 1.257 1.071l.543 1.275c.102.228.148.479.148.74v2.961c0 .16-.125.285-.283.285z" fill="#ffc347"/><path d="m229.869 214.77.261 14.485h23.726v-3.291c0-.296-.068-.592-.193-.866l-.543-1.15c-.215-.489-.646-.854-1.167-.979l-7.791-1.879-5.584-4.908c-1.019-.911-2.344-1.412-3.715-1.412z" fill="#ffc347"/><path d="m231.863 216.865v4.248c0 .25.204.455.453.455h9.094c.317 0 .464-.387.227-.592l-4.938-4.464c-.068-.056-.148-.091-.227-.091h-4.156c-.249-.011-.453.194-.453.444z" fill="#fff"/><path d="m247.061 232.159c1.595 0 2.888-1.3 2.888-2.904s-1.293-2.904-2.888-2.904-2.888 1.3-2.888 2.904 1.293 2.904 2.888 2.904z" fill="#34233c"/><path d="m247.061 230.28c.563 0 1.019-.459 1.019-1.025s-.456-1.025-1.019-1.025-1.019.459-1.019 1.025.456 1.025 1.019 1.025z" fill="#fff"/><path d="m241.739 229.289h-28.325v-4.134h24.214c2.276 0 4.111 1.845 4.111 4.134z" fill="#f39719"/><path d="m221.08 232.159c1.595 0 2.887-1.3 2.887-2.904s-1.292-2.904-2.887-2.904-2.888 1.3-2.888 2.904 1.293 2.904 2.888 2.904z" fill="#34233c"/><path d="m221.08 230.28c.563 0 1.019-.459 1.019-1.025s-.456-1.025-1.019-1.025-1.02.459-1.02 1.025.457 1.025 1.02 1.025z" fill="#fff"/><path d="m370.262 455.289v-11.991c0-1.389 1.133-2.528 2.526-2.528h17.973c1.246 0 2.458.444 3.42 1.253l5.992 5.056 7.735 1.878c.566.137 1.03.536 1.257 1.071l.543 1.275c.102.228.148.479.148.74v2.961c0 .16-.125.285-.283.285z" fill="#ffc347"/><path d="m385.869 440.77.261 14.485h23.726v-3.291c0-.296-.068-.592-.193-.866l-.543-1.15c-.215-.489-.646-.854-1.167-.979l-7.791-1.879-5.584-4.908c-1.019-.911-2.344-1.412-3.715-1.412z" fill="#ffc347"/><path d="m387.863 442.865v4.248c0 .25.204.455.453.455h9.094c.317 0 .464-.387.227-.592l-4.938-4.464c-.068-.056-.148-.091-.227-.091h-4.156c-.249-.011-.453.194-.453.444z" fill="#fff"/><path d="m403.061 458.159c1.595 0 2.888-1.3 2.888-2.904s-1.293-2.904-2.888-2.904-2.888 1.3-2.888 2.904 1.293 2.904 2.888 2.904z" fill="#34233c"/><path d="m403.061 456.28c.563 0 1.019-.459 1.019-1.025s-.456-1.025-1.019-1.025-1.019.459-1.019 1.025.456 1.025 1.019 1.025z" fill="#fff"/><path d="m397.739 455.289h-28.325v-4.134h24.214c2.276 0 4.111 1.845 4.111 4.134z" fill="#f39719"/><path d="m377.08 458.159c1.595 0 2.887-1.3 2.887-2.904s-1.292-2.904-2.887-2.904-2.888 1.3-2.888 2.904 1.293 2.904 2.888 2.904z" fill="#34233c"/><path d="m377.08 456.28c.563 0 1.019-.459 1.019-1.025s-.456-1.025-1.019-1.025-1.02.459-1.02 1.025.457 1.025 1.02 1.025z" fill="#fff"/><path d="m53.2625 455.289v-11.991c0-1.389 1.1325-2.528 2.5255-2.528h17.9732c1.2458 0 2.4576.444 3.4203 1.253l5.9911 5.056 7.7351 1.878c.5663.137 1.0307.536 1.2572 1.071l.5436 1.275c.1019.228.1472.479.1472.74v2.961c0 .16-.1246.285-.2831.285z" fill="#ffc347"/><path d="m68.869 440.77.2605 14.485h23.7265v-3.291c0-.296-.068-.592-.1925-.866l-.5436-1.15c-.2152-.489-.6456-.854-1.1666-.979l-7.7918-1.879-5.5833-4.908c-1.0193-.911-2.3444-1.412-3.7147-1.412z" fill="#ffc347"/><path d="m70.8628 442.865v4.248c0 .25.2038.455.453.455h9.0942c.3171 0 .4644-.387.2265-.592l-4.9378-4.464c-.068-.056-.1472-.091-.2265-.091h-4.1564c-.2492-.011-.453.194-.453.444z" fill="#fff"/><path d="m86.061 458.159c1.595 0 2.8879-1.3 2.8879-2.904s-1.2929-2.904-2.8879-2.904-2.888 1.3-2.888 2.904 1.293 2.904 2.888 2.904z" fill="#34233c"/><path d="m86.0611 456.28c.5629 0 1.0193-.459 1.0193-1.025s-.4564-1.025-1.0193-1.025-1.0193.459-1.0193 1.025.4564 1.025 1.0193 1.025z" fill="#fff"/><path d="m80.7386 455.289h-28.3245v-4.134h24.2135c2.2763 0 4.111 1.845 4.111 4.134z" fill="#f39719"/><path d="m60.0796 458.159c1.595 0 2.888-1.3 2.888-2.904s-1.293-2.904-2.888-2.904-2.8879 1.3-2.8879 2.904 1.2929 2.904 2.8879 2.904z" fill="#34233c"/><path d="m60.0797 456.28c.5629 0 1.0193-.459 1.0193-1.025s-.4564-1.025-1.0193-1.025-1.0193.459-1.0193 1.025.4564 1.025 1.0193 1.025z" fill="#fff"/></svg>