<svg width="748" height="505" viewBox="0 0 748 505" fill="none" xmlns="http://www.w3.org/2000/svg">
<g clip-path="url(#clip0)">
<rect width="748" height="505" fill="white"/>
<rect x="-151" y="-52" width="923" height="557" rx="6" fill="#E7F3FF"/>
<path d="M78.4264 449.574L24 504L0 626H748V432H120.853C104.94 432 89.6786 438.321 78.4264 449.574Z" fill="#BCDEFF"/>
<g clip-path="url(#clip1)">
<path d="M728.461 200.681H402.413L204.291 260.458V326.475H613.655L728.461 200.681Z" fill="#FF5753"/>
<path d="M939.376 260.458L728.462 200.681L530.012 260.458V326.475H939.376V260.458Z" fill="white"/>
<path d="M938.064 326.475H530.012V432.892H938.064V326.475Z" fill="#2C2334"/>
<path d="M617.592 362.933H608.408V433.22H617.592V362.933Z" fill="#FF5753"/>
<path d="M738.959 362.933H729.774V433.22H738.959V362.933Z" fill="#FF5753"/>
<path d="M530.012 433.22L608.408 384.61V433.22H530.012Z" fill="white"/>
<path d="M651.049 433.22L729.773 384.61V433.22H651.049Z" fill="white"/>
<path d="M529.684 260.458H202.651V432.892H529.684V260.458Z" fill="#2C2334"/>
<path d="M539.196 325.818H530.012V432.892H539.196V325.818Z" fill="#FF5753"/>
<path d="M309.913 173.42L294.5 155.355C281.5 143 274.171 135.5 271.5 109.5C270.01 95 253.166 82.4401 238.405 83.4254C221.676 84.4108 207.899 97.877 206.587 114.628C206.587 114.956 206.587 114.956 206.587 115.285C205.275 131.707 196.747 146.487 182.97 155.355C156.729 172.763 139.344 202.98 140 237.466C140.984 288.704 182.642 330.745 233.813 332.059C287.935 333.373 332.218 289.689 332.218 235.824C332.546 211.848 324.017 190.17 309.913 173.42Z" fill="white"/>
<path d="M291 150L238 235" stroke="#0067E8" stroke-width="0.5" stroke-miterlimit="10"/>
<path d="M323.362 194.769L238.405 322.534" stroke="#0067E8" stroke-width="0.5" stroke-miterlimit="10"/>
<path d="M187.563 150.428L238.405 234.51" stroke="#0067E8" stroke-width="0.5" stroke-miterlimit="10"/>
<path d="M150.168 191.484L238.405 322.534" stroke="#0067E8" stroke-width="0.5" stroke-miterlimit="10"/>
<path d="M251 86L238 104.494V159.975V435" stroke="#0067E8" stroke-width="0.5" stroke-miterlimit="10"/>
<path d="M268.253 433.548V373.114C268.253 366.217 273.829 360.305 281.046 360.305H371.906C378.138 360.305 384.371 362.604 389.291 366.545L419.468 392.164L458.502 401.689C461.455 402.346 463.751 404.316 464.735 406.944L467.359 413.513C468.015 414.827 468.015 415.812 468.015 417.126V431.906C468.015 432.563 467.359 433.22 466.703 433.22H268.253V433.548Z" fill="#FAC348"/>
<path d="M404.052 433.548H265.301V418.768H384.043C390.603 418.768 396.507 422.053 400.115 427.308L404.052 433.548Z" fill="#F39719"/>
<path d="M357.145 371.144V392.493C357.145 393.806 358.129 394.792 359.441 394.792H405.363C407.003 394.792 407.659 392.821 406.675 391.836L381.746 369.501C381.418 369.173 381.09 369.173 380.434 369.173H359.441C358.129 368.845 357.145 369.83 357.145 371.144Z" fill="white"/>
<path d="M434.229 448.328C442.381 448.328 448.99 441.711 448.99 433.548C448.99 425.385 442.381 418.768 434.229 418.768C426.077 418.768 419.468 425.385 419.468 433.548C419.468 441.711 426.077 448.328 434.229 448.328Z" fill="#34233C"/>
<path d="M434.229 438.803C437.127 438.803 439.477 436.45 439.477 433.548C439.477 430.646 437.127 428.293 434.229 428.293C431.33 428.293 428.98 430.646 428.98 433.548C428.98 436.45 431.33 438.803 434.229 438.803Z" fill="white"/>
<path d="M468.343 411.542H458.503V421.396H468.343V411.542Z" fill="#34233C"/>
<path d="M445.382 411.214H458.502V421.396L445.382 411.214Z" fill="white"/>
<path d="M302.694 448.328C310.846 448.328 317.455 441.711 317.455 433.548C317.455 425.385 310.846 418.768 302.694 418.768C294.542 418.768 287.934 425.385 287.934 433.548C287.934 441.711 294.542 448.328 302.694 448.328Z" fill="#34233C"/>
<path d="M302.695 438.803C305.593 438.803 307.943 436.45 307.943 433.548C307.943 430.646 305.593 428.293 302.695 428.293C299.796 428.293 297.446 430.646 297.446 433.548C297.446 436.45 299.796 438.803 302.695 438.803Z" fill="white"/>
</g>
</g>
<defs>
<clipPath id="clip0">
<rect width="748" height="505" fill="white"/>
</clipPath>
<clipPath id="clip1">
<rect width="802" height="448" fill="white" transform="translate(140)"/>
</clipPath>
</defs>
</svg>
