<svg width="92" height="61" viewBox="0 0 92 61" fill="none" xmlns="http://www.w3.org/2000/svg">
<path d="M28.6748 30.6234C28.4929 29.0033 28.6748 5.25513 28.6748 5.25513H10.8432C10.0863 5.2548 9.34296 5.45352 8.68888 5.83101C8.03481 6.20849 7.49347 6.75125 7.12004 7.40388L0.219494 19.4816C0.0807989 19.7233 0.00735785 19.9965 0.00622559 20.2746V37.9994C0.00705457 38.4255 0.178143 38.8339 0.482078 39.1353C0.786013 39.4366 1.198 39.6062 1.62783 39.607H28.6811L28.6748 30.6234Z" fill="#0067E8"/>
<path d="M14.3781 30.6234C14.1962 29.0033 14.3781 5.25513 14.3781 5.25513H10.8432C10.0863 5.2548 9.34296 5.45352 8.68888 5.83101C8.03481 6.20849 7.49347 6.75125 7.12004 7.40388L0.219494 19.4816C0.0807989 19.7233 0.00735785 19.9965 0.00622559 20.2746V37.9994C0.00705457 38.4255 0.178143 38.8339 0.482078 39.1353C0.786013 39.4366 1.198 39.6062 1.62783 39.607H14.3844L14.3781 30.6234Z" fill="#0055BF"/>
<path d="M20.3252 49.8751C25.0388 49.8751 28.86 46.0869 28.86 41.4139C28.86 36.7409 25.0388 32.9526 20.3252 32.9526C15.6117 32.9526 11.7905 36.7409 11.7905 41.4139C11.7905 46.0869 15.6117 49.8751 20.3252 49.8751Z" fill="#34233C"/>
<path d="M20.3253 44.4022C21.9901 44.4022 23.3396 43.0643 23.3396 41.4139C23.3396 39.7635 21.9901 38.4255 20.3253 38.4255C18.6606 38.4255 17.311 39.7635 17.311 41.4139C17.311 43.0643 18.6606 44.4022 20.3253 44.4022Z" fill="white"/>
<path d="M24.1394 10.9178V21.4283C24.1394 21.6615 24.0931 21.8924 24.0031 22.1078C23.9131 22.3232 23.7812 22.519 23.6149 22.6838C23.4486 22.8487 23.2511 22.9795 23.0338 23.0687C22.8165 23.158 22.5836 23.2039 22.3484 23.2039H3.81104V20.3586C3.8121 20.0284 3.90669 19.7052 4.08396 19.4257L10.0027 9.98492C10.1637 9.72883 10.3878 9.51764 10.654 9.37128C10.9202 9.22492 11.2196 9.14823 11.524 9.14844H22.3484C22.8224 9.14844 23.277 9.33465 23.6127 9.6663C23.9484 9.99794 24.1378 10.448 24.1394 10.9178Z" fill="white"/>
<path d="M33.0286 31.2329L78.2899 31.2329V0.1772L33.0286 0.1772L33.0286 31.2329Z" fill="#0067E8"/>
<path d="M28.6938 36.5317L78.6287 36.5317V30.9407L28.6938 30.9407V36.5317Z" fill="#34233C"/>
<path d="M60.0285 49.8751C64.7421 49.8751 68.5632 46.0869 68.5632 41.4139C68.5632 36.7409 64.7421 32.9526 60.0285 32.9526C55.3149 32.9526 51.4938 36.7409 51.4938 41.4139C51.4938 46.0869 55.3149 49.8751 60.0285 49.8751Z" fill="#34233C"/>
<path d="M60.0285 44.4022C61.6932 44.4022 63.0427 43.0643 63.0427 41.4139C63.0427 39.7635 61.6932 38.4255 60.0285 38.4255C58.3637 38.4255 57.0142 39.7635 57.0142 41.4139C57.0142 43.0643 58.3637 44.4022 60.0285 44.4022Z" fill="white"/>
<path d="M33.0286 31.233V0.177248L68.5632 0L48.3321 20.6012V31.233H33.0286Z" fill="#0055BF"/>
<path d="M50.1639 36.0808C49.8847 34.6069 50.0792 17.4574 50.145 12.4167C50.1492 12.0469 50.3004 11.6937 50.566 11.4339C50.8315 11.1742 51.1898 11.0289 51.5628 11.0298H84.7011C85.0768 11.0306 85.437 11.179 85.7027 11.4424C85.9684 11.7058 86.118 12.0628 86.1188 12.4353V36.0684L90.0396 41.1433V48.51H47.2217V40.5058L50.1639 36.0808Z" fill="#FF5753"/>
<path d="M82.2232 14.5967H54.7089C54.5443 14.5967 54.4109 14.7289 54.4109 14.8921V26.1582C54.4109 26.3214 54.5443 26.4536 54.7089 26.4536H82.2232C82.3878 26.4536 82.5212 26.3214 82.5212 26.1582V14.8921C82.5212 14.7289 82.3878 14.5967 82.2232 14.5967Z" fill="white"/>
<path d="M50.1607 36.0808H86.1156L90.0396 41.1557V48.5193H47.2185V40.5058L50.1607 36.0808Z" fill="#FF5753"/>
<path d="M92 47.8477H44.932V51.7627H92V47.8477Z" fill="#34233C"/>
<path d="M56.5594 47.8477H57.7136C58.6021 47.8477 59.4542 48.1976 60.0824 48.8204C60.7106 49.4432 61.0635 50.2879 61.0635 51.1687V56.113C61.0652 56.6254 60.9647 57.1331 60.7679 57.6069C60.571 58.0808 60.2817 58.5113 59.9165 58.874C59.5513 59.2366 59.1174 59.5241 58.6398 59.72C58.1622 59.916 57.6503 60.0164 57.1334 60.0156C56.0927 60.0156 55.0946 59.6057 54.3588 58.8762C53.6229 58.1466 53.2095 57.1572 53.2095 56.1254V51.1812C53.2095 50.3004 53.5624 49.4556 54.1906 48.8328C54.8189 48.21 55.6709 47.8601 56.5594 47.8601V47.8477Z" fill="#34233C"/>
<path d="M79.1493 47.8477H80.2973C81.1858 47.8477 82.0378 48.1976 82.6661 48.8204C83.2943 49.4432 83.6472 50.2879 83.6472 51.1687V56.113C83.6489 56.6249 83.5486 57.1321 83.3521 57.6055C83.1557 58.0789 82.8669 58.5092 82.5024 58.8718C82.1379 59.2343 81.7047 59.522 81.2278 59.7183C80.751 59.9145 80.2397 60.0156 79.7233 60.0156C78.6827 60.0156 77.6846 59.6057 76.9487 58.8762C76.2128 58.1466 75.7994 57.1572 75.7994 56.1254V51.1812C75.7994 50.745 75.8861 50.3132 76.0544 49.9102C76.2228 49.5073 76.4695 49.1412 76.7806 48.8328C77.0917 48.5244 77.461 48.2798 77.8674 48.1129C78.2738 47.946 78.7094 47.8601 79.1493 47.8601V47.8477Z" fill="#34233C"/>
<path d="M46.0173 19.575H43.7307V26.4534H46.0173V19.575Z" fill="#FF5753"/>
<path d="M44.932 26.4536V31.9856H50.029" stroke="#34233C" stroke-miterlimit="10"/>
<path d="M75.8025 29.9954H60.0756V47.8508H75.8025V29.9954Z" fill="#34233C"/>
</svg>
