<svg width="66" height="68" viewBox="0 0 66 68" fill="none" xmlns="http://www.w3.org/2000/svg">
<path d="M39.516 52.74C54.0798 52.74 65.886 40.9338 65.886 26.37C65.886 11.8063 54.0798 0 39.516 0C24.9523 0 13.146 11.8063 13.146 26.37C13.146 40.9338 24.9523 52.74 39.516 52.74Z" fill="#F39719"/>
<path d="M39.5162 47.0825C50.9553 47.0825 60.2286 37.8092 60.2286 26.37C60.2286 14.9309 50.9553 5.65759 39.5162 5.65759C28.077 5.65759 18.8037 14.9309 18.8037 26.37C18.8037 37.8092 28.077 47.0825 39.5162 47.0825Z" fill="#FFC347"/>
<path d="M36.6897 13.6667V31.3746H54.3976" stroke="white" stroke-miterlimit="10"/>
<path d="M30.8769 27.0321H0V67.2058H30.8769V27.0321Z" fill="#FF5753"/>
<path d="M9.8585 27.0321H0V67.2058H9.8585V27.0321Z" fill="#34233C"/>
<path d="M10.6622 16.3701C7.83439 16.3701 5.12244 17.4934 3.1229 19.4929C1.12336 21.4925 0 24.2044 0 27.0322H3.10049V25.0505C3.10049 23.7353 3.62293 22.474 4.55291 21.544C5.48289 20.614 6.74423 20.0915 8.05942 20.0915V27.0322H19.717V16.3701H10.6622Z" fill="#D2E9FF"/>
<path d="M19.717 12.6486H12.5251V16.37H19.717V12.6486Z" fill="#FF5753"/>
<path d="M25.2971 19.1416H16.1235V20.7946H25.2971V19.1416Z" fill="#FF5753"/>
<path d="M13.1462 27.0322V25.6167C13.1452 24.9629 13.2733 24.3153 13.5233 23.7111C13.7733 23.1069 14.1402 22.5581 14.6029 22.0961L16.37 20.329H25.297L26.813 21.8496C27.2756 22.3107 27.6424 22.8587 27.8924 23.4621C28.1424 24.0656 28.2706 24.7124 28.2696 25.3656V27.0231L13.1462 27.0322Z" fill="white"/>
</svg>
