<svg width="73" height="61" viewBox="0 0 73 61" fill="none" xmlns="http://www.w3.org/2000/svg">
<path d="M20.0375 37.3394L72.0029 37.3394V-1.52588e-05L20.0375 -1.52588e-05L20.0375 37.3394Z" fill="#FFC347"/>
<path d="M71.9999 45.6434V33.0626H57.145L71.9999 45.6434Z" fill="#FFC347"/>
<path d="M37.0811 22.2005L50.6498 37.3423H37.0811V22.2005Z" fill="#F39719"/>
<path d="M22.7158 60.9999C27.4141 60.9999 31.2228 57.1991 31.2228 52.5106C31.2228 47.8221 27.4141 44.0213 22.7158 44.0213C18.0175 44.0213 14.2087 47.8221 14.2087 52.5106C14.2087 57.1991 18.0175 60.9999 22.7158 60.9999Z" fill="#FFC347"/>
<path d="M0 53.1261L3.71667 49.1051C5.74062 46.9164 6.86431 44.0474 6.86403 41.0691V29.1035C6.86403 24.8877 8.54221 20.8447 11.5294 17.8637C14.5166 14.8828 18.5681 13.2081 22.7926 13.2081C27.0171 13.2081 31.0686 14.8828 34.0558 17.8637C37.043 20.8447 38.7211 24.8877 38.7211 29.1035V41.3341C38.7219 44.4776 39.974 47.4921 42.2018 49.7145L45.4465 52.9524L0 53.1261Z" fill="#FF5753"/>
<path d="M22.7926 13.211C18.5681 13.211 14.5166 14.8857 11.5294 17.8667C8.54221 20.8476 6.86403 24.8907 6.86403 29.1064V41.0691C6.86431 44.0473 5.74062 46.9164 3.71667 49.1051L0 53.1261H22.7129L22.7896 13.211" fill="#34233C"/>
<path d="M22.7158 8.78082H19.8044V15.6364H22.7158V8.78082Z" fill="#34233C"/>
</svg>
