<svg width="84" height="63" viewBox="0 0 84 63" fill="none" xmlns="http://www.w3.org/2000/svg">
<path d="M53.9294 33.5645C53.6256 33.5645 53.3303 33.5902 53.0293 33.6102C51.5419 28.5611 48.2954 24.2196 43.8843 21.3809C39.4733 18.5423 34.1929 17.3963 29.0102 18.1529C23.8274 18.9094 19.089 21.5179 15.6628 25.5007C12.2367 29.4834 10.3519 34.5739 10.3537 39.8399C10.3537 40.0598 10.3538 40.2767 10.3708 40.4937C7.47892 40.7113 4.78359 42.0475 2.85108 44.2217C0.918575 46.3959 -0.100601 49.2386 0.00784629 52.1525C0.116294 55.0665 1.34383 57.8247 3.43254 59.8476C5.52125 61.8704 8.3085 63.0004 11.2085 63H53.9294C57.8113 63 61.5342 61.4493 64.2792 58.6892C67.0241 55.9291 68.5662 52.1856 68.5662 48.2823C68.5662 44.3789 67.0241 40.6354 64.2792 37.8753C61.5342 35.1152 57.8113 33.5645 53.9294 33.5645Z" fill="#0070FE"/>
<path d="M32.143 17.9333C29.2817 17.933 26.4485 18.4993 23.8049 19.6001C21.1613 20.7008 18.7593 22.3144 16.7359 24.3487C14.7126 26.3829 13.1075 28.798 12.0124 31.4561C10.9174 34.1141 10.3537 36.963 10.3537 39.8401C10.3537 40.0599 10.3538 40.2769 10.3708 40.4939C7.47892 40.7114 4.78359 42.0477 2.85108 44.2219C0.918575 46.396 -0.100601 49.2388 0.00784629 52.1527C0.116294 55.0667 1.34383 57.8249 3.43254 59.8477C5.52125 61.8706 8.3085 63.0005 11.2085 63.0001H32.143V17.9333Z" fill="#0055BF"/>
<path d="M82.8937 22.7267C82.8765 22.3268 82.7615 21.9373 82.559 21.5927C82.3564 21.2481 82.0726 20.959 81.7324 20.751C81.2939 20.4149 80.7529 20.2423 80.202 20.2628L79.6511 20.2856C79.1773 20.2931 78.7118 20.159 78.3138 19.9002C77.9035 19.6041 77.5934 19.1886 77.4251 18.7097L76.5563 16.597C76.339 16.1123 76.2745 15.5723 76.3715 15.0497C76.4684 14.527 76.7222 14.0468 77.0986 13.6734L77.5075 13.3022C77.9792 12.8689 78.2615 12.2656 78.2929 11.6239C78.3243 10.9822 78.1021 10.354 77.675 9.87619L75.9231 7.93479C75.6996 7.69069 75.4278 7.49621 75.1252 7.36378C74.6854 7.10636 74.1759 6.99535 73.6695 7.04663C73.1631 7.09791 72.6857 7.30885 72.3057 7.64928L71.9025 8.01756C71.4975 8.35823 70.9985 8.56581 70.4725 8.61227C69.9465 8.65872 69.4189 8.54183 68.961 8.27738L68.0041 7.77775L67.1523 7.32666C66.6761 7.09667 66.2814 6.72539 66.0214 6.26289C65.7615 5.80038 65.6489 5.26887 65.6987 4.73998L65.7724 4.19466C65.8467 3.63875 65.7273 3.07413 65.4343 2.59682C65.1413 2.11951 64.6928 1.75902 64.1653 1.57661C63.9505 1.4709 63.7206 1.39962 63.4839 1.36534L60.9114 1.017C60.2784 0.932475 59.6378 1.10338 59.1297 1.49231C58.6217 1.88124 58.2874 2.45657 58.1999 3.09262L58.1289 3.63794C58.0358 4.16124 57.7857 4.64334 57.4121 5.01949C57.0386 5.39564 56.5595 5.64781 56.0392 5.7421L53.8073 6.22459C53.3367 6.37063 52.8313 6.35665 52.3694 6.18479C51.9074 6.01293 51.5147 5.69277 51.2519 5.27387L50.968 4.8085C50.6724 4.34171 50.2248 3.99257 49.7017 3.82067C49.3394 3.65655 48.9423 3.58526 48.5459 3.61316C48.1496 3.64106 47.7662 3.76727 47.4302 3.98053L45.2326 5.37665C44.6939 5.72216 44.3129 6.26797 44.173 6.89489C44.033 7.5218 44.1455 8.1789 44.4857 8.72275L44.7697 9.1853C45.0333 9.64568 45.1505 10.1762 45.1053 10.7055C45.0601 11.2348 44.8548 11.7375 44.5171 12.146L43.1258 13.9618C42.8213 14.3884 42.3954 14.7122 41.9042 14.8906C41.4131 15.069 40.8797 15.0936 40.3744 14.961L40.0194 14.8497C40.0072 14.8484 39.9948 14.8484 39.9826 14.8497L39.8208 14.7983C39.2115 14.6036 38.5504 14.6599 37.9824 14.9548C37.4144 15.2498 36.986 15.7592 36.7912 16.3714L36.0018 18.8638C35.8089 19.4764 35.8654 20.1409 36.1586 20.7118C36.4518 21.2827 36.9579 21.7136 37.5663 21.9102L38.0944 22.0786C38.591 22.2613 39.0202 22.5921 39.3247 23.0268C39.6292 23.4616 39.7943 23.9794 39.798 24.5111L39.8775 26.7952C39.9205 27.3261 39.7999 27.8575 39.5322 28.3172C39.2646 28.7769 38.8626 29.1426 38.3811 29.3647L37.8815 29.5731C37.2909 29.8184 36.821 30.289 36.5746 30.8819C36.3283 31.4747 36.3255 32.1416 36.5669 32.7365L37.5521 35.1547C37.7034 35.5159 37.9403 35.8345 38.2421 36.0826L38.2903 36.0426C38.6259 36.3649 39.0469 36.583 39.5027 36.6706C39.9585 36.7582 40.4297 36.7116 40.8599 36.5365L41.371 36.3253C41.8685 36.1456 42.4087 36.1232 42.9192 36.2609C43.4298 36.3987 43.8863 36.6901 44.2274 37.0961L45.7465 38.8091C46.1172 39.189 46.363 39.6742 46.4508 40.199C46.5387 40.7239 46.4643 41.2631 46.2377 41.7441L45.985 42.2266C45.7686 42.6423 45.6764 43.112 45.7198 43.5791C45.7631 44.0462 45.94 44.4908 46.2291 44.859L46.1866 44.9018C46.3729 45.1172 46.5972 45.2963 46.8482 45.43L49.1622 46.6405L49.2957 46.7119C49.6414 46.8914 50.0254 46.9835 50.4144 46.9803L50.4315 46.9003C50.8444 46.8766 51.2443 46.7461 51.5924 46.5215C51.9406 46.297 52.2253 45.9859 52.419 45.6184L52.6716 45.1302C52.9337 44.6745 53.3327 44.3141 53.8112 44.1007C54.2897 43.8874 54.8232 43.832 55.335 43.9425C55.335 43.9425 55.4656 43.9739 56.4708 44.111C57.4759 44.248 57.6065 44.2509 57.6065 44.2509C58.1288 44.2806 58.6281 44.476 59.0331 44.8089C59.4381 45.1417 59.728 45.5951 59.8609 46.1038L59.9773 46.6434C60.0887 47.1495 60.3594 47.6061 60.7491 47.9455C61.1388 48.2849 61.6268 48.489 62.1409 48.5277V48.6134C62.4238 48.6581 62.7125 48.6503 62.9927 48.5905L65.5481 48.0366C66.1719 47.9005 66.7164 47.5209 67.0619 46.9813C67.4075 46.4416 67.5259 45.7861 67.3909 45.1588L67.2745 44.622C67.1848 44.1033 67.261 43.5693 67.4921 43.0968C67.7232 42.6244 68.0972 42.2377 68.5606 41.9925C68.5606 41.9925 68.6828 41.9326 69.5402 41.3872C70.3977 40.8419 70.5028 40.7592 70.5028 40.7592C70.9179 40.4496 71.4188 40.2781 71.9355 40.2689C72.4523 40.2597 72.959 40.4131 73.3847 40.7077L73.6914 40.9476H73.7085L73.8504 41.0589C74.3559 41.4514 74.9956 41.6261 75.6291 41.5447C76.2625 41.4634 76.8381 41.1326 77.2292 40.625L78.8221 38.5579C79.2109 38.0491 79.3837 37.4062 79.3029 36.7697C79.222 36.1332 78.8941 35.5546 78.3905 35.1604L78.2458 35.0462L78.2287 35.0319L77.9448 34.8093C77.5482 34.4648 77.2645 34.0077 77.1312 33.4981C76.9979 32.9885 77.0213 32.4503 77.198 31.9542L77.8936 29.773C78.0361 29.263 78.3298 28.8088 78.7357 28.4711C79.1416 28.1334 79.6402 27.9282 80.1651 27.8829L80.7131 27.8601C81.3516 27.8333 81.9535 27.5534 82.3872 27.0815C82.8209 26.6095 83.051 25.9841 83.0272 25.3419L82.8937 22.7267Z" fill="#FF5753"/>
<path d="M59.4321 31.6316C63.2552 31.6316 66.3545 28.5153 66.3545 24.671C66.3545 20.8268 63.2552 17.7104 59.4321 17.7104C55.609 17.7104 52.5098 20.8268 52.5098 24.671C52.5098 28.5153 55.609 31.6316 59.4321 31.6316Z" fill="white"/>
<path d="M59.432 35.9857C65.6465 35.9857 70.6844 30.92 70.6844 24.6712C70.6844 18.4224 65.6465 13.3567 59.432 13.3567C53.2175 13.3567 48.1797 18.4224 48.1797 24.6712C48.1797 30.92 53.2175 35.9857 59.432 35.9857Z" fill="white"/>
<path d="M59.4319 31.8859C63.3946 31.8859 66.6069 28.6558 66.6069 24.6712C66.6069 20.6867 63.3946 17.4565 59.4319 17.4565C55.4692 17.4565 52.2568 20.6867 52.2568 24.6712C52.2568 28.6558 55.4692 31.8859 59.4319 31.8859Z" fill="#34233C"/>
</svg>
