<svg width="88" height="61" viewBox="0 0 88 61" fill="none" xmlns="http://www.w3.org/2000/svg">
<path d="M10.6997 7.92413H77.2936C77.9446 7.92413 78.5689 8.18231 79.0292 8.64186C79.4895 9.10141 79.7481 9.7247 79.7481 10.3746V55.5079H8.25183V10.368C8.25357 9.7204 8.51203 9.09979 8.97073 8.64185C9.42943 8.18391 10.0511 7.92587 10.6997 7.92413Z" fill="#0070FE"/>
<path d="M74.7733 11.4587H13.2332C12.9025 11.4587 12.6344 11.7263 12.6344 12.0565V53.0049C12.6344 53.3351 12.9025 53.6028 13.2332 53.6028H74.7733C75.1041 53.6028 75.3722 53.3351 75.3722 53.0049V12.0565C75.3722 11.7263 75.1041 11.4587 74.7733 11.4587Z" fill="white"/>
<path d="M29.9015 11.4256L75.3854 45.8833V32.5929L47.3725 11.4256H29.9015Z" fill="#ECF4FB"/>
<path d="M12.6344 11.4256L66.5544 53.6026H70.9172L16.2997 11.4256H12.6344Z" fill="#ECF4FB"/>
<path d="M0 55.5078H88C88 56.9644 87.4204 58.3614 86.3887 59.3914C85.3571 60.4213 83.9578 61 82.4988 61H5.50123C4.04222 61 2.64296 60.4213 1.61127 59.3914C0.579593 58.3614 0 56.9644 0 55.5078H0Z" fill="#0055BF"/>
<path d="M16.4709 37.3756C25.5493 37.3756 32.9088 30.0282 32.9088 20.9647C32.9088 11.9012 25.5493 4.5538 16.4709 4.5538C7.39246 4.5538 0.032959 11.9012 0.032959 20.9647C0.032959 30.0282 7.39246 37.3756 16.4709 37.3756Z" fill="#0067E8"/>
<path d="M16.4707 31.3843C22.2347 31.3843 26.9073 26.7194 26.9073 20.9649C26.9073 15.2104 22.2347 10.5455 16.4707 10.5455C10.7068 10.5455 6.03418 15.2104 6.03418 20.9649C6.03418 26.7194 10.7068 31.3843 16.4707 31.3843Z" fill="#BCDEFF"/>
<path d="M17.754 0.789551C28.9407 0.789551 36.6727 9.82277 36.6727 20.9583H17.754V0.789551Z" fill="#FFC347"/>
<path d="M31.4084 6.69574C34.8836 10.628 36.7612 15.7151 36.6727 20.9584H17.754" fill="#F39719"/>
<path d="M49 26H39V49H49V26Z" fill="#FF5753"/>
<path d="M49 39H39V49H49V39Z" fill="#D64141"/>
<path d="M61.1321 19.5128H51.472V48.9381H61.1321V19.5128Z" fill="#FFC347"/>
<path d="M61.1321 31.4435H51.472V48.945H61.1321V31.4435Z" fill="#F39719"/>
</svg>
