<svg width="133" height="60" viewBox="0 0 133 60" fill="none" xmlns="http://www.w3.org/2000/svg">
<path d="M14.7797 36.8003L15.1497 37.9403H16.3397L15.3797 38.6403L15.7397 39.7703L14.7797 39.0703L13.8097 39.7703L14.1797 38.6403L13.2197 37.9403H14.4097L14.7797 36.8003Z" fill="white"/>
<path d="M14.7797 56.5103L15.1497 57.6403H16.3397L15.3797 58.3403L15.7397 59.4803L14.7797 58.7803L13.8097 59.4803L14.1797 58.3403L13.2197 57.6403H14.4097L14.7797 56.5103Z" fill="white"/>
<path d="M24.6303 46.6504L25.0003 47.7904H26.2003L25.2303 48.4904L25.6003 49.6204L24.6303 48.9204L23.6703 49.6204L24.0403 48.4904L23.0703 47.7904H24.2603L24.6303 46.6504Z" fill="white"/>
<path d="M4.56 46.6504L4.93 47.7904H6.12L5.16 48.4904L5.53 49.6204L4.56 48.9204L3.6 49.6204L3.96 48.4904L3 47.7904H4.19L4.56 46.6504Z" fill="white"/>
<path d="M9.59027 38.1602L9.96027 39.3002H11.1603L10.1903 40.0002L10.5603 41.1302L9.59027 40.4302L8.63027 41.1302L9.00027 40.0002L8.03027 39.3002H9.22027L9.59027 38.1602Z" fill="white"/>
<path d="M19.9096 54.9502L20.2796 56.0902H21.4696L20.5096 56.7902L20.8796 57.9202L19.9096 57.2202L18.9496 57.9202L19.3196 56.7902L18.3496 56.0902H19.5396L19.9096 54.9502Z" fill="white"/>
<path d="M23.1498 41.4004L23.5198 42.5304H24.7098L23.7498 43.2304L24.1098 44.3704L23.1498 43.6704L22.1798 44.3704L22.5498 43.2304L21.5898 42.5304H22.7798L23.1498 41.4004Z" fill="white"/>
<path d="M6.05023 51.9102L6.42023 53.0402H7.61023L6.65023 53.7402L7.01023 54.8802L6.05023 54.1802L5.08023 54.8802L5.45023 53.7402L4.49023 53.0402H5.68023L6.05023 51.9102Z" fill="white"/>
<path d="M6.22992 41.5103L6.59992 42.6403H7.78992L6.82992 43.3403L7.19992 44.4803L6.22992 43.7803L5.26992 44.4803L5.62992 43.3403L4.66992 42.6403H5.85992L6.22992 41.5103Z" fill="white"/>
<path d="M23.2202 51.5005L23.5902 52.6305H24.7802L23.8202 53.3305L24.1802 54.4705L23.2202 53.7705L22.2502 54.4705L22.6202 53.3305L21.6602 52.6305H22.8502L23.2202 51.5005Z" fill="white"/>
<path d="M19.7202 38.0103L20.0902 39.1403H21.2802L20.3202 39.8403L20.6802 40.9803L19.7202 40.2803L18.7602 40.9803L19.1202 39.8403L18.1602 39.1403H19.3502L19.7202 38.0103Z" fill="white"/>
<path d="M9.54047 55.3101L9.91047 56.4401H11.1105L10.1405 57.1501L10.5105 58.2801L9.54047 57.5801L8.58047 58.2801L8.95047 57.1501L7.98047 56.4401H9.18047L9.54047 55.3101Z" fill="white"/>
<path d="M67.8803 49.6702L65.5303 45.0802H67.7704L70.1503 49.5902V49.6802L67.8803 49.6702ZM62.1203 39.3702H65.9604C66.6432 39.3589 67.322 39.4777 67.9604 39.7202C68.4947 39.9317 68.9541 40.2972 69.2803 40.7702C69.5983 41.2827 69.7583 41.8774 69.7404 42.4802C69.7511 42.9693 69.652 43.4545 69.4504 43.9002C69.2776 44.2933 69.0095 44.637 68.6704 44.9002C68.3125 45.1708 67.9143 45.3834 67.4904 45.5302L66.8103 45.8802H63.4703V44.2202H65.9504C66.2711 44.2324 66.5901 44.1673 66.8803 44.0302C67.1174 43.9052 67.3096 43.7095 67.4303 43.4702C67.5631 43.2178 67.6285 42.9353 67.6203 42.6502C67.6279 42.3567 67.5662 42.0655 67.4403 41.8002C67.3211 41.5565 67.1241 41.3594 66.8803 41.2402C66.5853 41.1069 66.264 41.042 65.9403 41.0502H64.2203V49.6902H62.1203V39.3702ZM56.2104 46.0002H53.5804V44.3502H56.2104C56.5547 44.3624 56.8972 44.2939 57.2104 44.1502C57.4507 44.0216 57.646 43.8227 57.7704 43.5802C57.8852 43.3258 57.9432 43.0494 57.9403 42.7702C57.9419 42.475 57.8841 42.1826 57.7704 41.9102C57.6493 41.6473 57.4549 41.4251 57.2104 41.2702C56.9062 41.0978 56.5596 41.0146 56.2104 41.0302H54.3203V49.6702H52.1903V39.3702H56.1903C56.9052 39.3533 57.6142 39.504 58.2603 39.8102C58.8091 40.0704 59.271 40.4836 59.5903 41.0002C59.9027 41.5297 60.062 42.1355 60.0504 42.7502C60.0676 43.3592 59.9077 43.9602 59.5903 44.4802C59.2688 44.9804 58.8059 45.3737 58.2603 45.6102C57.6059 45.8857 56.9002 46.0187 56.1903 46.0002H56.2104ZM44.3203 49.6702H42.2004V39.3702H44.3203V49.6702ZM45.3203 49.6702H43.0804V48.0202H45.3203C45.8174 48.0343 46.3077 47.9022 46.7304 47.6402C47.1276 47.3709 47.4288 46.9821 47.5903 46.5302C47.8046 45.9688 47.9065 45.3709 47.8904 44.7702V44.2702C47.8962 43.7981 47.839 43.3272 47.7203 42.8702C47.6277 42.5067 47.4609 42.1662 47.2304 41.8702C47.0179 41.6017 46.7434 41.3889 46.4303 41.2502C46.0856 41.1049 45.7143 41.0334 45.3403 41.0402H43.0303V39.3802H45.3403C45.987 39.3736 46.6289 39.4924 47.2304 39.7302C47.7983 39.9583 48.3114 40.3045 48.7355 40.7458C49.1596 41.1872 49.4851 41.7136 49.6903 42.2902C49.9288 42.9298 50.0474 43.6077 50.0403 44.2902V44.7802C50.0474 45.4627 49.9288 46.1407 49.6903 46.7802C49.4851 47.3569 49.1596 47.8833 48.7355 48.3246C48.3114 48.766 47.7983 49.1121 47.2304 49.3402C46.6212 49.5745 45.9729 49.6899 45.3203 49.6802V49.6702ZM39.8604 44.3002V48.3802C39.6462 48.6257 39.3968 48.838 39.1203 49.0102C38.7162 49.2634 38.2787 49.4586 37.8203 49.5902C37.1956 49.764 36.5486 49.8448 35.9003 49.8302C35.2813 49.8385 34.6666 49.7264 34.0903 49.5002C33.5474 49.2788 33.0618 48.9368 32.6704 48.5002C32.2631 48.0482 31.9533 47.5172 31.7604 46.9402C31.5417 46.2587 31.437 45.5458 31.4504 44.8302V44.1802C31.4397 43.4655 31.5409 42.7536 31.7503 42.0702C31.9348 41.4908 32.2379 40.9561 32.6404 40.5002C33.0123 40.0684 33.4772 39.7265 34.0003 39.5002C34.5594 39.275 35.1576 39.1628 35.7604 39.1702C36.5213 39.1425 37.2781 39.2931 37.9703 39.6102C38.5187 39.8717 38.9779 40.2891 39.2903 40.8102C39.6043 41.3492 39.7987 41.9495 39.8604 42.5702H37.8004C37.7508 42.2493 37.6495 41.9386 37.5003 41.6502C37.3506 41.3952 37.1323 41.1873 36.8703 41.0502C36.5445 40.8893 36.1833 40.8136 35.8203 40.8302C35.4904 40.824 35.164 40.8996 34.8703 41.0502C34.591 41.1988 34.3537 41.4155 34.1803 41.6802C33.9772 41.9845 33.8315 42.3234 33.7503 42.6802C33.6441 43.1493 33.5938 43.6293 33.6003 44.1102V44.7702C33.5944 45.2511 33.6447 45.7311 33.7503 46.2002C33.8468 46.5569 34.0023 46.8949 34.2104 47.2002C34.4099 47.4717 34.6747 47.6884 34.9804 47.8302C35.3107 47.9765 35.6692 48.0482 36.0303 48.0402C36.3124 48.0444 36.5941 48.0176 36.8703 47.9602C37.0589 47.9147 37.2405 47.844 37.4103 47.7502C37.5259 47.6782 37.6362 47.598 37.7404 47.5102V45.6802H35.8004V44.1702L39.8604 44.3002Z" fill="white"/>
<path d="M66.4497 51.8601H67.1896V56.1701C67.1845 56.2832 67.205 56.396 67.2496 56.5001C67.2946 56.5658 67.3569 56.6177 67.4296 56.6501C67.5059 56.6605 67.5833 56.6605 67.6596 56.6501H67.8597H68.0097V57.2501C67.9355 57.2769 67.8582 57.2937 67.7796 57.3001C67.6666 57.3123 67.5526 57.3123 67.4396 57.3001C67.2669 57.3004 67.0963 57.2629 66.9396 57.1901C66.7828 57.1137 66.656 56.987 66.5797 56.8301C66.482 56.6137 66.4374 56.3771 66.4497 56.1401V51.8601ZM67.9996 53.4801H65.6496V52.9101H67.9996V53.4801ZM62.2097 54.9101H61.9096C61.9048 54.6313 61.9488 54.3537 62.0397 54.0901C62.1104 53.8466 62.2332 53.6214 62.3996 53.4301C62.5496 53.246 62.7371 53.096 62.9497 52.9901C63.3579 52.8131 63.8168 52.7917 64.2397 52.9301C64.4093 52.9757 64.5621 53.0695 64.6796 53.2001C64.8116 53.3381 64.9077 53.5064 64.9597 53.6901C65.0334 53.9227 65.0672 54.1662 65.0596 54.4101V57.2501H64.3196V54.4001C64.3281 54.2148 64.2939 54.03 64.2196 53.8601C64.1644 53.727 64.0607 53.6198 63.9296 53.5601C63.782 53.4931 63.6217 53.459 63.4597 53.4601C63.2825 53.4584 63.1075 53.4996 62.9497 53.5801C62.7996 53.6555 62.6695 53.7651 62.5697 53.9001C62.4561 54.0403 62.3681 54.1994 62.3096 54.3701C62.249 54.5471 62.2186 54.733 62.2196 54.9201L62.2097 54.9101ZM62.3996 53.8401V57.2501H61.6596V52.9201H62.3597L62.3996 53.8401ZM59.8796 54.6201V55.1401H59.1296C58.9412 55.1375 58.7532 55.1576 58.5697 55.2001C58.423 55.2239 58.2812 55.2711 58.1496 55.3401C58.0424 55.4001 57.9554 55.4906 57.8996 55.6001C57.8385 55.7028 57.8073 55.8206 57.8096 55.9401C57.8086 56.0722 57.8395 56.2025 57.8996 56.3201C57.9642 56.4358 58.0617 56.5298 58.1796 56.5901C58.3237 56.6561 58.4814 56.687 58.6397 56.6801C58.8345 56.685 59.0277 56.642 59.202 56.5548C59.3764 56.4677 59.5267 56.339 59.6397 56.1801C59.7336 56.0658 59.7926 55.927 59.8096 55.7801L60.1196 56.1401C60.0907 56.2709 60.04 56.396 59.9696 56.5101C59.8829 56.6581 59.7713 56.7901 59.6397 56.9001C59.4935 57.0284 59.3282 57.133 59.1496 57.2101C58.9498 57.2919 58.7356 57.3327 58.5197 57.3301C58.2531 57.3353 57.9892 57.277 57.7496 57.1601C57.5416 57.0511 57.3632 56.8933 57.2297 56.7001C57.1099 56.5009 57.0476 56.2725 57.0497 56.0401C57.0475 55.8286 57.0955 55.6195 57.1896 55.4301C57.2801 55.2526 57.4143 55.1012 57.5797 54.9901C57.768 54.8628 57.9782 54.7712 58.1997 54.7201C58.4603 54.6493 58.7296 54.6156 58.9996 54.6201H59.8796ZM59.7597 56.5101V54.2801C59.7625 54.1263 59.7246 53.9744 59.6496 53.8401C59.582 53.7122 59.4775 53.6077 59.3496 53.5401C59.1906 53.4642 59.0159 53.4265 58.8396 53.4301C58.6713 53.4303 58.5047 53.4644 58.3496 53.5301C58.2234 53.5895 58.111 53.6746 58.0197 53.7801C57.9462 53.878 57.9074 53.9977 57.9096 54.1201H57.1697C57.1721 53.9593 57.2133 53.8016 57.2897 53.6601C57.3737 53.5016 57.4894 53.362 57.6296 53.2501C57.788 53.1153 57.9716 53.0134 58.1697 52.9501C58.4025 52.8764 58.6454 52.8393 58.8897 52.8401C59.1746 52.8337 59.4575 52.8882 59.7196 53.0001C59.9512 53.103 60.1489 53.2694 60.2897 53.4801C60.4372 53.7238 60.5102 54.0054 60.4996 54.2901V56.2901C60.4907 56.4433 60.4907 56.5969 60.4996 56.7501C60.5249 56.8939 60.5651 57.0347 60.6196 57.1701V57.2301H59.8496C59.8041 57.1215 59.7739 57.007 59.7597 56.8901C59.7505 56.7569 59.7505 56.6233 59.7597 56.4901V56.5101ZM55.2097 51.7501C55.2074 51.6398 55.2467 51.5328 55.3197 51.4501C55.3605 51.4039 55.4116 51.368 55.469 51.3454C55.5264 51.3228 55.5883 51.3141 55.6496 51.3201C55.7095 51.3149 55.7696 51.324 55.8253 51.3466C55.8809 51.3692 55.9304 51.4047 55.9696 51.4501C56.0089 51.4894 56.0398 51.5362 56.0604 51.5878C56.0811 51.6393 56.091 51.6946 56.0896 51.7501C56.0891 51.8617 56.0462 51.9689 55.9696 52.0501C55.9281 52.0919 55.878 52.1243 55.8228 52.145C55.7675 52.1657 55.7085 52.1743 55.6496 52.1701C55.5892 52.1751 55.5285 52.167 55.4715 52.1462C55.4145 52.1255 55.3627 52.0927 55.3197 52.0501C55.2498 51.9656 55.211 51.8597 55.2097 51.7501ZM56.0097 57.2301H55.2697V52.9001H56.0097V57.2301ZM54.0097 57.2301H53.2597V51.0801H54.0097V57.2301ZM51.5197 55.1101V55.0301C51.5178 54.8249 51.4944 54.6204 51.4497 54.4201C51.4061 54.2435 51.3352 54.0748 51.2397 53.9201C51.1485 53.777 51.0252 53.6572 50.8796 53.5701C50.7164 53.4837 50.5343 53.4391 50.3496 53.4401C50.1812 53.4392 50.0143 53.4733 49.8597 53.5401C49.7268 53.6025 49.6078 53.6909 49.5097 53.8001C49.4158 53.9119 49.3384 54.0365 49.2796 54.1701C49.2199 54.3045 49.1763 54.4455 49.1496 54.5901V55.5901C49.1971 55.7764 49.2712 55.9549 49.3696 56.1201C49.4642 56.2779 49.5943 56.4115 49.7496 56.5101C49.9351 56.6157 50.1463 56.6677 50.3597 56.6601C50.5403 56.6642 50.7191 56.623 50.8796 56.5401C51.023 56.4501 51.1457 56.3308 51.2397 56.1901C51.3329 56.0306 51.4035 55.859 51.4497 55.6801C51.4944 55.4798 51.5178 55.2753 51.5197 55.0701V55.1101ZM52.2597 54.9901V55.0701C52.2607 55.3669 52.2237 55.6627 52.1496 55.9501C52.0784 56.1998 51.9669 56.4362 51.8197 56.6501C51.6814 56.839 51.504 56.9959 51.2997 57.1101C51.0763 57.2213 50.8291 57.2763 50.5797 57.2701C50.3293 57.2738 50.0808 57.2262 49.8496 57.1301C49.6427 57.0422 49.4581 56.9089 49.3096 56.7401C49.1597 56.5503 49.0416 56.3376 48.9597 56.1101C48.8721 55.8441 48.8151 55.569 48.7897 55.2901V54.8401C48.8146 54.5472 48.875 54.2584 48.9696 53.9801C49.0442 53.7452 49.1592 53.5252 49.3096 53.3301C49.4572 53.1552 49.6416 53.0152 49.8496 52.9201C50.0773 52.824 50.3225 52.7763 50.5697 52.7801C50.8191 52.7739 51.0663 52.8288 51.2897 52.9401C51.5026 53.0412 51.6853 53.1964 51.8197 53.3901C51.9768 53.5981 52.0891 53.8365 52.1496 54.0901C52.2243 54.3842 52.2613 54.6866 52.2597 54.9901ZM49.3396 53.6901V58.8501H48.5996V52.8501H49.3197L49.3396 53.6901ZM44.7997 54.4501L44.3096 54.6001C44.3112 54.3691 44.3483 54.1398 44.4197 53.9201C44.4971 53.7048 44.6122 53.505 44.7597 53.3301C44.9064 53.1568 45.0912 53.0199 45.2997 52.9301C45.5286 52.8257 45.7781 52.7745 46.0296 52.7801C46.2366 52.7761 46.4427 52.8065 46.6397 52.8701C46.8135 52.9246 46.9714 53.0207 47.0996 53.1501C47.2327 53.2889 47.332 53.4566 47.3897 53.6401C47.4536 53.8678 47.4839 54.1036 47.4797 54.3401V57.1901H46.7397V54.3401C46.7516 54.1428 46.7101 53.9458 46.6196 53.7701C46.5492 53.6589 46.4436 53.5744 46.3196 53.5301C46.1642 53.4667 45.9974 53.4361 45.8297 53.4401C45.6814 53.4378 45.5345 53.4686 45.3996 53.5301C45.2759 53.5796 45.166 53.6586 45.0797 53.7601C44.9097 53.9652 44.8176 54.2237 44.8196 54.4901L44.7997 54.4501ZM42.0197 54.9001H41.6697C41.6715 54.6225 41.7119 54.3465 41.7897 54.0801C41.8503 53.8387 41.9629 53.6135 42.1196 53.4201C42.2675 53.2339 42.4556 53.0835 42.6697 52.9801C42.9092 52.8758 43.1684 52.8246 43.4296 52.8301C43.62 52.8283 43.8094 52.8588 43.9897 52.9201C44.1564 52.9672 44.308 53.0568 44.4296 53.1801C44.5634 53.3163 44.6658 53.4801 44.7297 53.6601C44.8031 53.8825 44.837 54.116 44.8297 54.3501V57.2401H44.0896V54.3901C44.1012 54.2024 44.0596 54.0152 43.9696 53.8501C43.9031 53.7144 43.7893 53.6077 43.6496 53.5501C43.4985 53.4832 43.3349 53.4492 43.1697 53.4501C42.9791 53.4426 42.7898 53.4839 42.6196 53.5701C42.4747 53.6409 42.3532 53.752 42.2697 53.8901C42.1751 54.0334 42.1074 54.1926 42.0696 54.3601C42.0372 54.5416 42.0205 54.7257 42.0197 54.9101V54.9001ZM42.1697 53.7701V57.2401H41.4197V52.9101H42.1296L42.1697 53.7701ZM37.3197 55.0301V55.1201C37.3197 55.326 37.3466 55.5311 37.3996 55.7301C37.4474 55.9117 37.5252 56.084 37.6296 56.2401C37.7284 56.3838 37.8583 56.5035 38.0097 56.5901C38.1809 56.6731 38.3694 56.7143 38.5596 56.7101C38.7435 56.7142 38.9255 56.673 39.0896 56.5901C39.241 56.5035 39.3709 56.3838 39.4696 56.2401C39.5741 56.084 39.6519 55.9117 39.6997 55.7301C39.7527 55.5311 39.7796 55.326 39.7796 55.1201V55.0301C39.779 54.8275 39.7521 54.6258 39.6997 54.4301C39.6557 54.2472 39.5776 54.0742 39.4696 53.9201C39.3676 53.7706 39.2303 53.6485 39.0698 53.5648C38.9093 53.4811 38.7307 53.4382 38.5497 53.4401C38.3682 53.4355 38.1885 53.4771 38.0276 53.5611C37.8666 53.6451 37.7297 53.7686 37.6296 53.9201C37.5217 54.0742 37.4436 54.2472 37.3996 54.4301C37.3472 54.6258 37.3203 54.8275 37.3197 55.0301ZM36.5797 55.1201V55.0301C36.5791 54.7344 36.6263 54.4406 36.7196 54.1601C36.803 53.9037 36.9355 53.6659 37.1097 53.4601C37.2797 53.2628 37.4915 53.1057 37.7297 53.0001C37.9862 52.8808 38.2669 52.8226 38.5497 52.8301C38.8324 52.8233 39.1129 52.8815 39.3696 53.0001C39.6078 53.1057 39.8196 53.2628 39.9897 53.4601C40.1705 53.6628 40.3068 53.9013 40.3897 54.1601C40.4797 54.4412 40.5236 54.735 40.5197 55.0301V55.1201C40.5236 55.4152 40.4797 55.709 40.3897 55.9901C40.2748 56.383 40.0328 56.7267 39.7016 56.9674C39.3705 57.2081 38.9688 57.3321 38.5596 57.3201C38.2747 57.3265 37.9918 57.272 37.7297 57.1601C37.4931 57.0474 37.2821 56.8874 37.1097 56.6901C36.9355 56.4842 36.803 56.2465 36.7196 55.9901C36.6263 55.7095 36.5791 55.4157 36.5797 55.1201ZM35.0697 55.3901H35.8396C35.8032 55.7419 35.6943 56.0824 35.5197 56.3901C35.3478 56.682 35.0986 56.9207 34.7997 57.0801C34.436 57.258 34.0342 57.3439 33.6296 57.3301C33.3095 57.3358 32.9919 57.2709 32.6997 57.1401C32.4207 57.0142 32.1744 56.8261 31.9797 56.5901C31.7687 56.3404 31.609 56.0515 31.5097 55.7401C31.4019 55.38 31.3479 55.006 31.3496 54.6301V54.0501C31.3479 53.6742 31.4019 53.3002 31.5097 52.9401C31.6113 52.6266 31.7707 52.3349 31.9797 52.0801C32.1828 51.8444 32.4354 51.6566 32.7196 51.5301C33.0368 51.4002 33.3769 51.3356 33.7196 51.3401C34.1051 51.3256 34.4877 51.4117 34.8297 51.5901C35.1278 51.747 35.3743 51.9865 35.5397 52.2801C35.7159 52.587 35.825 52.9279 35.8597 53.2801H35.0896C35.0574 53.0371 34.9865 52.8007 34.8796 52.5801C34.7833 52.3888 34.634 52.2291 34.4497 52.1201C34.223 52.008 33.9724 51.9531 33.7196 51.9601C33.4811 51.9552 33.2447 52.0066 33.0296 52.1101C32.836 52.2103 32.6683 52.3541 32.5397 52.5301C32.4023 52.7275 32.3008 52.9475 32.2397 53.1801C32.1739 53.4587 32.1404 53.7439 32.1397 54.0301V54.6201C32.1382 54.8894 32.1684 55.1579 32.2297 55.4201C32.2825 55.6552 32.3773 55.8787 32.5097 56.0801C32.6273 56.2662 32.7886 56.4207 32.9797 56.5301C33.1842 56.6436 33.4159 56.699 33.6496 56.6901C33.9179 56.7028 34.1852 56.6514 34.4296 56.5401C34.6185 56.4381 34.7719 56.2812 34.8696 56.0901C34.98 55.87 35.0542 55.6337 35.0896 55.3901" fill="white"/>
<path d="M17.3204 46.7304H11.9304C11.7787 46.7108 11.6245 46.7262 11.4796 46.7756C11.3348 46.8249 11.2032 46.9068 11.095 47.015C10.9869 47.1232 10.905 47.2548 10.8556 47.3996C10.8063 47.5445 10.7908 47.6987 10.8104 47.8504V51.8504C10.7891 52.0029 10.8033 52.1583 10.8519 52.3044C10.9005 52.4505 10.9822 52.5834 11.0906 52.6928C11.199 52.8022 11.3311 52.885 11.4768 52.9349C11.6225 52.9848 11.7777 53.0004 11.9304 52.9804H17.3204C17.4731 53.0004 17.6284 52.9848 17.774 52.9349C17.9197 52.885 18.0519 52.8022 18.1603 52.6928C18.2687 52.5834 18.3504 52.4505 18.399 52.3044C18.4476 52.1583 18.4617 52.0029 18.4404 51.8504V47.8504C18.46 47.6987 18.4446 47.5445 18.3952 47.3996C18.3459 47.2548 18.264 47.1232 18.1558 47.015C18.0476 46.9068 17.916 46.8249 17.7712 46.7756C17.6264 46.7262 17.4722 46.7108 17.3204 46.7304Z" fill="white"/>
<path d="M17.0203 47.5904H16.3203V45.6904C16.3212 45.4734 16.2792 45.2583 16.1969 45.0576C16.1145 44.8568 15.9933 44.6742 15.8403 44.5204C15.5268 44.2161 15.1072 44.046 14.6703 44.046C14.2335 44.046 13.8138 44.2161 13.5003 44.5204C13.1885 44.8301 13.0123 45.2509 13.0103 45.6904V47.5904H12.3203V45.6904C12.3203 45.0724 12.5658 44.4798 13.0027 44.0428C13.4397 43.6059 14.0323 43.3604 14.6503 43.3604C15.2683 43.3604 15.8609 43.6059 16.2979 44.0428C16.7348 44.4798 16.9803 45.0724 16.9803 45.6904L17.0203 47.5904Z" fill="white"/>
<path d="M7.69008 2.70886C7.42486 2.70886 7.17051 2.8142 6.98297 3.00174C6.79543 3.18928 6.69008 3.44365 6.69008 3.70886V21.3289C6.69008 21.5941 6.79543 21.8484 6.98297 22.036C7.17051 22.2235 7.42486 22.3289 7.69008 22.3289H58.4701C58.7353 22.3289 58.9896 22.2235 59.1772 22.036C59.3647 21.8484 59.4701 21.5941 59.4701 21.3289V3.66885C59.4701 3.40364 59.3647 3.1493 59.1772 2.96176C58.9896 2.77423 58.7353 2.66885 58.4701 2.66885L7.69008 2.70886ZM58.4701 22.8889H7.69008C7.26481 22.8889 6.85681 22.7206 6.55516 22.4208C6.25351 22.1211 6.08272 21.7141 6.08008 21.2888V3.66885C6.08272 3.24359 6.25351 2.83664 6.55516 2.53687C6.85681 2.23709 7.26481 2.06884 7.69008 2.06885H58.4701C58.8944 2.06885 59.3014 2.23742 59.6015 2.53748C59.9015 2.83753 60.0701 3.24451 60.0701 3.66885V21.2888C60.0701 21.7132 59.9015 22.1202 59.6015 22.4202C59.3014 22.7203 58.8944 22.8889 58.4701 22.8889Z" fill="white"/>
<path d="M0 13.0387L5.84 12.4787L9.53 15.1187C26.06 -0.0612526 38.58 -0.231251 42.77 1.58875C31.62 -1.04125 15.96 13.4088 9.53 20.9688L0 13.0387Z" fill="#96809E"/>
<path d="M38.9397 9.23871V8.71872C38.9488 8.21732 38.8951 7.71673 38.7797 7.2287C38.6987 6.84369 38.546 6.47734 38.3297 6.14872C38.1508 5.86652 37.8984 5.63835 37.5997 5.48871C37.2889 5.33451 36.9466 5.25428 36.5997 5.25428C36.2527 5.25428 35.9105 5.33451 35.5997 5.48871C35.3057 5.64144 35.0573 5.86912 34.8797 6.14872C34.6675 6.47953 34.5152 6.84509 34.4297 7.2287C34.3231 7.71804 34.2728 8.21797 34.2797 8.71872V9.23871C34.2733 9.73945 34.3237 10.2393 34.4297 10.7287C34.5202 11.1154 34.6758 11.484 34.8897 11.8187C35.073 12.0997 35.324 12.3301 35.6197 12.4887C35.93 12.6426 36.2734 12.7182 36.6197 12.7087C36.9663 12.7211 37.3103 12.6454 37.6197 12.4887C37.9154 12.3301 38.1664 12.0997 38.3497 11.8187C38.5568 11.4828 38.7055 11.1142 38.7897 10.7287C38.9043 10.2405 38.958 9.74008 38.9497 9.23871H38.9397ZM41.1597 8.7287V9.23871C41.1708 9.97862 41.0593 10.7152 40.8297 11.4187C40.6351 12.0211 40.3224 12.5787 39.9097 13.0587C39.5095 13.4944 39.0177 13.836 38.4697 14.0587C37.8906 14.3012 37.2674 14.4204 36.6397 14.4087C36.0089 14.4192 35.3826 14.3001 34.7997 14.0587C34.2566 13.8321 33.7689 13.491 33.3697 13.0587C32.9474 12.5805 32.6244 12.023 32.4197 11.4187C32.19 10.7152 32.0785 9.97862 32.0897 9.23871V8.7287C32.0778 7.99202 32.1893 7.25856 32.4197 6.55872C32.6153 5.95164 32.9316 5.3904 33.3497 4.90873C33.7544 4.47826 34.245 4.13758 34.7897 3.90873C35.3681 3.66309 35.9913 3.54048 36.6197 3.54871C37.2513 3.54054 37.8777 3.66313 38.4597 3.90873C39.0027 4.13531 39.4905 4.47641 39.8897 4.90873C40.3144 5.38736 40.6345 5.94933 40.8297 6.55872C41.06 7.25856 41.1716 7.99202 41.1597 8.7287ZM27.9797 11.5187C27.9826 11.3445 27.9521 11.1714 27.8897 11.0087C27.8342 10.839 27.7255 10.6917 27.5797 10.5887C27.3924 10.4252 27.1795 10.2935 26.9497 10.1987C26.6051 10.0432 26.2511 9.90965 25.8897 9.79871C25.4337 9.63524 24.9864 9.44832 24.5497 9.23871C24.1466 9.05316 23.7645 8.82521 23.4097 8.55872C23.0973 8.30334 22.8361 7.99117 22.6397 7.63871C22.4444 7.26596 22.348 6.84936 22.3597 6.42871C22.3558 6.0109 22.4554 5.59862 22.6497 5.2287C22.8497 4.85828 23.1298 4.53714 23.4697 4.2887C23.8467 4.01861 24.2656 3.81253 24.7097 3.67871C25.2273 3.53504 25.7625 3.46436 26.2997 3.46872C27.0104 3.45095 27.7155 3.59813 28.3597 3.89872C28.9092 4.15591 29.379 4.55668 29.7197 5.05872C30.0483 5.56041 30.2189 6.14907 30.2097 6.74872H28.0297C28.0348 6.46272 27.9659 6.18025 27.8297 5.92871C27.7 5.68572 27.4971 5.48977 27.2497 5.36872C26.9391 5.21625 26.5953 5.14406 26.2497 5.15873C25.9237 5.14885 25.5995 5.21027 25.2997 5.33872C25.0683 5.43222 24.8699 5.59232 24.7297 5.79871C24.6055 5.98906 24.5395 6.21147 24.5397 6.43872C24.5387 6.61206 24.5873 6.78205 24.6797 6.92871C24.7806 7.09363 24.9173 7.23375 25.0797 7.33872C25.2904 7.48082 25.5149 7.60141 25.7497 7.6987C26.0097 7.8087 26.3197 7.91872 26.6597 8.02872C27.1862 8.1796 27.6982 8.37705 28.1897 8.61872C28.594 8.80963 28.968 9.05896 29.2997 9.35871C29.5916 9.61531 29.8237 9.93275 29.9797 10.2887C30.1318 10.6632 30.2066 11.0646 30.1997 11.4687C30.2061 11.8973 30.1137 12.3216 29.9297 12.7087C29.75 13.0781 29.4821 13.3975 29.1497 13.6387C28.7817 13.9047 28.3683 14.1013 27.9297 14.2187C27.4106 14.3528 26.8758 14.4167 26.3397 14.4087C25.8164 14.4118 25.2951 14.3445 24.7897 14.2087C24.2895 14.0779 23.8158 13.8614 23.3897 13.5687C22.9755 13.293 22.6327 12.9229 22.3897 12.4887C22.1317 12.0102 22.0041 11.4722 22.0197 10.9287H24.2197C24.2088 11.2172 24.2636 11.5044 24.3797 11.7687C24.4704 11.9905 24.6189 12.1838 24.8097 12.3287C25.0118 12.4727 25.239 12.5778 25.4797 12.6387C25.7621 12.7009 26.0505 12.7311 26.3397 12.7287C26.6607 12.7416 26.981 12.6871 27.2797 12.5687C27.5039 12.482 27.6959 12.3284 27.8297 12.1287C27.9506 11.9337 28.0131 11.7081 28.0097 11.4787L27.9797 11.5187ZM19.6197 14.2387H17.4297V3.62873H19.6197V14.2387Z" fill="white"/>
<path d="M54.8002 20.8788H53.8002V16.0188H54.8002V20.8788ZM55.2902 20.8788H54.2302V20.0988H55.2802C55.5133 20.1065 55.7433 20.0438 55.9402 19.9188C56.1279 19.7927 56.2714 19.6108 56.3502 19.3988C56.4478 19.1331 56.4952 18.8517 56.4902 18.5688V18.3288C56.492 18.1063 56.4651 17.8844 56.4102 17.6688C56.3642 17.4989 56.2861 17.3393 56.1802 17.1988C56.082 17.0696 55.9507 16.9694 55.8002 16.9088C55.6399 16.8373 55.4656 16.8031 55.2902 16.8088H54.2002V16.0188H55.2902C55.5952 16.0161 55.8977 16.0739 56.1802 16.1888C56.4443 16.2939 56.6829 16.4542 56.8802 16.6588C57.08 16.8695 57.2363 17.1176 57.3402 17.3888C57.4578 17.7086 57.5121 18.0482 57.5002 18.3888V18.6188C57.5057 18.9393 57.4515 19.2581 57.3402 19.5588C57.2418 19.8327 57.0848 20.0818 56.8802 20.2888C56.6855 20.4964 56.4461 20.6571 56.1802 20.7588C55.8941 20.8734 55.5884 20.9312 55.2802 20.9288L55.2902 20.8788ZM52.1102 16.8588H49.5502V16.0688H52.1302L52.1102 16.8588ZM51.7802 18.8088H49.5502V18.0488H51.8002L51.7802 18.8088ZM49.8602 20.9288H48.8602V16.0688H49.8602V20.9288ZM52.1202 20.9288H49.5502V20.1488H52.1402L52.1202 20.9288ZM46.8302 20.9288H45.8302V16.0688H46.8302V20.9288ZM44.1002 16.8588H41.6602V16.0688H44.1002V16.8588ZM43.8602 18.9288H41.6602V18.1488H43.8602V18.9288ZM41.9302 20.9288H40.9302V16.0688H41.9302V20.9288ZM38.9302 20.9288H37.9302V16.0688H38.9302V20.9288ZM36.2102 16.8588H32.2102V16.0688H36.2102V16.8588ZM34.7102 20.9288H33.7102V16.0688H34.7102V20.9288ZM29.9902 20.9288L28.8902 18.7588H29.9402L31.0602 20.8788V20.9288H29.9902ZM27.2802 16.0688H29.0902C29.4316 16.0573 29.7718 16.1152 30.0902 16.2388C30.3382 16.3416 30.5529 16.5112 30.7102 16.7288C30.8567 16.973 30.9296 17.2542 30.9202 17.5388C30.9275 17.769 30.8831 17.998 30.7902 18.2088C30.7044 18.3889 30.5777 18.5464 30.4202 18.6688C30.2515 18.7968 30.0621 18.8949 29.8602 18.9588L29.5502 19.1288H27.9702V18.3488H29.1402C29.2836 18.3449 29.4241 18.3073 29.5502 18.2388C29.6623 18.182 29.7534 18.0909 29.8102 17.9788C29.8728 17.8585 29.9037 17.7243 29.9002 17.5888C29.9013 17.4514 29.8741 17.3152 29.8202 17.1888C29.7621 17.0742 29.6669 16.9825 29.5502 16.9288C29.4131 16.8633 29.262 16.8324 29.1102 16.8388H28.3002V20.9088H27.3002L27.2802 16.0688ZM25.6002 16.8588H23.0202V16.0688H25.5502L25.6002 16.8588ZM25.2702 18.8088H23.0202V18.0488H25.2702V18.8088ZM23.3502 20.9288H22.3502V16.0688H23.3502V20.9288ZM25.6002 20.9288H23.0202V20.1488H25.5502L25.6002 20.9288ZM19.5502 19.2388H20.5502C20.5341 19.5468 20.4413 19.8458 20.2802 20.1088C20.1184 20.3622 19.8901 20.5663 19.6202 20.6988C19.3066 20.8422 18.965 20.914 18.6202 20.9088C18.3321 20.9148 18.0459 20.8603 17.7802 20.7488C17.5357 20.6494 17.3193 20.4914 17.1502 20.2888C16.9659 20.0733 16.8296 19.821 16.7502 19.5488C16.6497 19.2252 16.6024 18.8875 16.6102 18.5488V18.2388C16.604 17.9002 16.6512 17.5627 16.7502 17.2388C16.842 16.9698 16.9808 16.7192 17.1602 16.4988C17.3378 16.301 17.5561 16.1441 17.8002 16.0388C18.0585 15.9249 18.3379 15.867 18.6202 15.8688C18.9659 15.865 19.308 15.9403 19.6202 16.0888C19.8884 16.2291 20.1132 16.44 20.2702 16.6988C20.4271 16.968 20.5227 17.2684 20.5502 17.5788H19.5502C19.5447 17.4057 19.5039 17.2355 19.4302 17.0788C19.3627 16.9483 19.2584 16.8405 19.1302 16.7688C18.9606 16.6934 18.7756 16.6592 18.5902 16.6688C18.442 16.6665 18.2951 16.6973 18.1602 16.7588C18.0318 16.8238 17.9217 16.9201 17.8402 17.0388C17.7539 17.1887 17.6899 17.3504 17.6502 17.5188C17.6077 17.7429 17.5876 17.9707 17.5902 18.1988V18.5388C17.5875 18.7602 17.6076 18.9814 17.6502 19.1988C17.6837 19.3661 17.741 19.5277 17.8202 19.6788C17.8974 19.8027 18.0038 19.9057 18.1302 19.9788C18.2885 20.0453 18.4585 20.0796 18.6302 20.0796C18.8019 20.0796 18.9719 20.0453 19.1302 19.9788C19.264 19.9209 19.3735 19.8184 19.4402 19.6888C19.5116 19.5495 19.5493 19.3953 19.5502 19.2388Z" fill="white"/>
<path d="M53.39 12.039V11.669H53.9C54.0785 11.6663 54.2567 11.6865 54.43 11.729C54.5674 11.7731 54.696 11.8408 54.81 11.929C54.9148 12.0106 54.9974 12.1172 55.05 12.239C55.1034 12.3586 55.1307 12.4881 55.13 12.619C55.13 12.7777 55.0959 12.9346 55.03 13.079C54.9627 13.2143 54.8672 13.3337 54.75 13.429C54.6231 13.5225 54.481 13.5935 54.33 13.639C54.1613 13.6888 53.9859 13.7124 53.81 13.709C53.6547 13.7094 53.5001 13.6892 53.35 13.649C53.2035 13.6049 53.065 13.5373 52.94 13.449C52.8201 13.3619 52.7211 13.2492 52.65 13.119C52.5739 12.9707 52.5361 12.8057 52.54 12.639H53.28C53.2769 12.7307 53.3013 12.8213 53.35 12.899C53.3983 12.9706 53.4636 13.029 53.54 13.069C53.6288 13.1177 53.7289 13.1418 53.83 13.139C53.9346 13.1442 54.0385 13.1199 54.13 13.069C54.2113 13.0314 54.2781 12.9682 54.32 12.889C54.3698 12.8044 54.3941 12.7071 54.39 12.609C54.3963 12.498 54.3721 12.3873 54.32 12.289C54.2735 12.2038 54.1995 12.1368 54.11 12.099C54.0049 12.058 53.8929 12.0377 53.78 12.039H53.39ZM53.39 11.489H53.78C53.8878 11.4945 53.995 11.4703 54.09 11.419C54.1685 11.3808 54.2319 11.3175 54.27 11.239C54.312 11.1518 54.3325 11.0558 54.33 10.959C54.3298 10.8732 54.3128 10.7883 54.28 10.709C54.2394 10.6383 54.1808 10.5796 54.11 10.539C54.0258 10.4881 53.9283 10.4637 53.83 10.469C53.7429 10.4674 53.6569 10.488 53.58 10.529C53.5027 10.5582 53.4363 10.6106 53.39 10.679C53.3478 10.7481 53.3269 10.8281 53.33 10.909H52.55C52.545 10.7198 52.6011 10.5339 52.71 10.379C52.8274 10.2231 52.9821 10.0993 53.16 10.019C53.3528 9.93715 53.5606 9.89628 53.77 9.89903C53.9958 9.89453 54.2203 9.93532 54.43 10.019C54.6072 10.0912 54.7599 10.2127 54.87 10.369C54.9778 10.5431 55.0333 10.7444 55.03 10.949C55.0298 11.0714 54.9989 11.1917 54.94 11.299C54.8821 11.4092 54.8041 11.5075 54.71 11.589C54.6032 11.6848 54.477 11.7564 54.34 11.799C54.1858 11.8531 54.0234 11.8802 53.86 11.879H53.35L53.39 11.489ZM51.17 9.93904V13.659H50.43V10.789L49.55 11.069V10.489L51.09 9.93904H51.17ZM47.88 12.239V11.399C47.8909 11.2826 47.8909 11.1654 47.88 11.049C47.8729 10.9599 47.8527 10.8723 47.82 10.789C47.794 10.7261 47.7567 10.6685 47.71 10.619C47.6683 10.5747 47.617 10.5405 47.56 10.519C47.5006 10.5077 47.4395 10.5077 47.38 10.519C47.3075 10.5039 47.2326 10.5039 47.16 10.519C47.0949 10.5591 47.0402 10.6139 47 10.679C46.9499 10.7655 46.916 10.8604 46.9 10.959C46.8879 11.0988 46.8879 11.2393 46.9 11.379V12.239C46.8892 12.3554 46.8892 12.4726 46.9 12.589C46.9072 12.6782 46.9274 12.7658 46.96 12.849C46.986 12.9149 47.0232 12.9759 47.07 13.029C47.1098 13.0711 47.1574 13.105 47.21 13.129C47.2729 13.1395 47.3371 13.1395 47.4 13.129C47.4691 13.1452 47.541 13.1452 47.61 13.129C47.6804 13.0924 47.7392 13.037 47.78 12.969C47.8285 12.8818 47.8623 12.7872 47.88 12.689C47.8918 12.5459 47.8918 12.4021 47.88 12.259V12.239ZM48.62 11.519V12.159C48.6248 12.4021 48.5945 12.6446 48.53 12.879C48.4784 13.0617 48.3899 13.2319 48.27 13.379C48.1627 13.5005 48.0294 13.5961 47.88 13.659C47.7171 13.7205 47.5442 13.751 47.37 13.749C47.2278 13.7502 47.0862 13.73 46.95 13.689C46.8208 13.6576 46.7008 13.5959 46.6 13.509C46.4956 13.4259 46.4074 13.3242 46.34 13.209C46.2595 13.0691 46.2021 12.9172 46.17 12.759C46.1278 12.5619 46.1076 12.3606 46.11 12.159V11.519C46.1053 11.2759 46.1356 11.0335 46.2 10.799C46.2516 10.6193 46.3401 10.4524 46.46 10.309C46.5654 10.1854 46.6992 10.0893 46.85 10.029C47.0132 9.96846 47.186 9.93797 47.36 9.93904C47.5022 9.93789 47.6438 9.95811 47.78 9.99903C47.9086 10.0343 48.0287 10.095 48.1335 10.1774C48.2383 10.2598 48.3255 10.3624 48.39 10.479C48.4721 10.6182 48.5296 10.7704 48.56 10.929C48.6024 11.1228 48.6225 11.3207 48.62 11.519ZM45.4 13.129V13.699H42.87V13.209L44.07 11.919C44.1713 11.8089 44.2648 11.6919 44.35 11.569C44.4327 11.4696 44.5002 11.3584 44.55 11.239C44.5799 11.1658 44.5969 11.088 44.6 11.009C44.6038 10.9089 44.5832 10.8094 44.54 10.719C44.5095 10.6396 44.4531 10.5727 44.38 10.529C44.2977 10.4825 44.2046 10.4583 44.11 10.459C44.0078 10.4582 43.9074 10.4859 43.82 10.539C43.7393 10.5969 43.6768 10.6767 43.64 10.769C43.5991 10.8742 43.5787 10.9862 43.58 11.099H42.84C42.8421 10.8856 42.8971 10.676 43 10.489C43.1078 10.3046 43.2633 10.1526 43.45 10.049C43.6586 9.9365 43.8932 9.88129 44.13 9.88902C44.356 9.88253 44.5808 9.9234 44.79 10.009C44.9584 10.0881 45.0981 10.2173 45.19 10.379C45.2907 10.5479 45.3394 10.7427 45.33 10.939C45.3446 11.0586 45.3446 11.1795 45.33 11.299C45.2855 11.418 45.2285 11.532 45.16 11.639C45.0832 11.7627 44.9962 11.8798 44.9 11.989C44.8 12.109 44.68 12.229 44.56 12.349L43.91 13.079L45.4 13.129ZM57.68 4.79902V8.51902H56.95V5.64903L56.06 5.92903V5.34901L57.6 4.79902H57.68ZM54.4 7.07902V6.23902C54.4112 6.12263 54.4112 6.00542 54.4 5.88902C54.3929 5.79987 54.3727 5.71229 54.34 5.62904C54.314 5.56616 54.2767 5.50854 54.23 5.45903C54.1902 5.417 54.1427 5.38304 54.09 5.35902H53.91C53.8307 5.3592 53.7523 5.37627 53.68 5.40904C53.615 5.44916 53.5602 5.50393 53.52 5.56901C53.4743 5.65744 53.4407 5.75161 53.42 5.84901C53.4079 5.98875 53.4079 6.12929 53.42 6.26902V7.10902C53.4142 7.22561 53.4142 7.34243 53.42 7.45903C53.43 7.54874 53.4537 7.63642 53.49 7.71904C53.5129 7.78427 53.5467 7.84513 53.59 7.89903C53.6318 7.94334 53.6831 7.97755 53.74 7.99903C53.7996 8.0095 53.8605 8.0095 53.92 7.99903C53.9961 7.99804 54.071 7.98099 54.14 7.94902C54.2073 7.91175 54.2628 7.8563 54.3 7.78901C54.3528 7.70378 54.3868 7.60836 54.4 7.50901C54.4123 7.36594 54.4123 7.22209 54.4 7.07902ZM55.13 6.33903V6.97901C55.1348 7.22209 55.1045 7.46459 55.04 7.69902C54.9917 7.88099 54.9066 8.05115 54.79 8.19902C54.6771 8.31856 54.541 8.41383 54.39 8.47901C54.2274 8.5414 54.0542 8.57195 53.88 8.56901C53.7378 8.57016 53.5962 8.54993 53.46 8.50901C53.3308 8.47758 53.2108 8.41589 53.11 8.32902C53.0056 8.24595 52.9174 8.14424 52.85 8.02903C52.7738 7.88717 52.7167 7.73585 52.68 7.57902C52.6378 7.38188 52.6177 7.18062 52.62 6.97901V6.33903C52.6153 6.09595 52.6456 5.85346 52.71 5.61903C52.7616 5.43935 52.8501 5.27245 52.97 5.12904C53.0764 5.0021 53.2144 4.90548 53.37 4.84901C53.6687 4.74986 53.9914 4.74986 54.29 4.84901C54.4167 4.88221 54.5356 4.93999 54.64 5.01902C54.7451 5.10819 54.8361 5.2127 54.91 5.32902C54.9844 5.47069 55.0383 5.62222 55.07 5.77903C55.1124 5.97278 55.1325 6.17072 55.13 6.36903V6.33903ZM51.13 7.10902V6.23902C51.1359 6.12243 51.1359 6.00561 51.13 5.88902C51.1152 5.80028 51.0918 5.71322 51.06 5.62904C51.0372 5.56681 51.0033 5.5092 50.96 5.45903C50.9149 5.41889 50.8644 5.38522 50.81 5.35902C50.7506 5.34767 50.6895 5.34767 50.63 5.35902C50.5539 5.35905 50.4787 5.37616 50.41 5.40904C50.3427 5.44631 50.2873 5.50173 50.25 5.56901C50.1958 5.65352 50.1616 5.74929 50.15 5.84901C50.1323 5.98845 50.1323 6.12959 50.15 6.26902V7.10902C50.1442 7.22561 50.1442 7.34243 50.15 7.45903C50.1648 7.54777 50.1883 7.63486 50.22 7.71904C50.246 7.78497 50.2832 7.84587 50.33 7.89903C50.3698 7.94106 50.4174 7.97502 50.47 7.99903H50.65C50.7263 8.00008 50.8017 7.98292 50.87 7.94902C50.9396 7.91487 50.9959 7.85859 51.03 7.78901C51.082 7.70243 51.1192 7.6078 51.14 7.50901C51.1518 7.36592 51.1518 7.22211 51.14 7.07902L51.13 7.10902ZM51.88 6.33903V6.97901C51.8848 7.22209 51.8545 7.46459 51.79 7.69902C51.7384 7.88169 51.6499 8.05185 51.53 8.19902C51.4219 8.32397 51.2845 8.42017 51.13 8.47901C50.9674 8.5414 50.7942 8.57195 50.62 8.56901C50.4812 8.56946 50.343 8.54924 50.21 8.50901C50.0799 8.47992 49.9594 8.41795 49.86 8.32902C49.7551 8.24357 49.664 8.14238 49.59 8.02903C49.5138 7.88717 49.4566 7.73585 49.42 7.57902C49.3864 7.3808 49.3696 7.18007 49.37 6.97901V6.33903C49.3653 6.09595 49.3956 5.85346 49.46 5.61903C49.5083 5.44006 49.5935 5.27317 49.71 5.12904C49.8182 5.00409 49.9556 4.90786 50.11 4.84901C50.2727 4.78662 50.4458 4.75607 50.62 4.75901C50.759 4.75714 50.8974 4.77739 51.03 4.81901C51.1567 4.85221 51.2756 4.90999 51.38 4.98902C51.4905 5.07254 51.5825 5.1781 51.65 5.29902C51.7279 5.44015 51.7851 5.5917 51.82 5.74903C51.8624 5.94278 51.8825 6.14072 51.88 6.33903ZM48.64 4.80903V5.20903L47.21 8.51902H46.43L47.87 5.37904H46.02V4.80903H48.64ZM45.4 7.94902V8.51902H42.87V8.02903L44.07 6.73902C44.1713 6.6289 44.2648 6.51195 44.35 6.38902C44.4113 6.30217 44.4617 6.20813 44.5 6.10902C44.5299 6.03584 44.5469 5.95803 44.55 5.87904C44.5538 5.77895 44.5332 5.67943 44.49 5.58903C44.4595 5.50956 44.4031 5.44265 44.33 5.39903C44.2477 5.35245 44.1546 5.32831 44.06 5.32902C43.9578 5.32822 43.8574 5.35594 43.77 5.40904C43.6893 5.46693 43.6268 5.54673 43.59 5.63902C43.5491 5.74415 43.5287 5.85621 43.53 5.96904H42.79C42.7921 5.7556 42.847 5.54598 42.95 5.35902C43.0578 5.17463 43.2133 5.02264 43.4 4.91902C43.6086 4.8065 43.8432 4.75129 44.08 4.75901C44.306 4.75253 44.5308 4.79343 44.74 4.87904C44.9084 4.95808 45.0481 5.08733 45.14 5.24903C45.2407 5.41788 45.2894 5.61266 45.28 5.80903C45.2946 5.92859 45.2946 6.04946 45.28 6.16902C45.2355 6.28803 45.1785 6.402 45.11 6.50901C45.0332 6.63268 44.9462 6.74975 44.85 6.85902C44.75 6.97902 44.63 7.09904 44.51 7.21904L43.86 7.94902H45.4Z" fill="white"/>
<path d="M79.6898 2.70886C79.4246 2.70886 79.1703 2.8142 78.9827 3.00174C78.7952 3.18928 78.6898 3.44365 78.6898 3.70886V21.3289C78.6898 21.5941 78.7952 21.8484 78.9827 22.036C79.1703 22.2235 79.4246 22.3289 79.6898 22.3289H130.48C130.745 22.3289 130.999 22.2235 131.187 22.036C131.374 21.8484 131.48 21.5941 131.48 21.3289V3.66885C131.48 3.40364 131.374 3.1493 131.187 2.96176C130.999 2.77423 130.745 2.66885 130.48 2.66885L79.6898 2.70886ZM130.48 22.8889H79.6898C79.2655 22.8889 78.8585 22.7203 78.5585 22.4202C78.2584 22.1202 78.0898 21.7132 78.0898 21.2888V3.66885C78.0898 3.24451 78.2584 2.83753 78.5585 2.53748C78.8585 2.23742 79.2655 2.06885 79.6898 2.06885H130.48C130.69 2.06885 130.898 2.11024 131.092 2.19064C131.286 2.27105 131.463 2.3889 131.611 2.53748C131.76 2.68605 131.878 2.86246 131.958 3.05658C132.038 3.2507 132.08 3.45874 132.08 3.66885V21.2888C132.08 21.499 132.038 21.707 131.958 21.9012C131.878 22.0953 131.76 22.2717 131.611 22.4202C131.463 22.5688 131.286 22.6867 131.092 22.7671C130.898 22.8475 130.69 22.8889 130.48 22.8889Z" fill="white"/>
<path d="M72 13.0387L77.85 12.4787L81.53 15.1187C98.07 -0.0612526 110.58 -0.231251 114.78 1.58875C103.63 -1.04125 87.97 13.4088 81.53 20.9688L72 13.0387Z" fill="#96809E"/>
<path d="M110.94 9.23881V8.71883C110.947 8.21807 110.897 7.71814 110.79 7.2288C110.709 6.84379 110.557 6.47745 110.34 6.14882C110.158 5.86591 109.902 5.6378 109.6 5.48881C109.292 5.32903 108.948 5.2499 108.6 5.2588C108.253 5.25283 107.91 5.3318 107.6 5.48881C107.303 5.64088 107.052 5.86852 106.87 6.14882C106.662 6.48023 106.513 6.84579 106.43 7.2288C106.324 7.71814 106.274 8.21807 106.28 8.71883V9.23881C106.274 9.73955 106.324 10.2394 106.43 10.7288C106.513 11.1163 106.666 11.4856 106.88 11.8188C107.182 12.2299 107.619 12.5221 108.114 12.6445C108.609 12.7669 109.132 12.7118 109.59 12.4888C109.885 12.3318 110.133 12.1009 110.31 11.8188C110.525 11.4856 110.678 11.1163 110.76 10.7288C110.866 10.2394 110.917 9.73955 110.91 9.23881H110.94ZM113.13 8.7288V9.23881C113.142 9.97872 113.03 10.7154 112.8 11.4188C112.602 12.0218 112.286 12.5793 111.87 13.0588C111.471 13.4911 110.983 13.8322 110.44 14.0588C109.261 14.524 107.95 14.524 106.77 14.0588C106.226 13.83 105.735 13.4893 105.33 13.0588C104.911 12.58 104.592 12.0225 104.39 11.4188C104.161 10.7154 104.049 9.97872 104.06 9.23881V8.7288C104.049 7.99212 104.16 7.25867 104.39 6.55882C104.586 5.95175 104.902 5.3905 105.32 4.90883C105.72 4.47651 106.207 4.13541 106.75 3.90883C107.333 3.66406 107.959 3.54151 108.59 3.54881C109.219 3.54058 109.842 3.66319 110.42 3.90883C110.968 4.13158 111.46 4.47311 111.86 4.90883C112.279 5.3905 112.595 5.95175 112.79 6.55882C113.029 7.25686 113.144 7.9912 113.13 8.7288ZM99.9504 11.5188C99.9534 11.3446 99.9228 11.1715 99.8604 11.0088C99.7961 10.8438 99.6891 10.6989 99.5504 10.5888C99.361 10.4232 99.1445 10.2912 98.9104 10.1988C98.5665 10.0417 98.2124 9.90802 97.8504 9.79881C97.3844 9.65137 96.927 9.47778 96.4804 9.27882C96.0774 9.09327 95.6952 8.86529 95.3405 8.5988C95.0225 8.34635 94.7575 8.03374 94.5605 7.67882C94.3696 7.30444 94.2734 6.88898 94.2804 6.46883C94.2752 6.04964 94.3786 5.63624 94.5804 5.26881C94.7741 4.89403 95.0554 4.57156 95.4005 4.32881C95.7763 4.05678 96.1956 3.85053 96.6404 3.71883C97.1578 3.57384 97.6932 3.50311 98.2304 3.5088C98.9379 3.49076 99.6398 3.63802 100.28 3.93883C100.834 4.19032 101.305 4.59226 101.64 5.0988C101.969 5.60049 102.14 6.18916 102.13 6.7888H99.9504C99.9586 6.50368 99.8932 6.2213 99.7604 5.96883C99.6271 5.72512 99.4208 5.5293 99.1704 5.40883C98.8609 5.25342 98.5163 5.18104 98.1704 5.19881C97.8444 5.18795 97.5199 5.24944 97.2204 5.37883C96.9891 5.47234 96.7907 5.63243 96.6505 5.83882C96.5223 6.02732 96.456 6.25094 96.4604 6.4788C96.4559 6.65122 96.5011 6.82132 96.5905 6.96883C96.6981 7.1317 96.8376 7.27116 97.0004 7.37883C97.2087 7.52504 97.4336 7.64588 97.6704 7.73881C97.9304 7.84881 98.2304 7.9588 98.5804 8.0688C99.1069 8.21968 99.619 8.41716 100.11 8.65883C100.512 8.85481 100.885 9.10368 101.22 9.39882C101.509 9.65579 101.738 9.97332 101.89 10.3288C102.046 10.7026 102.124 11.104 102.12 11.5088C102.127 11.9374 102.034 12.3617 101.85 12.7488C101.671 13.1182 101.403 13.4376 101.07 13.6788C100.702 13.9448 100.289 14.1413 99.8504 14.2588C99.3311 14.392 98.7965 14.4558 98.2604 14.4488C97.7338 14.4525 97.2091 14.3853 96.7004 14.2488C96.201 14.116 95.7277 13.8996 95.3004 13.6088C94.888 13.3311 94.5456 12.9614 94.3004 12.5288C94.0425 12.0503 93.9149 11.5123 93.9305 10.9688H96.1704C96.1616 11.2562 96.2126 11.5423 96.3204 11.8088C96.4147 12.0285 96.5625 12.221 96.7504 12.3688C96.9533 12.5117 97.1803 12.6167 97.4204 12.6788C97.7063 12.7405 97.998 12.7707 98.2904 12.7688C98.6083 12.7818 98.9252 12.7273 99.2204 12.6088C99.446 12.5245 99.6387 12.3703 99.7704 12.1688C99.8944 11.9746 99.9603 11.7491 99.9604 11.5188H99.9504ZM91.6304 14.2388H89.4404V3.62883H91.6304V14.2388Z" fill="white"/>
<path d="M126.81 20.8788H125.81V16.0288H126.81V20.8788ZM127.3 20.8788H126.24V20.0988H127.29C127.523 20.1065 127.753 20.0438 127.95 19.9188C128.135 19.7899 128.278 19.6089 128.36 19.3988C128.457 19.1332 128.505 18.8517 128.5 18.5688V18.3288C128.502 18.1063 128.475 17.8845 128.42 17.6688C128.36 17.5132 128.275 17.368 128.17 17.2388C128.069 17.1128 127.938 17.0133 127.79 16.9488C127.629 16.8783 127.455 16.8441 127.28 16.8488H126.19V16.0688H127.28C127.584 16.064 127.886 16.1184 128.17 16.2288C128.433 16.3365 128.671 16.4964 128.87 16.6988C129.07 16.9095 129.226 17.1576 129.33 17.4288C129.442 17.75 129.496 18.0886 129.49 18.4288V18.6588C129.49 18.979 129.436 19.2969 129.33 19.5988C129.231 19.8727 129.074 20.1218 128.87 20.3288C128.673 20.5334 128.434 20.6937 128.17 20.7988C127.883 20.9118 127.578 20.9695 127.27 20.9688L127.3 20.8788ZM124.17 16.8088H121.59V16.0288H124.17V16.8088ZM123.83 18.7588H121.59V17.9988H123.83V18.7588ZM121.91 20.8788H120.91V16.0288H121.91V20.8788ZM124.17 20.8788H121.59V20.0988H124.17V20.8788ZM118.89 20.8788H117.89V16.0288H118.89V20.8788ZM116.15 16.8088H113.67V16.0288H116.11L116.15 16.8088ZM115.92 18.8788H113.67V18.0988H115.88L115.92 18.8788ZM113.99 20.8788H112.99V16.0288H113.99V20.8788ZM110.99 20.8788H109.99V16.0288H110.99V20.8788ZM108.17 16.8088H104.17V16.0288H108.17V16.8088ZM106.68 20.8788H105.68V16.0288H106.68V20.8788ZM101.96 20.8788L100.85 18.7088H101.91L103.03 20.8288V20.8788H101.96ZM99.2498 16.0288H101.05C101.391 16.0137 101.731 16.0681 102.05 16.1888C102.301 16.2861 102.517 16.4569 102.67 16.6788C102.824 16.92 102.901 17.2027 102.89 17.4888C102.894 17.7198 102.846 17.9488 102.75 18.1588C102.667 18.341 102.54 18.4993 102.38 18.6188C102.215 18.7467 102.029 18.8448 101.83 18.9088L101.51 19.0788H99.9398V18.2988H101.11C101.261 18.3026 101.412 18.2718 101.55 18.2088C101.66 18.149 101.75 18.0587 101.81 17.9488C101.872 17.8285 101.903 17.6943 101.9 17.5588C101.903 17.4201 101.872 17.2827 101.81 17.1588C101.756 17.0449 101.664 16.9531 101.55 16.8988C101.409 16.8343 101.255 16.8035 101.1 16.8088H100.29V20.8788H99.2899L99.2498 16.0288ZM97.5699 16.8088H94.9899V16.0288H97.5699V16.8088ZM97.2299 18.7588H94.9899V17.9988H97.2299V18.7588ZM95.3099 20.8788H94.3099V16.0288H95.3099V20.8788ZM97.5699 20.8788H94.9899V20.0988H97.5699V20.8788ZM91.5699 19.2688H92.5699C92.5572 19.576 92.4679 19.8751 92.3099 20.1388C92.1466 20.3947 91.9143 20.5992 91.6399 20.7288C91.3269 20.8742 90.9849 20.9461 90.6399 20.9388C90.355 20.9452 90.072 20.8907 89.8099 20.7788C89.5638 20.6771 89.3447 20.5196 89.1699 20.3188C88.9913 20.1009 88.8587 19.8492 88.7798 19.5788C88.674 19.2565 88.6266 18.9178 88.6399 18.5788V18.2388C88.6336 17.9002 88.6809 17.5627 88.7798 17.2388C88.8615 16.9684 89.0014 16.7192 89.1899 16.5088C89.3605 16.3053 89.5762 16.1444 89.8199 16.0388C90.0812 15.9235 90.3642 15.8656 90.6499 15.8688C90.9956 15.8647 91.3378 15.9399 91.6499 16.0888C91.9199 16.2265 92.1454 16.438 92.2999 16.6988C92.4606 16.9663 92.5565 17.2676 92.5799 17.5788H91.5799C91.5727 17.407 91.5355 17.2378 91.4698 17.0788C91.4018 16.9454 91.2933 16.8369 91.1599 16.7688C90.9937 16.6936 90.812 16.6593 90.6299 16.6688C90.4783 16.6651 90.3278 16.6958 90.1899 16.7588C90.0643 16.8242 89.9576 16.9206 89.8799 17.0388C89.7851 17.1845 89.7205 17.3477 89.6899 17.5188C89.6474 17.7429 89.6273 17.9707 89.6299 18.1988V18.5388C89.6272 18.7603 89.6473 18.9814 89.6899 19.1988C89.7143 19.3684 89.7721 19.5316 89.8599 19.6788C89.9342 19.805 90.0413 19.9087 90.1699 19.9788C90.3109 20.0433 90.4649 20.0741 90.6199 20.0688C90.7986 20.0764 90.9767 20.0421 91.1399 19.9688C91.2719 19.9083 91.3807 19.8065 91.4499 19.6788C91.5282 19.5268 91.5725 19.3596 91.5799 19.1888" fill="white"/>
<path d="M125.17 13.099C125.346 13.1044 125.522 13.0808 125.69 13.029C125.828 12.9834 125.954 12.9084 126.06 12.809C126.153 12.708 126.225 12.5889 126.27 12.459C126.315 12.3064 126.338 12.1482 126.34 11.989V11.239C126.351 11.1226 126.351 11.0054 126.34 10.889C126.315 10.801 126.278 10.7169 126.23 10.639C126.184 10.5757 126.126 10.5215 126.06 10.479C125.991 10.4653 125.919 10.4653 125.85 10.479C125.772 10.4772 125.696 10.4981 125.63 10.539C125.567 10.5819 125.513 10.6362 125.47 10.699C125.429 10.7756 125.395 10.856 125.37 10.939C125.36 11.0288 125.36 11.1193 125.37 11.209C125.359 11.2987 125.359 11.3893 125.37 11.479C125.391 11.5605 125.425 11.6381 125.47 11.709C125.511 11.7767 125.57 11.832 125.64 11.869C125.712 11.9031 125.79 11.9201 125.87 11.919C125.95 11.9241 126.029 11.9068 126.1 11.869C126.17 11.841 126.231 11.7964 126.28 11.739C126.328 11.6868 126.365 11.6257 126.39 11.559C126.404 11.4931 126.404 11.4249 126.39 11.359L126.63 11.489C126.632 11.6094 126.608 11.7287 126.56 11.839C126.505 11.9575 126.431 12.0657 126.34 12.159C126.252 12.2515 126.146 12.3262 126.03 12.379C125.912 12.4381 125.782 12.4689 125.65 12.469C125.491 12.4728 125.333 12.4385 125.19 12.369C125.057 12.3117 124.94 12.2223 124.85 12.109C124.75 11.9935 124.678 11.8566 124.64 11.709C124.587 11.5511 124.56 11.3856 124.56 11.219C124.559 11.045 124.589 10.8722 124.65 10.709C124.711 10.5571 124.796 10.4155 124.9 10.289C125.014 10.1705 125.15 10.0754 125.3 10.009C125.46 9.93851 125.635 9.90439 125.81 9.90904C125.99 9.90384 126.168 9.94153 126.33 10.019C126.484 10.0919 126.621 10.1977 126.73 10.329C126.842 10.4684 126.927 10.6279 126.98 10.799C127.042 10.9997 127.073 11.2089 127.07 11.419V11.679C127.07 11.9047 127.043 12.1296 126.99 12.349C126.94 12.5457 126.863 12.7343 126.76 12.909C126.557 13.2496 126.231 13.4998 125.85 13.609C125.633 13.6752 125.407 13.7089 125.18 13.709H125.17V13.099ZM123.17 9.93904V13.659H122.44V10.789L121.56 11.069V10.489L123.09 9.93904H123.17ZM119.89 12.239V11.399C119.896 11.2824 119.896 11.1656 119.89 11.049C119.875 10.9603 119.852 10.8732 119.82 10.789C119.798 10.7242 119.76 10.6659 119.71 10.619C119.67 10.577 119.623 10.543 119.57 10.519H119.39C119.318 10.502 119.242 10.502 119.17 10.519C119.1 10.5532 119.044 10.6094 119.01 10.679C118.956 10.7648 118.919 10.8597 118.9 10.959C118.888 11.0988 118.888 11.2393 118.9 11.379V12.239C118.894 12.3556 118.894 12.4724 118.9 12.589C118.915 12.6778 118.938 12.7648 118.97 12.849C118.993 12.9142 119.027 12.9751 119.07 13.029C119.115 13.0692 119.166 13.1028 119.22 13.129H119.4C119.472 13.1461 119.548 13.1461 119.62 13.129C119.687 13.0918 119.743 13.0363 119.78 12.969C119.833 12.8838 119.867 12.7884 119.88 12.689C119.897 12.5462 119.897 12.4018 119.88 12.259L119.89 12.239ZM120.61 11.519V12.159C120.615 12.4021 120.584 12.6446 120.52 12.879C120.476 13.0626 120.39 13.2336 120.27 13.379C120.162 13.504 120.024 13.6002 119.87 13.659C119.707 13.7214 119.534 13.752 119.36 13.749C119.221 13.7509 119.083 13.7307 118.95 13.689C118.82 13.6599 118.699 13.5979 118.6 13.509C118.492 13.4262 118.401 13.3246 118.33 13.209C118.254 13.0672 118.197 12.9158 118.16 12.759C118.121 12.5615 118.104 12.3603 118.11 12.159V11.519C118.102 11.2764 118.129 11.034 118.19 10.799C118.246 10.621 118.334 10.4549 118.45 10.309C118.558 10.1841 118.695 10.0879 118.85 10.029C119.013 9.96664 119.186 9.93609 119.36 9.93904C119.499 9.93716 119.637 9.95741 119.77 9.99903C119.897 10.0322 120.016 10.09 120.12 10.169C120.228 10.2555 120.319 10.3604 120.39 10.479C120.466 10.6209 120.523 10.7722 120.56 10.929C120.594 11.1239 120.61 11.3213 120.61 11.519ZM117.4 13.129V13.699H114.87V13.209L116.07 11.919C116.174 11.8087 116.271 11.6918 116.36 11.569C116.421 11.4822 116.472 11.3881 116.51 11.289C116.54 11.2158 116.557 11.138 116.56 11.059C116.564 10.9589 116.543 10.8594 116.5 10.769C116.466 10.6884 116.406 10.6215 116.33 10.579C116.251 10.5337 116.161 10.5096 116.07 10.509C115.968 10.5082 115.867 10.5359 115.78 10.589C115.699 10.6491 115.634 10.728 115.59 10.819C115.549 10.9241 115.529 11.0362 115.53 11.149H114.8C114.797 10.9349 114.852 10.7241 114.96 10.539C115.064 10.355 115.216 10.2029 115.4 10.099C115.608 9.98649 115.843 9.93131 116.08 9.93904C116.306 9.93255 116.531 9.97342 116.74 10.059C116.911 10.138 117.054 10.267 117.15 10.429C117.247 10.5995 117.295 10.7931 117.29 10.989C117.29 11.1115 117.269 11.2331 117.23 11.349C117.185 11.468 117.128 11.582 117.06 11.689C116.983 11.8127 116.896 11.9297 116.8 12.039C116.695 12.1664 116.581 12.2867 116.46 12.399L115.82 13.129H117.4ZM129.68 4.79902V8.51902H128.94V5.64903L128.06 5.92903V5.34901L129.6 4.79902H129.68ZM126.39 7.07902V6.23902C126.396 6.12243 126.396 6.00561 126.39 5.88902C126.375 5.80028 126.352 5.71322 126.32 5.62904C126.297 5.56681 126.263 5.5092 126.22 5.45903C126.177 5.4167 126.126 5.38279 126.07 5.35902C126.01 5.34767 125.949 5.34767 125.89 5.35902C125.814 5.35905 125.739 5.37616 125.67 5.40904C125.603 5.44631 125.547 5.50173 125.51 5.56901C125.456 5.65352 125.422 5.74929 125.41 5.84901C125.397 5.98872 125.397 6.12932 125.41 6.26902V7.10902C125.404 7.22561 125.404 7.34243 125.41 7.45903C125.425 7.54777 125.448 7.63486 125.48 7.71904C125.506 7.78497 125.543 7.84587 125.59 7.89903C125.63 7.94106 125.677 7.97502 125.73 7.99903C125.793 8.00948 125.857 8.00948 125.92 7.99903C125.993 7.99926 126.065 7.9821 126.13 7.94902C126.2 7.91238 126.259 7.857 126.3 7.78901C126.348 7.70179 126.382 7.6072 126.4 7.50901C126.412 7.36592 126.412 7.22211 126.4 7.07902H126.39ZM127.14 6.33903V6.97901C127.145 7.22209 127.114 7.46459 127.05 7.69902C126.998 7.88169 126.91 8.05185 126.79 8.19902C126.683 8.32043 126.549 8.41612 126.4 8.47901C126.237 8.53959 126.064 8.57008 125.89 8.56901C125.748 8.57016 125.606 8.54993 125.47 8.50901C125.34 8.47992 125.219 8.41795 125.12 8.32902C125.015 8.24357 124.924 8.14238 124.85 8.02903C124.777 7.88667 124.723 7.73537 124.69 7.57902C124.648 7.38188 124.628 7.18062 124.63 6.97901V6.33903C124.625 6.09595 124.655 5.85346 124.72 5.61903C124.768 5.44006 124.853 5.27317 124.97 5.12904C125.08 5.00639 125.217 4.91058 125.37 4.84901C125.533 4.78662 125.706 4.75607 125.88 4.75901C126.022 4.75787 126.164 4.77809 126.3 4.81901C126.428 4.85432 126.549 4.91499 126.653 4.99742C126.758 5.07985 126.845 5.1824 126.91 5.29902C126.986 5.44089 127.043 5.59221 127.08 5.74903C127.122 5.94278 127.142 6.14072 127.14 6.33903ZM123.9 4.80903V5.20903L122.47 8.51902H121.69L123.17 5.33903H121.32V4.76902L123.9 4.80903ZM120.65 4.80903V5.20903L119.17 8.47901H118.4L119.83 5.33903H117.99V4.76902L120.65 4.80903ZM117.41 7.94902V8.51902H114.87V8.02903L116.07 6.73902C116.174 6.62871 116.271 6.51179 116.36 6.38902C116.421 6.30217 116.472 6.20813 116.51 6.10902C116.54 6.03584 116.557 5.95803 116.56 5.87904C116.564 5.77895 116.543 5.67943 116.5 5.58903C116.466 5.50844 116.406 5.44153 116.33 5.39903C116.251 5.3537 116.161 5.32958 116.07 5.32902C115.968 5.32822 115.867 5.35594 115.78 5.40904C115.699 5.4691 115.634 5.54803 115.59 5.63902C115.549 5.74415 115.529 5.85621 115.53 5.96904H114.8C114.797 5.75495 114.852 5.54407 114.96 5.35902C115.064 5.17502 115.216 5.02287 115.4 4.91902C115.608 4.8065 115.843 4.75129 116.08 4.75901C116.306 4.75253 116.531 4.79343 116.74 4.87904C116.911 4.95801 117.054 5.08703 117.15 5.24903C117.247 5.41954 117.295 5.61312 117.29 5.80903C117.29 5.93149 117.269 6.05306 117.23 6.16902C117.185 6.28803 117.128 6.402 117.06 6.50901C116.983 6.63268 116.896 6.74975 116.8 6.85902C116.695 6.98638 116.581 7.10666 116.46 7.21904L115.82 7.94902H117.41Z" fill="white"/>
</svg>
