<?xml version="1.0" encoding="utf-8"?>
<!-- Generator: Adobe Illustrator 26.0.1, SVG Export Plug-In . SVG Version: 6.00 Build 0)  -->
<svg version="1.1" id="Layer_1" xmlns="http://www.w3.org/2000/svg" xmlns:xlink="http://www.w3.org/1999/xlink" x="0px" y="0px"
	 viewBox="0 0 891.4 300" style="enable-background:new 0 0 891.4 300;" xml:space="preserve">
<style type="text/css">
	.st0{fill:#E21E52;}
	.st1{fill:#303330;}
	.st2{fill:#3B4DA1;}
	.st3{fill:#2E5791;}
	.st4{fill:#486AAE;}
	.st5{fill:#FCB813;}
	.st6{fill:#134C34;}
	.st7{fill:#3BCBCB;}
	.st8{fill:#DE2626;}
	.st9{fill:#FFCB01;}
	.st10{fill:#FFFFFF;}
	.st11{fill:#D80613;}
	.st12{fill-rule:evenodd;clip-rule:evenodd;fill:#006FB4;}
	.st13{fill-rule:evenodd;clip-rule:evenodd;fill:#009A40;}
	.st14{fill-rule:evenodd;clip-rule:evenodd;fill:#FFFFFF;}
</style>
<g>
	<path class="st0" d="M168.8,219.7c0-0.1,0.1-0.2,0.1-0.4c0.3-1.2,1-2.2,2.1-2.6c1.9-0.7,3.8-1.4,5.7-1.9c2-0.5,4,0.8,4.5,2.8
		c0.6,2.5,1.2,4.9,1.8,7.4c0.9,3.7,1.8,7.3,2.7,11c0.5,2-0.5,3.9-2.5,4.6c-0.7,0.2-1.4,0.5-2.1,0.7c-2,0.6-3.9-0.3-4.8-2.3
		c-1.4-3.5-2.8-6.9-4.2-10.3c-0.9-2.3-1.9-4.5-2.8-6.8c-0.2-0.5-0.3-1-0.5-1.5C168.8,220.2,168.8,219.9,168.8,219.7z"/>
	<path class="st0" d="M184.3,254.3c-0.2-0.1-0.5-0.1-0.7-0.2c-2.4-0.6-4.1-2.8-4-5.3c0.1-2.4,2-4.4,4.4-4.8c2.8-0.4,5.4,1.5,5.9,4.4
		c0.4,2.7-1.6,5.4-4.3,5.8c-0.1,0-0.2,0.1-0.4,0.1C184.9,254.3,184.6,254.3,184.3,254.3z"/>
	<path class="st1" d="M348.3,240.7c0-4,0-8.1,0-12.1c0-0.2,0-0.4,0-0.7c0-0.4,0.2-0.7,0.7-0.8c1-0.1,2-0.2,3-0.3
		c2.5-0.1,5-0.3,7.5-0.3c1,0,2.1,0.2,3.1,0.4c1.9,0.5,3.4,1.6,4.3,3.3c2.5,4.7,2.5,9.5-0.4,14.1c-1.3,2.1-3.2,3.4-5.7,3.9
		c-2.1,0.4-4.1,0-5.9-1.3c-0.1-0.1-0.3-0.1-0.4-0.2c0,0.2-0.1,0.3-0.1,0.5c0,2,0,4.1,0,6.1c0,0.6-0.2,0.8-0.8,0.8
		c-1.5,0-2.9,0-4.4,0c-0.7,0-0.9-0.2-0.9-0.9C348.3,249.1,348.3,244.9,348.3,240.7z M354.4,236.7c0,1.2,0,2.5,0,3.7
		c0,0.5,0.2,0.9,0.6,1.3c1.7,1.5,5.6,1.4,6.8-1.4c0.7-1.6,0.9-3.3,0.5-5c-0.4-1.9-1.5-3.1-3.3-3.3c-1.3-0.2-2.6-0.1-3.9,0.2
		c-0.5,0.1-0.7,0.4-0.7,0.9C354.4,234.2,354.4,235.5,354.4,236.7z"/>
	<path class="st1" d="M220.9,234.5c0-4.1,0-8.2,0-12.3c0-0.8,0.1-0.9,0.9-0.9c1.5,0,3,0,4.5,0c0.7,0,0.8,0.2,0.8,0.8
		c0,1.8,0,3.5,0,5.3c0,0.8,0,0.8,0.7,0.5c3.8-1.8,8.1-1,10.8,2c1.3,1.5,2.1,3.3,2.4,5.2c0.3,2.2,0.4,4.4-0.3,6.6
		c-1,3.5-3.3,5.7-7,6.4c-2.6,0.5-5.2,0.5-7.8,0.3c-1.4-0.1-2.7-0.3-4.1-0.4c-0.8-0.1-1-0.3-1-1.1
		C220.9,242.6,220.9,238.5,220.9,234.5z M227.1,237.8c0,1.4,0,2.7,0,4.1c0,0.4,0.1,0.7,0.5,0.7c0.9,0.1,1.8,0.2,2.7,0.2
		c1.2-0.1,2.3-0.4,3.2-1.3c1.1-1.1,1.6-2.4,1.6-3.9c0.1-2.5-1.8-5.2-4.4-5.4c-1-0.1-1.9,0.1-2.9,0.4c-0.7,0.3-0.9,0.5-0.9,1.2
		C227.1,235.2,227.1,236.5,227.1,237.8z"/>
	<path class="st0" d="M192.8,221.3c5.2,0.2,9.5,2.2,12.3,6.6c3.7,5.8,2.7,13.1-2.3,17.9c-1.5,1.5-3.3,2.6-5.3,3.3
		c-1.8,0.6-3.4-0.1-4.1-1.9c-0.3-0.8-0.7-1.6-1-2.4c-0.7-1.8,0.1-3.6,2-4.2c2.1-0.7,3.4-2,3.8-4.1c0.8-3.7-2.8-7.1-6.5-6.1
		c-0.6,0.2-1.3,0.3-1.9,0.3c-1.3,0-2.4-0.9-2.7-2.2c-0.3-1-0.5-2.1-0.8-3.1c-0.3-1.4,0.6-2.9,2-3.4
		C189.7,221.6,191.2,221.4,192.8,221.3z"/>
	<path class="st1" d="M269.3,234.9c0-4.2,0-8.4,0-12.6c0-0.8,0.1-1,1-1c1.4,0,2.8,0,4.2,0c0.9,0,1,0.1,1,1c0,4.3,0,8.6,0,12.9
		c0,0.1,0,0.3,0,0.4c0,0.1,0.1,0.3,0.2,0.3s0.3-0.1,0.4-0.1c0.1-0.1,0.1-0.2,0.2-0.3c1.8-2.6,3.7-5.1,5.5-7.7
		c0.3-0.4,0.6-0.5,1.1-0.5c1.7,0,3.4,0,5.1,0c0.2,0,0.5,0.1,0.6,0.2c0.1,0.2,0,0.5-0.2,0.6c-2.1,2.9-4.3,5.8-6.4,8.7
		c-0.7,0.9-0.7,1.1,0,2c2.3,2.9,4.5,5.8,6.8,8.7c0.1,0.1,0.2,0.2,0.2,0.3c0.1,0.2,0.1,0.4,0.1,0.5c-0.1,0.1-0.3,0.2-0.4,0.2
		c-0.6,0-1.3,0-1.9,0c-1.2,0-2.5,0-3.7,0c-0.3,0-0.6-0.1-0.8-0.4c-1.9-2.5-3.8-5-5.8-7.5c-0.1-0.1-0.2-0.3-0.3-0.4
		c-0.1-0.1-0.3-0.1-0.3-0.1c-0.1,0-0.2,0.2-0.2,0.3c0,0.2,0,0.4,0,0.6c0,2.3,0,4.5,0,6.8c0,0.6-0.1,0.7-0.7,0.7c-1.6,0-3.2,0-4.9,0
		c-0.6,0-0.7-0.1-0.7-0.7C269.3,243.4,269.3,239.1,269.3,234.9z"/>
	<path class="st1" d="M395.1,234.9c0-4.2,0-8.4,0-12.7c0-0.8,0.1-0.9,1-0.9c1.4,0,2.9,0,4.3,0c0.8,0,0.9,0.1,0.9,0.9
		c0,4.2,0,8.5,0,12.7c0,0.1,0,0.3,0,0.4c0,0.2,0.1,0.3,0.2,0.5c0.2-0.1,0.4-0.2,0.5-0.3c1.9-2.6,3.8-5.2,5.6-7.8
		c0.3-0.4,0.6-0.5,1.1-0.5c1.7,0,3.3,0,5,0c0.3,0,0.5,0.1,0.8,0.2c-0.1,0.2-0.1,0.5-0.3,0.7c-2.1,2.8-4.2,5.7-6.3,8.5
		c-0.8,1.1-0.8,1.2,0,2.2c2.2,2.9,4.5,5.8,6.7,8.6c0.1,0.1,0.1,0.1,0.2,0.2c0.2,0.4,0.1,0.7-0.3,0.7c-2,0-3.9,0-5.9,0
		c-0.2,0-0.4-0.2-0.6-0.4c-1.9-2.5-3.9-5-5.8-7.5c-0.1-0.1-0.1-0.2-0.2-0.3c-0.1-0.1-0.3-0.2-0.4-0.1c-0.1,0-0.2,0.2-0.2,0.4
		c0,0.1,0,0.3,0,0.4c0,2.3,0,4.6,0,6.9c0,0.6-0.1,0.7-0.7,0.7c-1.6,0-3.2,0-4.8,0c-0.6,0-0.7,0-0.7-0.7
		C395.1,243.4,395.1,239.1,395.1,234.9z"/>
	<path class="st1" d="M337,233.8c0.2-1.1-0.2-1.8-1.1-2.1c-0.7-0.2-1.5-0.4-2.3-0.4c-1.8,0.1-3.6,0.4-5.3,0.6
		c-0.8,0.1-0.9,0.1-1.2-0.7c-0.3-1-0.7-1.9-1-2.9c-0.2-0.5,0-0.8,0.5-0.9c2.7-0.4,5.4-0.9,8.2-0.9c1.6,0,3.1,0.2,4.5,0.9
		c2.1,1,3.3,2.8,3.7,5.1c0.1,0.9,0.2,1.8,0.2,2.7c0,2.1,0,4.2,0,6.3c0,0.4,0,0.7,0,1.1c0.1,0.6,0.4,1.1,1.1,1.3
		c0.4,0.1,0.6,0.3,0.5,0.7c-0.2,1-0.3,2.1-0.4,3.1c-0.1,0.4-0.2,0.6-0.7,0.6c-1.1,0-2.2,0-3.2-0.1s-1.9-0.7-2.6-1.5
		c-0.3-0.3-0.4-0.3-0.8-0.1c-2.1,1.4-4.4,2.1-6.9,2c-3.2-0.2-5.7-2.4-6.1-5.6c-0.1-1.1-0.1-2.1,0.2-3.2c0.5-2,1.7-3.4,3.6-4.3
		c2.1-1,4.4-1.4,6.7-1.5C335.3,233.7,336.1,233.8,337,233.8z M337,239.8L337,239.8c0-0.5,0-1,0-1.5c0-0.6-0.1-0.6-0.6-0.6
		c-0.6,0-1.2,0.1-1.8,0.2c-1.1,0.2-2.1,0.4-3,1.1c-1.5,1.2-1.2,3.4,0.5,4.2c1.4,0.6,3.5,0.2,4.5-0.9c0.2-0.2,0.3-0.6,0.4-0.9
		C337.1,240.9,337,240.4,337,239.8z"/>
	<path class="st1" d="M303.1,233.7c0.1-1-0.2-1.8-1.1-2.1c-0.7-0.2-1.5-0.4-2.3-0.3c-1.8,0.1-3.5,0.4-5.3,0.6
		c-0.8,0.1-0.9,0.1-1.2-0.7c-0.3-1-0.6-1.9-1-2.9c-0.2-0.5,0-0.8,0.5-0.9c2.7-0.4,5.5-0.9,8.2-0.9c1.2,0,2.3,0.2,3.5,0.5
		c2.9,0.8,4.4,2.8,4.8,5.7c0.1,1.1,0.1,2.1,0.1,3.2c0,1.9,0,3.8,0,5.7c0,0.3,0,0.6,0.1,0.9c0.1,0.6,0.4,1.1,1.1,1.2
		c0.4,0.1,0.5,0.3,0.5,0.7c-0.2,1.1-0.3,2.1-0.4,3.2c0,0.3-0.2,0.5-0.5,0.5c-1.3,0.1-2.5,0.2-3.7-0.2c-0.9-0.3-1.7-0.8-2.2-1.5
		c-0.2-0.3-0.4-0.3-0.7-0.1c-2.1,1.4-4.4,2.2-7,2c-3.3-0.2-5.8-2.6-6.1-5.9c-0.2-2,0.2-3.8,1.4-5.4c1-1.2,2.4-1.8,3.8-2.3
		c2.3-0.8,4.6-1,7-1C302.6,233.7,302.8,233.7,303.1,233.7z M303.1,239.8c0-0.5,0-1,0-1.5c0-0.4-0.2-0.6-0.6-0.6
		c-0.9,0.1-1.7,0.2-2.6,0.4c-0.8,0.2-1.7,0.4-2.3,1c-1.4,1.2-1.1,3.4,0.6,4.1c1.4,0.6,3.5,0.2,4.6-0.9c0.2-0.2,0.3-0.6,0.4-1
		C303.2,240.8,303.1,240.3,303.1,239.8z"/>
	<path class="st1" d="M383.8,233.8c0.1-1.5-0.7-2.2-2.2-2.4c-1.6-0.2-3.2,0-4.7,0.2c-0.7,0.1-1.3,0.2-2,0.3c-0.6,0.1-0.8,0-1-0.6
		c-0.3-1-0.7-2-1-3c-0.2-0.5,0-0.8,0.5-0.9c2.7-0.4,5.5-0.9,8.2-0.9c1.6,0,3.2,0.2,4.7,0.9c2.2,1.1,3.4,3,3.6,5.5
		c0.2,2.2,0.1,4.5,0.1,6.8c0,0.8,0,1.6,0,2.3c0,1.1,0.2,1.4,1.2,1.7c0.3,0.1,0.4,0.3,0.4,0.6c-0.2,1.1-0.3,2.2-0.5,3.3
		c0,0.2-0.2,0.5-0.4,0.5c-1.3,0.2-2.5,0.2-3.8-0.2c-0.9-0.3-1.7-0.7-2.3-1.5c-0.2-0.3-0.4-0.3-0.7-0.1c-2.1,1.4-4.4,2.1-6.9,2
		c-3.3-0.2-5.8-2.6-6.1-5.9c-0.1-1.1-0.1-2.1,0.2-3.1c0.5-1.9,1.8-3.2,3.6-4.1c2.1-1,4.4-1.4,6.7-1.5
		C382.1,233.7,382.9,233.8,383.8,233.8z M383.8,239.8c0-0.5,0-1,0-1.5c0-0.4-0.2-0.6-0.6-0.6c-0.9,0.1-1.9,0.2-2.8,0.4
		c-0.6,0.1-1.3,0.4-1.8,0.7c-0.9,0.5-1.3,1.4-1.2,2.4s0.7,1.6,1.6,1.9c1.6,0.5,3.1,0.1,4.3-0.9c0.3-0.2,0.4-0.7,0.4-1
		C383.9,240.8,383.8,240.3,383.8,239.8z"/>
	<path class="st1" d="M264.3,235c0,2.3,0,4.5,0,6.8c0,0.3,0,0.5,0.1,0.8c0.1,0.7,0.5,1.1,1.1,1.2c0.4,0.1,0.5,0.3,0.4,0.7
		c-0.2,1.1-0.3,2.2-0.5,3.2c0,0.2-0.2,0.5-0.4,0.5c-1.4,0.2-2.7,0.2-4-0.2c-0.8-0.3-1.5-0.7-2-1.4c-0.3-0.3-0.4-0.3-0.8-0.1
		c-1.7,1.1-3.5,1.8-5.5,2c-4,0.3-7-2-7.8-6c-0.1-0.7-0.2-1.4-0.2-2.1c0-4.1,0-8.2,0-12.4c0-0.7,0.1-0.8,0.8-0.8c1.5,0,3,0,4.5,0
		c0.7,0,0.8,0.1,0.8,0.8c0,3.6,0,7.2,0,10.7c0,0.7,0.1,1.4,0.3,2.1c1,2.9,4.8,2.8,6.2,1.5c0.5-0.5,0.8-1,0.8-1.8c0-4.2,0-8.3,0-12.5
		c0-0.8,0.1-0.9,0.9-0.9c1.5,0,2.9,0,4.4,0c0.7,0,0.8,0.1,0.8,0.8C264.3,230.3,264.3,232.6,264.3,235z"/>
	<path class="st1" d="M314.4,234.9c0-4.2,0-8.4,0-12.7c0-0.8,0.1-0.9,0.9-0.9c1.5,0,3,0,4.5,0c0.6,0,0.8,0.2,0.8,0.8
		c0,8.5,0,17.1,0,25.6c0,0.5-0.1,0.6-0.7,0.6c-1.6,0-3.3,0-4.9,0c-0.6,0-0.7-0.1-0.7-0.7C314.4,243.4,314.4,239.1,314.4,234.9z"/>
</g>
<g id="logo_2_" transform="translate(1.000000, -208.000000)">
	<g id="logo_x2F_square_x2F_blue_1_" transform="translate(326.000000, 297.000000)">
		<g id="Group-2_1_" transform="translate(0.057180, 0.302981)">
			<path id="logo_3_" class="st2" d="M-229.5,17.1c1.7,0,2.8,0.9,2.8,2.2c0,0.8-0.6,1.6-1.6,1.6c-1.9,0-1.5-1.5-2.2-1.5
				c-2.1,0-3.8,4-5.4,7.5c-0.6,1.4-1.1,1.7-1.6,1.7c-1.4,0-1.7-3.6-2.2-5.1c-1.2,2.3-3.3,5.1-6.8,5.1c-2,0-4.1-1.1-4-4.3
				c0-3.6,2.4-6.1,4.8-6.1c1.8,0,3,1.9,3,3.2c0,3.5-4.7,3.6-4.7,4.3c0,0.6,1.3,0.9,1.9,0.9c3,0,5-3.9,5.8-6.6
				c0.1-0.4,0.5-1.5,1.4-1.5s0.5,5.9,1.9,5.9C-235.7,24.4-234.5,17.1-229.5,17.1z M-273.5,12.7c0.3,6.3-1.8,8.9-2.9,11.2
				c0.2,0.8,1.7,2.4,3.2,2.4c0.5,0,1.2-0.2,1.4-0.4c-0.1-0.3-0.2-0.8-0.2-1.5c0-3.7,2.4-6.7,4.5-6.7c1.7,0,2.6,2.2,2.6,3.6
				c0,1.7-1.5,3-3.6,4.3c0.4,0.3,1.1,0.6,1.7,0.6c3,0,4.7-3.6,5.9-6.8c0.2-0.6,0.6-1.5,1.4-1.5c1.3,0,1.8,8.3,3.9,8.3
				c0.9,0,1.7-1.8,1.7-3.3c0-1.1-0.4-1.2-0.3-2.6c0-1.7,0.9-3,2.2-3c0.7,0,1.1,0.7,1.1,1.6c0,3.4-2.5,9.6-6.2,9.6
				c-2.7,0-2.5-4.6-3.5-4.6c-1.1,0-2.6,4.6-7.9,4.6c-0.8,0-1.8-0.4-2.5-1.3c-1.3,0.8-2.4,1.2-3.6,1.2c-2,0-2.8-2-3.7-2
				c-0.9,0-2.1,2-5.3,2c-2.6,0-2.9-3.4-3.9-3.4c-0.8,0-2.1,3.4-3.4,3.4c-2.2,0-2.7-5.8-4.7-5.9c-1.6,0-6.5,5.9-7.9,5.7
				c-0.5-0.1-0.7-0.4-0.7-0.9c0.1-0.7,0.7-2.6,0.9-3.6c0.4-1.6,0.8-3.4,1.1-3.9c0.2-0.5,0.8-0.9,1.3-0.9c0.2,0,0.3,0.4,0.4,0.8
				c0.2,1.3,0.6,2.6,1.1,2.6c0.7,0,3.3-4.6,4.7-4.6c1.8,0,1.9,7.4,4.3,7.4c0.8,0,1.4-0.9,2-2.1c0.1-1.9,0.6-4.7,2.2-4.7
				c1.2,0,1.7,2.5,0.8,4.6c0,2.5,1.7,3.2,2.8,3.3c0.8,0,2.2-0.2,3.3-1.9c-0.6-1.4-1.1-4.1-1.1-5c-0.3-5,1.8-9.9,4-10
				C-275,8.9-273.7,10.3-273.5,12.7z M-305.6,11.9c0.4,1.7,0.5,3.9,0.3,7c-0.2,4.3-2.5,9.5-8,9.4c-4.7-0.1-6.8-3.2-6.9-7.7
				c-0.1-2.1,0.1-4.3,1.1-7.4c0.5-1.6,0.9-2.2,2.4-2.5c1.2-0.2,1.1,1.1,0.8,2.4c-0.6,3.2-0.8,4.6-0.7,8.2c0.2,3.8,2,5.3,3.9,5.3
				c2.9,0.1,4.2-2.3,4.7-5.7c0.4-2.7,0.1-4-0.1-4.8c-0.1-0.5-0.6-1.6-0.7-2.3c-0.2-1.8,0.7-2.9,1.6-3.2
				C-306.4,10.3-306,10.9-305.6,11.9z M-268.5,20.2c-0.5,0-1.6,0.5-1.6,2.2c0,1.3,0.4,1.9,0.6,2.2c1.6-0.4,2-1.7,2-2.7
				C-267.4,20.9-267.8,20.2-268.5,20.2z M-246.4,20.2c-2,0-1.9,3.3-1.6,4c1.5-0.2,2.5-1.2,2.7-1.9
				C-244.9,21.5-245.2,20.2-246.4,20.2z M-276.6,12.1c-1.1,0.1-1.6,3.4-1.4,6.8c0.1,2.2,0.4,2.6,0.7,2.6c0.6,0,2-4,1.9-7.3
				C-275.4,12.7-275.7,12-276.6,12.1z M-285.7,9.6c0.9,0,1.6,0.6,1.7,1.5c0.1,1.2-0.7,2.5-1.9,2.5c-1.1,0-1.6-0.7-1.6-1.6
				C-287.7,10.6-286.7,9.6-285.7,9.6z M-275-10.7c1.3,0.4,2.6,1.6,2.9,2.1c0.5-0.2,1.1-0.2,1.7-0.2c0.9,0,2,0.2,3.2,0.5
				c0.1-0.4,0.1-0.8,0.7-0.8c0.8,0,0.6,0.9,0.9,1.5c0.1,0.3,0.8,0.4,0.8,1.1c0,0.5-0.4,0.7-0.7,0.7c-0.1,0-0.2,0-0.3-0.1
				c-0.5,0.2-0.6,4.3-3,4.3c-1.8,0-3.4-1.5-4.1-3.4c-0.2-0.5-0.6-0.9-1.1-0.9s-0.7,0.1-1.3,0.7c-1.6,1.7-4.1,3.2-7.4,3.2
				c-0.9,0-1.8-0.1-2-0.1c-0.1,0-0.1,0-0.1,0.1c0,0.2,0.9,0.9,3,0.9c5,0,6.3-2.8,7-2.8c0.1,0,0.4,0,0.6,0.4c1.2,2.7,3.8,3.4,5.4,3.4
				c1.4,0,1.3-0.1,1.7-0.1s0.4,0.2,0.4,0.4c0,0.6-1.4,1.4-3.9,1.5c-1.5,0-2.3-0.7-2.6-1.7c-1.5,0.9-3.6,1.8-5.8,1.8
				c-5.9,0-7.4-2.5-9.2-3.4c-1.4-0.6-3.6,0.6-6.5-2.7c0.4,0.1,0.9,0.1,1.4,0.1c2.6,0,4-1.3,4-3.4c0-0.2,0-0.5-0.1-0.8
				c0.8,0.3,2.6,1.7,3,4.1c0.1,0.3,1.3,0.5,2,0.5c1.1,0,2.3-0.4,2.5-2.1C-277.8-6.1-275.5-8.2-275-10.7z M-254.3-8.4
				c0.6,0,1.6,0.6,1.6,2.1c0,2.7-4,6-9.4,6c-1.7,0-2.5-1.2-2.5-2.2c0-1.6,0.8-3,1.6-3.9c0.3-0.4,0.6-0.6,0.9-0.6
				c0.2,0,0.9,0.5,2.5,0.5C-256.8-6.5-255-7.8-254.3-8.4z M-256.1-5.9c-0.2,0-1.2,0.8-3.5,0.8l0,0h-0.4c0,0.2,0.1,0.4,0.1,0.6
				c0,0.6-0.2,1.4-0.4,2.1l0,0l3.2-0.9c1.1-0.6,1.4-1.5,1.4-2.1C-255.8-5.8-255.9-5.9-256.1-5.9z M-269.4-6.9
				c-0.6,0-1.2,0.5-1.2,1.2s0.5,1.2,1.2,1.2s1.2-0.5,1.2-1.2C-268.3-6.4-268.8-6.9-269.4-6.9z M-296.2-17.7c3.5,0,6.2,2.9,6.2,7.1
				c0,1.9-1.1,4.7-5.3,4.7c-5,0-8.1-4.2-8.1-6.9c0-2.3,1.6-3.8,2.5-4c-1.1,4.1,1.3,8.1,5.9,8.1c2.3,0,3.5-1.2,3.5-3.2
				c0-2.2-1.6-4.4-4.1-4.4c-1.3,0-2.2,0.7-2.2,1.7c0,1.7,1.5,2.7,2.9,2.7c0.9,0,1.6-0.4,1.6-1.1c0-0.1,0-0.2-0.1-0.3
				c-0.1,0.1-0.3,0.1-0.6,0.1c-1.2,0-2.1-0.6-2.1-1.4c0-0.5,0.4-0.8,0.9-0.8c1.8,0,2.9,1.7,2.9,2.9s-0.9,2.4-2.6,2.4
				c-3.5,0-4.9-2.7-4.9-4.6C-299.9-16.4-298.1-17.7-296.2-17.7z M-277.7-15.6c0.5,0,0.8,0.4,0.8,0.9c0.2-0.2,0.3-0.3,0.6-0.3
				c0.5,0,0.9,0.4,0.9,0.8c0,0.3-0.2,0.5-0.4,0.7c0.3,0.2,0.5,0.4,0.5,0.7c0,0.4-0.3,0.7-0.8,0.7c-0.4,0-0.6-0.5-1.2-0.5
				c-0.2,0-0.5,0.1-0.6,0.3c0.2,0.4,0.2,0.7,0.2,1.1c0,2.1-2.8,3.8-5.7,3.8c-2.9,0-4-1.7-4-2.4c0-0.2,0.1-0.2,0.3-0.2
				c0.5,0,0.6,0.2,1.9,0.2c3.2,0,2-4,4.9-4c0.4,0,1.3,0.3,1.6,0.8c0.2-0.3,0.3-0.5,0.3-0.7c0-0.4-0.3-0.8-0.3-1.3
				C-278.5-15.3-278.1-15.6-277.7-15.6z M-258.5-11.4c1.7,0,2.9,0.5,2.9,1.3l0,0v0.6c0,0.3-0.1,0.6-0.3,0.8
				c-0.7,0.6-1.9,0.9-3.2,0.9c-1.6,0-2.8-0.5-2.8-1.1l0,0v-1.3C-261.8-10.5-260.6-11.4-258.5-11.4z M-249.1-21.2
				c2.3,0,4.8,1.6,4.9,5c0,3.7-5.4,8.3-6.2,8.3c-0.6,0-1.4-0.9-1.4-1.6c0-0.2,0.1-0.4,0.6-0.6c2.7-1.1,4.3-3.6,4.3-4.8
				c0-0.3-0.1-0.5-0.5-0.5c-0.5,0-2.5,4.6-4.8,4.6c-1.6,0-3.3-1.5-3.3-2.1c0-1.2,4.6-3.2,4.6-4.7c0-0.6-0.3-0.6-0.5-0.6
				c-0.6,0-3.9,4.3-6.1,4.3c-0.5,0-0.9-0.9-0.9-1.7c0-0.4,0.2-0.6,1.2-0.8C-252.3-17.6-253.3-21.2-249.1-21.2z M-266.8-26.9
				c1.3,0,2.3,0.4,2.3,0.9c0,0.7-1.9,0.3-2,1.2c1.4,0.2,1.7,0.6,1.7,1.1c0,0.6-0.5,0.8-1.2,0.8c-0.4,0-0.8-0.1-1.4-0.1
				s-1.3,0.1-1.8,0.7c0.4,0.1,0.9,0.3,0.9,0.9c0,1.7-4.6,0.3-4.6,4.6c0,2.3,2.3,4.8,5.9,4.7c1.8,0,3-0.6,3-1.3
				c0-0.5-0.9-0.2-0.9-0.6c0-0.2,0.3-0.6,0.3-0.9c0-0.1-0.1-0.4-0.3-0.4c-0.5,0-1.5,0.8-3.5,0.8c-1.6,0-3-0.9-3-2.1
				c0-0.2,0.1-0.4,0.3-0.4c0.2,0,0.4,0.1,0.6,0.1s0.2-0.1,0.2-0.4s0-1.3,0.5-1.3s1.6,2,5.6,2c1.3,0,3.9-0.3,4.8-1.2
				c0,3.2-2.5,7.4-7.7,7.4c-5.4,0-8.2-4.3-8.2-8.3C-275.2-22.8-271.6-26.9-266.8-26.9z M-293.5-21.2c1.4,0,2.4,0.4,3.4,1.8
				c0.8,1.3,1.1,3.5,1.5,3.8c0.2,0.2,0.6,0.2,0.8,0.2c0.3,0,0.5,0,0.7,0c2,0,3.5,2.3,3.5,3.4c0,0.9-0.8,1.3-1.9,1.3
				c-1.3,0-2.6-0.7-3.4-1.5c-0.5-0.5-0.8-1.7-1.1-3.2s-1.4-2.7-3.7-3.3c-1.8-0.4-2.1-0.8-2.1-1.3C-295.6-20.7-294.5-21.2-293.5-21.2
				z M-287.1-14.3c-0.3,0-0.7,0.2-0.7,0.6c0,0.5,1.3,1.5,2.1,1.5c0.4,0,0.5-0.2,0.5-0.4C-285.1-13.4-286.3-14.3-287.1-14.3z
				 M-303.7-42.2c0.4,0,0.5,0.4,0.5,0.7c0,1.4-1.8,5.4-1.8,6.4c0,0.2,0.1,0.3,0.2,0.3c0.7,0,2.2-3,2.6-4.6c0.2-0.8,0.6-1.3,0.9-1.3
				s0.5,0.3,0.5,0.9c0,1.6-1.5,5.2-2.7,7.6c-0.9,1.9-2.5,4.6-2.5,6.1c0,0.7,0.1,1.6,1.3,2.5c-1.9-0.1-2.6-0.3-3.3-1.7
				c-3,6.1,5.7,5.5,2.7,10.9c-0.5-0.9-4.9-2-4.9-7.7c0-4.8,4.3-7.8,4.3-9.8c0-0.4-0.1-0.7-0.5-1.1c-0.9-0.8-0.9-1.5-1.8-1.5
				c-0.5,0-1.3,1.3-0.5,2.4c0.2,0.4,0.4,0.6,0.4,0.9c0,0.8-1.3,2.9-2.2,2.9c-0.9,0-1.6-2.2-1.6-5.8c0-3.2,0.7-6.3,1.6-6.3
				c0.2,0,0.3,0.2,0.3,0.4c0,0.4-0.1,1.2-0.1,2.4c0,1.4,0.3,1.5,0.6,1.5c0.9,0,0.7-6,2.4-6c0.4,0,0.5,0.4,0.5,0.8
				c0,1.4-0.6,3.4-0.6,4.4c0,0.5,0.1,0.7,0.4,0.7C-306.1-35.7-304.8-42.2-303.7-42.2z M-281.6-27.7c0.2,1.5,0.8,2.2,2.1,2.6
				c2.5,0.9,2.8,2.3,2.8,3.8c0,2.5-1.8,5.7-6.3,5.7c-3.7,0-6.3-3.3-6.3-6c0-0.7,0.2-1.6,0.6-1.6s0.5,0.3,0.9,0.6
				c1.3,1.3,2.6,1.6,4.6,1.6c1.8,0,3.2-0.7,3.2-1.5c0-1.3-2.6-1.3-2.6-3.2C-282.6-26-282.2-26.9-281.6-27.7z M-248.3-20
				c-0.4,0-0.8,0.3-0.8,1.1c0,0.8,0.6,1.4,1.1,1.6c0.2,0.1,0.5,0.2,0.8,0.2c0.8,0,1.5-0.2,1.5-0.9C-245.8-19-247-20-248.3-20z
				 M-278.7-21.2c-0.2,0-0.5,0.4-1.2,0.7c-0.9,0.4-1.4,0.3-1.4,1.4c0,0.3-0.1,0.8-0.1,1.1c0,0.3,0.1,0.5,0.4,0.5
				c1.1,0,2.6-1.7,2.6-3.2C-278.1-21-278.4-21.2-278.7-21.2z M-267.1-21.3c1.7,0,2.7,1.1,2.7,2.2c0,0.7-0.5,1.4-1.4,1.4
				c-0.7,0-1.3-0.6-1.3-1.3c0-0.5,0.2-0.9,0.2-1.4C-266.8-20.7-266.8-21-267.1-21.3z M-241.9-28.2c1.5,0,2.5,1.9,2.5,4
				c0,2.3-1.1,4.8-3,6.5c0-3.8-4.7-2.6-4.7-5.4c0-1.2,0.8-2,1.9-2c0.9,0,1.6,0.2,2.1,0.7c-0.5-0.5-0.7-1.2-0.7-1.8
				C-243.9-27.3-243.1-28.2-241.9-28.2z M-301.5-25.4c1.1-0.2,1.9,0.5,2.2,1.5c0.2-0.2,0.5-0.3,0.9-0.4c0.9-0.1,1.9,0.6,2,1.7
				s-0.6,1.9-1.7,2.1c-0.1,0-0.2,0-0.2,0c0.1,0.2,0.1,0.4,0.2,0.6c0.1,1.1-0.6,1.9-1.7,2.1c-1.1,0.1-1.8-0.4-2-1.4
				c-0.2,0.1-0.5,0.2-0.9,0.3c-1.1,0.1-1.9-0.6-2.1-1.7c-0.1-1.2,0.7-2,1.6-2.1c0.1,0,0.3,0,0.3,0c-0.1-0.2-0.1-0.4-0.1-0.6
				C-303.2-24.4-302.4-25.2-301.5-25.4z M-257.7-23.1c2.1,0.1,3.6,1.5,3.6,2.9c0,1.2-0.8,2.1-2,2.1c-1.1,0-1.8-0.7-1.8-1.8
				c0-0.8,0.5-1.6,0.5-2.4C-257.3-22.5-257.4-22.8-257.7-23.1z M-263.3-26.2c3,0.5,4.6,2.8,4.6,5c0,1.5-0.9,2.8-2.5,2.8
				c-1.5,0-2.5-1.1-2.5-2.6c0-1.3,0.9-2.5,0.9-3.8C-262.8-25.2-262.9-25.7-263.3-26.2z M-300.5-22.7L-300.5-22.7
				c-0.7,0.1-1.2,0.6-1.1,1.3c0.1,0.6,0.6,1.1,1.3,0.9s1.1-0.6,0.9-1.3C-299.5-22.3-300-22.8-300.5-22.7L-300.5-22.7z M-261.4-23.9
				c-0.2,0-0.1,0.3-0.2,0.7c0,0.3-0.2,0.6-0.2,0.8c0,0.4,0.3,0.7,0.7,0.7s0.7-0.4,0.7-0.8C-260.4-23.1-260.9-23.9-261.4-23.9z
				 M-255.8-36.3c0.4,0,1.1,1.4,1.4,1.4c0.4,0,1.1-1.2,1.6-1.2c0.1,0,0.2,0.1,0.2,0.3c0,1.1-0.5,2.3-0.5,3.4c0,0.7,0.2,1.6,0.9,1.6
				c0.6,0,1.2-0.9,1.2-1.9c0-1.2-0.2-2.1-0.2-2.5c0-0.2,0.1-0.3,0.2-0.3c0.4,0,0.8,1.3,1.3,1.3s1.3-0.9,1.6-0.9
				c0.1,0,0.1,0.1,0.1,0.1c0,0.4-0.6,1.4-0.6,1.8c0,0.3,1.7,0.4,1.7,0.6c0,0.4-1.8,0.4-2.6,0.8c-0.8,0.3-1.3,0.7-1.3,1.4
				c0,0.5,0.6,0.7,1.4,0.7c1.9,0,3.3-1.1,3.7-1.1c0.1,0,0.1,0.1,0.1,0.1c0,0.3-0.9,1.3-0.9,1.7c0,0.5,1.8,1.1,1.8,1.4
				c0,0.1-0.1,0.1-0.3,0.1c-0.3,0-0.8-0.1-1.2-0.1c-0.2,0-0.4,0-0.5,0.1c-0.2,0.2,0.1,1.8-0.3,1.8c-0.4,0-1.4-3.4-3.6-3.4
				c-0.3,0-0.5,0.2-0.5,0.7c0,1.2,1.2,2.5,2.2,3.2c0.5,0.3,1.3,0.6,1.3,0.8c0,0.3-1.9,0-1.9,0.6c0,0.5,0.2,1.3,0.2,1.8
				c0,0.1,0,0.3-0.2,0.3c-0.3,0-1.2-1.6-1.6-1.6c-0.3,0-1.1,0.9-1.4,0.9c-0.1,0-0.1-0.1-0.1-0.2c0-0.6,1.1-2.2,1.1-3.7
				c0-0.7-0.1-2.2-0.9-2.2c-0.7,0-1.5,1.1-1.8,2.2c-0.2,0.6-0.1,3-0.5,3s-0.3-1.7-0.9-1.7c-0.4,0-1.4,0.7-1.7,0.7
				c-0.1,0-0.1,0-0.1-0.1c0-0.3,0.8-1.5,0.8-1.7c0-0.4-1.9-0.5-1.9-0.8c0-0.2,0.7-0.3,1.5-0.4c1.5-0.2,3.7-1.4,3.7-2.8
				c0-1.7-1.6-2.4-2.7-3c-0.5-0.3-1.2-0.6-1.2-0.8s0.7-0.2,0.9-0.2c0.4,0,0.8,0,0.8-0.4c0-0.2-0.1-0.7-0.1-1.2
				C-255.9-36.1-255.9-36.3-255.8-36.3z M-285-40.9c1.5,0.8,2.6,2.2,2.6,3.3c0,1.9-2,2.8-2,4c0,1.4,2.2,1.6,2.2,3.4
				c0,1.4-2.1,3-2.1,4.9c0,1.5,1.1,2.6,2.5,2.7c-0.5,0.1-0.9,0.2-1.5,0.2c-2.8,0-5.8-2.3-5.8-5c0-1.4,0.6-2.5,1.5-3.5
				c0.8,0.6,1.6,1.2,2.1,1.2c0.4,0,0.6-0.2,0.6-0.5c0-1.1-4.2-2-4.2-4.2c0-1.8,4.3-2.7,4.3-4.9C-284.6-39.7-284.7-40.4-285-40.9z
				 M-295.8-40.9c-0.6,1.1-0.7,2.4-0.7,3.2c0,4.8,5.9,9.4,5.9,12.4c0,1.3-0.8,2.6-2.5,2.6c-1.5,0-2.2-1.2-2.2-2.1
				c0-0.7,0.5-1.4,0.6-1.4s0.1,0.1,0.1,0.2c0,0.4,0.3,0.9,0.9,0.9s0.9-0.4,0.9-0.9c0-2.4-4.8-6.5-4.8-12.2c-0.2,0.6-0.5,1.5-0.5,2.6
				c0,2.7,2,5.6,2,8.2c0,1.1-0.8,2-1.9,2c-1.2,0-1.6-0.9-1.6-1.6c0-0.4,0.2-0.7,0.3-0.7c0.1,0,0.1,0.6,0.7,0.6s0.9-0.5,0.9-1.4
				c0-2.4-1.4-4.1-1.4-6.5c0-0.4,0-0.7,0.1-1.2c-0.7,0.8-0.8,2.1-0.8,3.3l0,0v2.9c0,2-0.9,2.8-2.2,2.8c-0.7,0-1.6-0.6-1.6-1.7
				c0-0.1,0.1-0.6,0.2-0.6c0.2,0,0.4,0.6,1.1,0.6c1.3,0,1.4-1.3,1.4-3.7C-300.7-35.2-299.6-38.4-295.8-40.9z M-267-40.9
				c0.3,2.4,3.6,1.2,3.6,4.2c0,0.4-0.1,1.1-0.1,1.6c0,0.6,0.1,1.2,0.5,1.2c0.5,0,0.6-0.3,0.6-0.8c0-0.4-0.1-1.1-0.1-1.4
				c0-1.1,0.7-1.3,1.2-1.3c1.1,0,1.9,1.2,3.6,1.2c-0.4,1.9-4.2,1.4-4.2,3.4c0,1.1,1.1,1.3,1.7,1.3s0.8-0.1,0.8-0.6
				c0-0.3-0.1-0.6-0.1-0.8c0-0.1,0.1-0.2,0.2-0.2c0.6,0,3.8,2.3,3.8,3c0,0.6-3.3,1.4-4.2,1.4c-0.3,0-0.3-0.2-0.3-0.3
				c0-0.2,0.5-0.8,0.5-1.2c0-0.2-0.4-0.4-1.6-0.4c-0.5,0-0.9,0.1-0.9,0.5c0,0.7,1.3,1.7,1.3,2.4c0,0.5-0.3,0.9-1.3,0.9
				c-0.7,0-2-0.6-2-1.6c0-0.8,0.8-1.6,0.8-2.1c0-0.1-0.1-0.4-0.4-0.4c-1.1,0-1.4,2.8-5.1,3.2c0.6-0.5,1.2-1.2,1.2-2.4
				c0-0.6-0.1-1.1-0.1-1.8c0-0.8,0.4-1.3,0.9-1.3c1.1,0,1.6,1.5,2.3,1.5c0.4,0,0.7-0.3,0.7-0.8c0-2.2-4.2-1.9-4.2-4.9
				C-268.1-38.3-267.8-39.4-267-40.9z M-255.4-52.1c0.1,0,0.7,0.7,2.6,0.7c0.9,0,1.9-0.2,3.4-0.2c3.4,0,4.9,2.4,7,5.5
				c1.3,0.8,4.3,2.1,4.3,5.8c0,3.3-3.4,5-4.2,8.4c1.3-0.1,2.1-2.5,3.4-2.5c0.6,0,0.9,0.5,0.9,1.4c0,1.3-0.7,3.2-2.1,4.3
				c0-0.1,0-0.2,0-0.4c0-0.8-0.3-2-1.3-2c-1.4,0-1.9,1.6-2.6,2.8c-0.8-2.9-1.9-5.6-3.9-7.1c-2-1.7-5.5-0.7-5.5-3.8
				c0-0.8,0.5-2,0.5-2.8c0-0.3-0.1-0.6-0.2-0.8c2.7,1.1,1.8,2.8,3.5,4.7c1.1,1.2,3.9,2.3,5.6,7.4c0-0.1,0.1-0.5,0.1-0.7
				c0-4.2-5.6-8.4-6-10.2c3.3,0.4,3.8,1.2,5.4,5.5c0.3,0.8,1.4,3.2,1.4,4.2c0.4-1.5,1.1-2.4,2-4c-0.9-0.5-3.4-1.5-3.4-3.3
				c0-2,2.4-3.6,2.9-3.6c0.2,0,0.3,0.2,0.3,0.5c0,1.1-0.5,2.7-0.5,3.6c0,0.8,0.5,1.6,0.9,1.6c0.5,0,1.8-1.7,1.8-3.5c0-3-2.6-4-3.5-4
				c-0.7,0-2.1,1.3-5.5,1.3c-6.1,0-7.5-6.1-7.5-8.8C-255.5-52-255.5-52.1-255.4-52.1z M-290.3-48.5c0.7,0,2,1.2,2.3,2.4
				c-0.1,0-0.3-0.1-0.4-0.1c-0.9,0-1.5,0.9-2.2,2.4c1.7-1.1,3.3-2,4.9-2c1.5,0,2.6,0.9,2.6,2.3c0,0.6-0.3,1.3-0.6,1.8
				c-0.2-1.3-1.3-1.8-3.2-1.8c-1.1,0-2.3,0.2-3.4,0.5c3.3,0.4,3.8,1.6,3.8,2.6c0,1.8-1.8,2.6-3,3.3c0.1-0.5,0.2-1.1,0.2-1.6
				c0-1.1-0.4-2.3-2-3.5c-0.2,1.2-1.2,1.9-1.2,2.7c0,0.3,0.2,0.4,0.4,0.4c0,0.5-0.2,1.9-0.2,2.3c0,0.7,0.2,0.9,0.5,0.9
				c0.2,0.6,0.2,1.7,0.4,2.3c0.1,0.3,0.3,0.4,0.5,0.4c0.2,0.5,0.5,1.4,1.1,1.8c0.1,0.1,0.2,0.3,0.2,0.4c0,0.5-0.7,1.1-1.3,1.1
				c-0.1,0-0.4-0.1-0.6-0.6c-0.2-0.4-1.6-1.3-1.7-1.8c0.1-0.1,0.1-0.2,0.1-0.4c0-0.7-1.3-1.7-1.3-2.9c0.1-0.1,0.3-0.3,0.3-0.5
				c0-0.7-0.7-2.1-0.7-3c0.3,0,0.5,0,0.5-0.5c0.1-0.9,0.2-2.3,1.2-3c-0.2,0-0.4-0.1-0.8-0.1c-1.7,0-4.4,0.9-5.4,3.2
				c-0.1-0.3-0.1-0.6-0.1-0.9c0-1.8,1.2-3,2-3.4c0.4-0.2,0.9-0.2,1.5-0.2c0.9,0,2,0.2,3.2,0.4c-0.9-1.3-2.5-2.2-3.7-2.2
				c-0.5,0-1.1,0.2-1.2,0.6c-0.1-0.2-0.1-0.6-0.1-0.9c0-1.4,0.4-2.2,1.7-2.2c1.8,0,3.3,2.1,4.2,4l0,0v-0.2
				C-291.6-47.2-291.5-48.5-290.3-48.5L-290.3-48.5z M-256.1-39.5c0.6,0,1.2,0.4,1.2,1.1c0,0.6-0.5,1.1-1.2,1.1
				c-0.5,0-1.1-0.4-1.1-1.1C-257.1-39-256.6-39.5-256.1-39.5z M-259.6-41.4c1.1,0,2,0.8,2,1.9c0,1.1-0.8,1.9-2,1.9
				c-1.1,0-2-0.8-2-1.9C-261.6-40.5-260.8-41.4-259.6-41.4z M-263.2-42.3c0.6,0,1.2,0.5,1.2,1.1s-0.5,1.1-1.2,1.1s-1.2-0.5-1.2-1.1
				C-264.4-41.8-263.9-42.3-263.2-42.3z M-256.2-43.2c0.7,0,1.4,0.5,1.4,1.3s-0.6,1.3-1.4,1.3c-0.7,0-1.4-0.6-1.4-1.3
				C-257.5-42.5-256.9-43.2-256.2-43.2z M-312.5-44c0.8,1.3,1.7,1.7,2.8,1.7c0.8,0,1.7-0.2,2.8-0.4c-1.5,1.3-2.8,1.9-3.8,1.9
				C-311.8-40.9-312.5-41.9-312.5-44z M-266.6-44.6c0.8,0,1.7,0.7,1.7,1.6s-0.7,1.6-1.7,1.6c-0.8,0-1.7-0.7-1.7-1.6
				C-268.2-43.9-267.4-44.6-266.6-44.6z M-259.4-44.5c0.6,0,1.2,0.5,1.2,1.1s-0.5,1.2-1.2,1.2s-1.2-0.5-1.2-1.1
				C-260.6-44-260.1-44.5-259.4-44.5z M-304.2-47c-0.1,0.3-0.2,0.7-0.2,1.3c0,0.8,0.3,1.7,1.2,2.4c-0.2,0.2-0.6,0.3-1.2,0.3
				c-1.1,0-1.9-0.6-1.9-1.7C-306.3-46-304.8-46.8-304.2-47z M-262.8-46.4c0.9,0,1.8,0.7,1.8,1.7c0,0.9-0.7,1.7-1.8,1.7
				c-0.9,0-1.8-0.7-1.8-1.7C-264.6-45.7-263.9-46.4-262.8-46.4z M-301.7-49.4c1.5,0.4,3.3,1.8,3.3,3.7c0,1.3-0.6,2.4-2.1,2.4
				s-2.5-1.3-2.5-2.8C-303.1-47.4-302.4-48.6-301.7-49.4z M-311.5-46.5c0.7,0.9,1.9,1.3,3,1.3c0.3,0,0.7,0,1.1-0.1
				c-0.7,0.9-1.7,1.4-2.4,1.4c-0.9,0-1.7-0.7-1.7-2.1C-311.5-46.3-311.5-46.4-311.5-46.5z M-256.4-46.5c0.6,0,1.2,0.5,1.2,1.2
				c0,0.6-0.5,1.2-1.2,1.2c-0.7,0-1.2-0.5-1.2-1.2C-257.7-46-257-46.5-256.4-46.5z M-248.9-50c-0.1,0-0.2,0.1-0.2,0.4
				c0,0.3,0.1,0.5,0.1,0.8c0,0.4-0.1,0.6-0.4,0.6c-0.7,0-1.5-1.8-2.1-1.8c-0.1,0-0.3,0.1-0.3,0.2c0,0.3,0.5,0.9,0.5,1.3
				c0,0.7-1.9,0.3-1.9,0.8c0,0.2,0.2,0.3,0.6,0.3c0.6,0,1.6-0.2,2-0.2c0.3,0,0.7,0.1,0.7,0.4c0,0.4-1.1,0.9-1.1,1.3
				c0,0.2,0.2,0.2,0.3,0.2c0.7,0,2.1-1.4,3-1.4c0.2,0,0.6,0.1,0.6,0.3c0,0.4-0.9,1.1-0.9,1.6c0,0.1,0.1,0.3,0.2,0.3
				c0.5,0,1.2-1.4,2.1-1.4c0.4,0,0.9,0.1,1.2,0.1c0.2,0,0.3-0.1,0.3-0.2c0-0.6-1.5-0.6-1.7-2.3c0-0.2-0.1-0.7-0.4-0.7
				c-0.5,0-0.1,1.6-0.6,1.6C-248.1-47.5-248.5-50-248.9-50z M-266.1-48c0.6,0,1.2,0.5,1.2,1.1s-0.5,1.1-1.2,1.2
				c-0.6,0-1.2-0.5-1.2-1.1C-267.2-47.5-266.7-48-266.1-48z M-259.5-49.4c1.1,0,1.8,0.8,1.8,1.8c0,0.9-0.8,1.8-1.8,1.8
				c-1.1,0-1.8-0.8-1.8-1.8C-261.4-48.6-260.6-49.4-259.5-49.4z M-305.6-53.9c0.2,0,0.5,0,0.6,0c0.5,0.1,0.9,0.1,1.1,0.2
				c0.2,0.2,0.1,0.6,0.5,1.2c0.4,0.5,0.8,0.4,0.8,0.9c0,0.4-0.8,2.9-2.9,4c-1.1,0.5-1.8,0.6-2.5,0.6c-1.2,0-2-0.5-2.6-0.5
				c-0.1,0-0.3,0.1-0.5,0.1c-0.3,0-0.5-0.3-0.5-0.5c0-0.1,0-0.2,0.1-0.3c0.4-0.6,0-3.3,2.6-4.8C-307.7-53.8-306.5-53.9-305.6-53.9z
				 M-239.4-56.2c0.7,0.3,0.7,1.5,0.7,2.9c0,2.6-0.3,6-0.9,6c-1.1,0.1-4.9-3.5-5.3-6C-243.9-53.1-240.6-53.6-239.4-56.2z
				 M-263.3-49.5c0.6,0,1.1,0.4,1.1,1.1s-0.5,1.1-1.1,1.1s-1.1-0.4-1.1-1.1C-264.5-49-264-49.5-263.3-49.5z M-291.9-59
				c2.2,0,3.4,2,3.4,4.2c0,0.3,0,0.6-0.1,0.9c0.9-1.6,2.2-2.8,3.7-2.8c1.8,0,2.6,1.6,2.6,3.5c0,0.8-0.2,2-0.6,2
				c-0.3,0-0.3-0.6-0.3-1.3c-0.1-0.7-0.2-0.9-0.4-0.9c-0.4,0-0.7,1.2-0.7,2.2c0,0.6,0.1,1.4,0.6,1.4c0.3,0,0.5-0.1,0.7-0.3
				c-0.1,1.3-1.1,2.4-2.4,2.4c-2.4,0-3.4-2.9-3.7-4.6c-1.5,1.6-2.8,2.7-5.3,2.7c-2.3,0-3.3-1.7-3.3-3.3c0-0.5,0.2-1.7,0.7-1.7
				c0.7,0,0.1,2.3,1.5,2.3c0.3,0,0.9-0.3,1.3-1.3c0.2-0.5,0.3-1.2,0.3-1.7c0-0.7-0.2-1.3-0.7-1.3s-1.1,0.3-1.3,0.5
				C-295.3-58-293.7-59-291.9-59z M-308.6-51.8c-0.3,0-0.7,0.7-0.7,1.3c0,1.1,1.1,2.2,2,2.2c0.5,0,1.1-0.3,1.1-0.5
				c0-0.1-0.1-0.1-0.1-0.1c-0.8-0.4-1.9-1.2-2-2.6C-308.4-51.7-308.5-51.8-308.6-51.8z M-285.1-54.9c-0.6,0-1.6,2.8-1.6,4.3
				c0,0.6,0.1,0.8,0.3,0.8c0.7,0,1.5-2.7,1.5-4.4C-284.9-54.5-285-54.9-285.1-54.9z M-260.3-56.7c0.3,0.4,0.5,1.4,0.5,1.8
				c0,3.2-2.2,4.3-4.2,4.3c-1.4,0-2-0.4-2.1-0.4c-0.5,0-0.5,1.1-0.8,1.1c-0.6-0.1-1.3-1.6-1.3-3.2c0-0.9,0.2-1.9,0.7-2.6
				c0.7,0.7,1.4,1.1,2.1,1.1c0.3,0,0.6-0.1,0.8-0.1c0.2,0,0.4,0.1,0.4,0.3c0,0.3-0.3,0.8-0.6,1.2c0.3,0.1,0.7,0.2,1.1,0.2
				C-262.1-53.2-260.3-54.2-260.3-56.7z M-258.2-52.1c0.6,0,1.1,0.4,1.1,1.1c0,0.5-0.5,1.1-1.1,1.1s-1.1-0.4-1.1-1.1
				C-259.2-51.6-258.8-52.1-258.2-52.1z M-305.7-52.9c-0.4,0-0.7,0.1-0.7,0.6c0,0.8,0.8,2.3,1.9,2.3c0.5,0,0.7-0.5,0.7-0.9
				c0-0.2-0.5-0.5-0.7-0.8c-0.3-0.4-0.3-0.9-0.6-1.2C-305.4-52.9-305.5-52.9-305.7-52.9z M-300.4-53.4c0.6,0,1.2,0.5,1.2,1.2
				s-0.5,1.2-1.2,1.2s-1.2-0.5-1.2-1.2C-301.6-52.8-301.1-53.4-300.4-53.4z M-291.4-57.8c-0.8,0-2.1,4.9-2.1,6.1
				c0,0.2,0.1,0.4,0.3,0.4c0.9,0,2-5.2,2-6.1C-291.2-57.6-291.2-57.8-291.4-57.8z M-287.3-54c-0.3,0-0.6,0.3-1.1,1.2
				c0.1,1.1,0.2,1.5,0.5,1.5s0.7-0.9,0.7-2C-287.1-53.9-287.2-54-287.3-54z M-289.9-55.7c-0.8,0-1.3,2.3-1.3,2.8
				c0,0.3,0.2,0.6,0.3,0.6c0.3,0,0.7-0.3,1.4-1.2c0.1-0.3,0.1-0.7,0.1-1.2C-289.4-55.2-289.6-55.7-289.9-55.7z M-253.6-60.5
				c0.9,0,0.7,1.2,1.6,1.2c0.7,0,1.6-0.6,2.1-0.6c0.8,0,2,2.7,2,4c0,1.5-2.1,2.4-4.6,2.4c-3.7,0-5.9-3.4-5.9-5.6
				c0-0.2,0.1-0.2,0.2-0.3c0.3-0.2,1.9,0.1,3.9-0.9C-254-60.4-253.8-60.5-253.6-60.5z M-302-55.9c0.6,0,1.2,0.5,1.2,1.2
				s-0.5,1.2-1.2,1.2s-1.2-0.5-1.2-1.2S-302.6-55.9-302-55.9z M-310.7-58.6c0,0.2,0,0.3,0,0.5c0,1.6,0.9,2.8,2.6,3.4
				c0,0-0.8,0.6-1.9,0.6c-1.3,0-2.3-0.9-2.3-2.2C-312.3-57.3-311.9-58.1-310.7-58.6z M-240.8-60.5c1.1,0.1,1.6,0.9,1.6,1.8
				c0,2-2.5,4.3-5.4,4.3c-1.1,0-1.8-0.3-1.8-1.1c0-0.3,0.3-0.9,1.2-0.9c2.4,0,4.7-1.7,4.7-3.2C-240.6-60.1-240.6-60.2-240.8-60.5z
				 M-264.3-60.5c1.8,0,2.4,0.9,2.7,0.9s0.5-0.3,0.7-0.3c0.3,0,0.3,0.5,0.3,0.8c0,1.2-0.5,3.2-1.7,3.9c-0.2-0.5-0.6-1.1-1.4-1.4
				c-0.2-0.1-0.3-0.2-0.3-0.4c0-0.3,0.3-0.7,0.6-0.8c-0.2-0.4-1.1-0.5-1.5-0.5c-1.3,0-2,0.8-2.2,1.7c-0.1-0.3-0.2-0.6-0.2-0.9
				C-267.1-58.9-266.4-60.5-264.3-60.5z M-307.3-60.5c2,0,2.6,2.1,2.6,3.5c0,0.6-0.1,1.2-0.3,1.7c-2,0-4.4-0.9-4.4-3.2
				C-309.3-59.6-308.4-60.5-307.3-60.5z M-309-74.5c1.5,0,5.1,0.3,5.1,1.2c0,0.9-3,1.9-3,2.8c0,1.1,4.3,0.4,4.3,1.4
				c0,0.9-3.2,3.2-3.2,3.8c0,0.1,0.1,0.2,0.2,0.2c0.7,0,2.7-1.5,3.6-1.5c0.3,0,0.4,0.2,0.4,0.6c0,0.8-0.5,2.1-0.5,2.9
				c0,0.2,0.1,0.4,0.3,0.4c0.6,0,1.7-2.7,2.5-2.7s0.1,4.1,0.9,4.1c0.7,0,0.8-3.7,1.6-3.7s1.1,2.1,1.8,2.1c0.3,0,0.3-0.4,0.3-1.1l0,0
				v-0.9c0-0.6,0-1.1,0.3-1.1c0.8,0,3.4,2.8,3.9,2.8c0.1,0,0.1-0.1,0.1-0.2c0-0.7-1.7-3.4-1.7-4.7c0-0.4,0.2-0.7,0.6-0.7
				c1.1,0,3.2,1.2,4.1,1.2c0.3,0,0.5-0.1,0.5-0.4c0-1.2-3.6-3.6-3.6-4.5s3.9-1.9,6.6-1.9c0.3,0,1.1,0,1.1,0.4c0,0.7-3.4,1.4-4.1,2.2
				c-0.1,0.1-0.2,0.2-0.2,0.3c0,1.4,4.7,4.4,4.7,6.2c0,0.4-0.3,0.6-0.8,0.6c-1.6,0-4.8-1.6-6-1.6c-0.3,0-0.4,0.1-0.4,0.4
				c0,1.1,2.1,4.5,2.1,6c0,0.4-0.1,0.7-0.5,0.7c-1.3,0-4.2-3.5-5.3-3.5c-0.9,0-0.5,2.8-1.4,2.8c-0.7,0-1.3-1.7-2.1-1.7
				c-0.7,0-1.3,5.7-2.4,5.7c-1.4,0-0.8-5.3-1.8-5.3c-0.7,0-1.7,1.8-2.7,1.8c-0.6,0-0.7-0.4-0.7-1.2s0.2-2,0.2-2.7
				c0-0.4,0-0.8-0.4-0.8c-1.1,0-4.9,2.8-6.5,2.8c-0.3,0-0.5-0.1-0.5-0.4c0-1.4,4.9-5.6,4.9-6.6c0-0.8-5.7-0.1-5.7-0.9
				c0-0.9,4-2.6,4-3.3c0-0.6-3.9-0.8-3.9-1.6C-311.7-74.3-310.7-74.5-309-74.5z M-255.3-57.8c-0.1,0-0.2,0.1-0.2,0.1
				c0,0.7,1.4,1.9,3.4,1.9c1.3,0,2.1-0.6,2.1-0.9c0-0.1-0.2-0.2-0.5-0.2s-1.1,0-2.4-0.2C-254.2-57.3-255-57.8-255.3-57.8z
				 M-242.5-60.4c0.6,0,0.7,0.4,0.7,0.7c0,1.3-2.4,2.2-3.5,2.2c-0.4,0-0.9,0-1.3-0.6c-0.2-0.5-0.2-1.3-0.6-1.7
				c0.4,0.1,0.9,0.1,1.4,0.1C-244.5-59.6-243.4-60.4-242.5-60.4z M-286.9-64.2c0.8,0,4.5,2.8,5,3.6c0.1,0.2,0.2,0.4,0.2,0.6
				c0,0.8-0.4,1.9-1.1,1.9s-4.3-4.8-4.3-5.9C-287-64.2-287-64.2-286.9-64.2z M-241.3-73.8c0.9,0,1.2,0.4,2.5,0.4
				c-0.7,0.4-1.1,1.3-1.1,1.7c0,1.2,0.7,2,0.7,4.4c0,4.5-4.1,6.1-9.1,6.1c-1.4,0-2.8-0.1-4.3-0.3c-0.2,0-0.3-0.1-0.3-0.2
				c0-0.4,2-0.5,2-2.4c0-0.7-0.2-1.4-0.2-1.7c0-0.1,0.1-0.2,0.2-0.2c0.4,0,1.3,1.7,2.8,1.7c0.4,0,1.5-0.1,1.5-1.5
				c0-2-4.7-2.5-4.7-2.9s2.6-0.9,4-1.1c-2.1-2.7-5-2.4-5-2.9c0-0.3,2.2-0.8,4.3-0.8c1.7,0,3.4,0.4,3.4,1.7c0,0.7-0.6,1.5-0.6,2.6
				c0,0.6,0.3,1.2,1.2,1.2s1.1-0.9,1.1-1.9c0-0.8-0.1-1.5-0.1-1.9C-243.1-73-242.4-73.8-241.3-73.8z M-264.1-74.5
				c0.3,0,1.1,1.2,1.5,1.1c0.7,0,2.2-0.9,4.1-0.9c4.1,0,7,2.4,7,6.5c0,4.2-3.3,6.6-6.8,6.6c-2.4,0-4-1.5-4.5-1.5
				c-0.4,0-0.9,1.3-1.3,1.3c-0.1,0-0.2,0-0.2-0.3c-0.1-0.6-0.2-1.8-0.6-1.8s-2.1,1.8-2.6,1.8c-0.1,0-0.1,0-0.1-0.1
				c0-0.5,1.5-2.5,1.5-3.2c0-0.6-2-0.2-2-0.7c0-0.6,2-1.3,2-2c0-0.8-1.9-0.9-1.9-1.5c0-0.3,1.8-0.8,1.8-1.4c0-0.5-1.8-2.5-1.8-3.2
				s2.7,1.3,3.4,1.3c0.3,0,0.3-0.7,0.3-1.2v-0.1C-264.4-74.2-264.3-74.5-264.1-74.5z M-258.5-73c-1.8,0-2.9,0.7-2.9,1.4
				c0,0.4,0.3,0.4,0.6,0.4c0.6,0,2-0.5,2.2-0.5s0.3,0.1,0.3,0.2c0,0.3-0.6,0.9-0.6,1.4s3.2,0.1,3.2,0.7c0,0.5-2.3,1.1-2.3,1.4
				s1.9,1.6,1.9,2.2c0,0.1-0.1,0.2-0.2,0.2c-0.6,0-1.8-0.3-2.5-0.3c-0.2,0-0.2,0.1-0.2,0.2c0,0.4,0.5,1.3,0.5,1.8
				c0,0.2-0.1,0.2-0.2,0.2c-0.4,0-1.9-0.9-2.5-0.9c-0.2,0-0.4,0.2-0.4,0.4c0,0.5,1.4,1.5,3.4,1.5c1.6,0,4.5-1.1,4.5-5
				C-254-71-255.7-73-258.5-73z M-241.8-68.7c0,2.5-1.8,4.4-5,4.9c0.3,0,0.7,0,1.1,0c3.8,0,5.3-1.8,5.3-3.3
				C-240.6-67.7-241-68.4-241.8-68.7z M-309.2-67.3c0.4,0,0.8,0.1,0.8,0.3c0,0.5-2.2,2.5-2.9,2.5c-0.3,0-0.4-0.3-0.4-0.6
				c0-0.5,0.2-1.4,0.6-1.7C-310.7-67.1-309.9-67.3-309.2-67.3z M-263-70.9c-0.3,0-0.3,1.6-0.7,1.6s-0.9-0.1-1.3-0.1
				c-0.1,0-0.1,0-0.1,0.1c0,0.3,1.2,0.9,1.2,1.3c0,0.2-1.2,0.9-1.2,1.3c0,0.1,0.1,0.1,0.2,0.1c0.2,0,0.8,0,1.3,0
				c0.1,0,0.2,0.1,0.2,0.2l0,0l0.1,1.2c0,0.1,0.1,0.2,0.1,0.2c0.2,0,0.7-1.2,1.1-1.2c0.2,0,1.2,0.4,1.4,0.4c0.1,0,0.1,0,0.1-0.1
				c0-0.2-0.6-1.1-0.6-1.3s1.7-0.2,1.7-0.5c0-0.2-1.6-0.5-1.6-0.8c0-0.2,0.7-0.9,0.7-1.2c0-0.1-0.1-0.1-0.1-0.1
				c-0.3,0-0.9,0.4-1.4,0.4C-262.5-69.4-262.8-70.9-263-70.9z M-299.8-74.3c1.9,0,1.6,1.6,3,1.6s1.2-1.6,3-1.6
				c1.2,0,2.1,0.2,2.1,0.3c0,0.4-1.4,0.4-1.4,1.3c0,0.8,2.6,1.6,2.6,2.3c0,0.2-0.2,0.2-0.3,0.2c-0.5,0-1.4-0.4-2.1-0.4
				c-0.4,0-0.8,0.2-0.8,0.7c0,0.8,0.8,2,0.8,2.6c0,0.2-0.1,0.3-0.3,0.3c-0.7,0-1.5-2.2-2.4-2.2c-1.3,0-0.8,3.2-1.8,3.2
				c-0.8,0,0.2-3.3-1.4-3.3c-0.9,0-1.9,1.5-2.5,1.5c-0.1,0-0.3-0.1-0.3-0.2c0-0.5,1.6-1.9,1.6-2.6c0-0.4-0.4-0.4-0.7-0.4
				c-0.7,0-1.8,0.3-2.4,0.3c-0.3,0-0.5-0.1-0.5-0.3c0-0.6,2.9-0.8,2.9-1.9c0-0.9-1.4-0.8-1.4-1.2C-302.1-74.1-301-74.3-299.8-74.3z
				 M-282.7-71.7c0.7,0,1.2,0,1.2,0.8c0,0.7-0.1,1.4-0.6,1.4c-0.8,0-2.6-1.2-2.6-1.6C-284.9-71.3-283.6-71.7-282.7-71.7z
				 M-241.3-72.8c-0.4,0-0.7,0.3-0.7,0.7c0,0.4,0.3,0.7,0.7,0.7s0.7-0.3,0.7-0.7C-240.5-72.5-240.8-72.8-241.3-72.8z"/>
		</g>
	</g>
</g>
<g>
	<path class="st3" d="M26.9,206.9c-0.2-0.2-0.3-0.4-0.5-0.6c-1.8-1.8-3.5-3.7-5.3-5.5c-0.1-0.1-0.2-0.2-0.3-0.3
		c-0.2-0.2-0.2-0.3-0.1-0.5c0.2-0.4,0.4-0.7,0.6-1.2c1.8,2.8,4,5.1,6.5,7.2c0.2-0.2,0.3-0.3,0.4-0.4c2.9-2.9,6-5.6,9.5-7.9
		c1.1-0.8,2-1.7,2.6-2.9c0.6-1.1,1.2-2.2,1.8-3.2c0.4-0.7,1-1.4,1.7-1.9c1.3-1,2.8-1.3,4.5-0.9c0.8,0.2,1.4,0.6,1.9,1.2
		c0.3,0.3,0.7,0.5,1.1,0.7c0.9,0.3,1.8,0.6,2.7,0.9c0.1,0,0.3,0.1,0.5,0.2c-0.8,0.5-1.6,0.9-2.4,1.4c0.8,0.4,1.6,0.7,2.4,1
		c-0.2,0.1-0.3,0.2-0.5,0.2c-1.5,0.6-2.9,1.2-4.2,2.1c-0.8,0.5-1.5,1.1-2.1,1.8s-1.1,1.4-1.5,2.2c-0.1,0.2-0.1,0.3-0.2,0.5
		c0.1,0.1,0.3,0.1,0.4,0.2c0.6,0.2,1.2,0.6,1.7,1c0.2,0.2,0.5,0.3,0.7,0.4c0.9,0.4,1.9,0.7,2.9,1.1c-0.4,0.4-0.8,0.5-1.2,0.7
		s-0.8,0.4-1.2,0.7c0.8,0.4,1.5,0.8,2.2,1.3c-2.6,0.8-4.8,1.9-6.7,3.9c0.2,0,0.3,0,0.5,0c2,0,4-0.1,6-0.1c2.3,0,4.6,0,6.9,0.1
		c1.6,0.1,3.3,0.2,4.9,0.3c1.1,0.1,2.2,0.3,3.3,0.4c0.1,0,0.2,0,0.3,0c-0.1-0.2-0.1-0.3-0.2-0.5c-1-1.9-1.6-3.9-1.9-6
		c-0.1-0.9-0.3-1.8-0.7-2.6c-0.3-0.6-0.7-1-1.4-1.2c-1-0.3-2-0.3-3.1-0.2s-2.2,0.3-3.4,0.4c0.5-0.8,1-1.6,1.5-2.6
		c-0.9-0.1-1.9,0-2.9,0c0.1-0.1,0.2-0.2,0.2-0.3c0.7-0.8,1.4-1.6,2.1-2.5c0.3-0.4,0.6-0.8,0.7-1.3c0.1-0.4,0.2-0.9,0.4-1.3
		c0.7-2.3,2.3-3.7,4.7-4.2c2.1-0.4,4.1,0,5.8,1.4c0.6,0.5,1.1,1,1.6,1.6c0.2,0.2,0.5,0.5,0.7,0.8c0.7,0.8,1.4,1.6,2.3,2.2
		c2.4,2,4.7,4,7,6.2c0.1,0.1,0.3,0.3,0.5,0.4c1.9-1.1,3.5-2.6,4.6-4.5s1.9-3.9,2.1-6.2c1.8,0.1,3.6,0.3,5.4,0.4
		c-0.1,0.2-0.2,0.3-0.3,0.5c-0.8,1.2-1.5,2.5-2,3.9c-0.2,0.4-0.3,0.9-0.3,1.4c-0.1,0.4-0.1,0.8,0.3,1s0.7,0.1,1-0.1
		c0.7-0.4,1.3-0.9,1.8-1.5c0.9-1.2,1.8-2.4,2.7-3.6c0.2-0.2,0.3-0.5,0.5-0.8c1.4,1.1,2.7,2.1,4,3.3c-0.2,0.1-0.3,0.2-0.4,0.2
		c-0.7,0.4-1.4,0.8-2,1.3c-0.2,0.2-0.5,0.4-0.6,0.6c-0.4,0.5-0.2,0.9,0.4,1c0.4,0,0.8,0,1.1,0c1.3-0.2,2.4-0.7,3.6-1.3
		c0.1-0.1,0.3-0.1,0.4-0.2c0.1,0.4,0.1,4.7,0,5.3c-2.8,0.1-5.7,0.6-8.5,1.4c0.2,0.2,0.4,0.4,0.5,0.5c0.6,0.4,1.2,0.6,1.9,0.8
		c0.5,0.1,0.9,0.2,1.4,0.3c0.2,0,0.3,0.1,0.5,0.1c-0.2,1.4-0.4,2.8-0.6,4.3c-0.2-0.1-0.4-0.1-0.5-0.2c-1.9-0.8-3.8-1.4-5.8-1.8
		c-1.3-0.2-2.6-0.4-4-0.4c-0.2,0-0.4,0.1-0.6,0.2c-0.2,0.3-0.5,0.6-0.7,0.9c0.1,0.1,0.1,0.2,0.2,0.3c2.1,3,3.8,6.2,5.5,9.5
		c3.1,6,6,12.1,8.7,18.3c0.7,1.6,1.5,3.2,2,4.9c0,0.1,0.1,0.2,0.1,0.5c-2.4-1.3-4.6-2.7-6.7-4.2c0,0-0.1,0-0.1,0.1
		c0,0.2,0.1,0.3,0.1,0.5c0.8,2.4,1.7,4.9,2.5,7.3c0.1,0.4,0.2,0.8,0.2,1.2c0,0.6-0.2,0.9-0.8,0.9c-0.7,0-1.3,0-2,0
		c-0.2,0-0.4,0-0.6,0c-0.5,0-0.9,0.2-1.2,0.5c-0.5,0.6-1,1.1-1.6,1.7c-0.3,0.3-0.5,0.5-0.8,0.8c-0.7,0.6-1.5,0.4-1.9-0.4
		c-0.2-0.4-0.2-0.9-0.3-1.3c-0.6-3.9-1.3-7.7-1.9-11.6c-0.4-2.2-0.7-4.3-1.1-6.5c0-0.3-0.1-0.5-0.3-0.6c-1.9-1.7-3.7-3.5-5.3-5.3
		c-0.1-0.1-0.2-0.2-0.3-0.2c-0.8-0.3-1.5-0.7-2.3-1c0,0.2-0.1,0.3-0.1,0.5c0,1.4,0,2.8,0.3,4.2c0.1,0.3,0,0.4-0.2,0.6
		c-0.4,0.4-0.7,0.8-1.1,1.1c-0.2,0.2-0.4,0.5-0.3,0.8c0,0.8,0,1.7,0.1,2.5c0,0.4-0.1,0.8-0.4,1.1c-0.5,0.5-1,1-1.6,1.4
		c-1.8,1.4-3.7,2.7-5.7,3.8c-1.7,1-3.5,1.6-5.4,2.2c-0.2,0.1-0.4,0.1-0.6,0.2c-1.2,0.5-2.5,0.6-3.7,0.6c-3.2,0-6.5-0.1-9.7-0.1
		c-0.7,0-1.3,0.1-2,0.2c-1.9,0.3-3.7,0.6-5.6,1.2c-0.6,0.2-1.3,0.1-1.9,0.1c-1.5-0.1-2.9-0.6-4.3-1.3c-0.3-0.2-0.6-0.1-0.9,0
		c-1.4,0.8-2.7,1.8-4,2.8c-1,0.8-2,1.6-3.1,2.4c-0.9,0.7-1.7,1.3-2.6,2c-0.7,0.6-1.6,1-2.4,1.3c-1,0.3-2.1,0.6-3.2,0.7
		c-0.3,0-0.7,0-1,0c-0.4,0-0.6-0.2-0.8-0.5c-0.8-0.9-1.8-1.5-3-1.8c-0.7-0.2-1.5-0.1-2.2,0c-0.3,0-0.5,0-0.7-0.1
		c-0.6-0.4-1.1-0.8-1.5-1.4c-0.9-1.1-1.4-2.4-1.7-3.8c-0.5-2-0.5-4-0.1-6c0.2-0.7,0.4-1.2,0.6-1.6c0.1-0.2,0.2-0.4,0.4-0.5
		c0.6-0.4,1.2-0.5,1.9-0.6c1.7-0.3,3.3-0.9,4.9-1.5c0.7-0.3,1.4-0.6,2.1-0.8c0.1,0,0.2-0.1,0.4-0.2c-0.1-0.1-0.2-0.2-0.2-0.3
		c-1.2-1.2-2.3-2.6-3.4-3.9c-0.4-0.5-0.5-1-0.6-1.6c0-0.3-0.1-0.7-0.1-1c-0.1-0.3-0.1-0.6-0.2-0.9c-0.5-1.1-1-2.1-1.5-3.2
		c-0.2-0.4-0.2-0.6,0.1-0.9c0.2-0.2,0.3-0.4,0.5-0.6c0.2-0.3,0.2-0.7,0-1c-0.3-0.4-0.5-0.8-0.7-1.2c-0.3-0.5-0.3-0.6,0.2-0.9
		c0.8-0.5,1-1.1,0.9-2c0-0.2,0-0.4-0.1-0.5c0-0.6,0.1-1.1,0.6-1.5c0.4-0.4,0.9-0.7,1.4-0.9c1-0.5,2.1-0.8,3.2-1
		c1.3-0.2,2.6-0.4,3.9-0.6c0.2,0,0.4-0.1,0.4-0.2c0.5-0.6,1-1.3,1.6-2c-0.3,0-0.4,0-0.6,0c-1.5,0.1-2.9,0.3-4.4,0.4
		c-0.7,0.1-1.3,0.1-2,0.2c-0.1,0-0.2,0-0.4,0c0.2-0.4,0.4-0.8,0.6-1.2c0.1-0.2,0.2-0.2,0.4-0.2c0.4,0,0.9,0,1.3,0
		c1.4-0.1,2.9-0.2,4.3-0.4c0.5,0,1-0.1,1.4-0.2C26.6,207.4,26.6,207.4,26.9,206.9z M25.9,215.1c0.2-0.2,0.4-0.3,0.6-0.4
		c3.9-2.7,7.7-5.3,11.6-8c0.7-0.5,1.3-1.1,1.7-1.9c0.2-0.3,0.3-0.6,0.5-1c0.4-0.7,0.9-1.4,1.5-1.9c0.7-0.6,1.4-0.9,2.3-1
		c0.3,0,0.5-0.2,0.6-0.4c1.4-3,3.7-5,6.7-6.2c0.1-0.1,0.3-0.1,0.5-0.2c-0.7-0.3-1.2-0.5-1.8-0.8c0.6-0.5,1.2-0.8,1.8-1.3
		c-0.5-0.2-0.8-0.3-1.2-0.4c-0.4-0.1-0.7-0.3-1-0.6c-0.8-0.8-1.7-1.1-2.8-1c-1,0.1-1.8,0.5-2.5,1.2c-0.6,0.6-1.1,1.2-1.5,1.9
		c-0.6,1-1.1,2-1.6,3c-0.5,0.9-1.1,1.7-2,2.3c-0.2,0.2-0.5,0.3-0.7,0.5c-2.2,1.5-4.3,3.2-6.3,5c-3.9,3.5-7.2,7.5-10.2,11.7
		c-0.1,0.2-0.2,0.3-0.4,0.5c-0.3-0.2-0.6-0.4-0.9-0.5c0.6-1,1.2-1.9,1.8-2.8c-0.3,0-0.4,0-0.6,0c-0.4,0-0.8,0.1-1.2,0.2
		c-1,0.2-1.9,0.3-2.8,0.7c-0.3,0.1-0.6,0.3-0.9,0.5c-0.5,0.4-0.6,0.8-0.3,1.4c0.2,0.3,0.4,0.6,0.7,0.8c0.9,0.8,2,1.4,3.2,1.8
		c0.5,0.2,1,0.1,1.5-0.1c0.4-0.2,0.9-0.3,1.3-0.5c1.1-0.5,2.2-0.5,3.4-0.3c2.6,0.6,5,1.7,7.3,3.1c0.1,0.1,0.2,0.1,0.3,0.3
		c-0.4,0.2-0.8,0.3-1.1,0.4c-0.3,0.1-0.5,0.1-0.7,0c-1.1-0.5-2.1-1-3.2-1.5c-0.9-0.4-1.9-0.7-3-0.8s-2.2,0.1-3.2,0.6
		c-0.7,0.3-1.5,0.6-2.2,0.9c-0.2,0.1-0.3,0.1-0.5,0c-0.6-0.3-1.3-0.6-1.9-1c-0.8-0.4-1.7-0.9-2.4-1.5c-0.1-0.1-0.1-0.1-0.2-0.1
		c-0.4,1-0.4,1.4,0.1,2.3c0.5,0.8,1.2,1.4,2,1.9c1.9,1.2,4,1.8,6.3,1.7c0.1,0,0.3,0,0.4,0.1c0.2,0.2,0.4,0.5,0.7,0.8
		c-0.6,0.5-1.3,0.9-2.1,0.9c-0.7,0-1.4-0.1-2.2-0.3c-1.9-0.4-3.6-1.2-5-2.6c-0.3-0.3-0.6-0.5-0.9-0.8c-0.3,0.6-0.3,1.2,0.1,1.7
		c0.4,0.7,1,1.4,1.6,2c1.4,1.3,2.9,2.3,4.6,3.1c0.3,0.1,0.6,0.2,0.9,0.3c0.9,0.1,1.8,0.2,2.7,0.3c1.1,0.1,2.2,0,3.3-0.3
		c0.9-0.2,1.8-0.6,2.4-1.4c0.2-0.3,0.5-0.5,0.8-0.5c0.4,0,0.8-0.1,1.1,0c2.3,0.4,4.4,1.1,6.5,1.9c0.1,0,0.2,0.1,0.3,0.2
		c-1,0.6-1.2,0.7-2.3,0.3c-0.7-0.2-1.3-0.5-2-0.6c-0.8-0.2-1.5-0.4-2.3-0.3c-1,0-1.9,0.7-2.2,1.5c-0.2,0.5-0.1,0.9,0.4,1.2
		c0.2,0.2,0.5,0.3,0.8,0.4c0.9,0.3,1.9,0.4,2.9,0.5c1.6,0.1,3.1-0.1,4.7-0.2c1.2-0.1,2.4-0.3,3.5-0.4c0.1,0,0.3,0,0.4,0.1
		c0.3,0.3,0.6,0.6,0.8,0.9c-0.2,0-0.4,0.1-0.5,0.1c-2.6,0.5-5.3,0.7-8,0.7c-1.5,0-3,0-4.6-0.2c-0.7-0.5-1.4-0.8-1.8-1.5
		c-0.2-0.4-0.5-0.6-0.9-0.7c-0.6-0.3-1.3-0.4-1.9-0.4c-1,0-2.1,0-3.1,0c-0.8,0-1.5-0.1-2.2-0.4c-0.6-0.3-1.2-0.6-1.8-0.9
		c-0.9-0.5-1.9-1-2.5-1.9c-0.1-0.1-0.2-0.1-0.2-0.2c0,0-0.1,0-0.1,0.1c0.3,0.8,0.4,1.6,1.1,2.2c0.7,0.7,1.3,1.4,2,2.1
		c0.4,0.5,1,0.6,1.6,0.7c0.5,0,1.1-0.1,1.6-0.2c0.6-0.2,1.3-0.2,1.9-0.1c0.5,0.1,1,0.3,1.5,0.5c1.4,0.5,2.7,1.4,3.9,2.2
		c1,0.7,2,0.9,3.2,0.7c0.6-0.1,1.2-0.1,1.7,0c1.5,0.3,2.7,1.1,3.4,2.4c0.2,0.4,0.4,0.8,0.5,1.2c0.1,0.3,0.2,0.6,0.3,1
		c-0.4,0.3-0.7,0.5-1,0.7c-0.1-0.2-0.2-0.4-0.2-0.6c-0.3-0.8-0.7-1.5-1.2-2.1c-0.7-0.7-1.5-1.2-2.5-1.2s-1.9,0.2-2.5,1
		c0,0.1-0.1,0.1-0.2,0.2c-0.2-0.2-0.4-0.4-0.6-0.6c-1.2-1.1-2.5-2.2-4-2.9c-1.5-0.8-3.1-1.1-4.8-0.7c-0.6,0.1-1.3,0.2-1.9,0.4
		c-1,0.3-1.9,0.8-2.8,1.1c-2,0.7-3.9,1.4-6,1.8c-0.2,0-0.3,0.2-0.4,0.4c-0.2,0.6-0.4,1.3-0.6,1.9c-0.2,0.8-0.4,1.7-0.4,2.5
		c0.1,1.8,0.7,3.3,1.8,4.7c0.2,0.3,0.5,0.6,0.8,0.8c0.2,0.2,0.4,0.2,0.6,0.2c0.5,0,1-0.1,1.4,0c1.5,0.2,2.7,0.8,3.7,1.9
		c0.3,0.4,0.7,0.5,1.1,0.6c1.2,0.1,2.3-0.2,3.3-0.6c0.5-0.2,0.8-0.5,1.1-1c0.3-0.5,0.6-1.1,0.8-1.6c0.7-1.5,1-3.1,0.8-4.7
		c0-0.3,0-0.7-0.2-0.9c-0.4-0.7-1-1.3-1.8-1.6c-0.8-0.2-1.5-0.4-2.3-0.7c-0.5-0.2-1-0.1-1.5,0c-1.1,0.3-2.3,0.7-3.4,1
		c-0.1,0-0.2,0-0.3,0c0.4-0.4,0.9-0.7,1.3-1s0.9-0.6,1.4-1c-0.9-0.2-1.6-0.3-2.4-0.4c0.5-0.2,1.1-0.4,1.6-0.6c0.2-0.1,0.4-0.1,0.7,0
		c1.1,0.3,2.2,0.6,3.4,0.9c0.9,0.2,1.8,0.5,2.7,0.9c0.8,0.4,1.5,0.8,2.1,1.4c0.4,0.5,0.6,0.9,0.5,1.6c-0.4,1.7-0.7,3.4-1.1,5.1
		c0,0.2-0.1,0.3-0.1,0.5h0.1c0.7-0.8,1.5-1.3,2.3-2c0.5-0.4,1-0.8,1.4-1.2c0.2-0.2,0.3-0.4,0.5-0.6c0.5,0.2,1,0.1,1.4-0.2
		c0.3-0.2,0.6-0.4,0.9-0.6c0.5-0.4,0.9-0.8,1.3-1.2c0.4-0.4,0.9-0.7,1.4-0.9c0.3-0.1,0.6-0.2,0.9,0c1.2,0.5,2.4,1,3.6,1.2
		c0.8,0.2,1.6,0.3,2.4-0.1c0.7-0.3,1.4-0.5,2.2-0.5c1.1-0.1,2.2-0.2,3.3-0.3c1.7-0.1,3.5-0.2,5.2-0.3c2.5,0,4.9,0.1,7.4,0.2
		c0.2,0,0.4,0,0.6,0c1-0.3,2-0.6,3-0.9c3.9-1.2,7.3-3.3,10.1-6.3c0.5-0.5,0.7-1.1,0.9-1.7c0.1-0.4,0-0.6-0.3-0.7
		c-0.2-0.1-0.3-0.1-0.5-0.2c-0.8-0.2-1.5-0.1-2.3,0.1c-0.7,0.1-1.4,0.4-2,0.7c-0.3,0.2-0.5,0.2-0.9,0c0.2-0.2,0.3-0.4,0.5-0.5
		c0.7-0.4,1.3-0.8,2.1-1.1c1-0.5,2.1-0.8,3.2-0.9c0.3,0,0.5-0.1,0.6-0.4c0.9-1.6,1.5-3.3,1.7-5.2c0.1-0.9,0.1-0.9-0.9-1.2
		c-0.1,0.1-0.2,0.3-0.3,0.4c-0.4,0.5-0.8,1-1.2,1.4c-0.5,0.5-0.9,1-1.5,1.4c-0.9,0.7-2,0.6-2.7-0.3c-0.7-0.9-1.3-1.9-1.9-2.9
		c-0.8-1.5-1.7-2.9-2.5-4.4c-0.1-0.2-0.2-0.3-0.4-0.5c-0.6,0.6-0.6,1.4-0.8,2.1c-0.3-0.1-0.7-0.2-1-0.4c0.1-0.7,0.3-1.4,0.5-2
		c0.1-0.3,0.1-0.5-0.1-0.7c-0.4-0.6-1-0.7-1.5-0.1c-0.2,0.3-0.4,0.7-0.6,1c-0.1,0.1-0.1,0.3-0.3,0.4c-0.3,0.2-0.6,0.3-0.9,0.4
		c-0.1-0.6,0.1-1.6,0.5-2.3c0.5-1,1.3-1.5,2.5-1.3c0.3,0.1,0.7,0.2,1,0.4c0.5,0.3,0.9,0.8,1.2,1.2c1.2,1.6,2.4,3.3,3.6,4.9
		c0.1,0.1,0.1,0.2,0.2,0.4c0.1-0.3,0.2-0.4,0.3-0.5c0.3-0.7,0.6-1.4,0.9-2c0.2-0.3,0.1-0.5-0.1-0.8c-1.4-1.6-2.6-3.3-3.7-5.1
		c-0.2-0.3-0.4-0.4-0.7-0.5c-1.8-0.4-3.7-0.6-5.5-0.8c-3.2-0.2-6.4-0.3-9.5-0.3c-2.8,0-5.6,0.1-8.4,0.1c-0.5,0-0.8,0.2-1,0.6
		c-0.8,1.5-1.3,3-1.8,4.6c-0.1,0.2-0.1,0.3-0.2,0.6c-0.4-0.1-0.7-0.1-1.1-0.2c0-0.1,0-0.2,0-0.3c0.4-1.6,1-3.1,1.7-4.6
		c1.5-2.9,3.8-5,6.9-6.1c0.1,0,0.2-0.1,0.4-0.2c-0.5-0.3-1-0.6-1.5-1c0.6-0.4,1.2-0.8,1.9-1.2c-0.3-0.1-0.5-0.2-0.6-0.2
		c-0.7-0.2-1.3-0.4-1.8-0.9c-0.2-0.2-0.5-0.3-0.7-0.4c-1.6-0.7-3.2-0.4-4.3,1c-0.4,0.5-0.7,1-1,1.6c-0.4,0.9-1,1.6-1.7,2.2
		c-0.7,0.6-1.5,1.2-2.3,1.7c-3,2-6,4-8.9,6c-0.7,0.5-1.3,0.7-2.1,0.4C26.1,215.2,26.1,215.2,25.9,215.1z M96.5,229.9
		C96.5,229.9,96.6,229.9,96.5,229.9c0-0.3-0.1-0.4-0.1-0.6c-0.4-0.8-0.8-1.7-1.2-2.5c-2.2-4.5-4.4-9-6.9-13.4
		c-2-3.6-4.5-6.8-7.4-9.7c-2.9-2.8-5.9-5.5-9-8.2c-0.8-0.7-1.5-1.4-2.2-2.2c-0.5-0.6-1-1.2-1.6-1.7c-0.9-0.9-2-1.5-3.3-1.6
		c-1.8-0.2-3.4,0.4-4.6,1.8c-0.6,0.7-1,1.5-1.2,2.3c-0.2,0.7-0.5,1.3-1,1.8c-0.2,0.2-0.5,0.5-0.7,0.8c-0.1,0.1-0.1,0.2-0.2,0.3
		c1,0,1.9-0.2,2.9-0.2c-0.6,0.8-1.1,1.5-1.6,2.3c0.2,0,0.4,0,0.5,0c1.1-0.2,2.1-0.2,3.2-0.1c1.6,0.2,2.8,1,3.4,2.5
		c0.1,0.3,0.2,0.5,0.3,0.8c0.1,0.6,0.3,1.3,0.4,1.9c0.4,2.4,1.2,4.6,2.4,6.7c1.5,2.5,3.1,4.8,5,7c0.3,0.3,0.3,0.3,0.1,0.7
		c-0.5,1.1-1,2.2-1.6,3.2c-0.3,0.5-0.3,1,0,1.5c0.1,0.2,0.2,0.3,0.3,0.5c0.4,0.5,0.6,0.6,1.1,0.2c1-0.8,2-1.7,2.8-2.8
		c0.3-0.4,0.3-0.4,0.7-0.2c0.7,0.3,1.4,0.6,2,0.9c0.1,0,0.2,0.1,0.4,0.1c-0.2-0.2-0.3-0.4-0.4-0.6c-2.7-3.4-5.2-7-7.3-10.7
		c-0.9-1.5-1.6-3-2.3-4.6c-0.2-0.4-0.3-0.8-0.2-1.3c0-0.2,0.1-0.4,0.3-0.5c0.2-0.1,0.4,0,0.6,0.2s0.4,0.5,0.5,0.8
		c0.3,0.7,0.6,1.5,1,2.2c1.7,3.4,3.7,6.6,5.9,9.7c1.5,2.1,3,4.2,4.8,6.1c4.3,4.7,9,8.9,14.2,12.6c1.3,1,2.7,1.8,4.1,2.7
		c0.1,0.1,0.3,0.2,0.4,0.1c0-0.1,0-0.1,0-0.2c-1-2-1.9-4-2.9-6c-0.1-0.2-0.2-0.3-0.4-0.4c-3.5-2.1-6.6-4.6-9.5-7.5
		c-2.6-2.6-4.8-5.4-6.6-8.6c-0.1-0.2-0.2-0.4-0.3-0.6c0.4,0,0.7,0,0.9,0.1c0.2,0,0.3,0.1,0.4,0.3c0.2,0.3,0.4,0.6,0.6,0.9
		c2.8,4.3,6.3,7.9,10.3,11.1c0.9,0.7,1.8,1.2,2.7,1.8C96.2,229.8,96.3,229.9,96.5,229.9z M90.4,192.2c-0.7-0.1-1.3-0.2-2-0.2
		c-0.3,2.2-1.2,4.1-2.4,5.9c-1.1,1.8-2.7,3.3-4.4,4.5c1.4,1.6,2.8,3.2,4.2,4.8c0.1,0,0.1-0.1,0.2-0.1c1-1.2,2.3-2.1,3.7-2.9
		c3.2-1.7,6.7-2.6,10.3-3.1c0.6-0.1,1.2-0.2,1.8-0.2c0.1-0.5,0.1-1.8,0-2.2c-0.2,0.1-0.4,0.1-0.6,0.2c-0.8,0.2-1.5,0.4-2.3,0.6
		c-0.6,0.1-1.1,0.1-1.7,0c-0.9-0.2-1.4-1-1-1.9c0.1-0.3,0.3-0.6,0.5-0.8c0.4-0.4,0.8-0.7,1.3-1.1c0.1-0.1,0.2-0.2,0.4-0.3
		c-0.6-0.5-1.1-1-1.7-1.5c-0.1,0.2-0.2,0.3-0.3,0.4c-0.3,0.5-0.7,0.9-1,1.4c-0.6,0.8-1.3,1.6-1.9,2.3c-0.5,0.5-1.1,1-1.7,1.3
		c-0.8,0.1-1.2,0.2-1.7,0.2c-0.7-0.1-1.3-0.7-1.4-1.4c-0.1-0.5,0-0.9,0.1-1.4c0.3-1.4,0.8-2.7,1.4-3.9
		C90.2,192.6,90.3,192.4,90.4,192.2z M88.5,231.5C88.5,231.5,88.4,231.5,88.5,231.5c-0.1,0.3-0.1,0.4-0.1,0.6c0.3,2,0.7,3.9,1,5.9
		c0.6,3.2,1.1,6.4,1.7,9.5c0.1,0.3,0.1,0.6,0.2,0.9c0.1,0.4,0.5,0.5,0.9,0.4c0.1-0.1,0.3-0.1,0.4-0.2c0.8-0.8,1.5-1.7,1-2.9
		c0-0.1,0-0.2-0.1-0.2c-0.8-3.8-1.6-7.6-2.5-11.4c-0.1-0.3-0.2-0.5-0.4-0.7c-0.6-0.4-1.1-0.9-1.6-1.3
		C88.9,231.8,88.7,231.7,88.5,231.5z M92.4,234.8c0,0.2,0.1,0.4,0.1,0.5c0.7,2.8,1.4,5.6,2.1,8.4c0.1,0.6,0.3,1.1,0.4,1.7
		c0.2,0.7,0.6,1.1,1.4,1.1c0.2,0,0.3,0,0.5,0c1,0,1.2-0.3,1-1.3c-0.9-2.7-1.8-5.4-2.6-8.2c-0.1-0.2-0.2-0.4-0.4-0.5
		c-0.7-0.5-1.3-1-2-1.5C92.7,234.9,92.6,234.9,92.4,234.8z M97.4,206.2c-0.3-0.1-0.4-0.1-0.6-0.2c-1.3-0.3-2.6-0.9-3.6-1.8
		c-0.2-0.2-0.3-0.2-0.5-0.1c-1.1,0.4-2.2,0.9-3.2,1.6c-0.1,0.1-0.2,0.1-0.3,0.3c0.3,0,0.5,0.1,0.8,0.1c0.2,0,0.5,0,0.7,0
		c2.2,0.3,4.3,0.8,6.2,1.7c0.1,0,0.2,0.1,0.3,0.1c0.1-0.3,0.1-0.6,0.1-0.9C97.4,206.7,97.4,206.5,97.4,206.2z"/>
	<path class="st3" d="M14,267.4c0,0.2,0,0.4,0,0.6c0,4.6,0,9.1,0.1,13.7c0,0.3,0,0.5,0,0.8c-0.1,0.6-0.6,1.1-1.2,1.1
		c-0.8,0-1.5,0-2.3,0c-0.7,0-1.2-0.6-1.3-1.3c0-0.2,0-0.3,0-0.5c0-6.9,0-13.8,0-20.6c0-0.2,0-0.4,0-0.5c0.1-0.7,0.7-1.2,1.4-1.3
		c1,0,2.1,0,3.1,0c1.1,0,1.9,0.5,2.4,1.4c0.8,1.4,1.6,2.8,2.3,4.2c1.9,3.4,3.8,6.8,5.6,10.3c0.1,0.1,0.2,0.3,0.3,0.5
		c0-0.2,0.1-0.3,0.1-0.4c0-3.5,0-7.1-0.1-10.6c0-1.2,0-2.3,0-3.5c0-0.9,0.7-1.6,1.6-1.6c0.2,0,0.3,0,0.5,0c11.9,0,23.9,0,35.8,0
		c0.2,0,0.4,0,0.5,0c0.6,0,1,0.3,1,0.9s0,1.2,0,1.7s-0.4,0.8-0.9,0.9c-0.2,0-0.5,0-0.7,0c-10.8,0-21.6,0-32.4,0c-0.3,0-0.5,0-0.8,0
		c0,0.3,0,0.5,0,0.7c0,5.9,0,11.8,0,17.6c0,0.2,0,0.4,0,0.6c-0.1,0.7-0.6,1.3-1.3,1.3c-1.1,0-2.2,0-3.3,0c-0.8,0-1.5-0.5-1.9-1.2
		c-1-1.8-2-3.5-3-5.3c-1.7-3.1-3.4-6.2-5.1-9.3c-0.1-0.2-0.2-0.3-0.3-0.5C14.1,267.3,14,267.4,14,267.4z"/>
	<path class="st3" d="M35.4,276.1c0,0.3,0.1,0.5,0.1,0.7c0.4,1.9,2.1,3.3,4.1,3.3c1.5,0,2.7-0.5,3.6-1.8c0.3-0.4,0.6-0.6,1.1-0.5
		c0.8,0,1.7,0,2.5,0c0.6,0,1,0.6,0.9,1.1c-0.3,1.1-0.9,2.1-1.8,2.9c-1.1,0.9-2.4,1.5-3.7,1.9c-1.6,0.4-3.2,0.4-4.9,0
		c-2.2-0.6-4-1.9-5.1-3.9c-1.9-3.4-2-6.9,0.1-10.3c1.3-2.2,3.3-3.4,5.9-3.8c1.5-0.2,3.1-0.1,4.6,0.4c2.9,1,4.6,3,5.3,5.9
		c0.3,0.9,0.4,1.9,0.3,2.9c0,0.8-0.5,1.2-1.3,1.3c-0.2,0-0.4,0-0.6,0c-3.4,0-6.9,0-10.3,0C35.9,276,35.7,276.1,35.4,276.1z
		 M43.7,272.6c0-0.5-0.2-0.9-0.4-1.3c-0.9-1.7-2.9-2.6-4.8-2.1c-1.5,0.4-2.6,1.3-3,2.9c0,0.2,0,0.3-0.1,0.5
		C38.2,272.6,40.9,272.6,43.7,272.6z"/>
	<path class="st3" d="M87.4,276c0.1,0.4,0.1,0.7,0.2,0.9c0.5,1.6,1.5,2.7,3.1,3c1.8,0.3,3.4,0,4.5-1.6c0.3-0.4,0.7-0.6,1.2-0.6
		c0.8,0,1.6,0,2.4,0c0.7,0,1.1,0.6,0.9,1.2c-0.3,0.9-0.7,1.7-1.4,2.4c-0.6,0.6-1.2,1.1-2,1.5c-2.1,1.1-4.4,1.3-6.7,0.9
		c-2.3-0.5-4.1-1.8-5.3-3.8c-1.8-3.1-2-6.4-0.5-9.6c1.3-2.7,3.4-4.2,6.4-4.6c1.6-0.2,3.2-0.1,4.8,0.5c2.6,1,4.2,2.9,5,5.5
		c0.3,1,0.4,1.9,0.4,2.9c0,0.2,0,0.5-0.1,0.7c-0.1,0.5-0.5,0.7-1,0.8c-0.3,0-0.5,0-0.8,0c-3.5,0-6.9,0-10.4,0
		C88,276,87.7,276,87.4,276z M95.6,272.6c0.1-1.8-1.9-3.6-4.1-3.6c-2.1,0-4.1,1.7-4,3.6C90.3,272.6,93,272.6,95.6,272.6z"/>
	<path class="st3" d="M51.2,277.7c0.4,0,0.8,0,1.1,0c0.5,0,0.9,0.2,1.1,0.7c0.2,0.6,0.7,1,1.2,1.2c1,0.5,2,0.6,3.1,0.5
		c0.5-0.1,0.9-0.2,1.4-0.4c0.6-0.2,0.9-0.7,0.9-1.4c0-0.5-0.1-0.8-0.5-1c-0.3-0.2-0.6-0.3-0.9-0.4c-1.4-0.4-2.9-0.7-4.3-1.1
		c-1-0.2-1.9-0.6-2.7-1.1c-3.1-1.9-2.6-5.8-0.4-7.6c0.9-0.7,1.9-1.2,3-1.4c2.1-0.5,4.2-0.4,6.3,0.3c1,0.4,1.9,0.9,2.7,1.7
		c0.6,0.6,1,1.4,1.1,2.2c0.1,0.7-0.2,1-0.9,1c-0.8,0-1.6,0-2.3,0c-0.4,0-0.7-0.2-0.9-0.6c-0.2-0.5-0.7-0.9-1.2-1.1
		c-1.2-0.5-2.4-0.6-3.7-0.2c-0.6,0.2-1,0.6-1.1,1.2s0,1,0.6,1.2c0.5,0.3,1.1,0.5,1.6,0.6c1.4,0.4,2.9,0.7,4.3,1.1
		c0.7,0.2,1.4,0.5,2.1,1c1.4,1,2.1,2.3,2,4c0,1.8-0.8,3.1-2.3,4.1c-1.1,0.7-2.3,1.1-3.5,1.3c-2,0.3-3.9,0.2-5.8-0.5
		c-1.1-0.4-2.1-1-3-1.8c-0.6-0.6-1.1-1.4-1.1-2.3c0-0.2,0-0.4,0-0.6c0.1-0.5,0.4-0.8,0.9-0.8C50.4,277.7,50.8,277.7,51.2,277.7
		L51.2,277.7z"/>
	<path class="st3" d="M12.7,199.6c0.4-0.7,0.8-1.1,1.6-1.3c-0.4-0.3-0.7-0.4-0.9-0.7s-0.4-0.6-0.6-1c-1.3,0.2-2.5-0.1-3.5-1.1
		s-1.3-2.2-1.1-3.6c-0.2,0-0.4-0.1-0.6-0.3c-0.9-0.7-1.5-1.6-1.5-2.8c0-2,1.8-3.6,3.7-3.5c0.8,0,1.6,0.3,2.2,0.8
		c0.3,0.2,0.5,0.2,0.8,0.1c1.1-0.5,2.2-0.6,3.3-0.3c1.8,0.5,3.1,2.2,3.2,4.1c0,0.2,0,0.4,0,0.7c2.5,0.1,3.6,1.5,3.6,3.8
		c0.3-0.3,0.5-0.6,0.7-0.9c0.3-0.2,0.6-0.3,1-0.5c0-0.1-0.1-0.3-0.2-0.5c-0.4-1.2-0.3-2.3,0.3-3.4c0.8-1.4,2.3-2.2,3.9-1.9
		c0.3,0.1,0.4,0,0.6-0.3c0.6-1,1.5-1.7,2.7-1.9c2.2-0.4,4.5,1,4.7,3.6c0.1,1.2-0.3,2.2-1.2,2.9c-0.2,0.2-0.2,0.4-0.2,0.6
		c0.2,0.7,0.2,1.5,0,2.3c-0.4,1.4-1.4,2.2-2.9,2.5c-0.3,0.1-0.7,0.1-1,0.1c-0.2,0-0.3,0-0.5,0c-0.1,0.4-0.1,0.7-0.2,1.1
		c-0.4,1.3-1.2,2.2-2.6,2.5c-1.5,0.3-2.9-0.2-4-1.2c-1-0.9-1.5-2-1.8-3.2c-0.1-0.5-0.3-1.1-0.4-1.6c0-0.2-0.1-0.4-0.2-0.6
		c-0.6-1.3-1.5-2-3-2.2c-0.1,0-0.2,0-0.3,0c-0.2-3.4-3.1-5.4-6-4.3c-0.5-0.2-1-0.5-1.5-0.6c-1.4-0.4-2.7,0.6-2.9,2
		c0,1,0.3,1.7,1.1,2.2c0.1,0.1,0.2,0.1,0.3,0.2c0,0.3,0.1,0.5,0.1,0.8c0.2,1.7,1.4,2.9,3.3,3.2c0.5,0.1,1,0.1,1.5,0.1
		c0.4,1.5,1.5,2.4,3.1,2.8c0,0.2,0,0.3-0.1,0.5c-0.3,0-0.5,0-0.7,0c-0.9,0.1-1.6,0.5-2.1,1.2c-0.2,0.3-0.5,0.4-0.9,0.4
		c-1.1,0-2.1,0.2-3,0.6c-1.1,0.5-1.9,1.3-2.1,2.5c-0.1,0.6-0.3,0.8-0.8,1c-1.2,0.4-1.7,1.7-1.5,2.8c0.3,1.2,1.4,2.1,2.6,2.1
		c0.8,0,1.5-0.4,2-1.1c0.1-0.1,0.2-0.3,0.3-0.5c1.1,0.1,2.1,0,3.1-0.6c0.9-0.6,1.5-1.5,1.7-2.7c2.1,0,3.3-1,3.6-3c0.2,0,0.5,0,0.7,0
		c0.1,1.1,0,2.1-0.7,3s-1.7,1.1-2.8,1.1c-0.1,1.3-0.6,2.3-1.7,3c-1.1,0.9-2.3,0.9-3.5,0.6c-0.1,0.2-0.2,0.3-0.3,0.5
		c-0.6,0.8-1.4,1.4-2.4,1.6c-0.5,0.1-0.9,0-1.4-0.1c-1.2-0.4-2.1-1.1-2.7-2.3c-0.9-1.8,0-4,1.8-4.8c0.4-0.2,0.5-0.4,0.6-0.8
		c0.1-1.8,1.4-3.3,3.1-3.7c0.7-0.2,1.3-0.1,2,0C12.3,199.6,12.5,199.6,12.7,199.6z M25.7,193.6c-0.3,0.2-0.6,0.3-0.8,0.5
		c-1.1,0.8-1.5,2.2-1,3.4s1.7,2.2,3.5,1.9c1.5-0.2,2.5-1.4,2.6-2.9c0-0.1,0-0.2,0-0.3c0.1,0,0.3,0,0.4,0c2.4-0.2,3.8-2.6,3.7-4.3
		c0-0.3,0-0.4,0.2-0.6c0.6-0.7,0.8-1.6,0.6-2.5c-0.2-1.1-1.1-1.7-2.1-1.9s-1.8,0-2.4,0.8c-0.2,0.3-0.4,0.6-0.6,0.8
		c-1.3,0-2.5,0.4-3.4,1.5C25.4,191,25.4,192.3,25.7,193.6z"/>
	<path class="st3" d="M66.8,269.4c-0.3,0-0.6,0-0.9,0c-0.8,0-1.1-0.4-1.1-1.1c0-0.4,0-0.7,0-1.1c0-0.6,0.4-1,1-1c0.3,0,0.6,0,0.9,0
		c0-0.2,0-0.4,0-0.6c0-1.4,0-2.9,0-4.3c0-0.1,0-0.3,0-0.4c0.1-0.8,0.5-1.3,1.3-1.3c0.7,0,1.3,0,2,0s1.2,0.5,1.2,1.2
		c0,0.2,0,0.4,0,0.5c0,1.4,0,2.8,0,4.2c0,0.2,0,0.4,0,0.7c0.2,0,0.4,0,0.6,0c0.8,0,1.6,0,2.4,0c0.7,0,1,0.3,1,1c0,0.4,0,0.8,0,1.2
		c0,0.7-0.3,1.1-1.1,1.1c-0.8,0-1.6,0-2.3,0c-0.2,0-0.4,0-0.6,0c0,0.2,0,0.4,0,0.6c0,2.4,0,4.7,0,7.1c0,0.4,0,0.9,0.2,1.3
		c0.3,1,1.1,1.6,2.2,1.7c0.2,0,0.4,0,0.6,0c0.7,0.1,1,0.4,1,1.1c0,0.4,0,0.9,0,1.3c0,0.7-0.5,1.1-1.1,1.1c-0.7,0-1.5,0-2.2,0
		c-3.1-0.2-4.9-2.5-5.2-4.8c0-0.4-0.1-0.9-0.1-1.3c0-2.5,0-4.9,0-7.4C66.8,269.9,66.8,269.7,66.8,269.4z"/>
	<path class="st3" d="M76.5,271.5c0-3.5,0-7,0-10.5c0-0.4,0-0.7,0.3-1s0.7-0.5,1.1-0.5c0.7,0,1.3,0,2,0c0.9,0,1.4,0.6,1.4,1.5
		c0,1.3,0,2.6,0,3.9c0,5.6,0,11.2,0,16.8c0,0.2,0,0.4,0,0.6c0,0.7-0.6,1.3-1.3,1.3c-0.7,0-1.4,0-2.1,0s-1.2-0.5-1.2-1.2
		c0-0.1,0-0.3,0-0.4C76.6,278.5,76.6,275,76.5,271.5L76.5,271.5z"/>
	<path class="st3" d="M91.7,263.2c-2.2,0-4.4,0-6.6,0c-0.1,0-0.3,0-0.4,0c-0.5,0-0.7-0.3-0.7-0.8c0-0.3,0-0.7,0-1
		c0-0.4,0.2-0.7,0.7-0.7c0.8-0.1,1.6-0.2,2.4-0.3c1.2-0.1,2.4-0.3,3.6-0.4c1.1-0.1,2.3-0.2,3.4-0.3c1.2-0.1,2.3-0.2,3.5-0.4
		c0.4,0,0.8-0.1,1.1-0.1c0.7-0.1,1.2,0.4,1.2,1.1c0,0.6,0,1.2,0,1.8s-0.5,1-1.1,1.1c-0.1,0-0.3,0-0.4,0
		C96.2,263.2,93.9,263.2,91.7,263.2z"/>
	<path class="st3" d="M18.3,194.9c-0.2,0.3-0.4,0.5-0.6,0.8c-2.2-1.6-4.3-3.4-6.2-5.5c0.1-0.1,0.2-0.2,0.3-0.3s0.2-0.1,0.3-0.3
		C14.4,191.1,16.4,192.9,18.3,194.9z"/>
	<path class="st3" d="M10.1,206.4c-0.2-0.2-0.3-0.4-0.4-0.5c0.8-1.1,4.1-3.5,5.4-3.9c0.1,0.2,0.2,0.3,0.3,0.5
		C13.7,204,12,205.3,10.1,206.4z"/>
	<path class="st3" d="M72.8,227.9c-0.2,0.3-0.5,0.7-0.7,1c-0.1,0.2-0.3,0.2-0.5,0.2c-0.8,0-1.5,0.1-2.3,0.1c-0.5,0-0.9,0.1-1.4,0.2
		c-0.6,0.1-1.1,0.4-1.5,0.9c-0.3,0.4-0.7,0.9-1.1,1.3c-0.7,0.9-1.3,1.8-2,2.7c0.3,0.3,0.8,0.6,1.2,0.7c1.5,0.6,2.9,0.4,4.3-0.2
		c0.8-0.3,1.5-0.8,2.1-1.4c0.4-0.3,0.4-0.3,0.9-0.1c0.1,0,0.1,0.1,0.2,0.1c-0.1,0.2-0.2,0.3-0.3,0.4c-1.1,1.4-2.5,2.2-4.2,2.8
		c-0.2,0.1-0.5,0.1-0.8,0c-1.4-0.3-2.7-0.5-4.1-0.8c-0.3-0.1-0.6,0-0.9,0.1c-2.3,0.9-4.6,1.8-6.9,2.7c-0.8,0.3-1.7,0.5-2.6,0.5
		c-1.6,0-3.2,0-4.9,0c-0.1,0-0.3,0-0.4,0c-0.3,0-0.5-0.1-0.7-0.4s-0.5-0.5-0.8-0.8c0.3,0,0.4,0.1,0.6,0.1c1.5,0.2,3,0.1,4.5-0.1
		c0.5-0.1,1-0.1,1.5-0.2c0.1,0,0.3-0.1,0.4-0.1c0.4-0.2,0.5-0.4,0.4-0.8c-0.5-1.3-1.3-2.2-2.4-3c-0.3-0.2-0.7-0.2-1.1-0.1
		c-0.5,0.2-1,0.3-1.5,0.6c-1.1,0.5-2.1,1.1-3.2,1.7c-0.7,0.4-1.4,0.6-2.2,0.3c-1.5-0.4-3-0.9-4.4-1.7c0,0-0.1-0.1-0.2-0.1
		c0.3-0.1,0.6-0.3,0.9-0.4c0.1,0,0.3,0,0.4,0.1c0.7,0.2,1.5,0.4,2.2,0.6c0.8,0.2,1.6,0.1,2.4-0.2c1.4-0.7,2.8-1.3,4.3-2
		c0.9-0.4,1.8-0.7,2.6-1c0.1,0,0.2,0,0.3-0.1c0.5-0.1,0.7,0.1,1,0.5c1,1.4,2,2.9,3,4.3c0.3,0.4,0.3,0.4,0.7,0.2
		c1.2-0.4,2.3-0.8,3.4-1.4c1.1-0.6,2.1-1.3,2.9-2.2c1-1.2,2.1-2.3,3.1-3.5c0.8-0.9,1.7-1.4,2.8-1.6c1.5-0.2,3.1-0.3,4.6-0.2
		C72.6,227.8,72.7,227.9,72.8,227.9z"/>
	<path class="st3" d="M43.8,220.1c0,0.1,0,0.1-0.1,0.1c-0.2,0.3-0.4,0.7-0.7,0.8s-0.7,0.1-1.1,0.1c-0.8,0-1.6,0-2.4,0.2
		c-0.3,0.1-0.7,0.2-1,0.4c-0.9,0.5-0.9,1.6,0,2.2c0.6,0.4,1.3,0.6,1.9,0.7c1.2,0.2,2.4,0.1,3.6-0.1c1.7-0.4,3.5-0.7,5.2-1.2
		c0.1,0,0.1,0,0.2,0c0.2,0.3,0.3,0.6,0.5,1c-0.2,0.1-0.3,0.1-0.4,0.2c-2.1,0.7-4.2,1.3-6.3,1.7c-1.9,0.4-3.7,0.1-5.4-0.7
		c-0.7-0.3-1.5-0.6-2.2-1c-1.3-0.7-2.7-0.5-4,0.1c-0.6,0.3-1.2,0.7-1.8,1c-1.1,0.7-2.2,1.2-3.4,1.4c-0.7,0.1-1.4,0.2-2.1,0
		c-0.2-0.1-0.3-0.2-0.6-0.3c0.5-0.3,0.9-0.5,1.3-0.8c0.1,0,0.3,0,0.4,0c0.3,0.1,0.6,0.1,1,0c1.1-0.3,2-1,2.8-1.7
		c0.4-0.3,0.4-0.7,0-1.1c-0.5-0.4-0.9-0.9-1.6-1.1c-0.4-0.1-0.8-0.2-1.2-0.3c-0.6,0-1.3,0.1-1.9,0.3c-0.5,0.2-0.5,0.2-1-0.2
		c0.1-0.1,0.1-0.2,0.2-0.2c0.4-0.3,0.8-0.5,1.2-0.7c1.1-0.6,2.2-0.5,3.3,0c0.6,0.3,1.2,0.7,1.9,1c0.5,0.2,1,0.3,1.5,0.5
		c0.2,0,0.4,0.1,0.5,0c0.8-0.2,1.5,0,2.3,0.2c1.1,0.3,1.1,0.3,1.7-0.6c0.7-0.9,1.7-1.4,2.7-1.7c1.5-0.4,3-0.3,4.5-0.1
		C43.6,220,43.7,220.1,43.8,220.1z"/>
	<path class="st3" d="M56.5,234c-0.1-0.3-0.2-0.5-0.4-0.8c0.2-0.1,0.3-0.2,0.4-0.3c1.3-0.9,2.6-1.7,3.9-2.6c1.2-0.9,2.2-2,2.9-3.3
		c0.1-0.2,0.1-0.3,0.2-0.5c-0.2-0.1-0.4,0-0.5,0.1c-1.8,0.9-3.6,1.8-5.4,2.7c-0.4,0.2-0.7,0.4-1.1,0.5c-0.5,0.2-1,0.3-1.5,0.4
		c-0.7,0.1-1.3-0.1-1.7-0.7c-0.1-0.2-0.3-0.4-0.4-0.6c-0.4-0.6-0.9-0.9-1.6-1c-2.3-0.2-4.5,0.1-6.6,1.1c-0.4,0.2-0.8,0.4-1.2,0.6
		c-0.2,0.1-0.4,0.2-0.6,0.1c-0.4-0.2-0.7-0.4-1.2-0.6c3.6-1.8,7.4-2.7,11.3-3.1c0.1,0.1,0.1,0.3,0.2,0.4c0.3,0.4,0.6,0.8,1,1.2
		c0.6,0.5,1.3,0.7,2,0.4c0.5-0.2,1.1-0.4,1.6-0.6c2.2-1,4.4-1.9,6.5-3c0.6-0.3,1-0.2,1.5,0.2c0,0.1,0,0.3-0.1,0.5
		c-0.3,1-0.7,2-1.1,3c-0.2,0.5-0.5,1-1,1.4c-0.7,0.7-1.6,1.3-2.4,1.9c-1.3,0.8-2.5,1.5-3.8,2.2C57.2,233.7,56.9,233.8,56.5,234z"/>
	<path class="st3" d="M43.6,222.4c0.1-0.2,0.2-0.3,0.3-0.4c1.5-1.6,3.3-2.6,5.6-2.7c0.3,0,0.6-0.1,0.9-0.1c1.6-0.2,3.2,0,4.8,0.4
		c1,0.2,2.1,0.1,3.1-0.1c0.9-0.3,1.7-0.5,2.7-0.8c0.1,0.3,0.2,0.7,0.3,1c-0.1,0.1-0.1,0.1-0.1,0.1c-1.4,0.7-2.7,1.4-4.3,1.6
		c-0.5,0.1-1.1,0.1-1.6,0.1c-1.9-0.1-3.7-0.3-5.6-0.5c-0.7-0.1-1.4,0-2,0.2c-1,0.2-1.9,0.6-2.7,1.2c-0.3,0.2-0.5,0.3-0.9,0.2
		C43.9,222.5,43.8,222.5,43.6,222.4z"/>
	<path class="st3" d="M66.6,223c-0.3-0.1-0.6-0.2-0.9-0.3c-0.8-0.3-1.7-0.3-2.5-0.2c-0.3,0-0.6,0.2-0.9,0.4
		c-0.2,0.1-0.4,0.3-0.6,0.5c-1.2,1-2.6,1.6-4.2,1.6c-1.4,0.1-2.7,0-4-0.3c-0.2-0.1-0.3-0.1-0.4-0.4c-0.1-0.3-0.2-0.6-0.3-0.9
		c0.3-0.1,0.6-0.1,0.9-0.1c0.9,0,1.9,0.1,2.8,0.1c1.4,0,2.7-0.4,3.8-1.4c0.7-0.7,1.6-1,2.6-1c1.2,0,2.3,0.2,3.3,0.6
		c0.4,0.1,0.4,0.2,0.4,0.6C66.6,222.4,66.6,222.7,66.6,223z"/>
	<path class="st3" d="M35.6,216.9c-0.1-0.1-0.2-0.2-0.4-0.4c0.1-0.1,0.3-0.3,0.4-0.4c0.6-0.7,1.2-1.5,1.8-2.3
		c0.4-0.5,0.7-1.1,0.8-1.7c0.1-0.4,0.4-0.6,0.8-0.6c0.3,0,0.6,0.2,0.6,0.6c0,0.2,0,0.4-0.1,0.5c-0.2,0.5-0.5,1-0.8,1.4
		c-0.8,1.1-1.8,2-2.9,2.8C35.7,216.8,35.7,216.8,35.6,216.9z"/>
	<path class="st3" d="M45.9,204.5c0,0.5-0.5,0.9-0.9,0.9c-0.5,0-0.9-0.4-0.9-1c0-0.5,0.4-0.9,0.9-0.9
		C45.5,203.6,45.9,204,45.9,204.5z"/>
	<path class="st3" d="M48.1,192.3c0,0.5-0.4,0.9-0.9,0.9s-0.9-0.4-0.9-0.9s0.4-0.9,0.9-0.9S48.1,191.8,48.1,192.3z"/>
	<path class="st3" d="M61.6,194.2c0-0.6,0.4-1.1,1.1-1.1c0.6,0,1.1,0.4,1.2,1c0,0.6-0.5,1.1-1.2,1.1C62,195.2,61.6,194.8,61.6,194.2
		z"/>
	<path class="st3" d="M27.4,195.6c-0.2-0.1-0.3-0.3-0.5-0.5c1.4-2.1,2.9-4.2,4.7-6c0.1,0.1,0.2,0.1,0.2,0.1c0.1,0.1,0.2,0.1,0.2,0.2
		C31.8,190.6,28.8,194.7,27.4,195.6z"/>
</g>
<g>
	<g>
		<path class="st4" d="M780.9,33.4c0.3-0.5,0.5-0.9,0.8-1.4c2.4-4,5.8-7.2,9.7-9.8c5.3-3.5,11.1-5.8,17.3-7.2
			c3.2-0.7,6.4-1.2,9.6-1.4s6.4-0.3,9.5-0.1c7.2,0.5,14.2,2,20.8,4.9c5.1,2.3,9.8,5.3,13.6,9.6c1.4,1.6,2.6,3.3,3.7,5.3
			c-0.7-0.1-1.3-0.3-1.8-0.4c-4.7-0.9-9.4-1.9-14.1-2.7c-3.5-0.6-7-1-10.5-1.3s-7-0.5-10.4-0.7c-0.9-0.1-1.7,0.1-2.5,0.7
			c-0.9,0.7-1.1,1.7-1.1,2.7c0,5.8,0,11.7,0,17.5c0,0.8,0,1.6,0.1,2.4c0.1,6.4,0.1,12.8,0.2,19.2c0,0.7,0,1.3,0.1,2
			c0,0.4-0.1,0.5-0.5,0.5c-1.2,0-2.4,0-3.6,0c-0.4,0-0.5-0.2-0.5-0.5c0-2.1,0-4.3,0.1-6.4c0-0.3,0-0.6,0-0.9
			c0.1-6.2,0.1-12.3,0.2-18.5c0-4.7,0.1-9.4,0.1-14c0-0.7-0.1-1.5-0.2-2.2c-0.2-1.8-1.5-2.5-3-2.5c-2.2,0-4.4,0.2-6.5,0.3
			c-1.5,0.1-3,0.2-4.5,0.4c-2.1,0.2-4.3,0.4-6.4,0.7c-2.8,0.4-5.6,0.8-8.4,1.3c-3.7,0.7-7.4,1.5-11.1,2.2
			C781.2,33.4,781.1,33.4,780.9,33.4z"/>
		<path class="st4" d="M809.5,34.6c1.1,0.2,2.2,0.2,3.2,0.5c1.5,0.4,2.3,1.5,2.4,3.1c0.1,2-0.3,3.9-0.6,5.8
			c-0.8,4.6-1.7,9.1-2.6,13.7c-1,4.6-2,9.1-3,13.7c-0.1,0.4-0.3,0.5-0.7,0.4c-6.8-1.6-13.2-4.2-18.9-8.5c-4.3-3.3-7.7-7.2-9.6-12.3
			c-1.1-2.9-1.5-6-1.3-9.1c0.1-0.9,0.3-1.9,0.5-2.8c0-0.2,0.3-0.4,0.5-0.5c3.1-0.6,6.2-1.3,9.3-1.8c2.4-0.4,4.8-0.7,7.3-1
			c1.8-0.2,3.6-0.4,5.4-0.5c2.2-0.2,4.4-0.3,6.5-0.4c0.6,0,1.1,0,1.7,0C809.5,34.7,809.5,34.7,809.5,34.6z"/>
		<path class="st4" d="M837.9,71.8c-0.4-1.5-0.7-2.9-1-4.4c-1-4.7-2.1-9.5-3-14.2c-0.8-4.2-1.5-8.4-2.2-12.6
			c-0.1-0.8-0.1-1.7-0.1-2.5c0.1-2.3,1.6-3.1,3.3-3.2c2-0.1,4-0.1,6,0c1.4,0,2.8,0.2,4.2,0.3c2,0.2,4,0.3,5.9,0.6
			c2.8,0.3,5.6,0.7,8.3,1.2c2.6,0.4,5.2,1,7.8,1.5c0.5,0.1,0.6,0.4,0.7,0.8c1.3,6.4-0.4,12.1-4.1,17.3c-3,4.1-6.8,7.1-11.1,9.6
			c-4.4,2.5-9.2,4.3-14.1,5.5C838.3,71.8,838.1,71.8,837.9,71.8z"/>
	</g>
	<g>
		<path class="st4" d="M824.6,119.3c-0.2,0-0.4,0-0.5,0c-3.5,0-6.9,0-10.4,0c-0.5,0-0.7-0.2-0.8-0.6c-1.9-5.4-3.7-10.9-5.6-16.3
			c-0.1-0.3-0.2-0.6-0.5-0.9c-0.1,0.2-0.2,0.3-0.2,0.5c-1.9,5.5-3.8,11-5.6,16.5c-0.2,0.5-0.4,0.7-1,0.7c-3.3,0-6.6,0-10,0
			c-0.2,0-0.4,0-0.7,0c0.3-0.7,0.5-1.4,0.8-2c3.4-9,6.8-18,10.3-27.1c0.2-0.5,0.5-0.7,1-0.7c3.7,0,7.4,0,11.1,0
			c0.5,0,0.7,0.1,0.9,0.6c3.7,9.5,7.4,19.1,11.1,28.6C824.4,118.9,824.5,119.1,824.6,119.3z"/>
		<path class="st4" d="M883.3,119.3c-0.3,0-0.4,0-0.6,0c-3.4,0-6.8,0-10.2,0c-0.5,0-0.7-0.2-0.9-0.6c-1.9-5.5-3.8-11-5.7-16.6
			c-0.1-0.2-0.1-0.4-0.3-0.7c-0.1,0.3-0.3,0.5-0.3,0.7c-1.9,5.5-3.8,11-5.6,16.5c-0.2,0.5-0.4,0.7-0.9,0.7c-3.4,0-6.8,0-10.1,0
			c-0.2,0-0.3,0-0.6,0c0.3-0.9,0.6-1.7,0.9-2.5c3.4-8.9,6.7-17.7,10.1-26.6c0.2-0.5,0.5-0.7,1-0.7c3.7,0,7.4,0,11.1,0
			c0.5,0,0.7,0.2,0.9,0.6c3.7,9.5,7.4,19.1,11.1,28.6C883.2,118.9,883.2,119.1,883.3,119.3z"/>
		<path class="st4" d="M777.7,89.6c4.5,0,9.1,0,13.6,0c0.8,0,0.8,0,0.8,0.8c0,2.4,0,4.7,0,7.1c0,0.5-0.1,0.7-0.7,0.7
			c-2.2,0-4.5,0-6.7,0c-0.9,0-0.9,0-0.9,0.9c0,6.5,0,13,0,19.5c0,0.8,0,0.8-0.8,0.8c-3.5,0-6.9,0-10.4,0c-0.6,0-0.7-0.2-0.7-0.7
			c0-6.5,0-13,0-19.5c0-0.9,0-0.9-1-0.9c-2.3,0-4.6,0-6.9,0c-0.6,0-0.7-0.2-0.7-0.7c0-2.4,0-4.8,0-7.2c0-0.5,0.2-0.7,0.7-0.7
			C768.6,89.6,773.1,89.6,777.7,89.6z"/>
		<path class="st4" d="M836.4,89.6c4.5,0,9.1,0,13.6,0c0.8,0,0.8,0,0.8,0.8c0,2.3,0,4.7,0,7c0,0.8,0,0.8-0.8,0.8c-2.2,0-4.5,0-6.7,0
			c-0.8,0-0.8,0-0.8,0.8c0,6.5,0,13,0,19.6c0,0.8,0,0.8-0.8,0.8c-3.5,0-6.9,0-10.4,0c-0.5,0-0.7-0.1-0.7-0.7c0-6.6,0-13.2,0-19.7
			c0-0.8,0-0.8-0.8-0.8c-2.4,0-4.8,0-7.1,0c-0.5,0-0.7-0.2-0.6-0.7c0-2.4,0-4.9,0-7.3c0-0.5,0.2-0.6,0.7-0.6
			C827.3,89.6,831.9,89.6,836.4,89.6z"/>
	</g>
</g>
<g id="justo-logo-primary">
	<g id="Group" transform="translate(38.000000, 47.000000)">
		<path id="Path" class="st5" d="M755.9,178.4c-0.7-0.4-1.4-0.7-2-0.8c-0.7,0-1.4,0.2-2,0.6c-1.1,0.8-1.9,2.7-1.8,4
			c0.1,1.5,1.2,2.9,2.6,3.5c1.5,0.7,3.6,0.7,4.9-0.4c1-0.8,1.3-2.2,1.1-3.3C758.4,180.4,757.2,179.3,755.9,178.4z"/>
		<path id="Path_1_" class="st6" d="M751,169.7v2.6c0,0.3-0.2,0.6-0.6,0.6l-2,0.2c-0.3,0-0.6,0.3-0.6,0.6c0,0,0,18.7,0,18.7
			c0,3.8-0.9,7.8-3.9,10.3c-3.4,2.9-8.6,3.4-12.8,2.7c-3.5-0.5-7.1-2.3-7.1-6.3c0-3,1.6-5.1,4.7-5.1c2,0,3.7,1,4.6,2.8
			c0.6,1.3,0.7,2.7,1.3,4c0.3,0.7,1.2,1,1.7,0.2c0.3-0.6,0.2-1.4,0.2-2.1c-0.2-5.2-0.1-10.4-0.1-15.6c0-2.7,0-5.3,0-8
			c0-0.6,0-1.1,0-1.7c0-0.3-0.2-0.6-0.5-0.6l-1.4-0.2c-0.3,0-0.5-0.3-0.5-0.6v-2.6c0-0.4,0.3-0.6,0.6-0.6h15.8
			C750.8,169,751,169.3,751,169.7z"/>
		<path id="Path_2_" class="st6" d="M798.9,183.7c0,2.2-2,3.3-4.1,3.3c-1.2,0-2.2-0.6-2.9-1.4c-0.8-0.9-1-2.1-1.8-3
			c-1-1.1-2.6,0.3-3.2,1.1c-0.6,0.9-0.6,1.9,0.3,2.6c0.8,0.6,1.8,0.8,2.7,1.1c2.5,0.7,5.1,1.2,7.2,2.6c2.2,1.5,3.1,3.8,3.1,6.3
			c0,7.7-6.9,9.6-12.6,9.7c-3.5,0-10.2-0.4-10.2-5.3c0-2.2,1.8-4.1,4.2-4.1c1.6,0,2.9,0.6,3.8,1.8c0.4,0.5,0.7,1.1,0.9,1.7
			c0.3,1.1,0.5,2.1,1.9,2.4c0.6,0.1,1.2,0,1.7-0.1c0.9-0.3,1.8-0.8,2.3-1.6c1.7-2.9-3.4-3.9-5.3-4.5c-2.7-0.8-5.6-1.9-7.1-4.3
			c-0.7-1.2-1-2.6-1-4c0-7.6,6.9-9.3,12.6-9.3C795.6,178.7,798.9,180.1,798.9,183.7z"/>
		<path id="Shape" class="st6" d="M833.2,178.8c-7.8,0-13.4,5.3-13.4,13.6c0,1.6,0.2,3.1,0.6,4.5c-0.2,0.2-0.4,0.4-0.6,0.6
			c-0.9,1-2,1.8-3.2,2.4c-0.6,0.3-1.3,0.4-2,0.3c-1.6-0.5-1.6-2.8-1.6-4.4v-10.9c0-0.5,0.4-1,1-1h4.2c0.7,0,1.3-0.6,1.3-1.3v-3
			c0-0.5-0.4-1-1-1H814c-0.5,0-1-0.4-1-1v-7.6c0-0.6-0.6-1.1-1.1-1c-0.1,0-0.1,0-0.2,0l-7.2,0c-0.9,0-1.3,0.4-1.3,0.9
			c0,0,0,0.7,0,0.7v7c0,0.5-0.4,1-1,1H801c-0.5,0-1,0.4-1,1v3.3c0,0.5,0.4,1,1,1h1.2c0.5,0,1,0.4,1,1v11.2c0,5.9,1.1,9.6,7.8,9.6
			c0.6,0,1.1,0,1.7-0.1v0c2.2-0.4,4.5-1.1,6.3-2.5c1.1-0.9,2-2,2.7-3.2c2.3,3.9,6.4,6.1,11.5,6.1c7.8,0,13.4-5.3,13.4-13.6
			C846.6,184.1,840.9,178.8,833.2,178.8z M835.4,199.3C835.4,199.3,835.3,199.3,835.4,199.3c-2.4,0.8-4.6-0.4-5.9-2.2
			c-1.6-2.2-2.8-5.5-2.1-8.2c0.4-1.6,1.5-2.9,3.2-3.4c4.3-1.4,6.6,2.9,7.7,6C839.5,195.3,838.3,198.4,835.4,199.3z"/>
		<path id="Path_3_" class="st6" d="M776.6,186c-0.1-0.6-0.2-0.6-0.3-1.2c-0.1-0.5-0.2-1.1-0.4-1.6l0,0l-0.7-2.3
			c-0.2-0.5-0.7-0.8-1.3-0.7l-2.9,1c-0.8,0.3-1.6,0.6-2.2,0.9c-0.3,0.2-0.7,0.4-0.9,0.7c-0.1,0.3-0.1,0.7,0,1
			c0.3,1.7,0.7,2.9,0.8,4.6c0.1,1.9,0,4-1.4,5.5c-1.2,1.3-3,2-4.8,1.9c-2.6-0.1-4.8-2-6-4.1c-0.9-1.7-0.8-3-2.2-3
			c-1.2-0.1-2.3,0.7-3.3,1.1c-0.3,0.1-0.8,0.4-0.9,0.7c-0.6,0.8,0.1,2.1,0.3,3.1c0.1,0.4,0.2,0.8,0.3,1.1c1.3,3.9,4.1,8,8,10
			c2.8,1.4,6.3,1.7,9.3,0.7c5.2-1.7,8.2-6.7,8.8-11.9C777.2,191,777,188.5,776.6,186z"/>
		<path id="Path_4_" class="st5" d="M767.6,174.8c0.3,0.2,0.8,0.1,1.1,0.1c1.1,0,2.5,0.5,2.7,1.7c0.4,1.8-1.7,2.6-2.9,3.3
			c-1.2,0.7-2.3,1.3-3.5,1.9c-0.8,0.4-2.2,1.6-2.9,0.6c-0.2-0.3-0.2-0.6-0.3-0.9c-0.2-1.3-0.2-2.6-0.3-3.9c0-1.8,0.1-3.9,1.7-5.1
			c0.7-0.5,1.6-0.8,2.4-0.5c1,0.3,1.4,1.3,1.6,2.2C767.3,174.5,767.4,174.7,767.6,174.8z"/>
	</g>
</g>
<g id="aWqZI7.tif_00000088850103834799523220000004212589756051375536_">
	<g>
		<path class="st7" d="M677.4,210.5c-1.4,2.7-2.2,5.6-3,8.4c-1.9,6.7-3.9,13.3-5.8,20c-0.5,1.6-1.1,3.2-1.2,4.9
			c-0.1,0.9-0.1,1.8,0.8,2.3c0.7,0.4,1.7,0.1,2.5-0.6c1.1-1.1,1.8-2.5,2.4-3.9c0.2-0.5,0.5-1.1,0.7-1.6c0.1-0.3,0.3-0.4,0.6-0.3
			c0.2,0.1,0.4,0.2,0.3,0.5c-0.9,2.3-1.7,4.6-3.5,6.3c-1.7,1.7-5.1,2.1-7.2,0.8c-1.4-0.8-2-2.6-1.7-4.6c0-0.1,0.1-0.3,0-0.5
			c-0.4,0.9-0.8,1.7-1.3,2.5c-1,1.6-2.2,2.9-4.1,3.4c-3,0.7-6.3-1-7.5-3.8c-1.6-3.9-1.2-7.7,0.4-11.4c1.5-3.6,3.9-6.5,7.4-8.3
			c2.8-1.5,5.9-2,9-1.1c0.7,0.2,0.9,0,1.1-0.6c0.7-2.7,1.6-5.4,2.3-8.1c0.3-1.4,0-1.8-1.4-2.1c-0.8-0.1-1.5-0.2-2.3-0.3
			c-0.3,0-0.6,0-0.6-0.4c0-0.4,0.3-0.4,0.6-0.5c2.8-0.5,5.5-0.9,8.3-1.4c0.6-0.1,1.3-0.2,1.9-0.3c0.5-0.1,0.8,0.1,1.3,0.2
			C677.4,210.2,677.4,210.3,677.4,210.5z M654.3,242.4c0,0.8,0.1,1.7,0.3,2.5c0.5,1.7,1.9,2.4,3.5,1.5c0.9-0.5,1.6-1.3,2.1-2.2
			c1.4-2.3,2.3-4.7,3-7.2c1-3.4,2-6.8,3-10.2c0.1-0.5,0.1-0.9-0.1-1.4c-0.7-1.1-1.9-1.6-3.2-1.3c-1,0.2-1.8,0.7-2.5,1.3
			c-1.7,1.5-2.7,3.4-3.5,5.4C655.5,234.6,654.6,238.4,654.3,242.4z"/>
		<path class="st7" d="M608.4,209.6c1.3,0.3,2.6,0.6,3.7,1.4c2.1,1.5,2.4,4.5,0.7,6.4c-1,1.1-2.3,1.2-3.7,1c-1.1-0.2-1.8-0.9-2.1-2
			c-0.4-1.3,0-2.7,1.2-3.6c0.2-0.2,0.5-0.4,0.8-0.6c0.3-0.2,0.6-0.4,0.5-0.8c-0.1-0.4-0.4-0.6-0.7-0.7c-0.8-0.3-1.7-0.3-2.6-0.1
			c-1.5,0.4-2.6,1.4-3.3,2.8c-1,1.7-1.5,3.7-2,5.6c-0.4,1.4-0.7,2.8-1.1,4.2c-0.2,0.6,0,0.7,0.6,0.7c1.8,0,3.5,0,5.3,0
			c0.3,0,0.9-0.3,1,0.4c0.1,0.7-0.3,1-1,1c-1.8,0.1-3.5,0.2-5.3,0.2c-0.7,0-1.1,0.3-1.3,1c-1.1,4.2-2.2,8.4-3.3,12.6
			c-0.8,3.1-1.6,6.2-2.5,9.3c-0.9,3.1-2.4,6-4.9,8.2c-2.9,2.6-6.3,3.5-10.1,2.3c-2.8-0.9-3.8-4.3-2.1-6.6c1-1.3,3.2-1.7,4.8-0.9
			c1.3,0.7,1.9,2.4,1.3,4c-0.3,0.8-0.9,1.2-1.5,1.5c-0.3,0.2-0.7,0.4-0.6,0.8c0.1,0.5,0.6,0.7,1.1,0.7c1.9,0.1,3.1-1,3.9-2.5
			c1.2-2,1.7-4.3,2.3-6.5c2-7.5,4-15.1,6-22.6c0.3-1,0.2-1-0.7-1.1c-1-0.2-2-0.3-3.1-0.5c-0.3,0-0.7,0-0.7-0.5
			c0-0.4,0.3-0.6,0.7-0.6c1.3-0.1,2.6-0.3,3.9-0.4c0.5-0.1,0.8-0.3,0.9-0.9c0.5-2.2,1.2-4.3,2.3-6.3c1.9-3.4,4.5-5.9,8.4-6.7
			c0.4-0.1,0.8,0,1.1-0.2C606.8,209.6,607.6,209.6,608.4,209.6z"/>
		<path class="st7" d="M491.9,239.3c-1.3-0.4-2.5-0.8-3.6-1.6c-2.4-1.7-3.6-4.1-3.4-7c0.2-3.4,2-5.7,5.2-6.9c3.5-1.3,6.8-1,10,0.9
			c0.4,0.3,0.7,0.3,1.2-0.1c1.8-1.4,3.7-2.2,6-1.7c2.3,0.5,3.4,3.1,2,5c-0.6,0.9-2.1,1.4-3.3,1c-1.2-0.4-1.8-1.1-1.7-2.6
			c0-0.4,0.1-0.8,0.1-1.1c0-0.6-0.2-0.8-0.8-0.7c-0.7,0.2-1.2,0.6-1.8,0.9c-0.4,0.3-0.1,0.5,0,0.7c0.5,0.6,0.9,1.2,1.2,1.9
			c1.7,3.9,0.6,8.9-4.2,10.9c-1.5,0.6-3,0.9-4.6,0.9c-1.1,0-2.3,0-3.4,0.3c-0.7,0.2-1.4,0.4-1.5,1.3c-0.1,0.7,0.5,1.2,1.5,1.5
			c1.5,0.4,3,0.5,4.5,0.6c2.6,0.1,5.2,0.2,7.7,0.9c2.1,0.6,3.9,1.4,4.9,3.5c1.2,2.8,0.5,6.7-2.2,8.7c-2.3,1.7-5,2.4-7.8,2.6
			c-2.7,0.2-5.3,0.1-7.9-0.5c-2.1-0.5-4-1.2-5.4-3.1c-1.1-1.5-1.1-3.6,0-5.1c0.8-1.2,2.8-1.7,4.2-1.2c0.4,0.2,0.7,0.4,0.9,0.8
			c0.3,0.6,0.1,1-0.5,1.2c-1.2,0.4-1.9,1.4-1.8,2.7c0.2,2,1.4,3.1,3.2,3.7c3.9,1.2,7.7,1.2,11.5-0.3c2-0.8,3.2-2.5,3.1-4.3
			c0-0.8-0.4-1.5-1.1-1.9c-1.1-0.7-2.4-0.8-3.6-1c-2.4-0.3-4.8-0.2-7.2-0.6c-1.8-0.3-3.6-0.6-5.1-1.7c-1.6-1.1-2.2-2.5-2-4.4
			c0.2-1.8,1.3-2.9,2.9-3.5C490,239.6,490.9,239.4,491.9,239.3z M498.1,231.4c0.1-1.6,0-3.3-0.6-5c-0.5-1.6-1.6-2.4-3.1-2.4
			c-1.5,0-2.4,0.7-3,2.3c-0.8,2.3-0.8,4.7-0.6,7c0.1,1.4,0.4,2.7,1,3.9c0.6,1,1.4,1.5,2.6,1.5c1.2,0,2.1-0.6,2.7-1.6
			C498,235.4,498.1,233.4,498.1,231.4z"/>
		<path class="st7" d="M576.3,241.2c-0.3,1.1-0.6,2.1-1,3.1c-1,2.4-3.1,3.9-5.7,4c-4.5,0.3-8.3-2.5-9.8-6.8c-1.3-3.6-1.4-7.3,0-10.9
			c1.6-4.2,4.9-6.6,9.3-7.3c1.9-0.3,3.9-0.2,5.8,0.4c0.5,0.2,0.7,0.1,0.7-0.5c0-2.6,0-5.2,0-7.8c0-1.7-0.6-2.4-2.3-2.6
			c-0.6-0.1-1.3-0.2-1.9-0.3c-0.3,0-0.8,0.1-0.8-0.4c0-0.5,0.4-0.4,0.8-0.5c1.7-0.3,3.4-0.6,5.2-1c1.4-0.3,2.7-0.5,4.1-0.8
			c1.1-0.2,1.4,0.1,1.3,1.2c-0.1,1.4-0.2,2.8-0.2,4.2c0,9.5,0,19,0,28.4c0,0.2,0,0.4,0,0.6c0.1,1.3,0.6,1.9,1.9,2.1
			c0.5,0.1,1,0.2,1.6,0.3c0.3,0.1,0.4,0.2,0.4,0.5c0,0.3-0.3,0.4-0.5,0.4c-2.5,0-5.1,0-7.6,0c-0.7,0-1-0.4-1-1.1
			C576.3,244.7,576.3,242.9,576.3,241.2z M575.6,233.2c0-2.3,0-4.3,0-6.2c0-0.4,0-0.7-0.2-1c-1.8-2.7-6.7-3-8.3,0.4
			c-0.5,1.1-0.9,2.1-1.1,3.3c-0.7,3.9-0.7,7.8-0.1,11.7c0.2,1.4,0.6,2.7,1.4,3.9c1.5,2.1,4.8,2.1,6.3,0.1c1.3-1.6,1.7-3.5,1.9-5.5
			C575.7,237.5,575.5,235.2,575.6,233.2z"/>
		<path class="st7" d="M532.1,235.7c0,3.2-0.7,6.2-2.9,8.7c-2.1,2.4-4.7,3.7-7.9,4c-2.6,0.2-5-0.3-7.2-1.7c-3.1-2-4.7-4.9-5.3-8.4
			c-0.4-2.6-0.3-5.1,0.7-7.6c1.6-4,4.5-6.5,8.7-7.3c3.9-0.7,7.3,0.3,10.2,3c1.9,1.8,3,4.2,3.4,6.8
			C532.1,234,532.1,234.8,532.1,235.7z M525.6,235.5c0-1.2,0-2.6-0.2-4c-0.2-2.1-0.5-4.2-1.8-6c-1.4-1.9-4.8-2-6.2-0.2
			c-1.4,1.8-1.8,4-2,6.2c-0.3,2.7-0.3,5.5,0,8.2c0.2,1.9,0.5,3.8,1.4,5.5c0.9,1.6,2.6,2.5,4.4,2.1c2-0.4,2.9-1.9,3.5-3.6
			C525.5,241.1,525.6,238.4,525.6,235.5z"/>
		<path class="st7" d="M545.4,248.3c-5.4,0-9.8-3.4-11.1-8.7c-1.1-4.4-0.7-8.6,2.2-12.3c2.1-2.7,5-4.1,8.4-4.2
			c3.4-0.1,6.4,0.9,8.8,3.3c2.1,2.2,3.2,4.9,3.4,7.9c0.2,2,0,3.9-0.6,5.8C555,245.3,550.8,248.3,545.4,248.3z M540.3,235.7
			c0,1.7,0.1,3.5,0.3,5.2c0.2,1.7,0.6,3.3,1.5,4.7c1.6,2.3,4.9,2.3,6.6,0.1c1.3-1.7,1.5-3.7,1.8-5.8c0.3-3,0.3-6,0-8.9
			c-0.2-1.7-0.5-3.5-1.4-5c-1.1-2-3.5-2.7-5.5-1.7c-1.4,0.7-2,2-2.4,3.4C540.4,230.4,540.4,233.1,540.3,235.7z"/>
		<path class="st7" d="M624,232c-0.1,5.1-1.8,9.6-5.7,13c-3,2.7-6.5,3.8-10.5,3.2c-3.6-0.6-5.9-3-6.4-6.6c-0.5-3.2,0.1-6.3,1.4-9.2
			c0.8-1.8,1.8-3.4,3.1-4.8c2.2-2.4,4.9-3.8,8.2-4.3c1.7-0.2,3.4-0.1,5,0.5c2.9,1.1,4.8,3.9,4.9,7C624,231.1,624,231.6,624,232z
			 M618.3,228.4c0-0.5,0-1,0-1.5c-0.1-2-1.3-3.1-3-2.9c-0.6,0.1-1.2,0.4-1.7,0.7c-1.4,1-2.3,2.3-3.1,3.8c-1.7,3.4-2.8,7-3.4,10.7
			c-0.3,2-0.6,4.1-0.1,6.1c0.3,1.5,1.5,2.3,3,2c0.7-0.1,1.3-0.4,1.9-0.9c0.8-0.6,1.4-1.4,2-2.3C616.8,239.4,618,234,618.3,228.4z"/>
		<path class="st7" d="M633.2,248.3c-2.3,0.1-4.3-0.6-5.9-2.1c-1.5-1.4-2.2-3.2-2.4-5.2c-0.4-4.8,1-9.1,4-12.7
			c2.7-3.3,6.2-5.1,10.4-5.1c2.9,0,5.5,1,7.1,3.7c1,1.7,1.3,3.5,1.3,5.4c-0.1,2.8-0.7,5.6-2.1,8c-2.1,3.7-4.9,6.5-9.2,7.6
			C635.4,248.2,634.3,248.4,633.2,248.3z M630.4,243c0,1,0.1,2,0.4,2.9c0.2,0.7,0.7,1.1,1.4,1.4c1.1,0.4,2.1,0,3.1-0.6
			c1.3-0.9,2.2-2.2,2.9-3.6c1.8-3.3,2.9-6.9,3.5-10.7c0.3-1.9,0.6-3.9,0.3-5.9c-0.3-2.3-2.1-3.2-4.1-2.2c-0.7,0.4-1.3,0.9-1.9,1.5
			c-1.2,1.5-2.1,3.1-2.8,4.8C631.6,234.7,630.6,238.8,630.4,243z"/>
	</g>
</g>
<g>
	<path class="st8" d="M480.1,77.6c0.2,0,0.3,0,0.5,0c2.6,0,5.1,0,7.7,0c1.5,0,2.6,0.7,3.4,1.9c0.5,0.8,0.8,1.7,1,2.6
		c0.3,1.2,0.6,2.4,1,3.6c0.6,1.7,1.7,3.2,3,4.4c1.5,1.4,3.2,2.5,5.1,3.4c2.6,1.2,5.4,2,8.2,2.4c2,0.3,3.9,0.4,5.9,0.3
		c4.8-0.3,9.2-1.7,13-4.8c2.7-2.2,4.6-4.9,5.5-8.3c0.3-1.2,0.4-2.4,0.4-3.7c0-7.7,0-15.4,0-23c0-7.5,0-14.9,0-22.4
		c0-0.2,0-0.4,0-0.6c3.3,0,6.7,0,10,0c0,0.2,0,0.4,0,0.6c0,15.1,0,30.2,0,45.3c0,2.8-0.5,5.4-1.8,7.9c-1.3,2.5-3.2,4.5-5.4,6.2
		c-2.5,1.8-5.3,3.1-8.3,4c-2.5,0.8-5.1,1.3-7.7,1.6c-3.8,0.5-7.5,0.5-11.3,0.3c-2.8-0.1-5.5-0.4-8.3-0.9c-4-0.7-7.9-1.7-11.5-3.5
		c-2.5-1.2-4.8-2.8-6.6-4.9c-1.9-2.2-3.2-4.7-3.6-7.5c-0.1-0.4-0.2-0.9-0.2-1.3C480.1,80,480.1,78.8,480.1,77.6z"/>
	<path d="M579.7,33.4c0,0.2,0,0.4,0,0.6c0,5,0,9.9,0,14.9c0,0.2,0,0.4,0,0.6c0.2,0,0.4,0,0.6,0c1.8,0,3.6,0,5.4,0
		c0.6,0,1.2,0.1,1.8,0.2c1.5,0.4,2.5,1.3,3.2,2.7c0.4,0.9,0.6,1.8,0.6,2.8c0,1.4,0,2.9,0,4.3c0,4.6,0,9.1,0,13.7c0,0.2,0,0.4,0,0.6
		c-0.2,0-0.3,0-0.4,0c-1.2,0-2.5,0-3.7,0c-0.4,0-0.8-0.1-1.2-0.1c-1.5-0.4-2.3-1.7-2.1-3.2c0-0.2,0.1-0.4,0.1-0.6
		c0-4.9,0-9.7,0-14.6c0-0.2,0-0.4,0-0.6c-0.2-1.2-1.1-1.9-2.3-1.9c-1.1,0-2,0.9-2.1,2.1c0,0.2,0,0.4,0,0.6c0,5.9,0,11.8,0,17.7
		c0,0.2,0,0.4,0,0.6c-2.6,0-5.1,0-7.7,0c0-0.2,0-0.4,0-0.7c0-13.1,0-26.2,0-39.3c0-0.2,0-0.4,0-0.6
		C574.5,33.4,577.1,33.4,579.7,33.4z"/>
	<path d="M658.7,61.6c0,1.9,0,3.8,0,5.7c0,0.7-0.1,1.5-0.3,2.2c-0.5,1.3-1.3,2.4-2.5,3.1c-1.3,0.7-2.6,1.1-4,1.3
		c-0.4,0.1-0.8,0.1-1.3,0.1c-1.4,0-2.8,0.1-4.2,0c-1.3-0.1-2.7-0.3-3.9-0.9c-0.8-0.4-1.6-0.9-2.3-1.5c-1-1-1.5-2.2-1.5-3.6
		c0-4-0.1-8,0-12c0-2.3,1.1-4,3.1-5.1c1.3-0.7,2.7-1,4.2-1.2c2.2-0.2,4.3-0.2,6.5,0.1c1.4,0.2,2.7,0.6,3.8,1.4
		c1.2,0.8,2,1.8,2.3,3.2c0.1,0.4,0.1,0.7,0.1,1.1C658.8,57.5,658.8,59.5,658.7,61.6C658.8,61.6,658.7,61.6,658.7,61.6z M650.9,61.7
		c0-2.2,0-4.3,0-6.5c0-0.2,0-0.4,0-0.5c-0.1-1.1-0.9-1.9-2-2c-1-0.1-2,0.6-2.3,1.6c-0.1,0.3-0.1,0.6-0.1,1c0,4.3,0,8.7,0,13
		c0,0.2,0,0.4,0,0.6c0.1,1.1,1,1.9,2,1.9c1.1,0.1,2-0.6,2.3-1.6c0.1-0.2,0.1-0.5,0.1-0.8C650.9,66.1,650.9,63.9,650.9,61.7z"/>
	<path d="M568.5,61.6c0,1.9,0,3.8,0,5.7c0,0.7-0.1,1.3-0.3,2c-0.5,1.4-1.3,2.5-2.6,3.2c-1.2,0.7-2.6,1.1-4,1.3
		c-0.4,0.1-0.8,0.1-1.3,0.1c-1.4,0-2.8,0.1-4.2,0c-1.3-0.1-2.7-0.3-3.9-0.9c-1-0.4-1.9-1-2.6-1.8c-0.8-0.9-1.2-1.9-1.2-3.1
		c0-0.2,0-0.4,0-0.6c0-3.8,0-7.5,0-11.3c0-0.8,0.1-1.6,0.4-2.3c0.5-1.2,1.3-2.2,2.4-2.9c1.2-0.7,2.4-1.1,3.7-1.2
		c2.6-0.4,5.2-0.4,7.8,0.1c1.1,0.2,2.1,0.6,3.1,1.2c1.7,1.1,2.6,2.6,2.6,4.6C568.6,57.6,568.5,59.6,568.5,61.6
		C568.5,61.6,568.5,61.6,568.5,61.6z M560.7,61.7c0-2.2,0-4.3,0-6.5c0-0.2,0-0.4,0-0.5c-0.1-1.1-0.9-1.9-1.9-2c-1-0.1-2,0.5-2.3,1.5
		c-0.1,0.3-0.1,0.6-0.1,1c0,4.4,0,8.9,0,13.3c0,0.2,0,0.4,0.1,0.6c0.2,1,1.1,1.8,2.1,1.8c1,0,1.9-0.7,2.2-1.7
		c0.1-0.2,0.1-0.5,0.1-0.7C560.7,66.1,560.7,63.9,560.7,61.7z"/>
	<path d="M613.4,74c-0.2,0-0.3,0-0.5,0c-1.2,0-2.3,0-3.5,0c-0.5,0-0.9-0.1-1.4-0.2c-1-0.3-1.6-0.9-1.9-1.9c-0.1-0.4-0.2-0.8-0.2-1.2
		c0-5.1,0-10.2,0-15.3c0-0.3,0-0.6-0.1-0.8c-0.2-1.1-1.2-1.7-2.4-1.6c-1.1,0.1-1.9,1-1.9,2.1c0,0.2,0,0.4,0,0.6c0,5.9,0,11.7,0,17.6
		c0,0.2,0,0.4,0,0.6c-0.4,0.1-6.2,0.1-6.8,0c0-8.1,0-16.1,0-24.3c0.2,0,0.3,0,0.5,0c4.2,0,8.3,0,12.5,0c0.6,0,1.2,0.1,1.8,0.2
		c1.5,0.4,2.6,1.3,3.2,2.7c0.4,0.9,0.6,1.8,0.6,2.8c0,6.1,0,12.2,0,18.2C613.4,73.7,613.4,73.8,613.4,74z"/>
	<path d="M669.5,73.8c-2.3,0-4.5,0-6.8,0c0-8.1,0-16.2,0-24.3c0.1,0,0.2,0,0.4,0c4.2,0,8.4,0,12.7,0c0.6,0,1.1,0.1,1.7,0.2
		c1.4,0.4,2.4,1.2,3,2.5c0.4,0.8,0.7,1.6,0.7,2.5c0,0.3,0,0.6,0,0.8c0,5.9,0,11.8,0,17.7c0,0.2,0,0.4,0,0.6c-0.2,0-0.3,0-0.5,0
		c-1.2,0-2.4,0-3.5,0c-0.4,0-0.7,0-1.1-0.1c-1.5-0.3-2.4-1.5-2.3-3.1c0-0.5,0.1-0.9,0.1-1.4c0-4.7,0-9.3,0-14c0-0.4,0-0.7-0.1-1.1
		c-0.3-1-1.3-1.6-2.4-1.4c-1,0.1-1.8,1-1.8,2c0,0.2,0,0.4,0,0.6c0,5.9,0,11.7,0,17.6C669.5,73.4,669.5,73.6,669.5,73.8z"/>
	<path d="M617,65.2c0.1,0,0.2,0,0.2,0c1.6,0,3.1,0,4.7,0c1,0,1.9,0.8,2.1,1.8c0.1,0.4,0.1,0.8,0.1,1.3c0,0.4,0,0.8,0.1,1.1
		c0.2,0.7,0.7,1.4,1.7,1.3c0.3,0,0.6,0,0.9-0.1c0.9-0.2,1.4-0.7,1.5-1.7c0-0.3,0-0.6,0-0.9c0-0.8,0-1.7,0-2.5c0-0.6-0.2-1-0.7-1.4
		c-0.6-0.4-1.2-0.6-1.9-0.6c-0.8,0-1.6,0-2.4-0.1c-0.7-0.1-1.4-0.1-2.1-0.3c-1.3-0.2-2.3-0.9-3.1-1.8c-0.8-0.8-1.1-1.8-1.1-2.9
		c0-1.1,0-2.3,0-3.4c0-1.5,0.6-2.7,1.7-3.6c0.9-0.7,1.9-1.1,2.9-1.4c2.7-0.6,5.3-0.7,8-0.1c0.8,0.2,1.5,0.5,2.2,0.8
		c2,1,3.1,2.7,3.5,4.9c0.1,0.7,0.2,1.4,0.1,2.1c-0.2,0-0.3,0-0.4,0c-1.4,0-2.8,0-4.3,0c-1.3,0-2.2-0.8-2.4-2.1c0-0.3,0-0.6-0.1-0.9
		c0-0.2,0-0.4,0-0.6c-0.1-0.8-0.6-1.3-1.4-1.4c-0.5,0-1-0.1-1.5,0.1c-0.7,0.2-1.1,0.6-1.2,1.4c0,0.3-0.1,0.5-0.1,0.8c0,1,0,2,0,3
		c0,0.6,0.2,1,0.7,1.3c0.7,0.4,1.4,0.6,2.2,0.6c1.2,0,2.4,0,3.6,0.2c1.5,0.2,2.7,0.8,3.7,1.9c0.7,0.8,1.1,1.7,1.1,2.8
		c0,1.2,0,2.5,0,3.7c0,1.4-0.6,2.6-1.6,3.5c-0.8,0.7-1.8,1.2-2.9,1.4c-2.8,0.7-5.6,0.7-8.4,0c-0.7-0.2-1.4-0.5-2.1-0.8
		c-1.9-1-2.9-2.7-3.3-4.7C616.9,67.1,617,66.2,617,65.2z"/>
	<path class="st8" d="M531.2,53.5c-0.6,0-1.1,0-1.6,0c-1.5,0-3.1,0-4.6,0c-0.6,0-1.2-0.1-1.8-0.4c-1-0.4-1.5-1.2-1.5-2.3
		c0-0.4,0-0.8-0.1-1.1c-0.3-1.7-2.1-2.6-3.5-1.8c-0.9,0.5-1.3,1.1-1.4,2.1c0,0.2,0,0.5,0,0.7c0,5.3,0,10.7,0,16c0,0.5,0,0.9,0.2,1.4
		c0.3,1,1.1,1.6,2.1,1.7c1.1,0.1,1.8-0.4,2.3-1.3c0.2-0.3,0.2-0.6,0.3-1c0-0.6,0-1.2,0.1-1.8c0.2-1.6,1.3-2.7,2.9-2.7
		c2.1,0,4.3,0,6.4,0c0.1,0,0.1,0,0.3,0c0,0.2,0,0.3,0,0.5c0,0.8,0,1.5,0,2.3c0,1-0.1,2-0.4,3c-0.1,0.3-0.3,0.6-0.4,0.9
		c-0.9,1.5-2.3,2.5-3.9,3.1c-1.5,0.6-3,0.9-4.6,1.1c-2,0.2-4.1,0.2-6.1,0c-1.8-0.2-3.6-0.6-5.3-1.6c-0.8-0.4-1.5-1-2.1-1.7
		c-1.2-1.3-1.6-2.9-1.6-4.6c0-2.9,0-5.8,0-8.7c0-1.9,0-3.8,0-5.7c0-0.7,0.1-1.4,0.2-2.1c0.3-1.9,1.4-3.1,2.9-4
		c1.3-0.8,2.7-1.3,4.2-1.6c1.4-0.3,2.8-0.4,4.2-0.4c1.2,0,2.4,0,3.5,0.1c2.1,0.2,4,0.7,5.8,1.7c1.8,1,3,2.5,3.4,4.6
		C531.2,50.8,531.3,52.8,531.2,53.5z"/>
	<path class="st8" d="M503.7,53.8c-0.3,0-0.5,0-0.7,0c-1.7,0-3.4,0-5.2,0c-1.7,0.1-2.9-1-3-2.8c0-0.3,0-0.6,0-0.9
		c0-1.5-0.8-2.4-2.3-2.5c-0.3,0-0.6,0-0.9,0c-1,0-1.7,0.5-2.1,1.4c-0.2,0.4-0.3,0.9-0.3,1.4c0,1.3,0,2.6,0,3.9
		c0,0.8,0.4,1.4,1.1,1.7c0.7,0.4,1.4,0.6,2.2,0.6c1.3,0.1,2.7,0.1,4,0.2c2,0.1,3.7,0.8,5.1,2.2c1.1,1.1,1.7,2.4,1.6,4
		c0,1.5,0,2.9,0,4.4c0,1.9-0.8,3.4-2.1,4.5c-1.2,1-2.6,1.6-4.1,1.9c-1.2,0.3-2.5,0.4-3.7,0.4c-1.1,0-2.3,0-3.4-0.1
		c-1.7-0.1-3.4-0.5-5-1.4c-2.4-1.3-3.8-3.3-4.3-6c-0.2-1.2-0.2-2.4-0.2-3.6c0,0,0-0.1,0-0.2c0.1,0,0.3,0,0.4,0c1.7,0,3.5,0,5.2,0
		c1.2,0,2,0.6,2.5,1.7c0.2,0.5,0.3,1.1,0.3,1.7c0,0.4,0,0.9,0.1,1.3c0,0.2,0.1,0.4,0.2,0.7c0.3,1,0.9,1.5,2.2,1.6
		c0.4,0,0.9,0,1.3-0.1c0.7-0.2,1.2-0.6,1.4-1.2c0.2-0.4,0.3-0.9,0.3-1.4c0-1.3,0-2.6,0-4c0-0.8-0.4-1.4-1.1-1.7
		c-0.7-0.4-1.5-0.6-2.3-0.6c-1.1-0.1-2.2,0-3.3-0.1c-0.9-0.1-1.9-0.2-2.7-0.5c-1.7-0.5-3-1.6-3.9-3.2c-0.4-0.8-0.6-1.6-0.6-2.5
		c0-1.5,0-3.1,0-4.6c0-0.9,0.2-1.7,0.7-2.5c0.6-1,1.5-1.8,2.5-2.4c1.2-0.7,2.5-1,3.9-1.3c1.8-0.3,3.7-0.4,5.6-0.3
		c2.1,0.1,4.1,0.5,6,1.5c2.6,1.3,4,3.5,4.3,6.4C503.6,52.1,503.6,52.9,503.7,53.8z"/>
</g>
<g>
	<rect x="203.3" y="21.1" class="st9" width="177.1" height="90.6"/>
	<g>
		<path class="st10" d="M376.2,108H207.1V24.9h169.1V108z M207.2,107.9H376V25H207.2V107.9z"/>
	</g>
	<rect x="209.3" y="26.8" class="st10" width="165" height="43.4"/>
	<g>
		<path class="st11" d="M242.6,84.3l-4.9,6.6h26.5c1.3,0,1.3,0.5,0.7,1.4c-0.7,0.9-1.8,2.5-2.5,3.4c-0.3,0.5-1,1.3,1.1,1.3h10.8
			l3.2-4.4c2-2.7,0.2-8.3-6.9-8.3L242.6,84.3L242.6,84.3z"/>
		<path class="st11" d="M235.8,105.8l9.8-13.3h12.1c1.3,0,1.3,0.5,0.7,1.4l-2.5,3.4c-0.3,0.5-1,1.3,1.1,1.3h16.2
			c-1.3,1.8-5.7,7.2-13.6,7.2H235.8z M291.7,98.6l-5.3,7.2h-14l5.3-7.2H291.7z M313,96.9h-34.1l9.3-12.7h14l-5.3,7.3h6.2l5.4-7.3h14
			L313,96.9z M311.8,98.6l-5.3,7.2h-14l5.3-7.2H311.8z M215.9,101.4h20.6l-1.1,1.5h-19.4V101.4z M215.9,98.6h22.7l-1.1,1.5h-21.5
			V98.6z M215.9,104.2h18.5l-1.1,1.5h-17.4V104.2z M367.9,102.9h-20.5l1.1-1.5h19.4V102.9z M367.9,105.8h-22.6l1.1-1.5h21.5V105.8z
			 M350.6,98.6h17.3v1.5h-18.4L350.6,98.6z M341.7,84.3l-9.3,12.7h-14.8l9.3-12.7H341.7z M316.4,98.6c0,0-1,1.4-1.5,2.1
			c-1.7,2.4-0.2,5.1,5.5,5.1h22.4l5.3-7.2L316.4,98.6L316.4,98.6z"/>
	</g>
	<path class="st12" d="M215.9,42.4l1.8-6h9c1.9,0,3.4,0.5,4.5,1.6c1.1,1.1,1.6,2.6,1.6,4.5c0,1.2-0.3,2.2-0.8,3
		c-0.5,0.8-1.2,1.3-2.2,1.6c1.3,0.3,2.2,0.9,2.9,1.8c0.6,0.9,0.9,2,0.9,3.5c0,2.1-0.6,3.6-1.8,4.7c-1.2,1.1-2.9,1.6-5.2,1.6h-9V42.4
		H215.9z M224.1,41.6v3.2h0.9c0.6,0,1-0.1,1.3-0.4c0.3-0.3,0.4-0.7,0.4-1.2c0-0.5-0.1-0.9-0.4-1.2c-0.3-0.3-0.7-0.4-1.3-0.4H224.1z
		 M224.1,49.5v3.5h1.1c0.7,0,1.2-0.2,1.5-0.5c0.4-0.3,0.5-0.7,0.5-1.3c0-0.6-0.2-1-0.5-1.3c-0.4-0.3-0.9-0.5-1.5-0.5H224.1z"/>
	<path class="st12" d="M236.1,36.4h6.8v16.2h5.3l-1.8,6l-10.2,0c0,0,0-9.9,0-16.2h-1.8L236.1,36.4L236.1,36.4z"/>
	<path class="st12" d="M248.5,42.4l1.8-6h0h6.7v12.1c0,1.4,0.1,2.4,0.4,2.9c0.3,0.5,0.8,0.8,1.5,0.8c0.7,0,1.2-0.3,1.5-0.8
		c0.3-0.5,0.4-1.5,0.4-2.9V36.4h6.7v12c0,1.6-0.1,2.9-0.3,3.9c-0.2,1-0.5,1.9-0.8,2.6c-0.8,1.4-1.8,2.4-3.1,3.2
		c-1.3,0.7-2.8,1.1-4.4,1.1c-1.7,0-3.2-0.4-4.5-1.1c-1.3-0.7-2.3-1.8-3.1-3.2c-0.4-0.7-0.6-1.5-0.8-2.5c-0.2-1-0.3-2.3-0.3-3.9
		c0,0,0-4,0-6H248.5z"/>
	<path class="st12" d="M269.3,42.4l1.8-6h0h12.6l-1.8,6h-4.2v2.1h5.4l-1.7,5.7h-3.7v2.3h6.1l-1.8,6h-10.9c0,0,0-9.9,0-16.2H269.3z"
		/>
	<path class="st13" d="M295.5,36.4h5.4c1.7,0,3.2,0.1,4.5,0.3c1.2,0.2,2.2,0.6,3,1.1c1.6,1,2.9,2.3,3.7,4c0.9,1.7,1.3,3.6,1.3,5.7
		c0,2.1-0.4,4-1.3,5.7c-0.9,1.7-2.1,3-3.8,4c-0.8,0.5-1.8,0.8-3,1.1c-1.2,0.2-2.9,0.3-4.9,0.3h-4.9V42.4h0h-1.8L295.5,36.4
		L295.5,36.4z M302.2,51.7c1.5,0,2.7-0.4,3.4-1.1c0.7-0.7,1.1-1.8,1.1-3.2c0-1.4-0.3-2.5-1-3.2c-0.7-0.7-1.7-1.1-3.1-1.1h-0.3V51.7z
		"/>
	<path class="st13" d="M318.2,42.4l-4.9,16.2h7.2l0.6-2.8h5.1l0.6,2.8h7.3l-6.6-22.2h-9.3l-1.8,6H318.2z"/>
	<path class="st14" d="M322.3,50.5h2.8l-0.6-2.5c-0.3-1.3-0.5-2.3-0.6-2.9c-0.1-0.7-0.2-1.3-0.2-1.9h-0.1c0,0.6-0.1,1.3-0.2,1.9
		c-0.1,0.7-0.3,1.7-0.6,2.9L322.3,50.5z"/>
	<path class="st13" d="M335.2,36.4h8.5c2.5,0,4.4,0.6,5.7,1.9c1.3,1.3,2,3.1,2,5.6c0,1.6-0.3,2.9-1,3.9c-0.7,1-1.5,1.6-2.7,1.8l5,9
		h-7.6l-3.3-7.3v7.3h-6.6V42.4l0,0h-1.8L335.2,36.4L335.2,36.4z M341.8,42.1v4.4h1.1c0.6,0,1.1-0.2,1.5-0.6c0.3-0.4,0.5-0.9,0.5-1.6
		c0-0.7-0.2-1.3-0.5-1.6c-0.3-0.4-0.8-0.6-1.5-0.6H341.8z"/>
	<path class="st13" d="M356.4,58.5V42.4h-3.9l1.8-6h13.5l-1.8,6h-2.9v16.2H356.4z"/>
</g>
</svg>
