<svg width="124" height="140" viewBox="0 0 124 140" fill="none" xmlns="http://www.w3.org/2000/svg">
<path d="M79.2171 91.3894L39.6076 114.269V73.513L79.2171 50.6358V91.3894Z" fill="#FF9F00"/>
<path d="M39.6076 114.269L0 91.3894V50.6358L39.6076 73.513V114.269Z" fill="#280A38"/>
<path d="M79.2171 50.6358L39.6076 73.513L0 50.6358L39.6076 27.7565L79.2171 50.6358Z" fill="white"/>
<path d="M64.3208 42.0686L24.7564 64.8909L14.8962 59.1853L54.4587 36.363L64.3208 42.0686Z" fill="#B066FF"/>
<path d="M24.7545 64.9458L14.8962 59.1971V70.5533L24.7564 76.304L24.7545 64.9458Z" fill="#8D52CC"/>
<path d="M124 117.083L84.3925 139.962V99.2048L124 76.3276V117.083Z" fill="#FF9F00"/>
<path d="M84.3924 139.962L44.7849 117.083V76.3276L84.3924 99.2048V139.962Z" fill="#280A38"/>
<path d="M124 76.3276L84.3924 99.2048L44.7849 76.3276L84.3924 53.4503L124 76.3276Z" fill="white"/>
<path d="M109.106 67.7624L69.5413 90.5827L59.6791 84.8772L99.2435 62.0568L109.106 67.7624Z" fill="#B066FF"/>
<path d="M69.5393 90.6396L59.6791 84.8908V96.247L69.5413 101.996L69.5393 90.6396Z" fill="#8D52CC"/>
<path d="M101.608 63.6328L62 86.512V45.7565L101.608 22.8773V63.6328Z" fill="#FF9F00"/>
<path d="M62 86.512L22.3924 63.6328V22.8773L62 45.7565V86.512Z" fill="#280A38"/>
<path d="M101.608 22.8773L62 45.7565L22.3924 22.8773L62 0L101.608 22.8773Z" fill="white"/>
<path d="M86.7133 14.312L47.1489 37.1323L37.2887 31.4287L76.8511 8.60641L86.7133 14.312Z" fill="#B066FF"/>
<path d="M47.1469 37.1893L37.2887 31.4405V42.7967L47.1489 48.5474L47.1469 37.1893Z" fill="#8D52CC"/>
</svg>
