<svg width="143" height="125" viewBox="0 0 143 125" fill="none" xmlns="http://www.w3.org/2000/svg">
<path d="M0 80.5474L50.286 109.507V57.9191L0 28.9595V80.5474Z" fill="#280A38"/>
<path d="M50.2861 109.507L100.572 80.5474V28.9595L50.2861 57.9191V109.507Z" fill="#FF6429"/>
<path d="M0 28.9596L50.286 57.9192L100.572 28.9596L50.286 0L0 28.9596Z" fill="white"/>
<path d="M18.9121 18.1165L69.1416 47.0051L81.6602 39.7819L31.4307 10.8933L18.9121 18.1165Z" fill="#14B4EF"/>
<path d="M69.1437 47.0761L81.6602 39.7986V54.1739L69.1416 61.4514L69.1437 47.0761Z" fill="#1090BF"/>
<path d="M122.946 113.927L111.407 107.237L107.265 103.784L118.803 110.472L122.946 113.927Z" fill="#280A38"/>
<path d="M136.25 75.8916L124.709 69.2031L130.462 69.4747L142 76.1631L136.25 75.8916Z" fill="#FF9F00"/>
<path d="M100.98 125L89.4397 118.312L90.0742 110.422L101.613 117.111L100.98 125Z" fill="#280A38"/>
<path d="M130.193 60.4698L118.655 53.7813L124.891 48.0287L136.43 54.7192L130.193 60.4698Z" fill="#280A38"/>
<path d="M123.702 75.7621C123.2 74.9364 122.501 74.2469 121.668 73.7547L110.128 67.0704C110.961 67.5618 111.66 68.2515 112.161 69.0778C115.17 73.8591 113.059 83.1398 107.428 89.8889L107.326 90.0121C105.832 91.8128 104.042 93.347 102.032 94.549C98.9912 96.2995 96.0259 96.6191 93.8459 95.3553L105.385 102.04C107.565 103.303 110.532 102.984 113.57 101.233C115.582 100.029 117.372 98.4919 118.866 96.688L118.969 96.5648C124.6 89.8241 126.711 80.5539 123.702 75.7621Z" fill="#280A38"/>
<path d="M117.995 53.3636C116.732 52.639 115.338 52.1718 113.893 51.9891L125.434 58.6734C126.878 58.8564 128.272 59.3236 129.534 60.0478L117.995 53.3636Z" fill="#FF6429"/>
<path d="M90.6208 121.073L79.0823 114.385L74.8291 107.654L86.3698 114.343L90.6208 121.073Z" fill="#280A38"/>
<path d="M86.3698 114.343L74.8291 107.654L79.8676 99.9696L91.4061 106.658L86.3698 114.343Z" fill="#FF9F00"/>
<path d="M91.4082 106.664L79.8696 99.98C79.3657 97.7647 79.1614 95.4921 79.2624 93.2227L90.803 99.9069C90.7014 102.176 90.9049 104.449 91.4082 106.664V106.664Z" fill="#280A38"/>
<path d="M114.366 61.1299L102.827 54.4414L105.904 46.0255L117.442 52.714L114.366 61.1299Z" fill="#280A38"/>
<path d="M117.442 52.7139L105.904 46.0255L114.525 44.1038L126.064 50.7922L117.442 52.7139Z" fill="#FF9F00"/>
<path d="M108.251 65.3221L96.7107 58.6379C98.3018 57.2698 100.015 56.0498 101.829 54.9928C102.162 54.8007 102.495 54.6189 102.828 54.4435L114.366 61.1277C114.033 61.3032 113.7 61.4849 113.369 61.6771C111.555 62.7335 109.842 63.9536 108.251 65.3221Z" fill="#FF6429"/>
<path d="M94.1516 85.212L82.613 78.5277C83.6996 75.8442 85.0044 73.2537 86.5144 70.7823L98.0551 77.4666C96.5435 79.9375 95.238 82.528 94.1516 85.212Z" fill="#FF6429"/>
<path d="M87.666 88.1907L76.1274 81.5022L82.6108 78.5236L94.1515 85.212L87.666 88.1907Z" fill="#280A38"/>
<path d="M85.0506 99.6375L73.512 92.9469L76.1275 81.5022L87.6661 88.1906L85.0506 99.6375Z" fill="#FF9F00"/>
<path d="M136.25 75.8916L142.002 76.1632L139.387 87.6058L132.895 90.5845C131.808 93.2691 130.503 95.8603 128.992 98.332L130.876 104.486L122.933 113.925L118.791 110.472C117.197 111.844 115.479 113.067 113.66 114.126C113.331 114.316 113.002 114.497 112.674 114.669L109.598 123.085L100.968 125L101.596 117.111C99.8921 116.9 98.2631 116.286 96.8447 115.32L90.6147 121.077L86.3637 114.347L91.4084 106.664C90.9051 104.449 90.7015 102.176 90.8032 99.9069L85.0527 99.6417L87.6662 88.1969L94.158 85.2183C95.2445 82.5349 96.55 79.9451 98.0614 77.475L96.1767 71.3171L104.12 61.8755L108.264 65.3284C109.855 63.9599 111.568 62.7398 113.382 61.6834C113.713 61.4912 114.046 61.3095 114.379 61.134L117.455 52.7202L126.079 50.7985L125.45 58.6838C127.157 58.8966 128.788 59.5109 130.21 60.476L136.447 54.7234L140.7 61.4557L135.638 69.1342C136.145 71.3492 136.35 73.622 136.25 75.8916V75.8916ZM118.969 96.5711C124.6 89.822 126.717 80.5434 123.704 75.76C121.702 72.5516 117.765 72.0816 113.478 74.5422C111.424 75.7776 109.6 77.3577 108.086 79.2129C102.455 85.9619 100.338 95.2426 103.351 100.026C105.412 103.354 109.424 103.627 113.57 101.24C115.582 100.035 117.372 98.4982 118.866 96.6943L118.969 96.5711" fill="#B066FF"/>
<path d="M98.053 77.4686L86.5144 70.7802L84.6255 64.6223L96.1641 71.3108L98.053 77.4686Z" fill="#280A38"/>
<path d="M96.1641 71.3109L84.6255 64.6224L92.5685 55.1809L104.107 61.8694L96.1641 71.3109Z" fill="#FF9F00"/>
</svg>
