<svg width="134" height="116" viewBox="0 0 134 116" fill="none" xmlns="http://www.w3.org/2000/svg">
<path d="M66.7741 64.6957L22.2574 39.0444V90.3469L66.7741 116V64.6957Z" fill="#280A38"/>
<path d="M111.291 39.0444L66.7741 64.6957V116L111.291 90.3469V39.0444Z" fill="#FF6429"/>
<path d="M22.2574 39.0444L66.7741 64.6957L44.5167 77.5213L0 51.8701L22.2574 39.0444Z" fill="white"/>
<path d="M89.0334 77.5213L66.7741 64.6957L111.291 39.0444L133.548 51.8701L89.0334 77.5213Z" fill="white"/>
<path d="M22.2574 39.0443L0 26.2186L44.5167 0.567383L66.7741 13.393L22.2574 39.0443Z" fill="white"/>
<path d="M89.4833 0L134 25.6513L111.291 39.0443L66.7741 13.3931L89.4833 0Z" fill="white"/>
<path d="M66.7741 13.3931V64.6956L111.291 39.0443L66.7741 13.3931Z" fill="#280A38"/>
<path d="M66.7741 13.3931L22.2574 39.0443L66.7741 64.6956V13.3931Z" fill="#B066FF"/>
</svg>
