<svg width="118" height="141" viewBox="0 0 118 141" fill="none" xmlns="http://www.w3.org/2000/svg">
<path d="M103.618 94.1517L91.0007 86.8419L88.1716 84.4872L100.791 91.795L103.618 94.1517Z" fill="#280A38"/>
<path d="M114.072 65.4986L101.454 58.1887L105.382 58.376L118 65.6839L114.072 65.4986Z" fill="white"/>
<path d="M87.5998 101.86L74.9801 94.5506L75.4126 89.1704L88.0322 96.4803L87.5998 101.86Z" fill="#280A38"/>
<path d="M109.357 54.2245L96.7396 46.9147L100.993 42.9949L113.613 50.3027L109.357 54.2245Z" fill="#280A38"/>
<path d="M103.164 67.5793C102.867 67.091 102.454 66.6834 101.961 66.3928L89.3437 59.083C89.8397 59.3728 90.2562 59.7804 90.5561 60.2694C92.3364 63.1035 91.0876 68.5945 87.7533 72.5908C86.8586 73.6876 85.7797 74.6214 84.5646 75.3504C83.9455 75.7186 83.2736 75.9903 82.5721 76.1561C81.4829 76.4018 80.5069 76.283 79.7188 75.8278L92.3384 83.1356C93.1245 83.5928 94.1025 83.7117 95.1897 83.4659C95.8915 83.3012 96.5636 83.0294 97.1822 82.6602C98.3982 81.9324 99.4773 80.9985 100.371 79.9006C103.697 75.9043 104.944 70.4113 103.164 67.5793Z" fill="#280A38"/>
<path d="M96.4244 46.7314L109.042 54.0413C108.179 53.5452 107.232 53.2126 106.247 53.0603L93.6297 45.7505C94.614 45.9027 95.5616 46.2353 96.4244 46.7314V46.7314Z" fill="#FF6429"/>
<path d="M77.1524 93.7086L64.5349 86.3988L67.9762 81.1536L80.5938 88.4634L77.1524 93.7086Z" fill="#FF6429"/>
<path d="M80.6564 99.2318L68.0388 91.922L64.5349 86.3988L77.1525 93.7086L80.6564 99.2318Z" fill="#280A38"/>
<path d="M80.5938 88.4634L67.9762 81.1536C67.6662 79.6976 67.5305 78.21 67.572 76.7222L80.1917 84.032C80.1495 85.5198 80.2845 87.0073 80.5938 88.4634Z" fill="#280A38"/>
<path d="M99.5889 49.2473L86.9713 41.9374L94.0621 40.3562L106.682 47.666L99.5889 49.2473Z" fill="white"/>
<path d="M97.4893 54.99L84.8697 47.6801L86.9713 41.9374L99.5889 49.2472L97.4893 54.99Z" fill="#280A38"/>
<path d="M93.4862 57.7334L80.8666 50.4236C81.9762 49.4963 83.1633 48.6654 84.4151 47.94L84.8697 47.6862L97.4893 54.99C97.3358 55.0725 97.1842 55.1571 97.0327 55.2438C95.7814 55.9712 94.5949 56.8041 93.4862 57.7334V57.7334Z" fill="#FF6429"/>
<path d="M82.8449 72.4197L70.2253 65.1098C70.9559 63.3606 71.8108 61.6657 72.7836 60.0378L85.4032 67.3477C84.4296 68.9751 83.5747 70.6701 82.8449 72.4197V72.4197Z" fill="#FF6429"/>
<path d="M54.0572 128.9L41.4376 121.59L36.9091 117.816L49.5267 125.125L54.0572 128.9Z" fill="#280A38"/>
<path d="M78.4235 74.45L65.8059 67.1402L70.2314 65.1118L82.849 72.4196L78.4235 74.45Z" fill="white"/>
<path d="M76.2714 83.8486L63.6538 76.5388L65.8059 67.1401L78.4235 74.45L76.2714 83.8486Z" fill="#280A38"/>
<path d="M114.072 65.4985L118 65.6838L115.854 75.0885L111.431 77.1169C110.699 78.8646 109.842 80.5577 108.866 82.1828L110.157 86.3846L103.618 94.1517L100.789 91.795C99.6799 92.7243 98.4927 93.5573 97.2408 94.2846C97.0892 94.3713 96.9377 94.4579 96.7861 94.5405L94.6865 100.281L87.5957 101.86L88.0322 96.4842C86.9214 96.3163 85.8585 95.9176 84.9121 95.3139L80.6564 99.2358L77.1524 93.7126L80.5877 88.4754C80.2777 87.0194 80.1421 85.5319 80.1836 84.044L76.2552 83.8587L78.4073 74.46L82.8449 72.4196C83.5747 70.67 84.4296 68.975 85.4032 67.3476L84.114 63.1357L90.6531 55.3787L93.4822 57.7334C94.5908 56.8041 95.7773 55.9712 97.0286 55.2438C97.1802 55.1571 97.3317 55.0725 97.4853 54.99L99.5849 49.2472L106.678 47.666L106.243 53.0502C107.351 53.2205 108.41 53.6206 109.353 54.2245L113.609 50.3027L117.115 55.8259L113.68 61.063C113.986 62.5208 114.118 64.0097 114.072 65.4985V65.4985ZM100.361 79.8986C103.697 75.9043 104.944 70.4113 103.164 67.5792C101.981 65.6818 99.6495 65.4058 97.1135 66.8622C95.8979 67.5906 94.8189 68.5244 93.9247 69.6217C90.5905 73.6161 89.3416 79.107 91.1239 81.9371C91.9706 83.3068 93.4316 83.8547 95.1796 83.4599C95.8814 83.2951 96.5535 83.0233 97.1721 82.6542C98.3881 81.9264 99.4672 80.9925 100.361 79.8946" fill="#FF9F00"/>
<path d="M85.4072 67.3476L72.7876 60.0378L71.5004 55.8259L84.118 63.1358L85.4072 67.3476Z" fill="#280A38"/>
<path d="M84.118 63.1358L71.5004 55.826L78.0395 48.069L90.6571 55.3788L84.118 63.1358Z" fill="white"/>
<path d="M68.6047 87.3354L55.985 80.0276L62.2756 80.3217L74.8932 87.6315L68.6047 87.3354Z" fill="white"/>
<path d="M89.6448 53.7936L77.0272 46.4857L74.2001 44.129L86.8177 51.4389L89.6448 53.7936Z" fill="#280A38"/>
<path d="M100.1 25.1424L87.4805 17.8325L91.4089 18.0158L104.026 25.3257L100.1 25.1424Z" fill="white"/>
<path d="M30.0365 141L17.4189 133.69L18.11 125.069L30.7276 132.379L30.0365 141Z" fill="#280A38"/>
<path d="M73.6262 61.5041L61.0066 54.1943L61.4391 48.8121L74.0587 56.122L73.6262 61.5041Z" fill="#280A38"/>
<path d="M95.3857 13.8643L82.7681 6.55652L87.0218 2.63672L99.6394 9.94656L95.3857 13.8643Z" fill="#280A38"/>
<path d="M89.1901 27.2231C88.8942 26.7338 88.4811 26.3254 87.9877 26.0347L75.3681 18.7329C75.8642 19.0227 76.2807 19.4303 76.5806 19.9193C78.3629 22.7494 77.112 28.2424 73.7778 32.2367C72.8836 33.3346 71.8046 34.2691 70.589 34.9983C69.9706 35.3663 69.2993 35.638 68.5986 35.804C67.5094 36.0497 66.5313 35.9289 65.7453 35.4736L78.3629 42.7835C79.151 43.2387 80.127 43.3596 81.2162 43.1118C81.9173 42.9469 82.5887 42.6751 83.2066 42.3061C84.4222 41.5769 85.5012 40.6425 86.3954 39.5445C89.7155 35.5462 90.9724 30.0532 89.1901 27.2231Z" fill="#280A38"/>
<path d="M61.9826 70.4839L49.363 63.1741L56.1831 56.8895L68.8007 64.1974L61.9826 70.4839Z" fill="#280A38"/>
<path d="M54.8837 87.1944C54.3354 86.2919 53.5718 85.5383 52.6609 85.0009L40.0413 77.691C40.9521 78.2295 41.7156 78.9836 42.2641 79.8866C45.5519 85.1117 43.2442 95.2536 37.0869 102.628L36.9758 102.761C35.1228 104.936 33.1363 106.604 31.1823 107.73C27.8602 109.642 24.6168 109.992 22.2323 108.61L34.852 115.92C37.2344 117.302 40.4778 116.951 43.8019 115.038C45.758 113.912 47.7424 112.246 49.5934 110.071L49.7065 109.936C55.8638 102.561 58.1735 92.4215 54.8837 87.1944Z" fill="#280A38"/>
<path d="M82.459 6.36713L95.0766 13.677C94.2115 13.1781 93.2612 12.8434 92.2738 12.69L79.6562 5.38013C80.6434 5.53435 81.5936 5.86896 82.459 6.36713V6.36713Z" fill="#FF6429"/>
<path d="M48.6416 62.7188C47.2619 61.926 45.7375 61.4152 44.1575 61.2162L56.7772 68.526C58.3578 68.725 59.8828 69.2359 61.2632 70.0287L48.6416 62.7188Z" fill="#FF6429"/>
<path d="M66.6849 58.8715L54.0653 51.5637L50.5613 46.0405L63.1789 53.3504L66.6849 58.8715Z" fill="#280A38"/>
<path d="M63.1789 53.3504L50.5613 46.0406L54.0027 40.7974L66.6203 48.1072L63.1789 53.3504Z" fill="white"/>
<path d="M66.6203 48.1072L54.0027 40.7974C53.6937 39.3412 53.558 37.8538 53.5985 36.366L66.2181 43.6738C66.178 45.1622 66.313 46.6501 66.6203 48.1072V48.1072Z" fill="#280A38"/>
<path d="M85.6154 8.88904L72.9978 1.5792L80.0886 0L92.7082 7.30984L85.6154 8.88904Z" fill="white"/>
<path d="M83.5158 14.6298L70.8962 7.32195L72.9978 1.57922L85.6154 8.88907L83.5158 14.6298Z" fill="#280A38"/>
<path d="M79.5127 17.3753L66.8931 10.0715C68.0028 9.14257 69.1899 8.30967 70.4415 7.5818C70.5937 7.49452 70.7453 7.40992 70.8962 7.328L83.5158 14.6358C83.3642 14.7184 83.2107 14.803 83.0591 14.8916C81.8076 15.6164 80.6211 16.4474 79.5127 17.3753V17.3753Z" fill="#FF6429"/>
<path d="M18.7082 136.71L6.09055 129.4L1.4408 122.046L14.0584 129.355L18.7082 136.71Z" fill="#280A38"/>
<path d="M14.0584 129.355L1.4408 122.046L6.9514 113.648L19.569 120.958L14.0584 129.355Z" fill="white"/>
<path d="M68.8754 32.0614L56.2558 24.7515C56.9859 23.0018 57.8415 21.3067 58.8161 19.6796L71.4357 26.9914C70.4612 28.6179 69.6056 30.3123 68.8754 32.0614V32.0614Z" fill="#FF6429"/>
<path d="M19.569 120.958L6.94938 113.648C6.39993 111.227 6.1777 108.743 6.28859 106.264L18.9062 113.574C18.7959 116.053 19.0188 118.537 19.569 120.958V120.958Z" fill="#280A38"/>
<path d="M64.45 34.0918L51.8324 26.782L56.2558 24.7516L68.8754 32.0614L64.45 34.0918Z" fill="#280A38"/>
<path d="M62.2979 43.4905L49.6803 36.1806L51.8324 26.782L64.45 34.0918L62.2979 43.4905Z" fill="white"/>
<path d="M44.6749 71.2029L32.0553 63.8951L35.4198 54.6979L48.0394 62.0077L44.6749 71.2029Z" fill="#280A38"/>
<path d="M48.0394 62.0078L35.4198 54.6979L44.8486 52.597L57.4683 59.9069L48.0394 62.0078Z" fill="white"/>
<path d="M71.4357 26.9894L58.8161 19.6796L57.5269 15.4657L70.1465 22.7755L71.4357 26.9894Z" fill="#280A38"/>
<path d="M100.098 25.1423L104.026 25.3256L101.88 34.7283L97.457 36.7567C96.7268 38.5085 95.8698 40.2049 94.8926 41.8327L96.1819 46.0345L89.6427 53.7935L86.8137 51.4388C85.7006 52.3698 84.5101 53.2047 83.2551 53.9345L82.8106 54.1823L80.711 59.921C80.4966 60.5275 80.0875 61.0464 79.547 61.3975L73.6201 61.5042L74.0546 56.1221C72.9443 55.9523 71.8817 55.5537 70.9346 54.9518L66.6789 58.8716L63.1729 53.3504L66.6081 48.1133C66.3003 46.6569 66.1647 45.1696 66.204 43.6818L62.2756 43.4965L64.456 34.0918L68.8815 32.0614C69.6097 30.3125 70.4633 28.6181 71.4357 26.9915L70.1465 22.7776L76.6836 15.0206L79.5127 17.3773C80.6208 16.4473 81.8074 15.6143 83.0591 14.8876C83.2107 14.799 83.3642 14.7144 83.5158 14.6318L85.6154 8.89109L92.7082 7.31189L92.2737 12.69C93.3815 12.8609 94.4414 13.2602 95.3857 13.8623L99.6394 9.94456L103.145 15.4657L99.7101 20.7029C100.015 22.1622 100.145 23.6524 100.098 25.1423V25.1423ZM86.3873 39.5405C89.7236 35.5461 90.9724 30.0532 89.1901 27.2231C88.0079 25.3236 85.676 25.0497 83.1399 26.504C81.9252 27.2335 80.8463 28.1671 79.9512 29.2636C76.619 33.2579 75.3681 38.7488 77.1504 41.5789C77.9991 42.9466 79.4601 43.4965 81.2081 43.1017C81.9089 42.9357 82.5801 42.664 83.1985 42.296C84.4141 41.5668 85.4931 40.6324 86.3873 39.5344" fill="#FF9F00"/>
<path d="M70.1465 22.7755L57.5269 15.4656L64.066 7.70862L76.6836 15.0185L70.1465 22.7755Z" fill="white"/>
<path d="M37.9841 75.7875L25.3686 68.4858C27.1085 66.991 28.9814 65.6574 30.964 64.5015C31.3278 64.292 31.6915 64.0906 32.0552 63.8972L44.6749 71.205C44.3111 71.3957 43.9474 71.5972 43.5837 71.8093C41.5986 72.9613 39.7242 74.293 37.9841 75.7875V75.7875Z" fill="#FF6429"/>
<path d="M22.5678 97.5217L9.9502 90.2118C11.1393 87.2807 12.5666 84.4512 14.218 81.7518L26.8356 89.0617C25.185 91.7615 23.7577 94.5909 22.5678 97.5217V97.5217Z" fill="#FF6429"/>
<path d="M15.477 100.777L2.85937 93.4669L9.9502 90.2118L22.5678 97.5216L15.477 100.777Z" fill="#280A38"/>
<path d="M12.6176 113.283L0 105.974L2.85937 93.4669L15.477 100.777L12.6176 113.283Z" fill="white"/>
<path d="M68.6047 87.3354L74.8932 87.6315L72.0339 100.138L64.943 103.393C63.754 106.325 62.3259 109.154 60.6732 111.853L62.7424 118.581L54.0532 128.896L49.5227 125.121C47.7809 126.621 45.9045 127.958 43.9171 129.116C43.5574 129.322 43.1977 129.524 42.838 129.72L39.4734 138.915L30.0365 141L30.7276 132.379C28.8642 132.148 27.0827 131.478 25.5302 130.425L18.7082 136.71L14.0604 129.355L19.571 120.958C19.0209 118.537 18.798 116.053 18.9082 113.573L12.6196 113.283L15.479 100.777L22.5698 97.5216C23.7597 94.5908 25.187 91.7615 26.8377 89.0616L24.7724 82.3339L33.4617 72.0147L37.9841 75.7875C39.7233 74.291 41.5971 72.9572 43.5816 71.8032C43.9454 71.5937 44.3091 71.3923 44.6728 71.1989L48.0374 62.0037L57.4662 59.9028L56.7772 68.526C58.6437 68.7583 60.4284 69.4286 61.9847 70.4819L68.8027 64.1973L73.4504 71.5535L67.9398 79.951C68.4916 82.3718 68.7152 84.8554 68.6047 87.3354ZM49.7045 109.936C55.8597 102.561 58.1695 92.4215 54.8797 87.1944C52.6912 83.6895 48.387 83.1658 43.6988 85.865C41.6377 87.0534 39.6129 88.8078 37.8023 90.9692C31.645 98.3435 29.3353 108.493 32.6231 113.712C34.8782 117.348 39.2653 117.648 43.7999 115.038C45.756 113.914 47.7404 112.246 49.5914 110.071L49.7045 109.936" fill="#FF9F00"/>
<path d="M26.8356 89.0597L14.218 81.7498L12.1508 75.0221L24.7704 82.3319L26.8356 89.0597Z" fill="#280A38"/>
<path d="M24.7704 82.3319L12.1508 75.0221L20.838 64.7029L33.4556 72.0127L24.7704 82.3319Z" fill="white"/>
</svg>
