<svg width="121" height="136" viewBox="0 0 121 136" fill="none" xmlns="http://www.w3.org/2000/svg">
<path d="M85.8928 36.2355C85.8869 35.9562 85.9903 35.6855 86.1809 35.4807C87.2669 34.2737 91.3515 29.0207 92.7102 27.2459C93.3171 26.4554 95.0968 27.3054 94.536 28.492C94.0058 29.6157 90.2621 37.502 89.5922 38.2891C88.9546 39.0252 85.9712 38.3877 85.8928 36.2355Z" fill="#280A38"/>
<path d="M92.642 28.7403L93.1227 29.0395C93.8489 29.4917 94.9673 28.9732 95.5435 27.9175L98.2472 22.9501C98.7587 22.0134 98.653 20.9866 98.0086 20.5854L97.8176 20.4664C97.1357 20.0397 96.0873 20.4749 95.4855 21.4388L92.492 26.2243C91.8885 27.1865 91.9566 28.3136 92.642 28.7403Z" fill="#280A38"/>
<path fill-rule="evenodd" clip-rule="evenodd" d="M105.331 95.3972C101.316 93.0869 97.6796 92.8472 95.0303 94.3092C92.3317 95.8052 86.2866 99.7781 86.2866 99.7781L107.866 134.968C107.866 134.968 113.363 131.611 116.048 129.877C118.505 128.284 120.01 125.108 120.01 120.664C120.009 111.374 113.433 100.062 105.331 95.3972Z" fill="#280A38"/>
<path fill-rule="evenodd" clip-rule="evenodd" d="M97.3658 100.361C89.2631 95.6964 82.6946 99.4432 82.6946 108.732C82.6946 118.021 89.2631 129.329 97.3658 133.994C105.469 138.659 112.037 134.912 112.037 125.625C112.037 116.338 105.469 105.026 97.3658 100.361Z" fill="#280A38"/>
<path fill-rule="evenodd" clip-rule="evenodd" d="M89.0978 112.418C89.0978 117.652 92.7988 124.025 97.3659 126.655C101.933 129.285 105.634 127.165 105.634 121.938C105.634 116.71 101.938 110.33 97.3659 107.702C92.7937 105.074 89.0978 107.183 89.0978 112.418Z" fill="#CAD1D7"/>
<path fill-rule="evenodd" clip-rule="evenodd" d="M94.2666 115.391C94.2666 117.356 95.656 119.75 97.371 120.736C99.086 121.722 100.475 120.93 100.475 118.964C100.475 116.999 99.086 114.607 97.371 113.62C95.656 112.632 94.2666 113.426 94.2666 115.391Z" fill="#30121B"/>
<path fill-rule="evenodd" clip-rule="evenodd" d="M35.829 55.2976C31.816 52.9873 28.178 52.7476 25.5288 54.2096C22.8302 55.7056 16.7851 59.6802 16.7851 59.6802L38.364 94.86C38.364 94.86 43.8619 91.5025 46.5383 89.7685C48.9949 88.1756 50.5002 85 50.5002 80.5562C50.5002 71.2742 43.9317 59.9624 35.829 55.2976Z" fill="#280A38"/>
<path fill-rule="evenodd" clip-rule="evenodd" d="M27.8644 60.2616C19.7616 55.5968 13.1932 59.3436 13.1932 68.6324C13.1932 77.9212 19.7684 89.2296 27.8644 93.8944C35.9603 98.5592 42.5356 94.8124 42.5356 85.5253C42.5356 76.2382 35.9637 64.9281 27.8644 60.2616Z" fill="#280A38"/>
<path fill-rule="evenodd" clip-rule="evenodd" d="M19.598 72.318C19.598 77.5523 23.3007 83.9256 27.8661 86.5555C32.4314 89.1854 36.1342 87.0655 36.1342 81.838C36.1342 76.6105 32.4331 70.2304 27.8661 67.6022C23.299 64.974 19.598 67.0837 19.598 72.318Z" fill="#CAD1D7"/>
<path fill-rule="evenodd" clip-rule="evenodd" d="M24.76 75.2913C24.76 77.2565 26.1511 79.6501 27.8644 80.6361C29.5777 81.6221 30.9688 80.8299 30.9688 78.8664C30.9688 76.9029 29.5794 74.5076 27.8644 73.5199C26.1494 72.5322 24.76 73.3261 24.76 75.2913Z" fill="#280A38"/>
<path fill-rule="evenodd" clip-rule="evenodd" d="M111.314 88.3525L117.184 96.4496C117.502 96.8871 117.725 97.3864 117.837 97.9152C117.95 98.4439 117.95 98.9904 117.838 99.5191C117.725 100.048 117.503 100.547 117.184 100.985C116.866 101.422 116.459 101.789 115.99 102.06L115.932 102.094C113.42 103.54 106.297 106.267 101.064 103.114C87.8499 95.1729 78.7311 106.672 78.7311 106.672C78.7311 106.672 74.1777 91.2714 88.5301 87.1795C102.882 83.0876 111.314 88.3525 111.314 88.3525Z" fill="#3264FF"/>
<path d="M88.0647 48.6626C87.5426 48.5803 87.0077 48.6573 86.5304 48.8836C85.233 49.5228 78.5606 52.3074 78.5606 52.3074L89.4336 64.0901C91.5304 73.3568 91.5151 81.0782 88.0067 86.4468L86.4247 88.8727C84.9688 91.0997 82.1628 91.3955 79.1232 89.6428L70.896 84.9049C68.4786 83.5143 66.3392 80.4849 65.5993 77.4249L63.4104 68.3792C61.9681 62.402 57.7846 56.5064 53.0744 53.7915L30.0601 40.5315L22.9001 51.8297C21.4664 54.0941 21.7954 58.0585 23.7371 61.8767C25.1708 64.6987 27.3171 67.0855 29.564 68.3826L54.6769 91.7661L77.7304 107.562C77.7304 107.562 73.1787 92.0551 86.5184 91.0827C88.455 90.9416 95.4173 92.7946 95.4173 92.7946C96.0668 91.71 98.5933 95.5724 98.5933 95.5724C98.5933 95.5724 111.744 88.14 112.167 87.8391C113.413 86.933 113.757 84.0685 109.439 77.2991L95.9713 55.6785C94.0961 51.8722 90.886 49.0213 88.0647 48.6626Z" fill="white"/>
<path d="M48.2704 56.0575L26.9421 44.8375L6.14398 31.7271L18.4046 24.2896C18.4046 24.2896 38.6146 35.5334 41.2263 37.0396L54.5576 44.71C55.993 45.5362 57.7523 45.2693 60.5532 45.4546C63.3541 45.6399 66.1789 51.9044 67.4302 56.0694L69.0054 61.3394C69.9209 64.3994 69.6021 67.048 68.2622 68.4301C67.9365 68.7701 55.1832 76.0801 55.1832 76.0801C55.1832 76.0801 53.9643 59.33 48.2704 56.0575Z" fill="white"/>
<path d="M38.5208 60.35L10.3241 44.1558L6.92646 38.3044C5.08191 35.1271 6.15079 31.7305 6.15079 31.7305C6.15079 31.7305 25.6925 43.0355 28.3127 44.5383L41.6508 52.2172C43.0845 53.0434 45.5411 52.8683 48.1135 53.6129C50.686 54.3575 53.2756 59.4116 54.5235 63.5783L56.0987 68.8398C57.234 72.6325 56.4686 75.8098 54.2047 76.7006L51.0031 77.9603C49.2506 70.7438 44.2079 63.6259 38.5208 60.35Z" fill="#280A38"/>
<path d="M9.97288 59.3299L13.7234 55.8262L17.1329 48.0317L40.1472 61.2917C44.8626 64.0117 49.0392 69.9022 50.4832 75.8794L52.6704 84.9319C53.4086 87.9919 55.5497 91.0145 57.9671 92.4119L66.1943 97.1481C69.239 98.9008 72.0399 98.6067 73.4941 96.3797L75.0846 93.9453C78.0083 89.4726 79.0448 83.0126 78.0969 75.621C77.5819 71.7943 77.3098 67.939 77.2821 64.078V57.0978C77.4355 53.5533 77.8088 51.7479 80.1341 52.0454C82.9555 52.4058 86.1656 55.255 88.0391 59.0613L97.5057 84.4049C100.835 91.8475 100.208 96.0278 97.6455 95.6912C97.6455 95.6912 94.1439 94.2649 91.0463 94.7443C81.9582 96.1502 78.3527 105.002 78.7158 106.677C76.9633 108.735 73.9629 108.899 70.7034 107.017L44.4773 91.9189C44.4773 91.9189 42.2611 80.2926 28.5701 69.7781C17.9171 61.5994 14.3524 74.2712 13.3364 73.1203C12.3401 71.9844 11.4913 70.7278 10.8099 69.3803C8.8682 65.5655 8.53747 61.5994 9.97288 59.3299Z" fill="#FF9F00"/>
<path d="M45.9979 92.7945C45.7212 92.971 45.4079 93.0823 45.0816 93.1201C44.7553 93.1578 44.4248 93.121 44.1149 93.0124C43.805 92.9037 43.524 92.7262 43.2932 92.4932C43.0624 92.2601 42.8878 91.9778 42.7827 91.6674C40.8291 85.8874 35.0261 75.5718 25.6362 71.3643C17.8864 67.8946 13.737 73.4826 13.737 73.4826C13.737 73.4826 5.77915 65.7799 10.3002 58.8201C13.4574 53.9581 19.8042 54.344 24.6014 56.2106C30.7556 58.6076 34.7039 63.5206 38.1356 68.9606C42.539 75.9544 45.3876 83.9631 45.9621 92.2251C45.9758 92.4121 45.9877 92.599 45.9979 92.7843V92.7945Z" fill="#3264FF"/>
<path d="M93.15 51.0884L84.6262 55.9963C84.1054 56.2975 83.5112 56.449 82.9094 56.434C82.3076 56.419 81.7217 56.2381 81.2167 55.9113L77.3895 53.4395C76.9679 53.1651 76.6323 52.7778 76.4213 52.322C76.2102 51.8662 76.1322 51.3603 76.1961 50.8623L77.9009 37.4986L80.7547 39.0116C81.2376 39.3164 81.7954 39.4825 82.3668 39.4918C82.9382 39.5011 83.5011 39.3532 83.9937 39.0643L88.7449 36.2661L93.9564 48.6676C94.14 49.0999 94.1594 49.5841 94.011 50.0297C93.8626 50.4752 93.5565 50.8516 93.15 51.0884V51.0884Z" fill="#3264FF"/>
<path d="M84.4727 49.997C84.9842 51.3043 85.8042 52.0489 86.7162 52.207C87.6283 52.3651 90.2348 51.6069 91.1486 50.473C92.9386 48.2392 93.4125 45.3594 92.3709 42.7091C91.8203 41.3049 89.5086 39.7545 88.5164 39.6848C87.6334 39.6236 86.6787 40.1064 85.8365 41.1587C84.038 43.3857 83.4311 47.3467 84.4727 49.997Z" fill="#FF9F00"/>
<path d="M87.4561 49.4903C88.2761 51.5762 90.0814 51.8414 91.4896 50.0836C92.8977 48.3258 93.3767 45.208 92.5567 43.1221C91.7368 41.0362 89.9314 40.771 88.5233 42.5305C87.1151 44.29 86.6378 47.4044 87.4561 49.4903Z" fill="white"/>
<path d="M78.2844 38.3028L81.0615 39.8804C81.4342 40.0923 81.8563 40.2028 82.2854 40.2007C82.7145 40.1987 83.1355 40.0841 83.5061 39.8685L88.3801 37.038C88.4979 36.9701 88.5958 36.8724 88.6639 36.7548C88.7319 36.6373 88.7678 36.5039 88.7678 36.3682C88.7678 36.2324 88.7319 36.099 88.6639 35.9815C88.5958 35.8639 88.4979 35.7663 88.3801 35.6984L85.6013 34.1208C85.2289 33.9087 84.8071 33.7982 84.3782 33.8003C83.9494 33.8024 83.5287 33.917 83.1584 34.1327L78.2844 36.9632C78.1661 37.0307 78.0678 37.1282 77.9994 37.2458C77.931 37.3635 77.895 37.497 77.895 37.633C77.895 37.7689 77.931 37.9025 77.9994 38.0201C78.0678 38.1377 78.1661 38.2352 78.2844 38.3028V38.3028Z" fill="white"/>
<path d="M79.2476 39.7342C79.013 39.5818 78.7283 39.5258 78.4532 39.5777C76.8507 39.8582 70.2192 40.5349 67.9911 40.744C66.9955 40.8392 66.779 42.7942 68.0848 42.954C69.3208 43.1002 78.0117 44.1083 79.0397 43.9519C80.0011 43.8006 81.0376 40.9395 79.2476 39.7342Z" fill="#280A38"/>
<path d="M69.2987 41.4801V42.0462C69.2987 42.8962 68.2656 43.5762 67.062 43.4997L61.4056 43.1597C60.3384 43.0951 59.5184 42.4644 59.5184 41.7062V41.4801C59.5184 40.6743 60.4424 40.0215 61.5812 40.0215H67.2359C68.3747 40.0181 69.2987 40.6709 69.2987 41.4801Z" fill="#280A38"/>
<path d="M1.41493 18.207V18.2631C1.41223 18.2445 1.41223 18.2256 1.41493 18.207V18.207Z" fill="#F9BB58"/>
<path d="M47.7112 38.2008L23.8547 51.9351V27.4687L47.7112 13.7344V38.2008Z" fill="#FF9F00"/>
<path d="M23.8548 51.9351L0 38.2008V13.7344L23.8548 27.4687V51.9351Z" fill="#280A38"/>
<path d="M47.7112 13.7343L23.8548 27.4686L0 13.7343L23.8548 0L47.7112 13.7343Z" fill="white"/>
<path d="M38.739 8.59176L14.9099 22.2921L8.97217 18.8666L32.7996 5.16626L38.739 8.59176Z" fill="#3264FF"/>
<path d="M14.9099 22.326L8.97217 18.875V25.692L14.9099 29.1447V22.326Z" fill="#3264FF"/>
</svg>
