<svg width="239" height="282" viewBox="0 0 239 282" fill="none" xmlns="http://www.w3.org/2000/svg">
<path d="M104.964 233.93C105.855 234.04 106.754 234.116 107.666 234.167L102.38 247.825L99.6783 247.593L104.964 233.93Z" fill="#280A38"/>
<path d="M138.042 60.6227C181.671 35.4259 217.156 55.6517 217.295 105.813C217.435 155.974 182.186 217.049 138.558 242.229C94.9287 267.409 59.4439 247.196 59.3046 197.039C59.1653 146.882 94.4137 85.8195 138.042 60.6227Z" fill="#F5F5F5"/>
<path d="M137.971 35.6793C193.585 3.55614 238.819 29.3443 239 93.2697C239.182 157.195 194.227 235.062 138.625 267.202C83.0231 299.342 37.7816 273.537 37.5958 209.591C37.41 145.644 82.3476 67.7983 137.971 35.6793ZM138.558 242.238C182.186 217.041 217.439 155.953 217.295 105.822C217.152 55.6898 181.671 35.4428 138.042 60.6312C94.4137 85.8196 59.1611 146.911 59.3046 197.047C59.4482 247.183 94.9288 267.426 138.558 242.238Z" fill="#FF9F00"/>
<path d="M172.024 6.79968C153.697 -3.84752 128.366 -2.34398 100.371 13.819C44.7729 45.938 -0.18152 123.801 0.0211292 187.73C0.109788 219.486 11.3188 241.832 29.3969 252.348L66.9969 274.209C48.923 263.701 37.714 241.355 37.6211 209.591C37.4396 145.661 82.3729 67.7983 137.992 35.6793C165.941 19.5164 191.314 18.0213 209.624 28.66L172.024 6.79968Z" fill="white"/>
<path d="M171.991 195.219L177.34 202.736L174.65 206.081L169.318 198.568C170.219 197.467 171.11 196.35 171.991 195.219Z" fill="#280A38"/>
<path d="M194.89 154.226L204.119 155.02L202.574 159.02L193.341 158.238C193.881 156.901 194.397 155.563 194.89 154.226Z" fill="#280A38"/>
<path d="M213.264 106.345V109.922L202.616 116.072C202.616 115.468 202.616 114.868 202.616 114.273C202.616 113.677 202.616 113.077 202.586 112.494L213.264 106.345Z" fill="#280A38"/>
<path d="M202.32 69.7454L203.883 71.9458L194.687 83.3785C194.189 82.6183 193.666 81.8834 193.121 81.1823L202.32 69.7454Z" fill="#280A38"/>
<path d="M81.9254 219.478C82.4236 220.238 82.9457 220.971 83.4917 221.678L74.2923 233.115L72.7302 230.915L81.9254 219.478Z" fill="#280A38"/>
<path d="M174.224 55.0393L176.922 55.2674L171.636 68.9301C170.745 68.8203 169.846 68.74 168.934 68.6978L174.224 55.0393Z" fill="#280A38"/>
<path d="M141.639 152.207C142.101 151.227 142.351 150.161 142.374 149.078C142.407 148.357 142.212 147.645 141.817 147.042C141.536 146.636 141.112 146.351 140.63 146.244C140.555 146.226 140.479 146.212 140.402 146.202L142.463 99.4907L138.587 101.48L136.527 148.22C135.159 149.766 134.217 151.92 134.226 153.783C134.175 154.606 134.443 155.418 134.973 156.051C135.313 156.407 135.774 156.625 136.265 156.663C136.988 156.695 137.703 156.503 138.313 156.114C138.465 156.028 138.613 155.933 138.756 155.831L164.758 193.318L167.663 189.736L141.639 152.207Z" fill="#280A38"/>
<path d="M73.9756 186.793C73.9756 187.388 73.9756 187.992 73.9756 188.592C73.9756 189.192 73.9756 189.779 74.001 190.37L63.3492 196.519V192.938L73.9756 186.793Z" fill="#280A38"/>
<path d="M139.909 63.9084L139.951 78.4623L136.244 80.6036L136.202 66.0497L139.909 63.9084Z" fill="#280A38"/>
<path d="M74.0263 143.841L83.2595 144.635C82.7191 145.961 82.2026 147.293 81.7101 148.63L72.4811 147.836L74.0263 143.841Z" fill="#280A38"/>
<path d="M101.95 96.7793L107.299 104.293C106.387 105.391 105.49 106.507 104.609 107.642L99.2604 100.124L101.95 96.7793Z" fill="#280A38"/>
<path d="M140.457 221.467L140.5 236.587L136.59 238.842L136.548 223.726L140.457 221.467Z" fill="#280A38"/>
<path d="M182.355 73.9519L183.596 74.6572L141.8 147.042C141.519 146.636 141.095 146.351 140.614 146.244L182.355 73.9519Z" fill="#FF6429"/>
<path d="M134.973 156.051C135.314 156.407 135.774 156.625 136.265 156.663L125.411 175.504L124.144 174.798L134.973 156.051Z" fill="#FF6429"/>
</svg>
