<svg width="122" height="114" viewBox="0 0 122 114" fill="none" xmlns="http://www.w3.org/2000/svg">
<path d="M0 83.8532L52.2337 114V60.2955L0 30.1467V83.8532Z" fill="#280A38"/>
<path d="M52.2337 114L104.465 83.8532V30.1467L52.2337 60.2955V114Z" fill="#FF9F00"/>
<path d="M0 30.1468L52.2337 60.2955L104.465 30.1468L52.2337 0L0 30.1468Z" fill="white"/>
<path d="M19.6441 18.8589L71.8182 48.9321L84.8214 41.4148L32.6473 11.3416L19.6441 18.8589Z" fill="#B066FF"/>
<path d="M71.8201 49.0056L84.8214 41.4307V56.3957L71.8181 63.9727L71.8201 49.0056Z" fill="#8D52CC"/>
<path d="M94.9715 104.515C95.1505 104.537 95.3334 104.553 95.5163 104.563L94.4506 107.316L93.9058 107.268L94.9715 104.515Z" fill="#280A38"/>
<path d="M101.642 69.5918C110.44 64.5154 117.594 68.598 117.624 78.6973C117.654 88.7966 110.544 101.112 101.746 106.191C92.9474 111.269 85.7937 107.184 85.7638 97.0851C85.734 86.9858 92.8441 74.6703 101.642 69.5918Z" fill="#F5F5F5"/>
<path d="M101.628 64.5651C112.842 58.0933 121.962 63.289 122 76.171C122.038 89.053 112.975 104.744 101.759 111.215C90.5436 117.687 81.4255 112.491 81.3877 99.6114C81.3499 86.7314 90.4144 71.0389 101.628 64.5651ZM101.746 106.191C110.544 101.112 117.652 88.8026 117.624 78.6973C117.596 68.5921 110.44 64.5154 101.642 69.5919C92.8441 74.6683 85.736 86.9779 85.7639 97.0851C85.7917 107.192 92.9475 111.267 101.746 106.191" fill="#B066FF"/>
<path d="M108.494 58.7472C104.802 56.6005 99.6897 56.9046 94.045 60.1604C82.8312 66.6342 73.7647 82.3228 73.8064 95.2068C73.8243 101.605 76.085 106.107 79.7295 108.226L87.3127 112.631C83.6662 110.514 81.4076 106.01 81.3877 99.6114C81.3519 86.7274 90.4124 71.0389 101.628 64.5651C107.271 61.3093 112.385 61.0052 116.077 63.1518L108.494 58.7472Z" fill="#280A38"/>
<path d="M108.488 96.7154L109.565 98.23L109.025 98.9038L107.945 97.3892C108.128 97.1666 108.309 96.942 108.488 96.7154Z" fill="#280A38"/>
<path d="M113.105 88.4547L114.966 88.6137L114.653 89.4207L112.792 89.2597C112.894 89.0013 113.005 88.723 113.105 88.4547Z" fill="#280A38"/>
<path d="M116.809 78.8046V79.5261L114.663 80.7664C114.663 80.6432 114.663 80.5239 114.663 80.4027C114.663 80.2815 114.663 80.1622 114.663 80.0449L116.809 78.8046Z" fill="#280A38"/>
<path d="M114.604 71.4304L114.918 71.8737L113.065 74.1774C112.964 74.025 112.859 73.8779 112.749 73.7361L114.604 71.4304Z" fill="#280A38"/>
<path d="M90.3229 101.603C90.4243 101.756 90.5218 101.905 90.6391 102.046L88.784 104.352L88.4699 103.909L90.3229 101.603Z" fill="#280A38"/>
<path d="M108.937 68.4669L109.482 68.5126L108.416 71.2675C108.237 71.2436 108.054 71.2277 107.871 71.2198L108.937 68.4669Z" fill="#280A38"/>
<path d="M102.368 88.0473C102.461 87.85 102.511 87.6352 102.515 87.4172C102.522 87.2718 102.483 87.1279 102.404 87.0057C102.346 86.9246 102.26 86.8673 102.163 86.8447H102.117L102.533 77.4332L101.752 77.8307L101.336 87.2482C101.057 87.5573 100.893 87.9533 100.873 88.3693C100.863 88.535 100.916 88.6985 101.022 88.8264C101.092 88.8978 101.185 88.9416 101.284 88.9496C101.465 88.9466 101.64 88.8876 101.785 88.7807L107.028 96.3338L107.625 95.6123L102.368 88.0473Z" fill="#280A38"/>
<path d="M88.7224 95.0159C88.7224 95.1372 88.7224 95.2584 88.7224 95.3797C88.7224 95.5009 88.7224 95.6182 88.7224 95.7375L86.5771 96.9758V96.2562L88.7224 95.0159Z" fill="#280A38"/>
<path d="M102.018 70.2537L102.026 73.1875L101.278 73.6188L101.27 70.687L102.018 70.2537Z" fill="#280A38"/>
<path d="M88.7343 86.3617L90.5953 86.5207C90.486 86.7891 90.3826 87.0574 90.2832 87.3277L88.4222 87.1667L88.7343 86.3617Z" fill="#280A38"/>
<path d="M94.3651 76.8766L95.4427 78.3912C95.2598 78.6125 95.0789 78.8371 94.8999 79.065L93.8223 77.5504L94.3651 76.8766Z" fill="#280A38"/>
<path d="M102.127 102.005L102.137 105.052L101.35 105.505L101.34 102.46L102.127 102.005Z" fill="#280A38"/>
<path d="M110.577 72.2772L110.828 72.4203L102.404 87.0136C102.346 86.9325 102.26 86.8752 102.163 86.8526L110.577 72.2772Z" fill="#FF6429"/>
<path d="M101.022 88.8224C101.092 88.8938 101.185 88.9376 101.284 88.9456L99.0972 92.7421L98.8466 92.5989L101.022 88.8224Z" fill="#FF6429"/>
</svg>
