<svg width="306" height="323" viewBox="0 0 306 323" fill="none" xmlns="http://www.w3.org/2000/svg">
<path fill-rule="evenodd" clip-rule="evenodd" d="M82.8235 269.167C82.8235 269.167 87.6853 266.471 90.501 264.706C93.1462 263.043 94.7729 259.665 94.7729 254.909C94.7729 245.103 87.8604 233.158 79.3212 228.227C74.6714 225.545 70.5055 225.499 67.6714 227.591C65.6696 228.959 63.565 230.17 61.3764 231.213" fill="#280A38"/>
<path fill-rule="evenodd" clip-rule="evenodd" d="M56.7864 241.195C56.7864 251.006 63.6989 262.951 72.2381 267.877C80.7774 272.803 87.6899 268.849 87.6899 259.038C87.6899 249.227 80.7774 237.282 72.2381 232.356C63.6989 227.43 56.7864 231.388 56.7864 241.195Z" fill="#280A38"/>
<path fill-rule="evenodd" clip-rule="evenodd" d="M64.9202 245.895C64.9202 250.536 68.1967 256.19 72.2382 258.526C76.2797 260.863 79.5516 258.987 79.5516 254.342C79.5516 249.697 76.2751 244.043 72.2382 241.711C68.2013 239.379 64.9202 241.25 64.9202 245.895Z" fill="#EAE7EB"/>
<path fill-rule="evenodd" clip-rule="evenodd" d="M175.22 321.753C175.22 321.753 180.087 319.057 182.902 317.287C185.548 315.628 187.17 312.25 187.17 307.495C187.17 297.688 180.257 285.743 171.718 280.812C167.073 278.13 162.907 278.084 160.073 280.181C158.07 281.546 155.966 282.756 153.778 283.799" fill="#280A38"/>
<path fill-rule="evenodd" clip-rule="evenodd" d="M149.183 293.78C149.183 303.591 156.096 315.536 164.635 320.462C173.174 325.389 180.087 321.435 180.087 311.624C180.087 301.812 173.174 289.868 164.635 284.941C156.096 280.015 149.183 283.974 149.183 293.78Z" fill="#280A38"/>
<path fill-rule="evenodd" clip-rule="evenodd" d="M157.322 298.481C157.322 303.121 160.598 308.776 164.635 311.112C168.672 313.448 171.949 311.573 171.949 306.928C171.949 302.282 168.677 296.628 164.635 294.296C160.594 291.964 157.322 293.835 157.322 298.481Z" fill="#EAE7EB"/>
<path d="M292.825 246.052C293.714 246.566 294.363 247.412 294.628 248.404C294.893 249.396 294.753 250.453 294.24 251.342C293.726 252.231 292.88 252.88 291.887 253.145C290.895 253.41 289.838 253.271 288.949 252.757L111.284 150.452C113.844 148.944 116.403 147.443 118.962 145.95L292.825 246.052Z" fill="white" stroke="#280A38" stroke-width="1.99" stroke-linecap="round" stroke-linejoin="round"/>
<path d="M51.3993 184.936L224.64 284.692C225.493 285.222 226.107 286.063 226.352 287.037C226.596 288.011 226.453 289.042 225.952 289.913C225.451 290.783 224.631 291.424 223.665 291.701C222.7 291.978 221.665 291.87 220.778 291.398L43.3578 189.236C46.049 187.81 48.7295 186.377 51.3993 184.936Z" fill="white" stroke="#280A38" stroke-width="1.99" stroke-linecap="round" stroke-linejoin="round"/>
<path d="M34.6112 208.687L177.363 291.103C192.838 300.038 217.916 300.038 233.405 291.103L294.373 255.904C309.848 246.969 309.848 232.485 294.373 223.549L151.621 141.129C136.142 132.194 111.068 132.194 95.5747 141.129L34.6112 176.328C19.1364 185.254 19.1364 199.752 34.6112 208.687Z" fill="white"/>
<path d="M5.04419 51.6129L11.7217 58.2995C17.0127 63.5601 21.2075 69.8181 24.0631 76.7112C26.9188 83.6042 28.3785 90.9954 28.3577 98.4565V181.015L36.0905 175.485V98.438C36.098 91.3673 34.9459 84.3432 32.6803 77.6453L93.8236 42.3455C95.6312 47.9861 96.5486 53.8741 96.5425 59.7973V141.936L104.28 137.466V59.7973C104.303 51.3212 102.645 42.9247 99.4021 35.0937C96.159 27.2626 91.3949 20.1525 85.3857 14.1748L79.2705 8.05498C75.0173 3.82425 69.5047 1.08991 63.5629 0.263753C57.621 -0.562407 51.5716 0.564338 46.3256 3.47431L8.82302 24.4238C6.49925 25.7194 4.50777 27.5365 3.00521 29.7322C1.50265 31.9278 0.529991 34.4422 0.163738 37.0774C-0.202515 39.7126 0.0476202 42.3969 0.894477 44.9191C1.74133 47.4413 3.16181 49.7326 5.04419 51.6129V51.6129ZM7.80918 38.1519C8.00446 36.6998 8.53664 35.3134 9.36319 34.1036C10.1898 32.8938 11.2878 31.894 12.5696 31.1842L50.0721 10.2485C53.8463 8.15432 58.1987 7.34283 62.474 7.93626C66.7494 8.52968 70.7162 10.4959 73.7773 13.5389L79.8926 19.6587C84.4007 24.1546 88.1208 29.3764 90.8973 35.1058L29.7218 70.4194C26.564 63.8877 22.328 57.9349 17.1917 52.811L10.5097 46.129C9.47333 45.0959 8.69248 43.8351 8.22926 42.447C7.76604 41.059 7.63324 39.5819 7.84145 38.1335L7.80918 38.1519Z" fill="#280A38"/>
<path d="M51.4638 190.641L120.621 230.568V161.277L51.4638 121.351V190.641Z" fill="#B066FF"/>
<path d="M120.621 230.568L189.778 190.641V121.351L120.621 161.277V230.568Z" fill="#14B4EF"/>
<path d="M51.4638 121.351L120.621 161.277L189.778 121.351L120.621 81.4241L51.4638 121.351Z" fill="white"/>
<path d="M133.34 237.909L202.497 277.835V208.549L133.34 168.623V237.909Z" fill="#B066FF"/>
<path d="M202.497 277.835L271.654 237.909V168.623L202.497 208.549V277.835Z" fill="#14B4EF"/>
<path d="M133.34 168.623L202.497 208.549L271.654 168.623L202.497 128.691L133.34 168.623Z" fill="white"/>
<path d="M118.119 149.337L167.916 178.088V128.194L118.119 99.4426V149.337Z" fill="#B066FF"/>
<path d="M167.916 178.088L217.714 149.337V99.4426L167.916 128.194V178.088Z" fill="#14B4EF"/>
<path d="M118.119 99.4425L167.916 128.194L217.714 99.4425L167.916 70.6912L118.119 99.4425Z" fill="white"/>
<path d="M34.6112 208.688L177.363 291.103C192.838 300.038 217.917 300.038 233.405 291.103L294.373 255.904C302.041 251.476 305.894 245.688 305.972 239.886H306V258.849C306 264.702 302.129 270.559 294.392 275.024L233.424 310.227C231.477 311.341 229.446 312.301 227.35 313.098C214.566 318.015 197.953 318.167 184.898 313.601C182.293 312.712 179.777 311.582 177.382 310.227L34.6389 227.807C26.9015 223.342 23.0305 217.485 23.0305 211.628V193.194C23.3301 198.83 27.1964 204.397 34.6112 208.688Z" fill="#280A38"/>
</svg>
