<svg width="140" height="140" viewBox="0 0 140 140" fill="none" xmlns="http://www.w3.org/2000/svg">
<path d="M137.274 71.5366C140.877 73.6174 140.896 76.9266 137.407 79.0616L53.0565 128.086C49.4743 130.169 43.6677 130.114 40.1555 128.086L2.71075 106.472C-0.894253 104.391 -0.820752 101.028 2.66875 99.0011L87.0293 49.9749C90.6098 47.8941 96.4163 47.9484 99.9285 49.9749L137.274 71.5366ZM123.225 83.0201L126.271 81.2509L119.669 77.4394L83.2878 56.4394L47.1415 77.4394L37.5357 83.0218L13.8057 96.8136L18.2735 99.4001L27.9423 104.983L56.7893 121.625L85.3143 105.044L88.3278 103.294L94.92 99.4631L123.216 83.0131" fill="#3264FF"/>
<path d="M119.669 77.4393L47.1415 77.4376L83.2877 56.4341L119.669 77.4393Z" fill="#A1E1F9"/>
<path d="M123.224 83.0201L94.9287 99.4649L94.8377 83.0201H123.224Z" fill="#00D273"/>
<path d="M85.1988 83.0201L85.2915 99.3931H18.2735L13.804 96.8119L37.5358 83.0201H85.1988Z" fill="#00D273"/>
<path d="M126.271 81.2509L123.225 83.0201H94.8377L94.9288 99.4649L88.3347 103.296L85.4472 104.974H27.9422L18.2735 99.3931H85.2915L85.1987 83.0201H37.5357L47.1415 77.4376L119.669 77.4394L126.271 81.2509Z" fill="#FF9F00"/>
<path d="M34.65 115.369C35.3973 115.799 35.4007 116.501 34.6587 116.932C34.2406 117.145 33.7779 117.256 33.3086 117.256C32.8393 117.256 32.3767 117.145 31.9585 116.932L21.994 111.178C21.2467 110.747 21.2415 110.047 21.9853 109.615C22.4034 109.402 22.8661 109.291 23.3354 109.291C23.8047 109.291 24.2673 109.402 24.6855 109.615L34.65 115.369Z" fill="white"/>
<path d="M85.323 104.974L56.7892 121.629L27.9422 104.974H85.323Z" fill="#A1E1F9"/>
<path d="M113.277 63.903C114.025 64.3353 114.028 65.0353 113.286 65.4675C112.544 65.8998 111.333 65.898 110.586 65.4675C109.839 65.037 109.833 64.3353 110.586 63.903C111.338 63.4708 112.525 63.4708 113.277 63.903Z" fill="white"/>
<path d="M140 75.3306L139.97 85.7046C139.97 87.0416 139.095 88.3803 137.379 89.4338L137.407 79.0616C139.125 78.0081 140 76.6676 140 75.3306Z" fill="#280A38"/>
<path d="M0 113.089L0.0297497 102.716C0.0297497 104.071 0.90475 105.432 2.71075 106.472L2.681 116.846C0.875 115.805 0 114.45 0 113.089Z" fill="#280A38"/>
<path d="M137.407 79.0616L137.377 89.4339L53.018 138.458L53.0478 128.086L137.407 79.0616Z" fill="#280A38"/>
<path d="M40.1467 128.086L40.1187 138.458L2.681 116.844L2.71075 106.472L40.1467 128.086Z" fill="#280A38"/>
<path d="M53.0477 128.086L53.025 138.458C49.4427 140.541 43.638 140.487 40.1257 138.458L40.1537 128.086C43.659 130.114 49.4655 130.169 53.0477 128.086Z" fill="#280A38"/>
<path d="M65.2155 9.62487C78.6695 2.05437 89.5633 8.36662 89.607 23.8699C89.5919 27.9023 88.9894 31.9111 87.8185 35.7699C87.7345 36.0096 86.1315 40.5456 85.2968 42.4286L65.1438 94.9619L44.7545 65.8436C43.9128 64.9301 42.2888 62.2561 42.203 62.1161C40.978 59.4719 40.3655 56.1661 40.3533 52.3161C40.3095 36.8129 51.1333 17.9636 64.5838 10.0116C64.6905 9.93987 64.7955 9.88387 64.9023 9.82087L65.2155 9.62487ZM65.0178 50.5906C72.0615 46.5236 77.756 36.6606 77.7333 28.5634C77.7105 20.4661 71.9775 17.1989 64.9338 21.2659C57.89 25.3329 52.192 35.1976 52.2148 43.2949C52.2375 51.3921 57.9705 54.6594 65.0178 50.5906" fill="#F0324E"/>
<path d="M64.9338 21.2729C71.9775 17.2059 77.7088 20.4732 77.7333 28.5704C77.7578 36.6677 72.0615 46.5307 65.0178 50.5977C57.974 54.6647 52.2428 51.4009 52.2148 43.3019C52.1868 35.2029 57.8865 25.3417 64.9338 21.2729Z" fill="white"/>
<path d="M82.425 8.09538L71.358 1.66238C66.948 -0.90137 60.8668 -0.58287 54.145 3.19888C54.0383 3.26013 53.935 3.32488 53.83 3.38438C53.725 3.44388 53.62 3.50163 53.5133 3.57513C40.061 11.5254 29.239 30.3764 29.2828 45.8796C29.2933 49.7296 29.9128 53.0389 31.1325 55.6796C31.2183 55.8214 32.8405 58.4954 33.684 59.4089L54.075 88.5289L65.1473 94.9619L44.7545 65.8436C43.9128 64.9301 42.2888 62.2561 42.203 62.1161C40.978 59.4719 40.3655 56.1661 40.3533 52.3161C40.3095 36.8129 51.1333 17.9636 64.5838 10.0116C64.6905 9.93988 64.7955 9.88388 64.9023 9.82088L65.2155 9.63538C71.9373 5.85013 78.0185 5.53338 82.425 8.09538Z" fill="#280A38"/>
</svg>
