<svg width="141" height="154" viewBox="0 0 141 154" fill="none" xmlns="http://www.w3.org/2000/svg">
<path fill-rule="evenodd" clip-rule="evenodd" d="M29.9307 62.5581L23.9395 66.0206V60.3152L29.9307 56.855V62.5581Z" fill="#280A38"/>
<path d="M113.364 83.0955L87.5834 98.0556V61.0232L113.364 46.0632V83.0955Z" fill="#14B4EF"/>
<path d="M87.5834 98.0556L7.90527 51.9924V14.96L87.5834 61.0232V98.0556Z" fill="#3264FF"/>
<path d="M113.364 46.0632L87.5834 61.0232L7.90527 14.96L33.6859 0L113.364 46.0632Z" fill="white"/>
<path fill-rule="evenodd" clip-rule="evenodd" d="M114.379 111.373L108.39 114.834V109.128L112.42 106.799L114.379 111.373Z" fill="#280A38"/>
<path d="M113.318 106.435C113.318 106.435 113.483 105.775 113.462 104.067C113.442 102.359 113.421 100.061 112.951 98.8458C112.481 97.6308 112.091 96.8862 109.408 94.5816C106.725 92.2771 106.7 91.6833 105.942 90.6327C102.493 85.85 98.3337 77.0019 94.3571 74.1424C92.2262 72.6098 89.4018 71.0636 87.5903 70.0586V98.0556L110.193 111.134C112.527 112.483 113.569 113.267 114.4 111.488C115.173 109.834 115.707 108.014 113.318 106.435Z" fill="#3264FF"/>
<path fill-rule="evenodd" clip-rule="evenodd" d="M132.152 69.933C131.629 69.933 130.735 70.0883 129.756 70.9631C128.221 72.3334 127.347 73.914 127.333 74.421C127.32 74.928 128.559 75.1062 129.601 74.7088C131.472 74.0099 131.426 73.2744 132.177 71.566C132.553 70.7004 132.793 69.9353 132.152 69.933Z" fill="#280A38"/>
<path d="M139.033 91.5188C139.033 91.5188 139.197 90.8588 139.177 89.1504C139.156 87.442 139.136 85.1443 138.666 83.9292C138.196 82.7141 137.803 81.9696 135.12 79.665C132.437 77.3605 132.414 76.7735 131.655 75.716C128.207 70.9334 124.048 62.0853 120.072 59.2257C117.938 57.6932 115.116 56.1469 113.302 55.142L87.5903 70.0586C89.4018 71.0636 92.2262 72.6098 94.3571 74.1424C98.3337 77.0019 102.493 85.85 105.942 90.6327C106.7 91.6833 106.723 92.2771 109.408 94.5816C112.093 96.8862 112.479 97.6308 112.951 98.8458C113.423 100.061 113.442 102.359 113.462 104.067C113.483 105.775 113.318 106.435 113.318 106.435C115.707 108.014 115.173 109.834 114.4 111.488C114.265 111.831 114.038 112.131 113.745 112.356C115.595 111.287 138.157 98.2269 139.316 97.4458C139.749 97.1557 139.895 97.0415 140.114 96.571C140.881 94.9174 141.422 93.0948 139.033 91.5188Z" fill="white"/>
<path fill-rule="evenodd" clip-rule="evenodd" d="M139.056 91.5325L113.318 106.435L113.624 112.426C113.624 112.426 138.928 97.7038 139.177 97.5691C139.598 97.3592 139.93 97.0051 140.112 96.571C140.881 94.9242 141.419 93.1062 139.056 91.5325Z" fill="#14B4EF"/>
<path fill-rule="evenodd" clip-rule="evenodd" d="M20.2115 51.9398C16.6821 49.9002 13.796 51.4145 13.5953 55.3087L26.8096 62.9463C26.627 58.8283 23.741 53.9817 20.2115 51.9398Z" fill="#280A38"/>
<path fill-rule="evenodd" clip-rule="evenodd" d="M20.2116 53.477C17.2936 51.7891 14.9277 53.1458 14.9277 56.5032C14.9277 59.8607 17.2936 63.9536 20.2116 65.6391C23.1296 67.3247 25.4977 65.9703 25.4977 62.6129C25.4977 59.2554 23.1296 55.1625 20.2116 53.477Z" fill="#3264FF"/>
<path fill-rule="evenodd" clip-rule="evenodd" d="M20.2116 55.6147C18.3202 54.5207 16.7894 55.4001 16.7894 57.5767C16.7894 59.7533 18.3225 62.4027 20.2116 63.4967C22.1006 64.5908 23.6338 63.7114 23.6338 61.5348C23.6338 59.3582 22.1029 56.7088 20.2116 55.6147Z" fill="white"/>
<path fill-rule="evenodd" clip-rule="evenodd" d="M100.184 83.5935C100.868 84.8428 101.938 86.4507 102.258 87.732C102.554 88.9265 102.586 90.2718 101.781 89.8424C100.727 89.2874 91.1448 83.6848 90.6885 83.397C90.2322 83.1093 90.157 82.5702 90.1364 81.8508C90.1204 81.2935 89.9197 77.324 89.8216 75.2273C89.7007 72.7286 90.5448 73.2996 93.529 75.0925C95.1032 76.0358 95.8743 76.8055 96.3785 77.4838C97.8044 79.4298 99.6456 82.6159 100.184 83.5935Z" fill="white"/>
<path fill-rule="evenodd" clip-rule="evenodd" d="M129.766 75.6909L106.456 89.2143C106.331 89.2879 106.182 89.3095 106.041 89.2745C105.9 89.2394 105.779 89.1506 105.703 89.027C104.58 87.1998 100.405 80.4096 98.4615 77.4678C98.3999 77.3751 98.358 77.2705 98.3387 77.1608C98.3193 77.0511 98.3228 76.9386 98.3489 76.8302C98.3751 76.7219 98.4233 76.6202 98.4905 76.5315C98.5578 76.4427 98.6427 76.3688 98.7398 76.3144C102.57 74.1652 119.371 64.3236 121.997 62.7864C122.105 62.7217 122.232 62.6958 122.356 62.7133C122.481 62.7308 122.596 62.7904 122.682 62.8824C124.263 64.5862 128.705 72.2193 130.064 74.5855C130.117 74.6776 130.152 74.7794 130.166 74.8849C130.179 74.9904 130.172 75.0976 130.144 75.2003C130.116 75.303 130.069 75.3992 130.004 75.4834C129.939 75.5676 129.858 75.6381 129.766 75.6909V75.6909Z" fill="#14B4EF"/>
<path fill-rule="evenodd" clip-rule="evenodd" d="M103.962 88.2756C103.962 88.2756 104.843 89.0773 104.961 89.2554C105.08 89.4336 105.174 89.968 104.717 90.1028C104.135 90.2718 103.85 88.8215 103.85 88.8215L103.962 88.2756Z" fill="#280A38"/>
<path fill-rule="evenodd" clip-rule="evenodd" d="M97.4348 89.107C97.7679 88.7027 98.4614 88.1157 99.7573 87.9216C101.795 87.6178 103.565 87.9581 103.962 88.271C104.359 88.5839 103.7 89.6414 102.732 90.201C100.996 91.1922 100.451 90.6898 98.6713 90.169C97.761 89.9109 97.0264 89.6049 97.4348 89.107Z" fill="#280A38"/>
<path fill-rule="evenodd" clip-rule="evenodd" d="M104.66 100.755C101.131 98.7156 98.247 100.23 98.0439 104.124L111.261 111.764C111.076 107.641 108.192 102.795 104.66 100.755Z" fill="#280A38"/>
<path d="M108.419 114.812C110.474 113.614 110.458 109.754 108.384 106.191C106.31 102.628 102.964 100.712 100.909 101.91C98.855 103.109 98.8708 106.968 100.945 110.531C103.018 114.094 106.365 116.01 108.419 114.812Z" fill="#3264FF"/>
<path fill-rule="evenodd" clip-rule="evenodd" d="M104.66 104.428C102.769 103.334 101.238 104.213 101.238 106.39C101.238 108.566 102.771 111.218 104.66 112.31C106.549 113.402 108.082 112.525 108.082 110.348C108.082 108.171 106.554 105.522 104.66 104.428Z" fill="white"/>
<path fill-rule="evenodd" clip-rule="evenodd" d="M104.66 106.159C103.602 105.547 102.742 106.038 102.742 107.26C102.742 108.482 103.602 109.966 104.66 110.579C105.719 111.191 106.581 110.7 106.581 109.48C106.581 108.26 105.721 106.771 104.66 106.159Z" fill="#280A38"/>
<path fill-rule="evenodd" clip-rule="evenodd" d="M20.2116 57.346C19.1507 56.7339 18.2906 57.225 18.2906 58.4469C18.2906 59.6688 19.1507 61.1534 20.2116 61.7655C21.2725 62.3776 22.1326 61.8866 22.1326 60.6646C22.1326 59.4427 21.2725 57.9581 20.2116 57.346Z" fill="#280A38"/>
<path fill-rule="evenodd" clip-rule="evenodd" d="M131.139 96.1599L122.214 101.561V98.1218C122.215 97.7236 122.321 97.3327 122.521 96.9886C122.722 96.6445 123.009 96.3595 123.355 96.1622L130.158 92.2337C130.257 92.1759 130.37 92.1454 130.485 92.1452C130.6 92.145 130.713 92.1752 130.813 92.2326C130.913 92.29 130.996 92.3727 131.053 92.4723C131.111 92.5719 131.141 92.685 131.141 92.8001L131.139 96.1599Z" fill="#280A38"/>
<path fill-rule="evenodd" clip-rule="evenodd" d="M120.101 100.008L116.547 102.064V98.9966L119.663 97.2014C119.732 97.1643 119.809 97.1454 119.886 97.1465C119.964 97.1476 120.041 97.1685 120.108 97.2075C120.175 97.2464 120.232 97.3019 120.272 97.3688C120.312 97.4357 120.334 97.5117 120.336 97.5897V99.6133C120.336 99.694 120.313 99.7732 120.272 99.8426C120.231 99.912 120.172 99.9692 120.101 100.008Z" fill="#280A38"/>
<path fill-rule="evenodd" clip-rule="evenodd" d="M116.547 102.062L115.906 102.439C115.837 102.473 115.761 102.49 115.684 102.487C115.607 102.484 115.532 102.462 115.466 102.423C115.4 102.384 115.345 102.328 115.307 102.262C115.268 102.195 115.246 102.12 115.244 102.043V99.9878C115.244 99.9077 115.265 99.829 115.305 99.7597C115.345 99.6903 115.403 99.6327 115.472 99.5927L116.54 98.9874L116.547 102.062Z" fill="#14B4EF"/>
<path fill-rule="evenodd" clip-rule="evenodd" d="M136.453 90.8473L133.32 92.6585C133.255 92.6968 133.181 92.7171 133.105 92.7174C133.029 92.7177 132.955 92.6979 132.889 92.6601C132.824 92.6223 132.769 92.5678 132.732 92.5021C132.694 92.4365 132.674 92.362 132.674 92.2862V90.2147C132.674 90.1392 132.694 90.0651 132.732 89.9997C132.769 89.9344 132.824 89.8801 132.889 89.8424L136.453 87.7868V90.8519V90.8473Z" fill="#280A38"/>
<path fill-rule="evenodd" clip-rule="evenodd" d="M137.539 90.2215L136.453 90.8474V87.7823L137.11 87.4031C137.175 87.3656 137.249 87.3459 137.325 87.3459C137.4 87.346 137.474 87.3659 137.539 87.4035C137.605 87.4412 137.659 87.4954 137.697 87.5606C137.735 87.6259 137.755 87.6999 137.755 87.7754V89.847C137.755 89.923 137.735 89.9976 137.697 90.0634C137.659 90.1292 137.604 90.1837 137.539 90.2215V90.2215Z" fill="#14B4EF"/>
<path d="M19.2054 30.8588L13.9375 27.8668L16.5703 26.1903L21.8382 29.1801L19.2054 30.8588Z" fill="white"/>
<path d="M16.5703 38.8847L11.3047 35.8927L13.9375 34.2139L19.2054 37.2059L16.5703 38.8847Z" fill="white"/>
<path d="M11.3047 26.3708V35.8927L13.9375 34.2139V24.6943L11.3047 26.3708Z" fill="white"/>
<path d="M19.2054 30.8588V40.3784L21.8383 38.7019V29.1801L19.2054 30.8588Z" fill="white"/>
<path fill-rule="evenodd" clip-rule="evenodd" d="M92.7464 104.088L61.8439 122.423L9.05518 91.8089L40.665 73.5622L92.7464 104.088Z" fill="#280A38"/>
<path d="M69.8062 96.9045L45.3967 111.031V86.1972L69.8062 72.0708V96.9045Z" fill="#B066FF"/>
<path d="M45.3967 111.031L12.2492 91.8089V66.9753L45.3967 86.1972V111.031Z" fill="#FF6429"/>
<path d="M69.8062 72.0708L45.3967 86.1972L12.2492 66.9753L36.6587 52.8489L69.8062 72.0708Z" fill="white"/>
<path fill-rule="evenodd" clip-rule="evenodd" d="M35.9377 117.092L28.2332 121.546V114.815L35.9377 110.362V117.092Z" fill="#280A38"/>
<path fill-rule="evenodd" clip-rule="evenodd" d="M71.1112 137.397L63.4067 141.851V135.12L71.1112 130.666V137.397Z" fill="#280A38"/>
<path fill-rule="evenodd" clip-rule="evenodd" d="M31.676 115.208C30.5649 110.707 27.4119 106.095 23.6908 103.939C19.9698 101.783 16.9696 102.879 15.6943 105.965L31.676 115.208Z" fill="#280A38"/>
<path fill-rule="evenodd" clip-rule="evenodd" d="M23.6862 121.083C20.1203 119.027 17.2114 114.002 17.2114 109.891C17.2114 105.78 20.1203 104.122 23.6862 106.184C27.2522 108.247 30.1588 113.265 30.1588 117.376C30.1588 121.487 27.2499 123.138 23.6862 121.083Z" fill="#B066FF"/>
<path d="M26.315 118.133C27.751 117.295 27.7404 114.598 26.2915 112.109C24.8426 109.619 22.5039 108.281 21.0679 109.118C19.632 109.956 19.6425 112.653 21.0914 115.142C22.5404 117.631 24.879 118.97 26.315 118.133Z" fill="#EAE7EB"/>
<path fill-rule="evenodd" clip-rule="evenodd" d="M23.6863 115.35C23.2524 115.067 22.891 114.686 22.6314 114.238C22.3718 113.79 22.2212 113.286 22.1919 112.769C22.1919 111.823 22.8627 111.437 23.6863 111.912C24.1195 112.196 24.4802 112.578 24.7394 113.026C24.9985 113.475 25.1489 113.978 25.1783 114.496C25.1783 115.441 24.5076 115.829 23.6863 115.35Z" fill="#280A38"/>
<path fill-rule="evenodd" clip-rule="evenodd" d="M94.8317 100.527L94.129 100.952C94.0853 100.978 94.0433 101.007 94.0035 101.038V100.904C94.0156 100.773 93.9923 100.642 93.9361 100.523C93.8799 100.404 93.7928 100.303 93.6841 100.23C93.4559 100.102 93.1662 100.139 92.8194 100.346L91.9798 100.842C91.9531 100.857 91.9298 100.878 91.9112 100.902C91.8927 100.927 91.8793 100.955 91.8718 100.985C91.8644 101.015 91.863 101.046 91.8678 101.076C91.8727 101.107 91.8836 101.136 91.9 101.162C91.915 101.189 91.9354 101.212 91.9599 101.231C91.9843 101.25 92.0123 101.264 92.0421 101.271C92.072 101.279 92.1031 101.28 92.1335 101.276C92.164 101.271 92.1932 101.26 92.2194 101.244L93.0567 100.748C93.2711 100.62 93.4035 100.607 93.4514 100.636C93.4993 100.666 93.5358 100.771 93.5358 100.904V105.949C93.5314 106.09 93.4951 106.229 93.4295 106.355C93.3639 106.48 93.2707 106.589 93.1571 106.673L91.9798 107.379L92.2194 107.781L93.392 107.096C93.5761 106.97 93.7275 106.801 93.8338 106.605C93.9401 106.409 93.9983 106.19 94.0035 105.967V105.915C94.0445 105.926 94.088 105.926 94.129 105.915C94.129 105.915 94.64 105.636 94.8317 105.49C95.0233 105.344 95.1921 105.241 95.1921 105.019V100.805C95.1926 100.761 95.1829 100.718 95.1637 100.678C95.1444 100.638 95.1162 100.603 95.0813 100.576C95.0463 100.549 95.0056 100.531 94.9623 100.522C94.919 100.514 94.8742 100.515 94.8317 100.527Z" fill="#280A38"/>
<path fill-rule="evenodd" clip-rule="evenodd" d="M82.0669 86.944L73.1577 81.8645C72.5873 81.5356 72.0717 81.5242 71.7135 81.7708C71.401 81.9992 47.3885 95.7487 47.3885 95.7487L73.5775 136.027C73.5775 136.027 97.606 122.094 97.9482 121.955C98.3634 121.784 98.6326 121.327 98.6326 120.651V116.286C98.6189 111.444 86.3401 88.6616 82.0669 86.944Z" fill="white"/>
<path fill-rule="evenodd" clip-rule="evenodd" d="M99.7003 123.595V121.877C99.7078 121.809 99.7011 121.74 99.6807 121.674C99.6602 121.609 99.6265 121.548 99.5817 121.496L75.4619 135.081C75.3926 135.121 75.3139 135.142 75.2338 135.142C75.1537 135.142 75.075 135.121 75.0056 135.081L74.2619 134.652V130.273C74.2619 125.477 62.3731 103.551 58.4125 101.34L48.8007 95.8584C47.7284 95.2371 46.8523 95.7396 46.8523 96.973V113.721L9.05286 91.8089V102.043L72.261 138.722L74.2596 137.541L75.0535 137.998C75.1399 138.052 75.2392 138.082 75.3411 138.085C75.443 138.088 75.5438 138.063 75.6331 138.014L99.5497 124.129C99.7231 124.029 99.7003 123.785 99.7003 123.595Z" fill="#FF6429"/>
<path fill-rule="evenodd" clip-rule="evenodd" d="M68.2115 122.225C68.5856 122.517 69.6647 122.067 69.3864 121.115C69.0031 119.792 61.7275 105.638 59.3913 104.462C59.2042 104.339 48.4813 98.2657 48.4813 98.2657C48.4379 98.2405 48.4014 98.2657 48.4014 98.3091V110.78C48.4032 110.806 48.4111 110.833 48.4245 110.856C48.438 110.879 48.4566 110.899 48.479 110.914L68.2115 122.225Z" fill="white"/>
<path fill-rule="evenodd" clip-rule="evenodd" d="M99.5817 121.489L75.2452 135.216L74.2665 134.649L98.6212 120.932L99.5817 121.489Z" fill="white"/>
<path fill-rule="evenodd" clip-rule="evenodd" d="M66.9087 121.811L66.3429 122.133C66.3106 122.157 66.2734 122.174 66.2339 122.182C66.1945 122.189 66.1538 122.189 66.1148 122.179C66.0866 122.151 66.0654 122.118 66.0527 122.08C66.04 122.043 66.0363 122.003 66.0418 121.964V116.921C66.0536 116.738 66.1076 116.561 66.1994 116.402C66.2912 116.244 66.4184 116.109 66.5711 116.008L67.1346 115.688C67.1619 115.673 67.1858 115.653 67.2051 115.629C67.2243 115.604 67.2384 115.577 67.2465 115.547C67.2547 115.517 67.2566 115.485 67.2523 115.455C67.2479 115.424 67.2374 115.395 67.2213 115.368C67.2066 115.341 67.1866 115.317 67.1625 115.298C67.1385 115.279 67.1108 115.265 67.0812 115.257C67.0516 115.249 67.0206 115.247 66.9902 115.251C66.9598 115.255 66.9305 115.266 66.9042 115.281L66.3429 115.601C66.1201 115.744 65.9347 115.938 65.8021 116.167C65.6696 116.397 65.5937 116.654 65.5809 116.919V116.981C65.5388 116.971 65.4953 116.971 65.4531 116.981L64.6797 117.2C64.5767 117.228 64.4857 117.289 64.421 117.374C64.3562 117.459 64.3213 117.563 64.3215 117.67V121.866C64.3215 121.91 64.3315 121.953 64.3507 121.992C64.37 122.031 64.398 122.066 64.4326 122.093C64.4673 122.119 64.5075 122.138 64.5504 122.146C64.5932 122.155 64.6375 122.154 64.6797 122.142L65.4509 121.932C65.4963 121.92 65.5394 121.901 65.5786 121.875V121.966C65.57 122.087 65.5936 122.208 65.6469 122.317C65.7002 122.426 65.7814 122.518 65.8821 122.585C65.9693 122.634 66.0675 122.659 66.1672 122.659C66.3106 122.655 66.4504 122.614 66.5733 122.54L67.1369 122.22C67.1641 122.205 67.1881 122.185 67.2074 122.161C67.2266 122.137 67.2407 122.109 67.2488 122.079C67.2569 122.049 67.2589 122.018 67.2545 121.987C67.2502 121.956 67.2397 121.927 67.2236 121.9C67.2091 121.873 67.1893 121.85 67.1655 121.831C67.1417 121.812 67.1143 121.797 67.0849 121.789C67.0556 121.781 67.0249 121.779 66.9946 121.782C66.9643 121.786 66.9351 121.796 66.9087 121.811V121.811Z" fill="#280A38"/>
<path fill-rule="evenodd" clip-rule="evenodd" d="M91.1448 125.15L82.295 130.129V127.096C82.2948 126.702 82.3982 126.315 82.5948 125.974C82.7915 125.633 83.0744 125.35 83.4152 125.153L90.1729 121.254C90.2716 121.197 90.3835 121.167 90.4975 121.167C90.6114 121.167 90.7233 121.197 90.8219 121.254C90.9204 121.312 91.0022 121.394 91.0589 121.493C91.1156 121.592 91.1452 121.704 91.1448 121.818V125.15Z" fill="#FF6429"/>
<path fill-rule="evenodd" clip-rule="evenodd" d="M80.1937 128.967L76.6666 131.004V127.964L79.7488 126.183C79.8168 126.146 79.8931 126.127 79.9704 126.128C80.0477 126.128 80.1235 126.149 80.1908 126.187C80.2581 126.225 80.3146 126.28 80.355 126.346C80.3954 126.412 80.4184 126.487 80.4219 126.564V128.576C80.421 128.656 80.3995 128.733 80.3595 128.802C80.3195 128.87 80.2624 128.927 80.1937 128.967Z" fill="#280A38"/>
<path fill-rule="evenodd" clip-rule="evenodd" d="M76.662 131.004L76.0278 131.376C75.9597 131.41 75.8843 131.426 75.8085 131.423C75.7327 131.42 75.6589 131.398 75.5937 131.359C75.5284 131.32 75.4739 131.266 75.435 131.201C75.396 131.136 75.374 131.062 75.3707 130.986V128.955C75.3716 128.876 75.3931 128.798 75.4331 128.73C75.4731 128.661 75.5302 128.605 75.5989 128.565L76.6552 127.964L76.662 131.004Z" fill="#FF6429"/>
<path fill-rule="evenodd" clip-rule="evenodd" d="M96.4081 119.881L93.3008 121.676C93.2359 121.714 93.1622 121.734 93.0871 121.734C93.012 121.734 92.9382 121.715 92.8732 121.677C92.8082 121.64 92.7542 121.586 92.7167 121.521C92.6792 121.455 92.6595 121.382 92.6597 121.306V119.251C92.6598 119.176 92.6796 119.102 92.7173 119.037C92.7549 118.972 92.809 118.918 92.8741 118.881L96.4081 116.825V119.868V119.881Z" fill="#280A38"/>
<path fill-rule="evenodd" clip-rule="evenodd" d="M97.485 119.255L96.4081 119.879V116.839L97.0606 116.464C97.1255 116.427 97.1989 116.408 97.2737 116.408C97.3484 116.408 97.4218 116.428 97.4865 116.465C97.5512 116.503 97.6049 116.557 97.6423 116.621C97.6796 116.686 97.6994 116.76 97.6994 116.834V118.89C97.6986 118.964 97.6783 119.037 97.6407 119.101C97.6031 119.165 97.5494 119.218 97.485 119.255Z" fill="#FF6429"/>
<path fill-rule="evenodd" clip-rule="evenodd" d="M94.2522 107.363C93.6179 105.611 88.3431 95.8196 86.3058 93.3003C85.2974 92.051 84.889 91.7495 84.3095 92.0441L63.7329 103.9C63.6214 103.964 63.5243 104.05 63.4479 104.154C63.3715 104.257 63.3175 104.375 63.2892 104.501C63.2608 104.626 63.2589 104.756 63.2834 104.882C63.308 105.009 63.3585 105.128 63.4317 105.234C66.1399 109.117 69.3841 114.854 71.807 119.89C71.8699 120.021 71.959 120.137 72.0687 120.232C72.1784 120.326 72.3064 120.397 72.4446 120.44C72.5829 120.483 72.7285 120.497 72.8724 120.481C73.0163 120.465 73.1553 120.419 73.2809 120.347L93.5449 108.671C93.773 108.537 94.567 108.24 94.2522 107.363Z" fill="#FF6429"/>
<path fill-rule="evenodd" clip-rule="evenodd" d="M66.6646 135.49C65.5239 131.022 62.3983 126.464 58.7023 124.326C55.0063 122.188 51.8579 123.118 50.7331 126.276L66.6646 135.49Z" fill="#280A38"/>
<path d="M63.3075 141.909C65.8234 140.441 65.8043 135.715 63.2649 131.352C60.7254 126.989 56.6273 124.643 54.1113 126.11C51.5954 127.578 51.6145 132.304 54.1539 136.667C56.6934 141.03 60.7916 143.377 63.3075 141.909Z" fill="#B066FF"/>
<path d="M61.3306 138.519C62.7666 137.681 62.7561 134.984 61.3071 132.495C59.8582 130.006 57.5195 128.667 56.0836 129.505C54.6476 130.342 54.6581 133.039 56.1071 135.529C57.556 138.018 59.8947 139.357 61.3306 138.519Z" fill="#EAE7EB"/>
<path fill-rule="evenodd" clip-rule="evenodd" d="M58.7022 135.737C58.2684 135.454 57.907 135.073 57.6474 134.625C57.3878 134.176 57.2372 133.673 57.2079 133.156C57.2079 132.208 57.8786 131.824 58.7022 132.299C59.1355 132.582 59.4962 132.963 59.7553 133.412C60.0145 133.86 60.1649 134.363 60.1943 134.88C60.1943 135.828 59.5236 136.212 58.7022 135.737Z" fill="#280A38"/>
<path d="M22.8512 80.9075L17.5833 77.9178L20.2184 76.239L25.4863 79.2288L22.8512 80.9075Z" fill="white"/>
<path d="M20.2184 88.9334L14.9504 85.9414L17.5833 84.2649L22.8512 87.2546L20.2184 88.9334Z" fill="white"/>
<path d="M14.9504 76.4218V85.9414L17.5833 84.2649V74.743L14.9504 76.4218Z" fill="white"/>
<path d="M22.8513 80.9075V90.4294L25.4864 88.7506V79.2288L22.8513 80.9075Z" fill="white"/>
<path d="M34.1308 114.206C34.1275 114.094 34.1685 113.986 34.2449 113.904C34.6761 113.422 36.2982 111.328 36.8389 110.62C37.0807 110.302 37.788 110.643 37.5644 111.115C37.3408 111.588 35.867 114.71 35.5978 115.023C35.3286 115.336 34.1605 115.064 34.1308 114.206Z" fill="#280A38"/>
<path d="M36.8115 111.216L37.0032 111.335C37.2929 111.515 37.7355 111.307 37.9637 110.878L39.0383 108.895C39.2413 108.523 39.2003 108.112 38.9447 107.952L38.8694 107.906C38.5957 107.735 38.185 107.906 37.9409 108.292L36.7522 110.202C36.5127 110.595 36.5401 111.045 36.8115 111.216Z" fill="#280A38"/>
<path fill-rule="evenodd" clip-rule="evenodd" d="M41.865 137.806C40.268 136.892 38.8261 136.787 37.772 137.372C36.718 137.957 34.2974 139.553 34.2974 139.553L42.8734 153.59C42.8734 153.59 45.0568 152.252 46.1222 151.56C47.0987 150.925 47.6942 149.657 47.6942 147.885C47.6828 144.178 45.0728 139.667 41.865 137.806Z" fill="#280A38"/>
<path fill-rule="evenodd" clip-rule="evenodd" d="M38.6892 139.786C35.47 137.925 32.86 139.421 32.86 143.125C32.86 146.83 35.47 151.348 38.6892 153.202C41.9084 155.057 44.5184 153.57 44.5184 149.865C44.5184 146.161 41.9084 141.638 38.6892 139.786Z" fill="#280A38"/>
<path fill-rule="evenodd" clip-rule="evenodd" d="M35.4039 144.608C35.4039 146.695 36.8754 149.237 38.6892 150.288C40.503 151.338 41.9745 150.493 41.9745 148.406C41.9745 146.318 40.503 143.774 38.6892 142.726C36.8754 141.677 35.4039 142.509 35.4039 144.608Z" fill="#CAD1D7"/>
<path fill-rule="evenodd" clip-rule="evenodd" d="M37.455 145.781C37.4789 146.209 37.6031 146.625 37.8176 146.996C38.032 147.366 38.3306 147.681 38.6892 147.915C39.3737 148.308 39.9235 147.992 39.9235 147.209C39.9001 146.781 39.7761 146.365 39.5616 145.994C39.3471 145.624 39.0482 145.309 38.6892 145.076C38.0071 144.683 37.455 144.998 37.455 145.781Z" fill="#30121B"/>
<path fill-rule="evenodd" clip-rule="evenodd" d="M14.2364 121.809C12.6394 120.895 11.1952 120.79 10.1434 121.375C9.09169 121.96 6.66876 123.558 6.66876 123.558L15.2425 137.593C15.2425 137.593 17.4282 136.255 18.4913 135.563C19.4678 134.928 20.0656 133.66 20.0656 131.888C20.0656 128.183 17.4533 123.67 14.2364 121.809Z" fill="#280A38"/>
<path fill-rule="evenodd" clip-rule="evenodd" d="M11.0651 123.789C7.84371 121.93 5.2337 123.424 5.2337 127.128C5.2337 130.833 7.84371 135.351 11.0651 137.207C14.2866 139.064 16.8943 137.573 16.8943 133.868C16.8943 130.164 14.2911 125.651 11.0651 123.789Z" fill="#280A38"/>
<path fill-rule="evenodd" clip-rule="evenodd" d="M7.78668 128.599C7.78668 130.687 9.25595 133.231 11.072 134.279C12.8881 135.328 14.3573 134.485 14.3573 132.397C14.3573 130.31 12.8903 127.765 11.0652 126.717C9.23998 125.669 7.78668 126.512 7.78668 128.599Z" fill="#CAD1D7"/>
<path fill-rule="evenodd" clip-rule="evenodd" d="M9.83771 129.785C9.86112 130.212 9.98511 130.628 10.1996 130.999C10.4141 131.37 10.713 131.685 11.072 131.918C11.7564 132.311 12.304 131.995 12.304 131.212C12.2802 130.784 12.1556 130.367 11.9403 129.996C11.725 129.624 11.4252 129.31 11.0651 129.077C10.3807 128.686 9.83771 129.001 9.83771 129.785Z" fill="#280A38"/>
<path fill-rule="evenodd" clip-rule="evenodd" d="M44.2286 134.997L46.5626 138.226C46.6884 138.401 46.7762 138.601 46.8204 138.812C46.8645 139.023 46.864 139.241 46.8189 139.452C46.7738 139.662 46.685 139.862 46.5583 140.036C46.4317 140.21 46.2699 140.356 46.0835 140.464H46.0606C45.0636 141.042 42.2323 142.129 40.1516 140.875C34.9042 137.708 31.2813 142.294 31.2813 142.294C31.2813 142.294 29.4721 136.15 35.1735 134.528C40.8749 132.907 44.2286 134.997 44.2286 134.997Z" fill="#3264FF"/>
<path d="M34.9932 119.162C34.7866 119.13 34.5753 119.161 34.3863 119.251C33.8707 119.507 31.2196 120.621 31.2196 120.621L35.5362 125.319C36.3712 129.015 36.3644 132.096 34.9704 134.238L34.3361 135.204C33.7589 136.093 32.6456 136.209 31.4364 135.51L28.1762 133.622C27.2157 133.067 26.3669 131.861 26.0726 130.639L25.1943 127.021C24.6216 124.636 22.9607 122.284 21.0876 121.201L11.9389 115.914L9.09392 120.423C8.52355 121.336 8.65588 122.905 9.42702 124.429C9.94228 125.497 10.747 126.399 11.7496 127.032L21.7356 136.358L30.8957 142.659C30.8957 142.659 29.0887 136.472 34.3886 136.086C35.1575 136.029 37.9249 136.771 37.9249 136.771C38.1827 136.337 39.1865 137.879 39.1865 137.879C39.1865 137.879 44.4111 134.91 44.5777 134.793C45.0727 134.432 45.2096 133.288 43.4917 130.589L38.1439 121.964C37.391 120.443 36.1134 119.306 34.9932 119.162Z" fill="white"/>
<path d="M19.1804 122.113L10.7047 117.638L2.44348 112.403L7.30986 109.434C7.30986 109.434 15.3406 113.92 16.3787 114.521L21.6786 117.584C22.2489 117.912 22.9471 117.812 24.0604 117.88C25.1738 117.949 26.2985 120.455 26.7982 122.115L27.4233 124.214C27.7884 125.434 27.6515 126.498 27.129 127.044C26.999 127.179 21.9318 130.097 21.9318 130.097C21.9318 130.097 21.4436 123.419 19.1804 122.113Z" fill="white"/>
<path d="M15.3041 123.823L4.10209 117.364L2.75146 115.03C2.31487 114.227 2.20455 113.286 2.44346 112.404L11.2454 117.513L16.5407 120.58C17.111 120.911 18.0875 120.841 19.1096 121.137C20.1317 121.434 21.1629 123.451 21.6557 125.112L22.2831 127.213C22.7394 128.725 22.4292 129.992 21.5303 130.349L20.2572 130.851C19.5705 127.971 17.5651 125.132 15.3041 123.823Z" fill="#280A38"/>
<path d="M3.96065 123.421L5.45045 122.024L6.81934 118.913L15.9658 124.2C17.8411 125.285 19.4998 127.626 20.0724 130.02L20.9394 133.631C21.2337 134.853 22.0801 136.059 23.0452 136.614L26.3145 138.502C27.5237 139.201 28.637 139.085 29.2143 138.196L29.8462 137.226C31.0075 135.44 31.4204 132.863 31.044 129.917C30.8392 128.391 30.731 126.853 30.72 125.313V122.526C30.7816 121.112 30.9299 120.391 31.8608 120.509C32.981 120.653 34.2586 121.791 35.0024 123.309L38.7463 133.416C40.0695 136.385 39.8208 138.053 38.8033 137.918C38.8033 137.918 37.4116 137.349 36.1819 137.541C32.5703 138.107 31.1421 141.638 31.2813 142.305C30.5854 143.128 29.3922 143.191 28.0986 142.445L17.6814 136.42C17.6814 136.42 16.8031 131.781 11.3617 127.585C7.12734 124.324 5.71054 129.378 5.30672 128.919C4.91193 128.466 4.57474 127.966 4.30287 127.43C3.52261 125.906 3.39257 124.324 3.96065 123.421Z" fill="#FF9F00"/>
<path d="M18.2769 136.769C18.1665 136.839 18.0415 136.883 17.9115 136.898C17.7815 136.912 17.6499 136.897 17.5267 136.853C17.4035 136.809 17.2919 136.737 17.2005 136.644C17.1092 136.55 17.0403 136.436 16.9993 136.312C16.2236 134.005 13.917 129.89 10.1845 128.213C7.10681 126.827 5.45731 129.056 5.45731 129.056C5.45731 129.056 2.29519 125.984 4.08843 123.209C5.34323 121.27 7.86654 121.423 9.77157 122.168C12.2173 123.124 13.787 125.084 15.149 127.256C16.9315 130.048 18.0002 133.235 18.2609 136.538L18.2746 136.767L18.2769 136.769Z" fill="#3264FF"/>
<path d="M37.0146 120.13L33.6266 122.088C33.4198 122.207 33.1841 122.267 32.9453 122.261C32.7066 122.255 32.4741 122.183 32.2737 122.053L30.7497 121.069C30.582 120.959 30.4484 120.804 30.3641 120.622C30.2798 120.44 30.2482 120.238 30.2728 120.039L30.9573 114.708L32.098 115.313C32.2906 115.435 32.513 115.501 32.7408 115.505C32.9686 115.509 33.1929 115.449 33.3893 115.334L35.2784 114.217L37.3477 119.164C37.4199 119.338 37.4258 119.532 37.3644 119.71C37.303 119.889 37.1786 120.038 37.0146 120.13V120.13Z" fill="#3264FF"/>
<path d="M33.565 119.694C33.7703 120.217 34.0943 120.514 34.4571 120.573C34.8198 120.633 35.8556 120.345 36.2161 119.888C36.5654 119.462 36.7947 118.95 36.8801 118.406C36.9656 117.861 36.9041 117.304 36.702 116.791C36.4739 116.231 35.5613 115.612 35.1689 115.585C34.8198 115.56 34.4388 115.754 34.1057 116.172C33.3939 117.058 33.1521 118.636 33.565 119.694Z" fill="#FF9F00"/>
<path d="M34.7514 119.484C35.0776 120.315 35.794 120.423 36.3484 119.712C36.6318 119.315 36.8177 118.857 36.891 118.374C36.9643 117.892 36.9231 117.398 36.7705 116.935C36.4465 116.101 35.7279 115.996 35.1735 116.707C34.8901 117.104 34.7042 117.562 34.6309 118.045C34.5575 118.527 34.5988 119.02 34.7514 119.484V119.484Z" fill="white"/>
<path d="M31.1056 115.03L32.2098 115.658C32.3574 115.744 32.5251 115.789 32.6958 115.789C32.8665 115.789 33.0341 115.744 33.1817 115.658L35.1187 114.53C35.1656 114.503 35.2046 114.464 35.2317 114.417C35.2588 114.37 35.273 114.317 35.273 114.263C35.273 114.208 35.2588 114.155 35.2317 114.108C35.2046 114.061 35.1656 114.022 35.1187 113.995L34.0144 113.365C33.8665 113.28 33.699 113.236 33.5285 113.236C33.358 113.236 33.1905 113.28 33.0425 113.365L31.1056 114.496C31.0587 114.523 31.0197 114.562 30.9926 114.608C30.9655 114.655 30.9512 114.709 30.9512 114.763C30.9512 114.817 30.9655 114.87 30.9926 114.917C31.0197 114.964 31.0587 115.003 31.1056 115.03Z" fill="white"/>
<path d="M31.4889 115.601C31.4432 115.57 31.3918 115.549 31.3377 115.538C31.2836 115.528 31.228 115.528 31.174 115.539C30.5375 115.651 27.9024 115.921 27.0172 115.996C26.6202 116.035 26.5358 116.814 27.0537 116.876C27.5716 116.937 30.9984 117.332 31.4068 117.273C31.8151 117.214 32.2007 116.083 31.4889 115.601Z" fill="#280A38"/>
<path d="M27.5351 116.286V116.515C27.5351 116.855 27.1244 117.122 26.6476 117.095L24.4003 116.958C23.976 116.933 23.6497 116.681 23.6497 116.378V116.286C23.6497 115.967 24.017 115.704 24.4688 115.704H26.716C27.17 115.713 27.5351 115.976 27.5351 116.286Z" fill="#280A38"/>
<path d="M0.570412 107.013V107.037C0.56914 107.029 0.56914 107.021 0.570412 107.013Z" fill="#F9BB58"/>
<path d="M18.959 114.989L9.47949 120.468V110.706L18.959 105.23V114.989Z" fill="#FF9F00"/>
<path d="M9.47952 120.468L0 114.989V105.23L9.47952 110.706V120.468Z" fill="#280A38"/>
<path d="M18.959 105.23L9.47952 110.706L0 105.23L9.47952 99.7503L18.959 105.23Z" fill="white"/>
<path d="M15.3931 103.176L5.92502 108.642L3.56598 107.276L13.0341 101.81L15.3931 103.176Z" fill="#3264FF"/>
<path d="M5.92502 108.655L3.56598 107.278V109.998L5.92502 111.376V108.655Z" fill="#3264FF"/>
</svg>
