<svg width="58" height="153" viewBox="0 0 58 153" fill="none" xmlns="http://www.w3.org/2000/svg">
<path d="M14.2268 153L1.05658 145.29L1 125.373L14.1702 133.084L14.2268 153Z" fill="#280A38"/>
<path d="M38.3889 85.7704L51.5667 93.4808C47.5872 91.1494 42.0762 91.4781 35.9937 95.016L22.8234 87.3056C28.8984 83.7677 34.4037 83.439 38.3889 85.7704Z" fill="#280A38"/>
<path d="M35.9861 95.016C48.0738 87.9858 57.9038 93.629 57.9434 107.623L58 127.539L14.2231 153L14.1665 133.084C14.1306 119.09 23.8985 102.046 35.9861 95.016Z" fill="#3264FF"/>
<path d="M14.1702 133.084L0.999998 125.373C0.960391 111.379 10.7282 94.3378 22.8159 87.3057L35.9861 95.0161C23.8985 102.046 14.1306 119.09 14.1702 133.084Z" fill="#14B4EF"/>
<path d="M28.6814 96.6767C39.3269 96.6767 47.9568 87.9827 47.9568 77.2582C47.9568 66.5336 39.3269 57.8396 28.6814 57.8396C18.0359 57.8396 9.40607 66.5336 9.40607 77.2582C9.40607 87.9827 18.0359 96.6767 28.6814 96.6767Z" fill="#FF9F00"/>
<path d="M26.2938 52.1604L17.9801 47.2944L13.4404 43.0914L21.7522 47.9575L26.2938 52.1604Z" fill="#280A38"/>
<path d="M39.017 5.5102C41.5895 4.01296 43.683 5.21569 43.6906 8.19308L43.7491 29.2438C43.7585 32.2231 41.6744 35.8503 39.1056 37.3475L32.3045 41.3034C31.9096 41.5558 31.5958 41.9181 31.4011 42.3466L26.8991 51.7993C26.8351 51.9434 26.7301 52.065 26.5974 52.1489C26.5537 52.1824 26.5004 52.2005 26.4456 52.2005C26.3907 52.2005 26.3374 52.1824 26.2937 52.1489L21.754 47.946C21.5371 47.756 21.2014 47.756 20.8468 47.9555L14.0458 51.9114C11.4732 53.4087 9.37969 52.2078 9.37214 49.2286L9.31934 28.1893C9.31934 25.2119 11.394 21.5828 13.9628 20.0874L39.017 5.5102Z" fill="#F0324E"/>
<path d="M30.2016 19.4395C33.9511 17.2582 35.839 21.5105 33.2193 26.1372L26.9161 37.2335C26.8334 37.3883 26.7126 37.5191 26.5653 37.6135C26.5148 37.6503 26.4554 37.6727 26.3934 37.6784C26.3313 37.6841 26.2689 37.6728 26.2126 37.6458L19.868 33.9065C17.2105 32.3408 19.0928 25.9092 22.831 23.7355C25.0942 22.4226 26.1202 23.7355 26.5257 23.8628C26.9199 23.2662 27.9478 20.7505 30.2016 19.4395Z" fill="white"/>
<path d="M34.0265 0.317207C33.1796 -0.178707 32.0065 -0.110306 30.7127 0.644015L5.64341 15.2193C4.35147 15.9794 3.19155 17.2619 2.34283 18.7363L10.6546 23.6024C11.4958 22.1279 12.6633 20.8378 13.9552 20.0873L39.0169 5.51006C40.3108 4.75003 41.4839 4.68733 42.3307 5.18325L34.0265 0.317207Z" fill="#FF9F00"/>
<path d="M2.34099 18.7383C1.50736 20.1994 0.994356 21.843 0.998129 23.325L1.05848 44.3757C1.05848 45.8559 1.58091 46.8971 2.41643 47.3854L10.7282 52.2514C9.89271 51.7631 9.37404 50.7219 9.37027 49.2418L9.31935 28.1892C9.31935 26.7071 9.82858 25.0636 10.6622 23.6024L2.34099 18.7383Z" fill="#280A38"/>
</svg>
