<svg width="333" height="336" viewBox="0 0 333 336" fill="none" xmlns="http://www.w3.org/2000/svg">
<path fill-rule="evenodd" clip-rule="evenodd" d="M306.521 187.191L193.343 254.18L0 142.334L115.768 75.6758L306.521 187.191Z" fill="#280A38"/>
<path d="M222.502 160.952L133.104 212.563V121.835L222.502 70.229V160.952Z" fill="#B066FF"/>
<path d="M133.104 212.563L11.7006 142.334V51.606L133.104 121.835V212.563Z" fill="#FF6429"/>
<path d="M222.502 70.2291L133.104 121.835L11.7006 51.6062L101.099 0L222.502 70.2291Z" fill="white"/>
<path fill-rule="evenodd" clip-rule="evenodd" d="M98.4617 234.705L70.2417 250.979V226.388L98.4617 210.119V234.705Z" fill="#280A38"/>
<path fill-rule="evenodd" clip-rule="evenodd" d="M227.287 308.884L199.067 325.157V300.567L227.287 284.298V308.884Z" fill="#280A38"/>
<path fill-rule="evenodd" clip-rule="evenodd" d="M82.853 227.823C78.7883 211.379 67.2395 194.523 53.5895 186.656C39.9396 178.789 28.9789 182.777 24.3024 194.054L82.853 227.823Z" fill="#280A38"/>
<path fill-rule="evenodd" clip-rule="evenodd" d="M53.5943 249.274C40.5372 241.748 29.88 223.381 29.88 208.395C29.88 193.41 40.5277 187.319 53.5943 194.849C66.6609 202.38 77.3086 220.743 77.3086 235.733C77.3086 250.723 66.6466 256.804 53.5943 249.274Z" fill="#B066FF"/>
<path d="M63.2065 238.522C68.4639 235.463 68.4238 225.611 63.1169 216.516C57.8101 207.422 49.2461 202.529 43.9886 205.589C38.7312 208.648 38.7713 218.5 44.0782 227.595C49.385 236.689 57.949 241.582 63.2065 238.522Z" fill="#EAE7EB"/>
<path fill-rule="evenodd" clip-rule="evenodd" d="M53.5943 228.339C50.5826 226.601 48.1258 222.367 48.1258 218.909C48.1258 215.452 50.5826 214.045 53.5943 215.784C56.606 217.522 59.058 221.756 59.058 225.213C59.058 228.671 56.6012 230.078 53.5943 228.339Z" fill="#280A38"/>
<path fill-rule="evenodd" clip-rule="evenodd" d="M314.167 174.199L311.606 175.748C311.442 175.845 311.284 175.951 311.131 176.065V175.591C311.131 174.431 310.719 173.555 309.965 173.129C309.135 172.655 308.068 172.792 306.796 173.545L303.723 175.34C303.53 175.456 303.391 175.644 303.336 175.862C303.281 176.08 303.314 176.31 303.429 176.504C303.543 176.697 303.729 176.838 303.947 176.895C304.165 176.952 304.396 176.921 304.591 176.809L307.664 174.99C308.447 174.516 308.931 174.478 309.087 174.587C309.244 174.696 309.396 175.061 309.396 175.568V193.997C309.38 194.514 309.247 195.02 309.007 195.479C308.767 195.937 308.426 196.336 308.011 196.644C307.181 197.118 303.695 199.197 303.695 199.197L304.572 200.66C304.572 200.66 308.039 198.6 308.869 198.122C309.542 197.66 310.095 197.045 310.484 196.328C310.872 195.611 311.084 194.812 311.103 193.997V193.812C311.259 193.852 311.422 193.852 311.577 193.812C311.577 193.812 313.451 192.789 314.153 192.263C314.855 191.737 315.471 191.344 315.471 190.539V175.208C315.471 175.049 315.435 174.892 315.365 174.749C315.294 174.606 315.193 174.481 315.067 174.384C314.941 174.287 314.794 174.219 314.638 174.187C314.482 174.155 314.321 174.159 314.167 174.199Z" fill="#280A38"/>
<path fill-rule="evenodd" clip-rule="evenodd" d="M267.412 124.564L234.771 106.007C232.685 104.799 230.797 104.757 229.488 105.661C228.35 106.457 140.389 156.727 140.389 156.727L236.294 303.883C236.294 303.883 324.302 253.015 325.554 252.471C327.072 251.841 328.035 250.174 328.035 247.711V231.731C328.035 214.069 283.063 130.82 267.412 124.564Z" fill="white"/>
<path fill-rule="evenodd" clip-rule="evenodd" d="M332 258.443V252.162C332.029 251.908 332.006 251.651 331.931 251.406C331.856 251.162 331.731 250.935 331.564 250.741L243.218 300.429C242.962 300.576 242.672 300.653 242.377 300.653C242.081 300.653 241.791 300.576 241.535 300.429L238.836 298.866V282.853C238.836 265.329 195.297 185.201 180.783 177.145L145.606 157.134C141.679 154.87 138.491 156.708 138.491 161.212V222.4L0 142.333V179.726L231.494 313.724L238.822 309.409L241.724 311.081C242.041 311.28 242.406 311.39 242.78 311.399C243.154 311.408 243.523 311.317 243.849 311.133L331.445 260.418C332.081 260.043 332 259.172 332 258.443Z" fill="#FF6429"/>
<path fill-rule="evenodd" clip-rule="evenodd" d="M216.673 253.432C218.039 254.498 221.989 252.854 220.974 249.368C219.552 244.547 192.916 192.832 184.36 188.536C183.691 188.11 144.392 165.92 144.392 165.92C144.235 165.83 144.107 165.92 144.107 166.086V211.644C144.115 211.739 144.145 211.832 144.195 211.914C144.244 211.996 144.311 212.066 144.392 212.118L216.673 253.432Z" fill="white"/>
<path fill-rule="evenodd" clip-rule="evenodd" d="M331.559 250.765L242.422 300.917L238.841 298.852L328.04 248.729L331.559 250.765Z" fill="white"/>
<path fill-rule="evenodd" clip-rule="evenodd" d="M211.897 251.945L209.824 253.119C209.709 253.208 209.575 253.269 209.433 253.297C209.291 253.326 209.144 253.322 209.003 253.285C208.904 253.183 208.829 253.059 208.784 252.924C208.738 252.789 208.724 252.645 208.743 252.504V234.07C208.789 233.407 208.987 232.763 209.321 232.188C209.656 231.613 210.119 231.123 210.673 230.755L212.741 229.585C212.937 229.472 213.081 229.286 213.14 229.068C213.2 228.849 213.17 228.617 213.059 228.42C213.004 228.322 212.93 228.236 212.842 228.167C212.754 228.098 212.652 228.047 212.544 228.018C212.436 227.988 212.323 227.98 212.212 227.995C212.101 228.009 211.994 228.046 211.897 228.102L209.824 229.277C209.01 229.796 208.332 230.502 207.846 231.336C207.36 232.169 207.081 233.107 207.03 234.07V234.297C206.874 234.261 206.712 234.261 206.556 234.297L203.734 235.06C203.356 235.162 203.021 235.386 202.783 235.696C202.545 236.007 202.416 236.388 202.416 236.779V252.106C202.416 252.266 202.453 252.424 202.524 252.568C202.596 252.711 202.699 252.837 202.826 252.934C202.954 253.032 203.102 253.098 203.259 253.13C203.417 253.161 203.579 253.156 203.734 253.115L206.556 252.352C206.724 252.307 206.884 252.237 207.03 252.144V252.475C206.998 252.917 207.085 253.36 207.282 253.757C207.479 254.154 207.779 254.492 208.15 254.734C208.466 254.915 208.824 255.008 209.188 255.004C209.713 254.991 210.225 254.841 210.673 254.569L212.741 253.399C212.937 253.286 213.081 253.1 213.14 252.881C213.2 252.663 213.17 252.43 213.059 252.234C213.002 252.138 212.926 252.055 212.837 251.989C212.747 251.923 212.646 251.875 212.538 251.848C212.43 251.821 212.318 251.816 212.208 251.832C212.097 251.849 211.992 251.887 211.897 251.945V251.945Z" fill="#280A38"/>
<path fill-rule="evenodd" clip-rule="evenodd" d="M300.631 264.14L268.209 282.332V271.254C268.208 269.814 268.587 268.399 269.308 267.152C270.029 265.905 271.067 264.869 272.316 264.15L297.064 249.913C297.425 249.702 297.836 249.591 298.254 249.59C298.672 249.589 299.083 249.698 299.445 249.907C299.807 250.116 300.107 250.416 300.315 250.778C300.524 251.14 300.633 251.551 300.631 251.968V264.14Z" fill="#FF6429"/>
<path fill-rule="evenodd" clip-rule="evenodd" d="M260.535 278.084L247.62 285.529V274.423L258.903 267.915C259.151 267.772 259.434 267.696 259.721 267.696C260.008 267.697 260.29 267.773 260.538 267.917C260.786 268.061 260.991 268.269 261.133 268.518C261.275 268.767 261.348 269.05 261.346 269.336V276.696C261.343 276.978 261.267 277.254 261.125 277.498C260.982 277.741 260.779 277.943 260.535 278.084V278.084Z" fill="#280A38"/>
<path fill-rule="evenodd" clip-rule="evenodd" d="M247.62 285.53L245.291 286.894C245.044 287.027 244.766 287.094 244.485 287.089C244.205 287.083 243.93 287.005 243.688 286.862C243.447 286.719 243.246 286.516 243.107 286.272C242.967 286.029 242.893 285.753 242.891 285.473V278.046C242.893 277.755 242.973 277.469 243.123 277.219C243.273 276.969 243.488 276.764 243.745 276.626L247.62 274.433V285.53Z" fill="#FF6429"/>
<path fill-rule="evenodd" clip-rule="evenodd" d="M319.939 244.892L308.556 251.452C308.319 251.59 308.049 251.662 307.775 251.662C307.501 251.663 307.231 251.591 306.994 251.454C306.756 251.317 306.559 251.12 306.422 250.883C306.285 250.645 306.213 250.376 306.213 250.102V242.595C306.214 242.322 306.286 242.053 306.424 241.816C306.561 241.579 306.758 241.382 306.996 241.246L319.939 233.781V244.892V244.892Z" fill="#280A38"/>
<path fill-rule="evenodd" clip-rule="evenodd" d="M323.885 242.619L319.939 244.893V233.781L322.31 232.408C322.548 232.27 322.818 232.198 323.092 232.198C323.367 232.198 323.637 232.27 323.875 232.407C324.112 232.545 324.31 232.743 324.446 232.98C324.583 233.218 324.654 233.488 324.653 233.762V241.269C324.654 241.542 324.584 241.81 324.449 242.046C324.314 242.283 324.12 242.481 323.885 242.619V242.619Z" fill="#FF6429"/>
<path fill-rule="evenodd" clip-rule="evenodd" d="M312.047 199.159C309.713 192.761 290.4 157.007 282.94 147.78C279.24 143.219 277.746 142.097 275.631 143.191L200.262 186.509C199.855 186.743 199.5 187.058 199.22 187.436C198.941 187.814 198.743 188.246 198.639 188.704C198.536 189.162 198.528 189.636 198.617 190.097C198.706 190.558 198.89 190.996 199.157 191.382C209.079 205.591 220.974 226.53 229.839 244.902C230.069 245.378 230.395 245.802 230.797 246.146C231.199 246.491 231.667 246.749 232.173 246.904C232.679 247.06 233.212 247.11 233.738 247.05C234.265 246.991 234.773 246.824 235.231 246.56L309.448 203.905C310.292 203.446 313.209 202.361 312.047 199.159Z" fill="#FF6429"/>
<path fill-rule="evenodd" clip-rule="evenodd" d="M211.005 301.917C206.855 285.596 195.377 268.943 181.836 261.133C168.296 253.323 156.799 256.724 152.649 268.261L211.005 301.917Z" fill="#280A38"/>
<path d="M198.686 325.384C207.902 320.021 207.832 302.752 198.531 286.812C189.229 270.872 174.218 262.297 165.002 267.66C155.787 273.022 155.856 290.292 165.158 306.232C174.459 322.172 189.47 330.746 198.686 325.384Z" fill="#B066FF"/>
<path d="M191.453 312.994C196.711 309.934 196.671 300.082 191.364 290.987C186.057 281.893 177.493 277 172.235 280.06C166.978 283.119 167.018 292.972 172.325 302.066C177.632 311.16 186.196 316.053 191.453 312.994Z" fill="#EAE7EB"/>
<path fill-rule="evenodd" clip-rule="evenodd" d="M181.836 302.817C178.825 301.083 176.368 296.844 176.368 293.387C176.368 289.929 178.806 288.537 181.836 290.266C184.867 291.994 187.305 296.238 187.305 299.696C187.305 303.153 184.848 304.555 181.836 302.817Z" fill="#280A38"/>
<path d="M50.5304 102.511L31.2412 91.5846L40.8834 85.4512L60.1774 96.3777L50.5304 102.511Z" fill="white"/>
<path d="M40.8834 131.829L21.5942 120.902L31.2412 114.773L50.5304 125.7L40.8834 131.829Z" fill="white"/>
<path d="M21.5942 86.1193V120.902L31.2412 114.774V79.9858L21.5942 86.1193Z" fill="white"/>
<path d="M50.5304 102.511V137.294L60.1774 131.166V96.3779L50.5304 102.511Z" fill="white"/>
</svg>
