<svg width="103" height="26" viewBox="0 0 103 26" fill="none" xmlns="http://www.w3.org/2000/svg">
<path d="M19.4999 7.0001H6.8999L13.1999 0.600098H25.8999L19.4999 7.0001Z" fill="#00D273"/>
<path d="M13.2 26.0002H0.5L6.89999 19.7002H19.5L13.2 26.0002Z" fill="#FF6429"/>
<path d="M0.5 7.0001V26.0001L6.89999 19.7001V0.600098L0.5 7.0001Z" fill="#14B4EF"/>
<path d="M19.5 7.0001V26.0001L25.9 19.7001V0.600098L19.5 7.0001Z" fill="#B066FF"/>
<path d="M32.2002 3.80005H35.0002V20.1H44.3002V22.9H32.2002V3.80005Z" fill="white"/>
<path d="M52.3004 23.1C51.3004 23.1 50.3004 22.9 49.4004 22.5C48.5004 22.1 47.7004 21.6 47.1004 20.9C46.4004 20.2 45.9004 19.5 45.5004 18.6C45.1004 17.7 44.9004 16.8 44.9004 15.7C44.9004 14.7 45.1004 13.7 45.5004 12.8C45.9004 11.9 46.4004 11.1 47.1004 10.5C47.8004 9.80005 48.5004 9.30005 49.4004 8.90005C50.3004 8.50005 51.2004 8.30005 52.3004 8.30005C53.3004 8.30005 54.3004 8.50005 55.2004 8.90005C56.1004 9.30005 56.9004 9.80005 57.5004 10.5C58.2004 11.2 58.7004 11.9 59.1004 12.8C59.5004 13.7 59.7004 14.6 59.7004 15.7C59.7004 16.7 59.5004 17.7 59.1004 18.6C58.7004 19.5 58.2004 20.3 57.5004 20.9C56.8004 21.6 56.1004 22.1 55.2004 22.5C54.2004 22.9 53.3004 23.1 52.3004 23.1ZM52.3004 20.5C52.9004 20.5 53.5004 20.4 54.1004 20.1C54.6004 19.9 55.1004 19.5 55.5004 19.1C55.9004 18.7 56.2004 18.2 56.5004 17.6C56.7004 17 56.9004 16.4 56.9004 15.8C56.9004 15.2 56.8004 14.5 56.5004 14C56.3004 13.4 55.9004 12.9 55.5004 12.5C55.1004 12.1 54.6004 11.7 54.1004 11.5C53.5004 11.3 53.0004 11.1 52.3004 11.1C51.7004 11.1 51.1004 11.2 50.5004 11.5C50.0004 11.7 49.5004 12.1 49.1004 12.5C48.7004 12.9 48.4004 13.4 48.1004 14C47.9004 14.6 47.8004 15.2 47.8004 15.8C47.8004 16.5 47.9004 17.1 48.1004 17.6C48.3004 18.2 48.6004 18.7 49.1004 19.1C49.5004 19.5 50.0004 19.9 50.5004 20.1C51.0004 20.4 51.6004 20.5 52.3004 20.5Z" fill="white"/>
<path d="M68.4 23.1C67.4 23.1 66.4 22.9 65.5 22.5C64.6 22.1 63.8 21.6 63.2 20.9C62.5 20.2 62 19.5 61.6 18.6C61.2 17.7 61 16.8 61 15.7C61 14.7 61.2 13.7 61.6 12.8C62 11.9 62.5 11.1 63.2 10.5C63.9 9.80005 64.6 9.30005 65.5 8.90005C66.4 8.50005 67.4 8.30005 68.4 8.30005C69.2 8.30005 69.9 8.40004 70.6 8.60004C71.3 8.80004 71.9 9.10005 72.5 9.50005C73.1 9.90005 73.6 10.3 74 10.9C74.4 11.4 74.8 12 75.1 12.6L72.6 13.7C72.2 12.8 71.7 12.2 71 11.7C70.3 11.2 69.4 11 68.5 11C67.8 11 67.2 11.1 66.7 11.4C66.1 11.6 65.7 12 65.3 12.4C64.9 12.8 64.6 13.3 64.3 13.9C64.1 14.5 63.9 15.1 63.9 15.7C63.9 16.3 64 17 64.3 17.5C64.5 18.1 64.9 18.6 65.3 19C65.7 19.4 66.2 19.8 66.8 20C67.4 20.2 68 20.4 68.6 20.4C69.6 20.4 70.5 20.1 71.2 19.6C71.9 19.1 72.4 18.4 72.8 17.6L75.4 18.7C74.8 20 74 21.1 72.8 21.9C71.4 22.7 70 23.1 68.4 23.1Z" fill="white"/>
<path d="M82.6003 23.1C80.7003 23.1 79.3003 22.5 78.3003 21.4C77.3003 20.3 76.8003 18.8 76.8003 16.8V8.69995H79.7003V16.7C79.7003 17.9 80.0003 18.9 80.6003 19.6C81.2003 20.3 82.1003 20.7 83.3003 20.7C83.8003 20.7 84.3003 20.6 84.8003 20.4C85.3003 20.2 85.7003 19.9 86.0003 19.6C86.3003 19.2 86.6003 18.8 86.8003 18.3C87.0003 17.8 87.1003 17.2 87.1003 16.6V8.79996H89.9003V22.9H87.0003V21C86.5003 21.7 85.9003 22.2 85.1003 22.6C84.4003 22.9 83.5003 23.1 82.6003 23.1Z" fill="white"/>
<path d="M102.6 16.8C102.3 16.3 101.9 15.9 101.4 15.6C100.9 15.3 100.4 15 99.8003 14.9C99.2003 14.7 98.6003 14.6 98.0003 14.4C96.9003 14.2 96.1003 13.9 95.5003 13.7C94.9003 13.5 94.6003 13.1 94.6003 12.5C94.6003 12 94.8003 11.6 95.2003 11.2C95.6003 10.9 96.3003 10.7 97.1003 10.7C97.9003 10.7 98.5003 10.8 99.0003 11.1C99.5003 11.4 100 11.8 100.3 12.3L102.3 10.3C101.8 9.69996 101.2 9.29996 100.5 8.89996C99.6003 8.39996 98.5003 8.19995 97.1003 8.19995C96.3003 8.19995 95.5003 8.29995 94.8003 8.49995C94.1003 8.69995 93.6003 8.99996 93.1003 9.39996C92.6003 9.79996 92.3003 10.2 92.0003 10.8C91.7003 11.3 91.6003 11.8 91.6003 12.4C91.6003 13.1 91.7003 13.7 92.0003 14.2C92.3003 14.7 92.7003 15.1 93.1003 15.4C93.5003 15.7 94.1003 15.9 94.7003 16.1C95.3003 16.3 95.9003 16.4 96.5003 16.6C97.0003 16.7 97.4003 16.8 97.8003 16.9C98.2003 17 98.6003 17.1 98.9003 17.2C99.2003 17.3 99.5003 17.5 99.7003 17.7C99.9003 17.9 100 18.2 100 18.5C100 19 99.8003 19.5 99.3003 19.9C98.8003 20.3 98.1003 20.5 97.2003 20.5C96.3003 20.5 95.6003 20.3 95.0003 20C94.4003 19.6 93.9003 19.1 93.4003 18.5L91.3003 20.6C91.8003 21.3 92.5003 21.9 93.3003 22.3C94.3003 22.8 95.6003 23.1 97.1003 23.1C98.1003 23.1 98.9003 23 99.6003 22.7C100.3 22.4 100.9 22.1 101.4 21.7C101.9 21.3 102.2 20.8 102.5 20.3C102.7 19.8 102.9 19.2 102.9 18.7C103 17.9 102.9 17.3 102.6 16.8Z" fill="white"/>
</svg>
